<?xml version="1.0" encoding="utf-8"?>
<!-- Generator: Adobe Illustrator 21.1.0, SVG Export Plug-In . SVG Version: 6.00 Build 0)  -->
<svg version="1.1" id="Layer_1" xmlns="http://www.w3.org/2000/svg" xmlns:xlink="http://www.w3.org/1999/xlink" x="0px" y="0px"
	 viewBox="0 0 2000 668" style="enable-background:new 0 0 2000 668;" xml:space="preserve">
<style type="text/css">
	.st0{fill:#9B6649;}
	.st1{fill:#805038;}
	.st2{fill:#6D412D;}
	.st3{fill:#476429;}
	.st4{fill:#3E5823;}
	.st5{fill:#76B72A;}
	.st6{opacity:0.2;}
	.st7{fill:#1D1D1B;}
	.st8{opacity:0.2;fill:#1D1D1B;enable-background:new    ;}
	.st9{fill:#BA6456;}
	.st10{fill:#8A4336;}
	.st11{fill:#6D9C40;}
	.st12{fill:#547831;}
	.st13{opacity:0.5;fill:#C5D665;enable-background:new    ;}
	.st14{fill:#F08966;}
	.st15{fill:#845F41;}
	.st16{fill:#563722;}
	.st17{fill:#D68162;}
	.st18{fill:#F9F8F7;}
	.st19{fill:#D1D3D4;}
	.st20{fill:#BB8767;}
	.st21{fill:#7A9A9E;}
	.st22{fill:#A4C6D3;}
	.st23{fill:#435C64;}
	.st24{fill:#A2CCD6;}
	.st25{fill:#FFFFFF;}
	.st26{fill:#9B9B9A;}
	.st27{fill:#717070;}
	.st28{fill:#E20A13;}
	.st29{fill:none;stroke:#333333;stroke-width:22;stroke-miterlimit:10;}
	.st30{fill:#F9C150;}
	.st31{fill:#E58B33;}
	.st32{fill:#28242C;}
	.st33{fill:#C4C3C4;}
	.st34{fill:#8ACBF0;}
	.st35{fill:#B9D9ED;}
	.st36{fill:#FFF381;}
	.st37{fill:#E53C39;}
	.st38{fill:#C13334;}
	.st39{opacity:0.4;}
	.st40{fill:#EDA577;}
	.st41{opacity:0.6;fill:#B77548;enable-background:new    ;}
	.st42{fill:#C9DFF4;}
	.st43{fill:#7CA2B0;}
	.st44{fill:#542524;}
	.st45{fill:#C98058;}
	.st46{opacity:0.2;fill:#EA5C8A;enable-background:new    ;}
	.st47{fill:#673334;}
	.st48{fill:#000100;}
	.st49{fill:#2E5579;}
	.st50{opacity:0.4;fill:#333435;enable-background:new    ;}
	.st51{opacity:0.5;fill:#333435;enable-background:new    ;}
	.st52{fill:#333435;}
	.st53{fill:#232323;}
	.st54{fill:#FABB33;}
	.st55{fill:#CA6D1E;}
	.st56{fill:#993D0F;}
	
		.st57{fill:none;stroke:#FFFFFF;stroke-width:2;stroke-linecap:round;stroke-linejoin:round;stroke-miterlimit:10;stroke-dasharray:10,20;}
</style>
<g>
	<g>
		<path class="st0" d="M919.9,465.7c0,0-4.5-7.1-5.9-10.6s-2.7-6.6-2.7-6.6s-6.5-3-8-4.5s-11.8-6.2-13.3-9.2S874.5,422,874.5,422
			l-13.8-0.3c0,0-7.4,1.4-10.7,2.8s-6.8,12.8-6.8,12.8l-12.9,5.2c0,0-9.8,0.8-9.9,3.3c-0.1,2.5-4.7,10.4-4.7,10.4s-9.2,4.8-10.9,6.3
			s-4.6,9.4-4.7,11.4c-0.1,2-6.8,5.4-9.3,6.3s-10.5-1.7-15,6.2c-4.5,7.9-4.6,9.9-8,11.3c-3.3,1.4-10.7,2.3-13.2,4.2
			c-2.5,1.9-12.8,5.7-12.8,5.7l-14.4,2.2"/>
		<g>
			<path class="st1" d="M914.1,503.5c-4.4-1.8-5.5-2.6-5.5-2.6s-4-1.3-5.2-0.6c-1.3,0.7-7.7,0.4-9.7-0.2c-2-0.5-8.8-1.7-8.8-1.7
				l-10.5-1.4l-9.5-4.7L863,484l-15.9,6.4l-16.5-2.6l-6.5-6.6l13.2-2.7c0,0,8.8-4.8,8.8-5.6c0-0.7-10.2-6.4-10.2-6.4l2.3-4.2
				l16.8-3.2c0,0,7.9-3.3,6.8-4.6s3.3-7.7,3.3-7.7l8.4-5.3l-2.7-6.5l-2.7-6.8l6.5-6.4l-13.8-0.3c0,0-7.4,1.4-10.7,2.8
				s-6.8,12.8-6.8,12.8l-12.9,5.2c0,0-9.8,0.8-9.9,3.3c-0.1,2.5-4.7,10.4-4.7,10.4s-9.2,4.8-10.9,6.3s-4.6,9.4-4.7,11.4
				c-0.1,2-6.8,5.4-9.3,6.3s-10.5-1.7-15,6.2c-4.5,7.9-4.6,9.9-8,11.3c-3.3,1.4-10.7,2.3-13.2,4.2c-2.5,1.9-12.8,5.7-12.8,5.7
				l-14.4,2.2"/>
		</g>
		<path class="st1" d="M891.8,459.2l-0.2,3.7l-3.5,4.7c0,0,0.7,2.5,3,4s2.9,5.5,2.8,7.8c-0.1,2.2-3.1-1.8-3.1-1.8l0.2-3.5l-5.1-3.6
			c0,0,0.6-4,0.3-4.7C885.8,465.1,891.6,463.2,891.8,459.2z"/>
		<path class="st1" d="M853.2,473.9l7.5-2.5l5.6,2.1l-4.1-3.4c0,0-0.8-0.2-2.8,0.1C857.3,470.5,853.2,473.9,853.2,473.9z"/>
		<path class="st1" d="M889.5,441.9l6.2,5.1c0,0,0.7,1.8-0.2,3.2c-0.9,1.5-0.3,4.7-0.3,4.7l-2.6-7.5L889.5,441.9z"/>
		<g>
			<path class="st2" d="M866.2,510.3c-2.1,0.5-23.9-0.5-23.9-0.5s-14.6-1-14.7-1.5c-0.2-0.5-2-4-2-4l-18.8,1.4l-9.8-6.4l9.5-2.6
				c0,0-5.6-9.3-6.3-10.8s-2.2-4-2.2-4l8-5.6l6.3-4.1l0.5-8.2l5.9-4.4c0,0,4.2-3.2,4.3-3.9c0-0.7,4.5-6.9,4.5-6.9l9.8-1.3
				c0,0,6.4-5.1,6.9-6.3c0.5-1.2,3.4-3.2,3.9-3.9c0.4-0.7,4.6-2.7,4.6-2.7l4.2-2.2l0.3-5.5l6.3-3.1l1.4-2l-4.2-0.1
				c0,0-7.4,1.4-10.7,2.8s-6.8,12.8-6.8,12.8l-12.9,5.2c0,0-9.8,0.8-9.9,3.3c-0.1,2.5-4.7,10.4-4.7,10.4s-9.2,4.8-10.9,6.3
				s-4.6,9.4-4.7,11.4c-0.1,2-6.8,5.4-9.3,6.3s-10.5-1.7-15,6.2c-4.5,7.9-4.6,9.9-8,11.3c-3.3,1.4-10.7,2.3-13.2,4.2
				c-2.5,1.9-12.8,5.7-12.8,5.7l-28,6.9l157.6-1.9C871.3,512.6,868.2,509.8,866.2,510.3z"/>
		</g>
		<path class="st1" d="M876.2,425.8l3.2,2.9l4.4,2.7l1.4,4.2c0,0,2,3,2.3,4.4c0.4,1.3-3.7-4.1-3.7-4.1s-1-1.2-2-2.2
			s-2.8-3.2-2.8-3.2L876.2,425.8z"/>
	</g>
	<g>
		<path class="st0" d="M736.3,457.1c0,0-4.5-7.1-5.9-10.6s-2.7-6.6-2.7-6.6s-6.5-3-8-4.5s-11.8-6.2-13.3-9.2s-15.5-12.8-15.5-12.8
			l-13.8-0.3c0,0-7.4,1.4-10.7,2.8s-6.8,12.8-6.8,12.8l-12.9,5.2c0,0-9.8,0.8-9.9,3.3c-0.1,2.5-4.7,10.4-4.7,10.4s-9.2,4.8-10.9,6.3
			s-4.6,9.4-4.7,11.4"/>
		<g>
			<path class="st1" d="M730.5,494.9c-4.4-1.8-5.5-2.6-5.5-2.6s-4-1.3-5.2-0.6c-1.3,0.7-7.7,0.4-9.7-0.2c-2-0.5-8.8-1.7-8.8-1.7
				l-10.5-1.4l-9.5-4.7l-1.9-8.3l-15.9,6.4l-16.5-2.6l-6.5-6.6l13.2-2.7c0,0,8.8-4.8,8.8-5.6c0-0.7-10.2-6.4-10.2-6.4l2.3-4.2
				l16.8-3.2c0,0,7.9-3.3,6.8-4.6c-1.1-1.3,3.3-7.7,3.3-7.7l8.4-5.3l-2.7-6.5l-2.7-6.8l6.5-6.4l-13.8-0.3c0,0-7.4,1.4-10.7,2.8
				s-6.8,12.8-6.8,12.8l-12.9,5.2c0,0-9.8,0.8-9.9,3.3c-0.1,2.5-4.7,10.4-4.7,10.4s-9.2,4.8-10.9,6.3s-4.6,9.4-4.7,11.4"/>
		</g>
		<path class="st1" d="M708.2,450.6l-0.2,3.7l-3.5,4.7c0,0,0.7,2.5,3,4s2.9,5.5,2.8,7.8c-0.1,2.2-3.1-1.8-3.1-1.8l0.2-3.5l-5.1-3.6
			c0,0,0.6-4,0.3-4.7C702.2,456.5,708,454.6,708.2,450.6z"/>
		<path class="st1" d="M669.6,465.3l7.5-2.5l5.6,2.1l-4.1-3.4c0,0-0.8-0.2-2.8,0.1C673.8,461.9,669.6,465.3,669.6,465.3z"/>
		<path class="st1" d="M706,433.4l6.2,5.1c0,0,0.7,1.8-0.2,3.2c-0.9,1.5-0.3,4.7-0.3,4.7l-2.6-7.5L706,433.4z"/>
		<g>
			<path class="st2" d="M687.7,504.1c0,0-3.1-2.8-5.1-2.3c-2.1,0.5-23.9-0.5-23.9-0.5s-14.6-1-14.7-1.5c-0.2-0.5-2-4-2-4l-18.8,1.4
				l-9.8-6.4l9.5-2.6c0,0-5.6-9.3-6.3-10.8s-2.2-4-2.2-4l8-5.6l6.3-4.1l0.5-8.2l5.9-4.4c0,0,4.2-3.2,4.3-3.9c0-0.7,4.5-6.9,4.5-6.9
				l9.8-1.3c0,0,6.4-5.1,6.9-6.3c0.5-1.2,3.4-3.2,3.9-3.9c0.4-0.7,4.6-2.7,4.6-2.7l4.2-2.2l0.3-5.5l6.3-3.1l1.4-2l-4.2-0.1
				c0,0-7.4,1.4-10.7,2.8s-6.8,12.8-6.8,12.8l-12.9,5.2c0,0-9.8,0.8-9.9,3.3c-0.1,2.5-4.7,10.4-4.7,10.4s-9.2,4.8-10.9,6.3
				s-4.6,9.4-4.7,11.4"/>
		</g>
		<path class="st1" d="M692.7,417.2l3.2,2.9l4.4,2.7l1.4,4.2c0,0,2,3,2.3,4.4c0.4,1.3-3.7-4.1-3.7-4.1s-1-1.2-2-2.2
			s-2.8-3.2-2.8-3.2L692.7,417.2z"/>
	</g>
	<path class="st3" d="M872.7,450.5c1.7,0,3.2,1.2,3.6,2.8c0.8-1.3,2.2-2.2,3.9-2.2c2.5,0,4.5,2,4.5,4.5c0,0.1,0,0.3,0,0.4
		c0.1,0,0.2,0,0.4,0c2,0,3.7,1.6,3.7,3.7c0,2-1.6,3.7-3.7,3.7h-16.6c-2,0-3.7-1.6-3.7-3.7c0-2,1.6-3.7,3.7-3.7
		c0.5,0,0.9,0.1,1.3,0.3c-0.4-0.6-0.7-1.3-0.7-2.1C869,452.2,870.7,450.5,872.7,450.5z"/>
	<path class="st4" d="M892.6,436.4c1.7,0,3.2,1.2,3.6,2.8c0.8-1.3,2.2-2.2,3.9-2.2c2.5,0,4.5,2,4.5,4.5c0,0.1,0,0.3,0,0.4
		c0.1,0,0.2,0,0.4,0c2,0,3.7,1.6,3.7,3.7c0,2-1.6,3.7-3.7,3.7h-16.6c-2,0-3.7-1.6-3.7-3.7c0-2,1.6-3.7,3.7-3.7
		c0.5,0,0.9,0.1,1.3,0.3c-0.4-0.6-0.7-1.3-0.7-2.1C888.9,438.1,890.5,436.4,892.6,436.4z"/>
	<path class="st3" d="M832.1,447.2c1.7,0,3.2,1.2,3.6,2.8c0.8-1.3,2.2-2.2,3.9-2.2c2.5,0,4.5,2,4.5,4.5c0,0.1,0,0.3,0,0.4
		c0.1,0,0.2,0,0.4,0c2,0,3.7,1.6,3.7,3.7c0,2-1.6,3.7-3.7,3.7h-16.6c-2,0-3.7-1.6-3.7-3.7c0-2,1.6-3.7,3.7-3.7
		c0.5,0,0.9,0.1,1.3,0.3c-0.4-0.6-0.7-1.3-0.7-2.1C828.4,448.9,830,447.2,832.1,447.2z"/>
	<path class="st4" d="M851.9,448.3c1.7,0,3.2,1.2,3.6,2.8c0.8-1.3,2.2-2.2,3.9-2.2c2.5,0,4.5,2,4.5,4.5c0,0.1,0,0.3,0,0.4
		c0.1,0,0.2,0,0.4,0c2,0,3.7,1.6,3.7,3.7c0,2-1.6,3.7-3.7,3.7h-16.6c-2,0-3.7-1.6-3.7-3.7c0-2,1.6-3.7,3.7-3.7
		c0.5,0,0.9,0.1,1.3,0.3c-0.4-0.6-0.7-1.3-0.7-2.1C848.2,450,849.9,448.3,851.9,448.3z"/>
	<path class="st3" d="M790,444.3c1.7,0,3.2,1.2,3.6,2.8c0.8-1.3,2.2-2.2,3.9-2.2c2.5,0,4.5,2,4.5,4.5c0,0.1,0,0.3,0,0.4
		c0.1,0,0.2,0,0.4,0c2,0,3.7,1.6,3.7,3.7c0,2-1.6,3.7-3.7,3.7h-16.6c-2,0-3.7-1.6-3.7-3.7c0-2,1.6-3.7,3.7-3.7
		c0.5,0,0.9,0.1,1.3,0.3c-0.4-0.6-0.7-1.3-0.7-2.1C786.3,446,787.9,444.3,790,444.3z"/>
	<path class="st4" d="M809.8,445.4c1.7,0,3.2,1.2,3.6,2.8c0.8-1.3,2.2-2.2,3.9-2.2c2.5,0,4.5,2,4.5,4.5c0,0.1,0,0.3,0,0.4
		c0.1,0,0.2,0,0.4,0c2,0,3.7,1.6,3.7,3.7c0,2-1.6,3.7-3.7,3.7h-16.6c-2,0-3.7-1.6-3.7-3.7c0-2,1.6-3.7,3.7-3.7
		c0.5,0,0.9,0.1,1.3,0.3c-0.4-0.6-0.7-1.3-0.7-2.1C806.1,447.1,807.8,445.4,809.8,445.4z"/>
	<path class="st3" d="M748.8,444.9c1.7,0,3.2,1.2,3.6,2.8c0.8-1.3,2.2-2.2,3.9-2.2c2.5,0,4.5,2,4.5,4.5c0,0.1,0,0.3,0,0.4
		c0.1,0,0.2,0,0.4,0c2,0,3.7,1.6,3.7,3.7c0,2-1.6,3.7-3.7,3.7h-16.6c-2,0-3.7-1.6-3.7-3.7c0-2,1.6-3.7,3.7-3.7
		c0.5,0,0.9,0.1,1.3,0.3c-0.4-0.6-0.7-1.3-0.7-2.1C745.1,446.5,746.7,444.9,748.8,444.9z"/>
	<path class="st4" d="M768.6,446c1.7,0,3.2,1.2,3.6,2.8c0.8-1.3,2.2-2.2,3.9-2.2c2.5,0,4.5,2,4.5,4.5c0,0.1,0,0.3,0,0.4
		c0.1,0,0.2,0,0.4,0c2,0,3.7,1.6,3.7,3.7c0,2-1.6,3.7-3.7,3.7h-16.6c-2,0-3.7-1.6-3.7-3.7c0-2,1.6-3.7,3.7-3.7
		c0.5,0,0.9,0.1,1.3,0.3c-0.4-0.6-0.7-1.3-0.7-2.1C764.9,447.6,766.6,446,768.6,446z"/>
	<path class="st3" d="M706.8,445.2c1.7,0,3.2,1.2,3.6,2.8c0.8-1.3,2.2-2.2,3.9-2.2c2.5,0,4.5,2,4.5,4.5c0,0.1,0,0.3,0,0.4
		c0.1,0,0.2,0,0.4,0c2,0,3.7,1.6,3.7,3.7c0,2-1.6,3.7-3.7,3.7h-16.6c-2,0-3.7-1.6-3.7-3.7c0-2,1.6-3.7,3.7-3.7
		c0.5,0,0.9,0.1,1.3,0.3c-0.4-0.6-0.7-1.3-0.7-2.1C703.2,446.9,704.8,445.2,706.8,445.2z"/>
	<path class="st4" d="M726.7,446.3c1.7,0,3.2,1.2,3.6,2.8c0.8-1.3,2.2-2.2,3.9-2.2c2.5,0,4.5,2,4.5,4.5c0,0.1,0,0.3,0,0.4
		c0.1,0,0.2,0,0.4,0c2,0,3.7,1.6,3.7,3.7c0,2-1.6,3.7-3.7,3.7h-16.6c-2,0-3.7-1.6-3.7-3.7c0-2,1.6-3.7,3.7-3.7
		c0.5,0,0.9,0.1,1.3,0.3c-0.4-0.6-0.7-1.3-0.7-2.1C723,448,724.7,446.3,726.7,446.3z"/>
	<path class="st3" d="M665.6,451.2c1.7-0.2,3.3,0.7,3.9,2.3c0.6-1.4,1.9-2.5,3.5-2.7c2.5-0.3,4.8,1.4,5.1,3.8c0,0.1,0,0.3,0,0.4
		c0.1,0,0.2-0.1,0.4-0.1c2-0.3,3.9,1.1,4.1,3.1c0.3,2-1.1,3.9-3.1,4.2l-16.5,2.3c-2,0.3-3.9-1.1-4.2-3.1s1.1-3.9,3.1-4.2
		c0.5-0.1,0.9,0,1.4,0.1c-0.5-0.5-0.9-1.2-1-2C662.1,453.4,663.5,451.5,665.6,451.2z"/>
	<path class="st4" d="M685.4,449.6c1.7-0.2,3.3,0.7,3.9,2.3c0.6-1.4,1.9-2.5,3.5-2.7c2.5-0.3,4.8,1.4,5.1,3.8c0,0.1,0,0.3,0,0.4
		c0.1,0,0.2-0.1,0.4-0.1c2-0.3,3.9,1.1,4.1,3.1c0.3,2-1.1,3.9-3.1,4.2l-16.5,2.3c-2,0.3-3.9-1.1-4.2-3.1s1.1-3.9,3.1-4.2
		c0.5-0.1,0.9,0,1.4,0.1c-0.5-0.5-0.9-1.2-1-2C681.9,451.7,683.3,449.9,685.4,449.6z"/>
	<path class="st3" d="M631.9,454.4c1.7-0.2,3.3,0.7,3.9,2.3c0.6-1.4,1.9-2.5,3.5-2.7c2.5-0.3,4.8,1.4,5.1,3.8c0,0.1,0,0.3,0,0.4
		c0.1,0,0.2-0.1,0.4-0.1c2-0.3,3.9,1.1,4.1,3.1c0.3,2-1.1,3.9-3.1,4.2l-16.5,2.3c-2,0.3-3.9-1.1-4.2-3.1s1.1-3.9,3.1-4.2
		c0.5-0.1,0.9,0,1.4,0.1c-0.5-0.5-0.9-1.2-1-2C628.4,456.5,629.9,454.6,631.9,454.4z"/>
	<path class="st4" d="M651.7,452.7c1.7-0.2,3.3,0.7,3.9,2.3c0.6-1.4,1.9-2.5,3.5-2.7c2.5-0.3,4.8,1.4,5.1,3.8c0,0.1,0,0.3,0,0.4
		c0.1,0,0.2-0.1,0.4-0.1c2-0.3,3.9,1.1,4.1,3.1c0.3,2-1.1,3.9-3.1,4.2l-16.5,2.3c-2,0.3-3.9-1.1-4.2-3.1s1.1-3.9,3.1-4.2
		c0.5-0.1,0.9,0,1.4,0.1c-0.5-0.5-0.9-1.2-1-2C648.3,454.8,649.7,453,651.7,452.7z"/>
	<g>
		<path class="st5" d="M914.7,541.4v-75.1c-44.9-7-94-10.8-145.5-10.8s-100.6,3.8-145.5,10.8v75.1H914.7z"/>
	</g>
	<g class="st6">
		<path class="st7" d="M769.2,455.5c-51.5,0-100.6,3.8-145.5,10.8v35.1c44.9-7,94-10.8,145.5-10.8s100.6,3.8,145.5,10.8v-35.1
			C869.8,459.4,820.7,455.5,769.2,455.5z"/>
	</g>
	<g>
		<path class="st0" d="M1472.6,319.6c0,0-4.4-0.1-6.3-3.8c-2-3.7-2.8-7.4-5.5-9.5c-2.6-2.1-8.9-5.9-8.9-5.9s-3-4.7-4-7.1
			s-1.8-4.5-1.8-4.5s-4.4-2-5.4-3s-7.9-4.2-8.9-6.2s-10.4-8.6-10.4-8.6l-9.3-0.2c0,0-5,0.9-7.2,1.9s-4.6,8.6-4.6,8.6l-8.6,3.5
			c0,0-6.6,0.5-6.7,2.2s-3.1,7-3.1,7s-6.2,3.2-7.3,4.2c-1.1,1-3.1,6.3-3.2,7.6c-0.1,1.3-4.6,3.6-6.2,4.2c-1.7,0.6-7-1.1-10,4.2
			c-3,5.3-3.1,6.6-5.3,7.6c-2.2,1,6.8,4.5,5.1,5.9c-1.7,1.3,16.2,6.7,16.2,6.7l-9.7,1.5l123.5,9.7l22.3-8.2l-18.5-14.9
			c-2.7-0.4-12.4-2.2-12.4-2.2L1472.6,319.6z"/>
		<g>
			<path class="st1" d="M1458.2,328.3c0,0-7.3-1.3-10.2-2.5c-2.9-1.2-3.7-1.8-3.7-1.8s-2.7-0.9-3.5-0.4s-5.2,0.2-6.5-0.1
				c-1.3-0.4-5.9-1.1-5.9-1.1l-7-1l-6.4-3.1l-1.3-5.5l-10.6,4.3l-11.1-1.7l-4.4-4.4l8.8-1.8c0,0,5.9-3.2,5.9-3.7s-6.8-4.3-6.8-4.3
				l1.5-2.8l11.3-2.1c0,0,5.3-2.2,4.5-3.1s2.2-5.1,2.2-5.1l5.6-3.6l-1.8-4.4l-1.8-4.5l4.3-4.3l-9.3-0.2c0,0-5,0.9-7.2,1.9
				s-4.6,8.6-4.6,8.6l-8.6,3.5c0,0-6.6,0.5-6.7,2.2s-3.1,7-3.1,7s-6.2,3.2-7.3,4.2c-1.1,1-3.1,6.3-3.2,7.6c-0.1,1.3-4.6,3.6-6.2,4.2
				c-1.7,0.6-7-1.1-10,4.2c-3,5.3-3.1,6.6-5.3,7.6c-2.2,1,6.8,4.5,5.1,5.9c-1.7,1.3,16.2,6.7,16.2,6.7l-9.7,1.5l112.6-3l-14.6-2.3
				L1458.2,328.3z"/>
		</g>
		<path class="st1" d="M1433.1,296.1l-0.1,2.5l-2.4,3.1c0,0,0.4,1.7,2,2.7s2,3.7,1.9,5.2s-2.1-1.2-2.1-1.2l0.1-2.3l-3.4-2.4
			c0,0,0.4-2.7,0.2-3.2C1429,300,1432.9,298.8,1433.1,296.1z"/>
		<path class="st1" d="M1407.2,305.9l5-1.7l3.7,1.4l-2.7-2.3c0,0-0.5-0.1-1.9,0.1C1409.9,303.6,1407.2,305.9,1407.2,305.9z"/>
		<path class="st1" d="M1431.6,284.5l4.2,3.4c0,0,0.5,1.2-0.1,2.2s-0.2,3.2-0.2,3.2l-1.8-5.1L1431.6,284.5z"/>
		<g>
			<path class="st2" d="M1415.9,330.4c-1.4,0.3-16.1-0.3-16.1-0.3s-9.8-0.7-9.9-1s-1.3-2.7-1.3-2.7l-12.6,0.9l-6.6-4.3l6.4-1.7
				c0,0-3.7-6.3-4.2-7.3s-1.5-2.7-1.5-2.7l5.4-3.7l4.2-2.8l0.3-5.5l4-2.9c0,0,2.8-2.1,2.9-2.6c0-0.5,3-4.6,3-4.6l6.6-0.9
				c0,0,4.3-3.4,4.6-4.3c0.3-0.8,2.3-2.1,2.6-2.6c0.3-0.5,3.1-1.8,3.1-1.8l2.8-1.5l0.2-3.7l4.2-2.1l1-1.3l-2.8-0.1
				c0,0-5,0.9-7.2,1.9s-4.6,8.6-4.6,8.6l-8.6,3.5c0,0-6.6,0.5-6.7,2.2s-3.1,7-3.1,7s-6.2,3.2-7.3,4.2c-1.1,1-3.1,6.3-3.2,7.6
				c-0.1,1.3-4.6,3.6-6.2,4.2c-1.7,0.6-7-1.1-10,4.2c-3,5.3-3.1,6.6-5.3,7.6c-2.2,1,6.8,4.5,5.1,5.9c-1.7,1.3,16.2,6.7,16.2,6.7
				l-18.8,4.6l66.9-7.1C1419.3,331.9,1417.2,330.1,1415.9,330.4z"/>
		</g>
		<path class="st1" d="M1422.6,273.7l2.2,1.9l3,1.8l0.9,2.8c0,0,1.3,2,1.5,2.9s-2.5-2.7-2.5-2.7s-0.7-0.8-1.4-1.5
			c-0.7-0.7-1.9-2.2-1.9-2.2L1422.6,273.7z"/>
	</g>
	<g>
		<path class="st5" d="M1357.3,351.8v-75.7c92.3,68.5,192,62.3,227.2,68.3l1.1,7.3h-228.3L1357.3,351.8L1357.3,351.8z"/>
	</g>
	<g>
		<g>
			<path class="st8" d="M1507.5,342.7c-2.8,1.6-7.4,1.6-10.2,0c-2.8-1.6-2.8-4.3,0-5.9s7.4-1.6,10.2,0
				C1510.3,338.5,1510.3,341.1,1507.5,342.7z"/>
			<g>
				<path class="st9" d="M1504.6,339.2c0,1.2-1,2.2-2.2,2.2l0,0c-1.2,0-2.2-1-2.2-2.2v-12.4c0-1.2,1-2.2,2.2-2.2l0,0
					c1.2,0,2.2,1,2.2,2.2V339.2z"/>
				<path class="st10" d="M1502.5,334c0.8,0,1.5-0.1,2.2-0.2v-6.9c0-1.2-1-2.2-2.2-2.2s-2.2,1-2.2,2.2v6.9
					C1501,333.9,1501.7,334,1502.5,334z"/>
				<path class="st11" d="M1512.2,321.7c0,5.4-4.4,9.8-9.8,9.8s-9.8-4.4-9.8-9.8s4.4-27,9.8-27
					C1507.9,294.6,1512.2,316.2,1512.2,321.7z"/>
				<path class="st12" d="M1502.5,294.6c-0.3,0-0.5,0-0.8,0.1c2.5,6.8,4.2,16.2,4.2,19.5c0,5.4-4.4,9.8-9.8,9.8
					c-1.1,0-2.2-0.2-3.2-0.5c0.9,4.5,4.8,7.9,9.6,7.9c5.4,0,9.8-4.4,9.8-9.8C1512.2,316.2,1507.9,294.6,1502.5,294.6z"/>
			</g>
		</g>
		
			<ellipse transform="matrix(0.2325 -0.9726 0.9726 0.2325 847.2372 1695.1061)" class="st13" cx="1497.7" cy="310.7" rx="6.8" ry="1.4"/>
	</g>
	<g>
		<g>
			<path class="st8" d="M1546.8,347.8c-2.8,1.6-7.4,1.6-10.2,0c-2.8-1.6-2.8-4.3,0-5.9s7.4-1.6,10.2,0
				C1549.6,343.6,1549.6,346.2,1546.8,347.8z"/>
			<g>
				<path class="st9" d="M1543.9,344.4c0,1.2-1,2.2-2.2,2.2l0,0c-1.2,0-2.2-1-2.2-2.2V332c0-1.2,1-2.2,2.2-2.2l0,0
					c1.2,0,2.2,1,2.2,2.2V344.4z"/>
				<path class="st10" d="M1541.8,339.1c0.8,0,1.5-0.1,2.2-0.2V332c0-1.2-1-2.2-2.2-2.2s-2.2,1-2.2,2.2v6.9
					C1540.3,339,1541,339.1,1541.8,339.1z"/>
				<path class="st11" d="M1551.6,326.8c0,5.4-4.4,9.8-9.8,9.8s-9.8-4.4-9.8-9.8s4.4-27,9.8-27S1551.6,321.4,1551.6,326.8z"/>
				<path class="st12" d="M1541.8,299.8c-0.3,0-0.5,0-0.8,0.1c2.5,6.8,4.2,16.2,4.2,19.5c0,5.4-4.4,9.8-9.8,9.8
					c-1.1,0-2.2-0.2-3.2-0.5c0.9,4.5,4.8,7.9,9.6,7.9c5.4,0,9.8-4.4,9.8-9.8S1547.2,299.8,1541.8,299.8z"/>
			</g>
		</g>
		
			<ellipse transform="matrix(0.2325 -0.9726 0.9726 0.2325 872.4727 1737.3066)" class="st13" cx="1537" cy="315.8" rx="6.8" ry="1.4"/>
	</g>
	<g>
		<rect x="677.3" y="358.1" class="st14" width="65.3" height="112.5"/>
		<rect x="673.5" y="351.8" class="st15" width="73" height="6.3"/>
		<rect x="673.5" y="348.6" class="st16" width="73" height="3.2"/>
		<rect x="677.3" y="432.7" class="st17" width="65.3" height="6.3"/>
		<g>
			<g>
				<rect x="689.2" y="366.1" class="st18" width="15.3" height="22.7"/>
				<rect x="690.8" y="367.8" class="st15" width="12" height="19.4"/>
				<polygon class="st19" points="690.8,387.2 702.8,367.8 690.8,367.8 				"/>
			</g>
			<g>
				<rect x="715.6" y="366.1" class="st18" width="15.3" height="22.7"/>
				<rect x="717.3" y="367.8" class="st15" width="12" height="19.4"/>
				<polygon class="st19" points="717.3,387.2 729.2,367.8 717.3,367.8 				"/>
			</g>
		</g>
		<g>
			<g>
				<rect x="689.2" y="403" class="st18" width="15.3" height="22.7"/>
				<rect x="690.8" y="404.7" class="st15" width="12" height="19.4"/>
				<polygon class="st19" points="690.8,424.1 702.8,404.7 690.8,404.7 				"/>
			</g>
			<g>
				<rect x="715.6" y="403" class="st18" width="15.3" height="22.7"/>
				<rect x="717.3" y="404.7" class="st15" width="12" height="19.4"/>
				<polygon class="st19" points="717.3,424.1 729.2,404.7 717.3,404.7 				"/>
			</g>
		</g>
		<g>
			<rect x="689.2" y="446.6" class="st18" width="41.7" height="24.1"/>
			<rect x="690.8" y="448.2" class="st15" width="38.4" height="22.5"/>
			<g>
				<rect x="692.6" y="449.9" class="st20" width="34.8" height="1.7"/>
				<rect x="692.6" y="453.7" class="st20" width="34.8" height="1.7"/>
				<rect x="692.6" y="457.5" class="st20" width="34.8" height="1.7"/>
				<rect x="692.6" y="461.3" class="st20" width="34.8" height="1.7"/>
				<rect x="692.6" y="465.1" class="st20" width="34.8" height="1.7"/>
				<rect x="692.6" y="469" class="st20" width="34.8" height="1.7"/>
			</g>
		</g>
	</g>
	<g>
		<rect x="739.6" y="377.5" class="st21" width="121.8" height="94"/>
		<g>
			<rect x="787.1" y="443.1" class="st18" width="26.9" height="28.4"/>
			<rect x="788.4" y="444.5" class="st15" width="24.1" height="27"/>
			<rect x="788.4" y="444.5" class="st19" width="12.1" height="27"/>
		</g>
		<rect x="733.9" y="371.9" class="st22" width="133.3" height="5.6"/>
		<g>
			<g>
				<g>
					<rect x="750.6" y="385.7" class="st18" width="12.9" height="19.1"/>
					<rect x="752" y="387.1" class="st15" width="10.1" height="16.3"/>
					<polygon class="st19" points="752,403.4 762.1,387.1 752,387.1 					"/>
				</g>
				<g>
					<rect x="762" y="385.7" class="st18" width="12.9" height="19.1"/>
					<rect x="763.5" y="387.1" class="st15" width="10.1" height="16.3"/>
					<polygon class="st19" points="763.5,403.4 773.5,387.1 763.5,387.1 					"/>
				</g>
			</g>
			<g>
				<g>
					<rect x="788.3" y="385.6" class="st18" width="12.9" height="19.1"/>
					<rect x="789.8" y="387.1" class="st15" width="10.1" height="16.3"/>
					<polygon class="st19" points="789.8,403.4 799.8,387.1 789.8,387.1 					"/>
				</g>
				<g>
					<rect x="799.8" y="385.7" class="st23" width="12.9" height="19.1"/>
					<rect x="801.2" y="387.1" class="st24" width="10.1" height="16.3"/>
					<polygon class="st19" points="801.2,403.4 811.3,387.1 801.2,387.1 					"/>
				</g>
			</g>
			<g>
				<g>
					<rect x="826" y="385.7" class="st23" width="12.9" height="19.1"/>
					<rect x="827.5" y="387.1" class="st24" width="10.1" height="16.3"/>
					<polygon class="st19" points="827.5,403.4 837.5,387.1 827.5,387.1 					"/>
				</g>
				<g>
					<rect x="837.5" y="385.7" class="st23" width="12.9" height="19.1"/>
					<rect x="838.9" y="387.1" class="st24" width="10.1" height="16.3"/>
					<polygon class="st19" points="838.9,403.4 849,387.1 838.9,387.1 					"/>
				</g>
			</g>
		</g>
		<g>
			<g>
				<g>
					<rect x="750.6" y="412.9" class="st23" width="12.9" height="19.1"/>
					<rect x="752" y="414.3" class="st24" width="10.1" height="16.3"/>
					<polygon class="st19" points="752,430.6 762.1,414.3 752,414.3 					"/>
				</g>
				<g>
					<rect x="762.1" y="412.9" class="st23" width="12.9" height="19.1"/>
					<rect x="763.5" y="414.3" class="st24" width="10.1" height="16.3"/>
					<polygon class="st19" points="763.5,430.6 773.5,414.3 763.5,414.3 					"/>
				</g>
			</g>
			<g>
				<g>
					<rect x="788.3" y="412.9" class="st23" width="12.9" height="19.1"/>
					<rect x="789.8" y="414.3" class="st24" width="10.1" height="16.3"/>
					<polygon class="st19" points="789.8,430.6 799.8,414.3 789.8,414.3 					"/>
				</g>
				<g>
					<rect x="799.8" y="412.9" class="st23" width="12.9" height="19.1"/>
					<rect x="801.2" y="414.3" class="st24" width="10.1" height="16.3"/>
					<polygon class="st19" points="801.2,430.6 811.3,414.3 801.2,414.3 					"/>
				</g>
			</g>
			<g>
				<g>
					<rect x="826" y="412.8" class="st23" width="12.9" height="19.1"/>
					<rect x="827.5" y="414.3" class="st24" width="10.1" height="16.3"/>
					<polygon class="st19" points="827.5,430.6 837.5,414.3 827.5,414.3 					"/>
				</g>
				<g>
					<rect x="837.5" y="412.9" class="st23" width="12.9" height="19.1"/>
					<rect x="838.9" y="414.3" class="st24" width="10.1" height="16.3"/>
					<polygon class="st19" points="838.9,430.6 849,414.3 838.9,414.3 					"/>
				</g>
			</g>
		</g>
		<g>
			<rect x="747.7" y="451.2" class="st18" width="35.1" height="20.3"/>
			<rect x="749.1" y="452.6" class="st15" width="32.3" height="18.9"/>
			<g>
				<rect x="750.6" y="454" class="st20" width="29.3" height="1.4"/>
				<rect x="750.6" y="457.2" class="st20" width="29.3" height="1.4"/>
				<rect x="750.6" y="460.5" class="st20" width="29.3" height="1.4"/>
				<rect x="750.6" y="463.7" class="st20" width="29.3" height="1.4"/>
				<rect x="750.6" y="466.9" class="st20" width="29.3" height="1.4"/>
				<rect x="750.6" y="470.1" class="st20" width="29.3" height="1.4"/>
			</g>
		</g>
		<polygon class="st23" points="859.2,353.5 741.8,353.5 733.9,371.9 867.1,371.9 		"/>
	</g>
	<g>
		<path class="st24" d="M800,331.3c0,0,1-7.3,5.9-5.8c0,0-5.6-3.5-6.8,2.1c0,0-3.1-3-6.8-0.4C792.4,327.2,797.3,327.6,800,331.3z"/>
		<path class="st24" d="M801,319.9c0,0,2.9-6,6.8-3.3c0,0-3.9-4.7-6.5-0.1c0,0-1.9-3.5-5.7-2.3C795.6,314.1,799.7,315.9,801,319.9z"
			/>
		<path class="st24" d="M811.6,325.9c0,0,3.2-3.8,5.5-1.2c0,0-1.9-4-4.6-1.2c0,0-0.7-2.9-3.7-2.7
			C808.8,320.8,811.4,322.8,811.6,325.9z"/>
		<path class="st24" d="M786.8,324.4c0,0,1.6-6.5,5.9-4.7c0,0-4.8-3.7-6.3,1.3c0,0-2.6-3-6.1-1C780.3,320,784.7,320.8,786.8,324.4z"
			/>
	</g>
	<path class="st25" d="M1489.6,106.7c-11.1,0-20.2,8.2-21.8,18.8c-2.3-2.4-5.6-3.9-9.2-3.9c-6.2,0-11.3,4.4-12.5,10.2
		c-2.7-3.9-7.2-6.4-12.3-6.4c-8.3,0-15.1,6.8-15.1,15.1c0,1.5,0.2,3,0.7,4.4c-1.5-1.1-3.3-1.7-5.2-1.7c-4.8,0-8.8,3.9-8.8,8.8
		c0,4.8,3.9,8.8,8.8,8.8h98.7c6.5,0,11.7-5.2,11.7-11.7c0-6.4-5.2-11.7-11.7-11.7c-1.1,0-2.1,0.2-3.1,0.4c1.2-2.7,1.9-5.7,1.9-8.9
		C1511.7,116.6,1501.8,106.7,1489.6,106.7z"/>
	<path class="st25" d="M564,220.8c-16.3,0-29.8,12-32.1,27.7c-3.4-3.5-8.2-5.8-13.5-5.8c-9.1,0-16.6,6.4-18.4,15
		c-4-5.7-10.7-9.4-18.2-9.4c-12.3,0-22.2,10-22.2,22.2c0,2.3,0.3,4.4,1,6.5c-2.2-1.6-4.8-2.6-7.7-2.6c-7.1,0-12.9,5.8-12.9,12.9
		s5.8,12.9,12.9,12.9h145.5c9.5,0,17.2-7.7,17.2-17.2s-7.7-17.2-17.2-17.2c-1.6,0-3.1,0.2-4.6,0.6c1.8-4,2.8-8.5,2.8-13.1
		C596.5,235.4,582,220.8,564,220.8z"/>
	<path class="st25" d="M520.6,405.6c5.3,0,9.7,3.7,10.9,8.6c2.4-4,6.8-6.6,11.8-6.6c7.6,0,13.8,6.2,13.8,13.8c0,0.4,0,0.8-0.1,1.2
		c0.4,0,0.7-0.1,1.1-0.1c6.2,0,11.3,5,11.3,11.3c0,6.2-5,11.3-11.3,11.3h-51c-6.2,0-11.3-5-11.3-11.3c0-6.2,5-11.3,11.3-11.3
		c1.5,0,2.8,0.3,4.1,0.8c-1.3-1.8-2.1-4.1-2.1-6.5C509.3,410.7,514.4,405.6,520.6,405.6z"/>
	<g>
		<rect x="1472.5" y="272.9" class="st26" width="10.3" height="74.5"/>
		<rect x="1472.5" y="272.9" class="st27" width="10.3" height="27.2"/>
		<circle class="st28" cx="1477.3" cy="241.6" r="44.7"/>
		<circle class="st25" cx="1477.3" cy="241.6" r="38.4"/>
		<path class="st7" d="M1466.3,271.1v-17.3c0-6,4.8-10.8,10.8-10.8s10.8,4.8,10.8,10.8v8.4h-2l6.4,8.9l6.4-8.9h-2v-8.4
			c0-10.8-8.8-19.6-19.6-19.6c-10.8,0-19.6,8.8-19.6,19.6v17.3H1466.3z"/>
	</g>
	<g>
		<path class="st29" d="M0,352.9h603c11.5,0,20.7,9.3,20.7,20.8v156.2c0,11.5,9.3,20.8,20.7,20.8h23.2h206.5h21.1
			c11.5,0,20.7-9.3,20.7-20.8V176.1c0-11.5,9.3-20.8,20.7-20.8h398.2c11.5,0,20.7,9.3,20.7,20.8v156.1c0,11.5,9.3,20.8,20.7,20.8
			H2000"/>
	</g>
	<path class="st4" d="M807.3,462.3c1.7,0,3.2,1.2,3.6,2.8c0.8-1.3,2.2-2.2,3.9-2.2c2.5,0,4.5,2,4.5,4.5c0,0.1,0,0.3,0,0.4
		c0.1,0,0.2,0,0.4,0c2,0,3.7,1.6,3.7,3.7c0,2-1.6,3.7-3.7,3.7H803c-2,0-3.7-1.6-3.7-3.7c0-2,1.6-3.7,3.7-3.7c0.5,0,0.9,0.1,1.3,0.3
		c-0.4-0.6-0.7-1.3-0.7-2.1C803.6,464,805.3,462.3,807.3,462.3z"/>
	<path class="st3" d="M792.2,466.4c1.7,0,3.2,1.2,3.6,2.8c0.8-1.3,2.2-2.2,3.9-2.2c2.5,0,4.5,2,4.5,4.5c0,0.1,0,0.3,0,0.4
		c0.1,0,0.2,0,0.4,0c2,0,3.7,1.6,3.7,3.7c0,2-1.6,3.7-3.7,3.7H788c-2,0-3.7-1.6-3.7-3.7c0-2,1.6-3.7,3.7-3.7c0.5,0,0.9,0.1,1.3,0.3
		c-0.4-0.6-0.7-1.3-0.7-2.1C788.5,468.1,790.2,466.4,792.2,466.4z"/>
	<path class="st4" d="M732.8,465.4c1.7,0,3.2,1.2,3.6,2.8c0.8-1.3,2.2-2.2,3.9-2.2c2.5,0,4.5,2,4.5,4.5c0,0.1,0,0.3,0,0.4
		c0.1,0,0.2,0,0.4,0c2,0,3.7,1.6,3.7,3.7c0,2-1.6,3.7-3.7,3.7h-16.6c-2,0-3.7-1.6-3.7-3.7c0-2,1.6-3.7,3.7-3.7
		c0.5,0,0.9,0.1,1.3,0.3c-0.4-0.6-0.7-1.3-0.7-2.1C729.1,467,730.8,465.4,732.8,465.4z"/>
	<path class="st3" d="M717.7,469.5c1.7,0,3.2,1.2,3.6,2.8c0.8-1.3,2.2-2.2,3.9-2.2c2.5,0,4.5,2,4.5,4.5c0,0.1,0,0.3,0,0.4
		c0.1,0,0.2,0,0.4,0c2,0,3.7,1.6,3.7,3.7c0,2-1.6,3.7-3.7,3.7h-16.6c-2,0-3.7-1.6-3.7-3.7c0-2,1.6-3.7,3.7-3.7
		c0.5,0,0.9,0.1,1.3,0.3c-0.4-0.6-0.7-1.3-0.7-2.1C714,471.2,715.7,469.5,717.7,469.5z"/>
	<path class="st4" d="M689.8,461.6c1.7,0,3.2,1.2,3.6,2.8c0.8-1.3,2.2-2.2,3.9-2.2c2.5,0,4.5,2,4.5,4.5c0,0.1,0,0.3,0,0.4
		c0.1,0,0.2,0,0.4,0c2,0,3.7,1.6,3.7,3.7c0,2-1.6,3.7-3.7,3.7h-16.6c-2,0-3.7-1.6-3.7-3.7c0-2,1.6-3.7,3.7-3.7
		c0.5,0,0.9,0.1,1.3,0.3c-0.4-0.6-0.7-1.3-0.7-2.1C686.1,463.3,687.8,461.6,689.8,461.6z"/>
	<path class="st3" d="M674.7,465.7c1.7,0,3.2,1.2,3.6,2.8c0.8-1.3,2.2-2.2,3.9-2.2c2.5,0,4.5,2,4.5,4.5c0,0.1,0,0.3,0,0.4
		c0.1,0,0.2,0,0.4,0c2,0,3.7,1.6,3.7,3.7c0,2-1.6,3.7-3.7,3.7h-16.6c-2,0-3.7-1.6-3.7-3.7c0-2,1.6-3.7,3.7-3.7
		c0.5,0,0.9,0.1,1.3,0.3c-0.4-0.6-0.7-1.3-0.7-2.1C671,467.4,672.6,465.7,674.7,465.7z"/>
	<g>
		<g>
			<path class="st8" d="M887.5,482.6c-3.5,2-9.1,2-12.5,0c-3.5-2-3.5-5.2,0-7.2s9.1-2,12.5,0S890.9,480.6,887.5,482.6z"/>
			<g>
				<path class="st9" d="M883.9,478.4c0,1.5-1.2,2.7-2.7,2.7l0,0c-1.5,0-2.7-1.2-2.7-2.7v-15.3c0-1.5,1.2-2.7,2.7-2.7l0,0
					c1.5,0,2.7,1.2,2.7,2.7V478.4z"/>
				<path class="st10" d="M881.2,471.8c0.9,0,1.8-0.1,2.7-0.3V463c0-1.5-1.2-2.7-2.7-2.7s-2.7,1.2-2.7,2.7v8.5
					C879.4,471.7,880.3,471.8,881.2,471.8z"/>
				<path class="st11" d="M893.3,456.7c0,6.7-5.4,12.1-12.1,12.1c-6.7,0-12.1-5.4-12.1-12.1s5.4-33.3,12.1-33.3
					C887.9,423.4,893.3,450,893.3,456.7z"/>
				<path class="st12" d="M881.2,423.4c-0.3,0-0.6,0.1-0.9,0.2c3.1,8.4,5.1,20,5.1,24.1c0,6.7-5.4,12.1-12.1,12.1
					c-1.4,0-2.7-0.2-4-0.7c1.1,5.5,6,9.7,11.8,9.7c6.7,0,12.1-5.4,12.1-12.1C893.3,450,887.9,423.4,881.2,423.4z"/>
			</g>
		</g>
		
			<ellipse transform="matrix(0.2325 -0.9726 0.9726 0.2325 241.8351 1191.4949)" class="st13" cx="875.9" cy="442.5" rx="8.4" ry="1.7"/>
	</g>
	<g>
		<g>
			<path class="st8" d="M660.8,482.6c-3.5,2-9.1,2-12.5,0c-3.5-2-3.5-5.2,0-7.2s9.1-2,12.5,0C664.3,477.4,664.3,480.6,660.8,482.6z"
				/>
			<g>
				<path class="st9" d="M657.3,478.4c0,1.5-1.2,2.7-2.7,2.7l0,0c-1.5,0-2.7-1.2-2.7-2.7v-15.3c0-1.5,1.2-2.7,2.7-2.7l0,0
					c1.5,0,2.7,1.2,2.7,2.7V478.4z"/>
				<path class="st10" d="M654.6,471.8c0.9,0,1.8-0.1,2.7-0.3V463c0-1.5-1.2-2.7-2.7-2.7s-2.7,1.2-2.7,2.7v8.5
					C652.7,471.7,653.6,471.8,654.6,471.8z"/>
				<path class="st11" d="M666.6,456.7c0,6.7-5.4,12.1-12.1,12.1c-6.7,0-12.1-5.4-12.1-12.1s5.4-33.3,12.1-33.3
					C661.2,423.4,666.6,450,666.6,456.7z"/>
				<path class="st12" d="M654.6,423.4c-0.3,0-0.6,0.1-0.9,0.2c3.1,8.4,5.1,20,5.1,24.1c0,6.7-5.4,12.1-12.1,12.1
					c-1.4,0-2.7-0.2-4-0.7c1.1,5.5,6,9.7,11.8,9.7c6.7,0,12.1-5.4,12.1-12.1C666.6,450,661.2,423.4,654.6,423.4z"/>
			</g>
		</g>
		
			<ellipse transform="matrix(0.2325 -0.9726 0.9726 0.2325 68.0044 971.0725)" class="st13" cx="649.3" cy="442.4" rx="8.4" ry="1.7"/>
	</g>
	<g>
		<g>
			<path class="st8" d="M826.7,486.3c-3.5,2-9.1,2-12.5,0c-3.5-2-3.5-5.2,0-7.2s9.1-2,12.5,0C830.2,481.1,830.2,484.3,826.7,486.3z"
				/>
			<g>
				<path class="st9" d="M823.1,482c0,1.5-1.2,2.7-2.7,2.7l0,0c-1.5,0-2.7-1.2-2.7-2.7v-15.3c0-1.5,1.2-2.7,2.7-2.7l0,0
					c1.5,0,2.7,1.2,2.7,2.7V482z"/>
				<path class="st10" d="M820.4,475.5c0.9,0,1.8-0.1,2.7-0.3v-8.5c0-1.5-1.2-2.7-2.7-2.7s-2.7,1.2-2.7,2.7v8.5
					C818.6,475.4,819.5,475.5,820.4,475.5z"/>
				<path class="st11" d="M832.5,460.3c0,6.7-5.4,12.1-12.1,12.1c-6.7,0-12.1-5.4-12.1-12.1s5.4-33.3,12.1-33.3
					S832.5,453.7,832.5,460.3z"/>
				<path class="st12" d="M820.4,427c-0.3,0-0.6,0.1-0.9,0.2c3.1,8.4,5.1,20,5.1,24.1c0,6.7-5.4,12.1-12.1,12.1
					c-1.4,0-2.7-0.2-4-0.7c1.1,5.5,6,9.7,11.8,9.7c6.7,0,12.1-5.4,12.1-12.1C832.5,453.7,827.1,427,820.4,427z"/>
			</g>
		</g>
		
			<ellipse transform="matrix(0.2325 -0.9726 0.9726 0.2325 191.773 1135.1859)" class="st13" cx="815.2" cy="446.1" rx="8.4" ry="1.7"/>
	</g>
	<g>
		<g>
			<path class="st8" d="M722,486.3c-3.5,2-9.1,2-12.5,0c-3.5-2-3.5-5.2,0-7.2s9.1-2,12.5,0C725.4,481.1,725.4,484.3,722,486.3z"/>
			<g>
				<path class="st9" d="M718.4,482c0,1.5-1.2,2.7-2.7,2.7l0,0c-1.5,0-2.7-1.2-2.7-2.7v-15.3c0-1.5,1.2-2.7,2.7-2.7l0,0
					c1.5,0,2.7,1.2,2.7,2.7V482z"/>
				<path class="st10" d="M715.7,475.5c0.9,0,1.8-0.1,2.7-0.3v-8.5c0-1.5-1.2-2.7-2.7-2.7s-2.7,1.2-2.7,2.7v8.5
					C713.9,475.4,714.8,475.5,715.7,475.5z"/>
				<path class="st11" d="M727.8,460.3c0,6.7-5.4,12.1-12.1,12.1c-6.7,0-12.1-5.4-12.1-12.1S709,427,715.7,427
					S727.8,453.7,727.8,460.3z"/>
				<path class="st12" d="M715.7,427c-0.3,0-0.6,0.1-0.9,0.2c3.1,8.4,5.1,20,5.1,24.1c0,6.7-5.4,12.1-12.1,12.1
					c-1.4,0-2.7-0.2-4-0.7c1.1,5.5,6,9.7,11.8,9.7c6.7,0,12.1-5.4,12.1-12.1C727.8,453.7,722.4,427,715.7,427z"/>
			</g>
		</g>
		
			<ellipse transform="matrix(0.2325 -0.9726 0.9726 0.2325 111.2472 1033.4414)" class="st13" cx="710.4" cy="446.2" rx="8.4" ry="1.7"/>
	</g>
	<g>
		<g>
			<path class="st8" d="M1389.1,315.4c-2.8,1.6-7.4,1.6-10.2,0c-2.8-1.6-2.8-4.3,0-5.9s7.4-1.6,10.2,0
				C1392,311.1,1392,313.8,1389.1,315.4z"/>
			<g>
				<path class="st9" d="M1386.2,311.9c0,1.2-1,2.2-2.2,2.2l0,0c-1.2,0-2.2-1-2.2-2.2v-12.4c0-1.2,1-2.2,2.2-2.2l0,0
					c1.2,0,2.2,1,2.2,2.2V311.9z"/>
				<path class="st10" d="M1384.1,306.6c0.8,0,1.5-0.1,2.2-0.2v-6.9c0-1.2-1-2.2-2.2-2.2s-2.2,1-2.2,2.2v6.9
					C1382.6,306.5,1383.3,306.6,1384.1,306.6z"/>
				<path class="st11" d="M1393.9,294.3c0,5.4-4.4,9.8-9.8,9.8s-9.8-4.4-9.8-9.8s4.4-27,9.8-27S1393.9,288.9,1393.9,294.3z"/>
				<path class="st12" d="M1384.1,267.3c-0.3,0-0.5,0-0.8,0.1c2.5,6.8,4.2,16.2,4.2,19.5c0,5.4-4.4,9.8-9.8,9.8
					c-1.1,0-2.2-0.2-3.2-0.5c0.9,4.5,4.8,7.9,9.6,7.9c5.4,0,9.8-4.4,9.8-9.8C1393.9,288.9,1389.5,267.3,1384.1,267.3z"/>
			</g>
		</g>
		
			<ellipse transform="matrix(0.2325 -0.9726 0.9726 0.2325 783.0001 1558.9415)" class="st13" cx="1379.3" cy="283.4" rx="6.8" ry="1.4"/>
	</g>
	<g>
		<g>
			<path class="st8" d="M1424.5,328.3c-2.8,1.6-7.4,1.6-10.2,0c-2.8-1.6-2.8-4.3,0-5.9s7.4-1.6,10.2,0
				C1427.3,324.1,1427.3,326.7,1424.5,328.3z"/>
			<g>
				<path class="st9" d="M1421.6,324.8c0,1.2-1,2.2-2.2,2.2l0,0c-1.2,0-2.2-1-2.2-2.2v-12.4c0-1.2,1-2.2,2.2-2.2l0,0
					c1.2,0,2.2,1,2.2,2.2V324.8z"/>
				<path class="st10" d="M1419.5,319.6c0.8,0,1.5-0.1,2.2-0.2v-6.9c0-1.2-1-2.2-2.2-2.2s-2.2,1-2.2,2.2v6.9
					C1418,319.5,1418.7,319.6,1419.5,319.6z"/>
				<path class="st11" d="M1429.3,307.3c0,5.4-4.4,9.8-9.8,9.8s-9.8-4.4-9.8-9.8s4.4-27,9.8-27
					C1424.9,280.2,1429.3,301.8,1429.3,307.3z"/>
				<path class="st12" d="M1419.5,280.2c-0.3,0-0.5,0-0.8,0.1c2.5,6.8,4.2,16.2,4.2,19.5c0,5.4-4.4,9.8-9.8,9.8
					c-1.1,0-2.2-0.2-3.2-0.5c0.9,4.5,4.8,7.9,9.6,7.9c5.4,0,9.8-4.4,9.8-9.8C1429.3,301.8,1424.9,280.2,1419.5,280.2z"/>
			</g>
		</g>
		
			<ellipse transform="matrix(0.2325 -0.9726 0.9726 0.2325 797.577 1603.4607)" class="st13" cx="1414.8" cy="296.4" rx="6.8" ry="1.4"/>
	</g>
	<g>
		<g>
			<path class="st8" d="M1462.9,338.3c-2.8,1.6-7.4,1.6-10.2,0c-2.8-1.6-2.8-4.3,0-5.9s7.4-1.6,10.2,0
				C1465.7,334.1,1465.7,336.7,1462.9,338.3z"/>
			<g>
				<path class="st9" d="M1460,334.9c0,1.2-1,2.2-2.2,2.2l0,0c-1.2,0-2.2-1-2.2-2.2v-12.4c0-1.2,1-2.2,2.2-2.2l0,0
					c1.2,0,2.2,1,2.2,2.2V334.9z"/>
				<path class="st10" d="M1457.8,329.6c0.8,0,1.5-0.1,2.2-0.2v-6.9c0-1.2-1-2.2-2.2-2.2s-2.2,1-2.2,2.2v6.9
					C1456.3,329.5,1457,329.6,1457.8,329.6z"/>
				<path class="st11" d="M1467.6,317.3c0,5.4-4.4,9.8-9.8,9.8s-9.8-4.4-9.8-9.8s4.4-27,9.8-27S1467.6,311.9,1467.6,317.3z"/>
				<path class="st12" d="M1457.8,290.3c-0.3,0-0.5,0-0.8,0.1c2.5,6.8,4.2,16.2,4.2,19.5c0,5.4-4.4,9.8-9.8,9.8
					c-1.1,0-2.2-0.2-3.2-0.5c0.9,4.5,4.8,7.9,9.6,7.9c5.4,0,9.8-4.4,9.8-9.8S1463.2,290.3,1457.8,290.3z"/>
			</g>
		</g>
		
			<ellipse transform="matrix(0.2325 -0.9726 0.9726 0.2325 817.2059 1648.3807)" class="st13" cx="1453" cy="306.4" rx="6.8" ry="1.4"/>
	</g>
	<g>
		<path class="st30" d="M1159.1,148.6c-0.4-11.8-5-14.8-5-14.8c0.4-3.2-3.2-3.6-3.2-3.6h-23.4c-10.2,0-17.1,3.6-17.1,3.6
			c-10,4.4-8.5,13.7-8.5,13.7v1.1h50.1H1159.1z"/>
		<g>
			<path class="st31" d="M1139.2,148.6h12.8h3.6c0-4.5-3.7-8.2-8.2-8.2S1139.2,144,1139.2,148.6z"/>
		</g>
		<circle class="st32" cx="1147.4" cy="148.6" r="6.2"/>
		<circle class="st33" cx="1147.4" cy="148.6" r="3.4"/>
		<g>
			<path class="st31" d="M1110.1,148.6h12.8h3.6c0-4.5-3.7-8.2-8.2-8.2S1110.2,144,1110.1,148.6z"/>
		</g>
		<circle class="st32" cx="1118.3" cy="148.6" r="6.2"/>
		<circle class="st33" cx="1118.3" cy="148.6" r="3.4"/>
		<path class="st30" d="M1114.6,133.8c2.9-17.1,14.6-16.7,14.6-16.7s11,0,15.6,0s3.9,1.6,3.9,1.6l2.1,13.1L1114.6,133.8z"/>
		<path class="st24" d="M1147.4,129.6h-12.1v-10.1h8.8c2.4,0,2.1,1.4,2.1,1.4l1.2,8.8V129.6z"/>
		<path class="st24" d="M1118.4,130.6c3.8-0.9,9-0.9,9-0.9h5.3v-10.1C1119.6,119.6,1118.3,130.6,1118.4,130.6z"/>
		<g>
			<g>
				<g>
					<path class="st31" d="M1154.6,135.9c0,0,3.2,4.1,3.2,12.7h1.2c-0.4-11.8-5-14.8-5-14.8c0.4-3.2-3.2-3.6-3.2-3.6
						s2.9,0.9,1.9,3.1c0,0-22.7-0.8-29.6,1.1C1123.1,134.4,1150.2,132.5,1154.6,135.9z"/>
				</g>
			</g>
		</g>
		<g>
			<path class="st34" d="M1137.8,119.6h-2.5v10.1h9.1C1143.2,124.5,1139.3,120.8,1137.8,119.6z"/>
			<path class="st34" d="M1127.4,129.7h4.1c-1.1-3.4-3.5-6.5-5.7-8.8c-6.7,2.9-7.5,9.7-7.5,9.7
				C1122.2,129.7,1127.4,129.7,1127.4,129.7z"/>
			<path class="st35" d="M1125.8,120.9c2.2,2.3,4.6,5.4,5.7,8.8h1.2v-10.1C1129.9,119.6,1127.6,120.1,1125.8,120.9z"/>
			<path class="st35" d="M1144.1,119.6h-6.3c1.5,1.2,5.4,4.9,6.6,10.1h3l-1.2-8.8C1146.2,120.9,1146.5,119.6,1144.1,119.6z"/>
		</g>
		<path class="st31" d="M1130.4,137L1130.4,137c0-0.4,0.3-0.7,0.7-0.7h3.5c0.4,0,0.7,0.3,0.7,0.7l0,0c0,0.4-0.3,0.7-0.7,0.7h-3.5
			C1130.7,137.7,1130.4,137.4,1130.4,137z"/>
		<path class="st36" d="M1103.2,140.3c0.2,0.1,0.5,0.1,0.8,0.1h3.5c1.8,0,3.3-1.5,3.3-3.3c0-1.2-0.6-2.2-1.5-2.8
			C1106.1,136,1104.3,138.1,1103.2,140.3z"/>
		<path class="st37" d="M1157,143.7h1.4c-0.3-2.1-0.8-3.8-1.3-5.1l0,0c-1.4,0-2.5,1.1-2.5,2.5S1155.7,143.6,1157,143.7z"/>
		<g>
			<path class="st31" d="M1103.7,139.3c-0.2,0.3-0.3,0.6-0.5,0.9c0.2,0.1,0.5,0.1,0.8,0.1h3.5c1.8,0,3.3-1.5,3.3-3.3
				c0-0.1-0.1-0.3-0.1-0.5c-0.2,1.6-1.6,2.8-3.2,2.8h-3.5C1103.9,139.3,1103.8,139.3,1103.7,139.3z"/>
		</g>
		<g>
			<path class="st38" d="M1156,138.8c0.5,1.3,1.2,3.5-0.1,4.5c0,0,0.4,0.2,0.9,0.3c0.3,0,1.7,0,1.7,0c-0.4-2.1-0.9-3.8-1.4-5.1l0,0
				C1156.7,138.5,1156.3,138.6,1156,138.8z"/>
		</g>
		
			<ellipse transform="matrix(0.9978 -6.656323e-02 6.656323e-02 0.9978 -6.8272 77.2266)" class="st25" cx="1155.5" cy="141.1" rx="0.4" ry="0.7"/>
		<g>
			<path class="st36" d="M1108.3,134.8c-1.5,0.9-2.7,2-3.6,3.1c0.2,0.2,0.3,0.3,0.5,0.5c1,0.9,2.6,0.7,3.4-0.3
				C1109.5,137.1,1109.4,135.7,1108.3,134.8z"/>
			<path class="st25" d="M1108.3,134.8c-1.5,0.9-2.7,2-3.6,3.1c0.2,0.2,0.3,0.3,0.5,0.5c1,0.9,2.6,0.7,3.4-0.3
				C1109.5,137.1,1109.4,135.7,1108.3,134.8z"/>
		</g>
		
			<ellipse transform="matrix(0.9978 -6.642466e-02 6.642466e-02 0.9978 -7.3706 76.4027)" class="st25" cx="1145.3" cy="149" rx="0.4" ry="0.7"/>
		
			<ellipse transform="matrix(0.9978 -6.642466e-02 6.642466e-02 0.9978 -7.4322 74.4762)" class="st25" cx="1116.3" cy="149" rx="0.4" ry="0.7"/>
		<g class="st39">
			<path class="st7" d="M1153.4,149.6c0,0.3-0.1,0.6-0.1,0.9c0.2-0.6,0.3-1.3,0.3-2c0-3.4-2.7-6.2-6.2-6.2c-3.4,0-6.2,2.7-6.2,6.2
				c0,0.7,0.1,1.4,0.3,2c-0.1-0.3-0.1-0.6-0.1-0.9c0-3.3,2.7-6,6-6S1153.4,146.3,1153.4,149.6z"/>
		</g>
		<g class="st39">
			<path class="st7" d="M1150.6,149.1c0,0.2,0,0.3,0,0.5c0.1-0.4,0.2-0.7,0.2-1.1c0-1.9-1.5-3.4-3.4-3.4s-3.4,1.5-3.4,3.4
				c0,0.4,0.1,0.8,0.2,1.1c0-0.2,0-0.3,0-0.5c0-1.8,1.4-3.2,3.2-3.2S1150.6,147.3,1150.6,149.1z"/>
		</g>
		<g class="st39">
			<path class="st7" d="M1121.5,149.1c0,0.2,0,0.3,0,0.5c0.1-0.4,0.2-0.7,0.2-1.1c0-1.9-1.5-3.4-3.4-3.4s-3.4,1.5-3.4,3.4
				c0,0.4,0.1,0.8,0.2,1.1c0-0.2,0-0.3,0-0.5c0-1.8,1.4-3.2,3.2-3.2C1120.1,145.9,1121.6,147.3,1121.5,149.1z"/>
		</g>
		<g class="st39">
			<path class="st7" d="M1124.3,149.6c0,0.3-0.1,0.6-0.1,0.9c0.2-0.6,0.3-1.3,0.3-2c0-3.4-2.7-6.2-6.2-6.2c-3.4,0-6.2,2.7-6.2,6.2
				c0,0.7,0.1,1.4,0.3,2c-0.1-0.3-0.1-0.6-0.1-0.9c0-3.3,2.7-6,6-6C1121.7,143.6,1124.3,146.3,1124.3,149.6z"/>
		</g>
		<g>
			<g>
				<g>
					<path class="st31" d="M1150.5,130.2L1150.5,130.2l-1.9-11.5c0,0,0.7-1.6-3.9-1.6c-1,0-2.3,0-3.7,0c6.6,0,7.1,1.6,7.1,1.6
						L1150.5,130.2z"/>
				</g>
			</g>
		</g>
	</g>
	<g class="st6">
		<path class="st34" d="M658.2,293.7c-0.2,0-0.3,0-0.5,0C657.7,293.8,657.9,293.8,658.2,293.7z"/>
		<path class="st25" d="M825.5,293.7c4.9-0.5,28.7-4.3,33.2-25.6h-17.9C839.5,277.8,835.8,292.4,825.5,293.7z"/>
		<path class="st25" d="M874.2,209.4H664.8c-5.4,0-9.8,4.4-9.8,9.8v39.2c0,5.4,4.4,9.8,9.8,9.8h9.1h17.9h182.4
			c5.4,0,9.8-4.4,9.8-9.8v-39.2C883.9,213.8,879.5,209.4,874.2,209.4z"/>
	</g>
	<g>
		<path class="st25" d="M658.2,293.7c-0.2,0-0.3,0-0.5,0C657.7,293.8,657.9,293.8,658.2,293.7z"/>
		<path class="st25" d="M825.5,293.7c4.9-0.5,28.7-4.3,33.2-25.6h-17.9C839.5,277.8,835.8,292.4,825.5,293.7z"/>
		<path class="st25" d="M874.2,209.4H664.8c-5.4,0-9.8,4.4-9.8,9.8v39.2c0,5.4,4.4,9.8,9.8,9.8h9.1h17.9h182.4
			c5.4,0,9.8-4.4,9.8-9.8v-39.2C883.9,213.8,879.5,209.4,874.2,209.4z"/>
	</g>
	<g>
		<g>
			<path class="st40" d="M680.6,456.8l-3.8-1c-0.4-0.1-0.6-0.4-0.6-0.8l-0.3-7c0-0.1,0-0.2,0-0.3l-1.9-7.3c-0.1-0.3-0.1-0.5,0-0.8
				l0.7-2.5c0.2-1-0.3-1.9-1.3-2.2l-0.4-0.1c-0.7-0.2-1.4,0.1-1.8,0.6l-2.2,2.8c-0.2,0.3-0.3,0.6-0.3,1l-0.8,5.5
				c0,0.6-0.4,1.1-0.9,1.2l-0.6,0.2c-0.2,0.1-0.5,0.1-0.7,0l-9.7-2.5c-0.7-0.2-1.5,0.3-1.7,1l-0.8,2.9c0,0.2-0.2,0.2-0.3,0.2l0,0
				c-0.4-0.1-0.9,0.1-1,0.6l-0.8,3c-0.1,0.4,0.1,0.9,0.6,1l0,0c0.2,0,0.2,0.2,0.2,0.3l-1.1,4.2c-0.1,0.2,0.1,0.5,0.3,0.5l0,0
				c0.3,0.1,0.4,0.4,0.4,0.6l-0.7,2.8c-0.1,0.4,0.1,0.7,0.4,0.9l7.8,5.1c0.1,0.1,0.2,0.1,0.4,0.2l11.1,2.9c0.2,0,0.3,0.1,0.5,0
				l2.5-0.3c0.2,0,0.4,0,0.6,0l3.1,0.9L680.6,456.8z"/>
			<path class="st41" d="M664.7,445.9l-0.7,2.8c-0.1,0.6-0.7,0.9-1.3,0.8l-9.3-2.4c0,0-0.1,0.5-0.2,0.6c-0.1,0.1-0.3,0-0.3,0
				c-0.3-0.1-0.6,0.1-0.7,0.3l-0.1,0.2l11,2.9c0.7,0.2,1.1,0.9,0.9,1.5l-0.2,0.9c-0.2,0.7-0.9,1.1-1.5,0.9l-11-2.8
				c0,0-0.1,0.2,0.2,0.6c0.1,0.2,0.5,0.2,0.6,0.4c0.1,0.1-0.1,0.6-0.1,0.6l10,2.6c0.7,0.2,1.1,0.9,0.9,1.5l-0.3,1.2
				c-0.2,0.7-0.9,1.1-1.5,0.9l-10-2.6c0,0-0.2,0.4-0.1,0.6c0.1,0.2,0.6,0.3,0.7,0.5c0,0.1,0,0.4,0,0.4l6.9,1.8
				c0.5,0.1,0.9,0.7,0.7,1.2l-0.2,0.9c-0.1,0.5-0.7,0.9-1.2,0.7l-6.9-1.8l0,0c0,0.5,0.4,1,0.8,1.2l0.3,0.1l2,0.6l4.7,1.2
				c0.7,0.2,1.5-0.3,1.7-1l0.5-1.8c0.1-0.4,0.6-0.7,1-0.6l0,0c0.8,0.2,1.6-0.3,1.8-1l0.6-2.3c0.2-0.6-0.1-1.3-0.6-1.7
				c0,0-0.2-0.1-0.2-0.3c0-0.1,0.1-0.1,0.2-0.1c0.3,0,0.6-0.1,0.8-0.2c0.3-0.2,0.5-0.5,0.6-0.8l0.5-1.8c0.3-1.1-0.8-1.6-0.8-1.7
				c0.1-0.3,0.7-0.3,1-1.1l0.8-3.3h-0.1c-0.4,0.1-0.8,0.1-1.2,0L664.7,445.9z"/>
			<path class="st25" d="M682.1,474.2l-3.5-0.9c-1.2-0.3-1.9-1.5-1.6-2.7l3.2-12.4c0.3-1.2,1.5-1.9,2.7-1.6l3.5,0.9L682.1,474.2z"/>
			
				<rect x="675" y="465" transform="matrix(0.2483 -0.9687 0.9687 0.2483 62.7902 1012.2521)" class="st42" width="17.2" height="1.3"/>
		</g>
		<ellipse class="st43" cx="770.6" cy="463.5" rx="14.6" ry="3.1"/>
		<rect x="756.8" y="472.8" class="st24" width="27.2" height="36.7"/>
		<path class="st44" d="M772.9,355.1c0,0-4.6-6.9-16.2-3.4c0,0,3.8,0.6,4.1,3.8c0,0-3.6-2.6-7.8-0.9c0,0,2.6,1.4,1,4.5l14.4,0.2
			L772.9,355.1z"/>
		<g>
			<path class="st44" d="M742.9,404.8h55.4c7.8,0,14.2-6.4,14.2-14.2V379c0-7.8-6.4-14.2-14.2-14.2h-55.4c-7.8,0-14.2,6.4-14.2,14.2
				v11.7C728.7,398.4,735.1,404.8,742.9,404.8z"/>
			<path class="st44" d="M810.4,368c0,0,15.1,16.1,8.5,48.8l-12-16.4C806.9,400.5,803.8,367.4,810.4,368z"/>
			<path class="st44" d="M730.7,368c0,0-15.1,16.1-8.5,48.8l12-16.4C734.2,400.5,737.4,367.4,730.7,368z"/>
			<path class="st44" d="M760.1,448.8H781c13.3,0,36-10.9,36-24.2l2.9-21.5c0-13.3-10.9-24.2-24.2-24.2h-50.2
				c-13.3,0-24.2,10.9-24.2,24.2l2.9,21.5C724.2,437.9,746.8,448.8,760.1,448.8z"/>
			<g>
				<ellipse class="st45" cx="728.7" cy="416" rx="7.9" ry="9.8"/>
				<ellipse class="st45" cx="812.5" cy="416" rx="7.9" ry="9.8"/>
			</g>
			<path class="st40" d="M742.9,457.1h55.4c7.8,0,14.2-6.4,14.2-14.2v-43.6c0-7.8-6.4-14.2-14.2-14.2h-55.4
				c-7.8,0-14.2,6.4-14.2,14.2v43.6C728.7,450.7,735.1,457.1,742.9,457.1z"/>
			<g>
				<circle class="st46" cx="745.1" cy="437.6" r="7.7"/>
				<circle class="st46" cx="796" cy="437.6" r="7.7"/>
			</g>
			<circle class="st25" cx="789" cy="415" r="8.9"/>
			<circle class="st25" cx="753.3" cy="415" r="8.9"/>
			<path class="st25" d="M761.6,435.4c0,5.5,4.4,9.9,9.9,9.9s9.9-4.4,9.9-9.9H761.6z"/>
			<g>
				<g>
					<circle class="st47" cx="788.8" cy="415.1" r="6.6"/>
					<circle class="st48" cx="788.8" cy="415.1" r="3"/>
					<circle class="st25" cx="791" cy="416.6" r="1.7"/>
					<circle class="st25" cx="787.1" cy="413.1" r="1.3"/>
				</g>
				<g>
					<circle class="st47" cx="753.5" cy="415.1" r="6.6"/>
					<circle class="st48" cx="753.5" cy="415.1" r="3"/>
					<circle class="st25" cx="755.7" cy="416.6" r="1.7"/>
					<circle class="st25" cx="751.8" cy="413.1" r="1.3"/>
				</g>
			</g>
			<g>
				<g>
					<path class="st44" d="M779.6,407.9c0.3,0,0.5-0.2,0.6-0.4c1-2.8,4.6-4.8,8.6-4.8s7.6,2,8.6,4.8c0.1,0.3,0.5,0.4,0.8,0.4
						c0.3-0.1,0.5-0.4,0.4-0.7c-1.2-3.3-5.2-5.6-9.9-5.6s-8.7,2.3-9.9,5.6c-0.1,0.3,0.1,0.6,0.4,0.7
						C779.4,407.9,779.5,407.9,779.6,407.9z"/>
				</g>
				<g>
					<path class="st44" d="M744.3,407.9c0.3,0,0.5-0.2,0.6-0.4c1-2.8,4.6-4.8,8.6-4.8c4.1,0,7.6,2,8.6,4.8c0.1,0.3,0.5,0.4,0.8,0.4
						c0.3-0.1,0.5-0.4,0.4-0.7c-1.2-3.3-5.2-5.6-9.9-5.6c-4.6,0-8.7,2.3-9.9,5.6c-0.1,0.3,0.1,0.6,0.4,0.7
						C744.1,407.9,744.2,407.9,744.3,407.9z"/>
				</g>
			</g>
			<path class="st44" d="M748.1,385c0,0,5.8,22.6,37.6,22.6c0,0-7.5-4.2-10-13.4c0,0,2.5,6.7,13.4,10c0,0-11.3-14.3,4.6-18.5
				c0,0,1.1,13,18.7,15.4l4.6-17.3l-8.8-12.9H736l-9.6,7.9l2.4,13.6C728.8,392.4,734.3,396.7,748.1,385z"/>
			<path class="st44" d="M812.3,370.8c0,0-4.9-8.1-14.7-11.2c-19.2-6-52.9-8.1-68,9.9C706.8,396.9,812.3,370.8,812.3,370.8z"/>
			<path class="st44" d="M771.6,355.9c0,0,4.6-8.1,17.6-2.7c0,0-9.1,0.9-9.4,11.8L771.6,355.9z"/>
			<path class="st44" d="M783.5,356.7c0,0,14.7-1,25.5,5.2c0,0-4-0.7-5.1-0.4c0,0,8.1,2.3,12.7,8.7c0,0-5.2-3.8-8.9-3.5
				c0,0,9,4.5,12,10.7c0,0-3.4-1.9-4.4-1.6c0,0,7.6,10.2,7.6,25.8l-3.6-2.8l-0.7,0.9c0,0,3.1,5.9,3,11.6c0,0-1.3-2.3-2.3-2.2
				l-9.2-30.9L783.5,356.7z"/>
			<path class="st44" d="M757.8,356.7c0,0-14.7-1-25.5,5.2c0,0,4-0.7,5.1-0.4c0,0-8.1,2.3-12.7,8.7c0,0,5.2-3.8,8.9-3.5
				c0,0-9,4.5-12,10.7c0,0,3.4-1.9,4.4-1.6c0,0-7.6,10.2-7.6,25.8l3.6-2.8l0.7,0.9c0,0-3.1,5.9-3,11.6c0,0,1.3-2.3,2.3-2.2l9.2-30.9
				L757.8,356.7z"/>
		</g>
		<rect x="757.9" y="453.7" class="st40" width="25.5" height="13.2"/>
		<polygon class="st49" points="764.6,474.9 768.6,480.4 761.2,506.1 770.9,518 770.9,518 780.6,506.1 773.2,480.4 777.2,474.9 
			770.6,466.9 		"/>
		<path class="st50" d="M773.2,480.4l2.9-4l-5.2,3.9c0,0,2.9,16,0.6,23.9c0,0-2.5,0.9-5.5-3.6c0,0,0.8,4.7,5.9,7.2
			c0,0,6.1-7.4,5.4-13.3L773.2,480.4z"/>
		<polygon class="st51" points="780.3,478.3 778.1,481.9 770.7,468.5 762.5,481.9 759.5,476.3 770.7,467.5 		"/>
		<path class="st52" d="M759.5,474.9c0,0-0.4,32.7,21.1,35.4v29.4h-48.3v-59.5c0,0-0.1-13.7,22.8-13.7L759.5,474.9z"/>
		<rect x="757.9" y="457" class="st45" width="25.5" height="3.6"/>
		<polygon class="st52" points="735.7,488.8 740.3,470.1 686.2,456.4 681.6,475.1 		"/>
		<path class="st52" d="M744.6,467.8c0,0-7.5,1.5-13.4,0l-0.5,4.9l12.7,0.6L744.6,467.8z"/>
		<polygon class="st53" points="771.5,506.9 766.6,511.3 766.6,535.9 766.6,539.7 771.5,539.7 		"/>
		<path class="st52" d="M780.3,474.9c0,0,1.2,18.7-11.1,35.4v29.4h38.3v-59.5c0,0,0.1-13.7-22.8-13.7L780.3,474.9z"/>
		<path class="st24" d="M762.5,480.3l-10-13.4l3.6-3.7c0,2.1,6.4,3.7,14.4,3.7h0.3c8,0,14.4-1.7,14.4-3.7l4.2,3.7l-10.6,13.4
			l-8.1-11.8L762.5,480.3z"/>
		<circle class="st36" cx="771.5" cy="514.1" r="1.1"/>
		<circle class="st36" cx="771.5" cy="521" r="1.1"/>
		<circle class="st36" cx="771.5" cy="527.9" r="1.1"/>
		<circle class="st36" cx="771.5" cy="534.9" r="1.1"/>
		<path class="st53" d="M769.2,539.7c0,0,34.5-4.3,34.5-16.4c0-12.1,3.8-33.4,3.8-33.4v49.8H769.2z"/>
		<path class="st52" d="M801.1,545.4c19.1-5.9,25-15.2,28.2-24.5c3.3-9.5,2.3-17.7,2.2-19c-2.2-17.3-11.6-25.7-19.1-29.6
			c-7.9-4.1-15.3-4.2-16.1-4.2l0.2,18l-0.1,0.6c0,0,4.3-0.5,8.5,1.9c5.4,3,7.9,7.7,8.9,15.6v0.2c0.3,2.4-2.3,26.3-30.5,35.4
			L801.1,545.4z"/>
	</g>
	<path class="st4" d="M854,460.2c1.7,0,3.2,1.2,3.6,2.8c0.8-1.3,2.2-2.2,3.9-2.2c2.5,0,4.5,2,4.5,4.5c0,0.1,0,0.3,0,0.4
		c0.1,0,0.2,0,0.4,0c2,0,3.7,1.6,3.7,3.7c0,2-1.6,3.7-3.7,3.7h-16.6c-2,0-3.7-1.6-3.7-3.7c0-2,1.6-3.7,3.7-3.7
		c0.5,0,0.9,0.1,1.3,0.3c-0.4-0.6-0.7-1.3-0.7-2.1C850.3,461.8,852,460.2,854,460.2z"/>
	<path class="st3" d="M838.8,464.3c1.7,0,3.2,1.2,3.6,2.8c0.8-1.3,2.2-2.2,3.9-2.2c2.5,0,4.5,2,4.5,4.5c0,0.1,0,0.3,0,0.4
		c0.1,0,0.2,0,0.4,0c2,0,3.7,1.6,3.7,3.7c0,2-1.6,3.7-3.7,3.7h-16.6c-2,0-3.7-1.6-3.7-3.7c0-2,1.6-3.7,3.7-3.7
		c0.5,0,0.9,0.1,1.3,0.3c-0.4-0.6-0.7-1.3-0.7-2.1C835.2,465.9,836.8,464.3,838.8,464.3z"/>
	<g>
		<g>
			<g>
				<polygon class="st54" points="685.6,224.4 690.2,232.7 700.6,233.9 693.1,241.2 696.5,250.4 685.6,246.7 674.6,250.4 
					678.1,241.2 670.6,233.9 680.9,232.7 				"/>
				<polygon class="st55" points="696.5,250.4 685.5,243.6 674.6,250.4 685.6,246.7 				"/>
				<polygon class="st56" points="685.6,246.7 685.5,243.6 674.6,250.4 				"/>
				<polygon class="st55" points="700.6,233.9 692.5,239.6 693.1,241.2 				"/>
				<polygon class="st56" points="670.5,233.9 678.7,239.6 678.1,241.2 				"/>
			</g>
			<g>
				<polygon class="st54" points="727.5,224.4 732.2,232.7 742.5,233.9 735,241.2 738.5,250.4 727.5,246.7 716.6,250.4 720,241.2 
					712.5,233.9 722.9,232.7 				"/>
				<polygon class="st55" points="738.5,250.4 727.5,243.6 716.6,250.4 727.5,246.7 				"/>
				<polygon class="st56" points="727.5,246.7 727.5,243.6 716.6,250.4 				"/>
				<polygon class="st55" points="742.5,233.9 734.4,239.6 735,241.2 				"/>
				<polygon class="st56" points="712.5,233.9 720.6,239.6 720,241.2 				"/>
			</g>
			<g>
				<polygon class="st54" points="769.5,224.4 774.1,232.7 784.5,233.9 777,241.2 780.4,250.4 769.5,246.7 758.5,250.4 762,241.2 
					754.5,233.9 764.9,232.7 				"/>
				<polygon class="st55" points="780.4,250.4 769.5,243.6 758.5,250.4 769.5,246.7 				"/>
				<polygon class="st56" points="769.5,246.7 769.5,243.6 758.5,250.4 				"/>
				<polygon class="st55" points="784.5,233.9 776.4,239.6 777,241.2 				"/>
				<polygon class="st56" points="754.5,233.9 762.6,239.6 762,241.2 				"/>
			</g>
			<g>
				<polygon class="st54" points="811.5,224.4 816.1,232.7 826.5,233.9 819,241.2 822.4,250.4 811.5,246.7 800.5,250.4 804,241.2 
					796.4,233.9 806.8,232.7 				"/>
				<polygon class="st55" points="822.4,250.4 811.4,243.6 800.5,250.4 811.5,246.7 				"/>
				<polygon class="st56" points="811.5,246.7 811.4,243.6 800.5,250.4 				"/>
				<polygon class="st55" points="826.5,233.9 818.4,239.6 819,241.2 				"/>
				<polygon class="st56" points="796.4,233.9 804.6,239.6 803.9,241.2 				"/>
			</g>
			<g>
				<polygon class="st50" points="853.4,224.4 858.1,232.7 868.4,233.9 860.9,241.2 864.4,250.4 853.4,246.7 842.5,250.4 
					845.9,241.2 838.4,233.9 848.8,232.7 				"/>
				<polygon class="st50" points="868.4,233.9 858.1,232.7 858.1,234 				"/>
				<polygon class="st52" points="853.4,224.4 858.1,232.7 858.1,234 				"/>
				<polygon class="st52" points="838.4,233.9 848.8,232.7 848.8,234 				"/>
				<polygon class="st50" points="853.4,224.4 848.8,232.7 848.8,234 				"/>
				<polygon class="st52" points="845.9,241.2 845.9,243.4 842.5,250.4 				"/>
				<polygon class="st50" points="860.9,241.2 860.9,243.4 864.4,250.4 				"/>
			</g>
		</g>
		<g>
			<polygon class="st54" points="860.3,215.1 864.9,223.4 875.3,224.6 867.8,231.9 871.2,241.1 860.3,237.4 849.4,241.1 
				852.8,231.9 845.3,224.6 855.7,223.4 			"/>
			<polygon class="st55" points="871.2,241.1 860.3,234.3 849.4,241.1 860.3,237.4 			"/>
			<polygon class="st56" points="860.3,237.4 860.3,234.3 849.4,241.1 			"/>
			<polygon class="st55" points="875.3,224.6 867.2,230.3 867.8,231.9 			"/>
			<polygon class="st56" points="845.3,224.6 853.4,230.3 852.8,231.9 			"/>
		</g>
	</g>
	<g>
		<path class="st57" d="M0,352.9h603c11.5,0,20.7,9.3,20.7,20.8v156.2c0,11.5,9.3,20.8,20.7,20.8h23.2h206.5h21.1
			c11.5,0,20.7-9.3,20.7-20.8V176.1c0-11.5,9.3-20.8,20.7-20.8h398.2c11.5,0,20.7,9.3,20.7,20.8v156.1c0,11.5,9.3,20.8,20.7,20.8
			H2000"/>
	</g>
	<g>
		<g>
			<path class="st7" d="M1474.4,216.7c0.1,0,0.2,0,0.2-0.1c0-0.1,0.1-0.1,0.1-0.2v-0.6c0-0.1,0-0.1-0.1-0.2c0-0.1-0.1-0.1-0.2-0.1
				h-0.4c-0.3,0-0.6-0.1-0.7-0.3c-0.1-0.2-0.2-0.4-0.2-0.7v-2h-1.2v2.4c0,0.2,0,0.3-0.1,0.4c0,0.1-0.2,0.1-0.3,0.1h-4.7
				c-0.1,0-0.2,0-0.3-0.1c-0.1-0.1-0.1-0.2-0.1-0.4v-1.6h-1.2v1.8c0,0.2,0,0.4,0.1,0.6c0.1,0.2,0.1,0.4,0.3,0.5
				c0.1,0.1,0.3,0.3,0.5,0.3c0.2,0.1,0.4,0.1,0.7,0.1h4.8c0.3,0,0.6-0.1,0.8-0.2c0.2-0.1,0.4-0.3,0.5-0.5c0.1,0.2,0.2,0.3,0.4,0.5
				c0.2,0.1,0.4,0.2,0.7,0.2H1474.4z M1468.7,218.5c0.1,0.1,0.3,0.2,0.5,0.2c0.2,0,0.3-0.1,0.4-0.2c0.1-0.1,0.2-0.3,0.2-0.4
				c0-0.2-0.1-0.3-0.2-0.4c-0.1-0.1-0.3-0.2-0.4-0.2c-0.2,0-0.3,0.1-0.5,0.2c-0.1,0.1-0.2,0.3-0.2,0.4
				C1468.6,218.2,1468.6,218.4,1468.7,218.5z"/>
			<path class="st7" d="M1475.4,216.7c0.3,0,0.5-0.1,0.8-0.2c0.2-0.1,0.4-0.3,0.5-0.5c0.1,0.2,0.2,0.3,0.4,0.5
				c0.2,0.1,0.4,0.2,0.7,0.2h0.4c0.1,0,0.2,0,0.2-0.1c0-0.1,0.1-0.1,0.1-0.2v-0.6c0-0.1,0-0.1-0.1-0.2c0-0.1-0.1-0.1-0.2-0.1h-0.4
				c-0.4,0-0.6-0.1-0.7-0.3c-0.1-0.2-0.2-0.4-0.2-0.7v-5.3h-1.2v5.7c0,0.2,0,0.3-0.1,0.4c-0.1,0.1-0.2,0.1-0.3,0.1h-1
				c-0.1,0-0.2,0-0.2,0.1c0,0.1-0.1,0.1-0.1,0.2v0.6c0,0.1,0,0.1,0.1,0.2c0,0.1,0.1,0.1,0.2,0.1H1475.4z"/>
			<path class="st7" d="M1484.3,215.5h-3.5c0-0.3,0.1-0.6,0.3-0.9c0.1-0.3,0.3-0.5,0.5-0.7c0.2-0.2,0.4-0.3,0.7-0.4
				c0.2-0.1,0.5-0.2,0.7-0.2c0.2,0,0.4,0,0.5,0.1c0.2,0.1,0.3,0.1,0.4,0.3c0.1,0.1,0.2,0.3,0.3,0.5c0.1,0.2,0.1,0.4,0.1,0.7V215.5z
				 M1485.5,216.7v-1.9c0-0.4-0.1-0.7-0.2-1c-0.1-0.3-0.3-0.6-0.5-0.8c-0.2-0.2-0.5-0.4-0.7-0.6c-0.3-0.1-0.6-0.2-1-0.2
				c-0.4,0-0.8,0.1-1.3,0.3c-0.4,0.2-0.8,0.5-1.1,0.9v-4.2h-1.2v6.3h-1.4c-0.1,0-0.2,0-0.2,0.1c0,0.1-0.1,0.1-0.1,0.2v0.6
				c0,0.1,0,0.1,0.1,0.2c0,0.1,0.1,0.1,0.2,0.1H1485.5z"/>
			<path class="st7" d="M1487,216.7h1.2v-7.5h-1.2V216.7z"/>
			<path class="st7" d="M1463.8,229.6c-0.1,0.1-0.3,0.2-0.5,0.4c-0.2,0.1-0.4,0.2-0.7,0.3c-0.3,0.1-0.6,0.1-0.9,0.1
				c-0.3,0-0.6,0-0.9-0.1c-0.3-0.1-0.5-0.2-0.7-0.3c-0.2-0.1-0.3-0.3-0.4-0.5c-0.1-0.2-0.1-0.4-0.1-0.6c0-0.2,0-0.4,0.1-0.6
				c0.1-0.2,0.2-0.5,0.4-0.7l-1-0.6c-0.2,0.3-0.4,0.6-0.5,0.9c-0.1,0.3-0.2,0.7-0.2,1c0,0.3,0.1,0.7,0.2,1c0.1,0.3,0.3,0.6,0.6,0.9
				c0.3,0.3,0.6,0.5,1,0.6c0.4,0.2,0.9,0.3,1.5,0.3c0.6,0,1.2-0.1,1.6-0.2c0.5-0.2,0.8-0.4,1.1-0.6c0.3-0.3,0.5-0.5,0.7-0.8
				c0.1-0.3,0.2-0.6,0.2-0.9c0-0.2,0-0.3-0.1-0.5c-0.1-0.1-0.1-0.3-0.2-0.4c-0.1-0.1-0.2-0.2-0.3-0.4c-0.1-0.1-0.2-0.2-0.4-0.3
				c-0.2-0.2-0.3-0.3-0.5-0.5c-0.1-0.2-0.2-0.3-0.2-0.5c0-0.2,0.1-0.3,0.2-0.4c0.2-0.1,0.3-0.1,0.6-0.1c0.2,0,0.4,0,0.6,0.1
				c0.2,0,0.4,0.1,0.5,0.2l0.3-1.2c-0.1-0.1-0.3-0.1-0.4-0.1c-0.1,0-0.3-0.1-0.4-0.1c-0.2,0-0.3,0-0.5,0c-0.2,0-0.5,0-0.7,0.1
				c-0.2,0.1-0.5,0.2-0.7,0.3c-0.2,0.2-0.4,0.3-0.5,0.6c-0.1,0.2-0.2,0.5-0.2,0.8c0,0.2,0,0.4,0.1,0.5c0.1,0.2,0.1,0.3,0.2,0.4
				c0.1,0.1,0.2,0.3,0.3,0.4c0.1,0.1,0.2,0.2,0.4,0.3c0.2,0.1,0.3,0.3,0.4,0.4c0.1,0.1,0.2,0.3,0.2,0.4
				C1464,229.3,1463.9,229.4,1463.8,229.6z"/>
			<path class="st7" d="M1470.3,229.3c0.1,0,0.2,0,0.2-0.1c0-0.1,0.1-0.1,0.1-0.2v-0.6c0-0.1,0-0.1-0.1-0.2c0-0.1-0.1-0.1-0.2-0.1
				h-0.4c-0.4,0-0.6-0.1-0.7-0.3c-0.1-0.2-0.2-0.4-0.2-0.7v-2h-1.2v3.9c0,0.4-0.1,0.7-0.2,0.9c-0.1,0.2-0.3,0.3-0.6,0.3
				c-0.1,0-0.2,0-0.3,0c-0.1,0-0.2,0-0.3,0l-0.3-0.1l-0.1,1.2c0,0,0.1,0,0.1,0c0,0,0.1,0,0.2,0c0.1,0,0.2,0,0.3,0c0.1,0,0.2,0,0.4,0
				c0.3,0,0.6-0.1,0.8-0.2c0.2-0.1,0.5-0.3,0.6-0.5c0.2-0.2,0.3-0.4,0.4-0.7c0.1-0.3,0.1-0.6,0.1-0.9v-0.3c0.1,0.1,0.2,0.2,0.4,0.3
				c0.2,0.1,0.4,0.1,0.6,0.1H1470.3z"/>
			<path class="st7" d="M1473.3,227.7c0.1,0.2,0.2,0.3,0.3,0.4h-3.3c-0.1,0-0.2,0-0.2,0.1c0,0.1-0.1,0.1-0.1,0.2v0.6
				c0,0.1,0,0.1,0.1,0.2c0,0.1,0.1,0.1,0.2,0.1h4.7v-1.2c-0.1-0.1-0.3-0.2-0.3-0.3c-0.1-0.1-0.2-0.2-0.2-0.4
				c-0.1-0.1-0.1-0.3-0.1-0.4c0-0.1,0-0.3-0.1-0.4c0-0.3-0.1-0.5-0.2-0.8c-0.1-0.2-0.2-0.4-0.4-0.6c-0.2-0.2-0.3-0.3-0.6-0.4
				c-0.2-0.1-0.5-0.1-0.8-0.1c-0.2,0-0.3,0-0.5,0c-0.2,0-0.3,0.1-0.5,0.1c-0.2,0-0.3,0.1-0.4,0.1c-0.1,0-0.2,0.1-0.3,0.1l0.3,1.2
				c0.2-0.1,0.4-0.2,0.6-0.2c0.2,0,0.4-0.1,0.6-0.1c0.3,0,0.5,0.1,0.6,0.2c0.1,0.1,0.2,0.4,0.3,0.7
				C1473.1,227.2,1473.2,227.5,1473.3,227.7z M1471.9,223.9c0.1,0.1,0.3,0.2,0.4,0.2c0.2,0,0.3-0.1,0.5-0.2c0.1-0.1,0.2-0.3,0.2-0.4
				c0-0.2-0.1-0.3-0.2-0.4c-0.1-0.1-0.3-0.2-0.5-0.2c-0.2,0-0.3,0.1-0.4,0.2c-0.1,0.1-0.2,0.3-0.2,0.4
				C1471.7,223.7,1471.8,223.8,1471.9,223.9z"/>
			<path class="st7" d="M1476.3,229.3h1.2v-7.5h-1.2V229.3z M1477.6,219.1c-0.1,0-0.2,0-0.3-0.1c-0.1,0-0.2,0-0.3,0
				c-0.3,0-0.5,0.1-0.7,0.2c-0.2,0.2-0.2,0.3-0.2,0.5c0,0.1,0,0.2,0.1,0.3c0,0.1,0.1,0.2,0.2,0.3h-0.5v0.6h1.8v-0.6h-0.3
				c-0.2,0-0.4,0-0.4-0.1c-0.1-0.1-0.1-0.2-0.1-0.3c0-0.1,0-0.2,0.1-0.3c0.1-0.1,0.2-0.1,0.3-0.1c0.1,0,0.3,0,0.4,0.1L1477.6,219.1z
				"/>
			<path class="st7" d="M1485.1,226.8c0-0.3,0-0.6-0.1-0.8c-0.1-0.3-0.2-0.5-0.4-0.7c-0.2-0.2-0.4-0.3-0.6-0.4
				c-0.2-0.1-0.5-0.2-0.8-0.2c-0.3,0-0.6,0.1-0.9,0.2c-0.3,0.1-0.5,0.3-0.7,0.5c-0.2,0.2-0.4,0.5-0.5,0.8c-0.1,0.3-0.2,0.6-0.2,0.9
				c0,0.3,0,0.5,0.1,0.8c0.1,0.3,0.2,0.5,0.4,0.7c0.2,0.2,0.4,0.4,0.7,0.5c0.3,0.1,0.7,0.2,1.1,0.2h1.9V226.8z M1483.2,228.1
				c-0.1,0-0.3,0-0.4-0.1c-0.1,0-0.3-0.1-0.4-0.2c-0.1-0.1-0.2-0.2-0.3-0.3c-0.1-0.1-0.1-0.3-0.1-0.5c0-0.2,0-0.3,0.1-0.5
				c0.1-0.1,0.1-0.2,0.2-0.3c0.1-0.1,0.2-0.2,0.3-0.2c0.1-0.1,0.2-0.1,0.4-0.1c0.3,0,0.5,0.1,0.7,0.3c0.2,0.2,0.2,0.5,0.2,0.9v0.9
				H1483.2z M1481.8,223.9c0.1,0.1,0.3,0.2,0.5,0.2c0.2,0,0.3-0.1,0.5-0.2c0.1-0.1,0.2-0.3,0.2-0.4c0-0.2-0.1-0.3-0.2-0.4
				c-0.1-0.1-0.3-0.2-0.5-0.2c-0.2,0-0.3,0.1-0.5,0.2c-0.1,0.1-0.2,0.3-0.2,0.4C1481.6,223.7,1481.6,223.8,1481.8,223.9z
				 M1483.4,223.9c0.1,0.1,0.3,0.2,0.5,0.2c0.2,0,0.3-0.1,0.5-0.2c0.1-0.1,0.2-0.3,0.2-0.4c0-0.2-0.1-0.3-0.2-0.4
				c-0.1-0.1-0.3-0.2-0.5-0.2c-0.2,0-0.3,0.1-0.5,0.2c-0.1,0.1-0.2,0.3-0.2,0.4C1483.2,223.7,1483.3,223.8,1483.4,223.9z"/>
			<path class="st7" d="M1489.9,229.3c0.1,0,0.2,0,0.2-0.1c0-0.1,0.1-0.1,0.1-0.2v-0.6c0-0.1,0-0.1-0.1-0.2c0-0.1-0.1-0.1-0.2-0.1
				h-0.4c-0.4,0-0.6-0.1-0.7-0.3c-0.1-0.2-0.2-0.4-0.2-0.7v-2h-1.2v3.9c0,0.4-0.1,0.7-0.2,0.9c-0.1,0.2-0.3,0.3-0.6,0.3
				c-0.1,0-0.2,0-0.3,0c-0.1,0-0.2,0-0.3,0l-0.3-0.1l-0.1,1.2c0,0,0.1,0,0.1,0c0,0,0.1,0,0.2,0c0.1,0,0.2,0,0.3,0c0.1,0,0.2,0,0.4,0
				c0.3,0,0.6-0.1,0.8-0.2c0.2-0.1,0.5-0.3,0.6-0.5c0.2-0.2,0.3-0.4,0.4-0.7c0.1-0.3,0.1-0.6,0.1-0.9v-0.3c0.1,0.1,0.2,0.2,0.4,0.3
				c0.2,0.1,0.4,0.1,0.6,0.1H1489.9z"/>
			<path class="st7" d="M1492.3,227.8c-0.2-0.2-0.2-0.4-0.2-0.7c0-0.2,0-0.3,0.1-0.5s0.1-0.3,0.2-0.4s0.2-0.2,0.3-0.2
				c0.1-0.1,0.2-0.1,0.4-0.1c0.1,0,0.2,0,0.4,0.1c0.1,0.1,0.2,0.1,0.3,0.2c0.1,0.1,0.2,0.2,0.2,0.4c0.1,0.1,0.1,0.3,0.1,0.5
				c0,0.3-0.1,0.5-0.2,0.7c-0.2,0.2-0.4,0.3-0.7,0.3C1492.7,228.1,1492.4,228,1492.3,227.8z M1490.3,229.3c0.2,0,0.4-0.1,0.6-0.2
				c0.2-0.1,0.3-0.3,0.4-0.5c0.1,0.1,0.2,0.3,0.4,0.4c0.1,0.1,0.3,0.2,0.4,0.2c0.2,0.1,0.3,0.1,0.5,0.1c0.2,0,0.3,0,0.5,0
				c0.4,0,0.7-0.1,1-0.2s0.5-0.3,0.6-0.5c0.2-0.2,0.3-0.4,0.4-0.7c0.1-0.3,0.1-0.5,0.1-0.8c0-0.3,0-0.7-0.1-1
				c-0.1-0.3-0.2-0.5-0.4-0.8c-0.2-0.2-0.4-0.4-0.7-0.5c-0.3-0.1-0.6-0.2-0.9-0.2c-0.3,0-0.6,0.1-0.9,0.2c-0.3,0.1-0.5,0.3-0.7,0.5
				c-0.2,0.2-0.3,0.5-0.5,0.7c-0.1,0.3-0.2,0.6-0.2,0.9c0,0.7-0.2,1-0.7,1h-0.4c-0.1,0-0.2,0-0.2,0.1c0,0.1-0.1,0.1-0.1,0.2v0.6
				c0,0.1,0,0.1,0.1,0.2c0,0.1,0.1,0.1,0.2,0.1H1490.3z"/>
		</g>
	</g>
</g>
<g>
	<path d="M1070.9,232.5c0.6,0,1.1-0.4,1.1-1.1c0-0.6-0.4-1.1-1.1-1.1c-0.6,0-1.1,0.5-1.1,1.1
		C1069.8,232.1,1070.3,232.5,1070.9,232.5L1070.9,232.5z"/>
	<path d="M1086.5,229.3v-10.7h-3.8v1.2h-0.7c-1.5,0-2.8,0.3-3.9,0.8s-2,1.3-2.5,2.2c-0.6,1-0.9,2.1-0.9,3.3c0,1.9,0.6,3.5,1.9,4.5
		c1.3,1.1,3.1,1.6,5.4,1.6h7.6c0.1,0,0.1,0,0.1-0.1v-2.8c0-0.1,0-0.1-0.1-0.1h-3.1V229.3z M1082,229.3c-1.1,0-2-0.3-2.6-0.8
		s-0.9-1.3-0.9-2.3c0-1.1,0.3-1.9,0.9-2.4c0.6-0.6,1.5-0.8,2.7-0.8h0.7v6.4L1082,229.3L1082,229.3z M1081.6,216.5
		c0.3-0.3,0.5-0.8,0.5-1.3c0-0.6-0.1-1-0.4-1.3s-0.7-0.5-1.2-0.5s-0.9,0.2-1.2,0.5c-0.3,0.3-0.4,0.8-0.4,1.3c0,0.6,0.2,1,0.5,1.3
		s0.7,0.5,1.2,0.5C1080.9,217,1081.3,216.9,1081.6,216.5z M1085.9,216.5c0.3-0.3,0.5-0.8,0.5-1.3c0-0.6-0.1-1-0.4-1.3
		s-0.7-0.5-1.2-0.5s-0.9,0.2-1.2,0.5c-0.3,0.3-0.4,0.8-0.4,1.3c0,0.6,0.2,1,0.5,1.3s0.7,0.5,1.2,0.5
		C1085.2,217,1085.6,216.9,1085.9,216.5z"/>
	<path d="M1089.4,229.3c-0.1,0-0.1,0-0.1,0.1v2.8c0,0.1,0,0.1,0.1,0.1h7.7c1.3,0,2.4-0.3,3.5-0.8s1.9-1.3,2.5-2.3s0.9-2.1,0.9-3.4
		c0-1.2-0.3-2.2-0.8-3.1s-1.2-1.6-2.2-2.1c-0.9-0.5-2-0.7-3.1-0.7c-0.7,0-1.5,0.1-2.4,0.4c-0.9,0.2-1.8,0.6-2.6,1.1
		c-0.4,0.6-0.7,1.3-0.9,2.2c-0.2,0.8-0.4,1.6-0.4,2.4c0,1.3,0.2,2.4,0.7,3.5h-2.9V229.3z M1095.4,223.6c0.8-0.5,1.6-0.7,2.3-0.7
		c0.7,0,1.3,0.3,1.7,0.8c0.4,0.5,0.7,1.2,0.7,2.1c0,1-0.3,1.8-1,2.5s-1.5,1-2.6,1h-0.9c-0.4-1.1-0.6-2.1-0.6-2.9
		C1095,225.4,1095.2,224.5,1095.4,223.6L1095.4,223.6z"/>
	<path d="M1106.4,232.3h15.5c0.1,0,0.1,0,0.1-0.1v-2.8c0-0.1,0-0.1-0.1-0.1h-3.3c-0.6-3.1-1.6-5.5-3-7.4s-3.1-3.2-5.4-4.1l-1.4,3.5
		c1.1,0.5,2,1,2.8,1.7s1.4,1.5,1.9,2.5s0.9,2.2,1.3,3.8h-8.4V232.3z"/>
	<path d="M1137.2,232.3c0.1,0,0.1,0,0.1-0.1v-2.8c0-0.1,0-0.1-0.1-0.1h-1.6c-0.7-0.7-1.3-2.3-1.8-4.8c-0.3-1.7-0.9-3-1.8-3.7
		c-0.9-0.8-2.2-1.1-3.9-1.1c-2,0-3.8,0.4-5.3,1.2l1.1,2.8c0.6-0.3,1.2-0.6,1.7-0.7s1.1-0.2,1.7-0.2c0.9,0,1.6,0.2,2,0.7
		s0.8,1.2,1,2.4c0.4,1.8,0.9,3,1.5,3.6h-10.2c-0.1,0-0.1,0-0.1,0.1v2.8c0,0.1,0,0.1,0.1,0.1h15.6V232.3z M1129.5,217.2
		c0.3-0.3,0.5-0.8,0.5-1.3c0-0.6-0.1-1-0.4-1.3s-0.7-0.5-1.2-0.5s-0.9,0.2-1.2,0.5c-0.3,0.3-0.4,0.8-0.4,1.3c0,0.6,0.2,1,0.5,1.3
		s0.7,0.5,1.2,0.5C1128.8,217.7,1129.2,217.5,1129.5,217.2z"/>
	<path d="M1143.9,232.3v-19.1h-3.8v16.1h-3.1c-0.1,0-0.1,0-0.1,0.1v2.8c0,0.1,0,0.1,0.1,0.1L1143.9,232.3L1143.9,232.3z"/>
	<path d="M1148.9,232.3h3.8v-19.1h-3.8V232.3z"/>
	<path d="M1182.6,232.3c0.1,0,0.1,0,0.1-0.1v-2.8c0-0.1,0-0.1-0.1-0.1h-0.1c-0.6,0-1.1-0.1-1.5-0.2c-0.4-0.1-0.7-0.4-1-0.7
		c0.3-0.8,0.5-1.7,0.5-2.6c0-1.2-0.3-2.2-0.8-3.1c-0.5-0.9-1.3-1.6-2.2-2.1c-0.9-0.5-2-0.7-3.1-0.7c-0.7,0-1.6,0.1-2.5,0.4
		c-0.9,0.3-1.8,0.6-2.5,1.1c-0.4,0.6-0.7,1.3-0.9,2.1c-0.3,0.9-0.4,1.7-0.4,2.4c0,1.3,0.2,2.4,0.7,3.5c-1.1,0.1-1.9,0.4-2.4,1.1
		c-0.6,0.6-0.9,1.5-0.9,2.6v7.4h3.8v-6.1c0-0.7,0.2-1.2,0.5-1.5s0.8-0.4,1.6-0.4h2.3c0.9,0,1.7-0.1,2.6-0.4c0.8-0.3,1.6-0.7,2.2-1.3
		c0.6,0.6,1.2,1.1,1.9,1.3c0.6,0.3,1.4,0.4,2.3,0.4h-0.1V232.3z M1171.9,223.6c0.8-0.5,1.6-0.7,2.3-0.7c0.7,0,1.3,0.3,1.7,0.8
		c0.4,0.5,0.7,1.2,0.7,2.2s-0.3,1.8-1,2.5s-1.5,1-2.5,1h-1c-0.4-1.1-0.6-2.1-0.6-2.9C1171.5,225.4,1171.6,224.5,1171.9,223.6
		L1171.9,223.6z"/>
	<path d="M1193.8,232.3c0.1,0,0.1,0,0.1-0.1v-2.8c0-0.1,0-0.1-0.1-0.1h-3.8v-9.4h-3.8v9.4h-3.9c-0.1,0-0.1,0-0.1,0.1v2.8
		c0,0.1,0,0.1,0.1,0.1H1193.8z M1186.9,238.1c0.3-0.3,0.5-0.8,0.5-1.3c0-0.6-0.1-1-0.4-1.3s-0.7-0.5-1.2-0.5s-0.9,0.2-1.2,0.5
		c-0.3,0.3-0.4,0.8-0.4,1.3c0,0.6,0.2,1,0.5,1.3s0.7,0.5,1.2,0.5C1186.2,238.6,1186.6,238.5,1186.9,238.1z M1191.2,238.1
		c0.3-0.3,0.5-0.8,0.5-1.3c0-0.6-0.1-1-0.4-1.3s-0.7-0.5-1.2-0.5s-0.9,0.2-1.2,0.5c-0.3,0.3-0.4,0.8-0.4,1.3c0,0.6,0.2,1,0.5,1.3
		s0.7,0.5,1.2,0.5C1190.5,238.6,1190.9,238.5,1191.2,238.1z"/>
	<path d="M1203.3,229.3c-1.1,0-2-0.3-2.6-0.8s-0.9-1.3-0.9-2.3c0-1.1,0.3-1.9,0.9-2.5s1.5-0.8,2.6-0.8h0.7v6.4L1203.3,229.3
		L1203.3,229.3z M1193.5,229.3c-0.1,0-0.1,0-0.1,0.1v2.8c0,0.1,0,0.1,0.1,0.1h14.2v-12.5h-4.5c-2.3,0-4.1,0.6-5.4,1.7
		c-1.3,1.1-1.9,2.6-1.9,4.5c0,1.3,0.4,2.4,1.2,3.3L1193.5,229.3L1193.5,229.3z M1202,217.2c0.3-0.3,0.5-0.8,0.5-1.3
		c0-0.6-0.1-1-0.4-1.3s-0.7-0.5-1.2-0.5s-0.9,0.2-1.2,0.5c-0.3,0.3-0.4,0.8-0.4,1.3c0,0.6,0.2,1,0.5,1.3s0.7,0.5,1.2,0.5
		C1201.3,217.7,1201.7,217.5,1202,217.2z M1206.3,217.2c0.3-0.3,0.5-0.8,0.5-1.3c0-0.6-0.1-1-0.4-1.3s-0.7-0.5-1.2-0.5
		s-0.9,0.2-1.2,0.5c-0.3,0.3-0.4,0.8-0.4,1.3c0,0.6,0.2,1,0.5,1.3s0.7,0.5,1.2,0.5C1205.6,217.7,1206,217.5,1206.3,217.2z"/>
	<path d="M1022.4,269.6h3.3c0.1,0,0.1,0,0.1-0.1v-1c0,0,0-0.1-0.1-0.1h-2v-10.2h-1.3L1022.4,269.6L1022.4,269.6z"/>
	<path d="M1028.9,269.6v-7.3h-1.3v6.1h-2c0,0-0.1,0-0.1,0.1v1c0,0,0,0.1,0.1,0.1L1028.9,269.6L1028.9,269.6z M1028.8,260.6
		c0.1-0.2,0.2-0.4,0.2-0.7c0-0.3-0.1-0.5-0.2-0.7s-0.4-0.2-0.6-0.2c-0.3,0-0.5,0.1-0.6,0.2c-0.1,0.2-0.2,0.4-0.2,0.7
		c0,0.3,0.1,0.5,0.2,0.7c0.2,0.2,0.4,0.2,0.6,0.2C1028.5,260.9,1028.7,260.8,1028.8,260.6z"/>
	<path d="M1030.8,269.6h7.9c0,0,0.1,0,0.1-0.1v-1c0,0,0-0.1-0.1-0.1h-1.7c-0.2-1.7-0.7-3.1-1.5-4.3c-0.7-1.2-1.7-2.1-2.8-2.7
		l-0.5,1.1c1,0.7,1.8,1.5,2.4,2.4s0.9,2.1,1.1,3.4h-5L1030.8,269.6L1030.8,269.6z"/>
	<path d="M1047.7,269.6L1047.7,269.6l0.1-1.1c0,0,0-0.1-0.1-0.1h-1.8c-0.6,0-1.1-0.1-1.7-0.3c0.8-0.6,1.5-1.3,2-2.2
		c0.5-0.9,0.7-1.9,0.7-2.9c-0.5-0.3-1-0.6-1.7-0.8c-0.6-0.2-1.3-0.3-1.9-0.3c-0.7,0-1.4,0.1-2.1,0.4s-1.3,0.7-1.8,1.2
		c0.1,0.5,0.3,1.1,0.6,1.7c0.3,0.6,0.6,1.2,1,1.7s0.8,0.9,1.2,1.2c-0.5,0.2-1.1,0.3-1.8,0.3h-1.7c0,0-0.1,0-0.1,0.1v1
		c0,0,0,0.1,0.1,0.1h1.7c1,0,1.9-0.2,2.8-0.7c0.5,0.2,0.9,0.4,1.4,0.6s0.9,0.2,1.4,0.2h1.7V269.6z M1041.6,265.8
		c-0.4-0.6-0.7-1.3-0.8-2c0.8-0.6,1.7-0.9,2.5-0.9c0.7,0,1.5,0.2,2.2,0.6c0,0.8-0.3,1.5-0.6,2.2c-0.4,0.6-0.9,1.2-1.7,1.7
		C1042.6,267,1042.1,266.5,1041.6,265.8z"/>
	<path d="M1061.5,269.6C1061.5,269.6,1061.6,269.6,1061.5,269.6l0.1-1.1c0,0,0-0.1-0.1-0.1h-2v-6.1h-1.3v6.1h-0.9
		c-0.5,0-0.8-0.1-1.1-0.3c-0.3-0.2-0.6-0.5-0.8-0.9V267v-3.6h-1.3v3.2c0,0.5-0.1,0.9-0.4,1.3c-0.3,0.3-0.6,0.5-1.1,0.5h-1.6v-4.9
		h-1.3v4.9h-2.1c0,0-0.1,0-0.1,0.1v1c0,0,0,0.1,0.1,0.1h5.2c0.5,0,0.9-0.1,1.3-0.3c0.4-0.2,0.7-0.4,0.9-0.8c0.4,0.4,0.8,0.7,1.2,0.8
		c0.4,0.1,0.8,0.2,1.2,0.2L1061.5,269.6L1061.5,269.6z"/>
	<path d="M1065.6,269.6v-7.3h-1.3v6.1h-2.9c0,0-0.1,0-0.1,0.1v1c0,0,0,0.1,0.1,0.1L1065.6,269.6L1065.6,269.6z M1062.9,272.3
		c0.1-0.2,0.2-0.4,0.2-0.7c0-0.3-0.1-0.5-0.2-0.7c-0.2-0.2-0.4-0.2-0.6-0.2s-0.4,0.1-0.6,0.2s-0.2,0.4-0.2,0.7
		c0,0.3,0.1,0.5,0.2,0.7c0.2,0.1,0.4,0.2,0.6,0.2C1062.6,272.6,1062.8,272.5,1062.9,272.3z M1065.5,272.3c0.1-0.2,0.2-0.4,0.2-0.7
		c0-0.3-0.1-0.5-0.2-0.7s-0.4-0.2-0.6-0.2c-0.3,0-0.5,0.1-0.6,0.2c-0.1,0.2-0.2,0.4-0.2,0.7c0,0.3,0.1,0.5,0.2,0.7
		c0.2,0.2,0.4,0.2,0.6,0.2C1065.2,272.6,1065.4,272.5,1065.5,272.3z"/>
	<path d="M1073.6,269.6h1.3v-11.4h-1.3V269.6z"/>
	<path d="M1077.1,269.6h7.9c0,0,0.1,0,0.1-0.1v-1c0,0,0-0.1-0.1-0.1h-1.7c-0.2-1.7-0.7-3.1-1.5-4.3c-0.7-1.2-1.7-2.1-2.8-2.7
		l-0.5,1.1c1,0.7,1.8,1.5,2.4,2.4s0.9,2.1,1.1,3.4h-5L1077.1,269.6L1077.1,269.6z M1079.8,259.8c0.1-0.2,0.2-0.4,0.2-0.7
		c0-0.3-0.1-0.5-0.2-0.7s-0.4-0.2-0.6-0.2c-0.3,0-0.5,0.1-0.6,0.2c-0.1,0.2-0.2,0.4-0.2,0.7c0,0.3,0.1,0.5,0.2,0.7
		c0.2,0.2,0.4,0.2,0.6,0.2C1079.5,260,1079.7,259.9,1079.8,259.8z"/>
	<path d="M1088.2,269.6v-11.4h-1.3v10.2h-2c0,0-0.1,0-0.1,0.1v1c0,0,0,0.1,0.1,0.1L1088.2,269.6L1088.2,269.6z"/>
	<path d="M1095.9,268.1c-0.3,0-0.5,0.2-0.5,0.5c0,0.2,0.1,0.3,0.1,0.3c0.4,0.1,0.7,0.4,0.7,0.7c0,0.4-0.3,0.7-0.9,0.9l0.1,0.3
		c0.7-0.2,1.5-0.7,1.5-1.5C1096.9,268.6,1096.3,268.1,1095.9,268.1L1095.9,268.1z"/>
	<path d="M1098,269.6h7.9c0,0,0.1,0,0.1-0.1v-1c0,0,0-0.1-0.1-0.1h-1.7c-0.2-1.7-0.7-3.1-1.5-4.3c-0.7-1.2-1.7-2.1-2.8-2.7l-0.5,1.1
		c1,0.7,1.8,1.5,2.4,2.4s0.9,2.1,1.1,3.4h-5L1098,269.6L1098,269.6z"/>
	<path d="M1111.8,269.6C1111.9,269.6,1111.9,269.6,1111.8,269.6l0.1-1.1c0,0,0-0.1-0.1-0.1h-2.2v-6.1h-1.3v6.1h-2.4
		c0,0-0.1,0-0.1,0.1v1c0,0,0,0.1,0.1,0.1H1111.8z M1108.3,272.3c0.1-0.2,0.2-0.4,0.2-0.7c0-0.3-0.1-0.5-0.2-0.7
		c-0.2-0.2-0.4-0.2-0.6-0.2s-0.4,0.1-0.6,0.2s-0.2,0.4-0.2,0.7c0,0.3,0.1,0.5,0.2,0.7c0.2,0.1,0.4,0.2,0.6,0.2
		C1107.9,272.6,1108.1,272.5,1108.3,272.3z M1110.9,272.3c0.1-0.2,0.2-0.4,0.2-0.7c0-0.3-0.1-0.5-0.2-0.7s-0.4-0.2-0.6-0.2
		c-0.3,0-0.5,0.1-0.6,0.2c-0.1,0.2-0.2,0.4-0.2,0.7c0,0.3,0.1,0.5,0.2,0.7c0.2,0.2,0.4,0.2,0.6,0.2
		C1110.5,272.6,1110.7,272.5,1110.9,272.3z"/>
	<path d="M1119.5,269.6v-1.1c-0.2-0.2-0.5-0.6-0.6-1.1c-0.2-0.5-0.3-1.2-0.5-2.1c-0.1-0.8-0.3-1.4-0.6-1.9c-0.2-0.4-0.6-0.8-1-1
		s-0.9-0.3-1.5-0.3c-0.5,0-1,0.1-1.4,0.2s-0.9,0.3-1.3,0.6l0.5,1c0.8-0.4,1.5-0.6,2.2-0.6c0.6,0,1,0.2,1.3,0.5s0.5,1,0.6,1.8
		c0.3,1.5,0.6,2.4,0.9,2.7h-6.4c0,0-0.1,0-0.1,0.1v1c0,0,0,0.1,0.1,0.1L1119.5,269.6L1119.5,269.6z"/>
	<path d="M1124.9,268.4c-0.7,0-1.2-0.2-1.5-0.5c-0.3-0.4-0.5-0.9-0.5-1.7c0-0.8,0.2-1.5,0.7-2s1.2-0.7,2.1-0.7h0.6v4.9L1124.9,268.4
		L1124.9,268.4z M1127.6,269.6h1.2c0,0,0.1,0,0.1-0.1v-1c0,0,0-0.1-0.1-0.1h-1.2v-6.1h-2c-1.3,0-2.2,0.3-3,1s-1.1,1.6-1.1,2.8
		c0,1.1,0.3,2,0.9,2.5c0.6,0.6,1.4,0.9,2.5,0.9h1.5v0.4c0,0.6-0.2,1.1-0.6,1.5s-0.9,0.5-1.6,0.5c-0.4,0-0.8-0.1-1.1-0.2
		c-0.3-0.1-0.7-0.3-1-0.4l-0.6,1c0.8,0.5,1.7,0.8,2.7,0.8c1.1,0,2-0.3,2.6-0.9s0.9-1.4,0.9-2.4v-0.2H1127.6z"/>
	<path d="M1132,269.6v-11.4h-1.3v10.2h-2c0,0-0.1,0-0.1,0.1v1c0,0,0,0.1,0.1,0.1L1132,269.6L1132,269.6z"/>
	<path d="M1135,269.6h1.3v-11.4h-1.3V269.6z"/>
	<path d="M1144.4,269.6h3.3c0.1,0,0.1,0,0.1-0.1v-1c0,0,0-0.1-0.1-0.1h-2v-10.2h-1.3V269.6z"/>
	<path d="M1152.9,269.6L1152.9,269.6l0.1-1.1c0,0,0-0.1-0.1-0.1h-2v-6.1h-1.3v6.1h-2c0,0-0.1,0-0.1,0.1v1c0,0,0,0.1,0.1,0.1H1152.9z
		 M1150.8,260.6c0.1-0.2,0.2-0.4,0.2-0.7c0-0.3-0.1-0.5-0.2-0.7s-0.4-0.2-0.6-0.2c-0.3,0-0.5,0.1-0.6,0.2c-0.1,0.2-0.2,0.4-0.2,0.7
		c0,0.3,0.1,0.5,0.2,0.7c0.2,0.2,0.4,0.2,0.6,0.2C1150.5,260.9,1150.7,260.8,1150.8,260.6z"/>
	<path d="M1157.6,268.4c-1.4,0-2.1-0.8-2.1-2.3c0-0.8,0.2-1.5,0.7-2s1.2-0.7,2.1-0.7h0.6v4.9h-1.3V268.4z M1160.3,269.6v-7.3h-2
		c-1.3,0-2.3,0.3-3,1s-1.1,1.6-1.1,2.8c0,0.4,0.1,0.8,0.2,1.2c0.1,0.4,0.3,0.8,0.6,1h-2.3c0,0-0.1,0-0.1,0.1v1c0,0,0,0.1,0.1,0.1
		L1160.3,269.6L1160.3,269.6z M1158,260.6c0.1-0.2,0.2-0.4,0.2-0.7c0-0.3-0.1-0.5-0.2-0.7s-0.4-0.2-0.6-0.2c-0.3,0-0.5,0.1-0.6,0.2
		c-0.1,0.2-0.2,0.4-0.2,0.7c0,0.3,0.1,0.5,0.2,0.7c0.2,0.2,0.4,0.2,0.6,0.2C1157.7,260.9,1157.9,260.8,1158,260.6z"/>
	<path d="M1162.2,269.6h7.9c0,0,0.1,0,0.1-0.1v-1c0,0,0-0.1-0.1-0.1h-1.7c-0.2-1.7-0.7-3.1-1.5-4.3c-0.7-1.2-1.7-2.1-2.8-2.7
		l-0.5,1.1c1,0.7,1.8,1.5,2.4,2.4s0.9,2.1,1.1,3.4h-5L1162.2,269.6L1162.2,269.6z"/>
	<path d="M1174.7,268.4c-0.6,0-1.1-0.2-1.5-0.6s-0.6-0.9-0.6-1.5s0.1-1,0.4-1.3s0.7-0.5,1.2-0.5c0.6,0,1,0.2,1.3,0.5
		s0.4,0.9,0.4,1.6v1.8H1174.7z M1180.4,269.6v-4.2c0-1.6-0.4-2.8-1.3-3.7c-0.9-0.9-2.1-1.3-3.8-1.3c-1.1,0-2.2,0.2-3.1,0.5l0.3,1.2
		c0.9-0.3,1.8-0.4,2.8-0.4c1.3,0,2.3,0.3,2.9,1s0.9,1.6,0.9,3v2.9h-2v-2c0-2.1-1-3.2-2.9-3.2c-0.5,0-1.1,0.1-1.5,0.4
		c-0.5,0.3-0.8,0.6-1.1,1.1s-0.4,1-0.4,1.6c0,0.5,0.1,0.9,0.3,1.3c0.2,0.4,0.4,0.7,0.8,0.9h-2.3c0,0-0.1,0-0.1,0.1v1
		c0,0,0,0.1,0.1,0.1h10.4V269.6z"/>
	<path d="M1191.3,268.4c-0.7,0-1.2-0.2-1.5-0.5c-0.3-0.4-0.5-0.9-0.5-1.7c0-0.8,0.2-1.5,0.7-2s1.2-0.7,2.1-0.7h0.6v4.9L1191.3,268.4
		L1191.3,268.4z M1194,269.6h1.2c0,0,0.1,0,0.1-0.1v-1c0,0,0-0.1-0.1-0.1h-1.2v-6.1h-2c-1.3,0-2.2,0.3-3,1s-1.1,1.6-1.1,2.8
		c0,1.1,0.3,2,0.9,2.5c0.6,0.6,1.4,0.9,2.5,0.9h1.5v0.4c0,0.6-0.2,1.1-0.6,1.5s-0.9,0.5-1.6,0.5c-0.4,0-0.8-0.1-1.1-0.2
		c-0.3-0.1-0.7-0.3-1-0.4l-0.6,1c0.8,0.5,1.7,0.8,2.7,0.8c1.1,0,2-0.3,2.6-0.9s0.9-1.4,0.9-2.4v-0.2H1194z"/>
	<path d="M1199.7,268.4c-0.6,0-1.1-0.2-1.5-0.6s-0.6-0.9-0.6-1.5s0.1-1,0.4-1.3s0.7-0.5,1.2-0.5c0.6,0,1,0.2,1.3,0.5
		s0.4,0.9,0.4,1.6v1.8H1199.7z M1205.5,269.6v-4.2c0-1.6-0.4-2.8-1.3-3.7c-0.9-0.9-2.1-1.3-3.8-1.3c-1.1,0-2.2,0.2-3.1,0.5l0.3,1.2
		c0.9-0.3,1.8-0.4,2.8-0.4c1.3,0,2.3,0.3,2.9,1s0.9,1.6,0.9,3v2.9h-2v-2c0-2.1-1-3.2-2.9-3.2c-0.5,0-1.1,0.1-1.5,0.4
		c-0.5,0.3-0.8,0.6-1.1,1.1s-0.4,1-0.4,1.6c0,0.5,0.1,0.9,0.3,1.3c0.2,0.4,0.4,0.7,0.8,0.9h-2.3c0,0-0.1,0-0.1,0.1v1
		c0,0,0,0.1,0.1,0.1h10.4V269.6z"/>
	<path d="M1217.2,269.6c0.5,0,0.9-0.1,1.3-0.2c0.4-0.2,0.8-0.4,1.1-0.7c0.3,0.4,0.7,0.6,1.1,0.8c0.4,0.1,0.8,0.2,1.4,0.2h0.1
		c0,0,0.1,0,0.1-0.1v-1c0,0,0-0.1-0.1-0.1h-0.1c-0.4,0-0.8-0.1-1-0.2c-0.3-0.1-0.5-0.4-0.7-0.7c0.2-0.5,0.3-1.1,0.3-1.8
		c0-0.6-0.1-1.2-0.4-1.7s-0.6-0.9-1.1-1.2c-0.5-0.3-1-0.4-1.6-0.4c-0.5,0-1,0.1-1.5,0.3c-0.5,0.2-0.9,0.4-1.3,0.7
		c-0.4,0.7-0.5,1.5-0.5,2.4c0,0.8,0.2,1.6,0.5,2.6h-0.1c-0.3,0-0.7,0.1-0.9,0.2c-0.3,0.2-0.5,0.4-0.7,0.7s-0.2,0.7-0.2,1.1v3.9h1.3
		v-3.7c0-0.7,0.4-1.1,1.1-1.1L1217.2,269.6L1217.2,269.6z M1215.6,264.9c0-0.2,0.1-0.4,0.2-0.6c0.5-0.4,1.1-0.6,1.8-0.6
		c0.5,0,0.9,0.2,1.3,0.6c0.3,0.4,0.5,0.9,0.5,1.5c0,0.9-0.2,1.5-0.5,2c-0.4,0.5-0.9,0.7-1.5,0.7h-1.1c-0.2-0.5-0.4-1-0.5-1.5
		s-0.1-0.9-0.1-1.4C1215.6,265.3,1215.6,265.1,1215.6,264.9z"/>
	<path d="M1231.5,269.6C1231.6,269.6,1231.6,269.6,1231.5,269.6l0.1-1.1c0,0,0-0.1-0.1-0.1h-1.9v-3c0-1-0.3-1.8-1-2.3
		s-1.7-0.8-3-0.8h-1.3c0.3-0.7,0.9-1.4,1.8-2.1s1.8-1.3,2.7-1.6l-0.5-1.1c-0.7,0.3-1.3,0.6-2,1.1s-1.3,1.1-1.9,1.7
		c-0.6,0.7-1,1.3-1.3,2v1.2h2.5c0.9,0,1.6,0.2,2.1,0.5c0.4,0.4,0.7,0.9,0.7,1.6v2.8h-6.3c0,0-0.1,0-0.1,0.1v1c0,0,0,0.1,0.1,0.1
		L1231.5,269.6L1231.5,269.6z"/>
	<path d="M1235.6,269.6v-7.3h-1.3v6.1h-2.9c0,0-0.1,0-0.1,0.1v1c0,0,0,0.1,0.1,0.1L1235.6,269.6L1235.6,269.6z M1233.2,260.9
		l0.8-0.1c0.7-0.1,1.3-0.2,1.5-0.2s0.5,0,0.5,0v-0.7c-0.1,0-0.4,0-0.8,0.1s-0.6,0.1-0.7,0.1c-0.1-0.1-0.2-0.1-0.3-0.3
		c-0.1-0.1-0.1-0.3-0.1-0.4c0-0.3,0.1-0.5,0.2-0.6c0.2-0.1,0.3-0.2,0.6-0.2c0.3,0,0.5,0.1,0.7,0.2l0.2-0.7c-0.3-0.2-0.6-0.2-1-0.2
		c-0.5,0-0.8,0.1-1.1,0.4c-0.3,0.2-0.4,0.6-0.4,1s0.2,0.7,0.5,1l-0.7,0.1v0.5H1233.2z"/>
	<path d="M1238.6,269.6h3.3c0.1,0,0.1,0,0.1-0.1v-1c0,0,0-0.1-0.1-0.1h-2v-10.2h-1.3V269.6z"/>
	<path d="M1252.4,269.6V266c0-1.3-0.3-2.3-0.9-2.9s-1.4-0.9-2.6-0.9c-0.9,0-1.7,0.3-2.4,0.8c-0.7,0.6-1.3,1.4-1.8,2.5v-2.8h-1.3v5.7
		h-1.8c0,0-0.1,0-0.1,0.1v1c0,0,0,0.1,0.1,0.1L1252.4,269.6L1252.4,269.6z M1244.8,268.4v-1.2c1-2.6,2.3-3.8,3.9-3.8
		c0.8,0,1.4,0.2,1.8,0.7s0.6,1.1,0.6,2v2.4h-6.3V268.4z M1249.2,260.6c0.1-0.2,0.2-0.4,0.2-0.7c0-0.3-0.1-0.5-0.2-0.7
		s-0.4-0.2-0.6-0.2c-0.3,0-0.5,0.1-0.6,0.2c-0.1,0.2-0.2,0.4-0.2,0.7c0,0.3,0.1,0.5,0.2,0.7c0.2,0.2,0.4,0.2,0.6,0.2
		C1248.8,260.9,1249.1,260.8,1249.2,260.6z"/>
	<path d="M1256.5,272.3c0.5-0.6,0.7-1.4,0.7-2.4v-7.6h-1.3v7.7c0,0.6-0.1,1.1-0.4,1.5s-0.6,0.5-1.1,0.5c-0.2,0-0.4,0-0.5,0
		c-0.2,0-0.4-0.1-0.6-0.2l-0.4,1c0.5,0.3,1.1,0.4,1.5,0.4C1255.4,273.2,1256,272.9,1256.5,272.3z"/>
	<path d="M1006,295.2c1.2,0,2.2-0.2,2.8-0.7c0.7-0.5,1-1.1,1-2c0-0.4-0.1-0.7-0.3-1s-0.4-0.7-0.7-0.9c-0.3-0.3-0.8-0.7-1.6-1.1
		c-0.7-0.5-1.1-0.8-1.1-1.2c0-0.4,0.2-0.7,0.5-1.1s0.7-0.7,1.1-1c0.4-0.3,0.8-0.4,1.2-0.4c0.2,0,0.5,0,0.7,0.1
		c0.3,0,0.5,0.1,0.6,0.2l0.5-1c-0.2-0.1-0.5-0.3-0.9-0.4s-0.8-0.2-1-0.2c-0.6,0-1.3,0.2-1.9,0.6c-0.7,0.4-1.2,1-1.6,1.6
		c-0.4,0.7-0.7,1.3-0.7,1.9c0,0.3,0.1,0.5,0.2,0.7c0.1,0.2,0.3,0.4,0.5,0.6s0.7,0.5,1.3,0.8c0.5,0.3,0.9,0.6,1.1,0.7
		c0.2,0.2,0.4,0.3,0.5,0.5s0.2,0.4,0.2,0.5c0,0.5-0.2,0.8-0.7,1.1c-0.4,0.3-1.1,0.4-1.8,0.4h-2.9c-0.6,0-1.1-0.2-1.5-0.7
		c-0.3-0.4-0.5-1.1-0.5-1.9c0-0.5,0-0.8,0-1.1c0-0.2,0.1-0.5,0.1-0.7c0.1-0.3,0.1-0.5,0.3-0.8h-1.2c-0.2,0.4-0.3,0.9-0.4,1.3
		c-0.1,0.4-0.1,0.9-0.1,1.4c0,1.1,0.3,2,0.8,2.6s1.3,1,2.2,1h3.3V295.2z M1003.8,297.9c0.1-0.2,0.2-0.4,0.2-0.7
		c0-0.3-0.1-0.5-0.2-0.7c-0.2-0.2-0.4-0.2-0.6-0.2c-0.2,0-0.4,0.1-0.6,0.2c-0.2,0.1-0.2,0.4-0.2,0.7c0,0.3,0.1,0.5,0.2,0.7
		c0.2,0.1,0.4,0.2,0.6,0.2C1003.5,298.2,1003.7,298.1,1003.8,297.9z M1006.4,297.9c0.1-0.2,0.2-0.4,0.2-0.7c0-0.3-0.1-0.5-0.2-0.7
		c-0.1-0.2-0.4-0.2-0.6-0.2c-0.3,0-0.5,0.1-0.6,0.2c-0.1,0.2-0.2,0.4-0.2,0.7c0,0.3,0.1,0.5,0.2,0.7c0.2,0.2,0.4,0.2,0.6,0.2
		C1006.1,298.2,1006.3,298.1,1006.4,297.9z"/>
	<path d="M1015.8,290.4c-0.7,0-1.2-0.2-1.5-0.5c-0.3-0.4-0.5-0.9-0.5-1.7c0-0.8,0.2-1.5,0.7-2s1.2-0.7,2.1-0.7h0.6v4.9L1015.8,290.4
		L1015.8,290.4z M1018.5,291.6h1.2c0,0,0.1,0,0.1-0.1v-1c0,0,0-0.1-0.1-0.1h-1.2v-6.1h-2c-1.3,0-2.2,0.3-3,1
		c-0.7,0.7-1.1,1.6-1.1,2.8c0,1.1,0.3,2,0.9,2.5c0.6,0.6,1.4,0.9,2.5,0.9h1.5v0.4c0,0.6-0.2,1.1-0.6,1.5c-0.4,0.4-0.9,0.5-1.6,0.5
		c-0.4,0-0.8-0.1-1.1-0.2s-0.7-0.3-1-0.4l-0.6,1c0.8,0.5,1.7,0.8,2.7,0.8c1.1,0,2-0.3,2.6-0.9s0.9-1.4,0.9-2.4v-0.2H1018.5z"/>
	<path d="M1025.6,291.6L1025.6,291.6l0.1-1.1c0,0,0-0.1-0.1-0.1h-2.2v-6.1h-1.3v6.1h-2.4c0,0-0.1,0-0.1,0.1v1c0,0,0,0.1,0.1,0.1
		H1025.6z M1021.9,282.6c0.1-0.2,0.2-0.4,0.2-0.7c0-0.3-0.1-0.5-0.2-0.7c-0.2-0.2-0.4-0.2-0.6-0.2c-0.2,0-0.4,0.1-0.6,0.2
		c-0.2,0.1-0.2,0.4-0.2,0.7c0,0.3,0.1,0.5,0.2,0.7c0.2,0.1,0.4,0.2,0.6,0.2C1021.6,282.9,1021.8,282.8,1021.9,282.6z M1024.6,282.6
		c0.1-0.2,0.2-0.4,0.2-0.7c0-0.3-0.1-0.5-0.2-0.7s-0.4-0.2-0.6-0.2c-0.3,0-0.5,0.1-0.6,0.2c-0.1,0.2-0.2,0.4-0.2,0.7
		c0,0.3,0.1,0.5,0.2,0.7c0.2,0.2,0.4,0.2,0.6,0.2C1024.2,282.9,1024.4,282.8,1024.6,282.6z"/>
	<path d="M1039.4,291.6C1039.4,291.6,1039.5,291.6,1039.4,291.6l0.1-1.1c0,0,0-0.1-0.1-0.1h-2v-6.1h-1.3v6.1h-0.9
		c-0.5,0-0.8-0.1-1.1-0.3c-0.3-0.2-0.6-0.5-0.8-0.9V289v-3.6h-1.3v3.2c0,0.5-0.1,0.9-0.4,1.3c-0.3,0.3-0.6,0.5-1.1,0.5h-1.6v-4.9
		h-1.3v4.9h-2.1c0,0-0.1,0-0.1,0.1v1c0,0,0,0.1,0.1,0.1h5.2c0.5,0,0.9-0.1,1.3-0.3c0.4-0.2,0.7-0.4,0.9-0.8c0.4,0.4,0.8,0.7,1.2,0.8
		c0.4,0.1,0.8,0.2,1.2,0.2L1039.4,291.6L1039.4,291.6z"/>
	<path d="M1043.5,291.6c0.7,0,1.3-0.2,1.8-0.5s0.9-0.7,1.2-1.3c0.3-0.6,0.4-1.2,0.4-2c0-0.6-0.1-1.2-0.4-1.7s-0.6-0.9-1.1-1.2
		c-0.5-0.3-1-0.4-1.6-0.4c-0.5,0-1,0.1-1.5,0.3c-0.5,0.2-0.9,0.4-1.3,0.7c-0.4,0.7-0.5,1.5-0.5,2.4c0,0.7,0.2,1.6,0.6,2.6h-1.9
		c0,0-0.1,0-0.1,0.1v1c0,0,0,0.1,0.1,0.1h4.3V291.6z M1041.9,286.9c0-0.2,0.1-0.4,0.2-0.6c0.2-0.2,0.5-0.3,0.8-0.4s0.6-0.2,0.9-0.2
		c0.5,0,0.9,0.2,1.3,0.6c0.3,0.4,0.5,0.9,0.5,1.5c0,0.9-0.2,1.5-0.5,2s-0.9,0.7-1.5,0.7h-1.1c-0.2-0.5-0.4-1-0.4-1.5
		c-0.1-0.4-0.1-0.9-0.1-1.4C1041.9,287.3,1041.9,287.1,1041.9,286.9z"/>
	<path d="M1060.1,295.2c2.6,0,3.9-1,3.9-3c0-0.3-0.1-0.5-0.2-0.7s-0.4-0.4-0.7-0.6c-0.3-0.2-0.8-0.3-1.5-0.5
		c-0.4-0.1-0.7-0.2-0.9-0.4c-0.2-0.1-0.3-0.3-0.3-0.4c0-0.3,0.1-0.5,0.3-0.9c0.2-0.3,0.5-0.6,0.8-0.8c0.3-0.2,0.6-0.3,0.9-0.3
		c0.2,0,0.5,0.1,0.8,0.4c0.3,0.2,0.7,0.7,1.1,1.4c0.4,0.6,0.7,0.9,0.8,1c0.4,0.4,0.8,0.7,1.2,0.9c0.4,0.2,0.8,0.3,1.2,0.3h0.1
		c0,0,0.1,0,0.1-0.1v-1c0,0,0-0.1-0.1-0.1h-0.1c-0.2,0-0.4,0-0.5-0.1c-0.2-0.1-0.3-0.1-0.5-0.3c-0.1-0.1-0.3-0.3-0.5-0.5
		s-0.5-0.7-1-1.4c-0.3-0.5-0.6-0.9-0.9-1.2c-0.2-0.2-0.5-0.4-0.7-0.5c-0.3-0.1-0.6-0.2-0.9-0.2c-0.5,0-1.1,0.2-1.6,0.5
		s-1,0.8-1.3,1.3s-0.5,1.1-0.5,1.7c0,0.3,0.1,0.6,0.2,0.8c0.1,0.2,0.4,0.4,0.6,0.6c0.3,0.2,0.8,0.3,1.6,0.6c0.4,0.1,0.7,0.2,0.8,0.4
		c0.2,0.1,0.3,0.3,0.3,0.5c0,0.4-0.2,0.7-0.7,1s-1.1,0.4-1.8,0.4h-2.8c-0.6,0-1.1-0.2-1.5-0.7c-0.3-0.4-0.5-1.1-0.5-1.9
		c0-0.5,0-0.8,0-1.1c0-0.2,0.1-0.5,0.1-0.7c0.1-0.3,0.1-0.5,0.3-0.8h-1.2c-0.2,0.4-0.3,0.9-0.4,1.3s-0.1,0.9-0.1,1.4
		c0,1.1,0.3,2,0.8,2.6s1.3,1,2.2,1h3.1V295.2z"/>
	<path d="M1072.7,291.6C1072.7,291.6,1072.8,291.6,1072.7,291.6l0.1-1.1c0,0,0-0.1-0.1-0.1h-2v-10.2h-1.3v10.2h-2c0,0-0.1,0-0.1,0.1
		v1c0,0,0,0.1,0.1,0.1H1072.7z"/>
	<path d="M1079.7,291.6v-1.2h-2.7c-0.6,0-1-0.2-1.3-0.7s-0.5-1.1-0.5-1.9c0-1.7,0.7-2.5,2.1-2.5c0.6,0,1.1,0.1,1.8,0.4l0.4-1.1
		c-0.2-0.1-0.5-0.2-0.9-0.3c-0.4-0.1-0.8-0.1-1.2-0.1c-1.1,0-1.9,0.3-2.6,0.9c-0.6,0.6-1,1.5-1,2.6c0,0.6,0.1,1.1,0.3,1.6
		c0.2,0.5,0.5,0.8,0.8,1.1h-2.3c0,0-0.1,0-0.1,0.1v1c0,0,0,0.1,0.1,0.1H1079.7z"/>
	<path d="M1090.8,291.6c0.5,0,0.9-0.1,1.3-0.2c0.4-0.2,0.8-0.4,1.1-0.7c0.3,0.4,0.7,0.6,1.1,0.8c0.4,0.1,0.8,0.2,1.4,0.2h0.1
		c0,0,0.1,0,0.1-0.1v-1c0,0,0-0.1-0.1-0.1h-0.1c-0.4,0-0.8-0.1-1-0.2c-0.3-0.1-0.5-0.4-0.7-0.7c0.2-0.5,0.3-1.1,0.3-1.8
		c0-0.6-0.1-1.2-0.4-1.7s-0.6-0.9-1.1-1.2c-0.5-0.3-1-0.4-1.6-0.4c-0.5,0-1,0.1-1.5,0.3c-0.5,0.2-0.9,0.4-1.3,0.7
		c-0.4,0.7-0.5,1.5-0.5,2.4c0,0.8,0.2,1.6,0.5,2.6h-0.1c-0.3,0-0.7,0.1-0.9,0.2s-0.5,0.4-0.7,0.7s-0.2,0.7-0.2,1.1v3.9h1.3v-3.7
		c0-0.7,0.4-1.1,1.1-1.1L1090.8,291.6L1090.8,291.6z M1089.2,286.9c0-0.2,0.1-0.4,0.2-0.6c0.5-0.4,1.1-0.6,1.8-0.6
		c0.5,0,0.9,0.2,1.3,0.6c0.3,0.4,0.5,0.9,0.5,1.5c0,0.9-0.2,1.5-0.5,2s-0.9,0.7-1.5,0.7h-1.1c-0.2-0.5-0.4-1-0.5-1.5
		s-0.1-0.9-0.1-1.4C1089.1,287.3,1089.1,287.1,1089.2,286.9z"/>
	<path d="M1105.1,291.6C1105.2,291.6,1105.2,291.6,1105.1,291.6l0.1-1.1c0,0,0-0.1-0.1-0.1h-1.9v-3c0-1-0.3-1.8-1-2.3
		s-1.7-0.8-3-0.8h-1.3c0.3-0.7,0.9-1.4,1.8-2.1s1.8-1.3,2.7-1.6l-0.5-1.1c-0.7,0.3-1.3,0.6-2,1.1s-1.3,1.1-1.9,1.7
		c-0.6,0.7-1,1.3-1.3,2v1.2h2.5c0.9,0,1.6,0.2,2.1,0.5c0.4,0.4,0.7,0.9,0.7,1.6v2.8h-6.3c0,0-0.1,0-0.1,0.1v1c0,0,0,0.1,0.1,0.1
		L1105.1,291.6L1105.1,291.6z"/>
	<path d="M1109.2,291.6v-7.3h-1.3v6.1h-2.9c0,0-0.1,0-0.1,0.1v1c0,0,0,0.1,0.1,0.1L1109.2,291.6L1109.2,291.6z M1107.7,282.6
		c0.1-0.2,0.2-0.4,0.2-0.7c0-0.3-0.1-0.5-0.2-0.7c-0.2-0.2-0.4-0.2-0.6-0.2s-0.4,0.1-0.6,0.2s-0.2,0.4-0.2,0.7
		c0,0.3,0.1,0.5,0.2,0.7c0.2,0.1,0.4,0.2,0.6,0.2C1107.4,282.9,1107.6,282.8,1107.7,282.6z M1110.3,282.6c0.1-0.2,0.2-0.4,0.2-0.7
		c0-0.3-0.1-0.5-0.2-0.7s-0.4-0.2-0.6-0.2c-0.3,0-0.5,0.1-0.6,0.2c-0.1,0.2-0.2,0.4-0.2,0.7c0,0.3,0.1,0.5,0.2,0.7
		c0.2,0.2,0.4,0.2,0.6,0.2C1110,282.9,1110.2,282.8,1110.3,282.6z"/>
	<path d="M1112.1,291.6h3.3c0.1,0,0.1,0,0.1-0.1v-1c0,0,0-0.1-0.1-0.1h-2v-10.2h-1.3V291.6z"/>
	<path d="M1120.2,290.4c-1.4,0-2.1-0.8-2.1-2.3c0-0.8,0.2-1.5,0.7-2s1.2-0.7,2.1-0.7h0.6v4.9h-1.3V290.4z M1124.5,291.6
		L1124.5,291.6l0.1-1.1l0,0c0,0,0,0-0.1,0h-1.6v-6.1h-2c-1.3,0-2.3,0.3-3,1s-1.1,1.6-1.1,2.8c0,0.4,0.1,0.8,0.2,1.2
		c0.1,0.4,0.3,0.8,0.6,1h-2.3c0,0-0.1,0-0.1,0.1v1c0,0,0,0.1,0.1,0.1H1124.5z M1119.7,282.6c0.1-0.2,0.2-0.4,0.2-0.7
		c0-0.3-0.1-0.5-0.2-0.7c-0.2-0.2-0.4-0.2-0.6-0.2s-0.4,0.1-0.6,0.2s-0.2,0.4-0.2,0.7c0,0.3,0.1,0.5,0.2,0.7
		c0.2,0.1,0.4,0.2,0.6,0.2C1119.4,282.9,1119.6,282.8,1119.7,282.6z M1122.3,282.6c0.1-0.2,0.2-0.4,0.2-0.7c0-0.3-0.1-0.5-0.2-0.7
		s-0.4-0.2-0.6-0.2c-0.3,0-0.5,0.1-0.6,0.2c-0.1,0.2-0.2,0.4-0.2,0.7c0,0.3,0.1,0.5,0.2,0.7c0.2,0.2,0.4,0.2,0.6,0.2
		C1122,282.9,1122.2,282.8,1122.3,282.6z"/>
	<path d="M1130.3,291.6C1130.4,291.6,1130.4,291.6,1130.3,291.6l0.1-1.1c0,0,0-0.1-0.1-0.1h-2.2v-6.1h-1.3v6.1h-2.4
		c0,0-0.1,0-0.1,0.1v1c0,0,0,0.1,0.1,0.1H1130.3z M1126.8,294.3c0.1-0.2,0.2-0.4,0.2-0.7c0-0.3-0.1-0.5-0.2-0.7
		c-0.2-0.2-0.4-0.2-0.6-0.2s-0.4,0.1-0.6,0.2s-0.2,0.4-0.2,0.7c0,0.3,0.1,0.5,0.2,0.7c0.2,0.1,0.4,0.2,0.6,0.2
		C1126.4,294.6,1126.6,294.5,1126.8,294.3z M1129.4,294.3c0.1-0.2,0.2-0.4,0.2-0.7c0-0.3-0.1-0.5-0.2-0.7s-0.4-0.2-0.6-0.2
		c-0.3,0-0.5,0.1-0.6,0.2c-0.1,0.2-0.2,0.4-0.2,0.7c0,0.3,0.1,0.5,0.2,0.7c0.2,0.2,0.4,0.2,0.6,0.2
		C1129,294.6,1129.2,294.5,1129.4,294.3z"/>
	<path d="M1135.5,291.6L1135.5,291.6l0.1-1.1c0,0,0-0.1-0.1-0.1h-2v-10.2h-1.3v10.2h-2c0,0-0.1,0-0.1,0.1v1c0,0,0,0.1,0.1,0.1
		H1135.5z"/>
	<path d="M1144.4,291.6L1144.4,291.6l0.1-1.1c0,0,0-0.1-0.1-0.1h-1.8c-0.6,0-1.1-0.1-1.7-0.3c0.8-0.6,1.5-1.3,2-2.2
		c0.5-0.9,0.7-1.9,0.7-2.9c-0.5-0.3-1-0.6-1.7-0.8c-0.6-0.2-1.3-0.3-1.9-0.3c-0.7,0-1.4,0.1-2.1,0.4s-1.3,0.7-1.8,1.2
		c0.1,0.5,0.3,1.1,0.6,1.7c0.3,0.6,0.6,1.2,1,1.7s0.8,0.9,1.2,1.2c-0.5,0.2-1.1,0.3-1.8,0.3h-1.7c0,0-0.1,0-0.1,0.1v1
		c0,0,0,0.1,0.1,0.1h1.7c1,0,1.9-0.2,2.8-0.7c0.5,0.2,0.9,0.4,1.4,0.6s0.9,0.2,1.4,0.2h1.7V291.6z M1138.3,287.8
		c-0.4-0.6-0.7-1.3-0.8-2c0.8-0.6,1.7-0.9,2.5-0.9c0.7,0,1.5,0.2,2.2,0.6c0,0.8-0.3,1.5-0.6,2.2c-0.4,0.6-0.9,1.2-1.7,1.7
		C1139.3,289,1138.8,288.5,1138.3,287.8z"/>
	<path d="M1148.4,291.6v-7.3h-1.3v6.1h-2.9c0,0-0.1,0-0.1,0.1v1c0,0,0,0.1,0.1,0.1L1148.4,291.6L1148.4,291.6z M1147,282.6
		c0.1-0.2,0.2-0.4,0.2-0.7c0-0.3-0.1-0.5-0.2-0.7c-0.2-0.2-0.4-0.2-0.6-0.2s-0.4,0.1-0.6,0.2s-0.2,0.4-0.2,0.7
		c0,0.3,0.1,0.5,0.2,0.7c0.2,0.1,0.4,0.2,0.6,0.2C1146.6,282.9,1146.8,282.8,1147,282.6z M1149.6,282.6c0.1-0.2,0.2-0.4,0.2-0.7
		c0-0.3-0.1-0.5-0.2-0.7s-0.4-0.2-0.6-0.2c-0.3,0-0.5,0.1-0.6,0.2c-0.1,0.2-0.2,0.4-0.2,0.7c0,0.3,0.1,0.5,0.2,0.7
		c0.2,0.2,0.4,0.2,0.6,0.2C1149.2,282.9,1149.4,282.8,1149.6,282.6z"/>
	<path d="M1156.1,294.3c0.6-0.6,0.9-1.4,0.9-2.4v-7.6h-2c-1.3,0-2.2,0.3-3,1s-1.1,1.6-1.1,2.8c0,1.1,0.3,2,0.9,2.5
		c0.6,0.6,1.4,0.9,2.5,0.9h1.5v0.4c0,0.6-0.2,1.1-0.6,1.5s-0.9,0.5-1.6,0.5c-0.4,0-0.8-0.1-1.1-0.2c-0.3-0.1-0.7-0.3-1-0.4l-0.6,1
		c0.8,0.5,1.7,0.8,2.7,0.8C1154.7,295.2,1155.5,294.9,1156.1,294.3z M1154.4,290.4c-0.7,0-1.2-0.2-1.5-0.5c-0.3-0.4-0.5-0.9-0.5-1.7
		c0-0.8,0.2-1.5,0.7-2s1.2-0.7,2.1-0.7h0.6v4.9L1154.4,290.4L1154.4,290.4z"/>
	<path d="M1168.8,291.6c0.5,0,0.9-0.1,1.3-0.2c0.4-0.2,0.8-0.4,1.1-0.7c0.3,0.4,0.7,0.6,1.1,0.8c0.4,0.1,0.8,0.2,1.4,0.2h0.1
		c0,0,0.1,0,0.1-0.1v-1c0,0,0-0.1-0.1-0.1h-0.1c-0.4,0-0.8-0.1-1-0.2c-0.3-0.1-0.5-0.4-0.7-0.7c0.2-0.5,0.3-1.1,0.3-1.8
		c0-0.6-0.1-1.2-0.4-1.7s-0.6-0.9-1.1-1.2c-0.5-0.3-1-0.4-1.6-0.4c-0.5,0-1,0.1-1.5,0.3c-0.5,0.2-0.9,0.4-1.3,0.7
		c-0.4,0.7-0.5,1.5-0.5,2.4c0,0.8,0.2,1.6,0.5,2.6h-0.1c-0.3,0-0.7,0.1-0.9,0.2s-0.5,0.4-0.7,0.7s-0.2,0.7-0.2,1.1v3.9h1.3v-3.7
		c0-0.7,0.4-1.1,1.1-1.1L1168.8,291.6L1168.8,291.6z M1167.1,286.9c0-0.2,0.1-0.4,0.2-0.6c0.5-0.4,1.1-0.6,1.8-0.6
		c0.5,0,0.9,0.2,1.3,0.6c0.3,0.4,0.5,0.9,0.5,1.5c0,0.9-0.2,1.5-0.5,2c-0.4,0.5-0.9,0.7-1.5,0.7h-1.1c-0.2-0.5-0.4-1-0.5-1.5
		s-0.1-0.9-0.1-1.4C1167.1,287.3,1167.1,287.1,1167.1,286.9z"/>
	<path d="M1183.1,291.6C1183.1,291.6,1183.2,291.6,1183.1,291.6l0.1-1.1c0,0,0-0.1-0.1-0.1h-1.9v-3c0-1-0.3-1.8-1-2.3
		s-1.7-0.8-3-0.8h-1.3c0.3-0.7,0.9-1.4,1.8-2.1s1.8-1.3,2.7-1.6l-0.5-1.1c-0.7,0.3-1.3,0.6-2,1.1s-1.3,1.1-1.9,1.7
		c-0.6,0.7-1,1.3-1.3,2v1.2h2.5c0.9,0,1.6,0.2,2.1,0.5c0.4,0.4,0.7,0.9,0.7,1.6v2.8h-6.3c0,0-0.1,0-0.1,0.1v1c0,0,0,0.1,0.1,0.1
		L1183.1,291.6L1183.1,291.6z"/>
	<path d="M1187.2,291.6v-7.3h-1.3v6.1h-2.9c0,0-0.1,0-0.1,0.1v1c0,0,0,0.1,0.1,0.1L1187.2,291.6L1187.2,291.6z M1185.7,282.6
		c0.1-0.2,0.2-0.4,0.2-0.7c0-0.3-0.1-0.5-0.2-0.7c-0.2-0.2-0.4-0.2-0.6-0.2s-0.4,0.1-0.6,0.2s-0.2,0.4-0.2,0.7
		c0,0.3,0.1,0.5,0.2,0.7c0.2,0.1,0.4,0.2,0.6,0.2C1185.4,282.9,1185.6,282.8,1185.7,282.6z M1188.3,282.6c0.1-0.2,0.2-0.4,0.2-0.7
		c0-0.3-0.1-0.5-0.2-0.7s-0.4-0.2-0.6-0.2c-0.3,0-0.5,0.1-0.6,0.2c-0.1,0.2-0.2,0.4-0.2,0.7c0,0.3,0.1,0.5,0.2,0.7
		c0.2,0.2,0.4,0.2,0.6,0.2C1188,282.9,1188.2,282.8,1188.3,282.6z"/>
	<path d="M1190.1,291.6h3.3c0.1,0,0.1,0,0.1-0.1v-1c0,0,0-0.1-0.1-0.1h-2v-10.2h-1.3V291.6z"/>
	<path d="M1197.6,291.6c0.5,0,0.9-0.1,1.3-0.2c0.4-0.2,0.8-0.4,1.1-0.7c0.3,0.4,0.7,0.6,1.1,0.8c0.4,0.1,0.8,0.2,1.4,0.2h0.1
		c0.1,0,0.1,0,0.1-0.1v-1c0,0,0-0.1-0.1-0.1h-0.1c-0.4,0-0.8-0.1-1.1-0.2c-0.3-0.1-0.5-0.4-0.7-0.7c0.2-0.5,0.3-1.1,0.3-1.8
		c0-0.6-0.1-1.2-0.4-1.7s-0.6-0.9-1.1-1.2c-0.5-0.3-1-0.4-1.6-0.4c-0.5,0-1,0.1-1.5,0.3c-0.5,0.2-0.9,0.4-1.3,0.7
		c-0.4,0.7-0.5,1.5-0.5,2.4c0,0.7,0.2,1.6,0.6,2.6h-1.9c0,0-0.1,0-0.1,0.1v1c0,0,0,0.1,0.1,0.1L1197.6,291.6L1197.6,291.6z
		 M1196,286.9c0-0.2,0.1-0.4,0.2-0.6c0.2-0.2,0.5-0.3,0.8-0.4s0.6-0.2,0.9-0.2c0.5,0,0.9,0.2,1.3,0.6c0.3,0.4,0.5,0.9,0.5,1.5
		c0,0.9-0.2,1.5-0.5,2s-0.9,0.7-1.5,0.7h-1.1c-0.2-0.5-0.4-1-0.4-1.5c-0.1-0.4-0.1-0.9-0.1-1.4C1195.9,287.3,1196,287.1,1196,286.9z
		"/>
	<path d="M1208.4,291.6C1208.4,291.6,1208.5,291.6,1208.4,291.6l0.1-1.1c0,0,0-0.1-0.1-0.1h-2.2v-6.1h-1.3v6.1h-2.4
		c0,0-0.1,0-0.1,0.1v1c0,0,0,0.1,0.1,0.1H1208.4z M1204.8,294.3c0.1-0.2,0.2-0.4,0.2-0.7c0-0.3-0.1-0.5-0.2-0.7
		c-0.2-0.2-0.4-0.2-0.6-0.2s-0.4,0.1-0.6,0.2s-0.2,0.4-0.2,0.7c0,0.3,0.1,0.5,0.2,0.7c0.2,0.1,0.4,0.2,0.6,0.2
		C1204.5,294.6,1204.7,294.5,1204.8,294.3z M1207.4,294.3c0.1-0.2,0.2-0.4,0.2-0.7c0-0.3-0.1-0.5-0.2-0.7s-0.4-0.2-0.6-0.2
		c-0.3,0-0.5,0.1-0.6,0.2c-0.1,0.2-0.2,0.4-0.2,0.7c0,0.3,0.1,0.5,0.2,0.7c0.2,0.2,0.4,0.2,0.6,0.2
		C1207.1,294.6,1207.3,294.5,1207.4,294.3z"/>
	<path d="M1213.1,290.4c-1.4,0-2.1-0.8-2.1-2.3c0-0.8,0.2-1.5,0.7-2s1.2-0.7,2.1-0.7h0.6v4.9h-1.3V290.4z M1217.4,291.6
		C1217.5,291.6,1217.5,291.6,1217.4,291.6l0.1-1.1l0,0c0,0,0,0-0.1,0h-1.6v-6.1h-2c-1.3,0-2.3,0.3-3,1s-1.1,1.6-1.1,2.8
		c0,0.4,0.1,0.8,0.2,1.2c0.1,0.4,0.3,0.8,0.6,1h-2.3c0,0-0.1,0-0.1,0.1v1c0,0,0,0.1,0.1,0.1H1217.4z M1212.7,282.6
		c0.1-0.2,0.2-0.4,0.2-0.7c0-0.3-0.1-0.5-0.2-0.7c-0.2-0.2-0.4-0.2-0.6-0.2s-0.4,0.1-0.6,0.2s-0.2,0.4-0.2,0.7
		c0,0.3,0.1,0.5,0.2,0.7c0.2,0.1,0.4,0.2,0.6,0.2C1212.3,282.9,1212.5,282.8,1212.7,282.6z M1215.3,282.6c0.1-0.2,0.2-0.4,0.2-0.7
		c0-0.3-0.1-0.5-0.2-0.7s-0.4-0.2-0.6-0.2c-0.3,0-0.5,0.1-0.6,0.2c-0.1,0.2-0.2,0.4-0.2,0.7c0,0.3,0.1,0.5,0.2,0.7
		c0.2,0.2,0.4,0.2,0.6,0.2C1214.9,282.9,1215.1,282.8,1215.3,282.6z"/>
	<path d="M1221.5,291.6v-7.3h-1.3v6.1h-2.9c0,0-0.1,0-0.1,0.1v1c0,0,0,0.1,0.1,0.1L1221.5,291.6L1221.5,291.6z M1220,282.6
		c0.1-0.2,0.2-0.4,0.2-0.7c0-0.3-0.1-0.5-0.2-0.7c-0.2-0.2-0.4-0.2-0.6-0.2s-0.4,0.1-0.6,0.2s-0.2,0.4-0.2,0.7
		c0,0.3,0.1,0.5,0.2,0.7c0.2,0.1,0.4,0.2,0.6,0.2C1219.7,282.9,1219.9,282.8,1220,282.6z M1222.6,282.6c0.1-0.2,0.2-0.4,0.2-0.7
		c0-0.3-0.1-0.5-0.2-0.7s-0.4-0.2-0.6-0.2c-0.3,0-0.5,0.1-0.6,0.2c-0.1,0.2-0.2,0.4-0.2,0.7c0,0.3,0.1,0.5,0.2,0.7
		c0.2,0.2,0.4,0.2,0.6,0.2C1222.3,282.9,1222.5,282.8,1222.6,282.6z"/>
	<path d="M1233.1,295.2c1.3,0,2.2-0.3,2.8-0.9c0.6-0.6,0.9-1.5,0.9-2.7v-11.3h-1.3v11.4c0,0.8-0.2,1.4-0.6,1.8s-1,0.6-1.9,0.6h-0.7
		c-0.6,0-1.1-0.2-1.4-0.7s-0.5-1.1-0.5-2c0-1.5,0.2-2.7,0.5-3.5h-1.2c-0.2,0.5-0.3,1-0.5,1.7c-0.1,0.6-0.2,1.3-0.2,1.9
		c0,1.2,0.3,2.1,0.8,2.8c0.5,0.7,1.3,1,2.2,1L1233.1,295.2L1233.1,295.2z"/>
	<path d="M1239.9,291.6h3.3c0.1,0,0.1,0,0.1-0.1v-1c0,0,0-0.1-0.1-0.1h-2v-10.2h-1.3V291.6z"/>
	<path d="M1248.3,291.6C1248.3,291.6,1248.4,291.6,1248.3,291.6l0.1-1.1c0,0,0-0.1-0.1-0.1h-2v-6.1h-1.3v6.1h-2c0,0-0.1,0-0.1,0.1v1
		c0,0,0,0.1,0.1,0.1H1248.3z M1246.2,294.3c0.1-0.2,0.2-0.4,0.2-0.7c0-0.3-0.1-0.5-0.2-0.7s-0.4-0.2-0.6-0.2c-0.3,0-0.5,0.1-0.6,0.2
		c-0.1,0.2-0.2,0.4-0.2,0.7c0,0.3,0.1,0.5,0.2,0.7c0.2,0.2,0.4,0.2,0.6,0.2C1245.9,294.6,1246.1,294.5,1246.2,294.3z"/>
	<path d="M1253,290.4c-1.4,0-2.1-0.8-2.1-2.3c0-0.8,0.2-1.5,0.7-2s1.2-0.7,2.1-0.7h0.6v4.9h-1.3V290.4z M1257.3,291.6
		C1257.3,291.6,1257.4,291.6,1257.3,291.6l0.1-1.1l0,0c0,0,0,0-0.1,0h-1.6v-6.1h-2c-1.3,0-2.3,0.3-3,1s-1.1,1.6-1.1,2.8
		c0,0.4,0.1,0.8,0.2,1.2c0.1,0.4,0.3,0.8,0.6,1h-2.3c0,0-0.1,0-0.1,0.1v1c0,0,0,0.1,0.1,0.1H1257.3z M1252.6,282.6
		c0.1-0.2,0.2-0.4,0.2-0.7c0-0.3-0.1-0.5-0.2-0.7c-0.2-0.2-0.4-0.2-0.6-0.2s-0.4,0.1-0.6,0.2s-0.2,0.4-0.2,0.7
		c0,0.3,0.1,0.5,0.2,0.7c0.2,0.1,0.4,0.2,0.6,0.2C1252.2,282.9,1252.4,282.8,1252.6,282.6z M1255.2,282.6c0.1-0.2,0.2-0.4,0.2-0.7
		c0-0.3-0.1-0.5-0.2-0.7s-0.4-0.2-0.6-0.2c-0.3,0-0.5,0.1-0.6,0.2c-0.1,0.2-0.2,0.4-0.2,0.7c0,0.3,0.1,0.5,0.2,0.7
		c0.2,0.2,0.4,0.2,0.6,0.2C1254.8,282.9,1255,282.8,1255.2,282.6z"/>
	<path d="M1263.2,291.6L1263.2,291.6l0.1-1.1c0,0,0-0.1-0.1-0.1h-2.2v-6.1h-1.3v6.1h-2.4c0,0-0.1,0-0.1,0.1v1c0,0,0,0.1,0.1,0.1
		H1263.2z M1259.5,282.6c0.1-0.2,0.2-0.4,0.2-0.7c0-0.3-0.1-0.5-0.2-0.7c-0.2-0.2-0.4-0.2-0.6-0.2s-0.4,0.1-0.6,0.2
		s-0.2,0.4-0.2,0.7c0,0.3,0.1,0.5,0.2,0.7c0.2,0.1,0.4,0.2,0.6,0.2C1259.2,282.9,1259.4,282.8,1259.5,282.6z M1262.1,282.6
		c0.1-0.2,0.2-0.4,0.2-0.7c0-0.3-0.1-0.5-0.2-0.7s-0.4-0.2-0.6-0.2c-0.3,0-0.5,0.1-0.6,0.2c-0.1,0.2-0.2,0.4-0.2,0.7
		c0,0.3,0.1,0.5,0.2,0.7c0.2,0.2,0.4,0.2,0.6,0.2C1261.8,282.9,1262,282.8,1262.1,282.6z"/>
	<path d="M1275,291.6v-7.3h-1.3v6.1h-0.9c-0.5,0-0.8-0.1-1.1-0.3c-0.3-0.2-0.6-0.5-0.8-0.9V289v-3.6h-1.3v3.2c0,0.5-0.1,0.9-0.4,1.3
		c-0.3,0.3-0.6,0.5-1.1,0.5h-1.6v-4.9h-1.3v4.9h-2.1c0,0-0.1,0-0.1,0.1v1c0,0,0,0.1,0.1,0.1h5.2c0.5,0,0.9-0.1,1.3-0.3
		c0.4-0.2,0.7-0.4,0.9-0.8c0.4,0.4,0.8,0.7,1.2,0.8c0.4,0.1,0.8,0.2,1.2,0.2L1275,291.6L1275,291.6z"/>
	<path d="M1277.8,291.6h1.3v-11.4h-1.3V291.6z M1277,295.5c0.3-0.1,0.8-0.1,1.5-0.2s1.2-0.1,1.4-0.1v-0.7c-0.1,0-0.4,0-0.8,0.1
		s-0.6,0.1-0.7,0.1c-0.3-0.2-0.5-0.4-0.5-0.7c0-0.3,0.1-0.5,0.2-0.6c0.2-0.1,0.3-0.2,0.6-0.2c0.3,0,0.5,0.1,0.7,0.2l0.2-0.7
		c-0.3-0.2-0.6-0.2-1-0.2c-0.5,0-0.9,0.1-1.1,0.4c-0.3,0.2-0.4,0.6-0.4,1c0,0.2,0.1,0.4,0.2,0.6s0.2,0.3,0.4,0.4l-0.7,0.1
		L1277,295.5L1277,295.5z"/>
	<path d="M1021.1,313.7c0.4,0,0.6-0.2,0.6-0.7c0-0.4-0.3-0.6-0.6-0.6c-0.4,0-0.6,0.3-0.6,0.6
		C1020.4,313.5,1020.7,313.7,1021.1,313.7L1021.1,313.7z"/>
	<path d="M1032.8,313.6C1032.8,313.6,1032.9,313.6,1032.8,313.6l0.1-1.1c0,0,0-0.1-0.1-0.1h-1.6v-10.2h-1.3v11.4
		c0,0.8-0.2,1.4-0.6,1.8s-1,0.6-1.9,0.6h-0.7c-0.6,0-1.1-0.2-1.4-0.7s-0.5-1.1-0.5-2c0-1.5,0.2-2.7,0.5-3.5h-1.2
		c-0.2,0.5-0.3,1-0.5,1.7c-0.1,0.6-0.2,1.3-0.2,1.9c0,1.2,0.3,2.1,0.8,2.8c0.5,0.7,1.3,1,2.2,1h1.1c1.3,0,2.2-0.3,2.8-0.9
		c0.6-0.6,0.9-1.5,0.9-2.7L1032.8,313.6L1032.8,313.6z"/>
	<path d="M1040.2,313.6v-4.2c0-1-0.3-1.8-1-2.3s-1.7-0.8-3-0.8h-1.3c0.3-0.7,0.9-1.4,1.8-2.1s1.8-1.3,2.7-1.6l-0.5-1.1
		c-0.7,0.3-1.3,0.6-2,1.1s-1.3,1.1-1.9,1.7c-0.6,0.7-1,1.3-1.3,2v1.2h2.5c0.9,0,1.6,0.2,2.1,0.5c0.4,0.4,0.7,0.9,0.7,1.6v2.8h-6.3
		c0,0-0.1,0-0.1,0.1v1c0,0,0,0.1,0.1,0.1L1040.2,313.6L1040.2,313.6z"/>
	<path d="M1042.9,313.6h3.3c0.1,0,0.1,0,0.1-0.1v-1c0,0,0-0.1-0.1-0.1h-2v-10.2h-1.3V313.6z"/>
	<path d="M1060,313.6C1060.1,313.6,1060.1,313.6,1060,313.6l0.1-1.1c0,0,0-0.1-0.1-0.1h-2v-6.1h-1.3v6.1h-0.9
		c-0.5,0-0.8-0.1-1.1-0.3c-0.3-0.2-0.6-0.5-0.8-0.9V311v-3.6h-1.3v3.2c0,0.5-0.1,0.9-0.4,1.3c-0.3,0.3-0.6,0.5-1.1,0.5h-1.6v-4.9
		h-1.3v4.9h-2.1c0,0-0.1,0-0.1,0.1v1c0,0,0,0.1,0.1,0.1h5.2c0.5,0,0.9-0.1,1.3-0.3c0.4-0.2,0.7-0.4,0.9-0.8c0.4,0.4,0.8,0.7,1.2,0.8
		c0.4,0.1,0.8,0.2,1.2,0.2L1060,313.6L1060,313.6z M1053.8,302.7c0.2-0.1,0.2-0.3,0.2-0.6c0-0.3-0.1-0.5-0.2-0.6
		c-0.2-0.1-0.3-0.2-0.5-0.2s-0.4,0.1-0.6,0.2c-0.1,0.1-0.2,0.3-0.2,0.6c0,0.3,0.1,0.5,0.2,0.6s0.3,0.2,0.6,0.2
		C1053.4,302.9,1053.6,302.8,1053.8,302.7z M1052.6,304.6c0.1-0.2,0.2-0.4,0.2-0.7c0-0.3-0.1-0.5-0.2-0.7s-0.4-0.2-0.6-0.2
		s-0.4,0.1-0.6,0.2s-0.2,0.4-0.2,0.7c0,0.3,0.1,0.5,0.2,0.7c0.2,0.1,0.4,0.2,0.6,0.2C1052.2,304.9,1052.4,304.8,1052.6,304.6z
		 M1055.2,304.6c0.1-0.2,0.2-0.4,0.2-0.7c0-0.3-0.1-0.5-0.2-0.7s-0.4-0.2-0.6-0.2c-0.3,0-0.5,0.1-0.6,0.2c-0.1,0.2-0.2,0.4-0.2,0.7
		c0,0.3,0.1,0.5,0.2,0.7c0.2,0.2,0.4,0.2,0.6,0.2C1054.8,304.9,1055,304.8,1055.2,304.6z"/>
	<path d="M1064.1,313.6c0.7,0,1.3-0.2,1.8-0.5s0.9-0.7,1.2-1.3c0.3-0.6,0.4-1.2,0.4-2c0-0.6-0.1-1.2-0.4-1.7s-0.6-0.9-1.1-1.2
		c-0.5-0.3-1-0.4-1.6-0.4c-0.5,0-1,0.1-1.5,0.3c-0.5,0.2-0.9,0.4-1.3,0.7c-0.4,0.7-0.5,1.5-0.5,2.4c0,0.7,0.2,1.6,0.6,2.6h-1.9
		c0,0-0.1,0-0.1,0.1v1c0,0,0,0.1,0.1,0.1h4.3V313.6z M1062.5,308.9c0-0.2,0.1-0.4,0.2-0.6c0.2-0.2,0.5-0.3,0.8-0.4s0.6-0.2,0.9-0.2
		c0.5,0,0.9,0.2,1.3,0.6c0.3,0.4,0.5,0.9,0.5,1.5c0,0.9-0.2,1.5-0.5,2c-0.4,0.5-0.9,0.7-1.5,0.7h-1.1c-0.2-0.5-0.4-1-0.4-1.5
		c-0.1-0.4-0.1-0.9-0.1-1.4C1062.5,309.3,1062.5,309.1,1062.5,308.9z"/>
	<path d="M1080.9,317.2c1.2,0,2.2-0.2,2.8-0.7c0.7-0.5,1-1.1,1-2c0-0.4-0.1-0.7-0.3-1c-0.2-0.3-0.4-0.7-0.7-0.9
		c-0.3-0.3-0.8-0.7-1.6-1.1c-0.7-0.5-1.1-0.8-1.1-1.2c0-0.4,0.2-0.7,0.5-1.1s0.7-0.7,1.1-1s0.8-0.4,1.2-0.4c0.2,0,0.5,0,0.7,0.1
		c0.3,0,0.5,0.1,0.6,0.2l0.5-1c-0.2-0.1-0.5-0.3-0.9-0.4s-0.8-0.2-1-0.2c-0.6,0-1.3,0.2-1.9,0.6c-0.7,0.4-1.2,1-1.6,1.6
		c-0.4,0.7-0.7,1.3-0.7,1.9c0,0.3,0.1,0.5,0.2,0.7s0.3,0.4,0.5,0.6s0.7,0.5,1.3,0.8c0.5,0.3,0.9,0.6,1.1,0.7
		c0.2,0.2,0.4,0.3,0.5,0.5s0.2,0.4,0.2,0.5c0,0.5-0.2,0.8-0.7,1.1s-1.1,0.4-1.8,0.4h-2.9c-0.6,0-1.1-0.2-1.5-0.7
		c-0.3-0.4-0.5-1.1-0.5-1.9c0-0.5,0-0.8,0-1.1c0-0.2,0.1-0.5,0.1-0.7c0.1-0.3,0.1-0.5,0.3-0.8h-1.2c-0.2,0.4-0.3,0.9-0.4,1.3
		s-0.1,0.9-0.1,1.4c0,1.1,0.3,2,0.8,2.6s1.3,1,2.2,1h3.3V317.2z"/>
	<path d="M1087.7,313.6h1.3v-10.5h-1.3V313.6z M1086.9,302.3l0.8-0.1c0.7-0.1,1.3-0.2,1.5-0.2c0.3,0,0.5,0,0.5,0v-0.7
		c-0.1,0-0.4,0-0.8,0.1s-0.6,0.1-0.7,0.1c-0.1-0.1-0.2-0.1-0.3-0.3c-0.1-0.1-0.1-0.3-0.1-0.4c0-0.3,0.1-0.5,0.2-0.6
		c0.2-0.1,0.3-0.2,0.6-0.2c0.3,0,0.5,0.1,0.7,0.2l0.2-0.7c-0.3-0.2-0.6-0.2-1-0.2c-0.5,0-0.8,0.1-1.1,0.4c-0.3,0.2-0.4,0.6-0.4,1
		s0.2,0.7,0.5,1l-0.7,0.1v0.5H1086.9z"/>
	<path d="M1106,313.6v-7.3h-1.3v6.1h-5.4c-0.4,0-0.8-0.2-1-0.5c-0.3-0.3-0.4-0.8-0.4-1.3c0-0.7,0.1-1.4,0.2-2.1h-1.2
		c-0.1,0.3-0.2,0.7-0.3,1.1c-0.1,0.4-0.1,0.8-0.1,1.1c0,0.9,0.3,1.6,0.8,2.1s1.2,0.8,2.1,0.8L1106,313.6L1106,313.6z M1102,304.1
		c0.2-0.1,0.2-0.3,0.2-0.6c0-0.3-0.1-0.5-0.2-0.6c-0.2-0.1-0.3-0.2-0.5-0.2s-0.4,0.1-0.6,0.2c-0.1,0.1-0.2,0.3-0.2,0.6
		c0,0.3,0.1,0.5,0.2,0.6s0.3,0.2,0.6,0.2C1101.7,304.3,1101.8,304.2,1102,304.1z M1100.8,306c0.1-0.2,0.2-0.4,0.2-0.7
		c0-0.3-0.1-0.5-0.2-0.7s-0.4-0.2-0.6-0.2s-0.4,0.1-0.6,0.2s-0.2,0.4-0.2,0.7c0,0.3,0.1,0.5,0.2,0.7c0.2,0.1,0.4,0.2,0.6,0.2
		C1100.4,306.3,1100.6,306.2,1100.8,306z M1103.4,306c0.1-0.2,0.2-0.4,0.2-0.7c0-0.3-0.1-0.5-0.2-0.7s-0.4-0.2-0.6-0.2
		c-0.3,0-0.5,0.1-0.6,0.2c-0.1,0.2-0.2,0.4-0.2,0.7c0,0.3,0.1,0.5,0.2,0.7c0.2,0.2,0.4,0.2,0.6,0.2
		C1103,306.3,1103.2,306.2,1103.4,306z"/>
	<path d="M1113.6,316.3c0.6-0.6,0.9-1.4,0.9-2.4v-7.6h-2c-1.3,0-2.2,0.3-3,1s-1.1,1.6-1.1,2.8c0,1.1,0.3,2,0.9,2.5
		c0.6,0.6,1.4,0.9,2.5,0.9h1.5v0.4c0,0.6-0.2,1.1-0.6,1.5s-0.9,0.5-1.6,0.5c-0.4,0-0.8-0.1-1.1-0.2c-0.3-0.1-0.7-0.3-1-0.4l-0.6,1
		c0.8,0.5,1.7,0.8,2.7,0.8C1112.1,317.2,1113,316.9,1113.6,316.3z M1111.8,312.4c-0.7,0-1.2-0.2-1.5-0.5c-0.3-0.4-0.5-0.9-0.5-1.7
		c0-0.8,0.2-1.5,0.7-2s1.2-0.7,2.1-0.7h0.6v4.9L1111.8,312.4L1111.8,312.4z"/>
	<path d="M1116.4,313.6h7.9c0,0,0.1,0,0.1-0.1v-1c0,0,0-0.1-0.1-0.1h-1.7c-0.2-1.7-0.7-3.1-1.5-4.3c-0.7-1.2-1.7-2.1-2.8-2.7
		l-0.5,1.1c1,0.7,1.8,1.5,2.4,2.4s0.9,2.1,1.1,3.4h-5L1116.4,313.6L1116.4,313.6z"/>
	<path d="M1132,313.6v-1.1c-0.2-0.2-0.5-0.6-0.6-1.1c-0.2-0.5-0.3-1.2-0.5-2.1c-0.1-0.8-0.3-1.4-0.6-1.9c-0.2-0.4-0.6-0.8-1-1
		s-0.9-0.3-1.5-0.3c-0.5,0-1,0.1-1.4,0.2s-0.9,0.3-1.3,0.6l0.5,1c0.8-0.4,1.5-0.6,2.2-0.6c0.6,0,1,0.2,1.3,0.5s0.5,1,0.6,1.8
		c0.3,1.5,0.6,2.4,0.9,2.7h-6.4c0,0-0.1,0-0.1,0.1v1c0,0,0,0.1,0.1,0.1L1132,313.6L1132,313.6z"/>
	<path d="M1141,316.3c0.5-0.6,0.7-1.4,0.7-2.4v-7.6h-1.3v7.7c0,0.6-0.1,1.1-0.4,1.5s-0.6,0.5-1.1,0.5c-0.2,0-0.4,0-0.5,0
		c-0.2,0-0.4-0.1-0.6-0.2l-0.4,1c0.5,0.3,1.1,0.4,1.5,0.4C1139.9,317.2,1140.5,316.9,1141,316.3z"/>
	<path d="M1147.4,312.4c-0.7,0-1.2-0.2-1.5-0.5c-0.3-0.4-0.5-0.9-0.5-1.7c0-0.8,0.2-1.5,0.7-2s1.2-0.7,2.1-0.7h0.6v4.9L1147.4,312.4
		L1147.4,312.4z M1150.1,313.6h1.2c0,0,0.1,0,0.1-0.1v-1c0,0,0-0.1-0.1-0.1h-1.2v-6.1h-2c-1.3,0-2.2,0.3-3,1s-1.1,1.6-1.1,2.8
		c0,1.1,0.3,2,0.9,2.5c0.6,0.6,1.4,0.9,2.5,0.9h1.5v0.4c0,0.6-0.2,1.1-0.6,1.5s-0.9,0.5-1.6,0.5c-0.4,0-0.8-0.1-1.1-0.2
		c-0.3-0.1-0.7-0.3-1-0.4l-0.6,1c0.8,0.5,1.7,0.8,2.7,0.8c1.1,0,2-0.3,2.6-0.9s0.9-1.4,0.9-2.4v-0.2H1150.1z"/>
	<path d="M1156.1,312.4c-1.4,0-2.1-0.8-2.1-2.3c0-0.8,0.2-1.5,0.7-2s1.2-0.7,2.1-0.7h0.6v4.9h-1.3V312.4z M1158.7,313.6v-7.3h-2
		c-1.3,0-2.3,0.3-3,1s-1.1,1.6-1.1,2.8c0,0.4,0.1,0.8,0.2,1.2c0.1,0.4,0.3,0.8,0.6,1h-2.3c0,0-0.1,0-0.1,0.1v1c0,0,0,0.1,0.1,0.1
		L1158.7,313.6L1158.7,313.6z M1156.5,304.6c0.1-0.2,0.2-0.4,0.2-0.7c0-0.3-0.1-0.5-0.2-0.7s-0.4-0.2-0.6-0.2
		c-0.3,0-0.5,0.1-0.6,0.2c-0.1,0.2-0.2,0.4-0.2,0.7c0,0.3,0.1,0.5,0.2,0.7c0.2,0.2,0.4,0.2,0.6,0.2
		C1156.2,304.9,1156.4,304.8,1156.5,304.6z"/>
	<path d="M1166.6,313.6h3.3c0.1,0,0.1,0,0.1-0.1v-1c0,0,0-0.1-0.1-0.1h-2v-10.2h-1.3V313.6z"/>
	<path d="M1175,313.6C1175.1,313.6,1175.1,313.6,1175,313.6l0.1-1.1c0,0,0-0.1-0.1-0.1h-2v-6.1h-1.3v6.1h-2c0,0-0.1,0-0.1,0.1v1
		c0,0,0,0.1,0.1,0.1H1175z M1173,304.6c0.1-0.2,0.2-0.4,0.2-0.7c0-0.3-0.1-0.5-0.2-0.7s-0.4-0.2-0.6-0.2c-0.3,0-0.5,0.1-0.6,0.2
		c-0.1,0.2-0.2,0.4-0.2,0.7c0,0.3,0.1,0.5,0.2,0.7c0.2,0.2,0.4,0.2,0.6,0.2C1172.6,304.9,1172.9,304.8,1173,304.6z"/>
	<path d="M1182,313.6v-1.2h-2.7c-0.6,0-1-0.2-1.3-0.7s-0.5-1.1-0.5-1.9c0-1.7,0.7-2.5,2.1-2.5c0.6,0,1.1,0.1,1.8,0.4l0.4-1.1
		c-0.2-0.1-0.5-0.2-0.9-0.3c-0.4-0.1-0.8-0.1-1.2-0.1c-1.1,0-1.9,0.3-2.6,0.9c-0.6,0.6-1,1.5-1,2.6c0,0.6,0.1,1.1,0.3,1.6
		c0.2,0.5,0.5,0.8,0.8,1.1h-2.3c0,0-0.1,0-0.1,0.1v1c0,0,0,0.1,0.1,0.1H1182z M1179.9,304.6c0.1-0.2,0.2-0.4,0.2-0.7
		c0-0.3-0.1-0.5-0.2-0.7s-0.4-0.2-0.6-0.2c-0.3,0-0.5,0.1-0.6,0.2c-0.1,0.2-0.2,0.4-0.2,0.7c0,0.3,0.1,0.5,0.2,0.7
		c0.2,0.2,0.4,0.2,0.6,0.2C1179.6,304.9,1179.8,304.8,1179.9,304.6z"/>
	<path d="M1183.4,313.6h10c0.1,0,0.1,0,0.1-0.1v-1c0,0,0-0.1-0.1-0.1h-1.9v-10.2h-1.3v10.2h-2l-1.9-8.2h-1.4l1.9,8.2h-3.4
		L1183.4,313.6L1183.4,313.6z"/>
	<path d="M1196.6,313.6v-7.3h-1.3v6.1h-2c0,0-0.1,0-0.1,0.1v1c0,0,0,0.1,0.1,0.1L1196.6,313.6L1196.6,313.6z M1196.5,316.3
		c0.1-0.2,0.2-0.4,0.2-0.7c0-0.3-0.1-0.5-0.2-0.7s-0.4-0.2-0.6-0.2c-0.3,0-0.5,0.1-0.6,0.2c-0.1,0.2-0.2,0.4-0.2,0.7
		c0,0.3,0.1,0.5,0.2,0.7c0.2,0.2,0.4,0.2,0.6,0.2C1196.1,316.6,1196.3,316.5,1196.5,316.3z"/>
	<path d="M1199.3,313.6h1.3v-11.4h-1.3V313.6z M1198.6,317.5c0.3-0.1,0.8-0.1,1.5-0.2s1.2-0.1,1.4-0.1v-0.7c-0.1,0-0.4,0-0.8,0.1
		s-0.6,0.1-0.7,0.1c-0.3-0.2-0.5-0.4-0.5-0.7c0-0.3,0.1-0.5,0.2-0.6c0.2-0.1,0.3-0.2,0.6-0.2c0.3,0,0.5,0.1,0.7,0.2l0.2-0.7
		c-0.3-0.2-0.6-0.2-1-0.2c-0.5,0-0.9,0.1-1.1,0.4c-0.3,0.2-0.4,0.6-0.4,1c0,0.2,0.1,0.4,0.2,0.6s0.2,0.3,0.4,0.4l-0.7,0.1
		L1198.6,317.5L1198.6,317.5z"/>
	<path d="M1208.4,316.3c0.6-0.6,0.9-1.4,0.9-2.4v-7.6h-2c-1.3,0-2.2,0.3-3,1s-1.1,1.6-1.1,2.8c0,1.1,0.3,2,0.9,2.5
		c0.6,0.6,1.4,0.9,2.5,0.9h1.5v0.4c0,0.6-0.2,1.1-0.6,1.5s-0.9,0.5-1.6,0.5c-0.4,0-0.8-0.1-1.1-0.2c-0.3-0.1-0.7-0.3-1-0.4l-0.6,1
		c0.8,0.5,1.7,0.8,2.7,0.8C1207,317.2,1207.8,316.9,1208.4,316.3z M1206.6,312.4c-0.7,0-1.2-0.2-1.5-0.5c-0.3-0.4-0.5-0.9-0.5-1.7
		c0-0.8,0.2-1.5,0.7-2s1.2-0.7,2.1-0.7h0.6v4.9L1206.6,312.4L1206.6,312.4z"/>
	<path d="M1224.8,313.6L1224.8,313.6l0.1-1.1c0,0,0-0.1-0.1-0.1h-1.7v-7h-1.3v0.9h-1c-1.3,0-2.3,0.3-3,1s-1.1,1.6-1.1,2.8
		c0,1.1,0.3,1.9,1,2.6c0.7,0.6,1.6,0.9,2.8,0.9L1224.8,313.6L1224.8,313.6z M1220.4,312.4c-0.8,0-1.4-0.2-1.8-0.6s-0.6-1-0.6-1.7
		c0-0.8,0.2-1.5,0.7-1.9s1.2-0.7,2.1-0.7h0.9v4.9L1220.4,312.4L1220.4,312.4z M1220.3,303.7c0.1-0.2,0.2-0.4,0.2-0.7
		c0-0.3-0.1-0.5-0.2-0.7c-0.2-0.2-0.4-0.2-0.6-0.2s-0.4,0.1-0.6,0.2s-0.2,0.4-0.2,0.7c0,0.3,0.1,0.5,0.2,0.7
		c0.2,0.1,0.4,0.2,0.6,0.2C1220,304,1220.2,303.9,1220.3,303.7z M1222.9,303.7c0.1-0.2,0.2-0.4,0.2-0.7c0-0.3-0.1-0.5-0.2-0.7
		s-0.4-0.2-0.6-0.2c-0.3,0-0.5,0.1-0.6,0.2c-0.1,0.2-0.2,0.4-0.2,0.7c0,0.3,0.1,0.5,0.2,0.7c0.2,0.2,0.4,0.2,0.6,0.2
		C1222.6,304,1222.8,303.9,1222.9,303.7z"/>
	<path d="M1228.9,313.6c0.7,0,1.3-0.2,1.8-0.5s0.9-0.7,1.2-1.3c0.3-0.6,0.4-1.2,0.4-2c0-0.6-0.1-1.2-0.4-1.7s-0.6-0.9-1.1-1.2
		c-0.5-0.3-1-0.4-1.6-0.4c-0.5,0-1,0.1-1.5,0.3c-0.5,0.2-0.9,0.4-1.3,0.7c-0.4,0.7-0.5,1.5-0.5,2.4c0,0.7,0.2,1.6,0.6,2.6h-1.9
		c0,0-0.1,0-0.1,0.1v1c0,0,0,0.1,0.1,0.1h4.3V313.6z M1227.3,308.9c0-0.2,0.1-0.4,0.2-0.6c0.2-0.2,0.5-0.3,0.8-0.4s0.6-0.2,0.9-0.2
		c0.5,0,0.9,0.2,1.3,0.6c0.3,0.4,0.5,0.9,0.5,1.5c0,0.9-0.2,1.5-0.5,2c-0.4,0.5-0.9,0.7-1.5,0.7h-1.1c-0.2-0.5-0.4-1-0.4-1.5
		c-0.1-0.4-0.1-0.9-0.1-1.4C1227.3,309.3,1227.3,309.1,1227.3,308.9z"/>
	<path d="M1234,313.6h7.9c0,0,0.1,0,0.1-0.1v-1c0,0,0-0.1-0.1-0.1h-1.7c-0.2-1.7-0.7-3.1-1.5-4.3c-0.7-1.2-1.7-2.1-2.8-2.7l-0.5,1.1
		c1,0.7,1.8,1.5,2.4,2.4s0.9,2.1,1.1,3.4h-5L1234,313.6L1234,313.6z"/>
	<path d="M1250.5,313.6C1250.6,313.6,1250.6,313.6,1250.5,313.6l0.1-1.1c0,0,0-0.1-0.1-0.1h-1c-0.5-0.5-0.9-1.5-1.1-3.1
		c-0.1-0.8-0.3-1.4-0.6-1.9c-0.2-0.4-0.6-0.8-1-1s-0.9-0.3-1.5-0.3c-0.5,0-1,0.1-1.4,0.2s-0.9,0.3-1.3,0.6l0.5,1
		c0.8-0.4,1.5-0.6,2.2-0.6c0.6,0,1,0.2,1.3,0.5c0.3,0.4,0.5,1,0.6,1.8c0.2,1.4,0.6,2.4,0.9,2.7h-6.4c0,0-0.1,0-0.1,0.1v1
		c0,0,0,0.1,0.1,0.1L1250.5,313.6L1250.5,313.6z M1246.2,304.6c0.1-0.2,0.2-0.4,0.2-0.7c0-0.3-0.1-0.5-0.2-0.7s-0.4-0.2-0.6-0.2
		c-0.3,0-0.5,0.1-0.6,0.2c-0.1,0.2-0.2,0.4-0.2,0.7c0,0.3,0.1,0.5,0.2,0.7c0.2,0.2,0.4,0.2,0.6,0.2
		C1245.8,304.9,1246,304.8,1246.2,304.6z"/>
	<path d="M1253.7,313.6v-11.4h-1.3v10.2h-2c0,0-0.1,0-0.1,0.1v1c0,0,0,0.1,0.1,0.1L1253.7,313.6L1253.7,313.6z"/>
	<path d="M1256.7,313.6h1.3v-11.4h-1.3V313.6z"/>
</g>
</svg>
