<?xml version="1.0" encoding="utf-8"?>
<!-- Generator: Adobe Illustrator 21.1.0, SVG Export Plug-In . SVG Version: 6.00 Build 0)  -->
<svg version="1.1" id="Layer_1" xmlns="http://www.w3.org/2000/svg" xmlns:xlink="http://www.w3.org/1999/xlink" x="0px" y="0px"
	 viewBox="0 0 2000 668" style="enable-background:new 0 0 2000 668;" xml:space="preserve">
<style type="text/css">
	.st0{fill:#9B6649;}
	.st1{fill:#805038;}
	.st2{fill:#6D412D;}
	.st3{fill:#BA6456;}
	.st4{fill:#8A4336;}
	.st5{fill:#F9BD69;}
	.st6{font-family:'Lato-Semibold';}
	.st7{font-size:7.4519px;}
	.st8{fill:#3E5823;}
	.st9{fill:#FFFFFF;}
	.st10{fill:#F9F8F7;}
	.st11{fill:#845F41;}
	.st12{fill:#D1D3D4;}
	.st13{fill:#BB8767;}
	.st14{fill:#563722;}
	.st15{fill:#76B72A;}
	.st16{opacity:0.2;}
	.st17{fill:#1D1D1B;}
	.st18{fill:#7A9A9E;}
	.st19{fill:#435C64;}
	.st20{fill:#A4C6D3;}
	.st21{fill:#A2CCD6;}
	.st22{fill:#476429;}
	.st23{fill:#547831;}
	.st24{opacity:0.2;fill:#1D1D1B;}
	.st25{fill:#6D9C40;}
	.st26{opacity:0.5;fill:#C5D665;}
	.st27{fill:#CC6733;}
	.st28{fill:#CCCBCB;}
	.st29{fill:#996634;}
	.st30{fill:#CC9966;}
	.st31{opacity:0.2;fill:#3A3D3F;}
	.st32{fill:#2E5579;}
	.st33{fill:#6BBFAB;}
	.st34{fill:#9B9B9A;}
	.st35{fill:#717070;}
	.st36{fill:#E20A13;}
	.st37{fill:none;stroke:#333333;stroke-width:22;stroke-miterlimit:10;}
	.st38{fill:#F08966;}
	.st39{fill:#D68162;}
	.st40{opacity:0.5;fill:#1D1D1B;}
	.st41{fill:#E63349;}
	.st42{fill:#AE3239;}
	.st43{fill:#28242C;}
	.st44{fill:#C4C3C4;}
	.st45{opacity:0.4;}
	.st46{fill:#B9D9ED;}
	.st47{fill:#8ACBF0;}
	.st48{fill:#FFF381;}
	.st49{fill:#EE7A7C;}
	.st50{fill:#F9C150;}
	.st51{opacity:0.5;fill:#AE3239;}
	.st52{fill:#D6343C;}
	
		.st53{fill:none;stroke:#FFFFFF;stroke-width:2;stroke-linecap:round;stroke-linejoin:round;stroke-miterlimit:10;stroke-dasharray:10,20;}
	.st54{fill:none;}
	.st55{fill:#0E4960;}
	.st56{fill:#333333;}
	.st57{fill:#30B2E7;}
	.st58{font-family:'Lato-Regular';}
	.st59{font-size:18px;}
	.st60{letter-spacing:6;}
	.st61{font-family:'Lato-Black';}
	.st62{font-size:28px;}
</style>
<g>
	<g>
		<path class="st0" d="M676.6,482.7c-0.3-6.2,0.6-12-1.1-16c-1.7-4-6.3-11.9-6.3-11.9l-4.3-1.7c0,0,3.5-6.4,3.6-10.3
			c0.1-3.8,2.8-7.8,2.8-7.8s-6-4-6.5-5.9c-0.6-1.9-6-9.1-6.1-12.4c0-3.4-6.5-16.5-6.5-16.5l-9.2-3.6c0,0-5.4-0.5-8.1,0.2
			c-2.7,0.6-8.6,11.1-8.6,11.1l-10.3,2.1c0,0-6.8-1.6-7.7,0.9c-0.9,2.4-6.3,9.2-6.3,9.2s-7.7,2.5-9.3,3.6c-1.6,1-6,8.2-6.7,10.2
			c-0.7,2-6.2,3.7-8.2,4s-6.5-4.2-12,2.5c-5.5,6.8-6.2,8.7-8.8,9.3c-2.7,0.6-4,0-6.4,1.3c-2.3,1.3-0.4,2.5-0.4,2.5l-1.4,14.7"/>
		<g>
			<path class="st1" d="M647.4,485c-1.1,0.4-5.3-1.5-6.5-2.6c-1.2-1-5.4-3.8-5.4-3.8l-6.6-4l-4.9-7l1.3-8.7l-12.7,2.5l-10.3-6.6
				l-2.4-8.2l9.7,0.5c0,0,7.4-2.6,7.7-3.4s-4.9-8.9-4.9-8.9l2.8-3.6l12.3,1c0,0,6.4-1.4,6-2.9c-0.4-1.5,4.6-6.8,4.6-6.8l7.3-3.3
				l0.2-7.2l0.3-7.4l6.3-4.8l-9.2-3.6c0,0-5.4-0.5-8.1,0.2c-2.7,0.6-8.6,11.1-8.6,11.1l-10.3,2.1c0,0-6.8-1.6-7.7,0.9
				c-0.9,2.4-6.3,9.2-6.3,9.2s-7.7,2.5-9.3,3.6c-1.6,1-6,8.2-6.7,10.2c-0.7,2-6.2,3.7-8.2,4s-6.5-4.2-12,2.5
				c-5.5,6.8-6.2,8.7-8.8,9.3c-2.7,0.6-3.5,1.3-5.9,2.6c-2.3,1.3,0,7.2,0,7.2l-1.1,12.6"/>
		</g>
		<path class="st1" d="M652.3,441.3l-1.3,3.7l-3.8,3.8c0,0-0.3,2.7,0.8,4.8c1.1,2.1,0.3,6.2-0.5,8.4c-0.8,2.2-1.6-2.6-1.6-2.6
			l1.2-3.4l-2.3-4.8c0,0,1.7-3.8,1.6-4.6C646.5,445.7,651,445.3,652.3,441.3z"/>
		<line class="st1" x1="665.2" y1="478.2" x2="666.2" y2="483.3"/>
		<path class="st1" d="M620,445.6l5.9-0.2l2.8,3.6l-1.3-4.4c0,0-0.4-0.4-1.9-0.7C624.1,443.6,620,445.6,620,445.6z"/>
		<path class="st1" d="M656.1,423.6l2.6,6.6c0,0-0.1,1.9-1.1,3.2c-1.1,1.3-1.6,4.6-1.6,4.6l0.5-8.1L656.1,423.6z"/>
		<g>
			<path class="st2" d="M602.6,478.2c0,0-8.8-3.1-8.7-3.7c0-0.5-0.1-4.5-0.1-4.5l-13.1-3.2l-4.6-8.8l7.2-0.3c0,0-0.9-10.6-0.9-12.3
				c0-1.7-0.2-4.5-0.2-4.5l7.1-3.6l5.5-2.6l2.9-8.1l5.3-2.9c0,0,3.8-2.1,4.1-2.8c0.3-0.7,5.1-5.8,5.1-5.8l7,1.1c0,0,5.9-3.5,6.6-4.6
				c0.7-1.1,3.3-2.3,3.8-2.9c0.5-0.6,3.9-1.5,3.9-1.5l3.5-1.1l1.9-5.4l5.2-1.6l1.6-1.6l-2.8-1.1c0,0-5.4-0.5-8.1,0.2
				c-2.7,0.6-8.6,11.1-8.6,11.1l-10.3,2.1c0,0-6.8-1.6-7.7,0.9c-0.9,2.4-6.3,9.2-6.3,9.2s-7.7,2.5-9.3,3.6c-1.6,1-6,8.2-6.7,10.2
				c-0.7,2-6.2,3.7-8.2,4s-6.5-4.2-12,2.5c-5.5,6.8-6.2,8.7-8.8,9.3c-2.7,0.6-3.3-0.7-5.6,0.6c-2.3,1.3,0.2,3.2,0.2,3.2l2.4,25
				l-7.3,40.1h261.5l-9.3-28L602.6,478.2z"/>
		</g>
		<path class="st1" d="M652.2,404.3l1.3,3.7l2.1,3.8l-0.4,4.5c0,0,0.4,3.5,0.2,4.9c-0.2,1.4-1.2-4.9-1.2-4.9s-0.3-1.4-0.7-2.7
			c-0.4-1.3-0.9-3.9-0.9-3.9L652.2,404.3z"/>
		<path class="st2" d="M602,476.3c0,0,2.7-0.2,3.6-0.5c0.9-0.2,4.9-3.3,4.9-3.3l-1.5,4.2c0,0,4.4,3.4,4.7,4.1
			c0.4,0.7-2.3,0.2-2.3,0.2l-3.4-2.6L602,476.3z"/>
		<path class="st0" d="M775.7,457.8c0,0-4.6,0-6.9-6.7c-2.3-6.7-3.5-13.4-6.4-17.1c-2.9-3.7-9.8-10.4-9.8-10.4H748
			c0,0,1.2-8.5,0-12.8c-1.2-4.3,0-9.8,0-9.8s-6.9-1.8-8.1-3.7c-1.2-1.8-8.7-7.3-9.8-11c-1.2-3.7-11.6-15.3-11.6-15.3h-9.8
			c0,0-5.2,1.8-7.5,3.7c-2.3,1.8-4.3,15.9-4.3,15.9l-9,6.7c0,0-6.9,1.2-6.9,4.3c0,3.1-2.9,12.8-2.9,12.8s-6.4,6.1-7.5,7.9
			c-1.2,1.8-2.9,11.6-2.9,14c0,2.4-4.6,6.7-6.4,7.9c-1.7,1.2-7.5-1.8-10.4,7.9c-2.9,9.8-2.9,12.2-5.2,14c-2.3,1.8-7.5,3.1-9.2,5.5
			c-1.7,2.4-8.9,7.3-8.9,7.3l-10.2,3.1l200.5,29.6l-9.7-28.4l-15.1-20.7c-2.9-0.6-13.3-3.7-13.3-3.7L775.7,457.8z"/>
		<g>
			<path class="st1" d="M761,474.3c0,0-7.8-2.1-11-4.3c-3.2-2.1-4-3.1-4-3.1s-2.9-1.5-3.8-0.6c-0.9,0.9-5.5,0.6-6.9,0
				c-1.4-0.6-6.4-1.8-6.4-1.8l-7.5-1.5l-6.9-5.5l-1.7-10.1l-11,8.2l-11.9-2.7L685,445l9.2-3.7c0,0,6.1-6.1,6.1-7
				c0-0.9-7.5-7.6-7.5-7.6l1.4-5.2l11.9-4.3c0,0,5.5-4.3,4.6-5.8c-0.9-1.5,2.1-9.5,2.1-9.5l5.7-6.7l-2.2-7.9l-2.2-8.2l4.3-7.9h-9.8
				c0,0-5.2,1.8-7.5,3.7c-2.3,1.8-4.3,15.9-4.3,15.9l-9,6.7c0,0-6.9,1.2-6.9,4.3c0,3.1-2.9,12.8-2.9,12.8s-6.4,6.1-7.5,7.9
				c-1.2,1.8-2.9,11.6-2.9,14c0,2.4-4.6,6.7-6.4,7.9c-1.7,1.2-7.5-1.8-10.4,7.9c-2.9,9.8-2.9,12.2-5.2,14c-2.3,1.8-7.5,3.1-9.2,5.5
				c-1.7,2.4-8.9,7.3-8.9,7.3l-10.2,3.1H778l-15.6-3.7L761,474.3z"/>
		</g>
		<path class="st1" d="M732.4,416.3v4.6l-2.3,5.8c0,0,0.6,3.1,2.3,4.9c1.7,1.8,2.3,6.7,2.3,9.5c0,2.7-2.3-2.1-2.3-2.1v-4.3l-3.8-4.3
			c0,0,0.3-4.9,0-5.8S732.4,421.2,732.4,416.3z"/>
		<path class="st1" d="M756.7,451.1l2.6,5.2l12.4,9.5c0,0,5.2,1.5,6.4,1.8c1.2,0.3-9-2.1-9-2.1l-3.2-2.7
			C765.9,462.7,757.5,454.4,756.7,451.1z"/>
		<path class="st1" d="M703.5,434.9l5.5-2.7l3.8,2.7l-2.6-4.3c0,0-0.5-0.3-2,0C706.7,430.9,703.5,434.9,703.5,434.9z"/>
		<path class="st1" d="M730.1,395.2l4.6,6.1c0,0,0.6,2.1,0,4c-0.6,1.8,0,5.8,0,5.8l-2.2-9.2L730.1,395.2z"/>
		<g>
			<path class="st2" d="M716.2,479.5c-1.4,0.6-17.1,0-17.1,0s-10.4-0.9-10.5-1.5c-0.1-0.6-1.6-4.9-1.6-4.9l-13.3,2.1l-7.2-7.6
				l6.6-3.4c0,0-4.3-11.3-4.9-13.1c-0.6-1.8-1.7-4.9-1.7-4.9l5.5-7l4.3-5.2v-10.1l4-5.5c0,0,2.9-4,2.9-4.9c0-0.9,2.9-8.5,2.9-8.5
				l6.9-1.8c0,0,4.3-6.4,4.6-7.9c0.3-1.5,2.3-4,2.6-4.9c0.3-0.9,3.2-3.4,3.2-3.4l2.9-2.7v-6.7l4.3-4l0.9-2.4h-3c0,0-5.2,1.8-7.5,3.7
				c-2.3,1.8-4.3,15.9-4.3,15.9l-9,6.7c0,0-6.9,1.2-6.9,4.3c0,3.1-2.9,12.8-2.9,12.8s-6.4,6.1-7.5,7.9c-1.2,1.8-2.9,11.6-2.9,14
				c0,2.4-4.6,6.7-6.4,7.9c-1.7,1.2-7.5-1.8-10.4,7.9c-2.9,9.8-2.9,12.2-5.2,14c-2.3,1.8-7.5,3.1-9.2,5.5c-1.7,2.4-8.9,7.3-8.9,7.3
				l-19.6,9.1l112.1-6C719.9,482.2,717.6,478.8,716.2,479.5z"/>
		</g>
		<path class="st1" d="M719.9,375.8l2.4,3.5l3.3,3.3l1.2,5.1c0,0,1.5,3.7,1.8,5.3c0.3,1.6-2.8-4.9-2.8-4.9s-0.8-1.4-1.5-2.6
			c-0.8-1.2-2.1-3.9-2.1-3.9L719.9,375.8z"/>
		<path class="st2" d="M696.8,476.3c0,0,2.4-1.4,3.2-2s3.5-5.7,3.5-5.7v5.3c0,0,5.2,1.8,5.8,2.4c0.6,0.6-2.1,1.2-2.1,1.2l-4.1-1.4
			L696.8,476.3z"/>
	</g>
	<g>
		<path class="st0" d="M1011.7,481.7c-2.8-5.6-4.3-11.2-7.5-14.2c-3.1-3-10.5-8.4-10.5-8.4l-4.7,0.2c0,0,0.6-7.3-0.8-10.9
			c-1.4-3.6-0.6-8.3-0.6-8.3s-7.1-1.3-8.4-2.8c-1.3-1.5-9.2-5.9-10.6-8.9c-1.4-3.1-12.6-12.5-12.6-12.5l-9.9,0.4
			c0,0-5.1,1.8-7.3,3.4c-2.2,1.6-3.4,13.6-3.4,13.6l-8.6,6c0,0-6.9,1.3-6.7,3.9c0.2,2.6-2.1,11-2.1,11s-6,5.4-7.1,7
			c-1,1.6-2.2,9.9-2,12c0.2,2.1-4.2,5.9-5.9,7c-1.7,1.1-7.7-1.3-10,7.1s-2.1,10.4-4.3,12.1c-2.2,1.6-3.7,1.6-5.3,3.7
			s0.7,2.5,0.7,2.5l4.6,14"/>
		<g>
			<path class="st1" d="M986,495.7c-0.8,0.8-5.5,0.7-7,0.3c-1.5-0.5-6.5-1.3-6.5-1.3l-7.7-1l-7.3-4.4l-2.3-8.5l-10.6,7.4l-12.1-1.9
				l-5.4-6.5l9.1-3.5c0,0,5.7-5.4,5.7-6.2c-0.1-0.8-8-6.2-8-6.2l1.1-4.4l11.7-4.1c0,0,5.3-3.8,4.3-5.1c-1-1.3,1.5-8.1,1.5-8.1
				l5.3-5.9l-2.7-6.6l-2.7-6.9l3.9-6.9l-9.9,0.4c0,0-5.1,1.8-7.3,3.4c-2.2,1.6-3.4,13.6-3.4,13.6l-8.6,6c0,0-6.9,1.3-6.7,3.9
				c0.2,2.6-2.1,11-2.1,11s-6,5.4-7.1,7c-1,1.6-2.2,9.9-2,12c0.2,2.1-4.2,5.9-5.9,7c-1.7,1.1-7.7-1.3-10,7.1s-2.1,10.4-4.3,12.1
				c-2.2,1.6-2.7,2.6-4.3,4.7c-1.6,2.1,2.9,6.6,2.9,6.6l4.1,12"/>
		</g>
		<path class="st1" d="M972.9,453.7l0.3,3.9l-2,5c0,0,0.8,2.6,2.6,4c1.9,1.5,2.8,5.6,2.9,7.9c0.2,2.3-2.5-1.7-2.5-1.7l-0.3-3.6
			l-4.1-3.5c0,0,0-4.1-0.4-4.9C969.3,460.1,973.2,457.8,972.9,453.7z"/>
		<line class="st1" x1="999.5" y1="482.2" x2="1002.5" y2="486.5"/>
		<path class="st1" d="M945,470.6l5.4-2.5l4,2.2l-2.9-3.5c0,0-0.6-0.2-2,0.1C947.9,467.1,945,470.6,945,470.6z"/>
		<path class="st1" d="M969.2,435.9l5,5c0,0,0.7,1.8,0.3,3.4c-0.5,1.6,0.4,4.9,0.4,4.9l-2.8-7.7L969.2,435.9z"/>
		<g>
			<path class="st2" d="M942.2,507.4c0,0-9.3,0.7-9.5,0.2c-0.2-0.5-1.9-4.1-1.9-4.1l-13.2,2.3l-7.8-6.2l6.5-3.1
				c0,0-5.1-9.4-5.8-10.9c-0.7-1.5-2.1-4.1-2.1-4.1l5.1-6.2l4-4.6l-0.6-8.5l3.7-4.8c0,0,2.7-3.5,2.6-4.2c-0.1-0.8,2.4-7.3,2.4-7.3
				l6.9-1.8c0,0,4-5.6,4.2-6.9c0.2-1.3,2.1-3.4,2.3-4.2c0.2-0.8,3-3,3-3l2.7-2.4l-0.4-5.7l4.1-3.5l0.8-2.1l-3,0.1
				c0,0-5.1,1.8-7.3,3.4c-2.2,1.6-3.4,13.6-3.4,13.6l-8.6,6c0,0-6.9,1.3-6.7,3.9c0.2,2.6-2.1,11-2.1,11s-6,5.4-7.1,7
				c-1,1.6-2.2,9.9-2,12c0.2,2.1-4.2,5.9-5.9,7c-1.7,1.1-7.7-1.3-10,7.1s-2.1,10.4-4.3,12.1c-2.2,1.6-3.3,0.7-4.9,2.8
				c-1.6,2.1,1.5,2.8,1.5,2.8l12.3,21.9l9.3,30.4l239.5-96l-19.8-21.9L942.2,507.4z"/>
		</g>
		<path class="st1" d="M957.8,419.9l2.6,2.8l3.5,2.6l1.5,4.3c0,0,1.8,3,2.2,4.4c0.4,1.4-3.1-4-3.1-4s-0.9-1.2-1.7-2.2
			c-0.9-1-2.4-3.2-2.4-3.2L957.8,419.9z"/>
		<path class="st2" d="M940.9,505.9c0,0,2.3-1.3,3.1-1.8c0.7-0.5,3.1-5,3.1-5l0.3,4.5c0,0,5.4,1.3,6,1.8c0.6,0.5-2.1,1.1-2.1,1.1
			l-4.2-1L940.9,505.9z"/>
		<path class="st0" d="M1092.5,419.1c0,0-4.2,1.9-9.1-3.4c-4.8-5.2-8.6-10.9-12.7-13.1c-4.1-2.2-13.2-5.5-13.2-5.5l-4.2,1.9
			c0,0-2.4-8.3-5.2-11.7s-3.9-8.9-3.9-8.9s-7.1,1.1-8.9-0.1c-1.8-1.2-10.9-3.2-13.4-6.1c-2.5-2.9-16.7-9.3-16.7-9.3l-9,4
			c0,0-4,3.8-5.4,6.4c-1.4,2.6,2.4,16.3,2.4,16.3l-5.5,9.8c0,0-5.9,3.9-4.6,6.7c1.2,2.8,2.5,12.9,2.5,12.9s-3.4,8.1-3.7,10.3
			c-0.3,2.1,2,11.8,3,14c1,2.2-1.5,8-2.6,9.8c-1.1,1.8-7.6,1.3-6.3,11.5c1.3,10.1,2.3,12.3,0.9,14.9c-1.4,2.6-5.6,5.8-6.3,8.8
			c-0.6,2.9-5.2,10.3-5.2,10.3l-8.1,6.9l195.5-53.7l-20.3-22.1l-22.2-12.9c-2.9,0.6-13.6,2-13.6,2L1092.5,419.1z"/>
		<g>
			<path class="st1" d="M1085.6,440.1c0,0-8,1.2-11.8,0.5s-4.9-1.2-4.9-1.2s-3.2-0.2-3.7,1c-0.4,1.2-4.8,2.8-6.3,2.8
				c-1.6,0-6.6,0.9-6.6,0.9l-7.5,1.6l-8.6-2.2l-5.6-8.5l-6.8,12l-12,2.3l-7.7-5.3l7-7.1c0,0,3.1-8,2.7-8.9c-0.4-0.8-10-4-10-4
				l-0.8-5.3l9.1-8.7c0,0,3.3-6.1,1.9-7.2c-1.4-1-1.9-9.5-1.9-9.5l2.5-8.5l-5.2-6.4l-5.3-6.7l0.8-9l-9,4c0,0-4,3.8-5.4,6.4
				c-1.4,2.6,2.4,16.3,2.4,16.3l-5.5,9.8c0,0-5.9,3.9-4.6,6.7c1.2,2.8,2.5,12.9,2.5,12.9s-3.4,8.1-3.7,10.3c-0.3,2.1,2,11.8,3,14
				c1,2.2-1.5,8-2.6,9.8c-1.1,1.8-7.6,1.3-6.3,11.5c1.3,10.1,2.3,12.3,0.9,14.9c-1.4,2.6-5.6,5.8-6.3,8.8
				c-0.6,2.9-5.2,10.3-5.2,10.3l-8.1,6.9l147.1-64.7l-15.8,2.9L1085.6,440.1z"/>
		</g>
		<path class="st1" d="M1036.1,398.5l1.8,4.2l0.2,6.2c0,0,1.8,2.6,4.1,3.5c2.3,1,4.8,5.2,5.9,7.7c1.1,2.5-3-1-3-1l-1.7-3.9l-5.2-2.4
			c0,0-1.7-4.6-2.3-5.3C1035.3,406.9,1038,403,1036.1,398.5z"/>
		<path class="st1" d="M1072.3,420.6l4.5,3.7l15.2,3.7c0,0,5.4-0.7,6.6-0.9c1.2-0.2-9.1,1.7-9.1,1.7l-4-1.2
			C1085.4,427.5,1074.4,423.3,1072.3,420.6z"/>
		<path class="st1" d="M1017.1,427.2l3.9-4.7l4.6,1l-4.1-2.8c0,0-0.6-0.1-1.8,0.8C1018.4,422.3,1017.1,427.2,1017.1,427.2z"/>
		<path class="st1" d="M1025.5,380.2l6.7,3.7c0,0,1.4,1.7,1.6,3.6c0.2,1.9,2.3,5.3,2.3,5.3l-5.7-7.5L1025.5,380.2z"/>
		<g>
			<path class="st2" d="M1046.7,462.9c-1.1,1.1-15.6,6.9-15.6,6.9s-9.9,3.4-10.3,2.9c-0.4-0.5-3.4-3.8-3.4-3.8l-11.3,7.3l-9.7-4.1
				l4.7-5.8c0,0-8.5-8.6-9.8-10c-1.3-1.4-3.6-3.8-3.6-3.8l2.2-8.6l1.9-6.5l-4.1-9.2l1.5-6.7c0,0,1-4.8,0.7-5.6c-0.4-0.8-0.8-9-0.8-9
				l5.6-4.5c0,0,1.4-7.6,1-9.1c-0.4-1.5,0.5-4.6,0.4-5.5c-0.1-1,1.6-4.4,1.6-4.4l1.5-3.7l-2.7-6.1l2.4-5.4l-0.1-2.6l-2.7,1.2
				c0,0-4,3.8-5.4,6.4c-1.4,2.6,2.4,16.3,2.4,16.3l-5.5,9.8c0,0-5.9,3.9-4.6,6.7c1.2,2.8,2.5,12.9,2.5,12.9s-3.4,8.1-3.7,10.3
				c-0.3,2.1,2,11.8,3,14c1,2.2-1.5,8-2.6,9.8c-1.1,1.8-7.6,1.3-6.3,11.5c1.3,10.1,2.3,12.3,0.9,14.9c-1.4,2.6-5.6,5.8-6.3,8.8
				c-0.6,2.9-5.2,10.3-5.2,10.3l-14.3,16.2l100.1-50.6C1051.2,463.9,1047.8,461.7,1046.7,462.9z"/>
		</g>
		<path class="st1" d="M1008.4,366.4l3.6,2.2l4.3,1.7l3.1,4.2c0,0,2.9,2.7,3.8,4.1c0.9,1.4-4.5-3.4-4.5-3.4s-1.3-1-2.5-1.8
			c-1.2-0.8-3.5-2.7-3.5-2.7L1008.4,366.4z"/>
		<path class="st2" d="M1027.7,467.8c0,0,1.6-2.3,2.1-3.1s0.9-6.6,0.9-6.6l2.1,4.8c0,0,5.5-0.4,6.3-0.1c0.8,0.3-1.4,2-1.4,2
			l-4.3,0.3L1027.7,467.8z"/>
	</g>
	<g>
		<path class="st3" d="M503.3,341c0,1-0.8,1.8-1.8,1.8l0,0c-1,0-1.8-0.8-1.8-1.8l0.1-14.6c0-1,0.8-1.8,1.8-1.8l0,0
			c1,0,1.8,0.8,1.8,1.8L503.3,341z"/>
		<path class="st4" d="M501.5,332.2c0.6,0,1.2-0.1,1.8-0.2l0.1-5.6c0-1-0.8-1.8-1.8-1.8c-1,0-1.8,0.8-1.8,1.8l-0.1,5.6
			C500.3,332.2,500.9,332.2,501.5,332.2z"/>
		<polygon class="st3" points="468.1,326.6 529.2,326.6 534.8,321.1 534.8,319.7 469.2,314.3 468.1,315.5 		"/>
		<polygon class="st4" points="468.1,326.6 529.2,326.6 529.3,323 469.2,314.3 468.1,315.5 		"/>
		<polygon class="st5" points="469.2,325.1 529.4,325.1 534.8,319.7 529.4,314.3 469.2,314.3 		"/>
		<text transform="matrix(1 0 0 1 472.4956 321.9839)" class="st4 st6 st7">Choose your city</text>
	</g>
	<path class="st8" d="M1023.5,473.6c1.4,0,2.6,1,3,2.3c0.7-1.1,1.8-1.8,3.2-1.8c2.1,0,3.8,1.7,3.8,3.8c0,0.1,0,0.2,0,0.3
		c0.1,0,0.2,0,0.3,0c1.7,0,3.1,1.4,3.1,3.1c0,1.7-1.4,3.1-3.1,3.1h-13.9c-1.7,0-3.1-1.4-3.1-3.1c0-1.7,1.4-3.1,3.1-3.1
		c0.4,0,0.8,0.1,1.1,0.2c-0.4-0.5-0.6-1.1-0.6-1.8C1020.5,475,1021.9,473.6,1023.5,473.6z"/>
	<path class="st8" d="M919.7,490.7c1.4,0,2.6,1,3,2.3c0.7-1.1,1.8-1.8,3.2-1.8c2.1,0,3.8,1.7,3.8,3.8c0,0.1,0,0.2,0,0.3
		c0.1,0,0.2,0,0.3,0c1.7,0,3.1,1.4,3.1,3.1c0,1.7-1.4,3.1-3.1,3.1h-13.9c-1.7,0-3.1-1.4-3.1-3.1c0-1.7,1.4-3.1,3.1-3.1
		c0.4,0,0.8,0.1,1.1,0.2c-0.4-0.5-0.6-1.1-0.6-1.8C916.6,492,918,490.7,919.7,490.7z"/>
	<path class="st8" d="M883.8,496c1.4,0,2.6,1,3,2.3c0.7-1.1,1.8-1.8,3.2-1.8c2.1,0,3.8,1.7,3.8,3.8c0,0.1,0,0.2,0,0.3
		c0.1,0,0.2,0,0.3,0c1.7,0,3.1,1.4,3.1,3.1c0,1.7-1.4,3.1-3.1,3.1h-13.9c-1.7,0-3.1-1.4-3.1-3.1c0-1.7,1.4-3.1,3.1-3.1
		c0.4,0,0.8,0.1,1.1,0.2c-0.4-0.5-0.6-1.1-0.6-1.8C880.8,497.4,882.2,496,883.8,496z"/>
	<path class="st8" d="M867,495.1c1.4,0,2.6,1,3,2.3c0.7-1.1,1.8-1.8,3.2-1.8c2.1,0,3.8,1.7,3.8,3.8c0,0.1,0,0.2,0,0.3
		c0.1,0,0.2,0,0.3,0c1.7,0,3.1,1.4,3.1,3.1c0,1.7-1.4,3.1-3.1,3.1h-13.9c-1.7,0-3.1-1.4-3.1-3.1c0-1.7,1.4-3.1,3.1-3.1
		c0.4,0,0.8,0.1,1.1,0.2c-0.4-0.5-0.6-1.1-0.6-1.8C863.9,496.4,865.3,495.1,867,495.1z"/>
	<path class="st9" d="M436.6,190.2c19.5,0,35.6,14.4,38.4,33.1c4.1-4.2,9.8-6.9,16.1-6.9c10.8,0,19.9,7.7,22,17.9
		c4.8-6.8,12.8-11.3,21.7-11.3c14.7,0,26.6,11.9,26.6,26.6c0,2.7-0.4,5.3-1.2,7.8c2.6-1.9,5.8-3.1,9.2-3.1c8.5,0,15.5,6.9,15.5,15.5
		c0,8.5-6.9,15.5-15.5,15.5h-174c-11.4,0-20.6-9.2-20.6-20.6c0-11.4,9.2-20.6,20.6-20.6c1.9,0,3.7,0.3,5.5,0.8
		c-2.1-4.8-3.3-10.1-3.3-15.7C397.7,207.6,415.1,190.2,436.6,190.2z"/>
	<path class="st9" d="M1277.6,408.5c19.5,0,35.6,14.4,38.4,33.1c4.1-4.2,9.8-6.9,16.1-6.9c10.8,0,19.9,7.7,22,17.9
		c4.8-6.8,12.8-11.3,21.7-11.3c14.7,0,26.6,11.9,26.6,26.6c0,2.7-0.4,5.3-1.2,7.8c2.6-1.9,5.8-3.1,9.2-3.1c8.5,0,15.5,6.9,15.5,15.5
		c0,8.5-6.9,15.5-15.5,15.5h-174c-11.4,0-20.6-9.2-20.6-20.6c0-11.4,9.2-20.6,20.6-20.6c1.9,0,3.7,0.3,5.5,0.8
		c-2.1-4.8-3.3-10.1-3.3-15.7C1238.6,425.9,1256.1,408.5,1277.6,408.5z"/>
	<path class="st9" d="M1311,199.8c4.4,0,8.1,3.3,8.8,7.5c0.9-1,2.2-1.6,3.7-1.6c2.5,0,4.5,1.8,5,4.1c1.1-1.6,2.9-2.6,4.9-2.6
		c3.3,0,6.1,2.7,6.1,6.1c0,0.6-0.1,1.2-0.3,1.8c0.6-0.4,1.3-0.7,2.1-0.7c1.9,0,3.5,1.6,3.5,3.5c0,1.9-1.6,3.5-3.5,3.5h-39.6
		c-2.6,0-4.7-2.1-4.7-4.7c0-2.6,2.1-4.7,4.7-4.7c0.4,0,0.8,0.1,1.2,0.2c-0.5-1.1-0.8-2.3-0.8-3.6
		C1302.2,203.8,1306.2,199.8,1311,199.8z"/>
	<path class="st9" d="M1071.8,296c2.3,0,4.2,1.6,4.7,3.7c1-1.7,2.9-2.9,5.1-2.9c3.3,0,6,2.7,6,6c0,0.2,0,0.4,0,0.5
		c0.2,0,0.3,0,0.5,0c2.7,0,4.9,2.2,4.9,4.9c0,2.7-2.2,4.9-4.9,4.9h-21.9c-2.7,0-4.9-2.2-4.9-4.9c0-2.7,2.2-4.9,4.9-4.9
		c0.6,0,1.2,0.1,1.8,0.3c-0.6-0.8-0.9-1.8-0.9-2.8C1067,298.2,1069.2,296,1071.8,296z"/>
	<path class="st8" d="M846.6,495.1c1.6,0,2.9,1.1,3.2,2.5c0.7-1.2,2-2,3.5-2c2.3,0,4.1,1.8,4.1,4.1c0,0.1,0,0.2,0,0.4
		c0.1,0,0.2,0,0.3,0c1.8,0,3.3,1.5,3.3,3.3c0,1.8-1.5,3.3-3.3,3.3h-15c-1.8,0-3.3-1.5-3.3-3.3c0-1.8,1.5-3.3,3.3-3.3
		c0.4,0,0.8,0.1,1.2,0.2c-0.4-0.5-0.6-1.2-0.6-1.9C843.3,496.6,844.8,495.1,846.6,495.1z"/>
	<path class="st8" d="M831,497.6c1.4,0,2.6,1,3,2.3c0.7-1.1,1.8-1.8,3.2-1.8c2.1,0,3.8,1.7,3.8,3.8c0,0.1,0,0.2,0,0.3
		c0.1,0,0.2,0,0.3,0c1.7,0,3.1,1.4,3.1,3.1c0,1.7-1.4,3.1-3.1,3.1h-13.9c-1.7,0-3.1-1.4-3.1-3.1c0-1.7,1.4-3.1,3.1-3.1
		c0.4,0,0.8,0.1,1.1,0.2c-0.4-0.5-0.6-1.1-0.6-1.8C828,498.9,829.4,497.6,831,497.6z"/>
	<path class="st8" d="M814.2,496.6c1.4,0,2.6,1,3,2.3c0.7-1.1,1.8-1.8,3.2-1.8c2.1,0,3.8,1.7,3.8,3.8c0,0.1,0,0.2,0,0.3
		c0.1,0,0.2,0,0.3,0c1.7,0,3.1,1.4,3.1,3.1c0,1.7-1.4,3.1-3.1,3.1h-13.9c-1.7,0-3.1-1.4-3.1-3.1c0-1.7,1.4-3.1,3.1-3.1
		c0.4,0,0.8,0.1,1.1,0.2c-0.4-0.5-0.6-1.1-0.6-1.8C811.1,498,812.5,496.6,814.2,496.6z"/>
	<path class="st8" d="M1070,462.5c1.5-0.3,3,0.5,3.7,1.8c0.5-1.3,1.6-2.3,3-2.6c2.2-0.5,4.4,1,4.8,3.2c0,0.1,0,0.2,0.1,0.4
		c0.1,0,0.2-0.1,0.3-0.1c1.8-0.4,3.5,0.8,3.9,2.6c0.4,1.8-0.8,3.5-2.6,3.9l-14.7,3c-1.8,0.4-3.5-0.8-3.9-2.6
		c-0.4-1.8,0.8-3.5,2.6-3.9c0.4-0.1,0.8-0.1,1.2,0c-0.5-0.5-0.8-1.1-1-1.7C1067,464.6,1068.2,462.9,1070,462.5z"/>
	<path class="st8" d="M1055.2,468c1.4-0.3,2.8,0.4,3.4,1.7c0.4-1.2,1.4-2.1,2.8-2.4c2-0.4,4,0.9,4.4,2.9c0,0.1,0,0.2,0.1,0.3
		c0.1,0,0.2-0.1,0.3-0.1c1.7-0.3,3.3,0.7,3.6,2.4c0.3,1.7-0.7,3.3-2.4,3.6l-13.6,2.8c-1.7,0.3-3.3-0.7-3.6-2.4
		c-0.3-1.7,0.7-3.3,2.4-3.6c0.4-0.1,0.8-0.1,1.1,0c-0.4-0.4-0.8-1-0.9-1.6C1052.5,470,1053.6,468.3,1055.2,468z"/>
	<path class="st8" d="M1038.5,470.4c1.4-0.3,2.8,0.4,3.4,1.7c0.4-1.2,1.4-2.1,2.8-2.4c2-0.4,4,0.9,4.4,2.9c0,0.1,0,0.2,0.1,0.3
		c0.1,0,0.2-0.1,0.3-0.1c1.7-0.3,3.3,0.7,3.6,2.4c0.3,1.7-0.7,3.3-2.4,3.6l-13.6,2.8c-1.7,0.3-3.3-0.7-3.6-2.4
		c-0.3-1.7,0.7-3.3,2.4-3.6c0.4-0.1,0.8-0.1,1.1,0c-0.4-0.4-0.8-1-0.9-1.6C1035.8,472.4,1036.9,470.8,1038.5,470.4z"/>
	<path class="st8" d="M744.4,498.4c1.6,0,2.9,1.1,3.2,2.5c0.7-1.2,2-2,3.5-2c2.3,0,4.1,1.8,4.1,4.1c0,0.1,0,0.2,0,0.4
		c0.1,0,0.2,0,0.3,0c1.8,0,3.3,1.5,3.3,3.3c0,1.8-1.5,3.3-3.3,3.3h-15c-1.8,0-3.3-1.5-3.3-3.3c0-1.8,1.5-3.3,3.3-3.3
		c0.4,0,0.8,0.1,1.2,0.2c-0.4-0.5-0.6-1.2-0.6-1.9C741.1,499.9,742.6,498.4,744.4,498.4z"/>
	<path class="st8" d="M728.9,500.9c1.4,0,2.6,1,3,2.3c0.7-1.1,1.8-1.8,3.2-1.8c2.1,0,3.8,1.7,3.8,3.8c0,0.1,0,0.2,0,0.3
		c0.1,0,0.2,0,0.3,0c1.7,0,3.1,1.4,3.1,3.1c0,1.7-1.4,3.1-3.1,3.1h-13.9c-1.7,0-3.1-1.4-3.1-3.1c0-1.7,1.4-3.1,3.1-3.1
		c0.4,0,0.8,0.1,1.1,0.2c-0.4-0.5-0.6-1.1-0.6-1.8C725.8,502.2,727.2,500.9,728.9,500.9z"/>
	<path class="st8" d="M712,499.9c1.4,0,2.6,1,3,2.3c0.7-1.1,1.8-1.8,3.2-1.8c2.1,0,3.8,1.7,3.8,3.8c0,0.1,0,0.2,0,0.3
		c0.1,0,0.2,0,0.3,0c1.7,0,3.1,1.4,3.1,3.1c0,1.7-1.4,3.1-3.1,3.1h-13.9c-1.7,0-3.1-1.4-3.1-3.1c0-1.7,1.4-3.1,3.1-3.1
		c0.4,0,0.8,0.1,1.1,0.2c-0.4-0.5-0.6-1.1-0.6-1.8C709,501.3,710.3,499.9,712,499.9z"/>
	<path class="st8" d="M793.8,496.7c1.6,0,2.9,1.1,3.2,2.5c0.7-1.2,2-2,3.5-2c2.3,0,4.1,1.8,4.1,4.1c0,0.1,0,0.2,0,0.4
		c0.1,0,0.2,0,0.3,0c1.8,0,3.3,1.5,3.3,3.3c0,1.8-1.5,3.3-3.3,3.3h-15c-1.8,0-3.3-1.5-3.3-3.3c0-1.8,1.5-3.3,3.3-3.3
		c0.4,0,0.8,0.1,1.2,0.2c-0.4-0.5-0.6-1.2-0.6-1.9C790.5,498.2,792,496.7,793.8,496.7z"/>
	<path class="st8" d="M900.5,490.7c1.6,0,2.9,1.1,3.3,2.6c0.7-1.2,2-2,3.5-2c2.3,0,4.1,1.9,4.1,4.1c0,0.1,0,0.2,0,0.4
		c0.1,0,0.2,0,0.3,0c1.9,0,3.4,1.5,3.4,3.4c0,1.9-1.5,3.4-3.4,3.4h-15.2c-1.9,0-3.4-1.5-3.4-3.4c0-1.9,1.5-3.4,3.4-3.4
		c0.4,0,0.9,0.1,1.2,0.2c-0.4-0.5-0.6-1.2-0.6-1.9C897.1,492.2,898.6,490.7,900.5,490.7z"/>
	<g>
		<rect x="605" y="453.2" class="st5" width="69.3" height="53.4"/>
		<g>
			
				<rect x="631.5" y="490.9" transform="matrix(-1.836970e-16 1 -1 -1.836970e-16 1138.1189 -141.0499)" class="st10" width="16.1" height="15.3"/>
			<rect x="632.7" y="491.3" class="st11" width="13.7" height="15.3"/>
			<rect x="632.7" y="491.3" class="st12" width="6.9" height="15.3"/>
		</g>
		<rect x="601.7" y="450" class="st11" width="75.8" height="3.2"/>
		<g>
			<g>
				<g>
					
						<rect x="609.4" y="459.6" transform="matrix(-1.836970e-16 1 -1 -1.836970e-16 1078.1052 -151.6533)" class="st10" width="10.9" height="7.3"/>
					<rect x="612" y="458.6" class="st11" width="5.7" height="9.3"/>
					<polygon class="st12" points="612,467.9 617.7,458.6 612,458.6 					"/>
				</g>
				<g>
					
						<rect x="616" y="459.6" transform="matrix(-1.836970e-16 1 -1 -1.836970e-16 1084.6176 -158.1656)" class="st10" width="10.9" height="7.3"/>
					<rect x="618.5" y="458.6" class="st11" width="5.7" height="9.3"/>
					<polygon class="st12" points="618.5,467.9 624.3,458.6 618.5,458.6 					"/>
				</g>
			</g>
			<g>
				<g>
					
						<rect x="630.9" y="459.6" transform="matrix(-1.836970e-16 1 -1 -1.836970e-16 1099.5542 -173.1023)" class="st10" width="10.9" height="7.3"/>
					<rect x="633.5" y="458.6" class="st11" width="5.7" height="9.3"/>
					<polygon class="st12" points="633.5,467.9 639.2,458.6 633.5,458.6 					"/>
				</g>
				<g>
					
						<rect x="637.4" y="459.6" transform="matrix(-1.836970e-16 1 -1 -1.836970e-16 1106.0667 -179.6147)" class="st10" width="10.9" height="7.3"/>
					<rect x="640" y="458.6" class="st11" width="5.7" height="9.3"/>
					<polygon class="st12" points="640,467.9 645.7,458.6 640,458.6 					"/>
				</g>
			</g>
			<g>
				<g>
					
						<rect x="652.3" y="459.6" transform="matrix(-1.836970e-16 1 -1 -1.836970e-16 1121.0034 -194.5515)" class="st10" width="10.9" height="7.3"/>
					<rect x="654.9" y="458.6" class="st11" width="5.7" height="9.3"/>
					<polygon class="st12" points="654.9,467.9 660.6,458.6 654.9,458.6 					"/>
				</g>
				<g>
					
						<rect x="658.9" y="459.6" transform="matrix(-1.836970e-16 1 -1 -1.836970e-16 1127.5161 -201.0641)" class="st10" width="10.9" height="7.3"/>
					<rect x="661.4" y="458.6" class="st11" width="5.7" height="9.3"/>
					<polygon class="st12" points="661.4,467.9 667.1,458.6 661.4,458.6 					"/>
				</g>
			</g>
		</g>
		<g>
			<g>
				<g>
					
						<rect x="609.4" y="475.1" transform="matrix(-1.836970e-16 1 -1 -1.836970e-16 1093.5868 -136.1718)" class="st10" width="10.9" height="7.3"/>
					<rect x="612" y="474.1" class="st11" width="5.7" height="9.3"/>
					<polygon class="st12" points="612,483.3 617.7,474.1 612,474.1 					"/>
				</g>
				<g>
					
						<rect x="616" y="475.1" transform="matrix(-1.836970e-16 1 -1 -1.836970e-16 1100.0991 -142.6841)" class="st10" width="10.9" height="7.3"/>
					<rect x="618.5" y="474.1" class="st11" width="5.7" height="9.3"/>
					<polygon class="st12" points="618.5,483.3 624.3,474.1 618.5,474.1 					"/>
				</g>
			</g>
			<g>
				<g>
					
						<rect x="630.9" y="475.1" transform="matrix(-1.836970e-16 1 -1 -1.836970e-16 1115.0358 -157.6208)" class="st10" width="10.9" height="7.3"/>
					<rect x="633.5" y="474.1" class="st11" width="5.7" height="9.3"/>
					<polygon class="st12" points="633.5,483.3 639.2,474.1 633.5,474.1 					"/>
				</g>
				<g>
					
						<rect x="637.4" y="475.1" transform="matrix(-1.836970e-16 1 -1 -1.836970e-16 1121.5481 -164.1331)" class="st10" width="10.9" height="7.3"/>
					<rect x="640" y="474.1" class="st11" width="5.7" height="9.3"/>
					<polygon class="st12" points="640,483.3 645.7,474.1 640,474.1 					"/>
				</g>
			</g>
			<g>
				<g>
					
						<rect x="652.3" y="475.1" transform="matrix(-1.836970e-16 1 -1 -1.836970e-16 1136.485 -179.0699)" class="st10" width="10.9" height="7.3"/>
					<rect x="654.9" y="474.1" class="st11" width="5.7" height="9.3"/>
					<polygon class="st12" points="654.9,483.3 660.6,474.1 654.9,474.1 					"/>
				</g>
				<g>
					
						<rect x="658.9" y="475.1" transform="matrix(-1.836970e-16 1 -1 -1.836970e-16 1142.9977 -185.5826)" class="st10" width="10.9" height="7.3"/>
					<rect x="661.4" y="474.1" class="st11" width="5.7" height="9.3"/>
					<polygon class="st12" points="661.4,483.3 667.1,474.1 661.4,474.1 					"/>
				</g>
			</g>
		</g>
		<g>
			
				<rect x="653.9" y="490.9" transform="matrix(-1.836970e-16 1 -1 -1.836970e-16 1160.4584 -158.7822)" class="st10" width="11.5" height="20"/>
			<rect x="650.4" y="495.9" class="st11" width="18.4" height="10.7"/>
			<g>
				<rect x="651.3" y="496.7" class="st13" width="16.6" height="0.8"/>
				<rect x="651.3" y="498.5" class="st13" width="16.6" height="0.8"/>
				<rect x="651.3" y="500.3" class="st13" width="16.6" height="0.8"/>
				<rect x="651.3" y="502.2" class="st13" width="16.6" height="0.8"/>
				<rect x="651.3" y="504" class="st13" width="16.6" height="0.8"/>
				<rect x="651.3" y="505.8" class="st13" width="16.6" height="0.8"/>
			</g>
		</g>
		<g>
			
				<rect x="613.8" y="490.9" transform="matrix(-1.836970e-16 1 -1 -1.836970e-16 1120.3876 -118.7114)" class="st10" width="11.5" height="20"/>
			
				<rect x="610.4" y="495.9" transform="matrix(-1 -1.224647e-16 1.224647e-16 -1 1239.0973 1002.4729)" class="st11" width="18.4" height="10.7"/>
			<g>
				<rect x="611.2" y="496.7" class="st13" width="16.6" height="0.8"/>
				<rect x="611.2" y="498.5" class="st13" width="16.6" height="0.8"/>
				<rect x="611.2" y="500.3" class="st13" width="16.6" height="0.8"/>
				<rect x="611.2" y="502.2" class="st13" width="16.6" height="0.8"/>
				<rect x="611.2" y="504" class="st13" width="16.6" height="0.8"/>
				<rect x="611.2" y="505.8" class="st13" width="16.6" height="0.8"/>
			</g>
		</g>
		<polygon class="st14" points="673,439.5 606.2,439.5 601.7,450 677.5,450 		"/>
	</g>
	<path class="st8" d="M1098.8,456c1.4-0.3,2.8,0.3,3.5,1.6c0.4-1.2,1.4-2.2,2.7-2.5c2-0.5,4.1,0.7,4.6,2.7c0,0.1,0,0.2,0.1,0.3
		c0.1,0,0.2-0.1,0.3-0.1c1.6-0.4,3.3,0.6,3.7,2.2c0.4,1.6-0.6,3.3-2.2,3.7l-13.5,3.3c-1.6,0.4-3.3-0.6-3.7-2.2
		c-0.4-1.6,0.6-3.3,2.2-3.7c0.4-0.1,0.8-0.1,1.1-0.1c-0.5-0.4-0.8-0.9-1-1.6C1096.1,458.1,1097.1,456.4,1098.8,456z"/>
	<path class="st8" d="M1082.2,459.2c1.4-0.3,2.8,0.3,3.5,1.6c0.4-1.2,1.4-2.2,2.7-2.5c2-0.5,4.1,0.7,4.6,2.7c0,0.1,0,0.2,0.1,0.3
		c0.1,0,0.2-0.1,0.3-0.1c1.6-0.4,3.3,0.6,3.7,2.2c0.4,1.6-0.6,3.3-2.2,3.7l-13.5,3.3c-1.6,0.4-3.3-0.6-3.7-2.2
		c-0.4-1.6,0.6-3.3,2.2-3.7c0.4-0.1,0.8-0.1,1.1-0.1c-0.5-0.4-0.8-0.9-1-1.6C1079.5,461.2,1080.5,459.6,1082.2,459.2z"/>
	<path class="st8" d="M1113.6,446.8c1.5-0.4,3.1,0.4,3.8,1.7c0.4-1.3,1.5-2.4,2.9-2.8c2.2-0.6,4.5,0.8,5,3c0,0.1,0.1,0.2,0.1,0.4
		c0.1,0,0.2-0.1,0.3-0.1c1.8-0.4,3.6,0.7,4.1,2.5c0.4,1.8-0.6,3.6-2.5,4.1l-14.8,3.7c-1.8,0.4-3.6-0.7-4.1-2.5
		c-0.4-1.8,0.7-3.6,2.5-4.1c0.4-0.1,0.8-0.1,1.3-0.1c-0.5-0.4-0.9-1-1.1-1.7C1110.7,449.1,1111.8,447.3,1113.6,446.8z"/>
	<ellipse class="st9" cx="850.3" cy="406" rx="46.7" ry="48.4"/>
	<g>
		<path class="st15" d="M1253.9,351.2v-75.7c53.8,39.9,150.7,44.2,221.5,50c50.7,4.2,87.5,14.6,87.5,14.6l-80.8,11H1253.9z"/>
	</g>
	<g>
		<path class="st15" d="M1129.4,542.1v-90.6c-230.9,82-483.2,47-571.3,54.2v36.5H1129.4z"/>
	</g>
	<g class="st16">
		<path class="st17" d="M1129.4,500.1v-48.7c-230.9,82-483.2,47-571.3,54.2v24.6C697.8,532.7,913.6,538.3,1129.4,500.1z"/>
	</g>
	<g>
		<rect x="700.7" y="397" class="st18" width="65.6" height="111.3"/>
		<g>
			
				<rect x="722.2" y="488.8" transform="matrix(-1.836970e-16 1 -1 -1.836970e-16 1230.5815 -235.4465)" class="st19" width="21.7" height="17.6"/>
			<rect x="725.3" y="487.8" class="st18" width="15.5" height="20.6"/>
			<rect x="725.3" y="487.8" class="st12" width="7.7" height="20.6"/>
		</g>
		<rect x="696.3" y="392.8" class="st20" width="74.3" height="4.3"/>
		<g>
			<g>
				<g>
					
						<rect x="707.5" y="405.6" transform="matrix(-1.836970e-16 1 -1 -1.836970e-16 1125.2856 -304.2255)" class="st19" width="14.6" height="9.8"/>
					<rect x="710.9" y="404.3" class="st21" width="7.7" height="12.4"/>
					<polygon class="st12" points="710.9,416.7 718.6,404.3 710.9,404.3 					"/>
				</g>
				<g>
					
						<rect x="716.2" y="405.6" transform="matrix(-1.836970e-16 1 -1 -1.836970e-16 1134.0206 -312.9605)" class="st19" width="14.6" height="9.8"/>
					<rect x="719.7" y="404.3" class="st21" width="7.7" height="12.4"/>
					<polygon class="st12" points="719.7,416.7 727.3,404.3 719.7,404.3 					"/>
				</g>
			</g>
			<g>
				<g>
					
						<rect x="736.2" y="405.6" transform="matrix(-1.836970e-16 1 -1 -1.836970e-16 1154.0548 -332.9947)" class="st19" width="14.6" height="9.8"/>
					<rect x="739.7" y="404.3" class="st21" width="7.7" height="12.4"/>
					<polygon class="st12" points="739.7,416.7 747.4,404.3 739.7,404.3 					"/>
				</g>
				<g>
					
						<rect x="745" y="405.6" transform="matrix(-1.836970e-16 1 -1 -1.836970e-16 1162.7898 -341.7297)" class="st19" width="14.6" height="9.8"/>
					<rect x="748.4" y="404.3" class="st21" width="7.7" height="12.4"/>
					<polygon class="st12" points="748.4,416.7 756.1,404.3 748.4,404.3 					"/>
				</g>
			</g>
		</g>
		<g>
			<g>
				<g>
					
						<rect x="707.5" y="426.4" transform="matrix(-1.836970e-16 1 -1 -1.836970e-16 1146.0507 -283.4605)" class="st19" width="14.6" height="9.8"/>
					<rect x="710.9" y="425.1" class="st21" width="7.7" height="12.4"/>
					<polygon class="st12" points="710.9,437.5 718.6,425.1 710.9,425.1 					"/>
				</g>
				<g>
					
						<rect x="716.2" y="426.4" transform="matrix(-1.836970e-16 1 -1 -1.836970e-16 1154.7856 -292.1955)" class="st19" width="14.6" height="9.8"/>
					<rect x="719.7" y="425.1" class="st21" width="7.7" height="12.4"/>
					<polygon class="st12" points="719.7,437.5 727.3,425.1 719.7,425.1 					"/>
				</g>
			</g>
			<g>
				<g>
					
						<rect x="736.2" y="426.4" transform="matrix(-1.836970e-16 1 -1 -1.836970e-16 1174.8198 -312.2296)" class="st19" width="14.6" height="9.8"/>
					<rect x="739.7" y="425.1" class="st21" width="7.7" height="12.4"/>
					<polygon class="st12" points="739.7,437.5 747.4,425.1 739.7,425.1 					"/>
				</g>
				<g>
					
						<rect x="745" y="426.4" transform="matrix(-1.836970e-16 1 -1 -1.836970e-16 1183.5548 -320.9647)" class="st19" width="14.6" height="9.8"/>
					<rect x="748.4" y="425.1" class="st21" width="7.7" height="12.4"/>
					<polygon class="st12" points="748.4,437.5 756.1,425.1 748.4,425.1 					"/>
				</g>
			</g>
		</g>
		<g>
			<g>
				<g>
					
						<rect x="707.5" y="447.4" transform="matrix(-1.836970e-16 1 -1 -1.836970e-16 1167.0326 -262.4786)" class="st19" width="14.6" height="9.8"/>
					<rect x="710.9" y="446.1" class="st21" width="7.7" height="12.4"/>
					<polygon class="st12" points="710.9,458.5 718.6,446.1 710.9,446.1 					"/>
				</g>
				<g>
					
						<rect x="716.2" y="447.4" transform="matrix(-1.836970e-16 1 -1 -1.836970e-16 1175.7676 -271.2136)" class="st19" width="14.6" height="9.8"/>
					<rect x="719.7" y="446.1" class="st21" width="7.7" height="12.4"/>
					<polygon class="st12" points="719.7,458.5 727.3,446.1 719.7,446.1 					"/>
				</g>
			</g>
			<g>
				<g>
					
						<rect x="736.2" y="447.4" transform="matrix(-1.836970e-16 1 -1 -1.836970e-16 1195.8018 -291.2477)" class="st19" width="14.6" height="9.8"/>
					<rect x="739.7" y="446.1" class="st21" width="7.7" height="12.4"/>
					<polygon class="st12" points="739.7,458.5 747.4,446.1 739.7,446.1 					"/>
				</g>
				<g>
					
						<rect x="745" y="447.4" transform="matrix(-1.836970e-16 1 -1 -1.836970e-16 1204.5367 -299.9828)" class="st19" width="14.6" height="9.8"/>
					<rect x="748.4" y="446.1" class="st21" width="7.7" height="12.4"/>
					<polygon class="st12" points="748.4,458.5 756.1,446.1 748.4,446.1 					"/>
				</g>
			</g>
		</g>
		<g>
			<g>
				<g>
					
						<rect x="707.5" y="468.1" transform="matrix(-1.836970e-16 1 -1 -1.836970e-16 1187.7976 -241.7136)" class="st19" width="14.6" height="9.8"/>
					<rect x="710.9" y="466.8" class="st21" width="7.7" height="12.4"/>
					<polygon class="st12" points="710.9,479.3 718.6,466.8 710.9,466.8 					"/>
				</g>
				<g>
					
						<rect x="716.2" y="468.1" transform="matrix(-1.836970e-16 1 -1 -1.836970e-16 1196.5326 -250.4486)" class="st19" width="14.6" height="9.8"/>
					<rect x="719.7" y="466.8" class="st21" width="7.7" height="12.4"/>
					<polygon class="st12" points="719.7,479.3 727.3,466.8 719.7,466.8 					"/>
				</g>
			</g>
			<g>
				<g>
					
						<rect x="736.2" y="468.1" transform="matrix(-1.836970e-16 1 -1 -1.836970e-16 1216.5668 -270.4828)" class="st19" width="14.6" height="9.8"/>
					<rect x="739.7" y="466.8" class="st21" width="7.7" height="12.4"/>
					<polygon class="st12" points="739.7,479.3 747.4,466.8 739.7,466.8 					"/>
				</g>
				<g>
					
						<rect x="745" y="468.1" transform="matrix(-1.836970e-16 1 -1 -1.836970e-16 1225.3018 -279.2177)" class="st19" width="14.6" height="9.8"/>
					<rect x="748.4" y="466.8" class="st21" width="7.7" height="12.4"/>
					<polygon class="st12" points="748.4,479.3 756.1,466.8 748.4,466.8 					"/>
				</g>
			</g>
		</g>
		<polygon class="st19" points="764.6,378.7 702.4,378.7 696.3,392.8 770.6,392.8 		"/>
	</g>
	<path class="st22" d="M736.9,500.2c1.7,0,3.2,1.2,3.6,2.8c0.8-1.3,2.2-2.2,3.9-2.2c2.5,0,4.5,2,4.5,4.5c0,0.1,0,0.3,0,0.4
		c0.1,0,0.2,0,0.4,0c2,0,3.7,1.6,3.7,3.7c0,2-1.6,3.7-3.7,3.7h-16.6c-2,0-3.7-1.6-3.7-3.7c0-2,1.6-3.7,3.7-3.7
		c0.5,0,0.9,0.1,1.3,0.3c-0.4-0.6-0.7-1.3-0.7-2.1C733.2,501.8,734.9,500.2,736.9,500.2z"/>
	<path class="st22" d="M752.4,500.9c1.7,0,3.2,1.2,3.6,2.8c0.8-1.3,2.2-2.2,3.9-2.2c2.5,0,4.5,2,4.5,4.5c0,0.1,0,0.3,0,0.4
		c0.1,0,0.2,0,0.4,0c2,0,3.7,1.6,3.7,3.7c0,2-1.6,3.7-3.7,3.7H748c-2,0-3.7-1.6-3.7-3.7c0-2,1.6-3.7,3.7-3.7c0.5,0,0.9,0.1,1.3,0.3
		c-0.4-0.6-0.7-1.3-0.7-2.1C748.7,502.6,750.4,500.9,752.4,500.9z"/>
	<g>
		<rect x="1016.8" y="387.2" class="st18" width="65.6" height="95.6"/>
		<g>
			
				<rect x="1038.3" y="463.2" transform="matrix(-1.836970e-16 1 -1 -1.836970e-16 1521.1079 -577.0729)" class="st19" width="21.7" height="17.6"/>
			<rect x="1041.3" y="462.3" class="st18" width="15.5" height="20.6"/>
			<rect x="1041.3" y="462.3" class="st12" width="7.7" height="20.6"/>
		</g>
		<rect x="1012.4" y="382.9" class="st20" width="74.3" height="4.3"/>
		<g>
			<g>
				<g>
					
						<rect x="1023.5" y="395.8" transform="matrix(-1.836970e-16 1 -1 -1.836970e-16 1431.5171 -630.1472)" class="st19" width="14.6" height="9.8"/>
					<rect x="1027" y="394.5" class="st21" width="7.7" height="12.4"/>
					<polygon class="st12" points="1027,406.9 1034.7,394.5 1027,394.5 					"/>
				</g>
				<g>
					
						<rect x="1032.3" y="395.8" transform="matrix(-1.836970e-16 1 -1 -1.836970e-16 1440.252 -638.8821)" class="st19" width="14.6" height="9.8"/>
					<rect x="1035.7" y="394.5" class="st21" width="7.7" height="12.4"/>
					<polygon class="st12" points="1035.7,406.9 1043.4,394.5 1035.7,394.5 					"/>
				</g>
			</g>
			<g>
				<g>
					
						<rect x="1052.3" y="395.8" transform="matrix(-1.836970e-16 1 -1 -1.836970e-16 1460.2863 -658.9163)" class="st19" width="14.6" height="9.8"/>
					<rect x="1055.8" y="394.5" class="st21" width="7.7" height="12.4"/>
					<polygon class="st12" points="1055.8,406.9 1063.4,394.5 1055.8,394.5 					"/>
				</g>
				<g>
					
						<rect x="1061.1" y="395.8" transform="matrix(-1.836970e-16 1 -1 -1.836970e-16 1469.0211 -667.6512)" class="st19" width="14.6" height="9.8"/>
					<rect x="1064.5" y="394.5" class="st21" width="7.7" height="12.4"/>
					<polygon class="st12" points="1064.5,406.9 1072.2,394.5 1064.5,394.5 					"/>
				</g>
			</g>
		</g>
		<g>
			<g>
				<g>
					
						<rect x="1023.5" y="416.5" transform="matrix(-1.836970e-16 1 -1 -1.836970e-16 1452.2821 -609.3821)" class="st19" width="14.6" height="9.8"/>
					<rect x="1027" y="415.2" class="st21" width="7.7" height="12.4"/>
					<polygon class="st12" points="1027,427.7 1034.7,415.2 1027,415.2 					"/>
				</g>
				<g>
					
						<rect x="1032.3" y="416.5" transform="matrix(-1.836970e-16 1 -1 -1.836970e-16 1461.017 -618.117)" class="st19" width="14.6" height="9.8"/>
					<rect x="1035.7" y="415.2" class="st21" width="7.7" height="12.4"/>
					<polygon class="st12" points="1035.7,427.7 1043.4,415.2 1035.7,415.2 					"/>
				</g>
			</g>
			<g>
				<g>
					
						<rect x="1052.3" y="416.5" transform="matrix(-1.836970e-16 1 -1 -1.836970e-16 1481.0513 -638.1512)" class="st19" width="14.6" height="9.8"/>
					<rect x="1055.8" y="415.2" class="st21" width="7.7" height="12.4"/>
					<polygon class="st12" points="1055.8,427.7 1063.4,415.2 1055.8,415.2 					"/>
				</g>
				<g>
					
						<rect x="1061.1" y="416.5" transform="matrix(-1.836970e-16 1 -1 -1.836970e-16 1489.7861 -646.8862)" class="st19" width="14.6" height="9.8"/>
					<rect x="1064.5" y="415.2" class="st21" width="7.7" height="12.4"/>
					<polygon class="st12" points="1064.5,427.7 1072.2,415.2 1064.5,415.2 					"/>
				</g>
			</g>
		</g>
		<g>
			<g>
				<g>
					
						<rect x="1023.5" y="437.5" transform="matrix(-1.836970e-16 1 -1 -1.836970e-16 1473.2639 -588.4003)" class="st19" width="14.6" height="9.8"/>
					<rect x="1027" y="436.2" class="st21" width="7.7" height="12.4"/>
					<polygon class="st12" points="1027,448.6 1034.7,436.2 1027,436.2 					"/>
				</g>
				<g>
					
						<rect x="1032.3" y="437.5" transform="matrix(-1.836970e-16 1 -1 -1.836970e-16 1481.9989 -597.1351)" class="st19" width="14.6" height="9.8"/>
					<rect x="1035.7" y="436.2" class="st21" width="7.7" height="12.4"/>
					<polygon class="st12" points="1035.7,448.6 1043.4,436.2 1035.7,436.2 					"/>
				</g>
			</g>
			<g>
				<g>
					
						<rect x="1052.3" y="437.5" transform="matrix(-1.836970e-16 1 -1 -1.836970e-16 1502.0331 -617.1694)" class="st19" width="14.6" height="9.8"/>
					<rect x="1055.8" y="436.2" class="st21" width="7.7" height="12.4"/>
					<polygon class="st12" points="1055.8,448.6 1063.4,436.2 1055.8,436.2 					"/>
				</g>
				<g>
					
						<rect x="1061.1" y="437.5" transform="matrix(-1.836970e-16 1 -1 -1.836970e-16 1510.7679 -625.9043)" class="st19" width="14.6" height="9.8"/>
					<rect x="1064.5" y="436.2" class="st21" width="7.7" height="12.4"/>
					<polygon class="st12" points="1064.5,448.6 1072.2,436.2 1064.5,436.2 					"/>
				</g>
			</g>
		</g>
		<polygon class="st19" points="1080.7,368.8 1018.5,368.8 1012.4,382.9 1086.7,382.9 		"/>
	</g>
	<path class="st23" d="M1304.2,331.1c1.7,0,3.2,1.2,3.6,2.8c0.8-1.3,2.2-2.2,3.9-2.2c2.5,0,4.5,2,4.5,4.5c0,0.1,0,0.3,0,0.4
		c0.1,0,0.2,0,0.4,0c2,0,3.7,1.6,3.7,3.7c0,2-1.6,3.7-3.7,3.7h-16.6c-2,0-3.7-1.6-3.7-3.7c0-2,1.6-3.7,3.7-3.7
		c0.5,0,0.9,0.1,1.3,0.3c-0.4-0.6-0.7-1.3-0.7-2.1C1300.5,332.8,1302.1,331.1,1304.2,331.1z"/>
	<path class="st23" d="M1267.8,331.9c1.7,0,3.2,1.2,3.6,2.8c0.8-1.3,2.2-2.2,3.9-2.2c2.5,0,4.5,2,4.5,4.5c0,0.1,0,0.3,0,0.4
		c0.1,0,0.2,0,0.4,0c2,0,3.7,1.6,3.7,3.7c0,2-1.6,3.7-3.7,3.7h-16.6c-2,0-3.7-1.6-3.7-3.7c0-2,1.6-3.7,3.7-3.7
		c0.5,0,0.9,0.1,1.3,0.3c-0.4-0.6-0.7-1.3-0.7-2.1C1264.1,333.6,1265.8,331.9,1267.8,331.9z"/>
	<path class="st22" d="M1285.1,333.6c1.7,0,3.2,1.2,3.6,2.8c0.8-1.3,2.2-2.2,3.9-2.2c2.5,0,4.5,2,4.5,4.5c0,0.1,0,0.3,0,0.4
		c0.1,0,0.2,0,0.4,0c2,0,3.7,1.6,3.7,3.7c0,2-1.6,3.7-3.7,3.7h-16.6c-2,0-3.7-1.6-3.7-3.7c0-2,1.6-3.7,3.7-3.7
		c0.5,0,0.9,0.1,1.3,0.3c-0.4-0.6-0.7-1.3-0.7-2.1C1281.4,335.3,1283.1,333.6,1285.1,333.6z"/>
	<g>
		<g>
			<path class="st24" d="M888.5,509.2c-2.8,1.6-7.4,1.6-10.2,0c-2.8-1.6-2.8-4.3,0-5.9c2.8-1.6,7.4-1.6,10.2,0
				C891.3,504.9,891.3,507.6,888.5,509.2z"/>
			<g>
				<path class="st3" d="M885.6,505.7c0,1.2-1,2.2-2.2,2.2l0,0c-1.2,0-2.2-1-2.2-2.2v-12.4c0-1.2,1-2.2,2.2-2.2l0,0
					c1.2,0,2.2,1,2.2,2.2V505.7z"/>
				<path class="st4" d="M883.4,500.4c0.8,0,1.5-0.1,2.2-0.2v-6.9c0-1.2-1-2.2-2.2-2.2c-1.2,0-2.2,1-2.2,2.2v6.9
					C882,500.4,882.7,500.4,883.4,500.4z"/>
				<path class="st25" d="M893.2,488.1c0,5.4-4.4,9.8-9.8,9.8c-5.4,0-9.8-4.4-9.8-9.8c0-5.4,4.4-27,9.8-27
					C888.8,461.1,893.2,482.7,893.2,488.1z"/>
				<path class="st23" d="M883.4,461.1c-0.3,0-0.5,0-0.8,0.1c2.5,6.8,4.2,16.2,4.2,19.5c0,5.4-4.4,9.8-9.8,9.8
					c-1.1,0-2.2-0.2-3.2-0.5c0.9,4.5,4.8,7.9,9.6,7.9c5.4,0,9.8-4.4,9.8-9.8C893.2,482.7,888.8,461.1,883.4,461.1z"/>
			</g>
		</g>
		
			<ellipse transform="matrix(0.2325 -0.9726 0.9726 0.2325 210.2157 1220.8652)" class="st26" cx="878.7" cy="477.2" rx="6.8" ry="1.4"/>
	</g>
	<g>
		<g>
			<path class="st24" d="M832.6,513.1c-2.8,1.6-7.4,1.6-10.2,0c-2.8-1.6-2.8-4.3,0-5.9c2.8-1.6,7.4-1.6,10.2,0
				C835.4,508.8,835.4,511.5,832.6,513.1z"/>
			<g>
				<path class="st3" d="M829.7,509.6c0,1.2-1,2.2-2.2,2.2l0,0c-1.2,0-2.2-1-2.2-2.2v-12.4c0-1.2,1-2.2,2.2-2.2l0,0
					c1.2,0,2.2,1,2.2,2.2V509.6z"/>
				<path class="st4" d="M827.5,504.3c0.8,0,1.5-0.1,2.2-0.2v-6.9c0-1.2-1-2.2-2.2-2.2c-1.2,0-2.2,1-2.2,2.2v6.9
					C826,504.2,826.7,504.3,827.5,504.3z"/>
				<path class="st25" d="M837.3,492c0,5.4-4.4,9.8-9.8,9.8c-5.4,0-9.8-4.4-9.8-9.8c0-5.4,4.4-27,9.8-27
					C832.9,465,837.3,486.6,837.3,492z"/>
				<path class="st23" d="M827.5,465c-0.3,0-0.5,0-0.8,0.1c2.5,6.8,4.2,16.2,4.2,19.5c0,5.4-4.4,9.8-9.8,9.8c-1.1,0-2.2-0.2-3.2-0.5
					c0.9,4.5,4.8,7.9,9.6,7.9c5.4,0,9.8-4.4,9.8-9.8C837.3,486.6,832.9,465,827.5,465z"/>
			</g>
		</g>
		
			<ellipse transform="matrix(0.2325 -0.9726 0.9726 0.2325 163.5092 1169.4369)" class="st26" cx="822.8" cy="481.1" rx="6.8" ry="1.4"/>
	</g>
	<g>
		<g>
			<g>
				<path class="st3" d="M791.3,508.6c0,1.3-1,2.3-2.2,2.3l0,0c-1.2,0-2.2-1-2.2-2.3v-12.9c0-1.3,1-2.3,2.2-2.3l0,0
					c1.2,0,2.2,1,2.2,2.3V508.6z"/>
				<path class="st4" d="M789.1,503.1c0.8,0,1.5-0.1,2.2-0.3v-7.1c0-1.3-1-2.3-2.2-2.3c-1.2,0-2.2,1-2.2,2.3v7.1
					C787.6,503,788.3,503.1,789.1,503.1z"/>
				<path class="st25" d="M798.9,490.3c0,5.6-4.4,10.2-9.8,10.2c-5.4,0-9.8-4.6-9.8-10.2c0-5.6,4.4-28.1,9.8-28.1
					C794.5,462.2,798.9,484.6,798.9,490.3z"/>
				<path class="st23" d="M789.1,462.2c-0.3,0-0.5,0.1-0.8,0.1c2.5,7.1,4.2,16.9,4.2,20.3c0,5.6-4.4,10.2-9.8,10.2
					c-1.1,0-2.2-0.2-3.2-0.6c0.9,4.7,4.8,8.2,9.6,8.2c5.4,0,9.8-4.6,9.8-10.2C798.9,484.6,794.5,462.2,789.1,462.2z"/>
			</g>
		</g>
		<path class="st26" d="M782.8,485.8c0.8,0.2,2.1-2.7,3-6.5c0.9-3.8,1-7,0.2-7.2c-0.8-0.2-2.1,2.7-3,6.5
			C782.1,482.4,782,485.6,782.8,485.8z"/>
	</g>
	<g>
		<g>
			<path class="st24" d="M755.7,520.6c-2.8,1.6-7.4,1.6-10.2,0c-2.8-1.6-2.8-4.3,0-5.9c2.8-1.6,7.4-1.6,10.2,0
				C758.5,516.4,758.5,519,755.7,520.6z"/>
			<g>
				<path class="st3" d="M752.8,517.2c0,1.2-1,2.2-2.2,2.2l0,0c-1.2,0-2.2-1-2.2-2.2v-12.4c0-1.2,1-2.2,2.2-2.2l0,0
					c1.2,0,2.2,1,2.2,2.2V517.2z"/>
				<path class="st4" d="M750.6,511.9c0.8,0,1.5-0.1,2.2-0.2v-6.9c0-1.2-1-2.2-2.2-2.2c-1.2,0-2.2,1-2.2,2.2v6.9
					C749.1,511.8,749.9,511.9,750.6,511.9z"/>
				<path class="st25" d="M760.4,499.6c0,5.4-4.4,9.8-9.8,9.8c-5.4,0-9.8-4.4-9.8-9.8c0-5.4,4.4-27,9.8-27
					C756,472.6,760.4,494.2,760.4,499.6z"/>
				<path class="st23" d="M750.6,472.6c-0.3,0-0.5,0-0.8,0.1c2.5,6.8,4.2,16.2,4.2,19.5c0,5.4-4.4,9.8-9.8,9.8
					c-1.1,0-2.2-0.2-3.2-0.5c0.9,4.5,4.8,7.9,9.6,7.9c5.4,0,9.8-4.4,9.8-9.8C760.4,494.2,756,472.6,750.6,472.6z"/>
			</g>
		</g>
		
			<ellipse transform="matrix(0.2325 -0.9726 0.9726 0.2325 97.1536 1100.4558)" class="st26" cx="745.9" cy="488.7" rx="6.8" ry="1.4"/>
	</g>
	<path class="st23" d="M1454.3,331.1c1.7,0,3.2,1.2,3.6,2.8c0.8-1.3,2.2-2.2,3.9-2.2c2.5,0,4.5,2,4.5,4.5c0,0.1,0,0.3,0,0.4
		c0.1,0,0.2,0,0.4,0c2,0,3.7,1.6,3.7,3.7c0,2-1.6,3.7-3.7,3.7h-16.6c-2,0-3.7-1.6-3.7-3.7c0-2,1.6-3.7,3.7-3.7
		c0.5,0,0.9,0.1,1.3,0.3c-0.4-0.6-0.7-1.3-0.7-2.1C1450.6,332.8,1452.2,331.1,1454.3,331.1z"/>
	<path class="st23" d="M1417.9,331.9c1.7,0,3.2,1.2,3.6,2.8c0.8-1.3,2.2-2.2,3.9-2.2c2.5,0,4.5,2,4.5,4.5c0,0.1,0,0.3,0,0.4
		c0.1,0,0.2,0,0.4,0c2,0,3.7,1.6,3.7,3.7c0,2-1.6,3.7-3.7,3.7h-16.6c-2,0-3.7-1.6-3.7-3.7c0-2,1.6-3.7,3.7-3.7
		c0.5,0,0.9,0.1,1.3,0.3c-0.4-0.6-0.7-1.3-0.7-2.1C1414.2,333.6,1415.9,331.9,1417.9,331.9z"/>
	<path class="st22" d="M1435.2,333.6c1.7,0,3.2,1.2,3.6,2.8c0.8-1.3,2.2-2.2,3.9-2.2c2.5,0,4.5,2,4.5,4.5c0,0.1,0,0.3,0,0.4
		c0.1,0,0.2,0,0.4,0c2,0,3.7,1.6,3.7,3.7c0,2-1.6,3.7-3.7,3.7h-16.6c-2,0-3.7-1.6-3.7-3.7c0-2,1.6-3.7,3.7-3.7
		c0.5,0,0.9,0.1,1.3,0.3c-0.4-0.6-0.7-1.3-0.7-2.1C1431.5,335.3,1433.2,333.6,1435.2,333.6z"/>
	<g>
		<g>
			<path class="st3" d="M1432.4,339.8c0,1.3-1.1,2.4-2.4,2.4l0,0c-1.3,0-2.4-1.1-2.4-2.4v-13.5c0-1.3,1.1-2.4,2.4-2.4l0,0
				c1.3,0,2.4,1.1,2.4,2.4V339.8z"/>
			<path class="st4" d="M1430,334.1c0.8,0,1.6-0.1,2.4-0.3v-7.5c0-1.3-1.1-2.4-2.4-2.4c-1.3,0-2.4,1.1-2.4,2.4v7.5
				C1428.4,334,1429.2,334.1,1430,334.1z"/>
			<path class="st25" d="M1440.7,320.7c0,5.9-4.8,10.7-10.7,10.7s-10.7-4.8-10.7-10.7c0-5.9,4.8-29.5,10.7-29.5
				S1440.7,314.8,1440.7,320.7z"/>
			<path class="st23" d="M1430,291.2c-0.3,0-0.6,0.1-0.8,0.2c2.8,7.4,4.6,17.7,4.6,21.3c0,5.9-4.8,10.7-10.7,10.7
				c-1.2,0-2.4-0.2-3.5-0.6c1,4.9,5.3,8.6,10.5,8.6c5.9,0,10.7-4.8,10.7-10.7C1440.7,314.8,1435.9,291.2,1430,291.2z"/>
		</g>
	</g>
	<g>
		<rect x="1312.3" y="268.3" class="st27" width="43.5" height="74.9"/>
		<rect x="1309.7" y="264" class="st14" width="48.6" height="4.2"/>
		<rect x="1309.7" y="261.9" class="st11" width="48.6" height="2.1"/>
		<rect x="1312.3" y="317.9" class="st28" width="43.5" height="4.2"/>
		<g>
			<g>
				
					<rect x="1317.6" y="276.1" transform="matrix(-1.836970e-16 1 -1 -1.836970e-16 1606.3663 -1044.0498)" class="st5" width="15.1" height="10.2"/>
				<rect x="1321.2" y="274.7" class="st29" width="8" height="12.9"/>
				<polygon class="st28" points="1321.2,287.6 1329.2,274.7 1321.2,274.7 				"/>
			</g>
			<g>
				
					<rect x="1335.3" y="276.1" transform="matrix(-1.836970e-16 1 -1 -1.836970e-16 1623.9902 -1061.6737)" class="st5" width="15.1" height="10.2"/>
				<rect x="1338.9" y="274.7" class="st29" width="8" height="12.9"/>
				<polygon class="st28" points="1338.9,287.6 1346.8,274.7 1338.9,274.7 				"/>
			</g>
		</g>
		<g>
			<g>
				
					<rect x="1317.6" y="300.6" transform="matrix(-1.836970e-16 1 -1 -1.836970e-16 1630.9353 -1019.4808)" class="st5" width="15.1" height="10.2"/>
				<rect x="1321.2" y="299.3" class="st29" width="8" height="12.9"/>
				<polygon class="st28" points="1321.2,312.2 1329.2,299.3 1321.2,299.3 				"/>
			</g>
			<g>
				
					<rect x="1335.3" y="300.6" transform="matrix(-1.836970e-16 1 -1 -1.836970e-16 1648.5593 -1037.1047)" class="st5" width="15.1" height="10.2"/>
				<rect x="1338.9" y="299.3" class="st29" width="8" height="12.9"/>
				<polygon class="st28" points="1338.9,312.2 1346.8,299.3 1338.9,299.3 				"/>
			</g>
		</g>
		<g>
			
				<rect x="1326" y="321.3" transform="matrix(-1.836970e-16 1 -1 -1.836970e-16 1669.1855 -998.854)" class="st5" width="16.1" height="27.8"/>
			<rect x="1321.2" y="328.2" class="st29" width="25.6" height="14.9"/>
			<g>
				<rect x="1322.4" y="329.4" class="st30" width="23.2" height="1.1"/>
				<rect x="1322.4" y="331.9" class="st30" width="23.2" height="1.1"/>
				<rect x="1322.4" y="334.4" class="st30" width="23.2" height="1.1"/>
				<rect x="1322.4" y="337" class="st30" width="23.2" height="1.1"/>
				<rect x="1322.4" y="339.5" class="st30" width="23.2" height="1.1"/>
				<rect x="1322.4" y="342.1" class="st13" width="23.2" height="1.1"/>
			</g>
		</g>
	</g>
	<polygon class="st12" points="1349.3,341.1 1355.8,341.1 1355.8,277.1 1354.5,277.1 1349.3,289.3 	"/>
	<g>
		<rect x="1353.2" y="290.3" class="st5" width="66.8" height="51.5"/>
		<g>
			
				<rect x="1378.9" y="326.7" transform="matrix(-1.836970e-16 1 -1 -1.836970e-16 1720.7533 -1052.5486)" class="st10" width="15.6" height="14.8"/>
			<rect x="1380" y="327.1" class="st11" width="13.2" height="14.8"/>
			<rect x="1380" y="327.1" class="st12" width="6.6" height="14.8"/>
		</g>
		<rect x="1350.1" y="287.3" class="st11" width="73.1" height="3.1"/>
		<g>
			<g>
				<g>
					
						<rect x="1357.6" y="296.5" transform="matrix(-1.836970e-16 1 -1 -1.836970e-16 1662.8641 -1062.7762)" class="st10" width="10.5" height="7.1"/>
					<rect x="1360.1" y="295.6" class="st11" width="5.5" height="8.9"/>
					<polygon class="st12" points="1360.1,304.5 1365.6,295.6 1360.1,295.6 					"/>
				</g>
				<g>
					
						<rect x="1363.9" y="296.5" transform="matrix(-1.836970e-16 1 -1 -1.836970e-16 1669.146 -1069.0582)" class="st10" width="10.5" height="7.1"/>
					<rect x="1366.3" y="295.6" class="st11" width="5.5" height="8.9"/>
					<polygon class="st12" points="1366.3,304.5 1371.9,295.6 1366.3,295.6 					"/>
				</g>
			</g>
			<g>
				<g>
					
						<rect x="1378.3" y="296.5" transform="matrix(-1.836970e-16 1 -1 -1.836970e-16 1683.5541 -1083.4663)" class="st10" width="10.5" height="7.1"/>
					<rect x="1380.8" y="295.6" class="st11" width="5.5" height="8.9"/>
					<polygon class="st12" points="1380.8,304.5 1386.3,295.6 1380.8,295.6 					"/>
				</g>
				<g>
					
						<rect x="1384.6" y="296.5" transform="matrix(-1.836970e-16 1 -1 -1.836970e-16 1689.8354 -1089.7477)" class="st10" width="10.5" height="7"/>
					<rect x="1387" y="295.6" class="st11" width="5.5" height="8.9"/>
					<polygon class="st12" points="1387,304.5 1392.5,295.6 1387,295.6 					"/>
				</g>
			</g>
			<g>
				<g>
					
						<rect x="1399" y="296.5" transform="matrix(-1.836970e-16 1 -1 -1.836970e-16 1704.2439 -1104.156)" class="st10" width="10.5" height="7.1"/>
					<rect x="1401.4" y="295.6" class="st11" width="5.5" height="8.9"/>
					<polygon class="st12" points="1401.4,304.5 1407,295.6 1401.4,295.6 					"/>
				</g>
				<g>
					
						<rect x="1405.2" y="296.5" transform="matrix(-1.836970e-16 1 -1 -1.836970e-16 1710.526 -1110.4381)" class="st10" width="10.5" height="7.1"/>
					<rect x="1407.7" y="295.6" class="st11" width="5.5" height="8.9"/>
					<polygon class="st12" points="1407.7,304.5 1413.2,295.6 1407.7,295.6 					"/>
				</g>
			</g>
		</g>
		<g>
			<g>
				<g>
					
						<rect x="1357.6" y="311.5" transform="matrix(-1.836970e-16 1 -1 -1.836970e-16 1677.7977 -1047.8427)" class="st10" width="10.5" height="7.1"/>
					<rect x="1360.1" y="310.5" class="st11" width="5.5" height="8.9"/>
					<polygon class="st12" points="1360.1,319.4 1365.6,310.5 1360.1,310.5 					"/>
				</g>
				<g>
					
						<rect x="1363.9" y="311.5" transform="matrix(-1.836970e-16 1 -1 -1.836970e-16 1684.0797 -1054.1245)" class="st10" width="10.5" height="7.1"/>
					<rect x="1366.3" y="310.5" class="st11" width="5.5" height="8.9"/>
					<polygon class="st12" points="1366.3,319.4 1371.9,310.5 1366.3,310.5 					"/>
				</g>
			</g>
			<g>
				<g>
					
						<rect x="1378.3" y="311.5" transform="matrix(-1.836970e-16 1 -1 -1.836970e-16 1698.4877 -1068.5326)" class="st10" width="10.5" height="7.1"/>
					<rect x="1380.8" y="310.5" class="st11" width="5.5" height="8.9"/>
					<polygon class="st12" points="1380.8,319.4 1386.3,310.5 1380.8,310.5 					"/>
				</g>
				<g>
					
						<rect x="1384.6" y="311.5" transform="matrix(-1.836970e-16 1 -1 -1.836970e-16 1704.769 -1074.814)" class="st10" width="10.5" height="7"/>
					<rect x="1387" y="310.5" class="st11" width="5.5" height="8.9"/>
					<polygon class="st12" points="1387,319.4 1392.5,310.5 1387,310.5 					"/>
				</g>
			</g>
			<g>
				<g>
					
						<rect x="1399" y="311.5" transform="matrix(-1.836970e-16 1 -1 -1.836970e-16 1719.1775 -1089.2224)" class="st10" width="10.5" height="7.1"/>
					<rect x="1401.4" y="310.5" class="st11" width="5.5" height="8.9"/>
					<polygon class="st12" points="1401.4,319.4 1407,310.5 1401.4,310.5 					"/>
				</g>
				<g>
					
						<rect x="1405.2" y="311.5" transform="matrix(-1.836970e-16 1 -1 -1.836970e-16 1725.4596 -1095.5045)" class="st10" width="10.5" height="7.1"/>
					<rect x="1407.7" y="310.5" class="st11" width="5.5" height="8.9"/>
					<polygon class="st12" points="1407.7,319.4 1413.2,310.5 1407.7,310.5 					"/>
				</g>
			</g>
		</g>
		<g>
			
				<rect x="1400.4" y="326.7" transform="matrix(-1.836970e-16 1 -1 -1.836970e-16 1742.3019 -1069.6525)" class="st10" width="11.1" height="19.3"/>
			<rect x="1397.1" y="331.5" class="st11" width="17.7" height="10.4"/>
			<g>
				<rect x="1398" y="332.3" class="st13" width="16" height="0.8"/>
				<rect x="1398" y="334.1" class="st13" width="16" height="0.8"/>
				<rect x="1398" y="335.8" class="st13" width="16" height="0.8"/>
				<rect x="1398" y="337.6" class="st13" width="16" height="0.8"/>
				<rect x="1398" y="339.4" class="st13" width="16" height="0.8"/>
				<rect x="1398" y="341.1" class="st13" width="16" height="0.8"/>
			</g>
		</g>
		<g>
			
				<rect x="1361.8" y="326.7" transform="matrix(-1.836970e-16 1 -1 -1.836970e-16 1703.6497 -1031.0002)" class="st10" width="11.1" height="19.3"/>
			
				<rect x="1358.5" y="331.5" transform="matrix(-1 -1.224647e-16 1.224647e-16 -1 2734.6484 673.4175)" class="st11" width="17.7" height="10.4"/>
			<g>
				<rect x="1359.3" y="332.3" class="st13" width="16" height="0.8"/>
				<rect x="1359.3" y="334.1" class="st13" width="16" height="0.8"/>
				<rect x="1359.3" y="335.8" class="st13" width="16" height="0.8"/>
				<rect x="1359.3" y="337.6" class="st13" width="16" height="0.8"/>
				<rect x="1359.3" y="339.4" class="st13" width="16" height="0.8"/>
				<rect x="1359.3" y="341.1" class="st13" width="16" height="0.8"/>
			</g>
		</g>
		<polygon class="st14" points="1418.8,277.1 1354.5,277.1 1350.1,287.3 1423.2,287.3 		"/>
	</g>
	<g>
		<path class="st3" d="M1293.4,341.5c0,0.9-0.8,1.6-1.7,1.6l0,0c-0.9,0-1.6-0.8-1.6-1.7l0.1-9.3c0-0.9,0.8-1.6,1.7-1.6l0,0
			c0.9,0,1.6,0.8,1.6,1.7L1293.4,341.5z"/>
		<path class="st4" d="M1291.8,337.5c0.6,0,1.1-0.1,1.6-0.2l0.1-5.2c0-0.9-0.7-1.7-1.6-1.7c-0.9,0-1.7,0.7-1.7,1.6l-0.1,5.2
			C1290.7,337.4,1291.2,337.5,1291.8,337.5z"/>
		
			<ellipse transform="matrix(1.058271e-02 -0.9999 0.9999 1.058271e-02 952.3324 1613.4907)" class="st25" cx="1291.5" cy="325.5" rx="10.5" ry="10.5"/>
		<path class="st23" d="M1295.8,316c0.6,1.3,0.8,2.7,0.8,4.2c-0.1,5.8-4.8,10.4-10.6,10.4c-1.5,0-2.9-0.3-4.2-0.9
			c1.6,3.7,5.2,6.3,9.5,6.4c5.8,0.1,10.5-4.6,10.6-10.4C1302,321.3,1299.5,317.6,1295.8,316z"/>
	</g>
	<g>
		<ellipse class="st31" cx="850.3" cy="515.8" rx="44.1" ry="6.8"/>
		<path class="st32" d="M850.3,333.1c-38.5,0-69.6,32.5-69.6,72.6c0,40.1,69.6,109.1,69.6,109.1s69.6-69,69.6-109.1
			C919.9,365.6,888.7,333.1,850.3,333.1z M850.3,446.5c-21.6,0-39.1-18.2-39.1-40.7c0-22.5,17.5-40.7,39.1-40.7
			c21.6,0,39.1,18.2,39.1,40.7C889.3,428.2,871.8,446.5,850.3,446.5z"/>
		<path class="st33" d="M850.3,357.1c-25.8,0-46.7,21.8-46.7,48.6c0,26.9,20.9,48.6,46.7,48.6c25.8,0,46.7-21.8,46.7-48.6
			C896.9,378.9,876,357.1,850.3,357.1z M850.3,438.5c-17.4,0-31.5-14.7-31.5-32.8c0-18.1,14.1-32.8,31.5-32.8
			c17.4,0,31.5,14.7,31.5,32.8C881.7,423.8,867.6,438.5,850.3,438.5z"/>
	</g>
	
		<ellipse transform="matrix(0.7559 -0.6547 0.6547 0.7559 104.3683 920.3242)" class="st26" cx="1286.2" cy="320.2" rx="3.3" ry="1.5"/>
	
		<ellipse transform="matrix(0.2575 -0.9663 0.9663 0.2575 761.121 1604.1034)" class="st26" cx="1424.4" cy="306.8" rx="7.2" ry="1.5"/>
	<g>
		<g>
			<path class="st3" d="M1353.6,341.5c0,0.9-0.8,1.6-1.7,1.6l0,0c-0.9,0-1.6-0.8-1.6-1.7l0.1-9.3c0-0.9,0.8-1.6,1.7-1.6l0,0
				c0.9,0,1.6,0.8,1.6,1.7L1353.6,341.5z"/>
			<path class="st4" d="M1352,337.5c0.6,0,1.1-0.1,1.6-0.2l0.1-5.2c0-0.9-0.7-1.7-1.6-1.7c-0.9,0-1.7,0.7-1.7,1.6l-0.1,5.2
				C1350.9,337.4,1351.5,337.5,1352,337.5z"/>
			
				<ellipse transform="matrix(1.058271e-02 -0.9999 0.9999 1.058271e-02 1011.9286 1673.7211)" class="st25" cx="1351.7" cy="325.5" rx="10.5" ry="10.5"/>
			<path class="st23" d="M1356,316c0.5,1.3,0.8,2.7,0.8,4.2c-0.1,5.8-4.8,10.4-10.6,10.4c-1.5,0-2.9-0.3-4.2-0.9
				c1.6,3.7,5.2,6.3,9.5,6.4c5.8,0.1,10.5-4.6,10.6-10.4C1362.2,321.3,1359.7,317.6,1356,316z"/>
		</g>
		
			<ellipse transform="matrix(0.7559 -0.6547 0.6547 0.7559 119.1585 959.988)" class="st26" cx="1346.8" cy="320.2" rx="3.3" ry="1.5"/>
	</g>
	<g>
		<g>
			<rect x="1055.9" y="517.2" class="st34" width="2" height="24.3"/>
			<rect x="1055.9" y="517.2" class="st35" width="2" height="5.2"/>
			<circle class="st36" cx="1056.8" cy="511.2" r="8.5"/>
			<circle class="st9" cx="1056.8" cy="511.2" r="7.3"/>
		</g>
		<path class="st17" d="M1051.6,511.2v1.7h10.5v-1.7h-1.6c0,0-0.9,0-1.3-1.2s-1.8-1.2-1.8-1.2h-1c0,0-1.3-0.1-1.8,1.2
			s-1.3,1.2-1.3,1.2h-1.6"/>
	</g>
	<g>
		<path class="st37" d="M0,352.4l520.1-0.1l17.2,0.1c11.5,0,20.7,9.3,20.7,20.8v156.2c0,11.5,9.3,20.8,20.7,20.8h21.1l519.6,0
			c11.5,0,20.7-9.3,20.7-20.8V175.4c0-11.5,9.3-20.8,20.7-20.8h69.9c11.5,0,20.7,9.3,20.7,20.8v156.2c0,11.5,9.3,20.8,20.7,20.8
			l727.7,0"/>
	</g>
	<g>
		<g>
			<path class="st24" d="M1111.3,469c-2.8,1.6-7.4,1.6-10.2,0c-2.8-1.6-2.8-4.3,0-5.9c2.8-1.6,7.4-1.6,10.2,0
				C1114.1,464.8,1114.1,467.4,1111.3,469z"/>
			<g>
				<path class="st3" d="M1108.4,465.6c0,1.2-1,2.2-2.2,2.2l0,0c-1.2,0-2.2-1-2.2-2.2v-12.4c0-1.2,1-2.2,2.2-2.2l0,0
					c1.2,0,2.2,1,2.2,2.2V465.6z"/>
				<path class="st4" d="M1106.2,460.3c0.8,0,1.5-0.1,2.2-0.2v-6.9c0-1.2-1-2.2-2.2-2.2s-2.2,1-2.2,2.2v6.9
					C1104.8,460.2,1105.5,460.3,1106.2,460.3z"/>
				<path class="st25" d="M1116,448c0,5.4-4.4,9.8-9.8,9.8c-5.4,0-9.8-4.4-9.8-9.8c0-5.4,4.4-27,9.8-27
					C1111.6,421,1116,442.6,1116,448z"/>
				<path class="st23" d="M1106.2,421c-0.3,0-0.5,0-0.8,0.1c2.5,6.8,4.2,16.2,4.2,19.5c0,5.4-4.4,9.8-9.8,9.8
					c-1.1,0-2.2-0.2-3.2-0.5c0.9,4.5,4.8,7.9,9.6,7.9c5.4,0,9.8-4.4,9.8-9.8C1116,442.6,1111.6,421,1106.2,421z"/>
			</g>
		</g>
		
			<ellipse transform="matrix(0.2325 -0.9726 0.9726 0.2325 420.252 1406.7384)" class="st26" cx="1101.5" cy="437.1" rx="6.8" ry="1.4"/>
	</g>
	<g>
		<g>
			<path class="st24" d="M1031.1,491.2c-2.8,1.6-7.4,1.6-10.2,0c-2.8-1.6-2.8-4.3,0-5.9c2.8-1.6,7.4-1.6,10.2,0
				C1033.9,486.9,1033.9,489.5,1031.1,491.2z"/>
			<g>
				<path class="st3" d="M1028.2,487.7c0,1.2-1,2.2-2.2,2.2l0,0c-1.2,0-2.2-1-2.2-2.2v-12.4c0-1.2,1-2.2,2.2-2.2l0,0
					c1.2,0,2.2,1,2.2,2.2V487.7z"/>
				<path class="st4" d="M1026,482.4c0.8,0,1.5-0.1,2.2-0.2v-6.9c0-1.2-1-2.2-2.2-2.2c-1.2,0-2.2,1-2.2,2.2v6.9
					C1024.6,482.3,1025.3,482.4,1026,482.4z"/>
				<path class="st25" d="M1035.8,470.1c0,5.4-4.4,9.8-9.8,9.8c-5.4,0-9.8-4.4-9.8-9.8c0-5.4,4.4-27,9.8-27
					C1031.5,443.1,1035.8,464.7,1035.8,470.1z"/>
				<path class="st23" d="M1026,443.1c-0.3,0-0.5,0-0.8,0.1c2.5,6.8,4.2,16.2,4.2,19.5c0,5.4-4.4,9.8-9.8,9.8
					c-1.1,0-2.2-0.2-3.2-0.5c0.9,4.5,4.9,7.9,9.6,7.9c5.4,0,9.8-4.4,9.8-9.8C1035.8,464.7,1031.5,443.1,1026,443.1z"/>
			</g>
		</g>
		
			<ellipse transform="matrix(0.2325 -0.9726 0.9726 0.2325 337.1879 1345.7281)" class="st26" cx="1021.3" cy="459.2" rx="6.8" ry="1.4"/>
	</g>
	<g>
		<g>
			<path class="st24" d="M922,503.7c-2.8,1.6-7.4,1.6-10.2,0c-2.8-1.6-2.8-4.3,0-5.9c2.8-1.6,7.4-1.6,10.2,0
				C924.8,499.4,924.8,502.1,922,503.7z"/>
			<g>
				<path class="st3" d="M919.1,500.2c0,1.2-1,2.2-2.2,2.2l0,0c-1.2,0-2.2-1-2.2-2.2v-12.4c0-1.2,1-2.2,2.2-2.2l0,0
					c1.2,0,2.2,1,2.2,2.2V500.2z"/>
				<path class="st4" d="M916.9,494.9c0.8,0,1.5-0.1,2.2-0.2v-6.9c0-1.2-1-2.2-2.2-2.2c-1.2,0-2.2,1-2.2,2.2v6.9
					C915.4,494.9,916.1,494.9,916.9,494.9z"/>
				<path class="st25" d="M926.7,482.6c0,5.4-4.4,9.8-9.8,9.8c-5.4,0-9.8-4.4-9.8-9.8c0-5.4,4.4-27,9.8-27
					C922.3,455.6,926.7,477.2,926.7,482.6z"/>
				<path class="st23" d="M916.9,455.6c-0.3,0-0.5,0-0.8,0.1c2.5,6.8,4.2,16.2,4.2,19.5c0,5.4-4.4,9.8-9.8,9.8
					c-1.1,0-2.2-0.2-3.2-0.5c0.9,4.5,4.8,7.9,9.6,7.9c5.4,0,9.8-4.4,9.8-9.8C926.7,477.2,922.3,455.6,916.9,455.6z"/>
			</g>
		</g>
		
			<ellipse transform="matrix(0.2325 -0.9726 0.9726 0.2325 241.2269 1249.1631)" class="st26" cx="912.1" cy="471.7" rx="6.8" ry="1.4"/>
	</g>
	<g>
		<rect x="663.8" y="423.4" class="st38" width="49.8" height="85.8"/>
		<rect x="660.9" y="418.5" class="st11" width="55.7" height="4.8"/>
		<rect x="660.9" y="416.1" class="st14" width="55.7" height="2.4"/>
		<rect x="663.8" y="480.3" class="st39" width="49.8" height="4.8"/>
		<g>
			<g>
				
					<rect x="670" y="432.3" transform="matrix(-1.836970e-16 1 -1 -1.836970e-16 1116.7684 -240.4991)" class="st10" width="17.3" height="11.7"/>
				<rect x="674.1" y="430.7" class="st11" width="9.1" height="14.8"/>
				<polygon class="st12" points="674.1,445.5 683.2,430.7 674.1,430.7 				"/>
			</g>
			<g>
				
					<rect x="690.2" y="432.3" transform="matrix(-1.836970e-16 1 -1 -1.836970e-16 1136.9556 -260.6863)" class="st10" width="17.3" height="11.7"/>
				<rect x="694.3" y="430.7" class="st11" width="9.1" height="14.8"/>
				<polygon class="st12" points="694.3,445.5 703.4,430.7 694.3,430.7 				"/>
			</g>
		</g>
		<g>
			<g>
				
					<rect x="670" y="460.5" transform="matrix(-1.836970e-16 1 -1 -1.836970e-16 1144.911 -212.3564)" class="st10" width="17.3" height="11.7"/>
				<rect x="674.1" y="458.9" class="st11" width="9.1" height="14.8"/>
				<polygon class="st12" points="674.1,473.7 683.2,458.9 674.1,458.9 				"/>
			</g>
			<g>
				
					<rect x="690.2" y="460.5" transform="matrix(-1.836970e-16 1 -1 -1.836970e-16 1165.0983 -232.5436)" class="st10" width="17.3" height="11.7"/>
				<rect x="694.3" y="458.9" class="st11" width="9.1" height="14.8"/>
				<polygon class="st12" points="694.3,473.7 703.4,458.9 694.3,458.9 				"/>
			</g>
		</g>
		<g>
			
				<rect x="679.5" y="484.1" transform="matrix(-1.836970e-16 1 -1 -1.836970e-16 1188.7246 -188.7298)" class="st10" width="18.4" height="31.8"/>
			<rect x="674.1" y="492.1" class="st11" width="29.3" height="17.1"/>
			<g>
				<rect x="675.5" y="493.3" class="st13" width="26.5" height="1.3"/>
				<rect x="675.5" y="496.3" class="st13" width="26.5" height="1.3"/>
				<rect x="675.5" y="499.2" class="st13" width="26.5" height="1.3"/>
				<rect x="675.5" y="502.1" class="st13" width="26.5" height="1.3"/>
				<rect x="675.5" y="505" class="st13" width="26.5" height="1.3"/>
				<rect x="675.5" y="507.9" class="st13" width="26.5" height="1.3"/>
			</g>
		</g>
	</g>
	<g>
		<rect x="929.8" y="431" class="st5" width="88.9" height="68.6"/>
		<g>
			
				<rect x="963.9" y="479.4" transform="matrix(-1.836970e-16 1 -1 -1.836970e-16 1463.4747 -485.0874)" class="st10" width="20.7" height="19.7"/>
			<rect x="965.5" y="479.9" class="st11" width="17.6" height="19.7"/>
			<rect x="965.5" y="479.9" class="st12" width="8.8" height="19.7"/>
		</g>
		<rect x="925.6" y="426.9" class="st11" width="97.3" height="4.1"/>
		<g>
			<g>
				<g>
					
						<rect x="935.6" y="439.2" transform="matrix(-1.836970e-16 1 -1 -1.836970e-16 1386.4382 -498.6984)" class="st10" width="13.9" height="9.4"/>
					<rect x="938.9" y="437.9" class="st11" width="7.3" height="11.9"/>
					<polygon class="st12" points="938.9,449.8 946.2,437.9 938.9,437.9 					"/>
				</g>
				<g>
					
						<rect x="944" y="439.2" transform="matrix(-1.836970e-16 1 -1 -1.836970e-16 1394.7979 -507.058)" class="st10" width="13.9" height="9.4"/>
					<rect x="947.3" y="437.9" class="st11" width="7.3" height="11.9"/>
					<polygon class="st12" points="947.3,449.8 954.6,437.9 947.3,437.9 					"/>
				</g>
			</g>
			<g>
				<g>
					
						<rect x="963.1" y="439.2" transform="matrix(-1.836970e-16 1 -1 -1.836970e-16 1413.9711 -526.2313)" class="st10" width="13.9" height="9.4"/>
					<rect x="966.4" y="437.9" class="st11" width="7.3" height="11.9"/>
					<polygon class="st12" points="966.4,449.8 973.8,437.9 966.4,437.9 					"/>
				</g>
				<g>
					
						<rect x="971.5" y="439.2" transform="matrix(-1.836970e-16 1 -1 -1.836970e-16 1422.3308 -534.591)" class="st10" width="13.9" height="9.4"/>
					<rect x="974.8" y="437.9" class="st11" width="7.3" height="11.9"/>
					<polygon class="st12" points="974.8,449.8 982.1,437.9 974.8,437.9 					"/>
				</g>
			</g>
			<g>
				<g>
					
						<rect x="990.7" y="439.2" transform="matrix(-1.836970e-16 1 -1 -1.836970e-16 1441.5044 -553.7646)" class="st10" width="13.9" height="9.4"/>
					<rect x="994" y="437.9" class="st11" width="7.3" height="11.9"/>
					<polygon class="st12" points="994,449.8 1001.3,437.9 994,437.9 					"/>
				</g>
				<g>
					
						<rect x="999" y="439.2" transform="matrix(-1.836970e-16 1 -1 -1.836970e-16 1449.8644 -562.1246)" class="st10" width="13.9" height="9.4"/>
					<rect x="1002.3" y="437.9" class="st11" width="7.3" height="11.9"/>
					<polygon class="st12" points="1002.3,449.8 1009.7,437.9 1002.3,437.9 					"/>
				</g>
			</g>
		</g>
		<g>
			<g>
				<g>
					
						<rect x="935.6" y="459.1" transform="matrix(-1.836970e-16 1 -1 -1.836970e-16 1406.311 -478.8257)" class="st10" width="13.9" height="9.4"/>
					<rect x="938.9" y="457.8" class="st11" width="7.3" height="11.9"/>
					<polygon class="st12" points="938.9,469.7 946.2,457.8 938.9,457.8 					"/>
				</g>
				<g>
					
						<rect x="944" y="459.1" transform="matrix(-1.836970e-16 1 -1 -1.836970e-16 1414.6707 -487.1852)" class="st10" width="13.9" height="9.4"/>
					<rect x="947.3" y="457.8" class="st11" width="7.3" height="11.9"/>
					<polygon class="st12" points="947.3,469.7 954.6,457.8 947.3,457.8 					"/>
				</g>
			</g>
			<g>
				<g>
					
						<rect x="963.1" y="459.1" transform="matrix(-1.836970e-16 1 -1 -1.836970e-16 1433.8439 -506.3585)" class="st10" width="13.9" height="9.4"/>
					<rect x="966.4" y="457.8" class="st11" width="7.3" height="11.9"/>
					<polygon class="st12" points="966.4,469.7 973.8,457.8 966.4,457.8 					"/>
				</g>
				<g>
					
						<rect x="971.5" y="459.1" transform="matrix(-1.836970e-16 1 -1 -1.836970e-16 1442.2036 -514.7182)" class="st10" width="13.9" height="9.4"/>
					<rect x="974.8" y="457.8" class="st11" width="7.3" height="11.9"/>
					<polygon class="st12" points="974.8,469.7 982.1,457.8 974.8,457.8 					"/>
				</g>
			</g>
			<g>
				<g>
					
						<rect x="990.7" y="459.1" transform="matrix(-1.836970e-16 1 -1 -1.836970e-16 1461.3772 -533.8918)" class="st10" width="13.9" height="9.4"/>
					<rect x="994" y="457.8" class="st11" width="7.3" height="11.9"/>
					<polygon class="st12" points="994,469.7 1001.3,457.8 994,457.8 					"/>
				</g>
				<g>
					
						<rect x="999" y="459.1" transform="matrix(-1.836970e-16 1 -1 -1.836970e-16 1469.7372 -542.2518)" class="st10" width="13.9" height="9.4"/>
					<rect x="1002.3" y="457.8" class="st11" width="7.3" height="11.9"/>
					<polygon class="st12" points="1002.3,469.7 1009.7,457.8 1002.3,457.8 					"/>
				</g>
			</g>
		</g>
		<g>
			
				<rect x="992.6" y="479.3" transform="matrix(-1.836970e-16 1 -1 -1.836970e-16 1492.1506 -507.8492)" class="st10" width="14.8" height="25.6"/>
			<rect x="988.2" y="485.8" class="st11" width="23.6" height="13.8"/>
			<g>
				<rect x="989.3" y="486.8" class="st13" width="21.4" height="1"/>
				<rect x="989.3" y="489.1" class="st13" width="21.4" height="1"/>
				<rect x="989.3" y="491.5" class="st13" width="21.4" height="1"/>
				<rect x="989.3" y="493.8" class="st13" width="21.4" height="1"/>
				<rect x="989.3" y="496.2" class="st13" width="21.4" height="1"/>
				<rect x="989.3" y="498.5" class="st13" width="21.4" height="1"/>
			</g>
		</g>
		<g>
			
				<rect x="941.2" y="479.3" transform="matrix(-1.836970e-16 1 -1 -1.836970e-16 1440.7139 -456.4125)" class="st10" width="14.8" height="25.6"/>
			
				<rect x="936.8" y="485.8" transform="matrix(-1 -1.224647e-16 1.224647e-16 -1 1897.1245 985.324)" class="st11" width="23.6" height="13.8"/>
			<g>
				<rect x="937.9" y="486.8" class="st13" width="21.4" height="1"/>
				<rect x="937.9" y="489.1" class="st13" width="21.4" height="1"/>
				<rect x="937.9" y="491.5" class="st13" width="21.4" height="1"/>
				<rect x="937.9" y="493.8" class="st13" width="21.4" height="1"/>
				<rect x="937.9" y="496.2" class="st13" width="21.4" height="1"/>
				<rect x="937.9" y="498.5" class="st13" width="21.4" height="1"/>
			</g>
		</g>
		<polygon class="st14" points="1017.1,413.4 931.4,413.4 925.6,426.9 1022.9,426.9 		"/>
	</g>
	<path class="st8" d="M1026.8,483.7c1.7,0,3.2,1.2,3.6,2.8c0.8-1.3,2.2-2.2,3.9-2.2c2.5,0,4.5,2,4.5,4.5c0,0.1,0,0.3,0,0.4
		c0.1,0,0.2,0,0.4,0c2,0,3.7,1.6,3.7,3.7c0,2-1.6,3.7-3.7,3.7h-16.6c-2,0-3.7-1.6-3.7-3.7c0-2,1.6-3.7,3.7-3.7
		c0.5,0,0.9,0.1,1.3,0.3c-0.4-0.6-0.7-1.3-0.7-2.1C1023.1,485.4,1024.7,483.7,1026.8,483.7z"/>
	<path class="st22" d="M1022.9,492.6c1.7,0,3.2,1.2,3.6,2.8c0.8-1.3,2.2-2.2,3.9-2.2c2.5,0,4.5,2,4.5,4.5c0,0.1,0,0.3,0,0.4
		c0.1,0,0.2,0,0.4,0c2,0,3.7,1.6,3.7,3.7c0,2-1.6,3.7-3.7,3.7h-16.6c-2,0-3.7-1.6-3.7-3.7c0-2,1.6-3.7,3.7-3.7
		c0.5,0,0.9,0.1,1.3,0.3c-0.4-0.6-0.7-1.3-0.7-2.1C1019.2,494.2,1020.9,492.6,1022.9,492.6z"/>
	<g>
		<g>
			<path class="st24" d="M676.6,517.5c-2.8,1.6-7.4,1.6-10.2,0c-2.8-1.6-2.8-4.3,0-5.9c2.8-1.6,7.4-1.6,10.2,0
				C679.4,513.2,679.4,515.8,676.6,517.5z"/>
			<g>
				<path class="st3" d="M673.7,514c0,1.2-1,2.2-2.2,2.2l0,0c-1.2,0-2.2-1-2.2-2.2v-12.4c0-1.2,1-2.2,2.2-2.2l0,0
					c1.2,0,2.2,1,2.2,2.2V514z"/>
				<path class="st4" d="M671.5,508.7c0.8,0,1.5-0.1,2.2-0.2v-6.9c0-1.2-1-2.2-2.2-2.2c-1.2,0-2.2,1-2.2,2.2v6.9
					C670,508.6,670.8,508.7,671.5,508.7z"/>
				<path class="st25" d="M681.3,496.4c0,5.4-4.4,9.8-9.8,9.8c-5.4,0-9.8-4.4-9.8-9.8c0-5.4,4.4-27,9.8-27
					C676.9,469.4,681.3,491,681.3,496.4z"/>
				<path class="st23" d="M671.5,469.4c-0.3,0-0.5,0-0.8,0.1c2.5,6.8,4.2,16.2,4.2,19.5c0,5.4-4.4,9.8-9.8,9.8
					c-1.1,0-2.2-0.2-3.2-0.5c0.9,4.5,4.8,7.9,9.6,7.9c5.4,0,9.8-4.4,9.8-9.8C681.3,491,676.9,469.4,671.5,469.4z"/>
			</g>
		</g>
		
			<ellipse transform="matrix(0.2325 -0.9726 0.9726 0.2325 39.5506 1021.0988)" class="st26" cx="666.8" cy="485.5" rx="6.8" ry="1.4"/>
	</g>
	<g>
		<g>
			<path class="st24" d="M589.7,512.6c-2.8,1.6-7.4,1.6-10.2,0c-2.8-1.6-2.8-4.3,0-5.9c2.8-1.6,7.4-1.6,10.2,0
				C592.5,508.3,592.5,510.9,589.7,512.6z"/>
			<g>
				<path class="st3" d="M586.8,509.1c0,1.2-1,2.2-2.2,2.2l0,0c-1.2,0-2.2-1-2.2-2.2v-12.4c0-1.2,1-2.2,2.2-2.2l0,0
					c1.2,0,2.2,1,2.2,2.2V509.1z"/>
				<path class="st4" d="M584.6,503.8c0.8,0,1.5-0.1,2.2-0.2v-6.9c0-1.2-1-2.2-2.2-2.2c-1.2,0-2.2,1-2.2,2.2v6.9
					C583.1,503.7,583.8,503.8,584.6,503.8z"/>
				<path class="st25" d="M594.4,491.5c0,5.4-4.4,9.8-9.8,9.8c-5.4,0-9.8-4.4-9.8-9.8c0-5.4,4.4-27,9.8-27
					C590,464.5,594.4,486.1,594.4,491.5z"/>
				<path class="st23" d="M584.6,464.5c-0.3,0-0.5,0-0.8,0.1c2.5,6.8,4.2,16.2,4.2,19.5c0,5.4-4.4,9.8-9.8,9.8
					c-1.1,0-2.2-0.2-3.2-0.5c0.9,4.5,4.8,7.9,9.6,7.9c5.4,0,9.8-4.4,9.8-9.8C594.4,486.1,590,464.5,584.6,464.5z"/>
			</g>
		</g>
		
			<ellipse transform="matrix(0.2325 -0.9726 0.9726 0.2325 -22.4169 932.7958)" class="st26" cx="579.8" cy="480.6" rx="6.8" ry="1.4"/>
	</g>
	<path class="st8" d="M1006.3,491.9c1.7,0,3.2,1.2,3.6,2.8c0.8-1.3,2.2-2.2,3.9-2.2c2.5,0,4.5,2,4.5,4.5c0,0.1,0,0.3,0,0.4
		c0.1,0,0.2,0,0.4,0c2,0,3.7,1.6,3.7,3.7c0,2-1.6,3.7-3.7,3.7h-16.6c-2,0-3.7-1.6-3.7-3.7c0-2,1.6-3.7,3.7-3.7
		c0.5,0,0.9,0.1,1.3,0.3c-0.4-0.6-0.7-1.3-0.7-2.1C1002.6,493.6,1004.2,491.9,1006.3,491.9z"/>
	<path class="st22" d="M991.1,496c1.7,0,3.2,1.2,3.6,2.8c0.8-1.3,2.2-2.2,3.9-2.2c2.5,0,4.5,2,4.5,4.5c0,0.1,0,0.3,0,0.4
		c0.1,0,0.2,0,0.4,0c2,0,3.7,1.6,3.7,3.7c0,2-1.6,3.7-3.7,3.7h-16.6c-2,0-3.7-1.6-3.7-3.7c0-2,1.6-3.7,3.7-3.7
		c0.5,0,0.9,0.1,1.3,0.3c-0.4-0.6-0.7-1.3-0.7-2.1C987.4,497.7,989.1,496,991.1,496z"/>
	<path class="st22" d="M1078.1,472.5c1.7,0,3.2,1.2,3.6,2.8c0.8-1.3,2.2-2.2,3.9-2.2c2.5,0,4.5,2,4.5,4.5c0,0.1,0,0.3,0,0.4
		c0.1,0,0.2,0,0.4,0c2,0,3.7,1.6,3.7,3.7c0,2-1.6,3.7-3.7,3.7h-16.6c-2,0-3.7-1.6-3.7-3.7c0-2,1.6-3.7,3.7-3.7
		c0.5,0,0.9,0.1,1.3,0.3c-0.4-0.6-0.7-1.3-0.7-2.1C1074.4,474.1,1076,472.5,1078.1,472.5z"/>
	<path class="st8" d="M1061.4,472.9c1.7,0,3.2,1.2,3.6,2.8c0.8-1.3,2.2-2.2,3.9-2.2c2.5,0,4.5,2,4.5,4.5c0,0.1,0,0.3,0,0.4
		c0.1,0,0.2,0,0.4,0c2,0,3.7,1.6,3.7,3.7c0,2-1.6,3.7-3.7,3.7h-16.6c-2,0-3.7-1.6-3.7-3.7c0-2,1.6-3.7,3.7-3.7
		c0.5,0,0.9,0.1,1.3,0.3c-0.4-0.6-0.7-1.3-0.7-2.1C1057.7,474.5,1059.4,472.9,1061.4,472.9z"/>
	<g>
		<g>
			<path class="st24" d="M1011.1,513.9c-2.8,1.6-7.4,1.6-10.2,0c-2.8-1.6-2.8-4.3,0-5.9c2.8-1.6,7.4-1.6,10.2,0
				C1013.9,509.6,1013.9,512.3,1011.1,513.9z"/>
			<g>
				<path class="st3" d="M1008.2,510.4c0,1.2-1,2.2-2.2,2.2l0,0c-1.2,0-2.2-1-2.2-2.2V498c0-1.2,1-2.2,2.2-2.2l0,0
					c1.2,0,2.2,1,2.2,2.2V510.4z"/>
				<path class="st4" d="M1006,505.1c0.8,0,1.5-0.1,2.2-0.2V498c0-1.2-1-2.2-2.2-2.2s-2.2,1-2.2,2.2v6.9
					C1004.5,505,1005.2,505.1,1006,505.1z"/>
				<path class="st25" d="M1015.8,492.8c0,5.4-4.4,9.8-9.8,9.8c-5.4,0-9.8-4.4-9.8-9.8c0-5.4,4.4-27,9.8-27
					C1011.4,465.8,1015.8,487.4,1015.8,492.8z"/>
				<path class="st23" d="M1006,465.8c-0.3,0-0.5,0-0.8,0.1c2.5,6.8,4.2,16.2,4.2,19.5c0,5.4-4.4,9.8-9.8,9.8
					c-1.1,0-2.2-0.2-3.2-0.5c0.9,4.5,4.8,7.9,9.6,7.9c5.4,0,9.8-4.4,9.8-9.8C1015.8,487.4,1011.4,465.8,1006,465.8z"/>
			</g>
		</g>
		
			<ellipse transform="matrix(0.2325 -0.9726 0.9726 0.2325 299.7078 1343.6656)" class="st26" cx="1001.3" cy="481.9" rx="6.8" ry="1.4"/>
	</g>
	<path class="st22" d="M1045.1,476.4c1.7,0,3.2,1.2,3.6,2.8c0.8-1.3,2.2-2.2,3.9-2.2c2.5,0,4.5,2,4.5,4.5c0,0.1,0,0.3,0,0.4
		c0.1,0,0.2,0,0.4,0c2,0,3.7,1.6,3.7,3.7c0,2-1.6,3.7-3.7,3.7h-16.6c-2,0-3.7-1.6-3.7-3.7c0-2,1.6-3.7,3.7-3.7
		c0.5,0,0.9,0.1,1.3,0.3c-0.4-0.6-0.7-1.3-0.7-2.1C1041.4,478,1043.1,476.4,1045.1,476.4z"/>
	<path class="st22" d="M951.1,493.6c1.7,0,3.2,1.2,3.6,2.8c0.8-1.3,2.2-2.2,3.9-2.2c2.5,0,4.5,2,4.5,4.5c0,0.1,0,0.3,0,0.4
		c0.1,0,0.2,0,0.4,0c2,0,3.7,1.6,3.7,3.7c0,2-1.6,3.7-3.7,3.7h-16.6c-2,0-3.7-1.6-3.7-3.7c0-2,1.6-3.7,3.7-3.7
		c0.5,0,0.9,0.1,1.3,0.3c-0.4-0.6-0.7-1.3-0.7-2.1C947.4,495.2,949.1,493.6,951.1,493.6z"/>
	<path class="st8" d="M934.5,492.9c1.7,0,3.2,1.2,3.6,2.8c0.8-1.3,2.2-2.2,3.9-2.2c2.5,0,4.5,2,4.5,4.5c0,0.1,0,0.3,0,0.4
		c0.1,0,0.2,0,0.4,0c2,0,3.7,1.6,3.7,3.7c0,2-1.6,3.7-3.7,3.7h-16.6c-2,0-3.7-1.6-3.7-3.7c0-2,1.6-3.7,3.7-3.7
		c0.5,0,0.9,0.1,1.3,0.3c-0.4-0.6-0.7-1.3-0.7-2.1C930.8,494.6,932.5,492.9,934.5,492.9z"/>
	<path class="st22" d="M919.4,497c1.7,0,3.2,1.2,3.6,2.8c0.8-1.3,2.2-2.2,3.9-2.2c2.5,0,4.5,2,4.5,4.5c0,0.1,0,0.3,0,0.4
		c0.1,0,0.2,0,0.4,0c2,0,3.7,1.6,3.7,3.7c0,2-1.6,3.7-3.7,3.7H915c-2,0-3.7-1.6-3.7-3.7c0-2,1.6-3.7,3.7-3.7c0.5,0,0.9,0.1,1.3,0.3
		c-0.4-0.6-0.7-1.3-0.7-2.1C915.7,498.7,917.3,497,919.4,497z"/>
	<path class="st8" d="M779.5,498.5c1.7,0,3.2,1.2,3.6,2.8c0.8-1.3,2.2-2.2,3.9-2.2c2.5,0,4.5,2,4.5,4.5c0,0.1,0,0.3,0,0.4
		c0.1,0,0.2,0,0.4,0c2,0,3.7,1.6,3.7,3.7c0,2-1.6,3.7-3.7,3.7h-16.6c-2,0-3.7-1.6-3.7-3.7c0-2,1.6-3.7,3.7-3.7
		c0.5,0,0.9,0.1,1.3,0.3c-0.4-0.6-0.7-1.3-0.7-2.1C775.8,500.1,777.5,498.5,779.5,498.5z"/>
	<path class="st22" d="M796.2,499.1c1.7,0,3.2,1.2,3.6,2.8c0.8-1.3,2.2-2.2,3.9-2.2c2.5,0,4.5,2,4.5,4.5c0,0.1,0,0.3,0,0.4
		c0.1,0,0.2,0,0.4,0c2,0,3.7,1.6,3.7,3.7c0,2-1.6,3.7-3.7,3.7h-16.6c-2,0-3.7-1.6-3.7-3.7c0-2,1.6-3.7,3.7-3.7
		c0.5,0,0.9,0.1,1.3,0.3c-0.4-0.6-0.7-1.3-0.7-2.1C792.5,500.8,794.1,499.1,796.2,499.1z"/>
	<path class="st22" d="M764.4,502.6c1.7,0,3.2,1.2,3.6,2.8c0.8-1.3,2.2-2.2,3.9-2.2c2.5,0,4.5,2,4.5,4.5c0,0.1,0,0.3,0,0.4
		c0.1,0,0.2,0,0.4,0c2,0,3.7,1.6,3.7,3.7c0,2-1.6,3.7-3.7,3.7H760c-2,0-3.7-1.6-3.7-3.7c0-2,1.6-3.7,3.7-3.7c0.5,0,0.9,0.1,1.3,0.3
		c-0.4-0.6-0.7-1.3-0.7-2.1C760.7,504.2,762.4,502.6,764.4,502.6z"/>
	<path class="st22" d="M718.9,502.1c1.7,0,3.2,1.2,3.6,2.8c0.8-1.3,2.2-2.2,3.9-2.2c2.5,0,4.5,2,4.5,4.5c0,0.1,0,0.3,0,0.4
		c0.1,0,0.2,0,0.4,0c2,0,3.7,1.6,3.7,3.7c0,2-1.6,3.7-3.7,3.7h-16.6c-2,0-3.7-1.6-3.7-3.7c0-2,1.6-3.7,3.7-3.7
		c0.5,0,0.9,0.1,1.3,0.3c-0.4-0.6-0.7-1.3-0.7-2.1C715.2,503.7,716.9,502.1,718.9,502.1z"/>
	<g>
		<g>
			<path class="st24" d="M1072.4,496c-2.8,1.6-7.4,1.6-10.2,0c-2.8-1.6-2.8-4.3,0-5.9c2.8-1.6,7.4-1.6,10.2,0
				C1075.2,491.7,1075.2,494.4,1072.4,496z"/>
			<g>
				<path class="st3" d="M1069.5,492.5c0,1.2-1,2.2-2.2,2.2l0,0c-1.2,0-2.2-1-2.2-2.2v-12.4c0-1.2,1-2.2,2.2-2.2l0,0
					c1.2,0,2.2,1,2.2,2.2V492.5z"/>
				<path class="st4" d="M1067.4,487.2c0.8,0,1.5-0.1,2.2-0.2v-6.9c0-1.2-1-2.2-2.2-2.2c-1.2,0-2.2,1-2.2,2.2v6.9
					C1065.9,487.1,1066.6,487.2,1067.4,487.2z"/>
				<path class="st25" d="M1077.1,474.9c0,5.4-4.4,9.8-9.8,9.8c-5.4,0-9.8-4.4-9.8-9.8c0-5.4,4.4-27,9.8-27
					C1072.8,447.9,1077.1,469.5,1077.1,474.9z"/>
				<path class="st23" d="M1067.4,447.9c-0.3,0-0.5,0-0.8,0.1c2.5,6.8,4.2,16.2,4.2,19.5c0,5.4-4.4,9.8-9.8,9.8
					c-1.1,0-2.2-0.2-3.2-0.5c0.9,4.5,4.8,7.9,9.6,7.9c5.4,0,9.8-4.4,9.8-9.8C1077.1,469.5,1072.8,447.9,1067.4,447.9z"/>
			</g>
		</g>
		
			<ellipse transform="matrix(0.2325 -0.9726 0.9726 0.2325 364.2135 1389.5931)" class="st26" cx="1062.6" cy="464" rx="6.8" ry="1.4"/>
	</g>
	<path class="st8" d="M702.3,502.8c1.7,0,3.2,1.2,3.6,2.8c0.8-1.3,2.2-2.2,3.9-2.2c2.5,0,4.5,2,4.5,4.5c0,0.1,0,0.3,0,0.4
		c0.1,0,0.2,0,0.4,0c2,0,3.7,1.6,3.7,3.7c0,2-1.6,3.7-3.7,3.7h-16.6c-2,0-3.7-1.6-3.7-3.7c0-2,1.6-3.7,3.7-3.7
		c0.5,0,0.9,0.1,1.3,0.3c-0.4-0.6-0.7-1.3-0.7-2.1C698.6,504.4,700.2,502.8,702.3,502.8z"/>
	<path class="st22" d="M687.7,505.1c1.8,0,3.4,1.3,3.8,3c0.8-1.4,2.4-2.3,4.1-2.3c2.7,0,4.8,2.2,4.8,4.8c0,0.1,0,0.3,0,0.4
		c0.1,0,0.3,0,0.4,0c2.2,0,3.9,1.8,3.9,3.9c0,2.2-1.8,3.9-3.9,3.9H683c-2.2,0-3.9-1.8-3.9-3.9c0-2.2,1.8-3.9,3.9-3.9
		c0.5,0,1,0.1,1.4,0.3c-0.4-0.6-0.7-1.4-0.7-2.3C683.7,506.8,685.5,505.1,687.7,505.1z"/>
	<path class="st22" d="M631.5,499.3c1.7,0,3.2,1.2,3.6,2.8c0.8-1.3,2.2-2.2,3.9-2.2c2.5,0,4.5,2,4.5,4.5c0,0.1,0,0.3,0,0.4
		c0.1,0,0.2,0,0.4,0c2,0,3.7,1.6,3.7,3.7c0,2-1.6,3.7-3.7,3.7h-16.6c-2,0-3.7-1.6-3.7-3.7c0-2,1.6-3.7,3.7-3.7
		c0.5,0,0.9,0.1,1.3,0.3c-0.4-0.6-0.7-1.3-0.7-2.1C627.8,501,629.4,499.3,631.5,499.3z"/>
	<path class="st8" d="M614.8,500.4c1.7,0,3.2,1.2,3.6,2.8c0.8-1.3,2.2-2.2,3.9-2.2c2.5,0,4.5,2,4.5,4.5c0,0.1,0,0.3,0,0.4
		c0.1,0,0.2,0,0.4,0c2,0,3.7,1.6,3.7,3.7c0,2-1.6,3.7-3.7,3.7h-16.6c-2,0-3.7-1.6-3.7-3.7c0-2,1.6-3.7,3.7-3.7
		c0.5,0,0.9,0.1,1.3,0.3c-0.4-0.6-0.7-1.3-0.7-2.1C611.2,502,612.8,500.4,614.8,500.4z"/>
	<g>
		<g>
			<path class="st24" d="M957.9,513.7c-2.8,1.6-7.4,1.6-10.2,0c-2.8-1.6-2.8-4.3,0-5.9c2.8-1.6,7.4-1.6,10.2,0
				C960.7,509.5,960.7,512.1,957.9,513.7z"/>
			<g>
				<path class="st3" d="M955,510.2c0,1.2-1,2.2-2.2,2.2l0,0c-1.2,0-2.2-1-2.2-2.2v-12.4c0-1.2,1-2.2,2.2-2.2l0,0
					c1.2,0,2.2,1,2.2,2.2V510.2z"/>
				<path class="st4" d="M952.8,505c0.8,0,1.5-0.1,2.2-0.2v-6.9c0-1.2-1-2.2-2.2-2.2s-2.2,1-2.2,2.2v6.9
					C951.3,504.9,952.1,505,952.8,505z"/>
				<path class="st25" d="M962.6,492.7c0,5.4-4.4,9.8-9.8,9.8c-5.4,0-9.8-4.4-9.8-9.8c0-5.4,4.4-27,9.8-27
					C958.2,465.6,962.6,487.2,962.6,492.7z"/>
				<path class="st23" d="M952.8,465.6c-0.3,0-0.5,0-0.8,0.1c2.5,6.8,4.2,16.2,4.2,19.5c0,5.4-4.4,9.8-9.8,9.8
					c-1.1,0-2.2-0.2-3.2-0.5c0.9,4.5,4.8,7.9,9.6,7.9c5.4,0,9.8-4.4,9.8-9.8C962.6,487.2,958.2,465.6,952.8,465.6z"/>
			</g>
		</g>
		
			<ellipse transform="matrix(0.2325 -0.9726 0.9726 0.2325 259.0667 1291.8193)" class="st26" cx="948.1" cy="481.8" rx="6.8" ry="1.4"/>
	</g>
	<path class="st22" d="M600.2,502.3c1.8,0,3.4,1.3,3.8,3c0.8-1.4,2.4-2.3,4.1-2.3c2.7,0,4.8,2.2,4.8,4.8c0,0.1,0,0.3,0,0.4
		c0.1,0,0.3,0,0.4,0c2.2,0,3.9,1.8,3.9,3.9c0,2.2-1.8,3.9-3.9,3.9h-17.7c-2.2,0-3.9-1.8-3.9-3.9c0-2.2,1.8-3.9,3.9-3.9
		c0.5,0,1,0.1,1.4,0.3c-0.4-0.6-0.7-1.4-0.7-2.3C596.3,504.1,598.1,502.3,600.2,502.3z"/>
	<path class="st40" d="M1151.2,252.4v8.8c0,0-12.5,7.2-22,8.9v-10.5L1151.2,252.4z"/>
	<g>
		<g>
			<path class="st24" d="M717.9,523.9c-2.8,1.6-7.4,1.6-10.2,0c-2.8-1.6-2.8-4.3,0-5.9c2.8-1.6,7.4-1.6,10.2,0
				C720.7,519.6,720.7,522.3,717.9,523.9z"/>
			<g>
				<path class="st3" d="M715,520.4c0,1.2-1,2.2-2.2,2.2l0,0c-1.2,0-2.2-1-2.2-2.2V508c0-1.2,1-2.2,2.2-2.2l0,0c1.2,0,2.2,1,2.2,2.2
					V520.4z"/>
				<path class="st4" d="M712.8,515.1c0.8,0,1.5-0.1,2.2-0.2V508c0-1.2-1-2.2-2.2-2.2c-1.2,0-2.2,1-2.2,2.2v6.9
					C711.4,515.1,712.1,515.1,712.8,515.1z"/>
				<path class="st25" d="M722.6,502.8c0,5.4-4.4,9.8-9.8,9.8c-5.4,0-9.8-4.4-9.8-9.8c0-5.4,4.4-27,9.8-27
					C718.3,475.8,722.6,497.4,722.6,502.8z"/>
				<path class="st23" d="M712.8,475.8c-0.3,0-0.5,0-0.8,0.1c2.5,6.8,4.2,16.2,4.2,19.5c0,5.4-4.4,9.8-9.8,9.8
					c-1.1,0-2.2-0.2-3.2-0.5c0.9,4.5,4.8,7.9,9.6,7.9c5.4,0,9.8-4.4,9.8-9.8C722.6,497.4,718.3,475.8,712.8,475.8z"/>
			</g>
		</g>
		
			<ellipse transform="matrix(0.2325 -0.9726 0.9726 0.2325 64.9903 1066.228)" class="st26" cx="708.1" cy="491.9" rx="6.8" ry="1.4"/>
	</g>
	<g>
		<g>
			<path class="st24" d="M635.9,520.4c-2.8,1.6-7.4,1.6-10.2,0c-2.8-1.6-2.8-4.3,0-5.9c2.8-1.6,7.4-1.6,10.2,0
				C638.7,516.2,638.7,518.8,635.9,520.4z"/>
			<g>
				<path class="st3" d="M633,517c0,1.2-1,2.2-2.2,2.2l0,0c-1.2,0-2.2-1-2.2-2.2v-12.4c0-1.2,1-2.2,2.2-2.2l0,0c1.2,0,2.2,1,2.2,2.2
					V517z"/>
				<path class="st4" d="M630.8,511.7c0.8,0,1.5-0.1,2.2-0.2v-6.9c0-1.2-1-2.2-2.2-2.2s-2.2,1-2.2,2.2v6.9
					C629.3,511.6,630,511.7,630.8,511.7z"/>
				<path class="st25" d="M640.6,499.4c0,5.4-4.4,9.8-9.8,9.8c-5.4,0-9.8-4.4-9.8-9.8c0-5.4,4.4-27,9.8-27
					C636.2,472.4,640.6,494,640.6,499.4z"/>
				<path class="st23" d="M630.8,472.4c-0.3,0-0.5,0-0.8,0.1c2.5,6.8,4.2,16.2,4.2,19.5c0,5.4-4.4,9.8-9.8,9.8
					c-1.1,0-2.2-0.2-3.2-0.5c0.9,4.5,4.8,7.9,9.6,7.9c5.4,0,9.8-4.4,9.8-9.8C640.6,494,636.2,472.4,630.8,472.4z"/>
			</g>
		</g>
		<ellipse transform="matrix(0.2325 -0.9726 0.9726 0.2325 5.3859 983.7696)" class="st26" cx="626" cy="488.5" rx="6.8" ry="1.4"/>
	</g>
	<g>
		<path class="st41" d="M938.6,545.1h59.6v-12.9l-18-1.9l-17.3-11H935l-4.6,11l-9.8,2.8l-1.3,2c0,0,0.2,5.5,0,10H938.6z"/>
		<g>
			<g>
				<g>
					<g>
						<g>
							<path class="st42" d="M942.6,536.9c-4.5,0-8.2,3.7-8.2,8.2h3.6h12.8C950.8,540.6,947.1,536.9,942.6,536.9z"/>
						</g>
					</g>
				</g>
				<circle class="st43" cx="942.6" cy="545.1" r="6.2"/>
				<circle class="st44" cx="942.6" cy="545.1" r="3.4"/>
				
					<ellipse transform="matrix(6.656339e-02 -0.9978 0.9978 6.656339e-02 337.4579 1451.9672)" class="st9" cx="944.8" cy="545.6" rx="0.7" ry="0.4"/>
				<g class="st45">
					<path class="st17" d="M942.6,540.2c3.3,0,6,2.7,6,6c0,0.3,0,0.6-0.1,0.9c0.2-0.6,0.3-1.3,0.3-2c0-3.5-2.8-6.2-6.2-6.2
						c-3.5,0-6.2,2.8-6.2,6.2c0,0.7,0.1,1.4,0.3,2c0-0.3-0.1-0.6-0.1-0.9C936.6,542.9,939.3,540.2,942.6,540.2z"/>
				</g>
				<g class="st45">
					<path class="st17" d="M942.6,542.5c1.8,0,3.2,1.4,3.2,3.2c0,0.2,0,0.3,0,0.5c0.1-0.3,0.2-0.7,0.2-1.1c0-1.9-1.5-3.4-3.4-3.4
						c-1.9,0-3.4,1.5-3.4,3.4c0,0.4,0.1,0.7,0.2,1.1c0-0.2,0-0.3,0-0.5C939.4,543.9,940.8,542.5,942.6,542.5z"/>
				</g>
			</g>
			<g>
				<g>
					<g>
						<g>
							<path class="st42" d="M974.9,536.9c-4.5,0-8.2,3.7-8.2,8.2h3.6h12.8C983.1,540.6,979.4,536.9,974.9,536.9z"/>
						</g>
					</g>
				</g>
				<circle class="st43" cx="974.9" cy="545.1" r="6.2"/>
				<circle class="st44" cx="974.9" cy="545.1" r="3.4"/>
				
					<ellipse transform="matrix(6.656562e-02 -0.9978 0.9978 6.656562e-02 367.5665 1484.1521)" class="st9" cx="977" cy="545.6" rx="0.7" ry="0.4"/>
				<g class="st45">
					<path class="st17" d="M974.9,540.2c3.3,0,6,2.7,6,6c0,0.3,0,0.6-0.1,0.9c0.2-0.6,0.3-1.3,0.3-2c0-3.5-2.8-6.2-6.2-6.2
						c-3.5,0-6.2,2.8-6.2,6.2c0,0.7,0.1,1.4,0.3,2c0-0.3-0.1-0.6-0.1-0.9C968.9,542.9,971.6,540.2,974.9,540.2z"/>
				</g>
				<g class="st45">
					<path class="st17" d="M974.9,542.5c1.8,0,3.2,1.4,3.2,3.2c0,0.2,0,0.3,0,0.5c0.1-0.3,0.2-0.7,0.2-1.1c0-1.9-1.5-3.4-3.4-3.4
						c-1.9,0-3.4,1.5-3.4,3.4c0,0.4,0.1,0.7,0.2,1.1c0-0.2,0-0.3,0-0.5C971.6,543.9,973.1,542.5,974.9,542.5z"/>
				</g>
			</g>
		</g>
		<polygon class="st46" points="932.6,530.3 936.4,530.3 936.4,521.2 		"/>
		<rect x="938.3" y="521.2" class="st47" width="16.5" height="9.1"/>
		<polygon class="st47" points="956.7,521.2 956.7,530.3 976.7,530.3 961.8,521.2 		"/>
		<path class="st42" d="M994.7,537.6h3.5v-3.8h-3.5c-0.9,0-1.6,0.8-1.6,1.9l0,0C993.1,536.7,993.8,537.6,994.7,537.6z"/>
		<path class="st48" d="M994.7,536.9h3.5v-3.1h-3.5c-0.9,0-1.6,0.7-1.6,1.6l0,0C993.1,536.2,993.8,536.9,994.7,536.9z"/>
		<path class="st42" d="M920.8,542.3h-1.5v-2h1.5c0.5,0,0.9,0.5,0.9,1l0,0C921.7,541.8,921.3,542.3,920.8,542.3z"/>
		<path class="st49" d="M920.8,541.9h-1.5v-1.7h1.5c0.5,0,0.9,0.4,0.9,0.8l0,0C921.7,541.5,921.3,541.9,920.8,541.9z"/>
		<path class="st50" d="M997.9,542.9h-12.6v2.6h12.6c0.7,0,1.3-0.6,1.3-1.3l0,0C999.2,543.5,998.6,542.9,997.9,542.9z"/>
		<circle class="st9" cx="995.2" cy="535.4" r="1.3"/>
		<path class="st9" d="M998.2,534.1c-0.7,0-1.3,0.6-1.3,1.3c0,0.7,0.6,1.3,1.3,1.3"/>
		<path class="st42" d="M960.4,534.3h-1.7c-0.4,0-0.6-0.3-0.6-0.6l0,0c0-0.4,0.3-0.6,0.6-0.6h1.7c0.4,0,0.6,0.3,0.6,0.6l0,0
			C961,534,960.7,534.3,960.4,534.3z"/>
		<path class="st42" d="M941.2,534.3h-1.7c-0.4,0-0.6-0.3-0.6-0.6l0,0c0-0.4,0.3-0.6,0.6-0.6h1.7c0.4,0,0.6,0.3,0.6,0.6l0,0
			C941.9,534,941.6,534.3,941.2,534.3z"/>
		
			<ellipse transform="matrix(6.166359e-02 -0.9981 0.9981 6.166359e-02 324.085 1426.8674)" class="st9" cx="920.9" cy="541.1" rx="0.5" ry="0.3"/>
		<polyline class="st51" points="933.9,530.3 931.8,530.3 936.1,520.3 943.6,519.3 935,519.3 930.4,530.3 920.6,533.1 919.3,535.1 
			919.3,545.1 934.4,545.1 920.5,543.7 919.3,535.1 920.9,533.5 930.9,531.8 		"/>
		<g>
			<path class="st47" d="M942,530.3h12.7v-9.1h-5C949.7,521.2,943,524.2,942,530.3z"/>
			<path class="st46" d="M949.7,521.2h-11.5v9.1h3.7C943,524.2,949.7,521.2,949.7,521.2z"/>
			<path class="st47" d="M959.5,530.3h17.2l-12.9-7.9l0,0C963.8,522.4,959.9,525.6,959.5,530.3z"/>
			<path class="st46" d="M956.7,521.2v9.1h2.8c0.3-4.7,4.2-7.9,4.2-7.9l0,0l-2-1.2H956.7z"/>
		</g>
		<path class="st52" d="M978.2,535.7L978.2,535.7c0.7,0,1.3-0.6,1.3-1.3v-1.2c0-0.7-0.6-1.3-1.3-1.3l0,0c-0.7,0-0.5,0-0.5,0v3.8
			C977.8,535.7,977.5,535.7,978.2,535.7z"/>
	</g>
	<g>
		<path class="st21" d="M952.2,398.2c0,0,0.8-6.1,5-4.8c0,0-4.7-2.9-5.6,1.8c0,0-2.6-2.5-5.6-0.4
			C945.8,394.8,949.9,395.1,952.2,398.2z"/>
		<path class="st21" d="M953,388.6c0,0,2.4-5,5.7-2.8c0,0-3.2-3.9-5.4-0.1c0,0-1.5-2.9-4.8-1.9C948.5,383.9,952,385.3,953,388.6z"/>
		<path class="st21" d="M961.9,393.7c0,0,2.7-3.2,4.6-1c0,0-1.6-3.4-3.9-1c0,0-0.6-2.4-3.1-2.2C959.5,389.5,961.7,391.1,961.9,393.7
			z"/>
		<path class="st21" d="M941.2,392.4c0,0,1.3-5.4,4.9-3.9c0,0-4-3.1-5.3,1.1c0,0-2.1-2.5-5.1-0.8
			C935.7,388.8,939.5,389.4,941.2,392.4z"/>
	</g>
	<g>
		<path class="st53" d="M0,352.4l520.1-0.1l17.2,0.1c11.5,0,20.7,9.3,20.7,20.8v156.2c0,11.5,9.3,20.8,20.7,20.8h21.1l519.6,0
			c11.5,0,20.7-9.3,20.7-20.8V175.4c0-11.5,9.3-20.8,20.7-20.8h69.9c11.5,0,20.7,9.3,20.7,20.8v156.2c0,11.5,9.3,20.8,20.7,20.8
			l727.7,0"/>
	</g>
	<g>
		<path class="st54" d="M1129.2,232.2V227c-1,0.7-1.9,1.4-2.7,2.3c-0.2,0.2-0.3,0.4-0.5,0.6C1126.9,230.7,1127.9,231.5,1129.2,232.2
			z"/>
		<path class="st54" d="M1151.2,225.7v4.7c1-0.8,1.9-1.6,2.7-2.6C1153.1,227,1152.2,226.3,1151.2,225.7z"/>
		<path class="st55" d="M1129.2,227v-11.5c-1,0.7-1.9,1.4-2.7,2.3c-3.6,3.9-3.6,8.6-0.5,12c0.2-0.2,0.3-0.4,0.5-0.6
			C1127.3,228.4,1128.2,227.6,1129.2,227z"/>
		<path class="st55" d="M1153.9,227.8c0.2-0.3,0.5-0.6,0.7-0.9c3.2-4.8,1.4-9.8-3.4-12.7v11.5C1152.2,226.3,1153.1,227,1153.9,227.8
			z"/>
		<path class="st56" d="M1131,233c6.6,2.6,14.9,1.3,20.2-2.6v-4.7c-1.2-0.7-2.5-1.2-4-1.6c-6-1.6-13.2-0.4-18,2.9v5.2
			C1129.8,232.5,1130.3,232.7,1131,233z"/>
		<path class="st55" d="M1169.8,232.9v-7.7c-0.3,1.9-0.9,3.9-2,5.9c-2.3,4.1-8.8,8.1-16.6,11.7c-7,3.2-15.1,6.1-22,8.2
			c-9.2,2.9-16.4,4.7-16.4,4.7l3,10.7c0,0,5.7-1.4,13.3-3.8c6.7-2.1,14.8-4.9,22-8.2c7.7-3.5,14.2-7.6,16.6-11.8
			C1169.6,239.3,1170.2,236,1169.8,232.9z"/>
		<path class="st57" d="M1152.4,206c-0.4-0.1-0.8-0.2-1.3-0.3v5.4v3.1c4.9,2.9,6.6,7.9,3.4,12.7c-0.2,0.3-0.5,0.6-0.7,0.9
			c-0.8,0.9-1.7,1.8-2.7,2.6c-5.3,3.9-13.6,5.2-20.2,2.6c-0.6-0.2-1.2-0.5-1.8-0.8c-1.3-0.7-2.3-1.5-3.1-2.4
			c-3.2-3.4-3.1-8.1,0.5-12c0.8-0.8,1.7-1.6,2.7-2.3v-4.4v-3.6c-4.6,1.7-8.8,4.1-11.9,7.2c-9.5,9.5-4.4,41-4.4,41s7.2-1.8,16.4-4.7
			c6.9-2.2,15-5,22-8.2c7.8-3.6,14.3-7.6,16.6-11.7c1.1-2,1.8-4,2-5.9C1171,216.3,1163.4,208.6,1152.4,206z"/>
	</g>
</g>
<rect x="669" y="252" class="st54" width="362" height="64"/>
<text transform="matrix(1 0 0 1 669 265.2749)"><tspan x="0" y="0" class="st58 st59">choose</tspan><tspan x="56.3" y="0" class="st58 st59 st60"> </tspan><tspan x="67" y="0" class="st58 st59">your</tspan><tspan x="103" y="0" class="st58 st59 st60"> </tspan><tspan x="113.6" y="0" class="st58 st59">current</tspan><tspan x="171.4" y="0" class="st58 st59 st60"> </tspan><tspan x="182" y="0" class="st58 st59">location</tspan><tspan x="245.3" y="0" class="st58 st59 st60"> </tspan><tspan x="255.9" y="0" class="st58 st59">to</tspan><tspan x="272.6" y="0" class="st58 st59 st60"> </tspan><tspan x="283.2" y="0" class="st58 st59">show</tspan><tspan x="325.4" y="0" class="st58 st59 st60"> </tspan><tspan x="336" y="0" class="st58 st59">the </tspan><tspan x="17.8" y="21.6" class="st58 st59">available services in your city and district.</tspan></text>
<rect x="644" y="210" class="st54" width="412" height="73"/>
<text transform="matrix(1 0 0 1 671.8535 230.9858)" class="st61 st62">choose your city and district</text>
</svg>
