<?xml version="1.0" encoding="utf-8"?>
<!-- Generator: Adobe Illustrator 21.1.0, SVG Export Plug-In . SVG Version: 6.00 Build 0)  -->
<svg version="1.1" id="Layer_1" xmlns="http://www.w3.org/2000/svg" xmlns:xlink="http://www.w3.org/1999/xlink" x="0px" y="0px"
	 viewBox="0 0 2000 668" style="enable-background:new 0 0 2000 668;" xml:space="preserve">
<style type="text/css">
	.st0{fill:#9B6649;}
	.st1{fill:#805038;}
	.st2{fill:#6D412D;}
	.st3{fill:#476429;}
	.st4{fill:#3E5823;}
	.st5{fill:#76B72A;}
	.st6{opacity:0.2;}
	.st7{fill:#1D1D1B;}
	.st8{opacity:0.2;fill:#1D1D1B;}
	.st9{fill:#BA6456;}
	.st10{fill:#8A4336;}
	.st11{fill:#6D9C40;}
	.st12{fill:#547831;}
	.st13{opacity:0.5;fill:#C5D665;}
	.st14{fill:#F08966;}
	.st15{fill:#845F41;}
	.st16{fill:#563722;}
	.st17{fill:#D68162;}
	.st18{fill:#F9F8F7;}
	.st19{fill:#D1D3D4;}
	.st20{fill:#BB8767;}
	.st21{fill:#7A9A9E;}
	.st22{fill:#A4C6D3;}
	.st23{fill:#435C64;}
	.st24{fill:#A2CCD6;}
	.st25{fill:#FFFFFF;}
	.st26{fill:#9B9B9A;}
	.st27{fill:#717070;}
	.st28{fill:#E20A13;}
	.st29{fill:none;stroke:#333333;stroke-width:22;stroke-miterlimit:10;}
	.st30{fill:#F9C150;}
	.st31{fill:#E58B33;}
	.st32{fill:#28242C;}
	.st33{fill:#C4C3C4;}
	.st34{fill:#8ACBF0;}
	.st35{fill:#B9D9ED;}
	.st36{fill:#FFF381;}
	.st37{fill:#E53C39;}
	.st38{fill:#C13334;}
	.st39{opacity:0.4;}
	.st40{font-family:'Lato-Black';}
	.st41{font-size:10.4847px;}
	.st42{fill:#EDA577;}
	.st43{opacity:0.6;fill:#B77548;}
	.st44{fill:#C9DFF4;}
	.st45{fill:#7CA2B0;}
	.st46{fill:#542524;}
	.st47{fill:#C98058;}
	.st48{opacity:0.2;fill:#EA5C8A;}
	.st49{fill:#673334;}
	.st50{fill:#000100;}
	.st51{fill:#2E5579;}
	.st52{opacity:0.4;fill:#333435;}
	.st53{opacity:0.5;fill:#333435;}
	.st54{fill:#333435;}
	.st55{fill:#232323;}
	.st56{fill:#FABB33;}
	.st57{fill:#CA6D1E;}
	.st58{fill:#993D0F;}
	
		.st59{fill:none;stroke:#FFFFFF;stroke-width:2;stroke-linecap:round;stroke-linejoin:round;stroke-miterlimit:10;stroke-dasharray:10,20;}
	.st60{fill:none;}
	.st61{font-family:'Lato-Regular';}
	.st62{font-size:18px;}
	.st63{letter-spacing:1;}
	.st64{font-size:28px;}
</style>
<g>
	<g>
		<path class="st0" d="M919.9,465.7c0,0-4.5-7.1-5.9-10.6c-1.4-3.5-2.7-6.6-2.7-6.6s-6.5-3-8-4.5c-1.5-1.5-11.8-6.2-13.3-9.2
			c-1.5-3-15.5-12.8-15.5-12.8l-13.8-0.3c0,0-7.4,1.4-10.7,2.8c-3.3,1.4-6.8,12.8-6.8,12.8l-12.9,5.2c0,0-9.8,0.8-9.9,3.3
			c-0.1,2.5-4.7,10.4-4.7,10.4s-9.2,4.8-10.9,6.3c-1.7,1.5-4.6,9.4-4.7,11.4c-0.1,2-6.8,5.4-9.3,6.3c-2.5,0.9-10.5-1.7-15,6.2
			c-4.5,7.9-4.6,9.9-8,11.3c-3.3,1.4-10.7,2.3-13.2,4.2c-2.5,1.9-12.8,5.7-12.8,5.7l-14.4,2.2"/>
		<g>
			<path class="st1" d="M914.1,503.5c-4.4-1.8-5.5-2.6-5.5-2.6s-4-1.3-5.2-0.6c-1.3,0.7-7.7,0.4-9.7-0.2c-2-0.5-8.8-1.7-8.8-1.7
				l-10.5-1.4l-9.5-4.7l-1.9-8.3l-15.9,6.4l-16.5-2.6l-6.5-6.6l13.2-2.7c0,0,8.8-4.8,8.8-5.6c0-0.7-10.2-6.4-10.2-6.4l2.3-4.2
				l16.8-3.2c0,0,7.9-3.3,6.8-4.6s3.3-7.7,3.3-7.7l8.4-5.3l-2.7-6.5l-2.7-6.8l6.5-6.4l-13.8-0.3c0,0-7.4,1.4-10.7,2.8
				c-3.3,1.4-6.8,12.8-6.8,12.8l-12.9,5.2c0,0-9.8,0.8-9.9,3.3c-0.1,2.5-4.7,10.4-4.7,10.4s-9.2,4.8-10.9,6.3
				c-1.7,1.5-4.6,9.4-4.7,11.4c-0.1,2-6.8,5.4-9.3,6.3c-2.5,0.9-10.5-1.7-15,6.2c-4.5,7.9-4.6,9.9-8,11.3
				c-3.3,1.4-10.7,2.3-13.2,4.2c-2.5,1.9-12.8,5.7-12.8,5.7l-14.4,2.2"/>
		</g>
		<path class="st1" d="M891.8,459.2l-0.2,3.7l-3.5,4.7c0,0,0.7,2.5,3,4c2.3,1.5,2.9,5.5,2.8,7.8c-0.1,2.2-3.1-1.8-3.1-1.8l0.2-3.5
			l-5.1-3.6c0,0,0.6-4,0.3-4.7C885.8,465.1,891.6,463.2,891.8,459.2z"/>
		<path class="st1" d="M853.2,473.9l7.5-2.5l5.6,2.1l-4.1-3.4c0,0-0.8-0.2-2.8,0.1C857.3,470.5,853.2,473.9,853.2,473.9z"/>
		<path class="st1" d="M889.5,441.9l6.2,5.1c0,0,0.7,1.8-0.2,3.2c-0.9,1.5-0.3,4.7-0.3,4.7l-2.6-7.5L889.5,441.9z"/>
		<g>
			<path class="st2" d="M866.2,510.3c-2.1,0.5-23.9-0.5-23.9-0.5s-14.6-1-14.7-1.5c-0.2-0.5-2-4-2-4l-18.8,1.4l-9.8-6.4l9.5-2.6
				c0,0-5.6-9.3-6.3-10.8c-0.7-1.5-2.2-4-2.2-4l8-5.6l6.3-4.1l0.5-8.2l5.9-4.4c0,0,4.2-3.2,4.3-3.9c0-0.7,4.5-6.9,4.5-6.9l9.8-1.3
				c0,0,6.4-5.1,6.9-6.3c0.5-1.2,3.4-3.2,3.9-3.9c0.4-0.7,4.6-2.7,4.6-2.7l4.2-2.2l0.3-5.5l6.3-3.1l1.4-2l-4.2-0.1
				c0,0-7.4,1.4-10.7,2.8c-3.3,1.4-6.8,12.8-6.8,12.8l-12.9,5.2c0,0-9.8,0.8-9.9,3.3c-0.1,2.5-4.7,10.4-4.7,10.4s-9.2,4.8-10.9,6.3
				c-1.7,1.5-4.6,9.4-4.7,11.4c-0.1,2-6.8,5.4-9.3,6.3c-2.5,0.9-10.5-1.7-15,6.2c-4.5,7.9-4.6,9.9-8,11.3
				c-3.3,1.4-10.7,2.3-13.2,4.2c-2.5,1.9-12.8,5.7-12.8,5.7l-28,6.9l157.6-1.9C871.3,512.6,868.2,509.8,866.2,510.3z"/>
		</g>
		<path class="st1" d="M876.2,425.8l3.2,2.9l4.4,2.7l1.4,4.2c0,0,2,3,2.3,4.4c0.4,1.3-3.7-4.1-3.7-4.1s-1-1.2-2-2.2
			c-1-1-2.8-3.2-2.8-3.2L876.2,425.8z"/>
	</g>
	<g>
		<path class="st0" d="M736.3,457.1c0,0-4.5-7.1-5.9-10.6c-1.4-3.5-2.7-6.6-2.7-6.6s-6.5-3-8-4.5c-1.5-1.5-11.8-6.2-13.3-9.2
			c-1.5-3-15.5-12.8-15.5-12.8l-13.8-0.3c0,0-7.4,1.4-10.7,2.8c-3.3,1.4-6.8,12.8-6.8,12.8l-12.9,5.2c0,0-9.8,0.8-9.9,3.3
			c-0.1,2.5-4.7,10.4-4.7,10.4s-9.2,4.8-10.9,6.3c-1.7,1.5-4.6,9.4-4.7,11.4"/>
		<g>
			<path class="st1" d="M730.5,494.9c-4.4-1.8-5.5-2.6-5.5-2.6s-4-1.3-5.2-0.6c-1.3,0.7-7.7,0.4-9.7-0.2c-2-0.5-8.8-1.7-8.8-1.7
				l-10.5-1.4l-9.5-4.7l-1.9-8.3l-15.9,6.4l-16.5-2.6l-6.5-6.6l13.2-2.7c0,0,8.8-4.8,8.8-5.6c0-0.7-10.2-6.4-10.2-6.4l2.3-4.2
				l16.8-3.2c0,0,7.9-3.3,6.8-4.6c-1.1-1.3,3.3-7.7,3.3-7.7l8.4-5.3l-2.7-6.5l-2.7-6.8l6.5-6.4l-13.8-0.3c0,0-7.4,1.4-10.7,2.8
				c-3.3,1.4-6.8,12.8-6.8,12.8l-12.9,5.2c0,0-9.8,0.8-9.9,3.3c-0.1,2.5-4.7,10.4-4.7,10.4s-9.2,4.8-10.9,6.3
				c-1.7,1.5-4.6,9.4-4.7,11.4"/>
		</g>
		<path class="st1" d="M708.2,450.6l-0.2,3.7l-3.5,4.7c0,0,0.7,2.5,3,4c2.3,1.5,2.9,5.5,2.8,7.8c-0.1,2.2-3.1-1.8-3.1-1.8l0.2-3.5
			l-5.1-3.6c0,0,0.6-4,0.3-4.7C702.2,456.5,708,454.6,708.2,450.6z"/>
		<path class="st1" d="M669.6,465.3l7.5-2.5l5.6,2.1l-4.1-3.4c0,0-0.8-0.2-2.8,0.1C673.8,461.9,669.6,465.3,669.6,465.3z"/>
		<path class="st1" d="M706,433.4l6.2,5.1c0,0,0.7,1.8-0.2,3.2c-0.9,1.5-0.3,4.7-0.3,4.7l-2.6-7.5L706,433.4z"/>
		<g>
			<path class="st2" d="M687.7,504.1c0,0-3.1-2.8-5.1-2.3c-2.1,0.5-23.9-0.5-23.9-0.5s-14.6-1-14.7-1.5c-0.2-0.5-2-4-2-4l-18.8,1.4
				l-9.8-6.4l9.5-2.6c0,0-5.6-9.3-6.3-10.8c-0.7-1.5-2.2-4-2.2-4l8-5.6l6.3-4.1l0.5-8.2l5.9-4.4c0,0,4.2-3.2,4.3-3.9
				c0-0.7,4.5-6.9,4.5-6.9l9.8-1.3c0,0,6.4-5.1,6.9-6.3c0.5-1.2,3.4-3.2,3.9-3.9c0.4-0.7,4.6-2.7,4.6-2.7l4.2-2.2l0.3-5.5l6.3-3.1
				l1.4-2l-4.2-0.1c0,0-7.4,1.4-10.7,2.8c-3.3,1.4-6.8,12.8-6.8,12.8l-12.9,5.2c0,0-9.8,0.8-9.9,3.3c-0.1,2.5-4.7,10.4-4.7,10.4
				s-9.2,4.8-10.9,6.3c-1.7,1.5-4.6,9.4-4.7,11.4"/>
		</g>
		<path class="st1" d="M692.7,417.2l3.2,2.9l4.4,2.7l1.4,4.2c0,0,2,3,2.3,4.4c0.4,1.3-3.7-4.1-3.7-4.1s-1-1.2-2-2.2
			c-1-1-2.8-3.2-2.8-3.2L692.7,417.2z"/>
	</g>
	<path class="st3" d="M872.7,450.5c1.7,0,3.2,1.2,3.6,2.8c0.8-1.3,2.2-2.2,3.9-2.2c2.5,0,4.5,2,4.5,4.5c0,0.1,0,0.3,0,0.4
		c0.1,0,0.2,0,0.4,0c2,0,3.7,1.6,3.7,3.7c0,2-1.6,3.7-3.7,3.7h-16.6c-2,0-3.7-1.6-3.7-3.7c0-2,1.6-3.7,3.7-3.7
		c0.5,0,0.9,0.1,1.3,0.3c-0.4-0.6-0.7-1.3-0.7-2.1C869,452.2,870.7,450.5,872.7,450.5z"/>
	<path class="st4" d="M892.6,436.4c1.7,0,3.2,1.2,3.6,2.8c0.8-1.3,2.2-2.2,3.9-2.2c2.5,0,4.5,2,4.5,4.5c0,0.1,0,0.3,0,0.4
		c0.1,0,0.2,0,0.4,0c2,0,3.7,1.6,3.7,3.7c0,2-1.6,3.7-3.7,3.7h-16.6c-2,0-3.7-1.6-3.7-3.7c0-2,1.6-3.7,3.7-3.7
		c0.5,0,0.9,0.1,1.3,0.3c-0.4-0.6-0.7-1.3-0.7-2.1C888.9,438.1,890.5,436.4,892.6,436.4z"/>
	<path class="st3" d="M832.1,447.2c1.7,0,3.2,1.2,3.6,2.8c0.8-1.3,2.2-2.2,3.9-2.2c2.5,0,4.5,2,4.5,4.5c0,0.1,0,0.3,0,0.4
		c0.1,0,0.2,0,0.4,0c2,0,3.7,1.6,3.7,3.7c0,2-1.6,3.7-3.7,3.7h-16.6c-2,0-3.7-1.6-3.7-3.7c0-2,1.6-3.7,3.7-3.7
		c0.5,0,0.9,0.1,1.3,0.3c-0.4-0.6-0.7-1.3-0.7-2.1C828.4,448.9,830,447.2,832.1,447.2z"/>
	<path class="st4" d="M851.9,448.3c1.7,0,3.2,1.2,3.6,2.8c0.8-1.3,2.2-2.2,3.9-2.2c2.5,0,4.5,2,4.5,4.5c0,0.1,0,0.3,0,0.4
		c0.1,0,0.2,0,0.4,0c2,0,3.7,1.6,3.7,3.7c0,2-1.6,3.7-3.7,3.7h-16.6c-2,0-3.7-1.6-3.7-3.7c0-2,1.6-3.7,3.7-3.7
		c0.5,0,0.9,0.1,1.3,0.3c-0.4-0.6-0.7-1.3-0.7-2.1C848.2,450,849.9,448.3,851.9,448.3z"/>
	<path class="st3" d="M790,444.3c1.7,0,3.2,1.2,3.6,2.8c0.8-1.3,2.2-2.2,3.9-2.2c2.5,0,4.5,2,4.5,4.5c0,0.1,0,0.3,0,0.4
		c0.1,0,0.2,0,0.4,0c2,0,3.7,1.6,3.7,3.7c0,2-1.6,3.7-3.7,3.7h-16.6c-2,0-3.7-1.6-3.7-3.7c0-2,1.6-3.7,3.7-3.7
		c0.5,0,0.9,0.1,1.3,0.3c-0.4-0.6-0.7-1.3-0.7-2.1C786.3,446,787.9,444.3,790,444.3z"/>
	<path class="st4" d="M809.8,445.4c1.7,0,3.2,1.2,3.6,2.8c0.8-1.3,2.2-2.2,3.9-2.2c2.5,0,4.5,2,4.5,4.5c0,0.1,0,0.3,0,0.4
		c0.1,0,0.2,0,0.4,0c2,0,3.7,1.6,3.7,3.7c0,2-1.6,3.7-3.7,3.7h-16.6c-2,0-3.7-1.6-3.7-3.7c0-2,1.6-3.7,3.7-3.7
		c0.5,0,0.9,0.1,1.3,0.3c-0.4-0.6-0.7-1.3-0.7-2.1C806.1,447.1,807.8,445.4,809.8,445.4z"/>
	<path class="st3" d="M748.8,444.9c1.7,0,3.2,1.2,3.6,2.8c0.8-1.3,2.2-2.2,3.9-2.2c2.5,0,4.5,2,4.5,4.5c0,0.1,0,0.3,0,0.4
		c0.1,0,0.2,0,0.4,0c2,0,3.7,1.6,3.7,3.7c0,2-1.6,3.7-3.7,3.7h-16.6c-2,0-3.7-1.6-3.7-3.7c0-2,1.6-3.7,3.7-3.7
		c0.5,0,0.9,0.1,1.3,0.3c-0.4-0.6-0.7-1.3-0.7-2.1C745.1,446.5,746.7,444.9,748.8,444.9z"/>
	<path class="st4" d="M768.6,446c1.7,0,3.2,1.2,3.6,2.8c0.8-1.3,2.2-2.2,3.9-2.2c2.5,0,4.5,2,4.5,4.5c0,0.1,0,0.3,0,0.4
		c0.1,0,0.2,0,0.4,0c2,0,3.7,1.6,3.7,3.7c0,2-1.6,3.7-3.7,3.7h-16.6c-2,0-3.7-1.6-3.7-3.7c0-2,1.6-3.7,3.7-3.7
		c0.5,0,0.9,0.1,1.3,0.3c-0.4-0.6-0.7-1.3-0.7-2.1C764.9,447.6,766.6,446,768.6,446z"/>
	<path class="st3" d="M706.8,445.2c1.7,0,3.2,1.2,3.6,2.8c0.8-1.3,2.2-2.2,3.9-2.2c2.5,0,4.5,2,4.5,4.5c0,0.1,0,0.3,0,0.4
		c0.1,0,0.2,0,0.4,0c2,0,3.7,1.6,3.7,3.7c0,2-1.6,3.7-3.7,3.7h-16.6c-2,0-3.7-1.6-3.7-3.7c0-2,1.6-3.7,3.7-3.7
		c0.5,0,0.9,0.1,1.3,0.3c-0.4-0.6-0.7-1.3-0.7-2.1C703.2,446.9,704.8,445.2,706.8,445.2z"/>
	<path class="st4" d="M726.7,446.3c1.7,0,3.2,1.2,3.6,2.8c0.8-1.3,2.2-2.2,3.9-2.2c2.5,0,4.5,2,4.5,4.5c0,0.1,0,0.3,0,0.4
		c0.1,0,0.2,0,0.4,0c2,0,3.7,1.6,3.7,3.7c0,2-1.6,3.7-3.7,3.7h-16.6c-2,0-3.7-1.6-3.7-3.7c0-2,1.6-3.7,3.7-3.7
		c0.5,0,0.9,0.1,1.3,0.3c-0.4-0.6-0.7-1.3-0.7-2.1C723,448,724.7,446.3,726.7,446.3z"/>
	<path class="st3" d="M665.6,451.2c1.7-0.2,3.3,0.7,3.9,2.3c0.6-1.4,1.9-2.5,3.5-2.7c2.5-0.3,4.8,1.4,5.1,3.8c0,0.1,0,0.3,0,0.4
		c0.1,0,0.2-0.1,0.4-0.1c2-0.3,3.9,1.1,4.1,3.1c0.3,2-1.1,3.9-3.1,4.2l-16.5,2.3c-2,0.3-3.9-1.1-4.2-3.1c-0.3-2,1.1-3.9,3.1-4.2
		c0.5-0.1,0.9,0,1.4,0.1c-0.5-0.5-0.9-1.2-1-2C662.1,453.4,663.5,451.5,665.6,451.2z"/>
	<path class="st4" d="M685.4,449.6c1.7-0.2,3.3,0.7,3.9,2.3c0.6-1.4,1.9-2.5,3.5-2.7c2.5-0.3,4.8,1.4,5.1,3.8c0,0.1,0,0.3,0,0.4
		c0.1,0,0.2-0.1,0.4-0.1c2-0.3,3.9,1.1,4.1,3.1c0.3,2-1.1,3.9-3.1,4.2l-16.5,2.3c-2,0.3-3.9-1.1-4.2-3.1c-0.3-2,1.1-3.9,3.1-4.2
		c0.5-0.1,0.9,0,1.4,0.1c-0.5-0.5-0.9-1.2-1-2C681.9,451.7,683.3,449.9,685.4,449.6z"/>
	<path class="st3" d="M631.9,454.4c1.7-0.2,3.3,0.7,3.9,2.3c0.6-1.4,1.9-2.5,3.5-2.7c2.5-0.3,4.8,1.4,5.1,3.8c0,0.1,0,0.3,0,0.4
		c0.1,0,0.2-0.1,0.4-0.1c2-0.3,3.9,1.1,4.1,3.1c0.3,2-1.1,3.9-3.1,4.2l-16.5,2.3c-2,0.3-3.9-1.1-4.2-3.1c-0.3-2,1.1-3.9,3.1-4.2
		c0.5-0.1,0.9,0,1.4,0.1c-0.5-0.5-0.9-1.2-1-2C628.4,456.5,629.9,454.6,631.9,454.4z"/>
	<path class="st4" d="M651.7,452.7c1.7-0.2,3.3,0.7,3.9,2.3c0.6-1.4,1.9-2.5,3.5-2.7c2.5-0.3,4.8,1.4,5.1,3.8c0,0.1,0,0.3,0,0.4
		c0.1,0,0.2-0.1,0.4-0.1c2-0.3,3.9,1.1,4.1,3.1c0.3,2-1.1,3.9-3.1,4.2l-16.5,2.3c-2,0.3-3.9-1.1-4.2-3.1c-0.3-2,1.1-3.9,3.1-4.2
		c0.5-0.1,0.9,0,1.4,0.1c-0.5-0.5-0.9-1.2-1-2C648.3,454.8,649.7,453,651.7,452.7z"/>
	<g>
		<path class="st5" d="M914.7,541.4v-75.1c-44.9-7-94-10.8-145.5-10.8c-51.5,0-100.6,3.8-145.5,10.8v75.1H914.7z"/>
	</g>
	<g class="st6">
		<path class="st7" d="M769.2,455.5c-51.5,0-100.6,3.8-145.5,10.8v35.1c44.9-7,94-10.8,145.5-10.8c51.5,0,100.6,3.8,145.5,10.8
			v-35.1C869.8,459.4,820.7,455.5,769.2,455.5z"/>
	</g>
	<g>
		<path class="st0" d="M1472.6,319.6c0,0-4.4-0.1-6.3-3.8c-2-3.7-2.8-7.4-5.5-9.5c-2.6-2.1-8.9-5.9-8.9-5.9s-3-4.7-4-7.1
			c-1-2.4-1.8-4.5-1.8-4.5s-4.4-2-5.4-3c-1-1-7.9-4.2-8.9-6.2c-1-2-10.4-8.6-10.4-8.6l-9.3-0.2c0,0-5,0.9-7.2,1.9
			c-2.2,1-4.6,8.6-4.6,8.6l-8.6,3.5c0,0-6.6,0.5-6.7,2.2c-0.1,1.7-3.1,7-3.1,7s-6.2,3.2-7.3,4.2c-1.1,1-3.1,6.3-3.2,7.6
			c-0.1,1.3-4.6,3.6-6.2,4.2c-1.7,0.6-7-1.1-10,4.2c-3,5.3-3.1,6.6-5.3,7.6c-2.2,1,6.8,4.5,5.1,5.9c-1.7,1.3,16.2,6.7,16.2,6.7
			l-9.7,1.5l123.5,9.7l22.3-8.2l-18.5-14.9c-2.7-0.4-12.4-2.2-12.4-2.2L1472.6,319.6z"/>
		<g>
			<path class="st1" d="M1458.2,328.3c0,0-7.3-1.3-10.2-2.5c-2.9-1.2-3.7-1.8-3.7-1.8s-2.7-0.9-3.5-0.4c-0.8,0.5-5.2,0.2-6.5-0.1
				c-1.3-0.4-5.9-1.1-5.9-1.1l-7-1l-6.4-3.1l-1.3-5.5l-10.6,4.3l-11.1-1.7l-4.4-4.4l8.8-1.8c0,0,5.9-3.2,5.9-3.7
				c0-0.5-6.8-4.3-6.8-4.3l1.5-2.8l11.3-2.1c0,0,5.3-2.2,4.5-3.1c-0.8-0.9,2.2-5.1,2.2-5.1l5.6-3.6l-1.8-4.4l-1.8-4.5l4.3-4.3
				l-9.3-0.2c0,0-5,0.9-7.2,1.9c-2.2,1-4.6,8.6-4.6,8.6l-8.6,3.5c0,0-6.6,0.5-6.7,2.2c-0.1,1.7-3.1,7-3.1,7s-6.2,3.2-7.3,4.2
				c-1.1,1-3.1,6.3-3.2,7.6c-0.1,1.3-4.6,3.6-6.2,4.2c-1.7,0.6-7-1.1-10,4.2c-3,5.3-3.1,6.6-5.3,7.6c-2.2,1,6.8,4.5,5.1,5.9
				c-1.7,1.3,16.2,6.7,16.2,6.7l-9.7,1.5l112.6-3l-14.6-2.3L1458.2,328.3z"/>
		</g>
		<path class="st1" d="M1433.1,296.1l-0.1,2.5l-2.4,3.1c0,0,0.4,1.7,2,2.7c1.6,1,2,3.7,1.9,5.2c-0.1,1.5-2.1-1.2-2.1-1.2l0.1-2.3
			l-3.4-2.4c0,0,0.4-2.7,0.2-3.2C1429,300,1432.9,298.8,1433.1,296.1z"/>
		<path class="st1" d="M1407.2,305.9l5-1.7l3.7,1.4l-2.7-2.3c0,0-0.5-0.1-1.9,0.1C1409.9,303.6,1407.2,305.9,1407.2,305.9z"/>
		<path class="st1" d="M1431.6,284.5l4.2,3.4c0,0,0.5,1.2-0.1,2.2c-0.6,1-0.2,3.2-0.2,3.2l-1.8-5.1L1431.6,284.5z"/>
		<g>
			<path class="st2" d="M1415.9,330.4c-1.4,0.3-16.1-0.3-16.1-0.3s-9.8-0.7-9.9-1c-0.1-0.3-1.3-2.7-1.3-2.7l-12.6,0.9l-6.6-4.3
				l6.4-1.7c0,0-3.7-6.3-4.2-7.3c-0.5-1-1.5-2.7-1.5-2.7l5.4-3.7l4.2-2.8l0.3-5.5l4-2.9c0,0,2.8-2.1,2.9-2.6c0-0.5,3-4.6,3-4.6
				l6.6-0.9c0,0,4.3-3.4,4.6-4.3c0.3-0.8,2.3-2.1,2.6-2.6c0.3-0.5,3.1-1.8,3.1-1.8l2.8-1.5l0.2-3.7l4.2-2.1l1-1.3l-2.8-0.1
				c0,0-5,0.9-7.2,1.9c-2.2,1-4.6,8.6-4.6,8.6l-8.6,3.5c0,0-6.6,0.5-6.7,2.2c-0.1,1.7-3.1,7-3.1,7s-6.2,3.2-7.3,4.2
				c-1.1,1-3.1,6.3-3.2,7.6c-0.1,1.3-4.6,3.6-6.2,4.2c-1.7,0.6-7-1.1-10,4.2c-3,5.3-3.1,6.6-5.3,7.6c-2.2,1,6.8,4.5,5.1,5.9
				c-1.7,1.3,16.2,6.7,16.2,6.7l-18.8,4.6l66.9-7.1C1419.3,331.9,1417.2,330.1,1415.9,330.4z"/>
		</g>
		<path class="st1" d="M1422.6,273.7l2.2,1.9l3,1.8l0.9,2.8c0,0,1.3,2,1.5,2.9c0.2,0.9-2.5-2.7-2.5-2.7s-0.7-0.8-1.4-1.5
			c-0.7-0.7-1.9-2.2-1.9-2.2L1422.6,273.7z"/>
	</g>
	<g>
		<path class="st5" d="M1357.3,351.8v-75.7c92.3,68.5,192,62.3,227.2,68.3l1.1,7.3H1357.3z"/>
	</g>
	<g>
		<g>
			<path class="st8" d="M1507.5,342.7c-2.8,1.6-7.4,1.6-10.2,0c-2.8-1.6-2.8-4.3,0-5.9c2.8-1.6,7.4-1.6,10.2,0
				C1510.3,338.5,1510.3,341.1,1507.5,342.7z"/>
			<g>
				<path class="st9" d="M1504.6,339.2c0,1.2-1,2.2-2.2,2.2l0,0c-1.2,0-2.2-1-2.2-2.2v-12.4c0-1.2,1-2.2,2.2-2.2l0,0
					c1.2,0,2.2,1,2.2,2.2V339.2z"/>
				<path class="st10" d="M1502.5,334c0.8,0,1.5-0.1,2.2-0.2v-6.9c0-1.2-1-2.2-2.2-2.2c-1.2,0-2.2,1-2.2,2.2v6.9
					C1501,333.9,1501.7,334,1502.5,334z"/>
				<path class="st11" d="M1512.2,321.7c0,5.4-4.4,9.8-9.8,9.8c-5.4,0-9.8-4.4-9.8-9.8c0-5.4,4.4-27,9.8-27
					C1507.9,294.6,1512.2,316.2,1512.2,321.7z"/>
				<path class="st12" d="M1502.5,294.6c-0.3,0-0.5,0-0.8,0.1c2.5,6.8,4.2,16.2,4.2,19.5c0,5.4-4.4,9.8-9.8,9.8
					c-1.1,0-2.2-0.2-3.2-0.5c0.9,4.5,4.8,7.9,9.6,7.9c5.4,0,9.8-4.4,9.8-9.8C1512.2,316.2,1507.9,294.6,1502.5,294.6z"/>
			</g>
		</g>
		
			<ellipse transform="matrix(0.2325 -0.9726 0.9726 0.2325 847.203 1695.1479)" class="st13" cx="1497.7" cy="310.8" rx="6.8" ry="1.4"/>
	</g>
	<g>
		<g>
			<path class="st8" d="M1546.8,347.8c-2.8,1.6-7.4,1.6-10.2,0c-2.8-1.6-2.8-4.3,0-5.9c2.8-1.6,7.4-1.6,10.2,0
				C1549.6,343.6,1549.6,346.2,1546.8,347.8z"/>
			<g>
				<path class="st9" d="M1543.9,344.4c0,1.2-1,2.2-2.2,2.2l0,0c-1.2,0-2.2-1-2.2-2.2V332c0-1.2,1-2.2,2.2-2.2l0,0
					c1.2,0,2.2,1,2.2,2.2V344.4z"/>
				<path class="st10" d="M1541.8,339.1c0.8,0,1.5-0.1,2.2-0.2V332c0-1.2-1-2.2-2.2-2.2c-1.2,0-2.2,1-2.2,2.2v6.9
					C1540.3,339,1541,339.1,1541.8,339.1z"/>
				<path class="st11" d="M1551.6,326.8c0,5.4-4.4,9.8-9.8,9.8c-5.4,0-9.8-4.4-9.8-9.8c0-5.4,4.4-27,9.8-27
					C1547.2,299.8,1551.6,321.4,1551.6,326.8z"/>
				<path class="st12" d="M1541.8,299.8c-0.3,0-0.5,0-0.8,0.1c2.5,6.8,4.2,16.2,4.2,19.5c0,5.4-4.4,9.8-9.8,9.8
					c-1.1,0-2.2-0.2-3.2-0.5c0.9,4.5,4.8,7.9,9.6,7.9c5.4,0,9.8-4.4,9.8-9.8C1551.6,321.4,1547.2,299.8,1541.8,299.8z"/>
			</g>
		</g>
		
			<ellipse transform="matrix(0.2325 -0.9726 0.9726 0.2325 872.3773 1737.3051)" class="st13" cx="1537" cy="315.9" rx="6.8" ry="1.4"/>
	</g>
	<g>
		<rect x="677.3" y="358.1" class="st14" width="65.3" height="112.5"/>
		<rect x="673.5" y="351.8" class="st15" width="73" height="6.3"/>
		<rect x="673.5" y="348.6" class="st16" width="73" height="3.2"/>
		<rect x="677.3" y="432.7" class="st17" width="65.3" height="6.3"/>
		<g>
			<g>
				
					<rect x="685.4" y="369.8" transform="matrix(-1.836970e-16 1 -1 -1.836970e-16 1074.2539 -319.3072)" class="st18" width="22.7" height="15.3"/>
				<rect x="690.8" y="367.8" class="st15" width="12" height="19.4"/>
				<polygon class="st19" points="690.8,387.2 702.8,367.8 690.8,367.8 				"/>
			</g>
			<g>
				
					<rect x="711.9" y="369.8" transform="matrix(-1.836970e-16 1 -1 -1.836970e-16 1100.7222 -345.7754)" class="st18" width="22.7" height="15.3"/>
				<rect x="717.3" y="367.8" class="st15" width="12" height="19.4"/>
				<polygon class="st19" points="717.3,387.2 729.2,367.8 717.3,367.8 				"/>
			</g>
		</g>
		<g>
			<g>
				
					<rect x="685.4" y="406.7" transform="matrix(-1.836970e-16 1 -1 -1.836970e-16 1111.153 -282.4081)" class="st18" width="22.7" height="15.3"/>
				<rect x="690.8" y="404.7" class="st15" width="12" height="19.4"/>
				<polygon class="st19" points="690.8,424.1 702.8,404.7 690.8,404.7 				"/>
			</g>
			<g>
				
					<rect x="711.9" y="406.7" transform="matrix(-1.836970e-16 1 -1 -1.836970e-16 1137.6212 -308.8764)" class="st18" width="22.7" height="15.3"/>
				<rect x="717.3" y="404.7" class="st15" width="12" height="19.4"/>
				<polygon class="st19" points="717.3,424.1 729.2,404.7 717.3,404.7 				"/>
			</g>
		</g>
		<g>
			
				<rect x="698" y="437.7" transform="matrix(-1.836970e-16 1 -1 -1.836970e-16 1168.5986 -251.4302)" class="st18" width="24.1" height="41.7"/>
			<rect x="690.8" y="448.2" class="st15" width="38.4" height="22.5"/>
			<g>
				<rect x="692.6" y="449.9" class="st20" width="34.8" height="1.7"/>
				<rect x="692.6" y="453.7" class="st20" width="34.8" height="1.7"/>
				<rect x="692.6" y="457.5" class="st20" width="34.8" height="1.7"/>
				<rect x="692.6" y="461.3" class="st20" width="34.8" height="1.7"/>
				<rect x="692.6" y="465.1" class="st20" width="34.8" height="1.7"/>
				<rect x="692.6" y="469" class="st20" width="34.8" height="1.7"/>
			</g>
		</g>
	</g>
	<g>
		<rect x="739.6" y="377.5" class="st21" width="121.8" height="94"/>
		<g>
			
				<rect x="786.3" y="443.8" transform="matrix(-1.836970e-16 1 -1 -1.836970e-16 1257.8223 -343.1911)" class="st18" width="28.4" height="26.9"/>
			<rect x="788.4" y="444.5" class="st15" width="24.1" height="27"/>
			<rect x="788.4" y="444.5" class="st19" width="12.1" height="27"/>
		</g>
		<rect x="733.9" y="371.9" class="st22" width="133.3" height="5.6"/>
		<g>
			<g>
				<g>
					
						<rect x="747.5" y="388.8" transform="matrix(-1.836970e-16 1 -1 -1.836970e-16 1152.2816 -361.8383)" class="st18" width="19.1" height="12.9"/>
					<rect x="752" y="387.1" class="st15" width="10.1" height="16.3"/>
					<polygon class="st19" points="752,403.4 762.1,387.1 752,387.1 					"/>
				</g>
				<g>
					
						<rect x="759" y="388.8" transform="matrix(-1.836970e-16 1 -1 -1.836970e-16 1163.7344 -373.291)" class="st18" width="19.1" height="12.9"/>
					<rect x="763.5" y="387.1" class="st15" width="10.1" height="16.3"/>
					<polygon class="st19" points="763.5,403.4 773.5,387.1 763.5,387.1 					"/>
				</g>
			</g>
			<g>
				<g>
					
						<rect x="785.2" y="388.8" transform="matrix(-1.836970e-16 1 -1 -1.836970e-16 1190.002 -399.5587)" class="st18" width="19.1" height="12.9"/>
					<rect x="789.8" y="387.1" class="st15" width="10.1" height="16.3"/>
					<polygon class="st19" points="789.8,403.4 799.8,387.1 789.8,387.1 					"/>
				</g>
				<g>
					
						<rect x="796.7" y="388.8" transform="matrix(-1.836970e-16 1 -1 -1.836970e-16 1201.4547 -411.0114)" class="st23" width="19.1" height="12.9"/>
					<rect x="801.2" y="387.1" class="st24" width="10.1" height="16.3"/>
					<polygon class="st19" points="801.2,403.4 811.3,387.1 801.2,387.1 					"/>
				</g>
			</g>
			<g>
				<g>
					
						<rect x="823" y="388.8" transform="matrix(-1.836970e-16 1 -1 -1.836970e-16 1227.7228 -437.2794)" class="st23" width="19.1" height="12.9"/>
					<rect x="827.5" y="387.1" class="st24" width="10.1" height="16.3"/>
					<polygon class="st19" points="827.5,403.4 837.5,387.1 827.5,387.1 					"/>
				</g>
				<g>
					
						<rect x="834.4" y="388.8" transform="matrix(-1.836970e-16 1 -1 -1.836970e-16 1239.176 -448.7327)" class="st23" width="19.1" height="12.9"/>
					<rect x="838.9" y="387.1" class="st24" width="10.1" height="16.3"/>
					<polygon class="st19" points="838.9,403.4 849,387.1 838.9,387.1 					"/>
				</g>
			</g>
		</g>
		<g>
			<g>
				<g>
					
						<rect x="747.5" y="416" transform="matrix(-1.836970e-16 1 -1 -1.836970e-16 1179.5076 -334.6123)" class="st23" width="19.1" height="12.9"/>
					<rect x="752" y="414.3" class="st24" width="10.1" height="16.3"/>
					<polygon class="st19" points="752,430.6 762.1,414.3 752,414.3 					"/>
				</g>
				<g>
					
						<rect x="759" y="416" transform="matrix(-1.836970e-16 1 -1 -1.836970e-16 1190.9603 -346.065)" class="st23" width="19.1" height="12.9"/>
					<rect x="763.5" y="414.3" class="st24" width="10.1" height="16.3"/>
					<polygon class="st19" points="763.5,430.6 773.5,414.3 763.5,414.3 					"/>
				</g>
			</g>
			<g>
				<g>
					
						<rect x="785.2" y="416" transform="matrix(-1.836970e-16 1 -1 -1.836970e-16 1217.228 -372.3327)" class="st23" width="19.1" height="12.9"/>
					<rect x="789.8" y="414.3" class="st24" width="10.1" height="16.3"/>
					<polygon class="st19" points="789.8,430.6 799.8,414.3 789.8,414.3 					"/>
				</g>
				<g>
					
						<rect x="796.7" y="416" transform="matrix(-1.836970e-16 1 -1 -1.836970e-16 1228.6807 -383.7854)" class="st23" width="19.1" height="12.9"/>
					<rect x="801.2" y="414.3" class="st24" width="10.1" height="16.3"/>
					<polygon class="st19" points="801.2,430.6 811.3,414.3 801.2,414.3 					"/>
				</g>
			</g>
			<g>
				<g>
					
						<rect x="822.9" y="416" transform="matrix(-1.836970e-16 1 -1 -1.836970e-16 1254.9487 -410.0535)" class="st23" width="19.1" height="12.9"/>
					<rect x="827.5" y="414.3" class="st24" width="10.1" height="16.3"/>
					<polygon class="st19" points="827.5,430.6 837.5,414.3 827.5,414.3 					"/>
				</g>
				<g>
					
						<rect x="834.4" y="416" transform="matrix(-1.836970e-16 1 -1 -1.836970e-16 1266.402 -421.5068)" class="st23" width="19.1" height="12.9"/>
					<rect x="838.9" y="414.3" class="st24" width="10.1" height="16.3"/>
					<polygon class="st19" points="838.9,430.6 849,414.3 838.9,414.3 					"/>
				</g>
			</g>
		</g>
		<g>
			
				<rect x="755.1" y="443.8" transform="matrix(-1.836970e-16 1 -1 -1.836970e-16 1226.6399 -303.9062)" class="st18" width="20.3" height="35.1"/>
			
				<rect x="749.1" y="452.6" transform="matrix(-1 -1.224647e-16 1.224647e-16 -1 1530.5433 924.1346)" class="st15" width="32.3" height="18.9"/>
			<g>
				<rect x="750.6" y="454" class="st20" width="29.3" height="1.4"/>
				<rect x="750.6" y="457.2" class="st20" width="29.3" height="1.4"/>
				<rect x="750.6" y="460.5" class="st20" width="29.3" height="1.4"/>
				<rect x="750.6" y="463.7" class="st20" width="29.3" height="1.4"/>
				<rect x="750.6" y="466.9" class="st20" width="29.3" height="1.4"/>
				<rect x="750.6" y="470.1" class="st20" width="29.3" height="1.4"/>
			</g>
		</g>
		<polygon class="st23" points="859.2,353.5 741.8,353.5 733.9,371.9 867.1,371.9 		"/>
	</g>
	<g>
		<path class="st24" d="M800,331.3c0,0,1-7.3,5.9-5.8c0,0-5.6-3.5-6.8,2.1c0,0-3.1-3-6.8-0.4C792.4,327.2,797.3,327.6,800,331.3z"/>
		<path class="st24" d="M801,319.9c0,0,2.9-6,6.8-3.3c0,0-3.9-4.7-6.5-0.1c0,0-1.9-3.5-5.7-2.3C795.6,314.1,799.7,315.9,801,319.9z"
			/>
		<path class="st24" d="M811.6,325.9c0,0,3.2-3.8,5.5-1.2c0,0-1.9-4-4.6-1.2c0,0-0.7-2.9-3.7-2.7
			C808.8,320.8,811.4,322.8,811.6,325.9z"/>
		<path class="st24" d="M786.8,324.4c0,0,1.6-6.5,5.9-4.7c0,0-4.8-3.7-6.3,1.3c0,0-2.6-3-6.1-1C780.3,320,784.7,320.8,786.8,324.4z"
			/>
	</g>
	<path class="st25" d="M1489.6,106.7c-11.1,0-20.2,8.2-21.8,18.8c-2.3-2.4-5.6-3.9-9.2-3.9c-6.2,0-11.3,4.4-12.5,10.2
		c-2.7-3.9-7.2-6.4-12.3-6.4c-8.3,0-15.1,6.8-15.1,15.1c0,1.5,0.2,3,0.7,4.4c-1.5-1.1-3.3-1.7-5.2-1.7c-4.8,0-8.8,3.9-8.8,8.8
		c0,4.8,3.9,8.8,8.8,8.8h98.7c6.5,0,11.7-5.2,11.7-11.7c0-6.4-5.2-11.7-11.7-11.7c-1.1,0-2.1,0.2-3.1,0.4c1.2-2.7,1.9-5.7,1.9-8.9
		C1511.7,116.6,1501.8,106.7,1489.6,106.7z"/>
	<path class="st25" d="M564,220.8c-16.3,0-29.8,12-32.1,27.7c-3.4-3.5-8.2-5.8-13.5-5.8c-9.1,0-16.6,6.4-18.4,15
		c-4-5.7-10.7-9.4-18.2-9.4c-12.3,0-22.2,10-22.2,22.2c0,2.3,0.3,4.4,1,6.5c-2.2-1.6-4.8-2.6-7.7-2.6c-7.1,0-12.9,5.8-12.9,12.9
		c0,7.1,5.8,12.9,12.9,12.9h145.5c9.5,0,17.2-7.7,17.2-17.2c0-9.5-7.7-17.2-17.2-17.2c-1.6,0-3.1,0.2-4.6,0.6
		c1.8-4,2.8-8.5,2.8-13.1C596.5,235.4,582,220.8,564,220.8z"/>
	<path class="st25" d="M520.6,405.6c5.3,0,9.7,3.7,10.9,8.6c2.4-4,6.8-6.6,11.8-6.6c7.6,0,13.8,6.2,13.8,13.8c0,0.4,0,0.8-0.1,1.2
		c0.4,0,0.7-0.1,1.1-0.1c6.2,0,11.3,5,11.3,11.3c0,6.2-5,11.3-11.3,11.3h-51c-6.2,0-11.3-5-11.3-11.3c0-6.2,5-11.3,11.3-11.3
		c1.5,0,2.8,0.3,4.1,0.8c-1.3-1.8-2.1-4.1-2.1-6.5C509.3,410.7,514.4,405.6,520.6,405.6z"/>
	<g>
		<rect x="1472.5" y="272.9" class="st26" width="10.3" height="74.5"/>
		<rect x="1472.5" y="272.9" class="st27" width="10.3" height="27.2"/>
		<circle class="st28" cx="1477.3" cy="241.6" r="44.7"/>
		<circle class="st25" cx="1477.3" cy="241.6" r="38.4"/>
		<path class="st7" d="M1466.3,271.1v-17.3c0-6,4.8-10.8,10.8-10.8c6,0,10.8,4.8,10.8,10.8v8.4h-2l6.4,8.9l6.4-8.9h-2v-8.4
			c0-10.8-8.8-19.6-19.6-19.6c-10.8,0-19.6,8.8-19.6,19.6v17.3H1466.3z"/>
	</g>
	<g>
		<path class="st29" d="M0,352.9h603c11.5,0,20.7,9.3,20.7,20.8v156.2c0,11.5,9.3,20.8,20.7,20.8h23.2h206.5h21.1
			c11.5,0,20.7-9.3,20.7-20.8V176.1c0-11.5,9.3-20.8,20.7-20.8h398.2c11.5,0,20.7,9.3,20.7,20.8v156.1c0,11.5,9.3,20.8,20.7,20.8
			L2000,353"/>
	</g>
	<path class="st4" d="M807.3,462.3c1.7,0,3.2,1.2,3.6,2.8c0.8-1.3,2.2-2.2,3.9-2.2c2.5,0,4.5,2,4.5,4.5c0,0.1,0,0.3,0,0.4
		c0.1,0,0.2,0,0.4,0c2,0,3.7,1.6,3.7,3.7c0,2-1.6,3.7-3.7,3.7H803c-2,0-3.7-1.6-3.7-3.7c0-2,1.6-3.7,3.7-3.7c0.5,0,0.9,0.1,1.3,0.3
		c-0.4-0.6-0.7-1.3-0.7-2.1C803.6,464,805.3,462.3,807.3,462.3z"/>
	<path class="st3" d="M792.2,466.4c1.7,0,3.2,1.2,3.6,2.8c0.8-1.3,2.2-2.2,3.9-2.2c2.5,0,4.5,2,4.5,4.5c0,0.1,0,0.3,0,0.4
		c0.1,0,0.2,0,0.4,0c2,0,3.7,1.6,3.7,3.7c0,2-1.6,3.7-3.7,3.7h-16.6c-2,0-3.7-1.6-3.7-3.7c0-2,1.6-3.7,3.7-3.7
		c0.5,0,0.9,0.1,1.3,0.3c-0.4-0.6-0.7-1.3-0.7-2.1C788.5,468.1,790.2,466.4,792.2,466.4z"/>
	<path class="st4" d="M732.8,465.4c1.7,0,3.2,1.2,3.6,2.8c0.8-1.3,2.2-2.2,3.9-2.2c2.5,0,4.5,2,4.5,4.5c0,0.1,0,0.3,0,0.4
		c0.1,0,0.2,0,0.4,0c2,0,3.7,1.6,3.7,3.7c0,2-1.6,3.7-3.7,3.7h-16.6c-2,0-3.7-1.6-3.7-3.7c0-2,1.6-3.7,3.7-3.7
		c0.5,0,0.9,0.1,1.3,0.3c-0.4-0.6-0.7-1.3-0.7-2.1C729.1,467,730.8,465.4,732.8,465.4z"/>
	<path class="st3" d="M717.7,469.5c1.7,0,3.2,1.2,3.6,2.8c0.8-1.3,2.2-2.2,3.9-2.2c2.5,0,4.5,2,4.5,4.5c0,0.1,0,0.3,0,0.4
		c0.1,0,0.2,0,0.4,0c2,0,3.7,1.6,3.7,3.7c0,2-1.6,3.7-3.7,3.7h-16.6c-2,0-3.7-1.6-3.7-3.7c0-2,1.6-3.7,3.7-3.7
		c0.5,0,0.9,0.1,1.3,0.3c-0.4-0.6-0.7-1.3-0.7-2.1C714,471.2,715.7,469.5,717.7,469.5z"/>
	<path class="st4" d="M689.8,461.6c1.7,0,3.2,1.2,3.6,2.8c0.8-1.3,2.2-2.2,3.9-2.2c2.5,0,4.5,2,4.5,4.5c0,0.1,0,0.3,0,0.4
		c0.1,0,0.2,0,0.4,0c2,0,3.7,1.6,3.7,3.7c0,2-1.6,3.7-3.7,3.7h-16.6c-2,0-3.7-1.6-3.7-3.7c0-2,1.6-3.7,3.7-3.7
		c0.5,0,0.9,0.1,1.3,0.3c-0.4-0.6-0.7-1.3-0.7-2.1C686.1,463.3,687.8,461.6,689.8,461.6z"/>
	<path class="st3" d="M674.7,465.7c1.7,0,3.2,1.2,3.6,2.8c0.8-1.3,2.2-2.2,3.9-2.2c2.5,0,4.5,2,4.5,4.5c0,0.1,0,0.3,0,0.4
		c0.1,0,0.2,0,0.4,0c2,0,3.7,1.6,3.7,3.7c0,2-1.6,3.7-3.7,3.7h-16.6c-2,0-3.7-1.6-3.7-3.7c0-2,1.6-3.7,3.7-3.7
		c0.5,0,0.9,0.1,1.3,0.3c-0.4-0.6-0.7-1.3-0.7-2.1C671,467.4,672.6,465.7,674.7,465.7z"/>
	<g>
		<g>
			<path class="st8" d="M887.5,482.6c-3.5,2-9.1,2-12.5,0c-3.5-2-3.5-5.2,0-7.2c3.5-2,9.1-2,12.5,0
				C890.9,477.4,890.9,480.6,887.5,482.6z"/>
			<g>
				<path class="st9" d="M883.9,478.4c0,1.5-1.2,2.7-2.7,2.7l0,0c-1.5,0-2.7-1.2-2.7-2.7v-15.3c0-1.5,1.2-2.7,2.7-2.7l0,0
					c1.5,0,2.7,1.2,2.7,2.7V478.4z"/>
				<path class="st10" d="M881.2,471.8c0.9,0,1.8-0.1,2.7-0.3v-8.5c0-1.5-1.2-2.7-2.7-2.7c-1.5,0-2.7,1.2-2.7,2.7v8.5
					C879.4,471.7,880.3,471.8,881.2,471.8z"/>
				<path class="st11" d="M893.3,456.7c0,6.7-5.4,12.1-12.1,12.1c-6.7,0-12.1-5.4-12.1-12.1c0-6.7,5.4-33.3,12.1-33.3
					C887.9,423.4,893.3,450,893.3,456.7z"/>
				<path class="st12" d="M881.2,423.4c-0.3,0-0.6,0.1-0.9,0.2c3.1,8.4,5.1,20,5.1,24.1c0,6.7-5.4,12.1-12.1,12.1
					c-1.4,0-2.7-0.2-4-0.7c1.1,5.5,6,9.7,11.8,9.7c6.7,0,12.1-5.4,12.1-12.1C893.3,450,887.9,423.4,881.2,423.4z"/>
			</g>
		</g>
		
			<ellipse transform="matrix(0.2325 -0.9726 0.9726 0.2325 241.8714 1191.5536)" class="st13" cx="875.9" cy="442.5" rx="8.4" ry="1.7"/>
	</g>
	<g>
		<g>
			<path class="st8" d="M660.8,482.6c-3.5,2-9.1,2-12.5,0c-3.5-2-3.5-5.2,0-7.2c3.5-2,9.1-2,12.5,0
				C664.3,477.4,664.3,480.6,660.8,482.6z"/>
			<g>
				<path class="st9" d="M657.3,478.4c0,1.5-1.2,2.7-2.7,2.7l0,0c-1.5,0-2.7-1.2-2.7-2.7v-15.3c0-1.5,1.2-2.7,2.7-2.7l0,0
					c1.5,0,2.7,1.2,2.7,2.7V478.4z"/>
				<path class="st10" d="M654.6,471.8c0.9,0,1.8-0.1,2.7-0.3v-8.5c0-1.5-1.2-2.7-2.7-2.7c-1.5,0-2.7,1.2-2.7,2.7v8.5
					C652.7,471.7,653.6,471.8,654.6,471.8z"/>
				<path class="st11" d="M666.6,456.7c0,6.7-5.4,12.1-12.1,12.1c-6.7,0-12.1-5.4-12.1-12.1c0-6.7,5.4-33.3,12.1-33.3
					C661.2,423.4,666.6,450,666.6,456.7z"/>
				<path class="st12" d="M654.6,423.4c-0.3,0-0.6,0.1-0.9,0.2c3.1,8.4,5.1,20,5.1,24.1c0,6.7-5.4,12.1-12.1,12.1
					c-1.4,0-2.7-0.2-4-0.7c1.1,5.5,6,9.7,11.8,9.7c6.7,0,12.1-5.4,12.1-12.1C666.6,450,661.2,423.4,654.6,423.4z"/>
			</g>
		</g>
		
			<ellipse transform="matrix(0.2325 -0.9726 0.9726 0.2325 67.9224 971.1128)" class="st13" cx="649.3" cy="442.5" rx="8.4" ry="1.7"/>
	</g>
	<g>
		<g>
			<path class="st8" d="M826.7,486.3c-3.5,2-9.1,2-12.5,0c-3.5-2-3.5-5.2,0-7.2c3.5-2,9.1-2,12.5,0
				C830.2,481.1,830.2,484.3,826.7,486.3z"/>
			<g>
				<path class="st9" d="M823.1,482c0,1.5-1.2,2.7-2.7,2.7l0,0c-1.5,0-2.7-1.2-2.7-2.7v-15.3c0-1.5,1.2-2.7,2.7-2.7l0,0
					c1.5,0,2.7,1.2,2.7,2.7V482z"/>
				<path class="st10" d="M820.4,475.5c0.9,0,1.8-0.1,2.7-0.3v-8.5c0-1.5-1.2-2.7-2.7-2.7c-1.5,0-2.7,1.2-2.7,2.7v8.5
					C818.6,475.4,819.5,475.5,820.4,475.5z"/>
				<path class="st11" d="M832.5,460.3c0,6.7-5.4,12.1-12.1,12.1c-6.7,0-12.1-5.4-12.1-12.1c0-6.7,5.4-33.3,12.1-33.3
					C827.1,427,832.5,453.7,832.5,460.3z"/>
				<path class="st12" d="M820.4,427c-0.3,0-0.6,0.1-0.9,0.2c3.1,8.4,5.1,20,5.1,24.1c0,6.7-5.4,12.1-12.1,12.1
					c-1.4,0-2.7-0.2-4-0.7c1.1,5.5,6,9.7,11.8,9.7c6.7,0,12.1-5.4,12.1-12.1C832.5,453.7,827.1,427,820.4,427z"/>
			</g>
		</g>
		
			<ellipse transform="matrix(0.2325 -0.9726 0.9726 0.2325 191.659 1135.2449)" class="st13" cx="815.2" cy="446.2" rx="8.4" ry="1.7"/>
	</g>
	<g>
		<g>
			<path class="st8" d="M722,486.3c-3.5,2-9.1,2-12.5,0c-3.5-2-3.5-5.2,0-7.2c3.5-2,9.1-2,12.5,0C725.4,481.1,725.4,484.3,722,486.3
				z"/>
			<g>
				<path class="st9" d="M718.4,482c0,1.5-1.2,2.7-2.7,2.7l0,0c-1.5,0-2.7-1.2-2.7-2.7v-15.3c0-1.5,1.2-2.7,2.7-2.7l0,0
					c1.5,0,2.7,1.2,2.7,2.7V482z"/>
				<path class="st10" d="M715.7,475.5c0.9,0,1.8-0.1,2.7-0.3v-8.5c0-1.5-1.2-2.7-2.7-2.7c-1.5,0-2.7,1.2-2.7,2.7v8.5
					C713.9,475.4,714.8,475.5,715.7,475.5z"/>
				<path class="st11" d="M727.8,460.3c0,6.7-5.4,12.1-12.1,12.1c-6.7,0-12.1-5.4-12.1-12.1c0-6.7,5.4-33.3,12.1-33.3
					C722.4,427,727.8,453.7,727.8,460.3z"/>
				<path class="st12" d="M715.7,427c-0.3,0-0.6,0.1-0.9,0.2c3.1,8.4,5.1,20,5.1,24.1c0,6.7-5.4,12.1-12.1,12.1
					c-1.4,0-2.7-0.2-4-0.7c1.1,5.5,6,9.7,11.8,9.7c6.7,0,12.1-5.4,12.1-12.1C727.8,453.7,722.4,427,715.7,427z"/>
			</g>
		</g>
		
			<ellipse transform="matrix(0.2325 -0.9726 0.9726 0.2325 111.2917 1033.3965)" class="st13" cx="710.4" cy="446.2" rx="8.4" ry="1.7"/>
	</g>
	<g>
		<g>
			<path class="st8" d="M1389.1,315.4c-2.8,1.6-7.4,1.6-10.2,0c-2.8-1.6-2.8-4.3,0-5.9c2.8-1.6,7.4-1.6,10.2,0
				C1392,311.1,1392,313.8,1389.1,315.4z"/>
			<g>
				<path class="st9" d="M1386.2,311.9c0,1.2-1,2.2-2.2,2.2l0,0c-1.2,0-2.2-1-2.2-2.2v-12.4c0-1.2,1-2.2,2.2-2.2l0,0
					c1.2,0,2.2,1,2.2,2.2V311.9z"/>
				<path class="st10" d="M1384.1,306.6c0.8,0,1.5-0.1,2.2-0.2v-6.9c0-1.2-1-2.2-2.2-2.2c-1.2,0-2.2,1-2.2,2.2v6.9
					C1382.6,306.5,1383.3,306.6,1384.1,306.6z"/>
				<path class="st11" d="M1393.9,294.3c0,5.4-4.4,9.8-9.8,9.8c-5.4,0-9.8-4.4-9.8-9.8c0-5.4,4.4-27,9.8-27
					C1389.5,267.3,1393.9,288.9,1393.9,294.3z"/>
				<path class="st12" d="M1384.1,267.3c-0.3,0-0.5,0-0.8,0.1c2.5,6.8,4.2,16.2,4.2,19.5c0,5.4-4.4,9.8-9.8,9.8
					c-1.1,0-2.2-0.2-3.2-0.5c0.9,4.5,4.8,7.9,9.6,7.9c5.4,0,9.8-4.4,9.8-9.8C1393.9,288.9,1389.5,267.3,1384.1,267.3z"/>
			</g>
		</g>
		
			<ellipse transform="matrix(0.2325 -0.9726 0.9726 0.2325 782.9318 1559.0183)" class="st13" cx="1379.3" cy="283.4" rx="6.8" ry="1.4"/>
	</g>
	<g>
		<g>
			<path class="st8" d="M1424.5,328.3c-2.8,1.6-7.4,1.6-10.2,0c-2.8-1.6-2.8-4.3,0-5.9c2.8-1.6,7.4-1.6,10.2,0
				C1427.3,324.1,1427.3,326.7,1424.5,328.3z"/>
			<g>
				<path class="st9" d="M1421.6,324.8c0,1.2-1,2.2-2.2,2.2l0,0c-1.2,0-2.2-1-2.2-2.2v-12.4c0-1.2,1-2.2,2.2-2.2l0,0
					c1.2,0,2.2,1,2.2,2.2V324.8z"/>
				<path class="st10" d="M1419.5,319.6c0.8,0,1.5-0.1,2.2-0.2v-6.9c0-1.2-1-2.2-2.2-2.2c-1.2,0-2.2,1-2.2,2.2v6.9
					C1418,319.5,1418.7,319.6,1419.5,319.6z"/>
				<path class="st11" d="M1429.3,307.3c0,5.4-4.4,9.8-9.8,9.8c-5.4,0-9.8-4.4-9.8-9.8c0-5.4,4.4-27,9.8-27
					C1424.9,280.2,1429.3,301.8,1429.3,307.3z"/>
				<path class="st12" d="M1419.5,280.2c-0.3,0-0.5,0-0.8,0.1c2.5,6.8,4.2,16.2,4.2,19.5c0,5.4-4.4,9.8-9.8,9.8
					c-1.1,0-2.2-0.2-3.2-0.5c0.9,4.5,4.8,7.9,9.6,7.9c5.4,0,9.8-4.4,9.8-9.8C1429.3,301.8,1424.9,280.2,1419.5,280.2z"/>
			</g>
		</g>
		
			<ellipse transform="matrix(0.2325 -0.9726 0.9726 0.2325 797.5206 1603.3763)" class="st13" cx="1414.7" cy="296.4" rx="6.8" ry="1.4"/>
	</g>
	<g>
		<g>
			<path class="st8" d="M1462.9,338.3c-2.8,1.6-7.4,1.6-10.2,0c-2.8-1.6-2.8-4.3,0-5.9c2.8-1.6,7.4-1.6,10.2,0
				C1465.7,334.1,1465.7,336.7,1462.9,338.3z"/>
			<g>
				<path class="st9" d="M1460,334.9c0,1.2-1,2.2-2.2,2.2l0,0c-1.2,0-2.2-1-2.2-2.2v-12.4c0-1.2,1-2.2,2.2-2.2l0,0
					c1.2,0,2.2,1,2.2,2.2V334.9z"/>
				<path class="st10" d="M1457.8,329.6c0.8,0,1.5-0.1,2.2-0.2v-6.9c0-1.2-1-2.2-2.2-2.2c-1.2,0-2.2,1-2.2,2.2v6.9
					C1456.3,329.5,1457,329.6,1457.8,329.6z"/>
				<path class="st11" d="M1467.6,317.3c0,5.4-4.4,9.8-9.8,9.8c-5.4,0-9.8-4.4-9.8-9.8c0-5.4,4.4-27,9.8-27
					C1463.2,290.3,1467.6,311.9,1467.6,317.3z"/>
				<path class="st12" d="M1457.8,290.3c-0.3,0-0.5,0-0.8,0.1c2.5,6.8,4.2,16.2,4.2,19.5c0,5.4-4.4,9.8-9.8,9.8
					c-1.1,0-2.2-0.2-3.2-0.5c0.9,4.5,4.8,7.9,9.6,7.9c5.4,0,9.8-4.4,9.8-9.8C1467.6,311.9,1463.2,290.3,1457.8,290.3z"/>
			</g>
		</g>
		
			<ellipse transform="matrix(0.2325 -0.9726 0.9726 0.2325 817.1926 1648.3285)" class="st13" cx="1453" cy="306.4" rx="6.8" ry="1.4"/>
	</g>
	<g>
		<path class="st30" d="M1108.9,148.6h50.1v-1.1c0,0,1.5-9.3-8.5-13.7c0,0-6.9-3.6-17.1-3.6h-23.4c0,0-3.6,0.4-3.2,3.6
			c0,0-4.6,3-5,14.8H1108.9z"/>
		<g>
			<path class="st31" d="M1113.5,140.4c-4.5,0-8.2,3.7-8.2,8.2h3.6h12.8C1121.7,144,1118,140.4,1113.5,140.4z"/>
		</g>
		<circle class="st32" cx="1113.5" cy="148.6" r="6.2"/>
		<circle class="st33" cx="1113.5" cy="148.6" r="3.4"/>
		<g>
			<path class="st31" d="M1142.6,140.4c-4.5,0-8.2,3.7-8.2,8.2h3.6h12.8C1150.7,144,1147.1,140.4,1142.6,140.4z"/>
		</g>
		<circle class="st32" cx="1142.6" cy="148.6" r="6.2"/>
		<circle class="st33" cx="1142.6" cy="148.6" r="3.4"/>
		<path class="st30" d="M1110.1,131.8l2.1-13.1c0,0-0.7-1.6,3.9-1.6s15.6,0,15.6,0s11.7-0.4,14.6,16.7L1110.1,131.8z"/>
		<path class="st24" d="M1113.5,129.7l1.2-8.8c0,0-0.3-1.4,2.1-1.4h8.8v10.1H1113.5z"/>
		<path class="st24" d="M1128.2,119.6v10.1h5.3c0,0,5.2,0,9,0.9C1142.6,130.6,1141.3,119.6,1128.2,119.6z"/>
		<g>
			<g>
				<g>
					<path class="st31" d="M1137.8,134.4c-6.9-1.9-29.6-1.1-29.6-1.1c-1-2.2,1.9-3.1,1.9-3.1s-3.6,0.4-3.2,3.6c0,0-4.6,3-5,14.8h1.2
						c0-8.6,3.2-12.7,3.2-12.7C1110.7,132.5,1137.8,134.4,1137.8,134.4z"/>
				</g>
			</g>
		</g>
		<g>
			<path class="st34" d="M1116.5,129.7h9.1v-10.1h-2.5C1121.6,120.8,1117.7,124.5,1116.5,129.7z"/>
			<path class="st34" d="M1142.6,130.6c0,0-0.8-6.8-7.5-9.7c-2.2,2.3-4.6,5.4-5.7,8.8h4.1C1133.5,129.7,1138.7,129.7,1142.6,130.6z"
				/>
			<path class="st35" d="M1128.2,119.6v10.1h1.2c1.1-3.4,3.5-6.5,5.7-8.8C1133.3,120.1,1131,119.6,1128.2,119.6z"/>
			<path class="st35" d="M1114.7,120.9l-1.2,8.8h3c1.2-5.2,5.1-8.9,6.6-10.1h-6.3C1114.4,119.6,1114.7,120.9,1114.7,120.9z"/>
		</g>
		<path class="st31" d="M1129.8,137.7h-3.5c-0.4,0-0.7-0.3-0.7-0.7v0c0-0.4,0.3-0.7,0.7-0.7h3.5c0.4,0,0.7,0.3,0.7,0.7v0
			C1130.5,137.4,1130.2,137.7,1129.8,137.7z"/>
		<path class="st36" d="M1151.6,134.3c-0.9,0.6-1.5,1.6-1.5,2.8c0,1.8,1.5,3.3,3.3,3.3h3.5c0.3,0,0.6,0,0.8-0.1
			C1156.6,138.1,1154.8,136,1151.6,134.3z"/>
		<path class="st37" d="M1106.3,141.1c0-1.4-1.1-2.5-2.5-2.5h0c-0.5,1.3-1,3-1.3,5.1h1.4C1105.2,143.6,1106.3,142.5,1106.3,141.1z"
			/>
		<g>
			<path class="st31" d="M1156.9,139.3h-3.5c-1.6,0-3-1.2-3.2-2.8c0,0.2-0.1,0.4-0.1,0.5c0,1.8,1.5,3.3,3.3,3.3h3.5
				c0.3,0,0.6,0,0.8-0.1c-0.2-0.3-0.3-0.6-0.5-0.9C1157.1,139.3,1157,139.3,1156.9,139.3z"/>
		</g>
		<g>
			<path class="st38" d="M1103.8,138.5L1103.8,138.5c-0.5,1.3-1,3-1.4,5.1c0,0,1.4,0,1.7,0c0.5-0.1,0.9-0.3,0.9-0.3
				c-1.3-1-0.6-3.2-0.1-4.5C1104.6,138.6,1104.2,138.5,1103.8,138.5z"/>
		</g>
		
			<ellipse transform="matrix(6.656561e-02 -0.9978 0.9978 6.656561e-02 890.967 1234.5276)" class="st25" cx="1105.3" cy="141.1" rx="0.7" ry="0.4"/>
		<g>
			<path class="st36" d="M1152.3,138.1c0.8,1,2.4,1.2,3.4,0.3c0.2-0.2,0.3-0.3,0.5-0.5c-0.9-1.1-2.1-2.2-3.6-3.1
				C1151.5,135.7,1151.4,137.1,1152.3,138.1z"/>
			<path class="st25" d="M1152.3,138.1c0.8,1,2.4,1.2,3.4,0.3c0.2-0.2,0.3-0.3,0.5-0.5c-0.9-1.1-2.1-2.2-3.6-3.1
				C1151.5,135.7,1151.4,137.1,1152.3,138.1z"/>
		</g>
		
			<ellipse transform="matrix(6.642580e-02 -0.9978 0.9978 6.642580e-02 892.806 1252.314)" class="st25" cx="1115.6" cy="149" rx="0.7" ry="0.4"/>
		
			<ellipse transform="matrix(6.642580e-02 -0.9978 0.9978 6.642580e-02 919.9579 1281.3336)" class="st25" cx="1144.7" cy="149" rx="0.7" ry="0.4"/>
		<g class="st39">
			<path class="st7" d="M1113.5,143.6c3.3,0,6,2.7,6,6c0,0.3,0,0.6-0.1,0.9c0.2-0.6,0.3-1.3,0.3-2c0-3.5-2.8-6.2-6.2-6.2
				c-3.5,0-6.2,2.8-6.2,6.2c0,0.7,0.1,1.4,0.3,2c0-0.3-0.1-0.6-0.1-0.9C1107.5,146.3,1110.2,143.6,1113.5,143.6z"/>
		</g>
		<g class="st39">
			<path class="st7" d="M1113.5,145.9c1.8,0,3.2,1.4,3.2,3.2c0,0.2,0,0.3,0,0.5c0.1-0.3,0.2-0.7,0.2-1.1c0-1.9-1.5-3.4-3.4-3.4
				s-3.4,1.5-3.4,3.4c0,0.4,0.1,0.7,0.2,1.1c0-0.2,0-0.3,0-0.5C1110.3,147.3,1111.7,145.9,1113.5,145.9z"/>
		</g>
		<g class="st39">
			<path class="st7" d="M1142.6,145.9c1.8,0,3.2,1.4,3.2,3.2c0,0.2,0,0.3,0,0.5c0.1-0.3,0.2-0.7,0.2-1.1c0-1.9-1.5-3.4-3.4-3.4
				s-3.4,1.5-3.4,3.4c0,0.4,0.1,0.7,0.2,1.1c0-0.2,0-0.3,0-0.5C1139.3,147.3,1140.8,145.9,1142.6,145.9z"/>
		</g>
		<g class="st39">
			<path class="st7" d="M1142.6,143.6c3.3,0,6,2.7,6,6c0,0.3,0,0.6-0.1,0.9c0.2-0.6,0.3-1.3,0.3-2c0-3.5-2.8-6.2-6.2-6.2
				c-3.5,0-6.2,2.8-6.2,6.2c0,0.7,0.1,1.4,0.3,2c0-0.3-0.1-0.6-0.1-0.9C1136.6,146.3,1139.2,143.6,1142.6,143.6z"/>
		</g>
		<g>
			<g>
				<g>
					<path class="st31" d="M1112.8,118.7c0,0,0.5-1.6,7.1-1.6c-1.4,0-2.7,0-3.7,0c-4.6,0-3.9,1.6-3.9,1.6l-1.9,11.5l0,0
						L1112.8,118.7z"/>
				</g>
			</g>
		</g>
	</g>
	<g class="st6">
		<path class="st34" d="M658.2,293.7c-0.2,0-0.3,0-0.5,0C657.7,293.8,657.9,293.8,658.2,293.7z"/>
		<path class="st25" d="M825.5,293.7c4.9-0.5,28.7-4.3,33.2-25.6h-17.9C839.5,277.8,835.8,292.4,825.5,293.7z"/>
		<path class="st25" d="M874.2,209.4H664.8c-5.4,0-9.8,4.4-9.8,9.8v39.2c0,5.4,4.4,9.8,9.8,9.8h9.1h17.9h182.4
			c5.4,0,9.8-4.4,9.8-9.8v-39.2C883.9,213.8,879.5,209.4,874.2,209.4z"/>
	</g>
	<g>
		<path class="st25" d="M658.2,293.7c-0.2,0-0.3,0-0.5,0C657.7,293.8,657.9,293.8,658.2,293.7z"/>
		<path class="st25" d="M825.5,293.7c4.9-0.5,28.7-4.3,33.2-25.6h-17.9C839.5,277.8,835.8,292.4,825.5,293.7z"/>
		<path class="st25" d="M874.2,209.4H664.8c-5.4,0-9.8,4.4-9.8,9.8v39.2c0,5.4,4.4,9.8,9.8,9.8h9.1h17.9h182.4
			c5.4,0,9.8-4.4,9.8-9.8v-39.2C883.9,213.8,879.5,209.4,874.2,209.4z"/>
	</g>
	<text transform="matrix(1 0 0 1 1458.2219 219.7136)"><tspan x="0" y="0" class="st7 st40 st41">Request</tspan><tspan x="4.3" y="10.5" class="st7 st40 st41">Again!</tspan></text>
	<g>
		<g>
			<path class="st42" d="M680.6,456.8l-3.8-1c-0.4-0.1-0.6-0.4-0.6-0.8l-0.3-7c0-0.1,0-0.2,0-0.3l-1.9-7.3c-0.1-0.3-0.1-0.5,0-0.8
				l0.7-2.5c0.2-1-0.3-1.9-1.3-2.2l-0.4-0.1c-0.7-0.2-1.4,0.1-1.8,0.6l-2.2,2.8c-0.2,0.3-0.3,0.6-0.3,1l-0.8,5.5
				c0,0.6-0.4,1.1-0.9,1.2l-0.6,0.2c-0.2,0.1-0.5,0.1-0.7,0l-9.7-2.5c-0.7-0.2-1.5,0.3-1.7,1l-0.8,2.9c0,0.2-0.2,0.2-0.3,0.2l0,0
				c-0.4-0.1-0.9,0.1-1,0.6l-0.8,3c-0.1,0.4,0.1,0.9,0.6,1l0,0c0.2,0,0.2,0.2,0.2,0.3l-1.1,4.2c-0.1,0.2,0.1,0.5,0.3,0.5l0,0
				c0.3,0.1,0.4,0.4,0.4,0.6l-0.7,2.8c-0.1,0.4,0.1,0.7,0.4,0.9l7.8,5.1c0.1,0.1,0.2,0.1,0.4,0.2l11.1,2.9c0.2,0,0.3,0.1,0.5,0
				l2.5-0.3c0.2,0,0.4,0,0.6,0l3.1,0.9L680.6,456.8z"/>
			<path class="st43" d="M664.7,445.9l-0.7,2.8c-0.1,0.6-0.7,0.9-1.3,0.8l-9.3-2.4c0,0-0.1,0.5-0.2,0.6c-0.1,0.1-0.3,0-0.3,0
				c-0.3-0.1-0.6,0.1-0.7,0.3l-0.1,0.2l11,2.9c0.7,0.2,1.1,0.9,0.9,1.5l-0.2,0.9c-0.2,0.7-0.9,1.1-1.5,0.9l-11-2.8
				c0,0-0.1,0.2,0.2,0.6c0.1,0.2,0.5,0.2,0.6,0.4c0.1,0.1-0.1,0.6-0.1,0.6l10,2.6c0.7,0.2,1.1,0.9,0.9,1.5l-0.3,1.2
				c-0.2,0.7-0.9,1.1-1.5,0.9l-10-2.6c0,0-0.2,0.4-0.1,0.6c0.1,0.2,0.6,0.3,0.7,0.5c0,0.1,0,0.4,0,0.4l6.9,1.8
				c0.5,0.1,0.9,0.7,0.7,1.2l-0.2,0.9c-0.1,0.5-0.7,0.9-1.2,0.7l-6.9-1.8l0,0c0,0.5,0.4,1,0.8,1.2l0.3,0.1l2,0.6l4.7,1.2
				c0.7,0.2,1.5-0.3,1.7-1l0.5-1.8c0.1-0.4,0.6-0.7,1-0.6l0,0c0.8,0.2,1.6-0.3,1.8-1l0.6-2.3c0.2-0.6-0.1-1.3-0.6-1.7
				c0,0-0.2-0.1-0.2-0.3c0-0.1,0.1-0.1,0.2-0.1c0.3,0,0.6-0.1,0.8-0.2c0.3-0.2,0.5-0.5,0.6-0.8l0.5-1.8c0.3-1.1-0.8-1.6-0.8-1.7
				c0.1-0.3,0.7-0.3,1-1.1l0.8-3.3l-0.1,0c-0.4,0.1-0.8,0.1-1.2,0L664.7,445.9z"/>
			<path class="st25" d="M682.1,474.2l-3.5-0.9c-1.2-0.3-1.9-1.5-1.6-2.7l3.2-12.4c0.3-1.2,1.5-1.9,2.7-1.6l3.5,0.9L682.1,474.2z"/>
			
				<rect x="682.9" y="457.1" transform="matrix(0.9687 0.2483 -0.2483 0.9687 137.0342 -155.1384)" class="st44" width="1.3" height="17.2"/>
		</g>
		<ellipse class="st45" cx="770.6" cy="463.5" rx="14.6" ry="3.1"/>
		
			<rect x="756.9" y="472.7" transform="matrix(-1 -1.224647e-16 1.224647e-16 -1 1540.938 982.2261)" class="st24" width="27.2" height="36.7"/>
		<path class="st46" d="M772.9,355.1c0,0-4.6-6.9-16.2-3.4c0,0,3.8,0.6,4.1,3.8c0,0-3.6-2.6-7.8-0.9c0,0,2.6,1.4,1,4.5l14.4,0.2
			L772.9,355.1z"/>
		<g>
			<path class="st46" d="M742.9,404.8h55.4c7.8,0,14.2-6.4,14.2-14.2V379c0-7.8-6.4-14.2-14.2-14.2h-55.4c-7.8,0-14.2,6.4-14.2,14.2
				v11.7C728.7,398.4,735.1,404.8,742.9,404.8z"/>
			<path class="st46" d="M810.4,368c0,0,15.1,16.1,8.5,48.8l-12-16.4C806.9,400.5,803.8,367.4,810.4,368z"/>
			<path class="st46" d="M730.7,368c0,0-15.1,16.1-8.5,48.8l12-16.4C734.2,400.5,737.4,367.4,730.7,368z"/>
			<path class="st46" d="M760.1,448.8H781c13.3,0,36-10.9,36-24.2l2.9-21.5c0-13.3-10.9-24.2-24.2-24.2h-50.2
				c-13.3,0-24.2,10.9-24.2,24.2l2.9,21.5C724.2,437.9,746.8,448.8,760.1,448.8z"/>
			<g>
				<ellipse class="st47" cx="728.7" cy="416" rx="7.9" ry="9.8"/>
				<ellipse class="st47" cx="812.5" cy="416" rx="7.9" ry="9.8"/>
			</g>
			<path class="st42" d="M742.9,457.1h55.4c7.8,0,14.2-6.4,14.2-14.2v-43.6c0-7.8-6.4-14.2-14.2-14.2h-55.4
				c-7.8,0-14.2,6.4-14.2,14.2v43.6C728.7,450.7,735.1,457.1,742.9,457.1z"/>
			<g>
				<circle class="st48" cx="745.1" cy="437.6" r="7.7"/>
				<circle class="st48" cx="796" cy="437.6" r="7.7"/>
			</g>
			<circle class="st25" cx="789" cy="415" r="8.9"/>
			<circle class="st25" cx="753.3" cy="415" r="8.9"/>
			<path class="st25" d="M761.6,435.4c0,5.5,4.4,9.9,9.9,9.9s9.9-4.4,9.9-9.9H761.6z"/>
			<g>
				<g>
					<circle class="st49" cx="788.8" cy="415.1" r="6.6"/>
					<circle class="st50" cx="788.8" cy="415.1" r="3"/>
					<circle class="st25" cx="791" cy="416.6" r="1.7"/>
					<circle class="st25" cx="787.1" cy="413.1" r="1.3"/>
				</g>
				<g>
					<circle class="st49" cx="753.5" cy="415.1" r="6.6"/>
					<circle class="st50" cx="753.5" cy="415.1" r="3"/>
					<circle class="st25" cx="755.7" cy="416.6" r="1.7"/>
					<circle class="st25" cx="751.8" cy="413.1" r="1.3"/>
				</g>
			</g>
			<g>
				<g>
					<path class="st46" d="M779.6,407.9c0.3,0,0.5-0.2,0.6-0.4c1-2.8,4.6-4.8,8.6-4.8s7.6,2,8.6,4.8c0.1,0.3,0.5,0.4,0.8,0.4
						c0.3-0.1,0.5-0.4,0.4-0.7c-1.2-3.3-5.2-5.6-9.9-5.6s-8.7,2.3-9.9,5.6c-0.1,0.3,0.1,0.6,0.4,0.7
						C779.4,407.9,779.5,407.9,779.6,407.9z"/>
				</g>
				<g>
					<path class="st46" d="M744.3,407.9c0.3,0,0.5-0.2,0.6-0.4c1-2.8,4.6-4.8,8.6-4.8c4.1,0,7.6,2,8.6,4.8c0.1,0.3,0.5,0.4,0.8,0.4
						c0.3-0.1,0.5-0.4,0.4-0.7c-1.2-3.3-5.2-5.6-9.9-5.6c-4.6,0-8.7,2.3-9.9,5.6c-0.1,0.3,0.1,0.6,0.4,0.7
						C744.1,407.9,744.2,407.9,744.3,407.9z"/>
				</g>
			</g>
			<path class="st46" d="M748.1,385c0,0,5.8,22.6,37.6,22.6c0,0-7.5-4.2-10-13.4c0,0,2.5,6.7,13.4,10c0,0-11.3-14.3,4.6-18.5
				c0,0,1.1,13,18.7,15.4l4.6-17.3l-8.8-12.9H736l-9.6,7.9l2.4,13.6C728.8,392.4,734.3,396.7,748.1,385z"/>
			<path class="st46" d="M812.3,370.8c0,0-4.9-8.1-14.7-11.2c-19.2-6-52.9-8.1-68,9.9C706.8,396.9,812.3,370.8,812.3,370.8z"/>
			<path class="st46" d="M771.6,355.9c0,0,4.6-8.1,17.6-2.7c0,0-9.1,0.9-9.4,11.8L771.6,355.9z"/>
			<path class="st46" d="M783.5,356.7c0,0,14.7-1,25.5,5.2c0,0-4-0.7-5.1-0.4c0,0,8.1,2.3,12.7,8.7c0,0-5.2-3.8-8.9-3.5
				c0,0,9,4.5,12,10.7c0,0-3.4-1.9-4.4-1.6c0,0,7.6,10.2,7.6,25.8l-3.6-2.8l-0.7,0.9c0,0,3.1,5.9,3,11.6c0,0-1.3-2.3-2.3-2.2
				l-9.2-30.9L783.5,356.7z"/>
			<path class="st46" d="M757.8,356.7c0,0-14.7-1-25.5,5.2c0,0,4-0.7,5.1-0.4c0,0-8.1,2.3-12.7,8.7c0,0,5.2-3.8,8.9-3.5
				c0,0-9,4.5-12,10.7c0,0,3.4-1.9,4.4-1.6c0,0-7.6,10.2-7.6,25.8l3.6-2.8l0.7,0.9c0,0-3.1,5.9-3,11.6c0,0,1.3-2.3,2.3-2.2l9.2-30.9
				L757.8,356.7z"/>
		</g>
		
			<rect x="757.9" y="453.7" transform="matrix(-1 -1.224647e-16 1.224647e-16 -1 1541.2808 920.5771)" class="st42" width="25.5" height="13.2"/>
		<polygon class="st51" points="764.6,474.9 768.6,480.4 761.2,506.1 770.9,518 770.9,518 780.6,506.1 773.2,480.4 777.2,474.9 
			770.6,466.9 		"/>
		<path class="st52" d="M773.2,480.4l2.9-4l-5.2,3.9c0,0,2.9,16,0.6,23.9c0,0-2.5,0.9-5.5-3.6c0,0,0.8,4.7,5.9,7.2
			c0,0,6.1-7.4,5.4-13.3L773.2,480.4z"/>
		<polygon class="st53" points="780.3,478.3 778.1,481.9 770.7,468.5 762.5,481.9 759.5,476.3 770.7,467.5 		"/>
		<path class="st54" d="M759.5,474.9c0,0-0.4,32.7,21.1,35.4v29.4h-48.3v-59.5c0,0-0.1-13.7,22.8-13.7L759.5,474.9z"/>
		
			<rect x="757.9" y="456.9" transform="matrix(-1 -1.224647e-16 1.224647e-16 -1 1541.2808 917.5201)" class="st47" width="25.5" height="3.6"/>
		<polygon class="st54" points="735.7,488.8 740.3,470.1 686.2,456.4 681.6,475.1 		"/>
		<path class="st54" d="M744.6,467.8c0,0-7.5,1.5-13.4,0l-0.5,4.9l12.7,0.6L744.6,467.8z"/>
		<polygon class="st55" points="771.5,506.9 766.6,511.3 766.6,535.9 766.6,539.7 771.5,539.7 		"/>
		<path class="st54" d="M780.3,474.9c0,0,1.2,18.7-11.1,35.4v29.4h38.3v-59.5c0,0,0.1-13.7-22.8-13.7L780.3,474.9z"/>
		<path class="st24" d="M762.5,480.3l-10-13.4l3.6-3.7c0,2.1,6.4,3.7,14.4,3.7h0.3c8,0,14.4-1.7,14.4-3.7l4.2,3.7l-10.6,13.4
			l-8.1-11.8L762.5,480.3z"/>
		<circle class="st36" cx="771.5" cy="514.1" r="1.1"/>
		<circle class="st36" cx="771.5" cy="521" r="1.1"/>
		<circle class="st36" cx="771.5" cy="527.9" r="1.1"/>
		<circle class="st36" cx="771.5" cy="534.9" r="1.1"/>
		<path class="st55" d="M769.2,539.7c0,0,34.5-4.3,34.5-16.4c0-12.1,3.8-33.4,3.8-33.4v49.8H769.2z"/>
		<path class="st54" d="M801.1,545.4c19.1-5.9,25-15.2,28.2-24.5c3.3-9.5,2.3-17.7,2.2-19c-2.2-17.3-11.6-25.7-19.1-29.6
			c-7.9-4.1-15.3-4.2-16.1-4.2l0.2,18l-0.1,0.6c0,0,4.3-0.5,8.5,1.9c5.4,3,7.9,7.7,8.9,15.6l0,0.2c0.3,2.4-2.3,26.3-30.5,35.4
			L801.1,545.4z"/>
	</g>
	<path class="st4" d="M854,460.2c1.7,0,3.2,1.2,3.6,2.8c0.8-1.3,2.2-2.2,3.9-2.2c2.5,0,4.5,2,4.5,4.5c0,0.1,0,0.3,0,0.4
		c0.1,0,0.2,0,0.4,0c2,0,3.7,1.6,3.7,3.7c0,2-1.6,3.7-3.7,3.7h-16.6c-2,0-3.7-1.6-3.7-3.7c0-2,1.6-3.7,3.7-3.7
		c0.5,0,0.9,0.1,1.3,0.3c-0.4-0.6-0.7-1.3-0.7-2.1C850.3,461.8,852,460.2,854,460.2z"/>
	<path class="st3" d="M838.8,464.3c1.7,0,3.2,1.2,3.6,2.8c0.8-1.3,2.2-2.2,3.9-2.2c2.5,0,4.5,2,4.5,4.5c0,0.1,0,0.3,0,0.4
		c0.1,0,0.2,0,0.4,0c2,0,3.7,1.6,3.7,3.7c0,2-1.6,3.7-3.7,3.7h-16.6c-2,0-3.7-1.6-3.7-3.7c0-2,1.6-3.7,3.7-3.7
		c0.5,0,0.9,0.1,1.3,0.3c-0.4-0.6-0.7-1.3-0.7-2.1C835.2,465.9,836.8,464.3,838.8,464.3z"/>
	<g>
		<g>
			<g>
				<polygon class="st56" points="685.6,224.4 690.2,232.7 700.6,233.9 693.1,241.2 696.5,250.4 685.6,246.7 674.6,250.4 
					678.1,241.2 670.6,233.9 680.9,232.7 				"/>
				<polygon class="st57" points="696.5,250.4 685.5,243.6 674.6,250.4 685.6,246.7 				"/>
				<polygon class="st58" points="685.6,246.7 685.5,243.6 674.6,250.4 				"/>
				<polygon class="st57" points="700.6,233.9 692.5,239.6 693.1,241.2 				"/>
				<polygon class="st58" points="670.5,233.9 678.7,239.6 678.1,241.2 				"/>
			</g>
			<g>
				<polygon class="st56" points="727.5,224.4 732.2,232.7 742.5,233.9 735,241.2 738.5,250.4 727.5,246.7 716.6,250.4 720,241.2 
					712.5,233.9 722.9,232.7 				"/>
				<polygon class="st57" points="738.5,250.4 727.5,243.6 716.6,250.4 727.5,246.7 				"/>
				<polygon class="st58" points="727.5,246.7 727.5,243.6 716.6,250.4 				"/>
				<polygon class="st57" points="742.5,233.9 734.4,239.6 735,241.2 				"/>
				<polygon class="st58" points="712.5,233.9 720.6,239.6 720,241.2 				"/>
			</g>
			<g>
				<polygon class="st56" points="769.5,224.4 774.1,232.7 784.5,233.9 777,241.2 780.4,250.4 769.5,246.7 758.5,250.4 762,241.2 
					754.5,233.9 764.9,232.7 				"/>
				<polygon class="st57" points="780.4,250.4 769.5,243.6 758.5,250.4 769.5,246.7 				"/>
				<polygon class="st58" points="769.5,246.7 769.5,243.6 758.5,250.4 				"/>
				<polygon class="st57" points="784.5,233.9 776.4,239.6 777,241.2 				"/>
				<polygon class="st58" points="754.5,233.9 762.6,239.6 762,241.2 				"/>
			</g>
			<g>
				<polygon class="st56" points="811.5,224.4 816.1,232.7 826.5,233.9 819,241.2 822.4,250.4 811.5,246.7 800.5,250.4 804,241.2 
					796.4,233.9 806.8,232.7 				"/>
				<polygon class="st57" points="822.4,250.4 811.4,243.6 800.5,250.4 811.5,246.7 				"/>
				<polygon class="st58" points="811.5,246.7 811.4,243.6 800.5,250.4 				"/>
				<polygon class="st57" points="826.5,233.9 818.4,239.6 819,241.2 				"/>
				<polygon class="st58" points="796.4,233.9 804.6,239.6 803.9,241.2 				"/>
			</g>
			<g>
				<polygon class="st52" points="853.4,224.4 858.1,232.7 868.4,233.9 860.9,241.2 864.4,250.4 853.4,246.7 842.5,250.4 
					845.9,241.2 838.4,233.9 848.8,232.7 				"/>
				<polygon class="st52" points="868.4,233.9 858.1,232.7 858.1,234 				"/>
				<polygon class="st54" points="853.4,224.4 858.1,232.7 858.1,234 				"/>
				<polygon class="st54" points="838.4,233.9 848.8,232.7 848.8,234 				"/>
				<polygon class="st52" points="853.4,224.4 848.8,232.7 848.8,234 				"/>
				<polygon class="st54" points="845.9,241.2 845.9,243.4 842.5,250.4 				"/>
				<polygon class="st52" points="860.9,241.2 860.9,243.4 864.4,250.4 				"/>
			</g>
		</g>
		<g>
			<polygon class="st56" points="860.3,215.1 864.9,223.4 875.3,224.6 867.8,231.9 871.2,241.1 860.3,237.4 849.4,241.1 
				852.8,231.9 845.3,224.6 855.7,223.4 			"/>
			<polygon class="st57" points="871.2,241.1 860.3,234.3 849.4,241.1 860.3,237.4 			"/>
			<polygon class="st58" points="860.3,237.4 860.3,234.3 849.4,241.1 			"/>
			<polygon class="st57" points="875.3,224.6 867.2,230.3 867.8,231.9 			"/>
			<polygon class="st58" points="845.3,224.6 853.4,230.3 852.8,231.9 			"/>
		</g>
	</g>
	<g>
		<path class="st59" d="M0,352.9h603c11.5,0,20.7,9.3,20.7,20.8v156.2c0,11.5,9.3,20.8,20.7,20.8h23.2h206.5h21.1
			c11.5,0,20.7-9.3,20.7-20.8V176.1c0-11.5,9.3-20.8,20.7-20.8h398.2c11.5,0,20.7,9.3,20.7,20.8v156.1c0,11.5,9.3,20.8,20.7,20.8
			L2000,353"/>
	</g>
</g>
<rect x="1004.3" y="252" class="st60" width="264" height="136"/>
<text transform="matrix(1 0 0 1 1004.2883 265.2749)"><tspan x="0" y="0" class="st61 st62">Your</tspan><tspan x="38" y="0" class="st61 st62"> </tspan><tspan x="43.2" y="0" class="st61 st62">satisfaction</tspan><tspan x="134" y="0" class="st61 st62"> </tspan><tspan x="139.1" y="0" class="st61 st62">is</tspan><tspan x="151.2" y="0" class="st61 st62"> </tspan><tspan x="156.4" y="0" class="st61 st62">our</tspan><tspan x="183.1" y="0" class="st61 st62"> </tspan><tspan x="188.3" y="0" class="st61 st62">only</tspan><tspan x="222.1" y="0" class="st61 st62"> </tspan><tspan x="227.2" y="0" class="st61 st62">goal, </tspan><tspan x="0" y="21.6" class="st61 st62">so</tspan><tspan x="18" y="21.6" class="st61 st62 st63"> </tspan><tspan x="24.5" y="21.6" class="st61 st62">we</tspan><tspan x="48.1" y="21.6" class="st61 st62 st63"> </tspan><tspan x="54.6" y="21.6" class="st61 st62">are</tspan><tspan x="79.6" y="21.6" class="st61 st62 st63"> </tspan><tspan x="86.1" y="21.6" class="st61 st62">happy</tspan><tspan x="134.6" y="21.6" class="st61 st62 st63"> </tspan><tspan x="141.1" y="21.6" class="st61 st62">to</tspan><tspan x="157.7" y="21.6" class="st61 st62 st63"> </tspan><tspan x="164.2" y="21.6" class="st61 st62">receive</tspan><tspan x="221.5" y="21.6" class="st61 st62 st63"> </tspan><tspan x="228" y="21.6" class="st61 st62">your </tspan><tspan x="0" y="43.2" class="st61 st62">feedback</tspan><tspan x="72.2" y="43.2" class="st61 st62"> </tspan><tspan x="76.2" y="43.2" class="st61 st62">and</tspan><tspan x="105.3" y="43.2" class="st61 st62"> </tspan><tspan x="109.4" y="43.2" class="st61 st62">comments</tspan><tspan x="191.6" y="43.2" class="st61 st62"> </tspan><tspan x="195.6" y="43.2" class="st61 st62">after</tspan><tspan x="232.9" y="43.2" class="st61 st62"> f</tspan><tspan x="237" y="43.2" class="st61 st62">fi</tspan><tspan x="257.4" y="43.2" class="st61 st62">-</tspan><tspan x="49.2" y="64.8" class="st61 st62">ishing up the service.</tspan></text>
<rect x="930.3" y="210" class="st60" width="412" height="50"/>
<text transform="matrix(1 0 0 1 1034.8064 230.9858)" class="st40 st64">Rate the service</text>
</svg>
