<?xml version="1.0" encoding="utf-8"?>
<!-- Generator: Adobe Illustrator 21.1.0, SVG Export Plug-In . SVG Version: 6.00 Build 0)  -->
<svg version="1.1" id="Layer_1" xmlns="http://www.w3.org/2000/svg" xmlns:xlink="http://www.w3.org/1999/xlink" x="0px" y="0px"
	 viewBox="0 0 2000 668" style="enable-background:new 0 0 2000 668;" xml:space="preserve">
<style type="text/css">
	.st0{fill:#9B6649;}
	.st1{fill:#805038;}
	.st2{fill:#6D412D;}
	.st3{fill:#9B9B9A;}
	.st4{fill:#717070;}
	.st5{fill:#E20A13;}
	.st6{fill:#FFFFFF;}
	.st7{fill:#1D1D1B;}
	.st8{fill:#76B72A;}
	.st9{fill:#547831;}
	.st10{fill:#476429;}
	.st11{fill:#BA6456;}
	.st12{fill:#8A4336;}
	.st13{fill:#6D9C40;}
	.st14{fill:#F08966;}
	.st15{fill:#845F41;}
	.st16{fill:#563722;}
	.st17{fill:#D68162;}
	.st18{fill:#F9F8F7;}
	.st19{fill:#D1D3D4;}
	.st20{fill:#BB8767;}
	.st21{fill:#CC6733;}
	.st22{fill:#CCCBCB;}
	.st23{fill:#F9BD69;}
	.st24{fill:#996634;}
	.st25{fill:#CC9966;}
	.st26{fill:#3E5823;}
	.st27{font-family:'Lato-Semibold';}
	.st28{font-size:7.4519px;}
	.st29{opacity:0.2;fill:#1D1D1B;}
	.st30{opacity:0.5;fill:#C5D665;}
	.st31{fill:none;stroke:#333333;stroke-width:22;stroke-miterlimit:10;}
	.st32{fill:#333334;}
	.st33{opacity:0.9;}
	.st34{fill:#1A1A1A;}
	.st35{fill-rule:evenodd;clip-rule:evenodd;fill:#FFFFFF;}
	.st36{fill-rule:evenodd;clip-rule:evenodd;fill:#E1F0FC;}
	.st37{opacity:0.2;fill-rule:evenodd;clip-rule:evenodd;fill:#FFFFFF;}
	.st38{fill-rule:evenodd;clip-rule:evenodd;fill:#2E5579;}
	.st39{fill:#2E5579;}
	.st40{opacity:0.2;fill-rule:evenodd;clip-rule:evenodd;fill:#1D1D1B;}
	.st41{fill-rule:evenodd;clip-rule:evenodd;fill:#191A1A;}
	.st42{fill-rule:evenodd;clip-rule:evenodd;fill:#1D1D1B;}
	.st43{fill:#6BBFAB;}
	.st44{font-family:'Lato-Medium';}
	.st45{font-size:8.5965px;}
	.st46{opacity:0.5;fill:#1D1D1B;}
	.st47{fill:#F9C150;}
	.st48{fill:#E58B33;}
	.st49{fill:#28242C;}
	.st50{fill:#C4C3C4;}
	.st51{fill:#A2CCD6;}
	.st52{fill:#8ACBF0;}
	.st53{fill:#B9D9ED;}
	.st54{fill:#FFF381;}
	.st55{fill:#E53C39;}
	.st56{fill:#C13334;}
	.st57{opacity:0.4;}
	
		.st58{fill:none;stroke:#FFFFFF;stroke-width:2;stroke-linecap:round;stroke-linejoin:round;stroke-miterlimit:10;stroke-dasharray:10,20;}
	.st59{fill:#0E4960;}
	.st60{fill:#30B2E7;}
	.st61{fill:none;}
	.st62{fill-rule:evenodd;clip-rule:evenodd;fill:#0E4960;}
	.st63{font-family:'Lato-Regular';}
	.st64{font-size:18px;}
	.st65{letter-spacing:14;}
	.st66{letter-spacing:4;}
	.st67{font-family:'Lato-Black';}
	.st68{font-size:28px;}
</style>
<g>
	<g>
		<path class="st0" d="M535.9,331.2c-0.2-4.5,0.4-8.7-0.9-11.6c-1.3-2.9-4.8-8.6-4.8-8.6l-3.3-1.2c0,0,2.7-4.6,2.8-7.4
			c0.1-2.8,2.1-5.7,2.1-5.7s-4.6-2.9-5-4.3c-0.4-1.4-4.6-6.6-4.7-9c0-2.4-5-11.9-5-11.9l-7-2.6c0,0-4.1-0.3-6.2,0.1
			c-2.1,0.4-6.5,8-6.5,8l-7.9,1.5c0,0-5.2-1.1-5.9,0.6c-0.7,1.8-4.8,6.7-4.8,6.7s-5.9,1.8-7.1,2.6c-1.2,0.8-4.6,5.9-5.1,7.4
			c-0.5,1.4-4.8,2.7-6.3,2.9c-1.5,0.2-5-3.1-9.2,1.8c-4.2,4.9-4.7,6.3-6.8,6.7c-2.1,0.4-6-0.2-7.8,0.7c-1.8,1-8,1.9-8,1.9l-7.9,11.3
			"/>
		<g>
			<path class="st1" d="M513.5,332.9c-0.8,0.3-4.1-1.1-5-1.9c-0.9-0.7-4.2-2.8-4.2-2.8l-5.1-2.9l-3.8-5l1-6.3l-9.7,1.8l-7.9-4.8
				l-1.8-5.9l7.4,0.4c0,0,5.7-1.9,5.9-2.4c0.2-0.5-3.7-6.4-3.7-6.4l2.2-2.6l9.4,0.7c0,0,4.9-1,4.6-2.1c-0.3-1.1,3.5-4.9,3.5-4.9
				l5.6-2.4l0.2-5.2l0.2-5.4l4.8-3.4l-7-2.6c0,0-4.1-0.3-6.2,0.1c-2.1,0.4-6.5,8-6.5,8l-7.9,1.5c0,0-5.2-1.1-5.9,0.6
				c-0.7,1.8-4.8,6.7-4.8,6.7s-5.9,1.8-7.1,2.6c-1.2,0.8-4.6,5.9-5.1,7.4c-0.5,1.4-4.8,2.7-6.3,2.9c-1.5,0.2-5-3.1-9.2,1.8
				c-4.2,4.9-4.7,6.3-6.8,6.7c-2.1,0.4-6-0.2-7.8,0.7c-1.8,1-5.2,6.4-5.2,6.4l-4.4,9.6"/>
		</g>
		<path class="st1" d="M517.3,301.3l-1,2.7l-2.9,2.7c0,0-0.2,1.9,0.6,3.4c0.8,1.5,0.2,4.5-0.4,6.1c-0.6,1.6-1.2-1.9-1.2-1.9l0.9-2.5
			l-1.8-3.5c0,0,1.3-2.8,1.3-3.4C512.8,304.4,516.3,304.1,517.3,301.3z"/>
		<line class="st1" x1="527.2" y1="327.9" x2="527.9" y2="331.6"/>
		<path class="st1" d="M492.6,304.3l4.5-0.1l2.1,2.6l-1-3.2c0,0-0.3-0.3-1.4-0.5C495.7,302.9,492.6,304.3,492.6,304.3z"/>
		<path class="st1" d="M520.2,288.4l2,4.8c0,0,0,1.4-0.9,2.3c-0.8,0.9-1.3,3.4-1.3,3.4l0.4-5.9L520.2,288.4z"/>
		<g>
			<path class="st2" d="M479.8,329c0,0-7.3-3.3-7.2-3.7c0-0.4-0.1-3.3-0.1-3.3l-10-2.3l-3.5-6.3l5.5-0.2c0,0-0.7-7.7-0.7-8.9
				c0-1.2-0.2-3.3-0.2-3.3l5.5-2.6l4.2-1.8l2.2-5.8l4.1-2.1c0,0,2.9-1.5,3.1-2.1c0.2-0.5,3.9-4.2,3.9-4.2l5.4,0.8c0,0,4.5-2.6,5-3.4
				c0.5-0.8,2.5-1.7,2.9-2.1c0.4-0.5,3-1.1,3-1.1l2.7-0.8l1.5-3.9l4-1.1l1.2-1.2l-2.1-0.8c0,0-4.1-0.3-6.2,0.1c-2.1,0.4-6.5,8-6.5,8
				l-7.9,1.5c0,0-5.2-1.1-5.9,0.6c-0.7,1.8-4.8,6.7-4.8,6.7s-5.9,1.8-7.1,2.6c-1.2,0.8-4.6,5.9-5.1,7.4c-0.5,1.4-4.8,2.7-6.3,2.9
				c-1.5,0.2-5-3.1-9.2,1.8c-4.2,4.9-4.7,6.3-6.8,6.7c-2.1,0.4-6-0.2-7.8,0.7c-1.8,1-8,1.9-8,1.9l-12.8,18.3"/>
		</g>
		<path class="st1" d="M517.2,274.5l1,2.6l1.6,2.8l-0.3,3.3c0,0,0.3,2.5,0.2,3.6c-0.1,1-0.9-3.6-0.9-3.6s-0.2-1-0.5-1.9
			c-0.3-0.9-0.7-2.8-0.7-2.8L517.2,274.5z"/>
		<path class="st2" d="M478.9,326.5c0,0,2-0.2,2.7-0.3c0.7-0.1,3.7-2.4,3.7-2.4l-1.1,3.1c0,0,3.3,2.5,3.6,3c0.3,0.5-1.8,0.1-1.8,0.1
			l-2.6-1.9L478.9,326.5z"/>
		<path class="st0" d="M611.7,313.2c0,0-3.5,0-5.3-4.9c-1.8-4.9-2.7-9.7-4.9-12.4c-2.2-2.7-7.5-7.5-7.5-7.5h-3.5c0,0,0.9-6.2,0-9.3
			c-0.9-3.1,0-7.1,0-7.1s-5.3-1.3-6.2-2.7c-0.9-1.3-6.6-5.3-7.5-8c-0.9-2.7-8.8-11.1-8.8-11.1h-7.5c0,0-4,1.3-5.7,2.7
			c-1.8,1.3-3.3,11.5-3.3,11.5l-6.8,4.9c0,0-5.3,0.9-5.3,3.1c0,2.2-2.2,9.3-2.2,9.3s-4.9,4.4-5.7,5.7c-0.9,1.3-2.2,8.4-2.2,10.2
			c0,1.8-3.5,4.9-4.9,5.7c-1.3,0.9-5.7-1.3-8,5.7c-2.2,7.1-2.2,8.8-4,10.2c-1.8,1.3-5.7,2.2-7.1,4c-1.3,1.8-6.8,5.3-6.8,5.3
			l-7.8,2.2h145.9l-11.6-14.1c-2.2-0.4-10.2-2.7-10.2-2.7L611.7,313.2z"/>
		<g>
			<path class="st1" d="M600.4,325.1c0,0-6-1.5-8.4-3.1c-2.4-1.5-3.1-2.2-3.1-2.2s-2.2-1.1-2.9-0.4c-0.7,0.7-4.2,0.4-5.3,0
				c-1.1-0.4-4.9-1.3-4.9-1.3l-5.7-1.1l-5.3-4l-1.3-7.3l-8.4,6l-9.1-2l-3.8-5.7l7.1-2.7c0,0,4.6-4.4,4.6-5.1c0-0.7-5.7-5.5-5.7-5.5
				l1.1-3.8l9.1-3.1c0,0,4.2-3.1,3.5-4.2c-0.7-1.1,1.6-6.9,1.6-6.9l4.4-4.9l-1.7-5.7l-1.7-6l3.3-5.7h-7.5c0,0-4,1.3-5.7,2.7
				c-1.8,1.3-3.3,11.5-3.3,11.5l-6.8,4.9c0,0-5.3,0.9-5.3,3.1c0,2.2-2.2,9.3-2.2,9.3s-4.9,4.4-5.7,5.7c-0.9,1.3-2.2,8.4-2.2,10.2
				c0,1.8-3.5,4.9-4.9,5.7c-1.3,0.9-5.7-1.3-8,5.7c-2.2,7.1-2.2,8.8-4,10.2c-1.8,1.3-5.7,2.2-7.1,4c-1.3,1.8-6.8,5.3-6.8,5.3
				l-7.8,2.2h122.9l-11.9-2.7L600.4,325.1z"/>
		</g>
		<path class="st1" d="M578.5,283.1v3.3l-1.8,4.2c0,0,0.4,2.2,1.8,3.5c1.3,1.3,1.8,4.9,1.8,6.9c0,2-1.8-1.5-1.8-1.5v-3.1l-2.9-3.1
			c0,0,0.2-3.5,0-4.2C575.4,288.4,578.5,286.6,578.5,283.1z"/>
		<path class="st1" d="M597.1,308.3l2,3.8l9.5,6.9c0,0,4,1.1,4.9,1.3c0.9,0.2-6.9-1.5-6.9-1.5l-2.4-2
			C604.2,316.7,597.8,310.7,597.1,308.3z"/>
		<path class="st1" d="M556.4,296.6l4.2-2l2.9,2l-2-3.1c0,0-0.4-0.2-1.5,0C558.9,293.7,556.4,296.6,556.4,296.6z"/>
		<path class="st1" d="M576.8,267.9l3.5,4.4c0,0,0.4,1.5,0,2.9c-0.4,1.3,0,4.2,0,4.2l-1.7-6.6L576.8,267.9z"/>
		<g>
			<path class="st2" d="M566.1,328.9c-1.1,0.4-13,0-13,0s-8-0.7-8.1-1.1c-0.1-0.4-1.2-3.5-1.2-3.5l-10.2,1.5l-5.5-5.5l5.1-2.5
				c0,0-3.3-8.2-3.8-9.5c-0.4-1.3-1.3-3.5-1.3-3.5l4.2-5.1l3.3-3.8v-7.3l3.1-4c0,0,2.2-2.9,2.2-3.5c0-0.7,2.2-6.2,2.2-6.2l5.3-1.3
				c0,0,3.3-4.6,3.5-5.7c0.2-1.1,1.8-2.9,2-3.5c0.2-0.7,2.4-2.4,2.4-2.4l2.2-2V255l3.3-2.9l0.7-1.8h-2.3c0,0-4,1.3-5.7,2.7
				c-1.8,1.3-3.3,11.5-3.3,11.5l-6.8,4.9c0,0-5.3,0.9-5.3,3.1c0,2.2-2.2,9.3-2.2,9.3s-4.9,4.4-5.7,5.7c-0.9,1.3-2.2,8.4-2.2,10.2
				c0,1.8-3.5,4.9-4.9,5.7c-1.3,0.9-5.7-1.3-8,5.7c-2.2,7.1-2.2,8.8-4,10.2c-1.8,1.3-5.7,2.2-7.1,4c-1.3,1.8-6.8,5.3-6.8,5.3
				l-7.8,2.2H569C569,330.8,567.2,328.4,566.1,328.9z"/>
		</g>
		<path class="st1" d="M569,253.8l1.8,2.5l2.5,2.4l0.9,3.7c0,0,1.2,2.7,1.4,3.8c0.2,1.2-2.1-3.5-2.1-3.5s-0.6-1-1.2-1.9
			s-1.6-2.8-1.6-2.8L569,253.8z"/>
		<path class="st2" d="M551.3,326.6c0,0,1.8-1,2.4-1.5c0.6-0.4,2.7-4.1,2.7-4.1v3.8c0,0,4,1.3,4.4,1.8c0.4,0.4-1.6,0.9-1.6,0.9
			l-3.1-1L551.3,326.6z"/>
	</g>
	<g>
		<rect x="1490.1" y="321.1" class="st3" width="2" height="24.3"/>
		<rect x="1490.1" y="321.1" class="st4" width="2" height="5.2"/>
		<circle class="st5" cx="1491" cy="315.2" r="8.5"/>
		<circle class="st6" cx="1491" cy="315.2" r="7.3"/>
		<path class="st7" d="M1488.9,320.4v-7c0-1.2,0.9-2.1,2.1-2.1s2.1,0.9,2.1,2.1v5.3h-0.4l1.2,1.7l1.2-1.7h-0.4v-5.3
			c0-2.1-1.7-3.8-3.8-3.8c-2.1,0-3.8,1.7-3.8,3.8v7H1488.9z"/>
		
			<rect x="1482.7" y="314.3" transform="matrix(0.7071 -0.7071 0.7071 0.7071 213.9498 1146.4032)" class="st5" width="16.2" height="1.2"/>
	</g>
	<g>
		<path class="st8" d="M646.9,351.6v-75.7c-47.9,34.8-159.8,40.8-245.4,51c-82.7,9.9-140,24.6-140,24.6H646.9z"/>
	</g>
	<path class="st9" d="M464.3,331.6c1.7,0,3.2,1.2,3.6,2.8c0.8-1.3,2.2-2.2,3.9-2.2c2.5,0,4.5,2,4.5,4.5c0,0.1,0,0.3,0,0.4
		c0.1,0,0.2,0,0.4,0c2,0,3.7,1.6,3.7,3.7c0,2-1.6,3.7-3.7,3.7H460c-2,0-3.7-1.6-3.7-3.7c0-2,1.6-3.7,3.7-3.7c0.5,0,0.9,0.1,1.3,0.3
		c-0.4-0.6-0.7-1.3-0.7-2.1C460.6,333.2,462.3,331.6,464.3,331.6z"/>
	<path class="st9" d="M428,332.4c1.7,0,3.2,1.2,3.6,2.8c0.8-1.3,2.2-2.2,3.9-2.2c2.5,0,4.5,2,4.5,4.5c0,0.1,0,0.3,0,0.4
		c0.1,0,0.2,0,0.4,0c2,0,3.7,1.6,3.7,3.7c0,2-1.6,3.7-3.7,3.7h-16.6c-2,0-3.7-1.6-3.7-3.7c0-2,1.6-3.7,3.7-3.7
		c0.5,0,0.9,0.1,1.3,0.3c-0.4-0.6-0.7-1.3-0.7-2.1C424.3,334,425.9,332.4,428,332.4z"/>
	<path class="st10" d="M445.3,334.1c1.7,0,3.2,1.2,3.6,2.8c0.8-1.3,2.2-2.2,3.9-2.2c2.5,0,4.5,2,4.5,4.5c0,0.1,0,0.3,0,0.4
		c0.1,0,0.2,0,0.4,0c2,0,3.7,1.6,3.7,3.7c0,2-1.6,3.7-3.7,3.7h-16.6c-2,0-3.7-1.6-3.7-3.7c0-2,1.6-3.7,3.7-3.7
		c0.5,0,0.9,0.1,1.3,0.3c-0.4-0.6-0.7-1.3-0.7-2.1C441.6,335.7,443.3,334.1,445.3,334.1z"/>
	<path class="st9" d="M614.4,331.6c1.7,0,3.2,1.2,3.6,2.8c0.8-1.3,2.2-2.2,3.9-2.2c2.5,0,4.5,2,4.5,4.5c0,0.1,0,0.3,0,0.4
		c0.1,0,0.2,0,0.4,0c2,0,3.7,1.6,3.7,3.7c0,2-1.6,3.7-3.7,3.7h-16.6c-2,0-3.7-1.6-3.7-3.7c0-2,1.6-3.7,3.7-3.7
		c0.5,0,0.9,0.1,1.3,0.3c-0.4-0.6-0.7-1.3-0.7-2.1C610.7,333.2,612.4,331.6,614.4,331.6z"/>
	<path class="st9" d="M578,332.4c1.7,0,3.2,1.2,3.6,2.8c0.8-1.3,2.2-2.2,3.9-2.2c2.5,0,4.5,2,4.5,4.5c0,0.1,0,0.3,0,0.4
		c0.1,0,0.2,0,0.4,0c2,0,3.7,1.6,3.7,3.7c0,2-1.6,3.7-3.7,3.7h-16.6c-2,0-3.7-1.6-3.7-3.7c0-2,1.6-3.7,3.7-3.7
		c0.5,0,0.9,0.1,1.3,0.3c-0.4-0.6-0.7-1.3-0.7-2.1C574.4,334,576,332.4,578,332.4z"/>
	<path class="st10" d="M595.4,334.1c1.7,0,3.2,1.2,3.6,2.8c0.8-1.3,2.2-2.2,3.9-2.2c2.5,0,4.5,2,4.5,4.5c0,0.1,0,0.3,0,0.4
		c0.1,0,0.2,0,0.4,0c2,0,3.7,1.6,3.7,3.7c0,2-1.6,3.7-3.7,3.7H591c-2,0-3.7-1.6-3.7-3.7c0-2,1.6-3.7,3.7-3.7c0.5,0,0.9,0.1,1.3,0.3
		c-0.4-0.6-0.7-1.3-0.7-2.1C591.7,335.7,593.3,334.1,595.4,334.1z"/>
	<g>
		<g>
			<path class="st11" d="M592.5,340.3c0,1.3-1.1,2.4-2.4,2.4l0,0c-1.3,0-2.4-1.1-2.4-2.4v-13.5c0-1.3,1.1-2.4,2.4-2.4l0,0
				c1.3,0,2.4,1.1,2.4,2.4V340.3z"/>
			<path class="st12" d="M590.2,334.5c0.8,0,1.6-0.1,2.4-0.3v-7.5c0-1.3-1.1-2.4-2.4-2.4c-1.3,0-2.4,1.1-2.4,2.4v7.5
				C588.5,334.4,589.3,334.5,590.2,334.5z"/>
			<path class="st13" d="M600.8,321.1c0,5.9-4.8,10.7-10.7,10.7c-5.9,0-10.7-4.8-10.7-10.7c0-5.9,4.8-29.5,10.7-29.5
				C596.1,291.7,600.8,315.2,600.8,321.1z"/>
			<path class="st9" d="M590.2,291.7c-0.3,0-0.6,0.1-0.8,0.2c2.8,7.4,4.6,17.7,4.6,21.3c0,5.9-4.8,10.7-10.7,10.7
				c-1.2,0-2.4-0.2-3.5-0.6c1,4.9,5.3,8.6,10.5,8.6c5.9,0,10.7-4.8,10.7-10.7C600.8,315.2,596.1,291.7,590.2,291.7z"/>
		</g>
	</g>
	<g>
		<rect x="1079.7" y="368.3" class="st14" width="49.8" height="85.8"/>
		<rect x="1076.8" y="363.5" class="st15" width="55.7" height="4.8"/>
		<rect x="1076.8" y="361.1" class="st16" width="55.7" height="2.4"/>
		<rect x="1079.7" y="425.2" class="st17" width="49.8" height="4.8"/>
		<g>
			<g>
				
					<rect x="1085.9" y="377.3" transform="matrix(-1.836970e-16 1 -1 -1.836970e-16 1477.6301 -711.4044)" class="st18" width="17.3" height="11.7"/>
				<rect x="1090" y="375.7" class="st15" width="9.1" height="14.8"/>
				<polygon class="st19" points="1090,390.5 1099.1,375.7 1090,375.7 				"/>
			</g>
			<g>
				
					<rect x="1106" y="377.3" transform="matrix(-1.836970e-16 1 -1 -1.836970e-16 1497.8174 -731.5916)" class="st18" width="17.3" height="11.6"/>
				<rect x="1110.1" y="375.7" class="st15" width="9.1" height="14.8"/>
				<polygon class="st19" points="1110.1,390.5 1119.3,375.7 1110.1,375.7 				"/>
			</g>
		</g>
		<g>
			<g>
				
					<rect x="1085.9" y="405.4" transform="matrix(-1.836970e-16 1 -1 -1.836970e-16 1505.7728 -683.2618)" class="st18" width="17.3" height="11.7"/>
				<rect x="1090" y="403.9" class="st15" width="9.1" height="14.8"/>
				<polygon class="st19" points="1090,418.6 1099.1,403.9 1090,403.9 				"/>
			</g>
			<g>
				
					<rect x="1106" y="405.4" transform="matrix(-1.836970e-16 1 -1 -1.836970e-16 1525.96 -703.449)" class="st18" width="17.3" height="11.6"/>
				<rect x="1110.1" y="403.9" class="st15" width="9.1" height="14.8"/>
				<polygon class="st19" points="1110.1,418.6 1119.3,403.9 1110.1,403.9 				"/>
			</g>
		</g>
		<g>
			
				<rect x="1095.4" y="429.1" transform="matrix(-1.836970e-16 1 -1 -1.836970e-16 1549.5864 -659.6351)" class="st18" width="18.4" height="31.8"/>
			<rect x="1090" y="437" class="st15" width="29.3" height="17.1"/>
			<g>
				<rect x="1091.4" y="438.3" class="st20" width="26.5" height="1.3"/>
				<rect x="1091.4" y="441.2" class="st20" width="26.5" height="1.3"/>
				<rect x="1091.4" y="444.2" class="st20" width="26.5" height="1.3"/>
				<rect x="1091.4" y="447.1" class="st20" width="26.5" height="1.3"/>
				<rect x="1091.4" y="450" class="st20" width="26.5" height="1.3"/>
				<rect x="1091.4" y="452.9" class="st20" width="26.5" height="1.3"/>
			</g>
		</g>
	</g>
	<g>
		<rect x="472.4" y="268.7" class="st21" width="43.5" height="74.9"/>
		<rect x="469.9" y="264.5" class="st16" width="48.6" height="4.2"/>
		<rect x="469.9" y="262.4" class="st15" width="48.6" height="2.1"/>
		<rect x="472.4" y="318.4" class="st22" width="43.5" height="4.2"/>
		<g>
			<g>
				
					<rect x="477.8" y="276.5" transform="matrix(-1.836970e-16 1 -1 -1.836970e-16 766.9777 -203.7526)" class="st23" width="15.1" height="10.2"/>
				<rect x="481.4" y="275.2" class="st24" width="8" height="12.9"/>
				<polygon class="st22" points="481.4,288.1 489.3,275.2 481.4,275.2 				"/>
			</g>
			<g>
				
					<rect x="495.4" y="276.5" transform="matrix(-1.836970e-16 1 -1 -1.836970e-16 784.6016 -221.3765)" class="st23" width="15.1" height="10.2"/>
				<rect x="499" y="275.2" class="st24" width="8" height="12.9"/>
				<polygon class="st22" points="499,288.1 507,275.2 499,275.2 				"/>
			</g>
		</g>
		<g>
			<g>
				
					<rect x="477.8" y="301.1" transform="matrix(-1.836970e-16 1 -1 -1.836970e-16 791.5468 -179.1835)" class="st23" width="15.1" height="10.2"/>
				<rect x="481.4" y="299.7" class="st24" width="8" height="12.9"/>
				<polygon class="st22" points="481.4,312.6 489.3,299.7 481.4,299.7 				"/>
			</g>
			<g>
				
					<rect x="495.4" y="301.1" transform="matrix(-1.836970e-16 1 -1 -1.836970e-16 809.1707 -196.8075)" class="st23" width="15.1" height="10.2"/>
				<rect x="499" y="299.7" class="st24" width="8" height="12.9"/>
				<polygon class="st22" points="499,312.6 507,299.7 499,299.7 				"/>
			</g>
		</g>
		<g>
			
				<rect x="486.1" y="321.7" transform="matrix(-1.836970e-16 1 -1 -1.836970e-16 829.7969 -158.5567)" class="st23" width="16.1" height="27.8"/>
			<rect x="481.4" y="328.7" class="st24" width="25.6" height="14.9"/>
			<g>
				<rect x="482.6" y="329.8" class="st25" width="23.2" height="1.1"/>
				<rect x="482.6" y="332.4" class="st25" width="23.2" height="1.1"/>
				<rect x="482.6" y="334.9" class="st25" width="23.2" height="1.1"/>
				<rect x="482.6" y="337.4" class="st25" width="23.2" height="1.1"/>
				<rect x="482.6" y="340" class="st25" width="23.2" height="1.1"/>
				<rect x="482.6" y="342.5" class="st20" width="23.2" height="1.1"/>
			</g>
		</g>
	</g>
	<path class="st10" d="M1109.6,439.6c1.7,0,3.2,1.2,3.6,2.8c0.8-1.3,2.2-2.2,3.9-2.2c2.5,0,4.5,2,4.5,4.5c0,0.1,0,0.3,0,0.4
		c0.1,0,0.2,0,0.4,0c2,0,3.7,1.6,3.7,3.7c0,2-1.6,3.7-3.7,3.7h-16.6c-2,0-3.7-1.6-3.7-3.7c0-2,1.6-3.7,3.7-3.7
		c0.5,0,0.9,0.1,1.3,0.3c-0.4-0.6-0.7-1.3-0.7-2.1C1105.9,441.2,1107.6,439.6,1109.6,439.6z"/>
	<path class="st26" d="M1088.6,442.1c1.7,0,3.2,1.2,3.6,2.8c0.8-1.3,2.2-2.2,3.9-2.2c2.5,0,4.5,2,4.5,4.5c0,0.1,0,0.3,0,0.4
		c0.1,0,0.2,0,0.4,0c2,0,3.7,1.6,3.7,3.7c0,2-1.6,3.7-3.7,3.7h-16.6c-2,0-3.7-1.6-3.7-3.7c0-2,1.6-3.7,3.7-3.7
		c0.5,0,0.9,0.1,1.3,0.3c-0.4-0.6-0.7-1.3-0.7-2.1C1084.9,443.7,1086.6,442.1,1088.6,442.1z"/>
	<path class="st10" d="M1066.9,443.5c1.7,0,3.2,1.2,3.6,2.8c0.8-1.3,2.2-2.2,3.9-2.2c2.5,0,4.5,2,4.5,4.5c0,0.1,0,0.3,0,0.4
		c0.1,0,0.2,0,0.4,0c2,0,3.7,1.6,3.7,3.7c0,2-1.6,3.7-3.7,3.7h-16.6c-2,0-3.7-1.6-3.7-3.7c0-2,1.6-3.7,3.7-3.7
		c0.5,0,0.9,0.1,1.3,0.3c-0.4-0.6-0.7-1.3-0.7-2.1C1063.3,445.2,1064.9,443.5,1066.9,443.5z"/>
	<g>
		<rect x="1226.8" y="384.1" class="st23" width="92.9" height="71.7"/>
		<g>
			
				<rect x="1262.5" y="434.7" transform="matrix(-1.836970e-16 1 -1 -1.836970e-16 1718.2671 -828.3093)" class="st18" width="21.7" height="20.6"/>
			<rect x="1264.1" y="435.2" class="st15" width="18.4" height="20.6"/>
			<rect x="1264.1" y="435.2" class="st19" width="9.2" height="20.6"/>
		</g>
		<rect x="1222.5" y="379.9" class="st15" width="101.6" height="4.3"/>
		<g>
			<g>
				<g>
					
						<rect x="1232.9" y="392.7" transform="matrix(-1.836970e-16 1 -1 -1.836970e-16 1637.7719 -842.5314)" class="st18" width="14.6" height="9.8"/>
					<rect x="1236.3" y="391.4" class="st15" width="7.7" height="12.4"/>
					<polygon class="st19" points="1236.3,403.8 1244,391.4 1236.3,391.4 					"/>
				</g>
				<g>
					
						<rect x="1241.6" y="392.7" transform="matrix(-1.836970e-16 1 -1 -1.836970e-16 1646.5067 -851.2662)" class="st18" width="14.6" height="9.8"/>
					<rect x="1245.1" y="391.4" class="st15" width="7.7" height="12.4"/>
					<polygon class="st19" points="1245.1,403.8 1252.7,391.4 1245.1,391.4 					"/>
				</g>
			</g>
			<g>
				<g>
					
						<rect x="1261.6" y="392.7" transform="matrix(-1.836970e-16 1 -1 -1.836970e-16 1666.541 -871.3005)" class="st18" width="14.6" height="9.8"/>
					<rect x="1265.1" y="391.4" class="st15" width="7.7" height="12.4"/>
					<polygon class="st19" points="1265.1,403.8 1272.8,391.4 1265.1,391.4 					"/>
				</g>
				<g>
					
						<rect x="1270.4" y="392.7" transform="matrix(-1.836970e-16 1 -1 -1.836970e-16 1675.276 -880.0355)" class="st18" width="14.6" height="9.8"/>
					<rect x="1273.8" y="391.4" class="st15" width="7.7" height="12.4"/>
					<polygon class="st19" points="1273.8,403.8 1281.5,391.4 1273.8,391.4 					"/>
				</g>
			</g>
			<g>
				<g>
					
						<rect x="1290.4" y="392.7" transform="matrix(-1.836970e-16 1 -1 -1.836970e-16 1695.3104 -900.0699)" class="st18" width="14.6" height="9.8"/>
					<rect x="1293.9" y="391.4" class="st15" width="7.7" height="12.4"/>
					<polygon class="st19" points="1293.9,403.8 1301.5,391.4 1293.9,391.4 					"/>
				</g>
				<g>
					
						<rect x="1299.1" y="392.7" transform="matrix(-1.836970e-16 1 -1 -1.836970e-16 1704.0458 -908.8053)" class="st18" width="14.6" height="9.8"/>
					<rect x="1302.6" y="391.4" class="st15" width="7.7" height="12.4"/>
					<polygon class="st19" points="1302.6,403.8 1310.3,391.4 1302.6,391.4 					"/>
				</g>
			</g>
		</g>
		<g>
			<g>
				<g>
					
						<rect x="1232.9" y="413.5" transform="matrix(-1.836970e-16 1 -1 -1.836970e-16 1658.5369 -821.7664)" class="st18" width="14.6" height="9.8"/>
					<rect x="1236.3" y="412.2" class="st15" width="7.7" height="12.4"/>
					<polygon class="st19" points="1236.3,424.6 1244,412.2 1236.3,412.2 					"/>
				</g>
				<g>
					
						<rect x="1241.6" y="413.5" transform="matrix(-1.836970e-16 1 -1 -1.836970e-16 1667.2717 -830.5012)" class="st18" width="14.6" height="9.8"/>
					<rect x="1245.1" y="412.2" class="st15" width="7.7" height="12.4"/>
					<polygon class="st19" points="1245.1,424.6 1252.7,412.2 1245.1,412.2 					"/>
				</g>
			</g>
			<g>
				<g>
					
						<rect x="1261.6" y="413.5" transform="matrix(-1.836970e-16 1 -1 -1.836970e-16 1687.306 -850.5355)" class="st18" width="14.6" height="9.8"/>
					<rect x="1265.1" y="412.2" class="st15" width="7.7" height="12.4"/>
					<polygon class="st19" points="1265.1,424.6 1272.8,412.2 1265.1,412.2 					"/>
				</g>
				<g>
					
						<rect x="1270.4" y="413.5" transform="matrix(-1.836970e-16 1 -1 -1.836970e-16 1696.041 -859.2704)" class="st18" width="14.6" height="9.8"/>
					<rect x="1273.8" y="412.2" class="st15" width="7.7" height="12.4"/>
					<polygon class="st19" points="1273.8,424.6 1281.5,412.2 1273.8,412.2 					"/>
				</g>
			</g>
			<g>
				<g>
					
						<rect x="1290.4" y="413.5" transform="matrix(-1.836970e-16 1 -1 -1.836970e-16 1716.0754 -879.3049)" class="st18" width="14.6" height="9.8"/>
					<rect x="1293.9" y="412.2" class="st15" width="7.7" height="12.4"/>
					<polygon class="st19" points="1293.9,424.6 1301.5,412.2 1293.9,412.2 					"/>
				</g>
				<g>
					
						<rect x="1299.1" y="413.5" transform="matrix(-1.836970e-16 1 -1 -1.836970e-16 1724.8108 -888.0403)" class="st18" width="14.6" height="9.8"/>
					<rect x="1302.6" y="412.2" class="st15" width="7.7" height="12.4"/>
					<polygon class="st19" points="1302.6,424.6 1310.3,412.2 1302.6,412.2 					"/>
				</g>
			</g>
		</g>
		<g>
			
				<rect x="1292.4" y="434.7" transform="matrix(-1.836970e-16 1 -1 -1.836970e-16 1748.2306 -852.093)" class="st18" width="15.5" height="26.8"/>
			<rect x="1287.8" y="441.4" class="st15" width="24.7" height="14.4"/>
			<g>
				<rect x="1289" y="442.5" class="st20" width="22.3" height="1.1"/>
				<rect x="1289" y="444.9" class="st20" width="22.3" height="1.1"/>
				<rect x="1289" y="447.4" class="st20" width="22.3" height="1.1"/>
				<rect x="1289" y="449.8" class="st20" width="22.3" height="1.1"/>
				<rect x="1289" y="452.3" class="st20" width="22.3" height="1.1"/>
				<rect x="1289" y="454.7" class="st20" width="22.3" height="1.1"/>
			</g>
		</g>
		<g>
			
				<rect x="1238.7" y="434.7" transform="matrix(-1.836970e-16 1 -1 -1.836970e-16 1694.4845 -798.3469)" class="st18" width="15.5" height="26.8"/>
			
				<rect x="1234.1" y="441.4" transform="matrix(-1 -1.224647e-16 1.224647e-16 -1 2492.8293 897.206)" class="st15" width="24.7" height="14.4"/>
			<g>
				<rect x="1235.3" y="442.5" class="st20" width="22.3" height="1.1"/>
				<rect x="1235.3" y="444.9" class="st20" width="22.3" height="1.1"/>
				<rect x="1235.3" y="447.4" class="st20" width="22.3" height="1.1"/>
				<rect x="1235.3" y="449.8" class="st20" width="22.3" height="1.1"/>
				<rect x="1235.3" y="452.3" class="st20" width="22.3" height="1.1"/>
				<rect x="1235.3" y="454.7" class="st20" width="22.3" height="1.1"/>
			</g>
		</g>
		<polygon class="st16" points="1318.1,365.8 1228.5,365.8 1222.5,379.9 1324.1,379.9 		"/>
	</g>
	<path class="st10" d="M1277.5,438.5c1.7,0,3.2,1.2,3.6,2.8c0.8-1.3,2.2-2.2,3.9-2.2c2.5,0,4.5,2,4.5,4.5c0,0.1,0,0.3,0,0.4
		c0.1,0,0.2,0,0.4,0c2,0,3.7,1.6,3.7,3.7c0,2-1.6,3.7-3.7,3.7h-16.6c-2,0-3.7-1.6-3.7-3.7c0-2,1.6-3.7,3.7-3.7
		c0.5,0,0.9,0.1,1.3,0.3c-0.4-0.6-0.7-1.3-0.7-2.1C1273.8,440.1,1275.5,438.5,1277.5,438.5z"/>
	<path class="st26" d="M1297.4,439.6c1.7,0,3.2,1.2,3.6,2.8c0.8-1.3,2.2-2.2,3.9-2.2c2.5,0,4.5,2,4.5,4.5c0,0.1,0,0.3,0,0.4
		c0.1,0,0.2,0,0.4,0c2,0,3.7,1.6,3.7,3.7c0,2-1.6,3.7-3.7,3.7H1293c-2,0-3.7-1.6-3.7-3.7c0-2,1.6-3.7,3.7-3.7c0.5,0,0.9,0.1,1.3,0.3
		c-0.4-0.6-0.7-1.3-0.7-2.1C1293.7,441.2,1295.3,439.6,1297.4,439.6z"/>
	<path class="st10" d="M1320,443.6c1.7,0,3.2,1.2,3.6,2.8c0.8-1.3,2.2-2.2,3.9-2.2c2.5,0,4.5,2,4.5,4.5c0,0.1,0,0.3,0,0.4
		c0.1,0,0.2,0,0.4,0c2,0,3.7,1.6,3.7,3.7c0,2-1.6,3.7-3.7,3.7h-16.6c-2,0-3.7-1.6-3.7-3.7c0-2,1.6-3.7,3.7-3.7
		c0.5,0,0.9,0.1,1.3,0.3c-0.4-0.6-0.7-1.3-0.7-2.1C1316.3,445.3,1317.9,443.6,1320,443.6z"/>
	<polygon class="st19" points="509.4,341.6 515.9,341.6 515.9,277.6 514.6,277.6 509.4,289.8 	"/>
	<g>
		<rect x="513.4" y="290.8" class="st23" width="66.8" height="51.5"/>
		<g>
			
				<rect x="539" y="327.2" transform="matrix(-1.836970e-16 1 -1 -1.836970e-16 881.3646 -212.2513)" class="st18" width="15.6" height="14.8"/>
			<rect x="540.2" y="327.5" class="st15" width="13.2" height="14.8"/>
			<rect x="540.2" y="327.5" class="st19" width="6.6" height="14.8"/>
		</g>
		<rect x="510.3" y="287.7" class="st15" width="73.1" height="3.1"/>
		<g>
			<g>
				<g>
					
						<rect x="517.7" y="297" transform="matrix(-1.836970e-16 1 -1 -1.836970e-16 823.4755 -222.4791)" class="st18" width="10.5" height="7"/>
					<rect x="520.2" y="296" class="st15" width="5.5" height="8.9"/>
					<polygon class="st19" points="520.2,305 525.7,296 520.2,296 					"/>
				</g>
				<g>
					
						<rect x="524" y="297" transform="matrix(-1.836970e-16 1 -1 -1.836970e-16 829.7574 -228.761)" class="st18" width="10.5" height="7"/>
					<rect x="526.5" y="296" class="st15" width="5.5" height="8.9"/>
					<polygon class="st19" points="526.5,305 532,296 526.5,296 					"/>
				</g>
			</g>
			<g>
				<g>
					
						<rect x="538.4" y="297" transform="matrix(-1.836970e-16 1 -1 -1.836970e-16 844.1655 -243.169)" class="st18" width="10.5" height="7.1"/>
					<rect x="540.9" y="296" class="st15" width="5.5" height="8.9"/>
					<polygon class="st19" points="540.9,305 546.4,296 540.9,296 					"/>
				</g>
				<g>
					
						<rect x="544.7" y="297" transform="matrix(-1.836970e-16 1 -1 -1.836970e-16 850.4468 -249.4504)" class="st18" width="10.5" height="7"/>
					<rect x="547.2" y="296" class="st15" width="5.5" height="8.9"/>
					<polygon class="st19" points="547.2,305 552.7,296 547.2,296 					"/>
				</g>
			</g>
			<g>
				<g>
					
						<rect x="559.1" y="297" transform="matrix(-1.836970e-16 1 -1 -1.836970e-16 864.8552 -263.8588)" class="st18" width="10.5" height="7.1"/>
					<rect x="561.6" y="296" class="st15" width="5.5" height="8.9"/>
					<polygon class="st19" points="561.6,305 567.1,296 561.6,296 					"/>
				</g>
				<g>
					
						<rect x="565.4" y="297" transform="matrix(-1.836970e-16 1 -1 -1.836970e-16 871.1373 -270.1409)" class="st18" width="10.5" height="7.1"/>
					<rect x="567.9" y="296" class="st15" width="5.5" height="8.9"/>
					<polygon class="st19" points="567.9,305 573.4,296 567.9,296 					"/>
				</g>
			</g>
		</g>
		<g>
			<g>
				<g>
					
						<rect x="517.7" y="311.9" transform="matrix(-1.836970e-16 1 -1 -1.836970e-16 838.4091 -207.5455)" class="st18" width="10.5" height="7"/>
					<rect x="520.2" y="311" class="st15" width="5.5" height="8.9"/>
					<polygon class="st19" points="520.2,319.9 525.7,311 520.2,311 					"/>
				</g>
				<g>
					
						<rect x="524" y="311.9" transform="matrix(-1.836970e-16 1 -1 -1.836970e-16 844.691 -213.8274)" class="st18" width="10.5" height="7"/>
					<rect x="526.5" y="311" class="st15" width="5.5" height="8.9"/>
					<polygon class="st19" points="526.5,319.9 532,311 526.5,311 					"/>
				</g>
			</g>
			<g>
				<g>
					
						<rect x="538.4" y="311.9" transform="matrix(-1.836970e-16 1 -1 -1.836970e-16 859.0991 -228.2354)" class="st18" width="10.5" height="7.1"/>
					<rect x="540.9" y="311" class="st15" width="5.5" height="8.9"/>
					<polygon class="st19" points="540.9,319.9 546.4,311 540.9,311 					"/>
				</g>
				<g>
					
						<rect x="544.7" y="311.9" transform="matrix(-1.836970e-16 1 -1 -1.836970e-16 865.3804 -234.5168)" class="st18" width="10.5" height="7"/>
					<rect x="547.2" y="311" class="st15" width="5.5" height="8.9"/>
					<polygon class="st19" points="547.2,319.9 552.7,311 547.2,311 					"/>
				</g>
			</g>
			<g>
				<g>
					
						<rect x="559.1" y="311.9" transform="matrix(-1.836970e-16 1 -1 -1.836970e-16 879.7888 -248.9252)" class="st18" width="10.5" height="7.1"/>
					<rect x="561.6" y="311" class="st15" width="5.5" height="8.9"/>
					<polygon class="st19" points="561.6,319.9 567.1,311 561.6,311 					"/>
				</g>
				<g>
					
						<rect x="565.4" y="311.9" transform="matrix(-1.836970e-16 1 -1 -1.836970e-16 886.0709 -255.2073)" class="st18" width="10.5" height="7.1"/>
					<rect x="567.9" y="311" class="st15" width="5.5" height="8.9"/>
					<polygon class="st19" points="567.9,319.9 573.4,311 567.9,311 					"/>
				</g>
			</g>
		</g>
		<g>
			
				<rect x="560.6" y="327.1" transform="matrix(-1.836970e-16 1 -1 -1.836970e-16 902.9133 -229.3552)" class="st18" width="11.1" height="19.3"/>
			<rect x="557.3" y="332" class="st15" width="17.7" height="10.4"/>
			<g>
				<rect x="558.1" y="332.7" class="st20" width="16" height="0.8"/>
				<rect x="558.1" y="334.5" class="st20" width="16" height="0.8"/>
				<rect x="558.1" y="336.3" class="st20" width="16" height="0.8"/>
				<rect x="558.1" y="338" class="st20" width="16" height="0.8"/>
				<rect x="558.1" y="339.8" class="st20" width="16" height="0.8"/>
				<rect x="558.1" y="341.6" class="st20" width="16" height="0.8"/>
			</g>
		</g>
		<g>
			
				<rect x="521.9" y="327.1" transform="matrix(-1.836970e-16 1 -1 -1.836970e-16 864.2612 -190.703)" class="st18" width="11.1" height="19.3"/>
			
				<rect x="518.6" y="332" transform="matrix(-1 -1.224647e-16 1.224647e-16 -1 1054.9626 674.3261)" class="st15" width="17.7" height="10.4"/>
			<g>
				<rect x="519.5" y="332.7" class="st20" width="16" height="0.8"/>
				<rect x="519.5" y="334.5" class="st20" width="16" height="0.8"/>
				<rect x="519.5" y="336.3" class="st20" width="16" height="0.8"/>
				<rect x="519.5" y="338" class="st20" width="16" height="0.8"/>
				<rect x="519.5" y="339.8" class="st20" width="16" height="0.8"/>
				<rect x="519.5" y="341.6" class="st20" width="16" height="0.8"/>
			</g>
		</g>
		<polygon class="st16" points="579,277.6 514.6,277.6 510.3,287.7 583.4,287.7 		"/>
	</g>
	<g>
		<path class="st11" d="M453.6,342c0,0.9-0.8,1.6-1.7,1.6l0,0c-0.9,0-1.6-0.8-1.6-1.7l0.1-9.3c0-0.9,0.8-1.6,1.7-1.6l0,0
			c0.9,0,1.6,0.8,1.6,1.7L453.6,342z"/>
		<path class="st12" d="M452,338c0.6,0,1.1-0.1,1.6-0.2l0.1-5.2c0-0.9-0.7-1.7-1.6-1.7c-0.9,0-1.7,0.7-1.7,1.6l-0.1,5.2
			C450.8,337.9,451.4,338,452,338z"/>
		
			<ellipse transform="matrix(1.058270e-02 -0.9999 0.9999 1.058270e-02 120.923 774.1443)" class="st13" cx="451.7" cy="326" rx="10.5" ry="10.5"/>
		<path class="st9" d="M456,316.4c0.5,1.3,0.8,2.7,0.8,4.2c-0.1,5.8-4.8,10.4-10.6,10.4c-1.5,0-2.9-0.3-4.2-0.9
			c1.6,3.7,5.2,6.3,9.5,6.4c5.8,0.1,10.5-4.6,10.6-10.4C462.2,321.8,459.6,318.1,456,316.4z"/>
	</g>
	<g>
		<path class="st11" d="M818.1,146.2c0,1-0.8,1.8-1.8,1.8l0,0c-1,0-1.8-0.8-1.8-1.8l0.1-14.6c0-1,0.8-1.8,1.8-1.8l0,0
			c1,0,1.8,0.8,1.8,1.8L818.1,146.2z"/>
		<path class="st12" d="M816.3,137.4c0.6,0,1.2-0.1,1.8-0.2l0.1-5.6c0-1-0.8-1.8-1.8-1.8c-1,0-1.8,0.8-1.8,1.8l0,5.6
			C815.1,137.3,815.7,137.4,816.3,137.4z"/>
		<polygon class="st11" points="795.9,131.4 833.9,131.4 839.4,125.8 839.4,124.4 797,119 795.9,120.3 		"/>
		<polygon class="st12" points="795.9,131.4 833.9,131.4 833.9,127.7 797,119 795.9,120.3 		"/>
		<polygon class="st23" points="797,129.8 834,129.8 839.4,124.4 834,119 797,119 		"/>
		<text transform="matrix(1 0 0 1 804.0793 126.7272)" class="st12 st27 st28">Register</text>
	</g>
	<g>
		<path class="st8" d="M1341.8,545.2v-88.4c-44.9-7-94-10.8-145.5-10.8c-51.5,0-100.6,3.8-145.5,10.8l-0.2,88.4H1341.8z"/>
	</g>
	<path class="st29" d="M1280,496.4c-23.8,7.2-80.5,10-126.7,6.3c-46.2-3.7-64.3-12.6-40.4-19.8c23.8-7.2,80.5-10,126.7-6.3
		C1285.6,480.3,1303.8,489.2,1280,496.4z"/>
	<g>
		<path class="st29" d="M1295.6,463.5c-3.7,2.2-9.8,2.2-13.5,0c-3.7-2.2-3.7-5.7,0-7.8c3.7-2.2,9.8-2.2,13.5,0
			C1299.4,457.8,1299.4,461.3,1295.6,463.5z"/>
		<g>
			<path class="st11" d="M1291.8,458.9c0,1.6-1.3,2.9-2.9,2.9l0,0c-1.6,0-2.9-1.3-2.9-2.9v-16.5c0-1.6,1.3-2.9,2.9-2.9l0,0
				c1.6,0,2.9,1.3,2.9,2.9V458.9z"/>
			<path class="st12" d="M1288.9,451.9c1,0,2-0.1,2.9-0.3v-9.1c0-1.6-1.3-2.9-2.9-2.9c-1.6,0-2.9,1.3-2.9,2.9v9.1
				C1286.9,451.7,1287.9,451.9,1288.9,451.9z"/>
			<path class="st13" d="M1301.9,435.5c0,7.2-5.8,13-13,13c-7.2,0-13-5.8-13-13c0-7.2,5.8-35.9,13-35.9
				C1296.1,399.6,1301.9,428.3,1301.9,435.5z"/>
			<path class="st9" d="M1288.9,399.6c-0.3,0-0.7,0.1-1,0.2c3.4,9,5.6,21.5,5.6,26c0,7.2-5.8,13-13,13c-1.5,0-2.9-0.3-4.3-0.7
				c1.2,6,6.5,10.5,12.8,10.5c7.2,0,13-5.8,13-13C1301.9,428.3,1296.1,399.6,1288.9,399.6z"/>
		</g>
	</g>
	<path class="st29" d="M1058.5,490.8c0,0,139.4-33.8,276.8,0v-36c0,0-101.3-24.3-277.5-0.4"/>
	<g>
		<path class="st29" d="M1321.1,467.9c-3.7,2.2-9.8,2.2-13.5,0c-3.7-2.2-3.7-5.7,0-7.8c3.7-2.2,9.8-2.2,13.5,0
			C1324.9,462.2,1324.9,465.7,1321.1,467.9z"/>
		<g>
			<path class="st11" d="M1317.3,463.3c0,1.6-1.3,2.9-2.9,2.9l0,0c-1.6,0-2.9-1.3-2.9-2.9v-16.5c0-1.6,1.3-2.9,2.9-2.9l0,0
				c1.6,0,2.9,1.3,2.9,2.9V463.3z"/>
			<path class="st12" d="M1314.4,456.2c1,0,2-0.1,2.9-0.3v-9.1c0-1.6-1.3-2.9-2.9-2.9c-1.6,0-2.9,1.3-2.9,2.9v9.1
				C1312.4,456.1,1313.4,456.2,1314.4,456.2z"/>
			<path class="st13" d="M1327.4,439.9c0,7.2-5.8,13-13,13c-7.2,0-13-5.8-13-13c0-7.2,5.8-35.9,13-35.9
				C1321.6,404,1327.4,432.7,1327.4,439.9z"/>
			<path class="st9" d="M1314.4,404c-0.3,0-0.7,0.1-1,0.2c3.4,9,5.6,21.5,5.6,26c0,7.2-5.8,13-13,13c-1.5,0-2.9-0.3-4.3-0.7
				c1.2,6,6.5,10.5,12.8,10.5c7.2,0,13-5.8,13-13C1327.4,432.7,1321.6,404,1314.4,404z"/>
		</g>
	</g>
	<g>
		<path class="st29" d="M1112.9,463.5c-3.7,2.2-9.8,2.2-13.5,0c-3.7-2.2-3.7-5.7,0-7.8c3.7-2.2,9.8-2.2,13.5,0
			C1116.7,457.8,1116.7,461.3,1112.9,463.5z"/>
		<g>
			<path class="st11" d="M1109.1,458.9c0,1.6-1.3,2.9-2.9,2.9l0,0c-1.6,0-2.9-1.3-2.9-2.9v-16.5c0-1.6,1.3-2.9,2.9-2.9l0,0
				c1.6,0,2.9,1.3,2.9,2.9V458.9z"/>
			<path class="st12" d="M1106.2,451.9c1,0,2-0.1,2.9-0.3v-9.1c0-1.6-1.3-2.9-2.9-2.9c-1.6,0-2.9,1.3-2.9,2.9v9.1
				C1104.2,451.7,1105.2,451.9,1106.2,451.9z"/>
			<path class="st13" d="M1119.2,435.5c0,7.2-5.8,13-13,13c-7.2,0-13-5.8-13-13c0-7.2,5.8-35.9,13-35.9
				C1113.3,399.6,1119.2,428.3,1119.2,435.5z"/>
			<path class="st9" d="M1106.2,399.6c-0.3,0-0.7,0.1-1,0.2c3.4,9,5.6,21.5,5.6,26c0,7.2-5.8,13-13,13c-1.5,0-2.9-0.3-4.3-0.7
				c1.2,6,6.5,10.5,12.8,10.5c7.2,0,13-5.8,13-13C1119.2,428.3,1113.3,399.6,1106.2,399.6z"/>
		</g>
	</g>
	<path class="st6" d="M1302.4,202.5c16.5,0,30.2,12.2,32.6,28.1c3.5-3.6,8.3-5.8,13.7-5.8c9.2,0,16.9,6.5,18.6,15.2
		c4.1-5.8,10.8-9.6,18.4-9.6c12.5,0,22.6,10.1,22.6,22.5c0,2.3-0.3,4.5-1,6.6c2.2-1.6,4.9-2.6,7.8-2.6c7.2,0,13.1,5.9,13.1,13.1
		c0,7.2-5.9,13.1-13.1,13.1h-147.5c-9.6,0-17.5-7.8-17.5-17.5c0-9.6,7.8-17.5,17.5-17.5c1.6,0,3.1,0.2,4.6,0.6
		c-1.8-4.1-2.8-8.6-2.8-13.3C1269.4,217.3,1284.1,202.5,1302.4,202.5z"/>
	<path class="st6" d="M631.9,408.9c19.5,0,35.6,14.4,38.4,33.1c4.1-4.2,9.8-6.9,16.1-6.9c10.8,0,19.9,7.7,22,17.9
		c4.8-6.8,12.8-11.3,21.7-11.3c14.7,0,26.6,11.9,26.6,26.6c0,2.7-0.4,5.3-1.2,7.8c2.6-1.9,5.8-3.1,9.2-3.1c8.5,0,15.5,6.9,15.5,15.5
		c0,8.5-6.9,15.5-15.5,15.5h-174c-11.4,0-20.6-9.2-20.6-20.6c0-11.4,9.2-20.6,20.6-20.6c1.9,0,3.7,0.3,5.5,0.8
		c-2.1-4.8-3.3-10.1-3.3-15.7C593,426.3,610.4,408.9,631.9,408.9z"/>
	<path class="st6" d="M1318.7,297.8c4.8,0,8.7,3.5,9.4,8.1c1-1,2.4-1.7,3.9-1.7c2.6,0,4.9,1.9,5.4,4.4c1.2-1.7,3.1-2.8,5.3-2.8
		c3.6,0,6.5,2.9,6.5,6.5c0,0.7-0.1,1.3-0.3,1.9c0.6-0.5,1.4-0.8,2.3-0.8c2.1,0,3.8,1.7,3.8,3.8c0,2.1-1.7,3.8-3.8,3.8h-42.5
		c-2.8,0-5-2.3-5-5c0-2.8,2.3-5,5-5c0.5,0,0.9,0.1,1.3,0.2c-0.5-1.2-0.8-2.5-0.8-3.8C1309.2,302.1,1313.5,297.8,1318.7,297.8z"/>
	<path class="st6" d="M537.3,207.6c4.4,0,8.1,3.3,8.8,7.5c0.9-1,2.2-1.6,3.7-1.6c2.5,0,4.5,1.8,5,4.1c1.1-1.6,2.9-2.6,4.9-2.6
		c3.3,0,6.1,2.7,6.1,6.1c0,0.6-0.1,1.2-0.3,1.8c0.6-0.4,1.3-0.7,2.1-0.7c1.9,0,3.5,1.6,3.5,3.5c0,1.9-1.6,3.5-3.5,3.5H528
		c-2.6,0-4.7-2.1-4.7-4.7c0-2.6,2.1-4.7,4.7-4.7c0.4,0,0.8,0.1,1.2,0.2c-0.5-1.1-0.8-2.3-0.8-3.6
		C528.4,211.6,532.4,207.6,537.3,207.6z"/>
	<path class="st6" d="M1094.6,172.5c2.3,0,4.2,1.6,4.7,3.7c1-1.7,2.9-2.9,5.1-2.9c3.3,0,6,2.7,6,6c0,0.2,0,0.4,0,0.5
		c0.2,0,0.3,0,0.5,0c2.7,0,4.9,2.2,4.9,4.9c0,2.7-2.2,4.9-4.9,4.9h-21.9c-2.7,0-4.9-2.2-4.9-4.9c0-2.7,2.2-4.9,4.9-4.9
		c0.6,0,1.2,0.1,1.8,0.3c-0.6-0.8-0.9-1.8-0.9-2.8C1089.7,174.7,1091.9,172.5,1094.6,172.5z"/>
	<g>
		<g>
			<path class="st11" d="M513.8,342c0,0.9-0.8,1.6-1.7,1.6l0,0c-0.9,0-1.6-0.8-1.6-1.7l0.1-9.3c0-0.9,0.8-1.6,1.7-1.6l0,0
				c0.9,0,1.6,0.8,1.6,1.7L513.8,342z"/>
			<path class="st12" d="M512.2,338c0.6,0,1.1-0.1,1.6-0.2l0.1-5.2c0-0.9-0.7-1.7-1.6-1.7c-0.9,0-1.7,0.7-1.7,1.6l-0.1,5.2
				C511.1,337.9,511.6,338,512.2,338z"/>
			
				<ellipse transform="matrix(1.058271e-02 -0.9999 0.9999 1.058271e-02 180.5193 834.3746)" class="st13" cx="511.9" cy="326" rx="10.5" ry="10.5"/>
			<path class="st9" d="M516.2,316.4c0.5,1.3,0.8,2.7,0.8,4.2c-0.1,5.8-4.8,10.4-10.6,10.4c-1.5,0-2.9-0.3-4.2-0.9
				c1.6,3.7,5.2,6.3,9.5,6.4c5.8,0.1,10.5-4.6,10.6-10.4C522.4,321.8,519.9,318.1,516.2,316.4z"/>
		</g>
		
			<ellipse transform="matrix(0.7559 -0.6547 0.6547 0.7559 -86.1829 410.2155)" class="st30" cx="507" cy="320.7" rx="3.3" ry="1.5"/>
	</g>
	<g>
		<path class="st29" d="M1089.8,467.9c-3.7,2.2-9.8,2.2-13.5,0c-3.7-2.2-3.7-5.7,0-7.8c3.7-2.2,9.8-2.2,13.5,0
			C1093.6,462.2,1093.6,465.7,1089.8,467.9z"/>
		<g>
			<path class="st11" d="M1086,463.3c0,1.6-1.3,2.9-2.9,2.9l0,0c-1.6,0-2.9-1.3-2.9-2.9v-16.5c0-1.6,1.3-2.9,2.9-2.9l0,0
				c1.6,0,2.9,1.3,2.9,2.9V463.3z"/>
			<path class="st12" d="M1083.1,456.2c1,0,2-0.1,2.9-0.3v-9.1c0-1.6-1.3-2.9-2.9-2.9c-1.6,0-2.9,1.3-2.9,2.9v9.1
				C1081.1,456.1,1082.1,456.2,1083.1,456.2z"/>
			<path class="st13" d="M1096.1,439.9c0,7.2-5.8,13-13,13c-7.2,0-13-5.8-13-13c0-7.2,5.8-35.9,13-35.9
				C1090.3,404,1096.1,432.7,1096.1,439.9z"/>
			<path class="st9" d="M1083.1,404c-0.3,0-0.7,0.1-1,0.2c3.4,9,5.6,21.5,5.6,26c0,7.2-5.8,13-13,13c-1.5,0-2.9-0.3-4.3-0.7
				c1.2,6,6.5,10.5,12.8,10.5c7.2,0,13-5.8,13-13C1096.1,432.7,1090.3,404,1083.1,404z"/>
		</g>
	</g>
	<g>
		<path class="st31" d="M0,352.9l634.4-0.1c11.5,0,20.7-9.3,20.7-20.8V175.9c0-11.5,9.3-20.8,20.7-20.8h354.2
			c11.5,0,20.7,9.3,20.7,20.8v353.9c0,11.5,9.3,20.8,20.7,20.8h21.1h208.7h23.2c11.5,0,20.7-9.3,20.7-20.8V373.5
			c0-11.5,9.3-20.8,20.7-20.8h634"/>
	</g>
	<g>
		<path class="st32" d="M1274.3,474.2c0,11.5-9.3,20.8-20.7,20.8h-111.4c-11.5,0-20.7-9.3-20.7-20.8V226.6
			c0-11.5,9.3-20.8,20.7-20.8h111.4c11.5,0,20.7,9.3,20.7,20.8V474.2z"/>
		<g class="st33">
			<path class="st34" d="M1253,205.9h-9.3c2.2,3.3,3.5,7.2,3.5,11.5v172c0,11.5-25.9,105.7-25.9,105.7h31.7
				c11.5,0,20.7-9.3,20.7-20.8V226.6C1273.7,215.2,1264.4,205.9,1253,205.9z"/>
		</g>
		<polygon class="st35" points="1254.4,246 1251.1,246 1244.7,246 1237.5,246 1231.5,246 1231.1,246 1223.1,246 1202.8,246 
			1195.8,246 1188.6,246 1181.9,246 1171.8,246 1165.5,246 1145.7,246 1145,246 1138.7,246 1135.1,246 1135.1,274.7 1135.1,274.6 
			1135.1,282.4 1135.1,282.4 1135.1,303.6 1135.1,303.6 1135.1,329.4 1135.1,329.4 1135.1,335.7 1135.1,335.7 1135.1,399.6 
			1135.1,399.6 1135.1,405.4 1135.1,405.4 1135.1,435 1135.1,435 1135.1,442.7 1135.1,442.7 1135.1,461.9 1135.6,461.9 1142,461.9 
			1156.4,461.9 1164.6,461.9 1164.6,461.9 1165.5,461.9 1170.8,461.9 1171.8,461.9 1178,461.9 1178.9,461.9 1184.4,461.9 
			1203.5,461.9 1203.8,461.9 1210.7,461.9 1227.6,461.9 1234.6,461.9 1236.2,461.9 1244.5,461.9 1260.6,461.9 1260.6,444.3 
			1260.6,432.5 1260.6,429.7 1260.6,426.1 1260.6,419.2 1260.6,416.1 1260.6,408.3 1260.6,335.7 1260.6,329.4 1260.6,312.6 
			1260.6,303.6 1260.6,265.5 1260.6,258.4 1260.6,246 		"/>
		<polygon class="st36" points="1135.1,242.8 1135.1,243 1135.1,243 1135.1,244.3 1135.1,245.9 1135.1,245.9 1135.1,246.3 
			1135.1,246.3 1135.1,250.3 1135.1,250.3 1135.1,250.7 1135.1,250.7 1135.1,252.5 1135.1,252.5 1135.1,253 1135.1,253 
			1135.1,254.4 1135.1,254.6 1260.6,254.6 1260.6,242.8 		"/>
		<circle class="st37" cx="1197.9" cy="478.4" r="9.9"/>
		<g>
			<path class="st38" d="M1249.3,247h6.4c0.3,0,0.5,0.2,0.5,0.5v2.1c0,0.3-0.2,0.5-0.5,0.5h-6.4c-0.3,0-0.5-0.2-0.5-0.5v-2.1
				C1248.8,247.2,1249.1,247,1249.3,247z"/>
			<path class="st38" d="M1249.5,247.3h6.1c0.2,0,0.3,0.1,0.3,0.3v1.8c0,0.2-0.1,0.3-0.3,0.3h-6.1c-0.2,0-0.3-0.1-0.3-0.3v-1.8
				C1249.2,247.5,1249.3,247.3,1249.5,247.3z"/>
			<path class="st38" d="M1256.4,248c0.3,0,0.5,0.3,0.5,0.6c0,0.3-0.2,0.6-0.5,0.6V248z"/>
			<path class="st39" d="M1239.6,249.6v-2.5h-0.4l-0.9,0.7l0.2,0.2c0,0,0,0,0,0c0,0,0,0,0.1,0c0,0,0,0,0.1,0c0,0,0,0,0.1,0l0.4-0.3
				c0,0.1,0,0.1,0,0.2v1.7h-0.6v0.4h1.6v-0.4H1239.6z"/>
			<path class="st39" d="M1242.3,247.9c-0.1-0.2-0.1-0.3-0.2-0.5c-0.1-0.1-0.2-0.2-0.3-0.3c-0.1-0.1-0.3-0.1-0.4-0.1
				c-0.1,0-0.3,0-0.4,0.1c-0.1,0.1-0.2,0.1-0.3,0.3c-0.1,0.1-0.2,0.3-0.2,0.5c-0.1,0.2-0.1,0.4-0.1,0.6c0,0.2,0,0.5,0.1,0.6
				c0.1,0.2,0.1,0.3,0.2,0.5c0.1,0.1,0.2,0.2,0.3,0.3c0.1,0.1,0.3,0.1,0.4,0.1c0.1,0,0.3,0,0.4-0.1c0.1-0.1,0.2-0.1,0.3-0.3
				c0.1-0.1,0.2-0.3,0.2-0.5c0.1-0.2,0.1-0.4,0.1-0.6C1242.4,248.3,1242.4,248.1,1242.3,247.9z M1241.9,249.1c0,0.1-0.1,0.2-0.1,0.3
				c0,0.1-0.1,0.1-0.2,0.2c-0.1,0-0.1,0-0.2,0c-0.1,0-0.1,0-0.2,0c-0.1,0-0.1-0.1-0.2-0.2c-0.1-0.1-0.1-0.2-0.1-0.3
				c0-0.1,0-0.3,0-0.5c0-0.2,0-0.4,0-0.5c0-0.1,0.1-0.2,0.1-0.3c0-0.1,0.1-0.1,0.2-0.2c0.1,0,0.1,0,0.2,0c0.1,0,0.1,0,0.2,0
				c0.1,0,0.1,0.1,0.2,0.2c0.1,0.1,0.1,0.2,0.1,0.3c0,0.1,0,0.3,0,0.5C1241.9,248.8,1241.9,249,1241.9,249.1z"/>
			<path class="st39" d="M1244.5,247.9c-0.1-0.2-0.1-0.3-0.2-0.5c-0.1-0.1-0.2-0.2-0.3-0.3c-0.1-0.1-0.3-0.1-0.4-0.1
				c-0.1,0-0.3,0-0.4,0.1c-0.1,0.1-0.2,0.1-0.3,0.3c-0.1,0.1-0.2,0.3-0.2,0.5c-0.1,0.2-0.1,0.4-0.1,0.6c0,0.2,0,0.5,0.1,0.6
				c0.1,0.2,0.1,0.3,0.2,0.5c0.1,0.1,0.2,0.2,0.3,0.3c0.1,0.1,0.3,0.1,0.4,0.1c0.1,0,0.3,0,0.4-0.1c0.1-0.1,0.2-0.1,0.3-0.3
				c0.1-0.1,0.2-0.3,0.2-0.5c0.1-0.2,0.1-0.4,0.1-0.6C1244.6,248.3,1244.6,248.1,1244.5,247.9z M1244.1,249.1c0,0.1-0.1,0.2-0.1,0.3
				c-0.1,0.1-0.1,0.1-0.2,0.2c-0.1,0-0.1,0-0.2,0c-0.1,0-0.1,0-0.2,0c-0.1,0-0.1-0.1-0.2-0.2c-0.1-0.1-0.1-0.2-0.1-0.3
				c0-0.1,0-0.3,0-0.5c0-0.2,0-0.4,0-0.5c0-0.1,0.1-0.2,0.1-0.3c0-0.1,0.1-0.1,0.2-0.2c0.1,0,0.1,0,0.2,0c0.1,0,0.1,0,0.2,0
				c0.1,0,0.1,0.1,0.2,0.2c0.1,0.1,0.1,0.2,0.1,0.3c0,0.1,0,0.3,0,0.5C1244.1,248.8,1244.1,249,1244.1,249.1z"/>
			<path class="st39" d="M1246.1,247.5c0-0.1-0.1-0.2-0.1-0.2c-0.1-0.1-0.1-0.1-0.2-0.1c-0.1,0-0.2-0.1-0.3-0.1
				c-0.1,0-0.2,0-0.3,0.1c-0.1,0-0.1,0.1-0.2,0.1c-0.1,0.1-0.1,0.1-0.1,0.2c0,0.1,0,0.2,0,0.3c0,0.1,0,0.2,0,0.3
				c0,0.1,0.1,0.2,0.1,0.2c0.1,0.1,0.1,0.1,0.2,0.1c0.1,0,0.2,0,0.3,0c0.1,0,0.2,0,0.2,0c0.1,0,0.2-0.1,0.2-0.1
				c0.1-0.1,0.1-0.1,0.1-0.2c0-0.1,0.1-0.2,0.1-0.3C1246.1,247.7,1246.1,247.6,1246.1,247.5z M1245.7,248c0,0,0,0.1-0.1,0.1
				c0,0-0.1,0.1-0.1,0.1c0,0-0.1,0-0.1,0c0,0-0.1,0-0.1,0c0,0-0.1,0-0.1-0.1c0,0,0-0.1-0.1-0.1c0,0,0-0.1,0-0.2c0-0.1,0-0.1,0-0.2
				c0-0.1,0-0.1,0.1-0.1c0,0,0.1-0.1,0.1-0.1c0,0,0.1,0,0.1,0c0,0,0.1,0,0.1,0c0,0,0.1,0,0.1,0.1c0,0,0,0.1,0.1,0.1
				c0,0.1,0,0.1,0,0.2C1245.7,247.9,1245.7,248,1245.7,248z M1244.9,250h0.4c0,0,0.1,0,0.1,0c0,0,0,0,0.1-0.1l2.1-2.8h-0.4
				c0,0-0.1,0-0.1,0c0,0,0,0-0.1,0.1L1244.9,250z M1247.7,249c0-0.1-0.1-0.2-0.1-0.2c-0.1-0.1-0.1-0.1-0.2-0.1
				c-0.1,0-0.2-0.1-0.3-0.1c-0.1,0-0.2,0-0.3,0.1c-0.1,0-0.1,0.1-0.2,0.1c-0.1,0.1-0.1,0.1-0.1,0.2c0,0.1-0.1,0.2-0.1,0.3
				c0,0.1,0,0.2,0.1,0.3c0,0.1,0.1,0.2,0.1,0.2c0.1,0.1,0.1,0.1,0.2,0.1c0.1,0,0.2,0.1,0.3,0.1c0.1,0,0.2,0,0.2-0.1
				c0.1,0,0.2-0.1,0.2-0.1c0.1-0.1,0.1-0.1,0.1-0.2c0-0.1,0.1-0.2,0.1-0.3C1247.7,249.2,1247.7,249.1,1247.7,249z M1247.3,249.5
				c0,0,0,0.1-0.1,0.1c0,0-0.1,0.1-0.1,0.1c0,0-0.1,0-0.1,0s-0.1,0-0.1,0c0,0-0.1,0-0.1-0.1c0,0,0-0.1-0.1-0.1c0-0.1,0-0.1,0-0.2
				c0-0.1,0-0.1,0-0.2c0-0.1,0-0.1,0.1-0.1c0,0,0.1-0.1,0.1-0.1c0,0,0.1,0,0.1,0s0.1,0,0.1,0c0,0,0.1,0,0.1,0.1c0,0,0,0.1,0.1,0.1
				c0,0.1,0,0.1,0,0.2C1247.3,249.4,1247.3,249.5,1247.3,249.5z"/>
			<path class="st39" d="M1190.6,248.9l0.9-1.3c0,0.1,0,0.2,0,0.3v1H1190.6z M1191.9,248.9V247h-0.5l-1.4,1.9l0.1,0.3
				c0,0,0,0.1,0,0.1c0,0,0.1,0,0.1,0h1.2v0.7h0.4v-0.7h0.3c0,0,0.1,0,0.1,0c0,0,0,0,0-0.1v-0.3H1191.9z"/>
			<path class="st39" d="M1192.6,249.5C1192.6,249.6,1192.6,249.6,1192.6,249.5c0.1,0.1,0.1,0.1,0.2,0.2c0,0,0.1,0,0.1,0
				c0,0,0.1,0,0.1,0c0,0,0.1,0,0.1-0.1c0,0,0.1-0.1,0.1-0.1c0,0,0-0.1,0-0.1c0,0,0-0.1,0-0.1c0,0,0-0.1-0.1-0.1c0,0-0.1,0-0.1-0.1
				c0,0-0.1,0-0.1,0c0,0-0.1,0-0.1,0c0,0-0.1,0-0.1,0.1c0,0,0,0.1-0.1,0.1c0,0,0,0.1,0,0.1C1192.5,249.4,1192.5,249.5,1192.6,249.5z
				 M1192.6,248.1C1192.6,248.1,1192.6,248.1,1192.6,248.1c0.1,0.1,0.1,0.1,0.2,0.2c0,0,0.1,0,0.1,0c0,0,0.1,0,0.1,0
				c0,0,0.1,0,0.1-0.1c0,0,0.1-0.1,0.1-0.1c0,0,0-0.1,0-0.1c0,0,0-0.1,0-0.1s0-0.1-0.1-0.1c0,0-0.1,0-0.1-0.1c0,0-0.1,0-0.1,0
				c0,0-0.1,0-0.1,0c0,0-0.1,0-0.1,0.1c0,0,0,0.1-0.1,0.1c0,0,0,0.1,0,0.1C1192.5,248,1192.5,248,1192.6,248.1z"/>
			<path class="st39" d="M1195,249.5c-0.1,0-0.1,0-0.2,0c-0.1,0-0.1,0-0.2,0l0.7-0.7c0.1-0.1,0.2-0.2,0.2-0.2
				c0.1-0.1,0.1-0.2,0.2-0.2c0.1-0.1,0.1-0.2,0.1-0.3c0-0.1,0-0.2,0-0.3c0-0.1,0-0.2-0.1-0.3c0-0.1-0.1-0.2-0.2-0.3
				c-0.1-0.1-0.2-0.1-0.3-0.2c-0.1,0-0.2-0.1-0.4-0.1c-0.1,0-0.3,0-0.4,0.1c-0.1,0-0.2,0.1-0.3,0.2c-0.1,0.1-0.2,0.2-0.2,0.3
				c-0.1,0.1-0.1,0.2-0.1,0.4l0.3,0c0.1,0,0.1,0,0.2,0c0,0,0.1-0.1,0.1-0.1c0,0,0-0.1,0.1-0.1c0,0,0.1-0.1,0.1-0.1
				c0,0,0.1-0.1,0.1-0.1c0.1,0,0.1,0,0.2,0c0.1,0,0.1,0,0.2,0c0.1,0,0.1,0,0.1,0.1c0,0,0.1,0.1,0.1,0.1c0,0.1,0,0.1,0,0.2
				c0,0.1,0,0.2,0,0.2c0,0.1-0.1,0.1-0.1,0.2c0,0.1-0.1,0.1-0.1,0.2c-0.1,0.1-0.1,0.1-0.2,0.2l-0.9,0.9c0,0-0.1,0.1-0.1,0.1
				c0,0,0,0.1,0,0.1v0.2h2v-0.3c0-0.1,0-0.1,0-0.1c0,0-0.1,0-0.1,0H1195z"/>
			<path class="st39" d="M1197.7,249.6V247h-0.4l-0.9,0.8l0.2,0.2c0,0,0,0,0,0c0,0,0,0,0.1,0c0,0,0,0,0.1,0c0,0,0,0,0.1,0l0.4-0.4
				c0,0.1,0,0.1,0,0.2v1.7h-0.6v0.4h1.6v-0.4H1197.7z"/>
			<path class="st39" d="M1200.4,248.5v-1.1h0.4c0.1,0,0.2,0,0.3,0c0.1,0,0.1,0.1,0.2,0.1c0,0,0.1,0.1,0.1,0.2c0,0.1,0,0.1,0,0.2
				c0,0.1,0,0.2,0,0.2c0,0.1-0.1,0.1-0.1,0.2c-0.1,0-0.1,0.1-0.2,0.1c-0.1,0-0.2,0-0.3,0H1200.4z M1199.9,247v3h0.6v-1h0.4
				c0.2,0,0.4,0,0.5-0.1c0.1,0,0.3-0.1,0.4-0.2c0.1-0.1,0.2-0.2,0.2-0.3c0-0.1,0.1-0.3,0.1-0.4c0-0.1,0-0.3-0.1-0.4
				c0-0.1-0.1-0.2-0.2-0.3c-0.1-0.1-0.2-0.1-0.4-0.2c-0.1,0-0.3-0.1-0.5-0.1H1199.9z"/>
			<path class="st39" d="M1205.1,247C1205.1,247,1205.1,247,1205.1,247c-0.1,0-0.1,0-0.1,0c0,0,0,0,0,0c0,0,0,0,0,0l-0.9,1.6
				c0,0,0,0.1-0.1,0.1c0,0,0,0.1-0.1,0.1c0,0,0-0.1-0.1-0.1c0,0,0-0.1-0.1-0.1l-0.9-1.6c0,0,0,0,0,0c0,0,0,0,0,0c0,0,0,0,0,0
				c0,0,0,0-0.1,0h-0.4v3h0.5v-1.9c0,0,0-0.1,0-0.1c0,0,0-0.1,0-0.1l0.9,1.7c0,0.1,0.1,0.1,0.2,0.1h0.1c0.1,0,0.2,0,0.2-0.1l0.9-1.7
				c0,0.1,0,0.2,0,0.2v1.9h0.5v-3H1205.1z"/>
			<path class="st39" d="M1152.8,247.6v-0.4h-1.8v2.8h1.8v-0.4h-1.3v-0.8h1v-0.4h-1v-0.8H1152.8z"/>
			<path class="st39" d="M1155.1,248h-1.4v-0.6h-0.3c0,0-0.1,0-0.1,0c0,0,0,0,0,0.1l-0.1,0.5l-0.3,0.1v0.2c0,0,0,0.1,0,0.1
				c0,0,0,0,0.1,0h0.2v1.1c0,0.2,0,0.3,0.1,0.4c0.1,0.1,0.2,0.1,0.4,0.1c0.1,0,0.2,0,0.3,0c0.1,0,0.2-0.1,0.2-0.1l-0.1-0.2
				c0,0,0,0,0,0c0,0,0,0,0,0c0,0,0,0,0,0c0,0,0,0,0,0c0,0,0,0-0.1,0c0,0,0,0-0.1,0c-0.1,0-0.1,0-0.1-0.1c0,0,0-0.1,0-0.1v-1.1h0.9
				v1.7h0.5V248z M1155.1,247.3C1155.1,247.2,1155.1,247.2,1155.1,247.3c-0.1-0.1-0.1-0.1-0.2-0.2c0,0-0.1,0-0.1,0c0,0-0.1,0-0.1,0
				c0,0-0.1,0-0.1,0.1c0,0,0,0.1-0.1,0.1c0,0,0,0.1,0,0.1c0,0,0,0.1,0,0.1c0,0,0,0.1,0.1,0.1c0,0,0.1,0.1,0.1,0.1c0,0,0.1,0,0.1,0
				c0,0,0.1,0,0.1,0c0,0,0.1,0,0.1-0.1c0,0,0.1-0.1,0.1-0.1c0,0,0-0.1,0-0.1C1155.2,247.3,1155.2,247.3,1155.1,247.3z"/>
			<path class="st39" d="M1156.8,248.2c-0.1-0.1-0.2-0.1-0.3-0.2c-0.1,0-0.2-0.1-0.4-0.1c-0.1,0-0.2,0-0.3,0.1
				c-0.1,0-0.2,0.1-0.2,0.1c-0.1,0.1-0.1,0.1-0.1,0.2c0,0.1,0,0.2,0,0.2c0,0.1,0,0.2,0,0.2c0,0.1,0.1,0.1,0.1,0.2
				c0,0,0.1,0.1,0.2,0.1c0.1,0,0.1,0.1,0.2,0.1c0.1,0,0.1,0,0.2,0.1c0.1,0,0.1,0,0.2,0.1c0,0,0.1,0,0.1,0.1c0,0,0,0.1,0,0.1
				c0,0,0,0.1,0,0.1c0,0,0,0.1-0.1,0.1c0,0-0.1,0-0.1,0.1c0,0-0.1,0-0.1,0c-0.1,0-0.1,0-0.2,0c0,0-0.1,0-0.1-0.1c0,0-0.1,0-0.1-0.1
				c0,0-0.1,0-0.1,0c0,0-0.1,0-0.1,0c0,0,0,0-0.1,0.1l-0.1,0.2c0,0,0.1,0.1,0.1,0.1c0.1,0,0.1,0.1,0.2,0.1c0.1,0,0.1,0,0.2,0.1
				c0.1,0,0.1,0,0.2,0c0.1,0,0.2,0,0.3-0.1c0.1,0,0.2-0.1,0.3-0.1c0.1-0.1,0.1-0.1,0.2-0.2c0-0.1,0.1-0.2,0.1-0.3c0-0.1,0-0.2,0-0.2
				c0-0.1-0.1-0.1-0.1-0.1s-0.1-0.1-0.2-0.1c-0.1,0-0.1-0.1-0.2-0.1c-0.1,0-0.1,0-0.2-0.1c-0.1,0-0.1,0-0.2-0.1c0,0-0.1,0-0.1-0.1
				c0,0,0-0.1,0-0.1c0-0.1,0-0.1,0.1-0.2s0.1-0.1,0.2-0.1c0.1,0,0.1,0,0.2,0c0,0,0.1,0,0.1,0c0,0,0.1,0,0.1,0c0,0,0.1,0,0.1,0
				c0,0,0,0,0.1,0c0,0,0,0,0,0L1156.8,248.2z"/>
			<path class="st39" d="M1158.2,249.5c-0.1,0.1-0.1,0.1-0.2,0.2c-0.1,0-0.2,0.1-0.3,0.1c-0.1,0-0.1,0-0.2-0.1c0,0-0.1-0.1-0.1-0.2
				c0,0,0-0.1,0-0.1c0,0,0.1-0.1,0.1-0.1c0.1,0,0.1-0.1,0.2-0.1c0.1,0,0.2,0,0.4,0V249.5z M1157.2,248.4
				C1157.2,248.4,1157.2,248.5,1157.2,248.4c0.1,0.1,0.1,0.1,0.1,0.1c0,0,0.1,0,0.1,0c0,0,0.1,0,0.1-0.1c0,0,0.1,0,0.1-0.1
				c0.1,0,0.1,0,0.2,0c0.1,0,0.2,0,0.2,0.1c0.1,0.1,0.1,0.2,0.1,0.3v0.1c-0.2,0-0.3,0-0.4,0c-0.1,0-0.2,0-0.3,0.1
				c-0.1,0-0.2,0.1-0.2,0.1c-0.1,0-0.1,0.1-0.2,0.1c0,0-0.1,0.1-0.1,0.1c0,0,0,0.1,0,0.2c0,0.1,0,0.2,0,0.2c0,0.1,0.1,0.1,0.1,0.2
				c0.1,0,0.1,0.1,0.2,0.1c0.1,0,0.2,0,0.2,0c0.1,0,0.1,0,0.2,0c0.1,0,0.1,0,0.2-0.1c0.1,0,0.1-0.1,0.2-0.1c0,0,0.1-0.1,0.1-0.1
				l0,0.1c0,0,0,0.1,0.1,0.1c0,0,0.1,0,0.1,0h0.2v-1.3c0-0.1,0-0.2-0.1-0.3c0-0.1-0.1-0.2-0.1-0.2c-0.1-0.1-0.1-0.1-0.2-0.2
				c-0.1,0-0.2-0.1-0.3-0.1c-0.3,0-0.6,0.1-0.8,0.3L1157.2,248.4z"/>
			<path class="st39" d="M1159.1,247.1v2.9h0.5v-2.9H1159.1z"/>
			<path class="st39" d="M1161,249.5c-0.1,0.1-0.1,0.1-0.2,0.2c-0.1,0-0.2,0.1-0.3,0.1c-0.1,0-0.1,0-0.2-0.1c-0.1,0-0.1-0.1-0.1-0.2
				c0,0,0-0.1,0-0.1c0,0,0.1-0.1,0.1-0.1c0.1,0,0.1-0.1,0.2-0.1c0.1,0,0.2,0,0.4,0V249.5z M1160,248.4
				C1160,248.4,1160,248.5,1160,248.4c0.1,0.1,0.1,0.1,0.1,0.1c0,0,0.1,0,0.1,0c0,0,0.1,0,0.1-0.1c0,0,0.1,0,0.1-0.1
				c0.1,0,0.1,0,0.2,0c0.1,0,0.2,0,0.2,0.1c0.1,0.1,0.1,0.2,0.1,0.3v0.1c-0.2,0-0.3,0-0.4,0c-0.1,0-0.2,0-0.3,0.1
				c-0.1,0-0.2,0.1-0.2,0.1c-0.1,0-0.1,0.1-0.2,0.1c0,0-0.1,0.1-0.1,0.1c0,0,0,0.1,0,0.2c0,0.1,0,0.2,0,0.2c0,0.1,0.1,0.1,0.1,0.2
				c0.1,0,0.1,0.1,0.2,0.1c0.1,0,0.2,0,0.2,0c0.1,0,0.1,0,0.2,0c0.1,0,0.1,0,0.2-0.1c0.1,0,0.1-0.1,0.2-0.1c0,0,0.1-0.1,0.1-0.1
				l0,0.1c0,0,0,0.1,0.1,0.1c0,0,0.1,0,0.1,0h0.2v-1.3c0-0.1,0-0.2-0.1-0.3c0-0.1-0.1-0.2-0.1-0.2c-0.1-0.1-0.1-0.1-0.2-0.2
				c-0.1,0-0.2-0.1-0.3-0.1c-0.3,0-0.6,0.1-0.8,0.3L1160,248.4z"/>
			<path class="st39" d="M1162.8,250c0.1,0,0.2-0.1,0.2-0.1l-0.1-0.2c0,0,0,0,0,0c0,0,0,0,0,0c0,0,0,0,0,0c0,0,0,0,0,0
				c0,0,0,0-0.1,0c0,0,0,0-0.1,0c-0.1,0-0.1,0-0.1-0.1c0,0,0-0.1,0-0.1v-1.1h0.5V248h-0.5v-0.6h-0.3c0,0-0.1,0-0.1,0c0,0,0,0,0,0.1
				l-0.1,0.6l-0.3,0.1v0.2c0,0,0,0.1,0,0.1c0,0,0,0,0.1,0h0.2v1.1c0,0.2,0,0.3,0.1,0.4c0.1,0.1,0.2,0.1,0.4,0.1
				C1162.6,250,1162.7,250,1162.8,250z"/>
			<path class="st38" d="M1139.8,247.7c0.5,0,0.9,0.4,0.9,0.9c0,0.5-0.4,0.9-0.9,0.9c-0.5,0-0.9-0.4-0.9-0.9
				C1138.9,248.1,1139.3,247.7,1139.8,247.7z"/>
			<path class="st38" d="M1142.1,247.7c0.5,0,0.9,0.4,0.9,0.9c0,0.5-0.4,0.9-0.9,0.9c-0.5,0-0.9-0.4-0.9-0.9
				C1141.2,248.1,1141.6,247.7,1142.1,247.7z"/>
			<path class="st38" d="M1144.4,247.7c0.5,0,0.9,0.4,0.9,0.9c0,0.5-0.4,0.9-0.9,0.9s-0.9-0.4-0.9-0.9
				C1143.5,248.1,1143.9,247.7,1144.4,247.7z"/>
			<path class="st38" d="M1146.7,247.7c0.5,0,0.9,0.4,0.9,0.9c0,0.5-0.4,0.9-0.9,0.9c-0.5,0-0.9-0.4-0.9-0.9
				C1145.8,248.1,1146.2,247.7,1146.7,247.7z"/>
			<path class="st38" d="M1148.9,247.7c0.5,0,0.9,0.4,0.9,0.9c0,0.5-0.4,0.9-0.9,0.9s-0.9-0.4-0.9-0.9
				C1148,248.1,1148.5,247.7,1148.9,247.7z"/>
		</g>
		<path class="st40" d="M1159.6,224.9c0,2.6,2.1,4.8,4.8,4.8h66.6c2.6,0,4.8-2.1,4.8-4.8l0,0c0-2.6-2.1-4.8-4.8-4.8h-66.6
			C1161.8,220.1,1159.6,222.3,1159.6,224.9L1159.6,224.9z"/>
		<g>
			<circle class="st41" cx="1248.2" cy="224.7" r="5.2"/>
			<circle class="st42" cx="1248.2" cy="224.7" r="4.2"/>
			<circle class="st41" cx="1248.2" cy="224.7" r="3.6"/>
			<circle class="st37" cx="1249.5" cy="226.6" r="1.3"/>
			<circle class="st37" cx="1246.8" cy="223.3" r="1"/>
		</g>
		<circle class="st37" cx="1248.2" cy="224.7" r="2.4"/>
		<g>
			<path class="st39" d="M1189,296.3c0,0,1-5.3,4.6-7.2c0,0-3.2-1.1-4.6-1.1c-7.3,0-13.3,6-13.3,13.5v14c0,7.4,6,13.5,13.3,13.5
				c7.3,0,13.3-6,13.3-13.5V312h-8.9v4c0,2.4-2,4.4-4.4,4.4c-2.4,0-4.4-2-4.4-4.4v-15.2C1184.6,298.3,1186.6,296.3,1189,296.3z"/>
			<path class="st39" d="M1206.7,288.1c-7.3,0-13.3,6-13.3,13.5v0.7v2.7l8.9,0v-3.4v0v-0.8c0-2.4,2-4.4,4.4-4.4c2.4,0,4.4,2,4.4,4.4
				v13.9l-0.1-0.2v4c0,7.9-6,14.4-13.7,15c-9.2,0-21.8,0-21.8,0v8.7l0,0c0,0,27.9,0,31,0c7.3,0,13.3-6,13.3-13.5v-27.1
				C1220,294.1,1214.1,288.1,1206.7,288.1z"/>
		</g>
		<g>
			<g>
				<path class="st39" d="M1167.3,412.6c0,1.8,1.4,3.2,3.2,3.2h54.8c1.8,0,3.2-1.4,3.2-3.2l0,0c0-1.8-1.4-3.2-3.2-3.2h-54.8
					C1168.7,409.4,1167.3,410.8,1167.3,412.6L1167.3,412.6z"/>
				<path class="st43" d="M1167.3,412.6c0,1.8,1.4,3.2,3.2,3.2h28.5c1.8,0,3.2-1.4,3.2-3.2l0,0c0-1.8-1.4-3.2-3.2-3.2h-28.5
					C1168.7,409.4,1167.3,410.8,1167.3,412.6L1167.3,412.6z"/>
			</g>
			<text transform="matrix(1 0 0 1 1172.6277 427.5172)" class="st39 st44 st45">Downloading</text>
			<rect x="1190" y="364.8" class="st39" width="15.8" height="25.4"/>
			<polygon class="st39" points="1180.8,385.2 1197.9,402.3 1214.9,385.2 			"/>
		</g>
	</g>
	<g>
		<path class="st29" d="M1274.1,512.8c-3.2,1.8-8.4,1.8-11.5-0.1c-3.2-1.9-3.1-4.9,0.1-6.7c3.2-1.8,8.4-1.8,11.5,0.1
			C1277.3,508,1277.3,511,1274.1,512.8z"/>
		<path class="st11" d="M1270.8,508.9c0,1.4-1.1,2.5-2.5,2.5l0,0c-1.4,0-2.5-1.1-2.5-2.5l0.2-14.1c0-1.4,1.1-2.5,2.5-2.5l0,0
			c1.4,0,2.5,1.1,2.5,2.5L1270.8,508.9z"/>
		<path class="st12" d="M1268.4,502.8c0.9,0,1.7-0.1,2.5-0.3l0.1-7.8c0-1.4-1.1-2.5-2.5-2.5c-1.4,0-2.5,1.1-2.5,2.5l-0.1,7.8
			C1266.7,502.7,1267.5,502.8,1268.4,502.8z"/>
		
			<ellipse transform="matrix(1.061356e-02 -0.9999 0.9999 1.061356e-02 769.7615 1747.4453)" class="st13" cx="1267.9" cy="484.7" rx="15.8" ry="15.8"/>
		<path class="st9" d="M1274.4,470.3c0.8,1.9,1.3,4.1,1.3,6.3c-0.1,8.7-7.2,15.7-16,15.6c-2.3,0-4.4-0.5-6.3-1.4
			c2.4,5.6,7.9,9.6,14.4,9.6c8.7,0.1,15.9-6.9,16-15.6C1283.8,478.4,1280,472.8,1274.4,470.3z"/>
	</g>
	<g>
		<path class="st29" d="M1129.4,512.8c-3.2,1.8-8.4,1.8-11.5-0.1c-3.2-1.9-3.1-4.9,0.1-6.7c3.2-1.8,8.4-1.8,11.5,0.1
			C1132.7,508,1132.6,511,1129.4,512.8z"/>
		<path class="st11" d="M1126.2,508.9c0,1.4-1.1,2.5-2.5,2.5l0,0c-1.4,0-2.5-1.1-2.5-2.5l0.2-14.1c0-1.4,1.1-2.5,2.5-2.5l0,0
			c1.4,0,2.5,1.1,2.5,2.5L1126.2,508.9z"/>
		<path class="st12" d="M1123.8,502.8c0.9,0,1.7-0.1,2.5-0.3l0.1-7.8c0-1.4-1.1-2.5-2.5-2.5c-1.4,0-2.5,1.1-2.5,2.5l-0.1,7.8
			C1122.1,502.7,1122.9,502.8,1123.8,502.8z"/>
		
			<ellipse transform="matrix(1.061353e-02 -0.9999 0.9999 1.061353e-02 626.666 1602.823)" class="st13" cx="1123.3" cy="484.7" rx="15.8" ry="15.8"/>
		<path class="st9" d="M1129.8,470.3c0.8,1.9,1.3,4.1,1.3,6.3c-0.1,8.7-7.2,15.7-16,15.6c-2.3,0-4.4-0.5-6.3-1.4
			c2.4,5.6,7.9,9.6,14.4,9.6c8.7,0.1,15.9-6.9,16-15.6C1139.2,478.4,1135.3,472.8,1129.8,470.3z"/>
	</g>
	
		<ellipse transform="matrix(0.7559 -0.6547 0.6547 0.7559 -100.9722 370.5576)" class="st30" cx="446.4" cy="320.7" rx="3.3" ry="1.5"/>
	
		<ellipse transform="matrix(0.2575 -0.9663 0.9663 0.2575 137.1368 792.9294)" class="st30" cx="584.5" cy="307.2" rx="7.2" ry="1.5"/>
	
		<ellipse transform="matrix(0.7559 -0.6547 0.6547 0.7559 -40.0433 846.4744)" class="st30" cx="1115" cy="476.9" rx="4.5" ry="2.1"/>
	
		<ellipse transform="matrix(0.7559 -0.6547 0.6547 0.7559 -4.6033 941.5161)" class="st30" cx="1260.2" cy="476.9" rx="4.5" ry="2.1"/>
	
		<ellipse transform="matrix(0.2325 -0.9726 0.9726 0.2325 413.2778 1373.4312)" class="st30" cx="1076.9" cy="424.8" rx="9.1" ry="1.9"/>
	
		<ellipse transform="matrix(0.2325 -0.9726 0.9726 0.2325 574.8765 1570.4938)" class="st30" cx="1282.6" cy="421" rx="9.1" ry="1.9"/>
	
		<ellipse transform="matrix(0.2325 -0.9726 0.9726 0.2325 591.3966 1598.6655)" class="st30" cx="1308.7" cy="424.6" rx="9.1" ry="1.9"/>
	
		<ellipse transform="matrix(0.2624 -0.965 0.965 0.2624 407.3096 1371.1987)" class="st30" cx="1100.6" cy="419.2" rx="9.1" ry="1.9"/>
	<path class="st46" d="M666.1,239.8v7.3c0,0-9.6,14.5-22,14.1v-8.4L666.1,239.8z"/>
	<g>
		<path class="st47" d="M869.4,148.9h50.1v-1.1c0,0,1.5-9.3-8.5-13.7c0,0-6.9-3.6-17.1-3.6h-23.4c0,0-3.6,0.4-3.2,3.6
			c0,0-4.6,3-5,14.8H869.4z"/>
		<g>
			<path class="st48" d="M874,140.7c-4.5,0-8.2,3.7-8.2,8.2h3.6h12.8C882.2,144.4,878.5,140.7,874,140.7z"/>
		</g>
		<circle class="st49" cx="874" cy="148.9" r="6.2"/>
		<circle class="st50" cx="874" cy="148.9" r="3.4"/>
		<g>
			<path class="st48" d="M903.1,140.7c-4.5,0-8.2,3.7-8.2,8.2h3.6h12.8C911.3,144.4,907.6,140.7,903.1,140.7z"/>
		</g>
		<circle class="st49" cx="903.1" cy="148.9" r="6.2"/>
		<circle class="st50" cx="903.1" cy="148.9" r="3.4"/>
		<path class="st47" d="M870.6,132.1l2.1-13.1c0,0-0.7-1.6,3.9-1.6c4.6,0,15.6,0,15.6,0s11.7-0.4,14.6,16.7L870.6,132.1z"/>
		<path class="st51" d="M874,130l1.2-8.8c0,0-0.3-1.4,2.1-1.4h8.8V130H874z"/>
		<path class="st51" d="M888.7,119.9V130h5.3c0,0,5.2,0,9,0.9C903.1,130.9,901.8,119.9,888.7,119.9z"/>
		<g>
			<g>
				<g>
					<path class="st48" d="M898.3,134.8c-6.9-1.9-29.6-1.1-29.6-1.1c-1-2.2,1.9-3.1,1.9-3.1s-3.6,0.4-3.2,3.6c0,0-4.6,3-5,14.8h1.2
						c0-8.6,3.2-12.7,3.2-12.7C871.2,132.8,898.3,134.8,898.3,134.8z"/>
				</g>
			</g>
		</g>
		<g>
			<path class="st52" d="M877,130h9.1v-10.1h-2.5C882.1,121.2,878.3,124.8,877,130z"/>
			<path class="st52" d="M903.1,130.9c0,0-0.8-6.8-7.5-9.7c-2.2,2.3-4.6,5.4-5.7,8.8h4.1C894.1,130,899.3,130,903.1,130.9z"/>
			<path class="st53" d="M888.7,119.9V130h1.2c1.1-3.4,3.5-6.5,5.7-8.8C893.8,120.4,891.5,119.9,888.7,119.9z"/>
			<path class="st53" d="M875.3,121.3L874,130h3c1.2-5.2,5.1-8.9,6.6-10.1h-6.3C874.9,119.9,875.3,121.3,875.3,121.3z"/>
		</g>
		<path class="st48" d="M890.4,138.1h-3.5c-0.4,0-0.7-0.3-0.7-0.7v0c0-0.4,0.3-0.7,0.7-0.7h3.5c0.4,0,0.7,0.3,0.7,0.7v0
			C891.1,137.8,890.7,138.1,890.4,138.1z"/>
		<path class="st54" d="M912.1,134.6c-0.9,0.6-1.5,1.6-1.5,2.8c0,1.8,1.5,3.3,3.3,3.3h3.5c0.3,0,0.6,0,0.8-0.1
			C917.2,138.5,915.3,136.3,912.1,134.6z"/>
		<path class="st55" d="M866.9,141.4c0-1.4-1.1-2.5-2.5-2.5h0c-0.5,1.3-1,3-1.3,5.1h1.4C865.7,144,866.9,142.8,866.9,141.4z"/>
		<g>
			<path class="st48" d="M917.4,139.7h-3.5c-1.6,0-3-1.2-3.2-2.8c0,0.2,0,0.4,0,0.5c0,1.8,1.5,3.3,3.3,3.3h3.5c0.3,0,0.6,0,0.8-0.1
				c-0.2-0.3-0.3-0.6-0.5-0.9C917.6,139.7,917.5,139.7,917.4,139.7z"/>
		</g>
		<g>
			<path class="st56" d="M864.3,138.9L864.3,138.9c-0.5,1.3-1,3-1.4,5.1c0,0,1.4,0,1.7,0c0.5-0.1,0.9-0.3,0.9-0.3
				c-1.3-1-0.6-3.2-0.1-4.5C865.1,139,864.7,138.9,864.3,138.9z"/>
		</g>
		
			<ellipse transform="matrix(6.656765e-02 -0.9978 0.9978 6.656765e-02 667.0884 995.8989)" class="st6" cx="865.8" cy="141.4" rx="0.7" ry="0.4"/>
		<g>
			<path class="st54" d="M912.8,138.4c0.8,1,2.4,1.2,3.4,0.3c0.2-0.2,0.3-0.3,0.5-0.5c-0.9-1.1-2.1-2.2-3.6-3.1
				C912.1,136,912,137.5,912.8,138.4z"/>
			<path class="st6" d="M912.8,138.4c0.8,1,2.4,1.2,3.4,0.3c0.2-0.2,0.3-0.3,0.5-0.5c-0.9-1.1-2.1-2.2-3.6-3.1
				C912.1,136,912,137.5,912.8,138.4z"/>
		</g>
		
			<ellipse transform="matrix(6.642374e-02 -0.9978 0.9978 6.642374e-02 668.8975 1013.6839)" class="st6" cx="876.2" cy="149.4" rx="0.7" ry="0.4"/>
		
			<ellipse transform="matrix(6.642580e-02 -0.9978 0.9978 6.642580e-02 696.0477 1042.7031)" class="st6" cx="905.2" cy="149.4" rx="0.7" ry="0.4"/>
		<g class="st57">
			<path class="st7" d="M874,144c3.3,0,6,2.7,6,6c0,0.3,0,0.6-0.1,0.9c0.2-0.6,0.3-1.3,0.3-2c0-3.5-2.8-6.2-6.2-6.2
				c-3.5,0-6.2,2.8-6.2,6.2c0,0.7,0.1,1.4,0.3,2c0-0.3-0.1-0.6-0.1-0.9C868,146.6,870.7,144,874,144z"/>
		</g>
		<g class="st57">
			<path class="st7" d="M874,146.2c1.8,0,3.2,1.4,3.2,3.2c0,0.2,0,0.3,0,0.5c0.1-0.3,0.2-0.7,0.2-1.1c0-1.9-1.5-3.4-3.4-3.4
				s-3.4,1.5-3.4,3.4c0,0.4,0.1,0.7,0.2,1.1c0-0.2,0-0.3,0-0.5C870.8,147.7,872.2,146.2,874,146.2z"/>
		</g>
		<g class="st57">
			<path class="st7" d="M903.1,146.2c1.8,0,3.2,1.4,3.2,3.2c0,0.2,0,0.3,0,0.5c0.1-0.3,0.2-0.7,0.2-1.1c0-1.9-1.5-3.4-3.4-3.4
				c-1.9,0-3.4,1.5-3.4,3.4c0,0.4,0.1,0.7,0.2,1.1c0-0.2,0-0.3,0-0.5C899.8,147.7,901.3,146.2,903.1,146.2z"/>
		</g>
		<g class="st57">
			<path class="st7" d="M903.1,144c3.3,0,6,2.7,6,6c0,0.3,0,0.6-0.1,0.9c0.2-0.6,0.3-1.3,0.3-2c0-3.5-2.8-6.2-6.2-6.2
				c-3.5,0-6.2,2.8-6.2,6.2c0,0.7,0.1,1.4,0.3,2c0-0.3-0.1-0.6-0.1-0.9C897.1,146.6,899.8,144,903.1,144z"/>
		</g>
		<g>
			<g>
				<g>
					<path class="st48" d="M873.3,119c0,0,0.5-1.6,7.1-1.6c-1.4,0-2.7,0-3.7,0c-4.6,0-3.9,1.6-3.9,1.6l-1.9,11.5l0,0L873.3,119z"/>
				</g>
			</g>
		</g>
	</g>
	<g>
		<path class="st51" d="M495.7,222.3c0,0,0.9-6.7,5.4-5.3c0,0-5.1-3.2-6.2,1.9c0,0-2.9-2.8-6.2-0.4
			C488.7,218.6,493.2,218.9,495.7,222.3z"/>
		<path class="st51" d="M496.6,211.8c0,0,2.7-5.5,6.2-3c0,0-3.5-4.3-5.9-0.1c0,0-1.7-3.2-5.3-2.1
			C491.6,206.6,495.5,208.2,496.6,211.8z"/>
		<path class="st51" d="M506.4,217.4c0,0,2.9-3.5,5-1.1c0,0-1.8-3.7-4.2-1.1c0,0-0.6-2.6-3.4-2.5
			C503.7,212.7,506.2,214.6,506.4,217.4z"/>
		<path class="st51" d="M483.6,216c0,0,1.4-6,5.4-4.3c0,0-4.4-3.4-5.8,1.2c0,0-2.4-2.8-5.6-0.9C477.6,212,481.7,212.7,483.6,216z"/>
	</g>
	<g>
		<path class="st58" d="M0,352.9l634.4-0.1c11.5,0,20.7-9.3,20.7-20.8V175.9c0-11.5,9.3-20.8,20.7-20.8h354.2
			c11.5,0,20.7,9.3,20.7,20.8v353.9c0,11.5,9.3,20.8,20.7,20.8h21.1h208.7h23.2c11.5,0,20.7-9.3,20.7-20.8V373.5
			c0-11.5,9.3-20.8,20.7-20.8h634"/>
	</g>
	<g>
		<path class="st59" d="M654.2,245.9c-5.1,10.4-13,14.2-21.8,15.1l-0.5,0c19.7-1.4,33.2-18.6,39.4-28.8
			C667,239,661.6,244.1,654.2,245.9z"/>
		<path class="st59" d="M675.3,224.7L675.3,224.7c-0.2,0.5-0.5,1.1-0.8,1.6C675,225.2,675.3,224.7,675.3,224.7z"/>
		<path class="st60" d="M671.3,232.2c1.2-1.9,2.2-3.9,3.2-6C673.9,227.6,672.8,229.7,671.3,232.2z"/>
	</g>
	<g>
		<path class="st60" d="M666.1,194.8v5.3h1.7c0.4,0,0.6,0.3,0.6,0.6v0c0,0.4-0.3,0.6-0.6,0.6h-25.3c-0.4,0-0.6-0.3-0.6-0.6v0
			c0-0.4,0.3-0.6,0.6-0.6h1.7v-5.2c-3.5,0-7,0-10.4,0c-7.4,19.3-15.6,40.4-24.8,64.8c7.8,0.9,15.9,2.1,23.3,1.3
			c8.8-1,16.6-4.7,21.8-15.1c7.4-1.8,12.8-6.8,17.1-13.6c1.5-2.5,2.6-4.6,3.2-6c0.3-0.5,0.5-1.1,0.7-1.6c4.1-9,6.9-19.7,9.6-29.9
			C678.4,194.8,672.2,194.8,666.1,194.8z"/>
		<path class="st61" d="M644.2,200.7v-0.6h-1.7c-0.4,0-0.6,0.3-0.6,0.6v0c0,0.4,0.3,0.6,0.6,0.6h25.3c0.4,0,0.6-0.3,0.6-0.6v0
			c0-0.4-0.3-0.6-0.6-0.6h-1.7v0.6H644.2z"/>
	</g>
	<g>
		<g>
			<path class="st62" d="M655.3,205.9c-0.2,0-0.3,0-0.5,0c-3.2-0.1-6.6,2.3-7.6,5.4c-1.1,3.1,0.6,5.7,3.9,5.9c0.2,0,0.4,0,0.5,0
				c3.2,0.1,6.8-2.3,7.8-5.5C660.3,208.5,658.5,206,655.3,205.9z M655.8,219.1c-3.5-0.1-6.9-0.3-10.2-0.4c-1.9-0.1-4,1.3-4.7,3.2
				c-0.6,1.8-1.3,3.7-1.9,5.5c5.7,0.4,11.4,0.6,17.3,0.7c0.7-1.8,1.3-3.6,2-5.4C658.9,220.7,657.7,219.2,655.8,219.1z M661.8,210.7
				c0,0.7,0,1.5,0,2.2c-0.5,0.7-0.9,1.4-1.4,2.2c0.8-0.2,1.7-0.4,2.5-0.6c0.7,0.2,1.4,0.5,2.1,0.7c0-0.7,0-1.5,0-2.2
				c0.5-0.7,0.9-1.4,1.4-2.2c-0.8,0.2-1.7,0.4-2.5,0.6C663.2,211.1,662.5,210.9,661.8,210.7z M664.4,209.9c0-0.5,0.1-0.9,0.1-1.4
				c0.3-0.4,0.6-0.9,0.9-1.3c-0.5,0.1-1,0.2-1.6,0.3c-0.4-0.2-0.8-0.4-1.3-0.5c0,0.5-0.1,0.9-0.1,1.4c-0.3,0.4-0.6,0.9-0.9,1.3
				c0.5-0.1,1-0.2,1.6-0.3C663.6,209.5,664,209.7,664.4,209.9z M667.9,208.2c-0.3,0.1-0.6,0.2-0.8,0.3c-0.3,0-0.5-0.1-0.8-0.1
				c0,0.2,0.1,0.5,0.1,0.7c-0.1,0.2-0.2,0.5-0.3,0.7c0.3-0.1,0.6-0.2,0.8-0.3c0.3,0,0.5,0.1,0.8,0.1c0-0.2-0.1-0.5-0.1-0.7
				C667.7,208.7,667.8,208.5,667.9,208.2z M635.8,234.9c5.7,0.4,11.5,0.6,17.3,0.4c0.6,0,1.3-0.5,1.6-1.1v0c0.2-0.6-0.1-1.1-0.7-1.1
				c-5.8,0.1-11.7-0.2-17.4-0.5c-0.6,0-1.3,0.4-1.5,1.1v0C634.9,234.3,635.2,234.8,635.8,234.9z M655.6,237.3
				c-7.9,0.6-16,0.3-23.9-0.3c-0.6,0-1.3,0.4-1.5,1.1c-0.2,0.6,0.1,1.2,0.7,1.2c7.9,0.6,15.9,0.9,23.8,0.1c0.6-0.1,1.3-0.6,1.6-1.1
				C656.5,237.6,656.2,237.2,655.6,237.3z M653.7,241.4c-7.7,1-15.7,0.8-23.6,0.2c-0.6,0-1.3,0.4-1.5,1.1c-0.2,0.6,0.1,1.2,0.7,1.3
				c7.9,0.6,15.9,0.8,23.5-0.5c0.6-0.1,1.3-0.6,1.6-1.2C654.6,241.7,654.3,241.3,653.7,241.4z M651.7,245.4
				c-7.5,1.6-15.4,1.5-23.3,0.9c-0.6,0-1.3,0.4-1.5,1.1c-0.2,0.7,0.1,1.2,0.7,1.3c7.9,0.6,15.8,0.6,23.1-1.3
				c0.6-0.1,1.3-0.7,1.6-1.2C652.5,245.6,652.3,245.2,651.7,245.4z"/>
		</g>
	</g>
</g>
<rect x="714.8" y="284" class="st61" width="280.5" height="64"/>
<text transform="matrix(1 0 0 1 714.75 297.2749)"><tspan x="0" y="0" class="st63 st64">Download</tspan><tspan x="81.6" y="0" class="st63 st64 st65"> </tspan><tspan x="100.5" y="0" class="st63 st64">the</tspan><tspan x="126.5" y="0" class="st63 st64 st65"> </tspan><tspan x="145.5" y="0" class="st63 st64">application</tspan><tspan x="232" y="0" class="st63 st64 st65"> </tspan><tspan x="251" y="0" class="st63 st64">you </tspan><tspan x="0" y="21.6" class="st63 st64">prefer,</tspan><tspan x="52.6" y="21.6" class="st63 st64 st66"> </tspan><tspan x="61.5" y="21.6" class="st63 st64">or</tspan><tspan x="78.2" y="21.6" class="st63 st64 st66"> </tspan><tspan x="87.1" y="21.6" class="st63 st64">register</tspan><tspan x="147.1" y="21.6" class="st63 st64 st66"> </tspan><tspan x="156" y="21.6" class="st63 st64">now</tspan><tspan x="190.4" y="21.6" class="st63 st64 st66"> </tspan><tspan x="199.2" y="21.6" class="st63 st64">and</tspan><tspan x="228.3" y="21.6" class="st63 st64 st66"> </tspan><tspan x="237.1" y="21.6" class="st63 st64">enjoy </tspan><tspan x="46.9" y="43.2" class="st63 st64">requesting the services.</tspan></text>
<rect x="709.8" y="210" class="st61" width="290.5" height="73"/>
<text transform="matrix(1 0 0 1 736.2959 230.9858)"><tspan x="0" y="0" class="st67 st68">Download the App</tspan><tspan x="-23.9" y="33.6" class="st67 st68">or register the website</tspan></text>
</svg>
