<?xml version="1.0" encoding="utf-8"?>
<!-- Generator: Adobe Illustrator 21.1.0, SVG Export Plug-In . SVG Version: 6.00 Build 0)  -->
<svg version="1.1" id="Layer_1" xmlns="http://www.w3.org/2000/svg" xmlns:xlink="http://www.w3.org/1999/xlink" x="0px" y="0px"
	 viewBox="0 0 2000 668" style="enable-background:new 0 0 2000 668;" xml:space="preserve">
<style type="text/css">
	.st0{fill:#9B6649;}
	.st1{fill:#805038;}
	.st2{fill:#6D412D;}
	.st3{fill:#3E5823;}
	.st4{fill:#76B72A;}
	.st5{opacity:0.2;}
	.st6{fill:#1D1D1B;}
	.st7{fill:#FFFFFF;}
	.st8{fill:#F9BD69;}
	.st9{fill:#F9F8F7;}
	.st10{fill:#845F41;}
	.st11{fill:#D1D3D4;}
	.st12{fill:#BB8767;}
	.st13{fill:#563722;}
	.st14{fill:#476429;}
	.st15{fill:#7A9A9E;}
	.st16{fill:#435C64;}
	.st17{fill:#A4C6D3;}
	.st18{fill:#A2CCD6;}
	.st19{fill:#F08966;}
	.st20{fill:#D68162;}
	.st21{opacity:0.2;fill:#1D1D1B;}
	.st22{fill:#BA6456;}
	.st23{fill:#8A4336;}
	.st24{fill:#6D9C40;}
	.st25{fill:#547831;}
	.st26{opacity:0.5;fill:#C5D665;}
	.st27{fill:#C9DFF4;}
	.st28{fill:#2E5579;}
	.st29{fill:#9B9B9A;}
	.st30{fill:#717070;}
	.st31{fill:#E20A13;}
	.st32{fill:#000100;}
	.st33{font-family:'Lato-Semibold';}
	.st34{font-size:7.4519px;}
	.st35{fill:none;stroke:#333333;stroke-width:22;stroke-miterlimit:10;}
	
		.st36{fill:none;stroke:#FFFFFF;stroke-width:2;stroke-linecap:round;stroke-linejoin:round;stroke-miterlimit:10;stroke-dasharray:10,20;}
	.st37{fill:#333334;}
	.st38{opacity:0.9;}
	.st39{fill:#1A1A1A;}
	.st40{fill-rule:evenodd;clip-rule:evenodd;fill:#FFFFFF;}
	.st41{fill-rule:evenodd;clip-rule:evenodd;fill:#E1F0FC;}
	.st42{opacity:0.2;fill-rule:evenodd;clip-rule:evenodd;fill:#FFFFFF;}
	.st43{fill-rule:evenodd;clip-rule:evenodd;fill:#2E5579;}
	.st44{opacity:0.2;fill-rule:evenodd;clip-rule:evenodd;fill:#1D1D1B;}
	.st45{fill-rule:evenodd;clip-rule:evenodd;fill:#191A1A;}
	.st46{fill-rule:evenodd;clip-rule:evenodd;fill:#1D1D1B;}
	.st47{fill-rule:evenodd;clip-rule:evenodd;fill:#EFF6FC;}
	.st48{fill-rule:evenodd;clip-rule:evenodd;fill:#C9DFF4;}
	.st49{font-family:'Lato-Heavy';}
	.st50{font-size:10.6573px;}
	.st51{fill:#6BBFAB;}
	.st52{opacity:0.5;fill:#1D1D1B;}
	.st53{fill:#258BCB;}
	.st54{fill:#8ACBF0;}
	.st55{fill:#256F93;}
	.st56{fill:#28242C;}
	.st57{fill:#C4C3C4;}
	.st58{opacity:0.4;}
	.st59{fill:#FFF381;}
	.st60{fill:#E53C39;}
	.st61{fill:#C13334;}
	.st62{fill:#B9D9ED;}
	.st63{fill:#EDA577;}
	.st64{opacity:0.6;fill:#B77548;}
	.st65{fill:none;}
	.st66{fill:#135B84;}
	.st67{fill:#0E4960;}
	.st68{fill:#30B2E7;}
	.st69{fill:#333333;}
	.st70{font-family:'Lato-Regular';}
	.st71{font-size:18px;}
	.st72{letter-spacing:6;}
	.st73{letter-spacing:8;}
	.st74{font-family:'Lato-Black';}
	.st75{font-size:28px;}
</style>
<g>
	<g>
		<path class="st0" d="M1099.6,524.6c-0.2-4.2,0.4-8.2-0.8-10.9c-1.3-2.7-4.7-8.1-4.7-8.1l-3.3-1.2c0,0,2.6-4.4,2.7-7
			c0.1-2.6,2.1-5.3,2.1-5.3s-4.5-2.7-4.9-4c-0.4-1.3-4.6-6.2-4.6-8.4c0-2.3-4.9-11.2-4.9-11.2l-7-2.5c0,0-4.1-0.3-6.1,0.1
			s-6.5,7.5-6.5,7.5l-7.8,1.4c0,0-5.2-1.1-5.8,0.6c-0.7,1.7-4.8,6.2-4.8,6.2s-5.8,1.7-7,2.4c-1.2,0.7-4.5,5.6-5.1,6.9
			c-0.5,1.3-4.7,2.5-6.2,2.7c-1.5,0.2-4.9-2.9-9.1,1.7c-4.1,4.6-4.7,5.9-6.7,6.3s-3.1,0-4.8,0.9c-1.8,0.9-0.3,1.7-0.3,1.7l-1.1,10"
			/>
		<g>
			<path class="st1" d="M1077.5,526.2c-0.8,0.3-4-1-4.9-1.7c-0.9-0.7-4.1-2.6-4.1-2.6l-5-2.7l-3.7-4.7l1-5.9l-9.6,1.7l-7.8-4.5
				l-1.8-5.5l7.3,0.3c0,0,5.6-1.8,5.8-2.3c0.2-0.5-3.7-6-3.7-6l2.1-2.5l9.3,0.7c0,0,4.8-0.9,4.5-2s3.5-4.6,3.5-4.6l5.5-2.2l0.2-4.9
				l0.2-5l4.8-3.2l-7-2.5c0,0-4.1-0.3-6.1,0.1s-6.5,7.5-6.5,7.5l-7.8,1.4c0,0-5.2-1.1-5.8,0.6c-0.7,1.7-4.8,6.2-4.8,6.2
				s-5.8,1.7-7,2.4c-1.2,0.7-4.5,5.6-5.1,6.9c-0.5,1.3-4.7,2.5-6.2,2.7c-1.5,0.2-4.9-2.9-9.1,1.7c-4.1,4.6-4.7,5.9-6.7,6.3
				s-2.7,0.9-4.4,1.8c-1.8,0.9,0,4.9,0,4.9l-0.8,8.6"/>
		</g>
		<path class="st1" d="M1081.2,496.6l-1,2.5l-2.9,2.6c0,0-0.2,1.8,0.6,3.2c0.8,1.4,0.2,4.2-0.4,5.7c-0.6,1.5-1.2-1.7-1.2-1.7
			l0.9-2.3l-1.7-3.3c0,0,1.2-2.6,1.2-3.2C1076.8,499.5,1080.2,499.2,1081.2,496.6z"/>
		<line class="st1" x1="1091" y1="521.6" x2="1091.7" y2="525"/>
		<path class="st1" d="M1056.8,499.4l4.5-0.1l2.1,2.4l-1-3c0,0-0.3-0.3-1.4-0.5C1059.9,498.1,1056.8,499.4,1056.8,499.4z"/>
		<path class="st1" d="M1084.1,484.5l2,4.5c0,0,0,1.3-0.8,2.2c-0.8,0.9-1.2,3.2-1.2,3.2l0.4-5.5L1084.1,484.5z"/>
		<g>
			<path class="st2" d="M1043.6,521.6c0,0-6.6-2.1-6.6-2.5c0-0.4-0.1-3.1-0.1-3.1l-9.9-2.2l-3.5-5.9l5.4-0.2c0,0-0.7-7.2-0.7-8.4
				c0-1.1-0.2-3.1-0.2-3.1l5.4-2.4l4.2-1.7l2.2-5.5l4-2c0,0,2.9-1.4,3.1-1.9c0.2-0.5,3.9-3.9,3.9-3.9l5.3,0.7c0,0,4.4-2.4,5-3.2
				c0.5-0.8,2.5-1.6,2.9-2c0.4-0.4,3-1,3-1l2.6-0.8l1.4-3.7l3.9-1.1l1.2-1.1l-2.1-0.7c0,0-4.1-0.3-6.1,0.1s-6.5,7.5-6.5,7.5
				l-7.8,1.4c0,0-5.2-1.1-5.8,0.6c-0.7,1.7-4.8,6.2-4.8,6.2s-5.8,1.7-7,2.4c-1.2,0.7-4.5,5.6-5.1,6.9c-0.5,1.3-4.7,2.5-6.2,2.7
				c-1.5,0.2-4.9-2.9-9.1,1.7c-4.1,4.6-4.7,5.9-6.7,6.3s-2.5-0.5-4.2,0.4c-1.8,0.9,0.2,2.2,0.2,2.2l1.8,17l-5.5,27.3H1199l-7-19
				L1043.6,521.6z"/>
		</g>
		<path class="st1" d="M1081.1,471.4l1,2.5l1.6,2.6l-0.3,3.1c0,0,0.3,2.4,0.2,3.3c-0.1,1-0.9-3.4-0.9-3.4s-0.2-1-0.5-1.8
			c-0.3-0.9-0.7-2.6-0.7-2.6L1081.1,471.4z"/>
		<path class="st2" d="M1043.2,520.3c0,0,2-0.2,2.7-0.3c0.7-0.1,3.7-2.2,3.7-2.2l-1.1,2.9c0,0,3.3,2.3,3.6,2.8s-1.8,0.1-1.8,0.1
			l-2.6-1.8L1043.2,520.3z"/>
		<path class="st0" d="M1174.5,507.7c0,0-3.5,0-5.2-4.6c-1.7-4.6-2.6-9.1-4.8-11.6c-2.2-2.5-7.4-7.1-7.4-7.1h-3.5c0,0,0.9-5.8,0-8.7
			c-0.9-2.9,0-6.6,0-6.6s-5.2-1.2-6.1-2.5c-0.9-1.2-6.6-5-7.4-7.5c-0.9-2.5-8.7-10.4-8.7-10.4h-7.4c0,0-3.9,1.2-5.7,2.5
			c-1.7,1.2-3.3,10.8-3.3,10.8l-6.8,4.6c0,0-5.2,0.8-5.2,2.9c0,2.1-2.2,8.7-2.2,8.7s-4.8,4.1-5.7,5.4c-0.9,1.2-2.2,7.9-2.2,9.5
			c0,1.7-3.5,4.6-4.8,5.4c-1.3,0.8-5.7-1.2-7.9,5.4c-2.2,6.6-2.2,8.3-3.9,9.5c-1.7,1.2-5.7,2.1-7,3.7c-1.3,1.7-6.7,5-6.7,5l-7.7,2.1
			l151.6,20.1l-7.3-19.3l-11.4-14.1c-2.2-0.4-10-2.5-10-2.5L1174.5,507.7z"/>
		<g>
			<path class="st1" d="M1163.4,518.9c0,0-5.9-1.5-8.3-2.9c-2.4-1.5-3.1-2.1-3.1-2.1s-2.2-1-2.8-0.4c-0.7,0.6-4.2,0.4-5.2,0
				c-1.1-0.4-4.8-1.2-4.8-1.2l-5.7-1l-5.2-3.7l-1.3-6.8l-8.3,5.6l-9-1.9l-3.7-5.4l7-2.5c0,0,4.6-4.1,4.6-4.8c0-0.6-5.7-5.2-5.7-5.2
				l1.1-3.5l9-2.9c0,0,4.2-2.9,3.5-3.9c-0.7-1,1.6-6.4,1.6-6.4l4.3-4.6l-1.6-5.4l-1.6-5.6l3.3-5.4h-7.4c0,0-3.9,1.2-5.7,2.5
				c-1.7,1.2-3.3,10.8-3.3,10.8l-6.8,4.6c0,0-5.2,0.8-5.2,2.9c0,2.1-2.2,8.7-2.2,8.7s-4.8,4.1-5.7,5.4c-0.9,1.2-2.2,7.9-2.2,9.5
				c0,1.7-3.5,4.6-4.8,5.4c-1.3,0.8-5.7-1.2-7.9,5.4c-2.2,6.6-2.2,8.3-3.9,9.5c-1.7,1.2-5.7,2.1-7,3.7c-1.3,1.7-6.7,5-6.7,5
				l-7.7,2.1l77.7,13.4l61.6-2.3l-9.4-8.6l-10.5-0.3l-9.7-4.7L1163.4,518.9z"/>
		</g>
		<path class="st1" d="M1141.7,479.5v3.1l-1.7,3.9c0,0,0.4,2.1,1.7,3.3c1.3,1.2,1.7,4.6,1.7,6.4c0,1.9-1.7-1.5-1.7-1.5V492l-2.8-2.9
			c0,0,0.2-3.3,0-3.9C1138.7,484.5,1141.7,482.8,1141.7,479.5z"/>
		<path class="st1" d="M1160.1,503.2l2,3.5l9.4,6.4c0,0,3.9,1,4.8,1.2c0.9,0.2-6.8-1.5-6.8-1.5l-2.4-1.9
			C1167.1,511,1160.7,505.4,1160.1,503.2z"/>
		<path class="st1" d="M1119.9,492.2l4.2-1.9l2.9,1.9l-2-2.9c0,0-0.4-0.2-1.5,0C1122.3,489.5,1119.9,492.2,1119.9,492.2z"/>
		<path class="st1" d="M1140,465.2l3.5,4.1c0,0,0.4,1.5,0,2.7c-0.4,1.2,0,3.9,0,3.9l-1.7-6.2L1140,465.2z"/>
		<g>
			<path class="st2" d="M1129.5,522.4c-1.1,0.4-12.9,0-12.9,0s-7.9-0.6-8-1c-0.1-0.4-1.2-3.3-1.2-3.3l-10,1.5l-5.5-5.2l5-2.3
				c0,0-3.3-7.7-3.7-8.9c-0.4-1.2-1.3-3.3-1.3-3.3l4.2-4.8l3.3-3.5v-6.8l3.1-3.7c0,0,2.2-2.7,2.2-3.3c0-0.6,2.2-5.8,2.2-5.8l5.2-1.2
				c0,0,3.3-4.4,3.5-5.4c0.2-1,1.7-2.7,2-3.3c0.2-0.6,2.4-2.3,2.4-2.3l2.2-1.9v-4.6l3.3-2.7l0.7-1.7h-2.2c0,0-3.9,1.2-5.7,2.5
				c-1.7,1.2-3.3,10.8-3.3,10.8l-6.8,4.6c0,0-5.2,0.8-5.2,2.9c0,2.1-2.2,8.7-2.2,8.7s-4.8,4.1-5.7,5.4c-0.9,1.2-2.2,7.9-2.2,9.5
				c0,1.7-3.5,4.6-4.8,5.4c-1.3,0.8-5.7-1.2-7.9,5.4c-2.2,6.6-2.2,8.3-3.9,9.5c-1.7,1.2-5.7,2.1-7,3.7c-1.3,1.7-6.7,5-6.7,5
				l-14.9,6.2l84.7-4.1C1132.3,524.3,1130.6,522,1129.5,522.4z"/>
		</g>
		<path class="st1" d="M1132.3,452l1.8,2.4l2.5,2.2l0.9,3.5c0,0,1.1,2.5,1.4,3.6c0.2,1.1-2.1-3.3-2.1-3.3s-0.6-1-1.2-1.8
			c-0.6-0.8-1.6-2.6-1.6-2.6L1132.3,452z"/>
		<path class="st2" d="M1114.9,520.3c0,0,1.8-1,2.4-1.4c0.6-0.4,2.6-3.9,2.6-3.9v3.6c0,0,3.9,1.2,4.4,1.7c0.4,0.4-1.6,0.8-1.6,0.8
			l-3.1-1L1114.9,520.3z"/>
	</g>
	<g>
		<path class="st0" d="M768.4,459.1c-0.3-6.2,0.6-12-1.1-16c-1.7-4-6.3-11.9-6.3-11.9l-4.3-1.7c0,0,3.5-6.4,3.6-10.3
			c0.1-3.8,2.8-7.8,2.8-7.8s-6-4-6.5-5.9c-0.6-1.9-6-9.1-6.1-12.4c0-3.4-6.5-16.5-6.5-16.5l-9.2-3.6c0,0-5.4-0.5-8.1,0.2
			c-2.7,0.6-8.6,11.1-8.6,11.1l-10.3,2.1c0,0-6.8-1.6-7.7,0.9c-0.9,2.4-6.3,9.2-6.3,9.2s-7.7,2.5-9.3,3.6c-1.6,1-6,8.2-6.7,10.2
			c-0.7,2-6.2,3.7-8.2,4c-2,0.3-6.5-4.2-12,2.5c-5.5,6.8-6.2,8.7-8.8,9.3c-2.7,0.6-4,0-6.4,1.3c-2.3,1.3-0.4,2.5-0.4,2.5l-1.4,14.7"
			/>
		<g>
			<path class="st1" d="M739.2,461.5c-1.1,0.4-5.3-1.5-6.5-2.6c-1.2-1-5.4-3.8-5.4-3.8l-6.6-4l-4.9-7l1.3-8.7l-12.7,2.5l-10.3-6.6
				l-2.4-8.2l9.7,0.5c0,0,7.4-2.6,7.7-3.4c0.3-0.7-4.9-8.9-4.9-8.9l2.8-3.6l12.3,1c0,0,6.4-1.4,6-2.9c-0.4-1.5,4.6-6.8,4.6-6.8
				l7.3-3.3l0.2-7.2l0.3-7.4l6.3-4.8l-9.2-3.6c0,0-5.4-0.5-8.1,0.2c-2.7,0.6-8.6,11.1-8.6,11.1l-10.3,2.1c0,0-6.8-1.6-7.7,0.9
				c-0.9,2.4-6.3,9.2-6.3,9.2s-7.7,2.5-9.3,3.6c-1.6,1-6,8.2-6.7,10.2c-0.7,2-6.2,3.7-8.2,4c-2,0.3-6.5-4.2-12,2.5
				c-5.5,6.8-6.2,8.7-8.8,9.3c-2.7,0.6-3.5,1.3-5.9,2.6c-2.3,1.3,0,7.2,0,7.2l-1.1,12.6"/>
		</g>
		<path class="st1" d="M744.2,417.8l-1.3,3.7l-3.8,3.8c0,0-0.3,2.7,0.8,4.8c1.1,2.1,0.3,6.2-0.5,8.4c-0.8,2.2-1.6-2.6-1.6-2.6
			l1.2-3.4l-2.3-4.8c0,0,1.7-3.8,1.6-4.6C738.3,422.2,742.8,421.7,744.2,417.8z"/>
		<line class="st1" x1="757.1" y1="454.7" x2="758" y2="459.8"/>
		<path class="st1" d="M711.8,422.1l5.9-0.2l2.8,3.6l-1.3-4.4c0,0-0.4-0.4-1.9-0.7C715.9,420.1,711.8,422.1,711.8,422.1z"/>
		<path class="st1" d="M748,400.1l2.6,6.6c0,0-0.1,1.9-1.1,3.2c-1.1,1.3-1.6,4.6-1.6,4.6l0.5-8.1L748,400.1z"/>
		<g>
			<path class="st2" d="M694.4,454.7c0,0-8.8-3.1-8.7-3.7c0-0.5-0.1-4.5-0.1-4.5l-13.1-3.2l-4.6-8.8l7.2-0.3c0,0-0.9-10.6-0.9-12.3
				c0-1.7-0.2-4.5-0.2-4.5l7.1-3.6l5.5-2.6l2.9-8.1l5.3-2.9c0,0,3.8-2.1,4.1-2.8c0.3-0.7,5.1-5.8,5.1-5.8l7,1.1c0,0,5.9-3.5,6.6-4.6
				c0.7-1.1,3.3-2.3,3.8-2.9c0.5-0.6,3.9-1.5,3.9-1.5l3.5-1.1l1.9-5.4l5.2-1.6l1.6-1.6l-2.8-1.1c0,0-5.4-0.5-8.1,0.2
				c-2.7,0.6-8.6,11.1-8.6,11.1l-10.3,2.1c0,0-6.8-1.6-7.7,0.9c-0.9,2.4-6.3,9.2-6.3,9.2s-7.7,2.5-9.3,3.6c-1.6,1-6,8.2-6.7,10.2
				c-0.7,2-6.2,3.7-8.2,4c-2,0.3-6.5-4.2-12,2.5c-5.5,6.8-6.2,8.7-8.8,9.3c-2.7,0.6-3.3-0.7-5.6,0.6c-2.3,1.3,0.2,3.2,0.2,3.2
				l2.4,25l-7.3,40.1H900l-9.3-28L694.4,454.7z"/>
		</g>
		<path class="st1" d="M744,380.8l1.3,3.7l2.1,3.8l-0.4,4.5c0,0,0.4,3.5,0.2,4.9c-0.2,1.4-1.2-4.9-1.2-4.9s-0.3-1.4-0.7-2.7
			c-0.4-1.3-0.9-3.9-0.9-3.9L744,380.8z"/>
		<path class="st2" d="M693.9,452.7c0,0,2.7-0.2,3.6-0.5c0.9-0.2,4.9-3.3,4.9-3.3l-1.5,4.2c0,0,4.4,3.4,4.7,4.1
			c0.4,0.7-2.3,0.2-2.3,0.2l-3.4-2.6L693.9,452.7z"/>
		<path class="st0" d="M867.6,434.3c0,0-4.6,0-6.9-6.7c-2.3-6.7-3.5-13.4-6.4-17.1c-2.9-3.7-9.8-10.4-9.8-10.4h-4.6
			c0,0,1.2-8.5,0-12.8c-1.2-4.3,0-9.8,0-9.8s-6.9-1.8-8.1-3.7c-1.2-1.8-8.7-7.3-9.8-11c-1.2-3.7-11.6-15.3-11.6-15.3h-9.8
			c0,0-5.2,1.8-7.5,3.7c-2.3,1.8-4.3,15.9-4.3,15.9l-9,6.7c0,0-6.9,1.2-6.9,4.3c0,3.1-2.9,12.8-2.9,12.8s-6.4,6.1-7.5,7.9
			c-1.2,1.8-2.9,11.6-2.9,14c0,2.4-4.6,6.7-6.4,7.9c-1.7,1.2-7.5-1.8-10.4,7.9c-2.9,9.8-2.9,12.2-5.2,14c-2.3,1.8-7.5,3.1-9.2,5.5
			c-1.7,2.4-8.9,7.3-8.9,7.3l-10.2,3.1l200.5,29.6l-9.7-28.4l-15.1-20.7c-2.9-0.6-13.3-3.7-13.3-3.7L867.6,434.3z"/>
		<g>
			<path class="st1" d="M852.8,450.8c0,0-7.8-2.1-11-4.3c-3.2-2.1-4-3.1-4-3.1s-2.9-1.5-3.8-0.6c-0.9,0.9-5.5,0.6-6.9,0
				c-1.4-0.6-6.4-1.8-6.4-1.8l-7.5-1.5l-6.9-5.5l-1.7-10.1l-11,8.2l-11.9-2.7l-4.9-7.9l9.2-3.7c0,0,6.1-6.1,6.1-7
				c0-0.9-7.5-7.6-7.5-7.6l1.4-5.2l11.9-4.3c0,0,5.5-4.3,4.6-5.8s2.1-9.5,2.1-9.5l5.7-6.7l-2.2-7.9l-2.2-8.2l4.3-7.9h-9.8
				c0,0-5.2,1.8-7.5,3.7c-2.3,1.8-4.3,15.9-4.3,15.9l-9,6.7c0,0-6.9,1.2-6.9,4.3c0,3.1-2.9,12.8-2.9,12.8s-6.4,6.1-7.5,7.9
				c-1.2,1.8-2.9,11.6-2.9,14c0,2.4-4.6,6.7-6.4,7.9c-1.7,1.2-7.5-1.8-10.4,7.9c-2.9,9.8-2.9,12.2-5.2,14c-2.3,1.8-7.5,3.1-9.2,5.5
				c-1.7,2.4-8.9,7.3-8.9,7.3l-10.2,3.1h160.7l-15.6-3.7L852.8,450.8z"/>
		</g>
		<path class="st1" d="M824.2,392.8v4.6l-2.3,5.8c0,0,0.6,3.1,2.3,4.9c1.7,1.8,2.3,6.7,2.3,9.5c0,2.7-2.3-2.1-2.3-2.1v-4.3l-3.8-4.3
			c0,0,0.3-4.9,0-5.8C820.2,400.1,824.2,397.6,824.2,392.8z"/>
		<path class="st1" d="M848.5,427.6l2.6,5.2l12.4,9.5c0,0,5.2,1.5,6.4,1.8c1.2,0.3-9-2.1-9-2.1l-3.2-2.7
			C857.7,439.2,849.3,430.9,848.5,427.6z"/>
		<path class="st1" d="M795.3,411.4l5.5-2.7l3.8,2.7l-2.6-4.3c0,0-0.5-0.3-2,0C798.5,407.4,795.3,411.4,795.3,411.4z"/>
		<path class="st1" d="M821.9,371.7l4.6,6.1c0,0,0.6,2.1,0,4c-0.6,1.8,0,5.8,0,5.8l-2.2-9.2L821.9,371.7z"/>
		<g>
			<path class="st2" d="M808,455.9c-1.4,0.6-17.1,0-17.1,0s-10.4-0.9-10.5-1.5c-0.1-0.6-1.6-4.9-1.6-4.9l-13.3,2.1l-7.2-7.6l6.6-3.4
				c0,0-4.3-11.3-4.9-13.1c-0.6-1.8-1.7-4.9-1.7-4.9l5.5-7l4.3-5.2v-10.1l4-5.5c0,0,2.9-4,2.9-4.9c0-0.9,2.9-8.5,2.9-8.5l6.9-1.8
				c0,0,4.3-6.4,4.6-7.9c0.3-1.5,2.3-4,2.6-4.9c0.3-0.9,3.2-3.4,3.2-3.4l2.9-2.7V354l4.3-4l0.9-2.4h-3c0,0-5.2,1.8-7.5,3.7
				c-2.3,1.8-4.3,15.9-4.3,15.9l-9,6.7c0,0-6.9,1.2-6.9,4.3c0,3.1-2.9,12.8-2.9,12.8s-6.4,6.1-7.5,7.9c-1.2,1.8-2.9,11.6-2.9,14
				c0,2.4-4.6,6.7-6.4,7.9c-1.7,1.2-7.5-1.8-10.4,7.9c-2.9,9.8-2.9,12.2-5.2,14c-2.3,1.8-7.5,3.1-9.2,5.5c-1.7,2.4-8.9,7.3-8.9,7.3
				l-19.6,9.1l112.1-6C811.8,458.7,809.5,455.3,808,455.9z"/>
		</g>
		<path class="st1" d="M811.8,352.3l2.4,3.5l3.3,3.3l1.2,5.1c0,0,1.5,3.7,1.8,5.3c0.3,1.6-2.8-4.9-2.8-4.9s-0.8-1.4-1.5-2.6
			c-0.8-1.2-2.1-3.9-2.1-3.9L811.8,352.3z"/>
		<path class="st2" d="M788.6,452.8c0,0,2.4-1.4,3.2-2c0.8-0.6,3.5-5.7,3.5-5.7v5.3c0,0,5.2,1.8,5.8,2.4c0.6,0.6-2.1,1.2-2.1,1.2
			l-4.1-1.4L788.6,452.8z"/>
	</g>
	<g>
		<path class="st0" d="M932.4,488.9c-0.3-6.2,0.6-12-1.1-16c-1.7-4-6.3-11.9-6.3-11.9l-4.3-1.7c0,0,3.5-6.4,3.6-10.3
			c0.1-3.8,2.8-7.8,2.8-7.8s-6-4-6.5-5.9c-0.6-1.9-6-9.1-6.1-12.4s-6.5-16.5-6.5-16.5l-9.2-3.6c0,0-5.4-0.5-8.1,0.2
			c-2.7,0.6-8.6,11.1-8.6,11.1l-10.3,2.1c0,0-6.8-1.6-7.7,0.9c-0.9,2.4-6.3,9.2-6.3,9.2s-7.7,2.5-9.3,3.6c-1.6,1-6,8.2-6.7,10.2
			c-0.7,2-6.2,3.7-8.2,4s-6.5-4.2-12,2.5c-5.5,6.8-6.2,8.7-8.8,9.3c-2.7,0.6-4,0-6.4,1.3s-0.4,2.5-0.4,2.5l-1.4,14.7"/>
		<g>
			<path class="st1" d="M903.2,491.3c-1.1,0.4-5.3-1.5-6.5-2.6c-1.2-1-5.4-3.8-5.4-3.8l-6.6-4l-4.9-7l1.3-8.7l-12.7,2.5l-10.3-6.6
				l-2.4-8.2l9.7,0.5c0,0,7.4-2.6,7.7-3.4c0.3-0.7-4.9-8.9-4.9-8.9l2.8-3.6l12.3,1c0,0,6.4-1.4,6-2.9c-0.4-1.5,4.6-6.8,4.6-6.8
				l7.3-3.3l0.2-7.2l0.3-7.4l6.3-4.8l-9.2-3.6c0,0-5.4-0.5-8.1,0.2c-2.7,0.6-8.6,11.1-8.6,11.1l-10.3,2.1c0,0-6.8-1.6-7.7,0.9
				c-0.9,2.4-6.3,9.2-6.3,9.2s-7.7,2.5-9.3,3.6c-1.6,1-6,8.2-6.7,10.2c-0.7,2-6.2,3.7-8.2,4s-6.5-4.2-12,2.5
				c-5.5,6.8-6.2,8.7-8.8,9.3c-2.7,0.6-3.5,1.3-5.9,2.6c-2.3,1.3,0,7.2,0,7.2l-1.1,12.6"/>
		</g>
		<path class="st1" d="M908.2,447.6l-1.3,3.7l-3.8,3.8c0,0-0.3,2.7,0.8,4.8s0.3,6.2-0.5,8.4c-0.8,2.2-1.6-2.6-1.6-2.6l1.2-3.4
			l-2.3-4.8c0,0,1.7-3.8,1.6-4.6C902.3,452,906.8,451.5,908.2,447.6z"/>
		<line class="st1" x1="921.1" y1="484.4" x2="922" y2="489.6"/>
		<path class="st1" d="M875.8,451.8l5.9-0.2l2.8,3.6l-1.3-4.4c0,0-0.4-0.4-1.9-0.7C879.9,449.8,875.8,451.8,875.8,451.8z"/>
		<path class="st1" d="M912,429.9l2.6,6.6c0,0-0.1,1.9-1.1,3.2c-1.1,1.3-1.6,4.6-1.6,4.6l0.5-8.1L912,429.9z"/>
		<g>
			<path class="st2" d="M858.4,484.4c0,0-8.8-3.1-8.7-3.7c0-0.5-0.1-4.5-0.1-4.5l-13.1-3.2l-4.6-8.8l7.2-0.3c0,0-0.9-10.6-0.9-12.3
				c0-1.7-0.2-4.5-0.2-4.5l7.1-3.6l5.5-2.6l2.9-8.1l5.3-2.9c0,0,3.8-2.1,4.1-2.8c0.3-0.7,5.1-5.8,5.1-5.8l7,1.1c0,0,5.9-3.5,6.6-4.6
				c0.7-1.1,3.3-2.3,3.8-2.9c0.5-0.6,3.9-1.5,3.9-1.5l3.5-1.1l1.9-5.4l5.2-1.6l1.6-1.6l-2.8-1.1c0,0-5.4-0.5-8.1,0.2
				c-2.7,0.6-8.6,11.1-8.6,11.1l-10.3,2.1c0,0-6.8-1.6-7.7,0.9c-0.9,2.4-6.3,9.2-6.3,9.2s-7.7,2.5-9.3,3.6c-1.6,1-6,8.2-6.7,10.2
				c-0.7,2-6.2,3.7-8.2,4s-6.5-4.2-12,2.5c-5.5,6.8-6.2,8.7-8.8,9.3c-2.7,0.6-3.3-0.7-5.6,0.6c-2.3,1.3,0.2,3.2,0.2,3.2l2.4,25
				l-7.3,40.1H1064l-9.3-28L858.4,484.4z"/>
		</g>
		<path class="st1" d="M908,410.6l1.3,3.7l2.1,3.8l-0.4,4.5c0,0,0.4,3.5,0.2,4.9c-0.2,1.4-1.2-4.9-1.2-4.9s-0.3-1.4-0.7-2.7
			c-0.4-1.3-0.9-3.9-0.9-3.9L908,410.6z"/>
		<path class="st2" d="M857.9,482.5c0,0,2.7-0.2,3.6-0.5c0.9-0.2,4.9-3.3,4.9-3.3l-1.5,4.2c0,0,4.4,3.4,4.7,4.1
			c0.4,0.7-2.3,0.2-2.3,0.2l-3.4-2.6L857.9,482.5z"/>
		<path class="st0" d="M1031.6,464.1c0,0-4.6,0-6.9-6.7c-2.3-6.7-3.5-13.4-6.4-17.1c-2.9-3.7-9.8-10.4-9.8-10.4h-4.6
			c0,0,1.2-8.5,0-12.8c-1.2-4.3,0-9.8,0-9.8s-6.9-1.8-8.1-3.7c-1.2-1.8-8.7-7.3-9.8-11c-1.2-3.7-11.6-15.3-11.6-15.3h-9.8
			c0,0-5.2,1.8-7.5,3.7c-2.3,1.8-4.3,15.9-4.3,15.9l-9,6.7c0,0-6.9,1.2-6.9,4.3c0,3.1-2.9,12.8-2.9,12.8s-6.4,6.1-7.5,7.9
			c-1.2,1.8-2.9,11.6-2.9,14c0,2.4-4.6,6.7-6.4,7.9c-1.7,1.2-7.5-1.8-10.4,7.9c-2.9,9.8-2.9,12.2-5.2,14c-2.3,1.8-7.5,3.1-9.2,5.5
			c-1.7,2.4-8.9,7.3-8.9,7.3l-10.2,3.1l200.5,29.6l-9.7-28.4l-15.1-20.7c-2.9-0.6-13.3-3.7-13.3-3.7L1031.6,464.1z"/>
		<g>
			<path class="st1" d="M1016.8,480.5c0,0-7.8-2.1-11-4.3c-3.2-2.1-4-3.1-4-3.1s-2.9-1.5-3.8-0.6c-0.9,0.9-5.5,0.6-6.9,0
				c-1.4-0.6-6.4-1.8-6.4-1.8l-7.5-1.5l-6.9-5.5l-1.7-10.1l-11,8.2l-11.9-2.7l-4.9-7.9l9.2-3.7c0,0,6.1-6.1,6.1-7
				c0-0.9-7.5-7.6-7.5-7.6l1.4-5.2l11.9-4.3c0,0,5.5-4.3,4.6-5.8c-0.9-1.5,2.1-9.5,2.1-9.5l5.7-6.7l-2.2-7.9l-2.2-8.2l4.3-7.9h-9.8
				c0,0-5.2,1.8-7.5,3.7c-2.3,1.8-4.3,15.9-4.3,15.9l-9,6.7c0,0-6.9,1.2-6.9,4.3c0,3.1-2.9,12.8-2.9,12.8s-6.4,6.1-7.5,7.9
				c-1.2,1.8-2.9,11.6-2.9,14c0,2.4-4.6,6.7-6.4,7.9c-1.7,1.2-7.5-1.8-10.4,7.9c-2.9,9.8-2.9,12.2-5.2,14c-2.3,1.8-7.5,3.1-9.2,5.5
				c-1.7,2.4-8.9,7.3-8.9,7.3l-10.2,3.1h160.7l-15.6-3.7L1016.8,480.5z"/>
		</g>
		<path class="st1" d="M988.2,422.5v4.6l-2.3,5.8c0,0,0.6,3.1,2.3,4.9c1.7,1.8,2.3,6.7,2.3,9.5c0,2.7-2.3-2.1-2.3-2.1v-4.3l-3.8-4.3
			c0,0,0.3-4.9,0-5.8C984.2,429.9,988.2,427.4,988.2,422.5z"/>
		<path class="st1" d="M1012.5,457.3l2.6,5.2l12.4,9.5c0,0,5.2,1.5,6.4,1.8s-9-2.1-9-2.1l-3.2-2.7
			C1021.7,468.9,1013.4,460.7,1012.5,457.3z"/>
		<path class="st1" d="M959.3,441.2l5.5-2.7l3.8,2.7l-2.6-4.3c0,0-0.5-0.3-2,0C962.5,437.2,959.3,441.2,959.3,441.2z"/>
		<path class="st1" d="M985.9,401.5l4.6,6.1c0,0,0.6,2.1,0,4c-0.6,1.8,0,5.8,0,5.8l-2.2-9.2L985.9,401.5z"/>
		<g>
			<path class="st2" d="M972,485.7c-1.4,0.6-17.1,0-17.1,0s-10.4-0.9-10.5-1.5c-0.1-0.6-1.6-4.9-1.6-4.9l-13.3,2.1l-7.2-7.6l6.6-3.4
				c0,0-4.3-11.3-4.9-13.1c-0.6-1.8-1.7-4.9-1.7-4.9l5.5-7l4.3-5.2v-10.1l4-5.5c0,0,2.9-4,2.9-4.9c0-0.9,2.9-8.5,2.9-8.5l6.9-1.8
				c0,0,4.3-6.4,4.6-7.9c0.3-1.5,2.3-4,2.6-4.9c0.3-0.9,3.2-3.4,3.2-3.4l2.9-2.7v-6.7l4.3-4l0.9-2.4h-3c0,0-5.2,1.8-7.5,3.7
				c-2.3,1.8-4.3,15.9-4.3,15.9l-9,6.7c0,0-6.9,1.2-6.9,4.3c0,3.1-2.9,12.8-2.9,12.8s-6.4,6.1-7.5,7.9c-1.2,1.8-2.9,11.6-2.9,14
				c0,2.4-4.6,6.7-6.4,7.9c-1.7,1.2-7.5-1.8-10.4,7.9c-2.9,9.8-2.9,12.2-5.2,14c-2.3,1.8-7.5,3.1-9.2,5.5c-1.7,2.4-8.9,7.3-8.9,7.3
				l-19.6,9.1l112.1-6C975.8,488.5,973.5,485.1,972,485.7z"/>
		</g>
		<path class="st1" d="M975.8,382l2.4,3.5l3.3,3.3l1.2,5.1c0,0,1.5,3.7,1.8,5.3c0.3,1.6-2.8-4.9-2.8-4.9s-0.8-1.4-1.5-2.6
			c-0.8-1.2-2.1-3.9-2.1-3.9L975.8,382z"/>
		<path class="st2" d="M952.7,482.6c0,0,2.4-1.4,3.2-2c0.8-0.6,3.5-5.7,3.5-5.7v5.3c0,0,5.2,1.8,5.8,2.4c0.6,0.6-2.1,1.2-2.1,1.2
			l-4.1-1.4L952.7,482.6z"/>
	</g>
	<path class="st3" d="M680.5,426.4c1.4,0.1,2.6,1.1,2.9,2.5c0.7-1,1.9-1.7,3.3-1.6c2.1,0.1,3.7,1.9,3.6,3.9c0,0.1,0,0.2,0,0.3
		c0.1,0,0.2,0,0.3,0c1.7,0.1,3,1.5,2.9,3.2c-0.1,1.7-1.5,3-3.2,2.9l-13.8-0.7c-1.7-0.1-3-1.5-2.9-3.2c0.1-1.7,1.5-3,3.2-2.9
		c0.4,0,0.8,0.1,1.1,0.3c-0.3-0.5-0.5-1.1-0.5-1.8C677.4,427.6,678.8,426.3,680.5,426.4z"/>
	<path class="st3" d="M663.7,424.6c1.4,0.1,2.6,1.1,2.9,2.5c0.7-1,1.9-1.7,3.3-1.6c2.1,0.1,3.7,1.9,3.6,3.9c0,0.1,0,0.2,0,0.3
		c0.1,0,0.2,0,0.3,0c1.7,0.1,3,1.5,2.9,3.2c-0.1,1.7-1.5,3-3.2,2.9l-13.8-0.7c-1.7-0.1-3-1.5-2.9-3.2c0.1-1.7,1.5-3,3.2-2.9
		c0.4,0,0.8,0.1,1.1,0.3c-0.3-0.5-0.5-1.1-0.5-1.8C660.6,425.8,662,424.5,663.7,424.6z"/>
	<path class="st3" d="M697.4,421.9c1.6,0.1,2.9,1.2,3.1,2.7c0.8-1.2,2.1-1.9,3.6-1.8c2.3,0.1,4,2.1,3.9,4.3c0,0.1,0,0.2,0,0.4
		c0.1,0,0.2,0,0.3,0c1.9,0.1,3.3,1.7,3.2,3.5c-0.1,1.9-1.7,3.3-3.5,3.2l-15.2-0.7c-1.9-0.1-3.3-1.7-3.2-3.5c0.1-1.9,1.7-3.3,3.5-3.2
		c0.4,0,0.8,0.1,1.2,0.3c-0.4-0.6-0.6-1.2-0.5-2C693.9,423.2,695.5,421.8,697.4,421.9z"/>
	<path class="st3" d="M753.7,428.5c1.4,0.1,2.6,1.1,2.9,2.5c0.7-1,1.9-1.7,3.3-1.6c2.1,0.1,3.7,1.9,3.6,3.9c0,0.1,0,0.2,0,0.3
		c0.1,0,0.2,0,0.3,0c1.7,0.1,3,1.5,2.9,3.2c-0.1,1.7-1.5,3-3.2,2.9l-13.8-0.7c-1.7-0.1-3-1.5-2.9-3.2c0.1-1.7,1.5-3,3.2-2.9
		c0.4,0,0.8,0.1,1.1,0.3c-0.3-0.5-0.5-1.1-0.5-1.8C750.6,429.7,752,428.4,753.7,428.5z"/>
	<path class="st3" d="M736.9,426.7c1.4,0.1,2.6,1.1,2.9,2.5c0.7-1,1.9-1.7,3.3-1.6c2.1,0.1,3.7,1.9,3.6,3.9c0,0.1,0,0.2,0,0.3
		c0.1,0,0.2,0,0.3,0c1.7,0.1,3,1.5,2.9,3.2c-0.1,1.7-1.5,3-3.2,2.9l-13.8-0.7c-1.7-0.1-3-1.5-2.9-3.2c0.1-1.7,1.5-3,3.2-2.9
		c0.4,0,0.8,0.1,1.1,0.3c-0.3-0.5-0.5-1.1-0.5-1.8C733.8,427.9,735.2,426.6,736.9,426.7z"/>
	<path class="st3" d="M770.6,424c1.6,0.1,2.9,1.2,3.1,2.7c0.8-1.2,2.1-1.9,3.6-1.8c2.3,0.1,4,2.1,3.9,4.3c0,0.1,0,0.2,0,0.4
		c0.1,0,0.2,0,0.3,0c1.9,0.1,3.3,1.7,3.2,3.5c-0.1,1.9-1.7,3.3-3.5,3.2l-15.2-0.7c-1.9-0.1-3.3-1.7-3.2-3.5c0.1-1.9,1.7-3.3,3.5-3.2
		c0.4,0,0.8,0.1,1.2,0.3c-0.4-0.6-0.6-1.2-0.5-2C767.1,425.3,768.7,423.9,770.6,424z"/>
	<path class="st3" d="M914.1,453.4c1.4,0.3,2.4,1.5,2.5,2.8c0.8-0.9,2.1-1.4,3.5-1.2c2,0.4,3.4,2.3,3,4.4c0,0.1,0,0.2-0.1,0.3
		c0.1,0,0.2,0,0.3,0c1.7,0.3,2.8,1.9,2.5,3.6c-0.3,1.7-1.9,2.8-3.6,2.5l-13.6-2.5c-1.7-0.3-2.8-1.9-2.5-3.6c0.3-1.7,1.9-2.8,3.6-2.5
		c0.4,0.1,0.7,0.2,1.1,0.4c-0.3-0.6-0.4-1.2-0.2-1.8C910.8,454.2,912.4,453.1,914.1,453.4z"/>
	<path class="st3" d="M897.7,449.4c1.4,0.3,2.4,1.5,2.5,2.8c0.8-0.9,2.1-1.4,3.5-1.2c2,0.4,3.4,2.3,3,4.4c0,0.1,0,0.2-0.1,0.3
		c0.1,0,0.2,0,0.3,0c1.7,0.3,2.8,1.9,2.5,3.6c-0.3,1.7-1.9,2.8-3.6,2.5l-13.6-2.5c-1.7-0.3-2.8-1.9-2.5-3.6c0.3-1.7,1.9-2.8,3.6-2.5
		c0.4,0.1,0.7,0.2,1.1,0.4c-0.3-0.6-0.4-1.2-0.2-1.8C894.4,450.2,896,449.1,897.7,449.4z"/>
	<path class="st3" d="M931.4,451c1.6,0.3,2.7,1.6,2.8,3.1c0.9-1,2.4-1.6,3.8-1.3c2.2,0.4,3.7,2.6,3.3,4.8c0,0.1-0.1,0.2-0.1,0.4
		c0.1,0,0.2,0,0.3,0c1.8,0.3,3,2.1,2.7,3.9c-0.3,1.8-2.1,3-3.9,2.7l-15-2.7c-1.8-0.3-3-2.1-2.7-3.9c0.3-1.8,2.1-3,3.9-2.7
		c0.4,0.1,0.8,0.2,1.2,0.5c-0.3-0.6-0.4-1.3-0.3-2C927.8,451.9,929.6,450.7,931.4,451z"/>
	<path class="st3" d="M971.1,467c1.4,0.3,2.4,1.5,2.5,2.8c0.8-0.9,2.1-1.4,3.5-1.2c2,0.4,3.4,2.3,3,4.4c0,0.1,0,0.2-0.1,0.3
		c0.1,0,0.2,0,0.3,0c1.7,0.3,2.8,1.9,2.5,3.6c-0.3,1.7-1.9,2.8-3.6,2.5l-13.6-2.5c-1.7-0.3-2.8-1.9-2.5-3.6c0.3-1.7,1.9-2.8,3.6-2.5
		c0.4,0.1,0.7,0.2,1.1,0.4c-0.3-0.6-0.4-1.2-0.2-1.8C967.8,467.8,969.4,466.7,971.1,467z"/>
	<path class="st3" d="M954.7,463c1.4,0.3,2.4,1.5,2.5,2.8c0.8-0.9,2.1-1.4,3.5-1.2c2,0.4,3.4,2.3,3,4.4c0,0.1,0,0.2-0.1,0.3
		c0.1,0,0.2,0,0.3,0c1.7,0.3,2.8,1.9,2.5,3.6c-0.3,1.7-1.9,2.8-3.6,2.5l-13.6-2.5c-1.7-0.3-2.8-1.9-2.5-3.6c0.3-1.7,1.9-2.8,3.6-2.5
		c0.4,0.1,0.7,0.2,1.1,0.4c-0.3-0.6-0.4-1.2-0.2-1.8C951.4,463.9,953,462.7,954.7,463z"/>
	<path class="st3" d="M988.4,464.6c1.6,0.3,2.7,1.6,2.8,3.1c0.9-1,2.4-1.6,3.8-1.3c2.2,0.4,3.7,2.6,3.3,4.8c0,0.1-0.1,0.2-0.1,0.4
		c0.1,0,0.2,0,0.3,0c1.8,0.3,3,2.1,2.7,3.9c-0.3,1.8-2.1,3-3.9,2.7l-15-2.7c-1.8-0.3-3-2.1-2.7-3.9c0.3-1.8,2.1-3,3.9-2.7
		c0.4,0.1,0.8,0.2,1.2,0.5c-0.3-0.6-0.4-1.3-0.3-2C984.8,465.5,986.6,464.3,988.4,464.6z"/>
	<path class="st3" d="M1047.2,489.2c1.4,0.3,2.4,1.5,2.5,2.8c0.8-0.9,2.1-1.4,3.5-1.2c2,0.4,3.4,2.3,3,4.4c0,0.1,0,0.2-0.1,0.3
		c0.1,0,0.2,0,0.3,0c1.7,0.3,2.8,1.9,2.5,3.6c-0.3,1.7-1.9,2.8-3.6,2.5l-13.6-2.5c-1.7-0.3-2.8-1.9-2.5-3.6c0.3-1.7,1.9-2.8,3.6-2.5
		c0.4,0.1,0.7,0.2,1.1,0.4c-0.3-0.6-0.4-1.2-0.2-1.8C1044,490,1045.6,488.9,1047.2,489.2z"/>
	<path class="st3" d="M1030.8,485.2c1.4,0.3,2.4,1.5,2.5,2.8c0.8-0.9,2.1-1.4,3.5-1.2c2,0.4,3.4,2.3,3,4.4c0,0.1,0,0.2-0.1,0.3
		c0.1,0,0.2,0,0.3,0c1.7,0.3,2.8,1.9,2.5,3.6c-0.3,1.7-1.9,2.8-3.6,2.5l-13.6-2.5c-1.7-0.3-2.8-1.9-2.5-3.6c0.3-1.7,1.9-2.8,3.6-2.5
		c0.4,0.1,0.7,0.2,1.1,0.4c-0.3-0.6-0.4-1.2-0.2-1.8C1027.6,486,1029.1,484.9,1030.8,485.2z"/>
	<path class="st3" d="M1064.6,486.8c1.6,0.3,2.7,1.6,2.8,3.1c0.9-1,2.4-1.6,3.8-1.3c2.2,0.4,3.7,2.6,3.3,4.8c0,0.1-0.1,0.2-0.1,0.4
		c0.1,0,0.2,0,0.3,0c1.8,0.3,3,2.1,2.7,3.9c-0.3,1.8-2.1,3-3.9,2.7l-15-2.7c-1.8-0.3-3-2.1-2.7-3.9c0.3-1.8,2.1-3,3.9-2.7
		c0.4,0.1,0.8,0.2,1.2,0.5c-0.3-0.6-0.4-1.3-0.3-2C1061,487.7,1062.7,486.5,1064.6,486.8z"/>
	<path class="st3" d="M1130,514.4c1.4,0.3,2.4,1.5,2.5,2.8c0.8-0.9,2.1-1.4,3.5-1.2c2,0.4,3.4,2.3,3,4.4c0,0.1,0,0.2-0.1,0.3
		c0.1,0,0.2,0,0.3,0c1.7,0.3,2.8,1.9,2.5,3.6c-0.3,1.7-1.9,2.8-3.6,2.5l-13.6-2.5c-1.7-0.3-2.8-1.9-2.5-3.6c0.3-1.7,1.9-2.8,3.6-2.5
		c0.4,0.1,0.7,0.2,1.1,0.4c-0.3-0.6-0.4-1.2-0.2-1.8C1126.7,515.3,1128.3,514.1,1130,514.4z"/>
	<path class="st3" d="M1113.6,510.5c1.4,0.3,2.4,1.5,2.5,2.8c0.8-0.9,2.1-1.4,3.5-1.2c2,0.4,3.4,2.3,3,4.4c0,0.1,0,0.2-0.1,0.3
		c0.1,0,0.2,0,0.3,0c1.7,0.3,2.8,1.9,2.5,3.6c-0.3,1.7-1.9,2.8-3.6,2.5l-13.6-2.5c-1.7-0.3-2.8-1.9-2.5-3.6c0.3-1.7,1.9-2.8,3.6-2.5
		c0.4,0.1,0.7,0.2,1.1,0.4c-0.3-0.6-0.4-1.2-0.2-1.8C1110.3,511.3,1111.9,510.2,1113.6,510.5z"/>
	<path class="st3" d="M1144.9,519c1.6,0.3,2.7,1.6,2.8,3.1c0.9-1,2.4-1.6,3.8-1.3c2.2,0.4,3.7,2.6,3.3,4.8c0,0.1-0.1,0.2-0.1,0.4
		c0.1,0,0.2,0,0.3,0c1.8,0.3,3,2.1,2.7,3.9c-0.3,1.8-2.1,3-3.9,2.7l-15-2.7c-1.8-0.3-3-2.1-2.7-3.9c0.3-1.8,2.1-3,3.9-2.7
		c0.4,0.1,0.8,0.2,1.2,0.5c-0.3-0.6-0.4-1.3-0.3-2C1141.3,519.9,1143.1,518.6,1144.9,519z"/>
	<g>
		<path class="st4" d="M940.1,545l268.7,1.6c-44.9-7-315.2-120.8-559.5-111.7L649.2,545H940.1z"/>
	</g>
	<g class="st5">
		<path class="st6" d="M1208.8,546.7c-44.9-7-315.2-120.8-559.5-111.7l-0.1,52.1c140.7,4,280.6,32.5,386.5,58.6L1208.8,546.7z"/>
	</g>
	<path class="st7" d="M1254.2,380.7c11,0,20,8.1,21.6,18.6c2.3-2.4,5.5-3.9,9.1-3.9c6.1,0,11.2,4.3,12.3,10.1
		c2.7-3.8,7.2-6.3,12.2-6.3c8.3,0,15,6.7,15,14.9c0,1.5-0.2,3-0.7,4.4c1.5-1.1,3.2-1.7,5.2-1.7c4.8,0,8.7,3.9,8.7,8.7
		c0,4.8-3.9,8.7-8.7,8.7h-97.8c-6.4,0-11.6-5.2-11.6-11.6c0-6.4,5.2-11.6,11.6-11.6c1.1,0,2.1,0.2,3.1,0.4c-1.2-2.7-1.9-5.7-1.9-8.8
		C1232.3,390.5,1242.1,380.7,1254.2,380.7z"/>
	<path class="st7" d="M527.6,187.1c12.8,0,23.4,9.4,25.2,21.7c2.7-2.8,6.4-4.5,10.6-4.5c7.1,0,13,5.1,14.4,11.8
		c3.2-4.5,8.4-7.4,14.3-7.4c9.6,0,17.5,7.8,17.5,17.4c0,1.8-0.3,3.5-0.8,5.1c1.7-1.3,3.8-2,6.1-2c5.6,0,10.1,4.5,10.1,10.2
		c0,5.6-4.6,10.2-10.1,10.2H500.6c-7.5,0-13.5-6.1-13.5-13.5c0-7.5,6.1-13.5,13.5-13.5c1.2,0,2.4,0.2,3.6,0.5
		c-1.4-3.2-2.2-6.6-2.2-10.3C502,198.6,513.5,187.1,527.6,187.1z"/>
	<path class="st7" d="M945.1,250c4.4,0,8.1,3.3,8.8,7.5c0.9-1,2.2-1.6,3.7-1.6c2.5,0,4.5,1.8,5,4.1c1.1-1.6,2.9-2.6,4.9-2.6
		c3.3,0,6.1,2.7,6.1,6.1c0,0.6-0.1,1.2-0.3,1.8c0.6-0.4,1.3-0.7,2.1-0.7c1.9,0,3.5,1.6,3.5,3.5c0,1.9-1.6,3.5-3.5,3.5h-39.6
		c-2.6,0-4.7-2.1-4.7-4.7c0-2.6,2.1-4.7,4.7-4.7c0.4,0,0.8,0.1,1.2,0.2c-0.5-1.1-0.8-2.3-0.8-3.6C936.2,254,940.2,250,945.1,250z"/>
	<path class="st7" d="M701.9,283.2c2.3,0,4.2,1.6,4.7,3.7c1-1.7,2.9-2.9,5.1-2.9c3.3,0,6,2.7,6,6c0,0.2,0,0.4,0,0.5
		c0.2,0,0.3,0,0.5,0c2.7,0,4.9,2.2,4.9,4.9c0,2.7-2.2,4.9-4.9,4.9h-21.9c-2.7,0-4.9-2.2-4.9-4.9c0-2.7,2.2-4.9,4.9-4.9
		c0.6,0,1.2,0.1,1.8,0.3c-0.6-0.8-0.9-1.8-0.9-2.8C697.1,285.4,699.3,283.2,701.9,283.2z"/>
	<g>
		<rect x="974.4" y="444" class="st8" width="69.3" height="53.4"/>
		<g>
			
				<rect x="1001" y="481.7" transform="matrix(-1.836970e-16 1 -1 -1.836970e-16 1498.4563 -519.709)" class="st9" width="16.1" height="15.3"/>
			<rect x="1002.2" y="482.1" class="st10" width="13.7" height="15.3"/>
			<rect x="1002.2" y="482.1" class="st11" width="6.9" height="15.3"/>
		</g>
		<rect x="971.2" y="440.8" class="st10" width="75.8" height="3.2"/>
		<g>
			<g>
				<g>
					
						<rect x="978.9" y="450.4" transform="matrix(-1.836970e-16 1 -1 -1.836970e-16 1438.4425 -530.3124)" class="st9" width="10.9" height="7.3"/>
					<rect x="981.5" y="449.4" class="st10" width="5.7" height="9.3"/>
					<polygon class="st11" points="981.5,458.7 987.2,449.4 981.5,449.4 					"/>
				</g>
				<g>
					
						<rect x="985.5" y="450.4" transform="matrix(-1.836970e-16 1 -1 -1.836970e-16 1444.955 -536.8248)" class="st9" width="10.9" height="7.3"/>
					<rect x="988" y="449.4" class="st10" width="5.7" height="9.3"/>
					<polygon class="st11" points="988,458.7 993.7,449.4 988,449.4 					"/>
				</g>
			</g>
			<g>
				<g>
					
						<rect x="1000.4" y="450.4" transform="matrix(-1.836970e-16 1 -1 -1.836970e-16 1459.8916 -551.7615)" class="st9" width="10.9" height="7.3"/>
					<rect x="1003" y="449.4" class="st10" width="5.7" height="9.3"/>
					<polygon class="st11" points="1003,458.7 1008.7,449.4 1003,449.4 					"/>
				</g>
				<g>
					
						<rect x="1006.9" y="450.4" transform="matrix(-1.836970e-16 1 -1 -1.836970e-16 1466.4039 -558.2738)" class="st9" width="10.9" height="7.3"/>
					<rect x="1009.5" y="449.4" class="st10" width="5.7" height="9.3"/>
					<polygon class="st11" points="1009.5,458.7 1015.2,449.4 1009.5,449.4 					"/>
				</g>
			</g>
			<g>
				<g>
					
						<rect x="1021.8" y="450.4" transform="matrix(-1.836970e-16 1 -1 -1.836970e-16 1481.3407 -573.2106)" class="st9" width="10.9" height="7.3"/>
					<rect x="1024.4" y="449.4" class="st10" width="5.7" height="9.3"/>
					<polygon class="st11" points="1024.4,458.7 1030.1,449.4 1024.4,449.4 					"/>
				</g>
				<g>
					
						<rect x="1028.4" y="450.4" transform="matrix(-1.836970e-16 1 -1 -1.836970e-16 1487.8534 -579.7233)" class="st9" width="10.9" height="7.3"/>
					<rect x="1030.9" y="449.4" class="st10" width="5.7" height="9.3"/>
					<polygon class="st11" points="1030.9,458.7 1036.6,449.4 1030.9,449.4 					"/>
				</g>
			</g>
		</g>
		<g>
			<g>
				<g>
					
						<rect x="978.9" y="465.9" transform="matrix(-1.836970e-16 1 -1 -1.836970e-16 1453.9241 -514.8309)" class="st9" width="10.9" height="7.3"/>
					<rect x="981.5" y="464.9" class="st10" width="5.7" height="9.3"/>
					<polygon class="st11" points="981.5,474.2 987.2,464.9 981.5,464.9 					"/>
				</g>
				<g>
					
						<rect x="985.5" y="465.9" transform="matrix(-1.836970e-16 1 -1 -1.836970e-16 1460.4364 -521.3433)" class="st9" width="10.9" height="7.3"/>
					<rect x="988" y="464.9" class="st10" width="5.7" height="9.3"/>
					<polygon class="st11" points="988,474.2 993.7,464.9 988,464.9 					"/>
				</g>
			</g>
			<g>
				<g>
					
						<rect x="1000.4" y="465.9" transform="matrix(-1.836970e-16 1 -1 -1.836970e-16 1475.373 -536.28)" class="st9" width="10.9" height="7.3"/>
					<rect x="1003" y="464.9" class="st10" width="5.7" height="9.3"/>
					<polygon class="st11" points="1003,474.2 1008.7,464.9 1003,464.9 					"/>
				</g>
				<g>
					
						<rect x="1006.9" y="465.9" transform="matrix(-1.836970e-16 1 -1 -1.836970e-16 1481.8854 -542.7923)" class="st9" width="10.9" height="7.3"/>
					<rect x="1009.5" y="464.9" class="st10" width="5.7" height="9.3"/>
					<polygon class="st11" points="1009.5,474.2 1015.2,464.9 1009.5,464.9 					"/>
				</g>
			</g>
			<g>
				<g>
					
						<rect x="1021.8" y="465.9" transform="matrix(-1.836970e-16 1 -1 -1.836970e-16 1496.8223 -557.7292)" class="st9" width="10.9" height="7.3"/>
					<rect x="1024.4" y="464.9" class="st10" width="5.7" height="9.3"/>
					<polygon class="st11" points="1024.4,474.2 1030.1,464.9 1024.4,464.9 					"/>
				</g>
				<g>
					
						<rect x="1028.4" y="465.9" transform="matrix(-1.836970e-16 1 -1 -1.836970e-16 1503.335 -564.2418)" class="st9" width="10.9" height="7.3"/>
					<rect x="1030.9" y="464.9" class="st10" width="5.7" height="9.3"/>
					<polygon class="st11" points="1030.9,474.2 1036.6,464.9 1030.9,464.9 					"/>
				</g>
			</g>
		</g>
		<g>
			
				<rect x="1023.3" y="481.7" transform="matrix(-1.836970e-16 1 -1 -1.836970e-16 1520.7957 -537.4412)" class="st9" width="11.5" height="20"/>
			<rect x="1019.9" y="486.7" class="st10" width="18.4" height="10.7"/>
			<g>
				<rect x="1020.8" y="487.5" class="st12" width="16.6" height="0.8"/>
				<rect x="1020.8" y="489.3" class="st12" width="16.6" height="0.8"/>
				<rect x="1020.8" y="491.2" class="st12" width="16.6" height="0.8"/>
				<rect x="1020.8" y="493" class="st12" width="16.6" height="0.8"/>
				<rect x="1020.8" y="494.8" class="st12" width="16.6" height="0.8"/>
				<rect x="1020.8" y="496.6" class="st12" width="16.6" height="0.8"/>
			</g>
		</g>
		<g>
			
				<rect x="983.3" y="481.7" transform="matrix(-1.836970e-16 1 -1 -1.836970e-16 1480.725 -497.3705)" class="st9" width="11.5" height="20"/>
			
				<rect x="979.9" y="486.7" transform="matrix(-1 -1.224647e-16 1.224647e-16 -1 1978.0939 984.1511)" class="st10" width="18.4" height="10.7"/>
			<g>
				<rect x="980.7" y="487.5" class="st12" width="16.6" height="0.8"/>
				<rect x="980.7" y="489.3" class="st12" width="16.6" height="0.8"/>
				<rect x="980.7" y="491.2" class="st12" width="16.6" height="0.8"/>
				<rect x="980.7" y="493" class="st12" width="16.6" height="0.8"/>
				<rect x="980.7" y="494.8" class="st12" width="16.6" height="0.8"/>
				<rect x="980.7" y="496.6" class="st12" width="16.6" height="0.8"/>
			</g>
		</g>
		<polygon class="st13" points="1042.5,430.3 975.7,430.3 971.2,440.8 1047,440.8 		"/>
	</g>
	<g>
		<rect x="674.2" y="395.1" class="st8" width="69.3" height="53.4"/>
		<g>
			
				<rect x="700.7" y="432.8" transform="matrix(-1.836970e-16 1 -1 -1.836970e-16 1149.2992 -268.3103)" class="st9" width="16.1" height="15.3"/>
			<rect x="701.9" y="433.2" class="st10" width="13.7" height="15.3"/>
			<rect x="701.9" y="433.2" class="st11" width="6.9" height="15.3"/>
		</g>
		<rect x="670.9" y="392" class="st10" width="75.8" height="3.2"/>
		<g>
			<g>
				<g>
					
						<rect x="678.7" y="401.5" transform="matrix(-1.836970e-16 1 -1 -1.836970e-16 1089.2856 -278.9135)" class="st9" width="10.9" height="7.3"/>
					<rect x="681.2" y="400.5" class="st10" width="5.7" height="9.3"/>
					<polygon class="st11" points="681.2,409.8 687,400.5 681.2,400.5 					"/>
				</g>
				<g>
					
						<rect x="685.2" y="401.5" transform="matrix(-1.836970e-16 1 -1 -1.836970e-16 1095.798 -285.4259)" class="st9" width="10.9" height="7.3"/>
					<rect x="687.8" y="400.5" class="st10" width="5.7" height="9.3"/>
					<polygon class="st11" points="687.8,409.8 693.5,400.5 687.8,400.5 					"/>
				</g>
			</g>
			<g>
				<g>
					
						<rect x="700.1" y="401.5" transform="matrix(-1.836970e-16 1 -1 -1.836970e-16 1110.7346 -300.3625)" class="st9" width="10.9" height="7.3"/>
					<rect x="702.7" y="400.5" class="st10" width="5.7" height="9.3"/>
					<polygon class="st11" points="702.7,409.8 708.4,400.5 702.7,400.5 					"/>
				</g>
				<g>
					
						<rect x="706.6" y="401.5" transform="matrix(-1.836970e-16 1 -1 -1.836970e-16 1117.2469 -306.8749)" class="st9" width="10.9" height="7.3"/>
					<rect x="709.2" y="400.5" class="st10" width="5.7" height="9.3"/>
					<polygon class="st11" points="709.2,409.8 714.9,400.5 709.2,400.5 					"/>
				</g>
			</g>
			<g>
				<g>
					
						<rect x="721.6" y="401.5" transform="matrix(-1.836970e-16 1 -1 -1.836970e-16 1132.1838 -321.8117)" class="st9" width="10.9" height="7.3"/>
					<rect x="724.1" y="400.5" class="st10" width="5.7" height="9.3"/>
					<polygon class="st11" points="724.1,409.8 729.9,400.5 724.1,400.5 					"/>
				</g>
				<g>
					
						<rect x="728.1" y="401.5" transform="matrix(-1.836970e-16 1 -1 -1.836970e-16 1138.6965 -328.3244)" class="st9" width="10.9" height="7.3"/>
					<rect x="730.7" y="400.5" class="st10" width="5.7" height="9.3"/>
					<polygon class="st11" points="730.7,409.8 736.4,400.5 730.7,400.5 					"/>
				</g>
			</g>
		</g>
		<g>
			<g>
				<g>
					
						<rect x="678.7" y="417" transform="matrix(-1.836970e-16 1 -1 -1.836970e-16 1104.767 -263.4321)" class="st9" width="10.9" height="7.3"/>
					<rect x="681.2" y="416" class="st10" width="5.7" height="9.3"/>
					<polygon class="st11" points="681.2,425.3 687,416 681.2,416 					"/>
				</g>
				<g>
					
						<rect x="685.2" y="417" transform="matrix(-1.836970e-16 1 -1 -1.836970e-16 1111.2793 -269.9445)" class="st9" width="10.9" height="7.3"/>
					<rect x="687.8" y="416" class="st10" width="5.7" height="9.3"/>
					<polygon class="st11" points="687.8,425.3 693.5,416 687.8,416 					"/>
				</g>
			</g>
			<g>
				<g>
					
						<rect x="700.1" y="417" transform="matrix(-1.836970e-16 1 -1 -1.836970e-16 1126.2161 -284.8811)" class="st9" width="10.9" height="7.3"/>
					<rect x="702.7" y="416" class="st10" width="5.7" height="9.3"/>
					<polygon class="st11" points="702.7,425.3 708.4,416 702.7,416 					"/>
				</g>
				<g>
					
						<rect x="706.6" y="417" transform="matrix(-1.836970e-16 1 -1 -1.836970e-16 1132.7284 -291.3935)" class="st9" width="10.9" height="7.3"/>
					<rect x="709.2" y="416" class="st10" width="5.7" height="9.3"/>
					<polygon class="st11" points="709.2,425.3 714.9,416 709.2,416 					"/>
				</g>
			</g>
			<g>
				<g>
					
						<rect x="721.6" y="417" transform="matrix(-1.836970e-16 1 -1 -1.836970e-16 1147.6652 -306.3303)" class="st9" width="10.9" height="7.3"/>
					<rect x="724.1" y="416" class="st10" width="5.7" height="9.3"/>
					<polygon class="st11" points="724.1,425.3 729.9,416 724.1,416 					"/>
				</g>
				<g>
					
						<rect x="728.1" y="417" transform="matrix(-1.836970e-16 1 -1 -1.836970e-16 1154.1779 -312.843)" class="st9" width="10.9" height="7.3"/>
					<rect x="730.7" y="416" class="st10" width="5.7" height="9.3"/>
					<polygon class="st11" points="730.7,425.3 736.4,416 730.7,416 					"/>
				</g>
			</g>
		</g>
		<g>
			
				<rect x="723.1" y="432.8" transform="matrix(-1.836970e-16 1 -1 -1.836970e-16 1171.6387 -286.0424)" class="st9" width="11.5" height="20"/>
			<rect x="719.7" y="437.8" class="st10" width="18.4" height="10.7"/>
			<g>
				<rect x="720.5" y="438.6" class="st12" width="16.6" height="0.8"/>
				<rect x="720.5" y="440.5" class="st12" width="16.6" height="0.8"/>
				<rect x="720.5" y="442.3" class="st12" width="16.6" height="0.8"/>
				<rect x="720.5" y="444.1" class="st12" width="16.6" height="0.8"/>
				<rect x="720.5" y="445.9" class="st12" width="16.6" height="0.8"/>
				<rect x="720.5" y="447.8" class="st12" width="16.6" height="0.8"/>
			</g>
		</g>
		<g>
			
				<rect x="683" y="432.8" transform="matrix(-1.836970e-16 1 -1 -1.836970e-16 1131.568 -245.9717)" class="st9" width="11.5" height="20"/>
			
				<rect x="679.6" y="437.8" transform="matrix(-1 -1.224647e-16 1.224647e-16 -1 1377.538 886.3929)" class="st10" width="18.4" height="10.7"/>
			<g>
				<rect x="680.5" y="438.6" class="st12" width="16.6" height="0.8"/>
				<rect x="680.5" y="440.5" class="st12" width="16.6" height="0.8"/>
				<rect x="680.5" y="442.3" class="st12" width="16.6" height="0.8"/>
				<rect x="680.5" y="444.1" class="st12" width="16.6" height="0.8"/>
				<rect x="680.5" y="445.9" class="st12" width="16.6" height="0.8"/>
				<rect x="680.5" y="447.8" class="st12" width="16.6" height="0.8"/>
			</g>
		</g>
		<polygon class="st13" points="742.2,381.4 675.4,381.4 670.9,392 746.7,392 		"/>
	</g>
	<path class="st14" d="M981.2,485.9c1.7,0,3.2,1.2,3.6,2.8c0.8-1.3,2.2-2.2,3.9-2.2c2.5,0,4.5,2,4.5,4.5c0,0.1,0,0.3,0,0.4
		c0.1,0,0.2,0,0.4,0c2,0,3.7,1.6,3.7,3.7c0,2-1.6,3.7-3.7,3.7h-16.6c-2,0-3.7-1.6-3.7-3.7c0-2,1.6-3.7,3.7-3.7
		c0.5,0,0.9,0.1,1.3,0.3c-0.4-0.6-0.7-1.3-0.7-2.1C977.5,487.6,979.1,485.9,981.2,485.9z"/>
	<g>
		<rect x="1052.2" y="407.3" class="st15" width="65.6" height="111.3"/>
		<g>
			
				<rect x="1073.7" y="499" transform="matrix(-1.836970e-16 1 -1 -1.836970e-16 1592.3705 -576.6761)" class="st16" width="21.7" height="17.6"/>
			<rect x="1076.8" y="498.1" class="st15" width="15.5" height="20.6"/>
			<rect x="1076.8" y="498.1" class="st11" width="7.7" height="20.6"/>
		</g>
		<rect x="1047.8" y="403.1" class="st17" width="74.3" height="4.3"/>
		<g>
			<g>
				<g>
					
						<rect x="1059" y="415.9" transform="matrix(-1.836970e-16 1 -1 -1.836970e-16 1487.0746 -645.455)" class="st16" width="14.6" height="9.8"/>
					<rect x="1062.4" y="414.6" class="st18" width="7.7" height="12.4"/>
					<polygon class="st11" points="1062.4,427 1070.1,414.6 1062.4,414.6 					"/>
				</g>
				<g>
					
						<rect x="1067.7" y="415.9" transform="matrix(-1.836970e-16 1 -1 -1.836970e-16 1495.8096 -654.19)" class="st16" width="14.6" height="9.8"/>
					<rect x="1071.2" y="414.6" class="st18" width="7.7" height="12.4"/>
					<polygon class="st11" points="1071.2,427 1078.8,414.6 1071.2,414.6 					"/>
				</g>
			</g>
			<g>
				<g>
					
						<rect x="1087.7" y="415.9" transform="matrix(-1.836970e-16 1 -1 -1.836970e-16 1515.8438 -674.2242)" class="st16" width="14.6" height="9.8"/>
					<rect x="1091.2" y="414.6" class="st18" width="7.7" height="12.4"/>
					<polygon class="st11" points="1091.2,427 1098.9,414.6 1091.2,414.6 					"/>
				</g>
				<g>
					
						<rect x="1096.5" y="415.9" transform="matrix(-1.836970e-16 1 -1 -1.836970e-16 1524.5787 -682.9591)" class="st16" width="14.6" height="9.8"/>
					<rect x="1099.9" y="414.6" class="st18" width="7.7" height="12.4"/>
					<polygon class="st11" points="1099.9,427 1107.6,414.6 1099.9,414.6 					"/>
				</g>
			</g>
		</g>
		<g>
			<g>
				<g>
					
						<rect x="1059" y="436.7" transform="matrix(-1.836970e-16 1 -1 -1.836970e-16 1507.8396 -624.6899)" class="st16" width="14.6" height="9.8"/>
					<rect x="1062.4" y="435.4" class="st18" width="7.7" height="12.4"/>
					<polygon class="st11" points="1062.4,447.8 1070.1,435.4 1062.4,435.4 					"/>
				</g>
				<g>
					
						<rect x="1067.7" y="436.7" transform="matrix(-1.836970e-16 1 -1 -1.836970e-16 1516.5747 -633.425)" class="st16" width="14.6" height="9.8"/>
					<rect x="1071.2" y="435.4" class="st18" width="7.7" height="12.4"/>
					<polygon class="st11" points="1071.2,447.8 1078.8,435.4 1071.2,435.4 					"/>
				</g>
			</g>
			<g>
				<g>
					
						<rect x="1087.7" y="436.7" transform="matrix(-1.836970e-16 1 -1 -1.836970e-16 1536.6088 -653.4591)" class="st16" width="14.6" height="9.8"/>
					<rect x="1091.2" y="435.4" class="st18" width="7.7" height="12.4"/>
					<polygon class="st11" points="1091.2,447.8 1098.9,435.4 1091.2,435.4 					"/>
				</g>
				<g>
					
						<rect x="1096.5" y="436.7" transform="matrix(-1.836970e-16 1 -1 -1.836970e-16 1545.3438 -662.194)" class="st16" width="14.6" height="9.8"/>
					<rect x="1099.9" y="435.4" class="st18" width="7.7" height="12.4"/>
					<polygon class="st11" points="1099.9,447.8 1107.6,435.4 1099.9,435.4 					"/>
				</g>
			</g>
		</g>
		<g>
			<g>
				<g>
					
						<rect x="1059" y="457.7" transform="matrix(-1.836970e-16 1 -1 -1.836970e-16 1528.8215 -603.7081)" class="st16" width="14.6" height="9.8"/>
					<rect x="1062.4" y="456.3" class="st18" width="7.7" height="12.4"/>
					<polygon class="st11" points="1062.4,468.8 1070.1,456.3 1062.4,456.3 					"/>
				</g>
				<g>
					
						<rect x="1067.7" y="457.7" transform="matrix(-1.836970e-16 1 -1 -1.836970e-16 1537.5565 -612.4431)" class="st16" width="14.6" height="9.8"/>
					<rect x="1071.2" y="456.3" class="st18" width="7.7" height="12.4"/>
					<polygon class="st11" points="1071.2,468.8 1078.8,456.3 1071.2,456.3 					"/>
				</g>
			</g>
			<g>
				<g>
					
						<rect x="1087.7" y="457.7" transform="matrix(-1.836970e-16 1 -1 -1.836970e-16 1557.5907 -632.4772)" class="st16" width="14.6" height="9.8"/>
					<rect x="1091.2" y="456.3" class="st18" width="7.7" height="12.4"/>
					<polygon class="st11" points="1091.2,468.8 1098.9,456.3 1091.2,456.3 					"/>
				</g>
				<g>
					
						<rect x="1096.5" y="457.7" transform="matrix(-1.836970e-16 1 -1 -1.836970e-16 1566.3256 -641.2122)" class="st16" width="14.6" height="9.8"/>
					<rect x="1099.9" y="456.3" class="st18" width="7.7" height="12.4"/>
					<polygon class="st11" points="1099.9,468.8 1107.6,456.3 1099.9,456.3 					"/>
				</g>
			</g>
		</g>
		<g>
			<g>
				<g>
					
						<rect x="1059" y="478.4" transform="matrix(-1.836970e-16 1 -1 -1.836970e-16 1549.5865 -582.9431)" class="st16" width="14.6" height="9.8"/>
					<rect x="1062.4" y="477.1" class="st18" width="7.7" height="12.4"/>
					<polygon class="st11" points="1062.4,489.5 1070.1,477.1 1062.4,477.1 					"/>
				</g>
				<g>
					
						<rect x="1067.7" y="478.4" transform="matrix(-1.836970e-16 1 -1 -1.836970e-16 1558.3215 -591.678)" class="st16" width="14.6" height="9.8"/>
					<rect x="1071.2" y="477.1" class="st18" width="7.7" height="12.4"/>
					<polygon class="st11" points="1071.2,489.5 1078.8,477.1 1071.2,477.1 					"/>
				</g>
			</g>
			<g>
				<g>
					
						<rect x="1087.7" y="478.4" transform="matrix(-1.836970e-16 1 -1 -1.836970e-16 1578.3557 -611.7122)" class="st16" width="14.6" height="9.8"/>
					<rect x="1091.2" y="477.1" class="st18" width="7.7" height="12.4"/>
					<polygon class="st11" points="1091.2,489.5 1098.9,477.1 1091.2,477.1 					"/>
				</g>
				<g>
					
						<rect x="1096.5" y="478.4" transform="matrix(-1.836970e-16 1 -1 -1.836970e-16 1587.0907 -620.4471)" class="st16" width="14.6" height="9.8"/>
					<rect x="1099.9" y="477.1" class="st18" width="7.7" height="12.4"/>
					<polygon class="st11" points="1099.9,489.5 1107.6,477.1 1099.9,477.1 					"/>
				</g>
			</g>
		</g>
		<polygon class="st16" points="1116.1,389 1053.9,389 1047.8,403.1 1122.2,403.1 		"/>
	</g>
	<path class="st14" d="M1113.8,510.5c1.7,0,3.2,1.2,3.6,2.8c0.8-1.3,2.2-2.2,3.9-2.2c2.5,0,4.5,2,4.5,4.5c0,0.1,0,0.3,0,0.4
		c0.1,0,0.2,0,0.4,0c2,0,3.7,1.6,3.7,3.7c0,2-1.6,3.7-3.7,3.7h-16.6c-2,0-3.7-1.6-3.7-3.7c0-2,1.6-3.7,3.7-3.7
		c0.5,0,0.9,0.1,1.3,0.3c-0.4-0.6-0.7-1.3-0.7-2.1C1110.1,512.2,1111.8,510.5,1113.8,510.5z"/>
	<path class="st3" d="M1064.8,510.3c1.7,0,3.2,1.2,3.6,2.8c0.8-1.3,2.2-2.2,3.9-2.2c2.5,0,4.5,2,4.5,4.5c0,0.1,0,0.3,0,0.4
		c0.1,0,0.2,0,0.4,0c2,0,3.7,1.6,3.7,3.7c0,2-1.6,3.7-3.7,3.7h-16.6c-2,0-3.7-1.6-3.7-3.7c0-2,1.6-3.7,3.7-3.7
		c0.5,0,0.9,0.1,1.3,0.3c-0.4-0.6-0.7-1.3-0.7-2.1C1061.1,512,1062.7,510.3,1064.8,510.3z"/>
	<path class="st14" d="M1049.6,514.4c1.7,0,3.2,1.2,3.6,2.8c0.8-1.3,2.2-2.2,3.9-2.2c2.5,0,4.5,2,4.5,4.5c0,0.1,0,0.3,0,0.4
		c0.1,0,0.2,0,0.4,0c2,0,3.7,1.6,3.7,3.7c0,2-1.6,3.7-3.7,3.7h-16.6c-2,0-3.7-1.6-3.7-3.7c0-2,1.6-3.7,3.7-3.7
		c0.5,0,0.9,0.1,1.3,0.3c-0.4-0.6-0.7-1.3-0.7-2.1C1046,516.1,1047.6,514.4,1049.6,514.4z"/>
	<g>
		<rect x="918.3" y="397.7" class="st19" width="49.8" height="85.8"/>
		<rect x="915.4" y="392.8" class="st10" width="55.7" height="4.8"/>
		<rect x="915.4" y="390.4" class="st13" width="55.7" height="2.4"/>
		<rect x="918.3" y="454.6" class="st20" width="49.8" height="4.8"/>
		<g>
			<g>
				
					<rect x="924.5" y="406.6" transform="matrix(-1.836970e-16 1 -1 -1.836970e-16 1345.6285 -520.7234)" class="st9" width="17.3" height="11.7"/>
				<rect x="928.6" y="405.1" class="st10" width="9.1" height="14.8"/>
				<polygon class="st11" points="928.6,419.8 937.7,405.1 928.6,405.1 				"/>
			</g>
			<g>
				
					<rect x="944.7" y="406.6" transform="matrix(-1.836970e-16 1 -1 -1.836970e-16 1365.8158 -540.9106)" class="st9" width="17.3" height="11.6"/>
				<rect x="948.8" y="405.1" class="st10" width="9.1" height="14.8"/>
				<polygon class="st11" points="948.8,419.8 957.9,405.1 948.8,405.1 				"/>
			</g>
		</g>
		<g>
			<g>
				
					<rect x="924.5" y="434.8" transform="matrix(-1.836970e-16 1 -1 -1.836970e-16 1373.7711 -492.5807)" class="st9" width="17.3" height="11.7"/>
				<rect x="928.6" y="433.2" class="st10" width="9.1" height="14.8"/>
				<polygon class="st11" points="928.6,448 937.7,433.2 928.6,433.2 				"/>
			</g>
			<g>
				
					<rect x="944.7" y="434.8" transform="matrix(-1.836970e-16 1 -1 -1.836970e-16 1393.9584 -512.768)" class="st9" width="17.3" height="11.6"/>
				<rect x="948.8" y="433.2" class="st10" width="9.1" height="14.8"/>
				<polygon class="st11" points="948.8,448 957.9,433.2 948.8,433.2 				"/>
			</g>
		</g>
		<g>
			
				<rect x="934.1" y="458.4" transform="matrix(-1.836970e-16 1 -1 -1.836970e-16 1417.5847 -468.9541)" class="st9" width="18.4" height="31.8"/>
			<rect x="928.6" y="466.4" class="st10" width="29.3" height="17.1"/>
			<g>
				<rect x="930" y="467.7" class="st12" width="26.5" height="1.3"/>
				<rect x="930" y="470.6" class="st12" width="26.5" height="1.3"/>
				<rect x="930" y="473.5" class="st12" width="26.5" height="1.3"/>
				<rect x="930" y="476.4" class="st12" width="26.5" height="1.3"/>
				<rect x="930" y="479.3" class="st12" width="26.5" height="1.3"/>
				<rect x="930" y="482.2" class="st12" width="26.5" height="1.3"/>
			</g>
		</g>
	</g>
	<path class="st14" d="M682,442.1c1.5,0,2.7,1,3,2.4c0.7-1.1,1.9-1.8,3.3-1.8c2.1,0,3.8,1.7,3.8,3.8c0,0.1,0,0.2,0,0.3
		c0.1,0,0.2,0,0.3,0c1.7,0,3.1,1.4,3.1,3.1c0,1.7-1.4,3.1-3.1,3.1h-14.1c-1.7,0-3.1-1.4-3.1-3.1c0-1.7,1.4-3.1,3.1-3.1
		c0.4,0,0.8,0.1,1.1,0.2c-0.4-0.5-0.6-1.1-0.6-1.8C678.8,443.5,680.2,442.1,682,442.1z"/>
	<path class="st14" d="M730.2,444.5c1.5,0,2.7,1,3,2.4c0.7-1.1,1.9-1.8,3.3-1.8c2.1,0,3.8,1.7,3.8,3.8c0,0.1,0,0.2,0,0.3
		c0.1,0,0.2,0,0.3,0c1.7,0,3.1,1.4,3.1,3.1c0,1.7-1.4,3.1-3.1,3.1h-14.1c-1.7,0-3.1-1.4-3.1-3.1c0-1.7,1.4-3.1,3.1-3.1
		c0.4,0,0.8,0.1,1.1,0.2c-0.4-0.5-0.6-1.1-0.6-1.8C727,445.9,728.4,444.5,730.2,444.5z"/>
	<g>
		<g>
			<path class="st21" d="M682.4,470.2c-2.8,1.6-7.4,1.6-10.2,0c-2.8-1.6-2.8-4.3,0-5.9c2.8-1.6,7.4-1.6,10.2,0
				C685.2,465.9,685.2,468.5,682.4,470.2z"/>
			<g>
				<path class="st22" d="M679.5,466.7c0,1.2-1,2.2-2.2,2.2l0,0c-1.2,0-2.2-1-2.2-2.2v-12.4c0-1.2,1-2.2,2.2-2.2l0,0
					c1.2,0,2.2,1,2.2,2.2V466.7z"/>
				<path class="st23" d="M677.3,461.4c0.8,0,1.5-0.1,2.2-0.2v-6.9c0-1.2-1-2.2-2.2-2.2c-1.2,0-2.2,1-2.2,2.2v6.9
					C675.9,461.3,676.6,461.4,677.3,461.4z"/>
				<path class="st24" d="M687.1,449.1c0,5.4-4.4,9.8-9.8,9.8c-5.4,0-9.8-4.4-9.8-9.8c0-5.4,4.4-27,9.8-27
					C682.8,422.1,687.1,443.7,687.1,449.1z"/>
				<path class="st25" d="M677.3,422.1c-0.3,0-0.5,0-0.8,0.1c2.5,6.8,4.2,16.2,4.2,19.5c0,5.4-4.4,9.8-9.8,9.8
					c-1.1,0-2.2-0.2-3.2-0.5c0.9,4.5,4.8,7.9,9.6,7.9c5.4,0,9.8-4.4,9.8-9.8C687.1,443.7,682.8,422.1,677.3,422.1z"/>
			</g>
		</g>
		
			<ellipse transform="matrix(0.2325 -0.9726 0.9726 0.2325 90.0127 990.4681)" class="st26" cx="672.6" cy="438.2" rx="6.8" ry="1.4"/>
	</g>
	<g>
		<g>
			<path class="st21" d="M747.7,472.8c-2.8,1.6-7.4,1.6-10.2,0c-2.8-1.6-2.8-4.3,0-5.9c2.8-1.6,7.4-1.6,10.2,0
				C750.5,468.6,750.5,471.2,747.7,472.8z"/>
			<g>
				<path class="st22" d="M744.8,469.3c0,1.2-1,2.2-2.2,2.2l0,0c-1.2,0-2.2-1-2.2-2.2v-12.4c0-1.2,1-2.2,2.2-2.2l0,0
					c1.2,0,2.2,1,2.2,2.2V469.3z"/>
				<path class="st23" d="M742.6,464.1c0.8,0,1.5-0.1,2.2-0.2v-6.9c0-1.2-1-2.2-2.2-2.2c-1.2,0-2.2,1-2.2,2.2v6.9
					C741.1,464,741.8,464.1,742.6,464.1z"/>
				<path class="st24" d="M752.4,451.7c0,5.4-4.4,9.8-9.8,9.8c-5.4,0-9.8-4.4-9.8-9.8c0-5.4,4.4-27,9.8-27
					C748,424.7,752.4,446.3,752.4,451.7z"/>
				<path class="st25" d="M742.6,424.7c-0.3,0-0.5,0-0.8,0.1c2.5,6.8,4.2,16.2,4.2,19.5c0,5.4-4.4,9.8-9.8,9.8
					c-1.1,0-2.2-0.2-3.2-0.5c0.9,4.5,4.8,7.9,9.6,7.9c5.4,0,9.8-4.4,9.8-9.8C752.4,446.3,748,424.7,742.6,424.7z"/>
			</g>
		</g>
		
			<ellipse transform="matrix(0.2325 -0.9726 0.9726 0.2325 137.507 1055.9456)" class="st26" cx="737.8" cy="440.8" rx="6.8" ry="1.4"/>
	</g>
	<path class="st3" d="M964.5,485.3c1.7,0,3.2,1.2,3.6,2.8c0.8-1.3,2.2-2.2,3.9-2.2c2.5,0,4.5,2,4.5,4.5c0,0.1,0,0.3,0,0.4
		c0.1,0,0.2,0,0.4,0c2,0,3.7,1.6,3.7,3.7c0,2-1.6,3.7-3.7,3.7h-16.6c-2,0-3.7-1.6-3.7-3.7c0-2,1.6-3.7,3.7-3.7
		c0.5,0,0.9,0.1,1.3,0.3c-0.4-0.6-0.7-1.3-0.7-2.1C960.9,486.9,962.5,485.3,964.5,485.3z"/>
	<g>
		<g>
			<path class="st21" d="M924.3,494c-2.8,1.6-7.4,1.6-10.2,0c-2.8-1.6-2.8-4.3,0-5.9c2.8-1.6,7.4-1.6,10.2,0
				C927.1,489.7,927.1,492.4,924.3,494z"/>
			<g>
				<path class="st22" d="M921.4,490.5c0,1.2-1,2.2-2.2,2.2l0,0c-1.2,0-2.2-1-2.2-2.2v-12.4c0-1.2,1-2.2,2.2-2.2l0,0
					c1.2,0,2.2,1,2.2,2.2V490.5z"/>
				<path class="st23" d="M919.2,485.2c0.8,0,1.5-0.1,2.2-0.2v-6.9c0-1.2-1-2.2-2.2-2.2c-1.2,0-2.2,1-2.2,2.2v6.9
					C917.8,485.2,918.5,485.2,919.2,485.2z"/>
				<path class="st24" d="M929,472.9c0,5.4-4.4,9.8-9.8,9.8c-5.4,0-9.8-4.4-9.8-9.8c0-5.4,4.4-27,9.8-27
					C924.6,445.9,929,467.5,929,472.9z"/>
				<path class="st25" d="M919.2,445.9c-0.3,0-0.5,0-0.8,0.1c2.5,6.8,4.2,16.2,4.2,19.5c0,5.4-4.4,9.8-9.8,9.8
					c-1.1,0-2.2-0.2-3.2-0.5c0.9,4.5,4.8,7.9,9.6,7.9c5.4,0,9.8-4.4,9.8-9.8C929,467.5,924.6,445.9,919.2,445.9z"/>
			</g>
		</g>
		
			<ellipse transform="matrix(0.2325 -0.9726 0.9726 0.2325 252.4686 1244.0222)" class="st26" cx="914.5" cy="462" rx="6.8" ry="1.4"/>
	</g>
	<g>
		<g>
			<path class="st21" d="M979.1,506.9c-2.8,1.6-7.4,1.6-10.2,0c-2.8-1.6-2.8-4.3,0-5.9c2.8-1.6,7.4-1.6,10.2,0
				C981.9,502.7,981.9,505.3,979.1,506.9z"/>
			<g>
				<path class="st22" d="M976.2,503.5c0,1.2-1,2.2-2.2,2.2l0,0c-1.2,0-2.2-1-2.2-2.2v-12.4c0-1.2,1-2.2,2.2-2.2l0,0
					c1.2,0,2.2,1,2.2,2.2V503.5z"/>
				<path class="st23" d="M974,498.2c0.8,0,1.5-0.1,2.2-0.2v-6.9c0-1.2-1-2.2-2.2-2.2c-1.2,0-2.2,1-2.2,2.2v6.9
					C972.5,498.1,973.2,498.2,974,498.2z"/>
				<path class="st24" d="M983.8,485.9c0,5.4-4.4,9.8-9.8,9.8c-5.4,0-9.8-4.4-9.8-9.8c0-5.4,4.4-27,9.8-27
					C979.4,458.9,983.8,480.5,983.8,485.9z"/>
				<path class="st25" d="M974,458.9c-0.3,0-0.5,0-0.8,0.1c2.5,6.8,4.2,16.2,4.2,19.5c0,5.4-4.4,9.8-9.8,9.8c-1.1,0-2.2-0.2-3.2-0.5
					c0.9,4.5,4.8,7.9,9.6,7.9c5.4,0,9.8-4.4,9.8-9.8C983.8,480.5,979.4,458.9,974,458.9z"/>
			</g>
		</g>
		
			<ellipse transform="matrix(0.2325 -0.9726 0.9726 0.2325 281.9103 1307.2131)" class="st26" cx="969.3" cy="475" rx="6.8" ry="1.4"/>
	</g>
	<g>
		<g>
			<path class="st21" d="M1044.3,518.2c-2.8,1.6-7.4,1.6-10.2,0c-2.8-1.6-2.8-4.3,0-5.9c2.8-1.6,7.4-1.6,10.2,0
				C1047.1,514,1047.1,516.6,1044.3,518.2z"/>
			<g>
				<path class="st22" d="M1041.4,514.8c0,1.2-1,2.2-2.2,2.2l0,0c-1.2,0-2.2-1-2.2-2.2v-12.4c0-1.2,1-2.2,2.2-2.2l0,0
					c1.2,0,2.2,1,2.2,2.2V514.8z"/>
				<path class="st23" d="M1039.2,509.5c0.8,0,1.5-0.1,2.2-0.2v-6.9c0-1.2-1-2.2-2.2-2.2c-1.2,0-2.2,1-2.2,2.2v6.9
					C1037.7,509.4,1038.5,509.5,1039.2,509.5z"/>
				<path class="st24" d="M1049,497.2c0,5.4-4.4,9.8-9.8,9.8c-5.4,0-9.8-4.4-9.8-9.8c0-5.4,4.4-27,9.8-27
					C1044.6,470.2,1049,491.8,1049,497.2z"/>
				<path class="st25" d="M1039.2,470.2c-0.3,0-0.5,0-0.8,0.1c2.5,6.8,4.2,16.2,4.2,19.5c0,5.4-4.4,9.8-9.8,9.8
					c-1.1,0-2.2-0.2-3.2-0.5c0.9,4.5,4.8,7.9,9.6,7.9c5.4,0,9.8-4.4,9.8-9.8C1049,491.8,1044.6,470.2,1039.2,470.2z"/>
			</g>
		</g>
		
			<ellipse transform="matrix(0.2325 -0.9726 0.9726 0.2325 320.9752 1379.33)" class="st26" cx="1034.5" cy="486.3" rx="6.8" ry="1.4"/>
	</g>
	<g>
		<g>
			<path class="st21" d="M1125.8,531.6c-2.8,1.6-7.4,1.6-10.2,0c-2.8-1.6-2.8-4.3,0-5.9c2.8-1.6,7.4-1.6,10.2,0
				C1128.6,527.3,1128.6,530,1125.8,531.6z"/>
			<g>
				<path class="st22" d="M1122.9,528.1c0,1.2-1,2.2-2.2,2.2l0,0c-1.2,0-2.2-1-2.2-2.2v-12.4c0-1.2,1-2.2,2.2-2.2l0,0
					c1.2,0,2.2,1,2.2,2.2V528.1z"/>
				<path class="st23" d="M1120.7,522.8c0.8,0,1.5-0.1,2.2-0.2v-6.9c0-1.2-1-2.2-2.2-2.2s-2.2,1-2.2,2.2v6.9
					C1119.3,522.7,1120,522.8,1120.7,522.8z"/>
				<path class="st24" d="M1130.5,510.5c0,5.4-4.4,9.8-9.8,9.8c-5.4,0-9.8-4.4-9.8-9.8c0-5.4,4.4-27,9.8-27
					C1126.1,483.5,1130.5,505.1,1130.5,510.5z"/>
				<path class="st25" d="M1120.7,483.5c-0.3,0-0.5,0-0.8,0.1c2.5,6.8,4.2,16.2,4.2,19.5c0,5.4-4.4,9.8-9.8,9.8
					c-1.1,0-2.2-0.2-3.2-0.5c0.9,4.5,4.8,7.9,9.6,7.9c5.4,0,9.8-4.4,9.8-9.8C1130.5,505.1,1126.1,483.5,1120.7,483.5z"/>
			</g>
		</g>
		
			<ellipse transform="matrix(0.2325 -0.9726 0.9726 0.2325 370.5617 1468.8434)" class="st26" cx="1116" cy="499.6" rx="6.8" ry="1.4"/>
	</g>
	<g>
		<path class="st7" d="M730.5,536l-28.4-47.8c-0.9-1.6-2.7-2.2-3.9-1.5l-12.3,7.3l31.7,53.5l0.1-0.1L686,494l3.3-2l31.7,53.4
			l8.9-5.3C731.2,539.4,731.4,537.5,730.5,536z"/>
		<polygon class="st27" points="717.7,547.4 721,545.4 721,545.4 717.7,547.4 		"/>
		<polygon class="st27" points="686,494 717.7,547.4 721,545.4 689.3,492 		"/>
		<polygon class="st28" points="717.7,547.6 717.6,547.5 717.4,547.6 		"/>
		<path class="st28" d="M649.2,547.6H716l-31.4-52.8l1.3-0.8l-2.6-4.4c-2-3.2-5.6-4.6-8.2-3.1L647,502.8l2.2,0.1V547.6z"/>
		<polygon class="st28" points="684.6,494.8 716,547.6 717.4,547.6 717.6,547.5 685.9,494 		"/>
		<polygon class="st28" points="717.4,547.6 716,547.6 716.4,548.2 		"/>
	</g>
	<g>
		<g>
			<rect x="937.9" y="517.1" class="st29" width="2" height="24.3"/>
			<rect x="937.9" y="517.1" class="st30" width="2" height="5.2"/>
			<circle class="st31" cx="938.8" cy="511.1" r="8.5"/>
			<circle class="st7" cx="938.8" cy="511.1" r="7.3"/>
		</g>
		<g>
			<path class="st32" d="M939.1,507.3c0.6,0,1.2,0.1,1.6,0.2c0.4,0.1,0.8,0.4,1.1,0.6c0.3,0.3,0.5,0.6,0.6,0.9
				c0.1,0.4,0.2,0.7,0.2,1.1c0,0.4-0.1,0.8-0.2,1.2c-0.1,0.4-0.4,0.7-0.7,0.9c-0.3,0.3-0.7,0.5-1.1,0.6c-0.4,0.1-1,0.2-1.6,0.2h-1.1
				v3H936v-8.9H939.1z M939.1,511.6c0.5,0,0.9-0.1,1.2-0.4c0.2-0.3,0.4-0.6,0.4-1.1c0-0.2,0-0.4-0.1-0.6c-0.1-0.2-0.2-0.3-0.3-0.4
				c-0.1-0.1-0.3-0.2-0.5-0.3c-0.2-0.1-0.4-0.1-0.7-0.1h-1.1v2.8H939.1z"/>
		</g>
		
			<rect x="930.5" y="510.3" transform="matrix(0.7071 -0.7071 0.7071 0.7071 -86.3652 813.3003)" class="st31" width="16.2" height="1.2"/>
	</g>
	<g>
		<path class="st22" d="M543.6,341.2c0,1-0.8,1.8-1.8,1.8l0,0c-1,0-1.8-0.8-1.8-1.8l0.1-14.6c0-1,0.8-1.8,1.8-1.8l0,0
			c1,0,1.8,0.8,1.8,1.8L543.6,341.2z"/>
		<path class="st23" d="M541.8,332.5c0.6,0,1.2-0.1,1.8-0.2l0.1-5.6c0-1-0.8-1.8-1.8-1.8c-1,0-1.8,0.8-1.8,1.8l-0.1,5.6
			C540.6,332.4,541.2,332.4,541.8,332.5z"/>
		<polygon class="st22" points="508.4,326.8 569.5,326.8 575,321.3 575,319.9 509.5,314.5 508.4,315.7 		"/>
		<polygon class="st23" points="508.4,326.8 569.5,326.8 569.6,323.2 509.5,314.5 508.4,315.7 		"/>
		<polygon class="st8" points="509.5,325.3 569.6,325.3 575,319.9 569.6,314.5 509.5,314.5 		"/>
		<text transform="matrix(1 0 0 1 514.1506 322.1974)" class="st23 st33 st34">Request Service</text>
	</g>
	<path class="st35" d="M0,352.6l988.3-0.1c11.5,0,20.7-9.3,20.7-20.8l0-3.8v-28.6V175.6c0-11.5-9.3-20.8-20.7-20.8H670
		c-11.5,0-20.7,9.3-20.7,20.8v353.9c0,11.5,9.3,20.8,20.7,20.8h713.4c11.5,0,20.7-9.3,20.7-20.8l0.5-156.2c0-11.5,10-20.8,21.5-20.8
		H2000"/>
	<path class="st36" d="M649.3,365.9v163.6c0,11.5,9.3,20.8,20.7,20.8h713.4c11.5,0,20.7-9.3,20.7-20.8l0.5-156.2
		c0-11.5,10-20.8,21.5-20.8H2000"/>
	<path class="st36" d="M0,352.6l632.4-0.1l31.2,0l324.7,0c11.5,0,20.7-9.3,20.7-20.8l0-3.8v-28.6V175.6c0-11.5-9.3-20.8-20.7-20.8
		H670c-11.5,0-20.7,9.3-20.7,20.8v169"/>
	<g>
		<path class="st21" d="M912.9,496.1c-23.8,7.2-80.5,10-126.7,6.3c-46.2-3.7-64.3-12.6-40.4-19.8c23.8-7.2,80.5-10,126.7-6.3
			C918.6,480.1,936.7,488.9,912.9,496.1z"/>
		<path class="st37" d="M907.3,474c0,11.5-9.3,20.8-20.7,20.8H775.1c-11.5,0-20.7-9.3-20.7-20.8V226.4c0-11.5,9.3-20.8,20.7-20.8
			h111.4c11.5,0,20.7,9.3,20.7,20.8V474z"/>
		<g class="st38">
			<path class="st39" d="M885.9,205.6h-9.3c2.2,3.3,3.5,7.2,3.5,11.5v172c0,11.5-25.9,105.7-25.9,105.7h31.7
				c11.5,0,20.7-9.3,20.7-20.8V226.4C906.7,214.9,897.4,205.6,885.9,205.6z"/>
		</g>
		<polygon class="st40" points="887.3,245.8 884,245.8 877.7,245.8 870.5,245.8 864.5,245.8 864.1,245.8 856,245.8 835.8,245.8 
			828.8,245.8 821.6,245.8 814.8,245.8 804.7,245.8 798.5,245.8 778.7,245.8 778,245.8 771.7,245.8 768.1,245.8 768.1,274.4 
			768.1,274.4 768.1,282.1 768.1,282.1 768.1,303.4 768.1,303.4 768.1,329.1 768.1,329.1 768.1,335.5 768.1,335.5 768.1,399.4 
			768.1,399.4 768.1,405.2 768.1,405.2 768.1,434.7 768.1,434.7 768.1,442.4 768.1,442.4 768.1,461.6 768.5,461.6 775,461.6 
			789.4,461.6 797.6,461.6 797.6,461.6 798.5,461.6 803.8,461.6 804.7,461.6 811,461.6 811.9,461.6 817.3,461.6 836.5,461.6 
			836.8,461.6 843.6,461.6 860.6,461.6 867.6,461.6 869.1,461.6 877.5,461.6 893.6,461.6 893.6,444 893.6,432.2 893.6,429.4 
			893.6,425.9 893.6,418.9 893.6,415.9 893.6,408 893.6,335.5 893.6,329.1 893.6,312.3 893.6,303.4 893.6,265.3 893.6,258.2 
			893.6,245.8 		"/>
		<polygon class="st41" points="768.1,242.6 768.1,242.7 768.1,242.7 768.1,244.1 768.1,245.7 768.1,245.7 768.1,246.1 768.1,246.1 
			768.1,250.1 768.1,250.1 768.1,250.4 768.1,250.4 768.1,252.3 768.1,252.3 768.1,252.8 768.1,252.8 768.1,254.1 768.1,254.3 
			893.6,254.3 893.6,242.6 		"/>
		<circle class="st42" cx="830.8" cy="478.2" r="9.9"/>
		<g>
			<path class="st43" d="M882.3,246.8h6.4c0.3,0,0.5,0.2,0.5,0.5v2.1c0,0.3-0.2,0.5-0.5,0.5h-6.4c-0.3,0-0.5-0.2-0.5-0.5v-2.1
				C881.8,247,882,246.8,882.3,246.8z"/>
			<path class="st43" d="M882.5,247.1h6.1c0.2,0,0.3,0.1,0.3,0.3v1.8c0,0.2-0.1,0.3-0.3,0.3h-6.1c-0.2,0-0.3-0.1-0.3-0.3v-1.8
				C882.1,247.2,882.3,247.1,882.5,247.1z"/>
			<path class="st43" d="M889.3,247.7c0.3,0,0.5,0.3,0.5,0.6c0,0.3-0.2,0.6-0.5,0.6V247.7z"/>
			<path class="st28" d="M872.5,249.4v-2.5h-0.4l-0.9,0.7l0.2,0.2c0,0,0,0,0,0c0,0,0,0,0.1,0c0,0,0,0,0.1,0c0,0,0,0,0.1,0l0.4-0.3
				c0,0.1,0,0.1,0,0.2v1.7h-0.6v0.4h1.6v-0.4H872.5z"/>
			<path class="st28" d="M875.3,247.7c-0.1-0.2-0.1-0.3-0.2-0.5c-0.1-0.1-0.2-0.2-0.3-0.3c-0.1-0.1-0.3-0.1-0.4-0.1
				c-0.1,0-0.3,0-0.4,0.1c-0.1,0.1-0.2,0.1-0.3,0.3c-0.1,0.1-0.2,0.3-0.2,0.5c-0.1,0.2-0.1,0.4-0.1,0.6c0,0.2,0,0.5,0.1,0.6
				c0.1,0.2,0.1,0.3,0.2,0.5c0.1,0.1,0.2,0.2,0.3,0.3c0.1,0.1,0.3,0.1,0.4,0.1c0.1,0,0.3,0,0.4-0.1c0.1-0.1,0.2-0.1,0.3-0.3
				c0.1-0.1,0.2-0.3,0.2-0.5c0.1-0.2,0.1-0.4,0.1-0.6C875.4,248.1,875.3,247.9,875.3,247.7z M874.8,248.8c0,0.1-0.1,0.2-0.1,0.3
				c0,0.1-0.1,0.1-0.2,0.2c-0.1,0-0.1,0-0.2,0c-0.1,0-0.1,0-0.2,0s-0.1-0.1-0.2-0.2c-0.1-0.1-0.1-0.2-0.1-0.3c0-0.1,0-0.3,0-0.5
				c0-0.2,0-0.4,0-0.5c0-0.1,0.1-0.2,0.1-0.3c0-0.1,0.1-0.1,0.2-0.2c0.1,0,0.1,0,0.2,0c0.1,0,0.1,0,0.2,0c0.1,0,0.1,0.1,0.2,0.2
				c0.1,0.1,0.1,0.2,0.1,0.3c0,0.1,0,0.3,0,0.5C874.9,248.5,874.9,248.7,874.8,248.8z"/>
			<path class="st28" d="M877.5,247.7c-0.1-0.2-0.1-0.3-0.2-0.5c-0.1-0.1-0.2-0.2-0.3-0.3c-0.1-0.1-0.3-0.1-0.4-0.1
				c-0.1,0-0.3,0-0.4,0.1c-0.1,0.1-0.2,0.1-0.3,0.3c-0.1,0.1-0.2,0.3-0.2,0.5c-0.1,0.2-0.1,0.4-0.1,0.6c0,0.2,0,0.5,0.1,0.6
				c0.1,0.2,0.1,0.3,0.2,0.5c0.1,0.1,0.2,0.2,0.3,0.3c0.1,0.1,0.3,0.1,0.4,0.1c0.1,0,0.3,0,0.4-0.1c0.1-0.1,0.2-0.1,0.3-0.3
				c0.1-0.1,0.2-0.3,0.2-0.5c0.1-0.2,0.1-0.4,0.1-0.6C877.6,248.1,877.5,247.9,877.5,247.7z M877,248.8c0,0.1-0.1,0.2-0.1,0.3
				c-0.1,0.1-0.1,0.1-0.2,0.2c-0.1,0-0.1,0-0.2,0c-0.1,0-0.1,0-0.2,0c-0.1,0-0.1-0.1-0.2-0.2c-0.1-0.1-0.1-0.2-0.1-0.3
				c0-0.1,0-0.3,0-0.5c0-0.2,0-0.4,0-0.5c0-0.1,0.1-0.2,0.1-0.3c0-0.1,0.1-0.1,0.2-0.2c0.1,0,0.1,0,0.2,0c0.1,0,0.1,0,0.2,0
				c0.1,0,0.1,0.1,0.2,0.2c0,0.1,0.1,0.2,0.1,0.3c0,0.1,0,0.3,0,0.5C877.1,248.5,877.1,248.7,877,248.8z"/>
			<path class="st28" d="M879,247.3c0-0.1-0.1-0.2-0.1-0.2c-0.1-0.1-0.1-0.1-0.2-0.1c-0.1,0-0.2-0.1-0.3-0.1c-0.1,0-0.2,0-0.3,0.1
				c-0.1,0-0.1,0.1-0.2,0.1c-0.1,0.1-0.1,0.1-0.1,0.2c0,0.1,0,0.2,0,0.3c0,0.1,0,0.2,0,0.3s0.1,0.2,0.1,0.2c0.1,0.1,0.1,0.1,0.2,0.1
				c0.1,0,0.2,0,0.3,0c0.1,0,0.2,0,0.2,0c0.1,0,0.2-0.1,0.2-0.1c0.1-0.1,0.1-0.1,0.1-0.2c0-0.1,0.1-0.2,0.1-0.3
				C879.1,247.5,879,247.4,879,247.3z M878.7,247.8c0,0,0,0.1-0.1,0.1c0,0-0.1,0.1-0.1,0.1c0,0-0.1,0-0.1,0c0,0-0.1,0-0.1,0
				c0,0-0.1,0-0.1-0.1c0,0,0-0.1-0.1-0.1c0,0,0-0.1,0-0.2c0-0.1,0-0.1,0-0.2c0-0.1,0-0.1,0.1-0.1c0,0,0.1-0.1,0.1-0.1
				c0,0,0.1,0,0.1,0c0,0,0.1,0,0.1,0c0,0,0.1,0,0.1,0.1c0,0,0,0.1,0.1,0.1c0,0.1,0,0.1,0,0.2C878.7,247.7,878.7,247.7,878.7,247.8z
				 M877.9,249.8h0.4c0,0,0.1,0,0.1,0c0,0,0,0,0.1-0.1l2.1-2.8h-0.4c0,0-0.1,0-0.1,0c0,0,0,0-0.1,0.1L877.9,249.8z M880.6,248.8
				c0-0.1-0.1-0.2-0.1-0.2c-0.1-0.1-0.1-0.1-0.2-0.1c-0.1,0-0.2-0.1-0.3-0.1c-0.1,0-0.2,0-0.3,0.1c-0.1,0-0.1,0.1-0.2,0.1
				c-0.1,0.1-0.1,0.1-0.1,0.2c0,0.1,0,0.2,0,0.3c0,0.1,0,0.2,0,0.3c0,0.1,0.1,0.2,0.1,0.2c0.1,0.1,0.1,0.1,0.2,0.1
				c0.1,0,0.2,0.1,0.3,0.1c0.1,0,0.2,0,0.2-0.1c0.1,0,0.2-0.1,0.2-0.1c0.1-0.1,0.1-0.1,0.1-0.2c0-0.1,0.1-0.2,0.1-0.3
				C880.7,249,880.6,248.9,880.6,248.8z M880.3,249.3c0,0.1,0,0.1-0.1,0.1c0,0-0.1,0.1-0.1,0.1c0,0-0.1,0-0.1,0c0,0-0.1,0-0.1,0
				c0,0-0.1,0-0.1-0.1c0,0,0-0.1-0.1-0.1c0-0.1,0-0.1,0-0.2c0-0.1,0-0.1,0-0.2c0-0.1,0-0.1,0.1-0.1c0,0,0.1-0.1,0.1-0.1
				c0,0,0.1,0,0.1,0c0,0,0.1,0,0.1,0c0,0,0.1,0,0.1,0.1c0,0,0,0.1,0.1,0.1c0,0.1,0,0.1,0,0.2C880.3,249.2,880.3,249.2,880.3,249.3z"
				/>
			<path class="st28" d="M823.5,248.6l0.9-1.3c0,0.1,0,0.2,0,0.3v1H823.5z M824.9,248.6v-1.8h-0.5l-1.4,1.9l0.1,0.3c0,0,0,0.1,0,0.1
				c0,0,0.1,0,0.1,0h1.2v0.7h0.4V249h0.3c0,0,0.1,0,0.1,0c0,0,0,0,0-0.1v-0.3H824.9z"/>
			<path class="st28" d="M825.5,249.3C825.5,249.3,825.6,249.3,825.5,249.3c0.1,0.1,0.1,0.1,0.2,0.2c0,0,0.1,0,0.1,0
				c0,0,0.1,0,0.1,0c0,0,0.1,0,0.1-0.1c0,0,0.1-0.1,0.1-0.1c0,0,0-0.1,0-0.1c0,0,0-0.1,0-0.1c0,0,0-0.1-0.1-0.1c0,0-0.1,0-0.1-0.1
				c0,0-0.1,0-0.1,0c0,0-0.1,0-0.1,0c0,0-0.1,0-0.1,0.1c0,0,0,0.1-0.1,0.1c0,0,0,0.1,0,0.1C825.5,249.2,825.5,249.2,825.5,249.3z
				 M825.5,247.8C825.5,247.9,825.6,247.9,825.5,247.8c0.1,0.1,0.1,0.1,0.2,0.2c0,0,0.1,0,0.1,0c0,0,0.1,0,0.1,0c0,0,0.1,0,0.1-0.1
				c0,0,0.1-0.1,0.1-0.1c0,0,0-0.1,0-0.1c0,0,0-0.1,0-0.1c0,0,0-0.1-0.1-0.1c0,0-0.1,0-0.1-0.1c0,0-0.1,0-0.1,0c0,0-0.1,0-0.1,0
				c0,0-0.1,0-0.1,0.1c0,0,0,0.1-0.1,0.1c0,0,0,0.1,0,0.1C825.5,247.7,825.5,247.8,825.5,247.8z"/>
			<path class="st28" d="M828,249.3c-0.1,0-0.1,0-0.2,0c-0.1,0-0.1,0-0.2,0l0.7-0.7c0.1-0.1,0.2-0.2,0.2-0.2
				c0.1-0.1,0.1-0.2,0.2-0.2c0.1-0.1,0.1-0.2,0.1-0.3c0-0.1,0-0.2,0-0.3c0-0.1,0-0.2-0.1-0.3c0-0.1-0.1-0.2-0.2-0.3
				c-0.1-0.1-0.2-0.1-0.3-0.2c-0.1,0-0.2-0.1-0.4-0.1c-0.1,0-0.3,0-0.4,0.1c-0.1,0-0.2,0.1-0.3,0.2c-0.1,0.1-0.2,0.2-0.2,0.3
				c-0.1,0.1-0.1,0.2-0.1,0.4l0.3,0c0.1,0,0.1,0,0.2,0c0,0,0.1-0.1,0.1-0.1c0,0,0-0.1,0.1-0.1c0,0,0.1-0.1,0.1-0.1
				c0,0,0.1-0.1,0.1-0.1c0.1,0,0.1,0,0.2,0c0.1,0,0.1,0,0.2,0c0.1,0,0.1,0,0.1,0.1c0,0,0.1,0.1,0.1,0.1c0,0.1,0,0.1,0,0.2
				c0,0.1,0,0.2,0,0.2c0,0.1-0.1,0.1-0.1,0.2c0,0.1-0.1,0.1-0.1,0.2c-0.1,0.1-0.1,0.1-0.2,0.2l-0.9,0.9c0,0-0.1,0.1-0.1,0.1
				c0,0,0,0.1,0,0.1v0.2h2v-0.3c0-0.1,0-0.1,0-0.1c0,0-0.1,0-0.1,0H828z"/>
			<path class="st28" d="M830.6,249.4v-2.6h-0.4l-0.9,0.8l0.2,0.2c0,0,0,0,0,0c0,0,0,0,0.1,0c0,0,0,0,0.1,0c0,0,0,0,0.1,0l0.4-0.4
				c0,0.1,0,0.1,0,0.2v1.7h-0.6v0.4h1.6v-0.4H830.6z"/>
			<path class="st28" d="M833.4,248.3v-1.1h0.4c0.1,0,0.2,0,0.3,0c0.1,0,0.1,0.1,0.2,0.1c0,0,0.1,0.1,0.1,0.2c0,0.1,0,0.1,0,0.2
				c0,0.1,0,0.2,0,0.2c0,0.1-0.1,0.1-0.1,0.2c-0.1,0-0.1,0.1-0.2,0.1c-0.1,0-0.2,0-0.3,0H833.4z M832.8,246.8v3h0.5v-1h0.4
				c0.2,0,0.4,0,0.5-0.1c0.1,0,0.3-0.1,0.4-0.2c0.1-0.1,0.2-0.2,0.2-0.3c0-0.1,0.1-0.3,0.1-0.4c0-0.1,0-0.3-0.1-0.4
				c0-0.1-0.1-0.2-0.2-0.3c-0.1-0.1-0.2-0.1-0.4-0.2c-0.1,0-0.3-0.1-0.5-0.1H832.8z"/>
			<path class="st28" d="M838.1,246.8C838.1,246.8,838,246.8,838.1,246.8c-0.1,0-0.1,0-0.1,0c0,0,0,0,0,0c0,0,0,0,0,0l-0.9,1.6
				c0,0,0,0.1-0.1,0.1c0,0,0,0.1-0.1,0.1c0,0,0-0.1-0.1-0.1c0,0,0-0.1-0.1-0.1l-0.9-1.6c0,0,0,0,0,0c0,0,0,0,0,0c0,0,0,0,0,0
				c0,0,0,0-0.1,0h-0.4v3h0.5v-1.9c0,0,0-0.1,0-0.1c0,0,0-0.1,0-0.1l0.9,1.7c0,0.1,0.1,0.1,0.2,0.1h0.1c0.1,0,0.2,0,0.2-0.1l0.9-1.7
				c0,0.1,0,0.2,0,0.2v1.9h0.5v-3H838.1z"/>
			<path class="st28" d="M785.8,247.3v-0.4H784v2.8h1.8v-0.4h-1.3v-0.8h1v-0.4h-1v-0.8H785.8z"/>
			<path class="st28" d="M788,247.8h-1.4v-0.6h-0.3c0,0-0.1,0-0.1,0c0,0,0,0,0,0.1l-0.1,0.5l-0.3,0.1v0.2c0,0,0,0.1,0,0.1
				c0,0,0,0,0.1,0h0.2v1.1c0,0.2,0,0.3,0.1,0.4c0.1,0.1,0.2,0.1,0.4,0.1c0.1,0,0.2,0,0.3,0c0.1,0,0.2-0.1,0.2-0.1l-0.1-0.2
				c0,0,0,0,0,0c0,0,0,0,0,0c0,0,0,0,0,0c0,0,0,0,0,0c0,0,0,0-0.1,0c0,0,0,0-0.1,0c-0.1,0-0.1,0-0.1-0.1c0,0,0-0.1,0-0.1v-1.1h0.9
				v1.7h0.5V247.8z M788.1,247C788.1,247,788.1,247,788.1,247c-0.1-0.1-0.1-0.1-0.2-0.2c0,0-0.1,0-0.1,0c0,0-0.1,0-0.1,0
				c0,0-0.1,0-0.1,0.1c0,0,0,0.1-0.1,0.1c0,0,0,0.1,0,0.1c0,0,0,0.1,0,0.1c0,0,0,0.1,0.1,0.1c0,0,0.1,0.1,0.1,0.1c0,0,0.1,0,0.1,0
				c0,0,0.1,0,0.1,0c0,0,0.1,0,0.1-0.1c0,0,0.1-0.1,0.1-0.1c0,0,0-0.1,0-0.1C788.1,247.1,788.1,247.1,788.1,247z"/>
			<path class="st28" d="M789.8,248c-0.1-0.1-0.2-0.1-0.3-0.2c-0.1,0-0.2-0.1-0.4-0.1c-0.1,0-0.2,0-0.3,0.1c-0.1,0-0.2,0.1-0.2,0.1
				c-0.1,0.1-0.1,0.1-0.1,0.2c0,0.1,0,0.2,0,0.2c0,0.1,0,0.2,0,0.2c0,0.1,0.1,0.1,0.1,0.2c0,0,0.1,0.1,0.2,0.1
				c0.1,0,0.1,0.1,0.2,0.1c0.1,0,0.1,0,0.2,0.1c0.1,0,0.1,0,0.2,0.1c0,0,0.1,0,0.1,0.1c0,0,0,0.1,0,0.1c0,0,0,0.1,0,0.1
				c0,0,0,0.1-0.1,0.1c0,0-0.1,0-0.1,0.1c0,0-0.1,0-0.1,0c-0.1,0-0.1,0-0.2,0c0,0-0.1,0-0.1-0.1c0,0-0.1,0-0.1-0.1c0,0-0.1,0-0.1,0
				c0,0-0.1,0-0.1,0c0,0,0,0-0.1,0.1l-0.1,0.2c0,0,0.1,0.1,0.1,0.1c0.1,0,0.1,0.1,0.2,0.1c0.1,0,0.1,0,0.2,0.1c0.1,0,0.1,0,0.2,0
				c0.1,0,0.2,0,0.3-0.1c0.1,0,0.2-0.1,0.3-0.1c0.1-0.1,0.1-0.1,0.2-0.2c0-0.1,0.1-0.2,0.1-0.3c0-0.1,0-0.2,0-0.2
				c0-0.1-0.1-0.1-0.1-0.1c0,0-0.1-0.1-0.2-0.1c-0.1,0-0.1-0.1-0.2-0.1c-0.1,0-0.1,0-0.2-0.1c-0.1,0-0.1,0-0.2-0.1
				c0,0-0.1,0-0.1-0.1c0,0,0-0.1,0-0.1c0-0.1,0-0.1,0.1-0.2c0.1,0,0.1-0.1,0.2-0.1c0.1,0,0.1,0,0.2,0c0,0,0.1,0,0.1,0
				c0,0,0.1,0,0.1,0c0,0,0.1,0,0.1,0c0,0,0,0,0.1,0c0,0,0,0,0,0L789.8,248z"/>
			<path class="st28" d="M791.2,249.2c-0.1,0.1-0.1,0.1-0.2,0.2c-0.1,0-0.2,0.1-0.3,0.1c-0.1,0-0.1,0-0.2-0.1c0,0-0.1-0.1-0.1-0.2
				c0,0,0-0.1,0-0.1c0,0,0.1-0.1,0.1-0.1c0.1,0,0.1-0.1,0.2-0.1c0.1,0,0.2,0,0.4,0V249.2z M790.1,248.2
				C790.2,248.2,790.2,248.2,790.1,248.2c0.1,0.1,0.1,0.1,0.1,0.1c0,0,0.1,0,0.1,0c0,0,0.1,0,0.1-0.1c0,0,0.1,0,0.1-0.1
				c0.1,0,0.1,0,0.2,0c0.1,0,0.2,0,0.2,0.1c0.1,0.1,0.1,0.2,0.1,0.3v0.1c-0.2,0-0.3,0-0.4,0c-0.1,0-0.2,0-0.3,0.1
				c-0.1,0-0.2,0.1-0.2,0.1c-0.1,0-0.1,0.1-0.2,0.1c0,0-0.1,0.1-0.1,0.1c0,0,0,0.1,0,0.2c0,0.1,0,0.2,0,0.2c0,0.1,0.1,0.1,0.1,0.2
				c0.1,0,0.1,0.1,0.2,0.1c0.1,0,0.2,0,0.2,0c0.1,0,0.1,0,0.2,0c0.1,0,0.1,0,0.2-0.1c0.1,0,0.1-0.1,0.2-0.1c0,0,0.1-0.1,0.1-0.1
				l0,0.1c0,0,0,0.1,0.1,0.1c0,0,0.1,0,0.1,0h0.2v-1.3c0-0.1,0-0.2-0.1-0.3c0-0.1-0.1-0.2-0.1-0.2c-0.1-0.1-0.1-0.1-0.2-0.2
				c-0.1,0-0.2-0.1-0.3-0.1c-0.3,0-0.6,0.1-0.8,0.3L790.1,248.2z"/>
			<path class="st28" d="M792,246.8v2.9h0.5v-2.9H792z"/>
			<path class="st28" d="M794,249.2c-0.1,0.1-0.1,0.1-0.2,0.2c-0.1,0-0.2,0.1-0.3,0.1c-0.1,0-0.1,0-0.2-0.1c-0.1,0-0.1-0.1-0.1-0.2
				c0,0,0-0.1,0-0.1c0,0,0.1-0.1,0.1-0.1c0.1,0,0.1-0.1,0.2-0.1c0.1,0,0.2,0,0.4,0V249.2z M792.9,248.2
				C793,248.2,793,248.2,792.9,248.2c0.1,0.1,0.1,0.1,0.1,0.1c0,0,0.1,0,0.1,0c0,0,0.1,0,0.1-0.1c0,0,0.1,0,0.1-0.1
				c0.1,0,0.1,0,0.2,0c0.1,0,0.2,0,0.2,0.1c0.1,0.1,0.1,0.2,0.1,0.3v0.1c-0.2,0-0.3,0-0.4,0c-0.1,0-0.2,0-0.3,0.1
				c-0.1,0-0.2,0.1-0.2,0.1c-0.1,0-0.1,0.1-0.2,0.1c0,0-0.1,0.1-0.1,0.1c0,0,0,0.1,0,0.2c0,0.1,0,0.2,0,0.2c0,0.1,0.1,0.1,0.1,0.2
				c0.1,0,0.1,0.1,0.2,0.1c0.1,0,0.2,0,0.2,0c0.1,0,0.1,0,0.2,0c0.1,0,0.1,0,0.2-0.1c0.1,0,0.1-0.1,0.2-0.1c0,0,0.1-0.1,0.1-0.1
				l0,0.1c0,0,0,0.1,0.1,0.1c0,0,0.1,0,0.1,0h0.2v-1.3c0-0.1,0-0.2-0.1-0.3c0-0.1-0.1-0.2-0.1-0.2c-0.1-0.1-0.1-0.1-0.2-0.2
				c-0.1,0-0.2-0.1-0.3-0.1c-0.3,0-0.6,0.1-0.8,0.3L792.9,248.2z"/>
			<path class="st28" d="M795.8,249.7c0.1,0,0.2-0.1,0.2-0.1l-0.1-0.2c0,0,0,0,0,0c0,0,0,0,0,0c0,0,0,0,0,0c0,0,0,0,0,0
				c0,0,0,0-0.1,0c0,0,0,0-0.1,0c-0.1,0-0.1,0-0.1-0.1c0,0,0-0.1,0-0.1v-1.1h0.5v-0.3h-0.5v-0.6h-0.3c0,0-0.1,0-0.1,0c0,0,0,0,0,0.1
				l-0.1,0.5l-0.3,0.1v0.2c0,0,0,0.1,0,0.1c0,0,0,0,0.1,0h0.2v1.1c0,0.2,0,0.3,0.1,0.4c0.1,0.1,0.2,0.1,0.4,0.1
				C795.6,249.8,795.7,249.8,795.8,249.7z"/>
			<path class="st43" d="M772.7,247.4c0.5,0,0.9,0.4,0.9,0.9c0,0.5-0.4,0.9-0.9,0.9c-0.5,0-0.9-0.4-0.9-0.9
				C771.8,247.8,772.2,247.4,772.7,247.4z"/>
			<path class="st43" d="M775,247.4c0.5,0,0.9,0.4,0.9,0.9c0,0.5-0.4,0.9-0.9,0.9c-0.5,0-0.9-0.4-0.9-0.9
				C774.1,247.8,774.5,247.4,775,247.4z"/>
			<path class="st43" d="M777.3,247.4c0.5,0,0.9,0.4,0.9,0.9c0,0.5-0.4,0.9-0.9,0.9c-0.5,0-0.9-0.4-0.9-0.9
				C776.4,247.8,776.8,247.4,777.3,247.4z"/>
			<path class="st43" d="M779.6,247.4c0.5,0,0.9,0.4,0.9,0.9c0,0.5-0.4,0.9-0.9,0.9s-0.9-0.4-0.9-0.9
				C778.7,247.8,779.1,247.4,779.6,247.4z"/>
			<path class="st43" d="M781.9,247.4c0.5,0,0.9,0.4,0.9,0.9c0,0.5-0.4,0.9-0.9,0.9c-0.5,0-0.9-0.4-0.9-0.9
				C781,247.8,781.4,247.4,781.9,247.4z"/>
		</g>
		<path class="st44" d="M792.6,224.7c0,2.6,2.1,4.8,4.8,4.8H864c2.6,0,4.8-2.1,4.8-4.8l0,0c0-2.6-2.1-4.8-4.8-4.8h-66.6
			C794.7,219.9,792.6,222,792.6,224.7L792.6,224.7z"/>
		<g>
			<circle class="st45" cx="881.1" cy="224.4" r="5.2"/>
			<circle class="st46" cx="881.1" cy="224.4" r="4.2"/>
			<circle class="st45" cx="881.1" cy="224.4" r="3.6"/>
			<circle class="st42" cx="882.5" cy="226.3" r="1.3"/>
			<circle class="st42" cx="879.7" cy="223.1" r="1"/>
		</g>
		<circle class="st42" cx="881.1" cy="224.4" r="2.4"/>
	</g>
	<g>
		<circle class="st47" cx="830.9" cy="327" r="45.1"/>
		<circle class="st48" cx="830.9" cy="327" r="31.1"/>
		<g>
			<g>
				<g>
					<g>
						<g>
							<path class="st7" d="M843.5,318.6c3.5,1,7.3,0.1,10-2.6c3-3,3.8-7.4,2.3-11.1l-6.7,6.7c-1.6,1.6-4.1,1.6-5.7,0
								c-1.6-1.6-1.6-4.1,0-5.7l6.7-6.7c-3.7-1.5-8.1-0.7-11.1,2.3c-2.7,2.7-3.6,6.6-2.6,10l-15.7,15.7l-8.1,8.1
								c-3.5-1-7.3-0.1-10,2.6c-3,3-3.8,7.4-2.3,11.1l6.7-6.7c1.6-1.6,4.1-1.6,5.7,0s1.6,4.1,0,5.7l-6.7,6.7
								c3.7,1.5,8.1,0.7,11.1-2.3c2.7-2.7,3.6-6.6,2.6-10l8.1-8.1L843.5,318.6z"/>
							<path class="st28" d="M854,316.5c-2.7,2.7-6.6,3.8-10.3,2.9l-23.2,23.2c0.9,3.7-0.2,7.6-2.9,10.3c-3.1,3.1-7.7,4.1-11.8,2.4
								l-0.9-0.4l7.4-7.4c1.3-1.3,1.3-3.4,0-4.8c-1.3-1.3-3.4-1.3-4.8,0l-7.4,7.4l-0.4-0.9c-1.6-4.1-0.7-8.7,2.4-11.8
								c2.7-2.7,6.6-3.8,10.3-2.9l23.2-23.2c-0.9-3.7,0.2-7.6,2.9-10.3c3.1-3.1,7.7-4.1,11.8-2.4l0.9,0.4l-7.4,7.4
								c-1.3,1.3-1.3,3.4,0,4.8c1.3,1.3,3.4,1.3,4.8,0l7.4-7.4l0.4,0.9C858.1,308.7,857.1,313.4,854,316.5z M819,342.2l24.3-24.3
								l0.4,0.1c3.3,0.9,6.9,0,9.4-2.5c2.5-2.5,3.4-6.1,2.5-9.4l-5.9,5.9c-1.8,1.8-4.8,1.8-6.6,0c-1.8-1.8-1.8-4.8,0-6.6l5.9-5.9
								c-3.3-0.9-6.9,0-9.4,2.5c-2.4,2.4-3.4,6-2.5,9.4l0.1,0.4L812.8,336l-0.4-0.1c-3.3-0.9-6.9,0-9.4,2.5
								c-2.5,2.5-3.4,6.1-2.5,9.4l5.9-5.9c1.8-1.8,4.8-1.8,6.6,0c1.8,1.8,1.8,4.8,0,6.6l-5.9,5.9c3.3,0.9,6.9,0,9.4-2.5
								c2.4-2.4,3.4-6,2.5-9.4L819,342.2z"/>
						</g>
					</g>
				</g>
				
					<ellipse transform="matrix(0.7071 -0.7071 0.7071 0.7071 1.1511 677.0591)" class="st28" cx="817.9" cy="337.1" rx="1.3" ry="1.3"/>
				<ellipse transform="matrix(0.7071 -0.7071 0.7071 0.7071 21.325 685.4155)" class="st28" cx="838" cy="317" rx="1.3" ry="1.3"/>
				<path class="st28" d="M833.6,319.6l-6.1,6.1l-5.1,5.1l-1.8,1.8c-0.5,0.5-0.5,1.3,0,1.8c0.5,0.5,1.3,0.5,1.8,0l1.8-1.8l5.1-5.1
					l6.1-6.1c0.5-0.5,0.5-1.3,0-1.8C834.9,319.1,834.1,319.1,833.6,319.6z"/>
			</g>
			<g>
				<g>
					<path class="st28" d="M846.6,348.5l0.4,0.4l0.8,0.8l5.5,5.5c1.1,1.1,2.7,1.2,3.7,0.3l5.2-5.2c0.9-0.9,0.8-2.6-0.3-3.7l-5.5-5.5
						l-0.8-0.8l-0.4-0.4l-10.8-10.8l-8.6,8.6L846.6,348.5z"/>
					<g>
						<polygon class="st7" points="845.1,334.5 823.6,313 821.8,304.8 811.1,298.9 805.6,304.4 811.5,315.1 819.7,316.9 
							841.2,338.4 						"/>
						<path class="st28" d="M841.2,339.4l-21.8-21.8l-8.3-1.8l-6.3-11.4l6.2-6.2l11.4,6.3l1.8,8.3l21.8,21.8L841.2,339.4z
							 M811.9,314.5l8.1,1.8l21.2,21.2l2.9-2.9L823,313.3l-1.8-8.1l-10-5.5l-4.8,4.8L811.9,314.5z"/>
					</g>
					<g>
						<path class="st7" d="M840.8,340.7l6.7-6.7c1.6-1.6,1.6-4.3,0-6l0,0c-1.6-1.6-4.3-1.6-6,0l-6.7,6.7c-1.6,1.6-1.6,4.3,0,6h0
							C836.5,342.4,839.1,342.4,840.8,340.7z"/>
						<path class="st28" d="M837.8,342.6c-1.3,0-2.5-0.5-3.5-1.4c-1.9-1.9-1.9-5,0-6.9l6.7-6.7c1.9-1.9,5-1.9,6.9,0
							c1.9,1.9,1.9,5,0,6.9l-6.7,6.7C840.3,342.2,839,342.6,837.8,342.6z M844.5,327.5c-0.9,0-1.8,0.3-2.5,1l-6.7,6.7
							c-1.4,1.4-1.4,3.6,0,5c1.4,1.4,3.6,1.4,5,0l6.7-6.7c1.4-1.4,1.4-3.6,0-5C846.3,327.9,845.4,327.5,844.5,327.5z"/>
					</g>
				</g>
				<g class="st5">
					<g>
						<path class="st43" d="M855.6,305.1l-6.7,6.8c-2.5,2.1-5.2,0-5.2,0c-2.5-1.5-0.6-5.2-0.6-5.2l7.1-7.4l-3.1-0.3l-6.7,6.8
							c-3.1,3.2,0,8.9,0,8.9l-23.9,25c2.4,5.6,0.5,9.6-1.8,11.4c-2.6,2-5.8,1.5-5.8,1.5l-2.1,2.2c3.9,0.5,5.1,1.6,9.8-1.5
							c4.7-3.1,4-11.1,4-11.1l12-12.6l4.3,3.7l3.7-3.7l-3.7-3.7l7.1-6.8c7.6,1,9.8-3.1,9.8-3.1C858.2,312.3,855.6,305.1,855.6,305.1
							z M842.4,327.2c4.9,2,0.9,6.8,0.9,6.8s-0.9,1.2-3.4,3.7c-2.4,2.5-4.6,2.5-4.6,2.5c1.4,2.6,4.9,0.9,4.9,0.9l7.7-7.7
							c1.7-3.1-0.6-5.5-0.6-5.5C845.2,326,842.4,327.2,842.4,327.2z"/>
					</g>
				</g>
			</g>
		</g>
	</g>
	<text transform="matrix(1 0 0 1 799.5476 386.9049)" class="st28 st49 st50">Maintenance</text>
	<g>
		<g>
			<path class="st51" d="M793.3,413.3c0,6.4,5.2,11.6,11.6,11.6h51.9c6.4,0,11.6-5.2,11.6-11.6l0,0c0-6.4-5.2-11.6-11.6-11.6h-51.9
				C798.5,401.8,793.3,407,793.3,413.3L793.3,413.3z"/>
		</g>
	</g>
	<text transform="matrix(1 0 0 1 811.2249 416.4967)" class="st7 st49 st50">Request</text>
	<rect x="638.3" y="363.5" class="st52" width="22" height="5.5"/>
	
		<rect x="743" y="352.2" transform="matrix(-1.836970e-16 1 -1 -1.836970e-16 1106.5458 -401.4431)" class="st52" width="22" height="0.8"/>
	
		<rect x="896.9" y="352" transform="matrix(-1.836970e-16 1 -1 -1.836970e-16 1260.3896 -555.2871)" class="st52" width="22" height="1.1"/>
	<g>
		<path class="st53" d="M1154.5,529.3c-0.2,0-0.4,0-0.7,0c-6,0-11,4.5-11.9,9.9v1.4v3.5h75.7v-3.5v-1.4c-1.5-5.7-5.9-9.9-11.9-9.9
			c-0.3,0-0.6,0-0.9,0l0,0c-4-10.1-13.1-17.1-25.1-17.1C1167.9,512.2,1157.6,519.7,1154.5,529.3L1154.5,529.3z"/>
		<g>
			<path class="st54" d="M1157.6,529.2c-0.1,0,6.7,0,15,0v-13.9C1165.4,517.5,1159.7,522.8,1157.6,529.2z"/>
			<path class="st54" d="M1201.7,529.2c-3.5-8.8-11.5-15-21.9-15c-1.6,0-3.2,0.2-4.7,0.5v14.5
				C1187.5,529.2,1201.9,529.2,1201.7,529.2z"/>
		</g>
		<g>
			<g>
				<g>
					<g>
						<path class="st55" d="M1155.2,535.9c-4.5,0-8.2,3.7-8.2,8.2h3.6h12.8C1163.4,539.6,1159.7,535.9,1155.2,535.9z"/>
					</g>
				</g>
			</g>
			<circle class="st56" cx="1155.2" cy="544.1" r="6.2"/>
			<circle class="st57" cx="1155.2" cy="544.1" r="3.4"/>
			
				<ellipse transform="matrix(6.656561e-02 -0.9978 0.9978 6.656561e-02 536.8957 1663.0792)" class="st7" cx="1157.3" cy="544.6" rx="0.7" ry="0.4"/>
			<g class="st58">
				<path class="st6" d="M1155.2,539.2c3.3,0,6,2.7,6,6c0,0.3,0,0.6-0.1,0.9c0.2-0.6,0.3-1.3,0.3-2c0-3.5-2.8-6.2-6.2-6.2
					c-3.5,0-6.2,2.8-6.2,6.2c0,0.7,0.1,1.4,0.3,2c0-0.3-0.1-0.6-0.1-0.9C1149.2,541.8,1151.9,539.2,1155.2,539.2z"/>
			</g>
			<g class="st58">
				<path class="st6" d="M1155.2,541.4c1.8,0,3.2,1.4,3.2,3.2c0,0.2,0,0.3,0,0.5c0.1-0.3,0.2-0.7,0.2-1.1c0-1.9-1.5-3.4-3.4-3.4
					c-1.9,0-3.4,1.5-3.4,3.4c0,0.4,0.1,0.7,0.2,1.1c0-0.2,0-0.3,0-0.5C1151.9,542.9,1153.4,541.4,1155.2,541.4z"/>
			</g>
		</g>
		<g>
			<g>
				<g>
					<g>
						<path class="st55" d="M1203.3,535.9c-4.5,0-8.2,3.7-8.2,8.2h3.6h12.8C1211.5,539.6,1207.8,535.9,1203.3,535.9z"/>
					</g>
				</g>
			</g>
			<circle class="st56" cx="1203.3" cy="544.1" r="6.2"/>
			<circle class="st57" cx="1203.3" cy="544.1" r="3.4"/>
			
				<ellipse transform="matrix(6.656561e-02 -0.9978 0.9978 6.656561e-02 581.8409 1711.1227)" class="st7" cx="1205.5" cy="544.6" rx="0.7" ry="0.4"/>
			<g class="st58">
				<path class="st6" d="M1203.3,539.2c3.3,0,6,2.7,6,6c0,0.3,0,0.6-0.1,0.9c0.2-0.6,0.3-1.3,0.3-2c0-3.5-2.8-6.2-6.2-6.2
					s-6.2,2.8-6.2,6.2c0,0.7,0.1,1.4,0.3,2c0-0.3-0.1-0.6-0.1-0.9C1197.3,541.8,1200,539.2,1203.3,539.2z"/>
			</g>
			<g class="st58">
				<path class="st6" d="M1203.3,541.4c1.8,0,3.2,1.4,3.2,3.2c0,0.2,0,0.3,0,0.5c0.1-0.3,0.2-0.7,0.2-1.1c0-1.9-1.5-3.4-3.4-3.4
					s-3.4,1.5-3.4,3.4c0,0.4,0.1,0.7,0.2,1.1c0-0.2,0-0.3,0-0.5C1200.1,542.9,1201.5,541.4,1203.3,541.4z"/>
			</g>
		</g>
		<path class="st59" d="M1210.5,530.3c-0.9,0.6-1.6,1.6-1.6,2.8c0,1.8,1.5,3.3,3.3,3.3h3.5c0.3,0,0.6,0,0.8-0.1
			C1215.5,534.1,1213.9,531.8,1210.5,530.3z"/>
		<g>
			<g>
				<g>
					<path class="st55" d="M1215.7,535.3h-3.5c-1.6,0-3-1.2-3.2-2.8c0,0.2,0,0.4,0,0.5c0,1.8,1.5,3.3,3.3,3.3h3.5
						c0.3,0,0.6,0,0.8-0.1c-0.2-0.3-0.3-0.6-0.5-0.9C1215.9,535.3,1215.8,535.3,1215.7,535.3z"/>
				</g>
			</g>
		</g>
		<g>
			<path class="st59" d="M1211.1,534.1c0.8,1,2.4,1.2,3.4,0.3c0.2-0.2,0.3-0.3,0.5-0.5c-0.9-1.1-2.1-2.2-3.6-3.1
				C1210.4,531.6,1210.3,533.1,1211.1,534.1z"/>
			<path class="st7" d="M1211.1,534.1c0.8,1,2.4,1.2,3.4,0.3c0.2-0.2,0.4-0.4,0.5-0.6c-0.9-1.1-2-2.2-3.6-3.1
				C1210.5,531.6,1210.3,533.1,1211.1,534.1z"/>
		</g>
		<path class="st60" d="M1142,539h1.3c1.8,0,3.1-1.8,2.3-3.7c-0.3-0.6-0.8-1-1.4-1.2L1142,539z"/>
		
			<ellipse transform="matrix(6.642580e-02 -0.9978 0.9978 6.642580e-02 533.4684 1643.1102)" class="st7" cx="1144.8" cy="536.5" rx="0.7" ry="0.4"/>
		<g>
			<g>
				<g>
					<path class="st61" d="M1143.6,539l0.9-0.3c-1.3-1-0.6-3.2-0.1-4.5c-0.1,0-0.2-0.1-0.3-0.1c-1.1,1.4-1.9,3.1-2.2,4.9L1143.6,539
						z"/>
				</g>
			</g>
		</g>
		<path class="st55" d="M1188.3,533.7h-3.5c-0.4,0-0.7-0.3-0.7-0.7v0c0-0.4,0.3-0.7,0.7-0.7h3.5c0.4,0,0.7,0.3,0.7,0.7v0
			C1189,533.4,1188.7,533.7,1188.3,533.7z"/>
		<path class="st55" d="M1154.5,529.3c0,0,14.1-1.1,14.1,14.8C1168.6,544.1,1168.2,529.7,1154.5,529.3z"/>
		<path class="st55" d="M1204.5,529.3c0,0-14.1-1.1-14.1,14.8C1190.4,544.1,1190.8,529.7,1204.5,529.3z"/>
		<g>
			<path class="st54" d="M1164.9,529.2c2.3,0,4.9,0,7.7,0v-13.9c-1,0.3-2,0.7-2.9,1.1C1169.6,516.6,1164.4,522.2,1164.9,529.2z"/>
			<path class="st62" d="M1169.7,516.4c-5.8,2.6-10.3,7.3-12.1,12.8c-0.1,0,2.9,0,7.3,0C1164.4,522.2,1169.6,516.6,1169.7,516.4z"/>
			<path class="st54" d="M1181,529.2c10.6,0,20.9,0,20.8,0c-2.3-5.8-6.5-10.4-12.1-12.9C1187,518.4,1181.2,523.4,1181,529.2z"/>
			<path class="st62" d="M1175.1,514.7v14.5c1.9,0,3.9,0,5.9,0c0.3-5.8,6-10.8,8.7-12.9c-2.9-1.3-6.2-2.1-9.9-2.1
				C1178.2,514.2,1176.6,514.4,1175.1,514.7z"/>
		</g>
	</g>
	<g>
		<path class="st18" d="M957.2,303.9c0,0,0.9-6.7,5.4-5.3c0,0-5.1-3.2-6.2,1.9c0,0-2.9-2.8-6.2-0.4
			C950.2,300.1,954.7,300.5,957.2,303.9z"/>
		<path class="st18" d="M958.1,293.4c0,0,2.7-5.5,6.2-3c0,0-3.5-4.3-5.9-0.1c0,0-1.7-3.2-5.3-2.1C953.1,288.1,957,289.7,958.1,293.4
			z"/>
		<path class="st18" d="M967.9,298.9c0,0,2.9-3.5,5-1.1c0,0-1.8-3.7-4.2-1.1c0,0-0.6-2.6-3.4-2.5
			C965.2,294.3,967.7,296.1,967.9,298.9z"/>
		<path class="st18" d="M945.1,297.6c0,0,1.4-6,5.4-4.3c0,0-4.4-3.4-5.8,1.2c0,0-2.4-2.8-5.6-0.9
			C939.1,293.5,943.2,294.3,945.1,297.6z"/>
	</g>
	<polygon class="st52" points="660.2,265.6 660.2,272.9 655.9,270.9 650.3,272.3 645.8,279.9 638.3,279.9 638.3,262.3 660.2,262.3 	
		"/>
	<path class="st63" d="M702.6,489.1l27.9,46.8l7.2-4.3c1.3-0.7,2.8-0.9,4.4-0.5l14.5,3.8c1,0.3,5.8-1.1,6.5-1.6l35.2-21.9
		c2.1-1.2,2.5-4.4,1-7l-3.7-6.3c-0.8-1.4-0.6-3.1,0.5-3.8l4.7-3c1.8-1.1,2.1-3.9,0.7-6.1l-6.9-11.2c-1.3-2.1-0.9-4.6,0.8-5.5
		l3.5-1.9c2.6-1.5,2.7-4.8,0.6-7.9l-5.8-9.6c-0.4-0.8-0.3-1.7,0.3-2l23.8-14.1c3.9-2.3,4.7-8.1,1.8-13l-0.1-0.2
		c-3-5.1-8.6-7.2-12.6-4.9c-15.9,9.4-53.8,31.8-50.9,30.1c6.2-3.7,1.7-1,1.6-1l-20.2-1.9c-0.5,0.1-1,0.2-1.5,0.5l-18,10.7
		c-0.9,0.5-1.6,1.4-1.9,2.6l-3.8,23c-0.2,1.7-0.9,3.2-2,4.3L702.6,489.1z"/>
	<path class="st64" d="M776.1,461.8l-0.9-1.5c-0.5-0.8-0.4-1.9,0.3-2.3l17.8-10.6l0.3,1.7l1.9,3.2l-17.3,10.2
		C777.5,463,776.6,462.6,776.1,461.8z"/>
	<path class="st64" d="M776.6,485.9l-1.1-1.9c-0.4-0.7-0.3-1.6,0.3-2l18-10.7l0.5,2.3l1.7,2.7l-17.5,10.3
		C777.9,486.9,777,486.6,776.6,485.9z"/>
	<path class="st64" d="M777.2,509.4l-1.2-2.1c-0.4-0.7-0.3-1.5,0.3-1.8l21.8-12.9l2.1-0.8l-4.6,3.5c-0.6,0.6-0.6,1.8-0.1,2.7l1,1.8
		L779,510.1C778.4,510.4,777.6,510.1,777.2,509.4z"/>
	<g>
		<path class="st65" d="M653.6,255.3L653.6,255.3c-1.5,0.5-3,0.9-4.4,1.3C650.7,256.2,652.2,255.8,653.6,255.3z"/>
		<polygon class="st65" points="619.5,262.4 623.5,260.1 619.5,262.4 		"/>
		<path class="st65" d="M638.3,224.2L638.3,224.2c-3,2.1-5.2,4.5-6.5,7C633.1,228.8,635.3,226.3,638.3,224.2z"/>
		<path class="st65" d="M631.8,239c-0.2-0.3-0.4-0.5-0.5-0.8c-0.3-0.6-0.5-1.2-0.6-1.8c0.1,0.6,0.3,1.2,0.6,1.8
			C631.5,238.5,631.6,238.8,631.8,239z"/>
		<polygon class="st65" points="679.3,210.9 679.3,210.9 679.2,210.8 678.9,210.7 678.9,210.7 679.2,210.8 		"/>
		<polygon class="st65" points="615.2,260.1 615.1,260.3 615.6,260.5 615.1,260.3 		"/>
		<polygon class="st65" points="611,251.3 616,250.4 616,250.4 		"/>
		<path class="st65" d="M616.5,250.9c0.6,0.7,1.3,1.4,2.1,2l-2.1,4.5l2.1-4.5C617.8,252.3,617.1,251.6,616.5,250.9z"/>
		<polygon class="st65" points="633.3,258 628.5,257.3 628.5,257.3 633.3,258 634.8,264.9 635.3,266.8 634.8,264.9 		"/>
		<polygon class="st65" points="683.4,232.4 684.2,230.8 687.9,229.4 684.2,230.8 		"/>
		<polygon class="st65" points="687.1,240.5 687.2,240.5 687.1,240.5 		"/>
		<path class="st65" d="M683.4,244.9l-10.6,0.2c-1,0.8-2,1.6-3.1,2.3c1.1-0.8,2.1-1.5,3.1-2.3L683.4,244.9l4-4.5l0,0L683.4,244.9z"
			/>
		<path class="st65" d="M687.4,240.1c-0.1,0.1-0.1,0.1-0.2,0.2C687.3,240.3,687.4,240.2,687.4,240.1l-2.4-2.3L687.4,240.1z"/>
		<path class="st65" d="M661.2,220.2c1.2,0.6,2.2,1.3,2.8,2.3c0.4,0.6,0.7,1.2,0.9,1.8c-0.2-0.6-0.5-1.2-0.9-1.8
			C663.3,221.6,662.3,220.8,661.2,220.2z"/>
		<polygon class="st65" points="665.2,257.4 667.7,256.3 667.8,253.4 667.7,256.3 		"/>
		<path class="st65" d="M660.2,229.1v-9.3h0L660.2,229.1c-4.4-0.8-10.2,0-15.6,2.7c-2.4,1.2-4.6,2.6-6.4,4.2v0
			c-1.8,1.6-3.3,3.4-4.2,5.1h0c1.2,0.7,2.6,1.2,4.2,1.4c4.2,0.7,9.7-0.1,15-2.7c2.8-1.3,5.1-2.9,7-4.6c1.6-1.5,2.9-3.1,3.7-4.7
			c0.3-0.5,0.5-1.1,0.7-1.6c-0.2,0.5-0.4,1.1-0.7,1.6C662.9,229.8,661.7,229.4,660.2,229.1z"/>
		<path class="st66" d="M696.9,232.3l-2.2-9.9v0h0c0-0.1-0.2-0.2-0.4-0.1l-1.4-0.2l0,0l0,0l0.5-0.5l-2.2-9.9l-6.6,5.9l1,3.4l3.1,0.5
			l-3.1-0.5l-1-3.4l6.6-5.9l-2.8-3l-9.2,2l0,0.2l0-0.2l-1.7-7.6l-2,5.8l2.6,1.4c0.2,0.1,0.5,0.3,0.7,0.4l0,0
			c-0.2-0.2-0.5-0.3-0.7-0.4l-2.6-1.4l2-5.8l-4.8-1l-7.9,4.4c-1.5-0.1-3-0.1-4.6-0.1c0,0,0,0,0,0L658,202l-5.5,0.9l-4.8,5.5
			c-1.6,0.4-3.2,0.9-4.8,1.5l-4.7-1.8l-0.9-0.3l-5.1,2.5l-1,5.3c-1.4,0.9-2.8,1.8-4,2.7l-7.6,0.6l-3.8,3.6l1.6,2.3l-1.6-2.3l1.4,6.1
			l0,0c-0.3,0.5-0.6,0.9-0.9,1.4l-8.2,3.4l-1.6,4h0l2,8.8l4.3-3.7c-0.1-0.7-0.1-1.4,0-2.1c0,0.7,0,1.4,0,2.1l-4.3,3.7l-2.6,2.2
			l0.1,0.2l1.2,3.5h0l-1.2-3.5l3.4,13.4l5.8-1l2.1,9.4l4.4,2.1l8.9-5c0,0,0.5,0.1,1.3,0.2c0.4,0.1,0.9,0.2,1.4,0.2
			c0.9,0.1,1.9,0.3,2.2,0.2l1.9,6.9l0.8-0.1l6.6-0.4l-2.3-9.9l1.9-2.8l-1.9,2.8l2.3,9.9l5.1-7.5c1.9-0.4,3.9-1,5.9-1.6l4.4,2.4
			l3,1.7l-0.8-3.7l0.8,3.7l7.4-3.5l-0.5-7.4c1.7-1.1,3.3-2.3,4.8-3.5l10.6-0.2l4.2-4.7l-2.2-9.8l8.9-3.5L696.9,232.3z M615.1,260.3
			l0.1-0.1L615.1,260.3l0.5,0.2L615.1,260.3z M611,251.3l5-0.9h0L611,251.3z M616.5,257.4l2.1-4.5c-0.8-0.6-1.5-1.3-2.1-2
			c0.6,0.7,1.3,1.4,2.1,2L616.5,257.4z M619.5,262.4L619.5,262.4l4-2.2L619.5,262.4z M678.9,210.7l0.4,0.2l0,0v0l0,0L678.9,210.7
			L678.9,210.7z M638.3,224.2L638.3,224.2c-3,2.1-5.2,4.5-6.5,7C633.1,228.8,635.3,226.3,638.3,224.2z M631.3,238.2
			c0.1,0.3,0.3,0.6,0.5,0.8C631.6,238.8,631.5,238.5,631.3,238.2c-0.3-0.6-0.5-1.2-0.6-1.8C630.9,237,631,237.6,631.3,238.2z
			 M634.8,264.9l-1.5-6.9l-4.9-0.7l0,0l4.9,0.7L634.8,264.9l0.5,1.9L634.8,264.9z M653.6,255.3c-1.5,0.5-3,0.9-4.4,1.3
			C650.7,256.2,652.2,255.8,653.6,255.3L653.6,255.3z M664,230.5c-0.8,1.6-2.1,3.2-3.7,4.7c-1.9,1.7-4.2,3.3-7,4.6
			c-5.3,2.5-10.8,3.4-15,2.7c-1.6-0.3-3-0.7-4.2-1.4h0c0.9-1.8,2.4-3.5,4.2-5.1v0c1.8-1.6,3.9-3,6.4-4.2c5.4-2.6,11.2-3.5,15.6-2.7
			v-9.3h0v9.3C661.7,229.4,662.9,229.8,664,230.5c0.3-0.5,0.5-1.1,0.7-1.6C664.5,229.4,664.3,229.9,664,230.5z M664,222.5
			c-0.7-1-1.7-1.7-2.8-2.3C662.3,220.8,663.3,221.6,664,222.5c0.4,0.6,0.7,1.2,0.9,1.8C664.7,223.7,664.4,223.1,664,222.5z
			 M667.7,256.3l-2.5,1.2L667.7,256.3l0.1-2.9L667.7,256.3z M683.4,244.9l-10.6,0.2c-1,0.8-2,1.6-3.1,2.3c1.1-0.8,2.1-1.5,3.1-2.3
			L683.4,244.9l4-4.5l0,0L683.4,244.9z M687.1,240.5L687.1,240.5l0.1-0.1L687.1,240.5z M687.2,240.3c0.1-0.1,0.2-0.2,0.2-0.2
			l-2.4-2.3l2.4,2.3C687.4,240.2,687.3,240.3,687.2,240.3z M684.2,230.8l-0.8,1.5L684.2,230.8l3.8-1.5L684.2,230.8z"/>
	</g>
	<g>
		<path class="st65" d="M660.2,235.2c1.6-1.5,2.9-3.1,3.7-4.7c-1.1-0.6-2.3-1.1-3.7-1.4V235.2z"/>
		<path class="st65" d="M638.3,235.9c-1.8,1.6-3.3,3.4-4.2,5.1c1.2,0.7,2.6,1.2,4.2,1.4V235.9z"/>
		<path class="st66" d="M613,239l-6.4-1.7l2,8.8l4.3-3.7C612.8,241.3,612.8,240.1,613,239z"/>
		<path class="st66" d="M638.3,235.9v-11.7c-6,4.2-9,9.8-7,14c0.6,1.2,1.5,2.1,2.8,2.9C635,239.3,636.4,237.5,638.3,235.9z"/>
		<polygon class="st66" points="661.1,259.4 663.3,269.3 670.7,265.8 667.7,256.3 		"/>
		<polygon class="st66" points="619.5,262.4 616,260.7 615.3,260.8 617.4,270.2 621.7,272.3 630.7,267.3 628.5,257.3 		"/>
		<polygon class="st66" points="615.1,260.3 615.3,260.8 616,260.7 		"/>
		<polygon class="st66" points="687.4,240.4 687.6,240.3 687.5,240.2 		"/>
		<path class="st66" d="M615.2,260.1l3.3-7.1c-1-0.8-1.8-1.6-2.6-2.5l-8.8,1.5l-1.2-3.5l3.4,13.4l5.8-1l-0.1-0.6
			C614.9,260.1,615,260.1,615.2,260.1z"/>
		<path class="st66" d="M684.2,230.8l3.3,9.2c0.2-0.2,0.3-0.3,0.1,0.1l0,0.1l8.9-3.5l-2.2-9.9L684.2,230.8z"/>
		<path class="st66" d="M687.5,240.1l0.1,0.1C687.8,239.8,687.7,239.8,687.5,240.1z"/>
		<path class="st66" d="M678.8,210.7L678.8,210.7l-0.7-0.4C678.3,210.4,678.6,210.5,678.8,210.7z"/>
		<polygon class="st66" points="683.4,244.9 685.6,254.8 689.8,250.1 687.6,240.3 687.4,240.4 		"/>
		<path class="st66" d="M668,248.5l2.2,9.9c1.7-1.1,3.3-2.3,4.8-3.5l-2.2-9.9C671.3,246.3,669.7,247.4,668,248.5z"/>
		<path class="st66" d="M633.4,267.7c-0.5-0.1-1-0.2-1.4-0.2C632.4,267.6,632.9,267.7,633.4,267.7z"/>
		<path class="st66" d="M694.3,222.3l0.4,0.1C694.7,222.2,694.5,222.2,694.3,222.3z"/>
		<path class="st66" d="M664,230.5c1.5-2.9,1.6-5.7,0-7.9c-0.9-1.2-2.2-2.1-3.8-2.7v9.3C661.7,229.4,662.9,229.8,664,230.5z"/>
		<path class="st66" d="M615.9,222.4l1.4,6.1c0.5-0.7,1-1.4,1.5-2.1L615.9,222.4z"/>
		<path class="st66" d="M615.1,260.3l0.1-0.2C615,260.1,614.9,260.1,615.1,260.3z"/>
		<polygon class="st67" points="667.7,256.3 670.7,265.8 670.2,258.5 668,248.5 		"/>
		<polygon class="st67" points="672.8,245.1 675,255 685.6,254.8 683.4,244.9 		"/>
		<path class="st67" d="M684.2,230.8c-0.6,1.4-1.3,2.7-2.1,4.1l5.4,5.2c0,0,0,0,0,0L684.2,230.8z"/>
		<path class="st67" d="M687.5,240.1C687.5,240.1,687.5,240.1,687.5,240.1l0.1,0.1L687.5,240.1z"/>
		<polygon class="st67" points="696.4,236.8 696.9,232.3 694.7,222.4 694.2,226.9 		"/>
		<polygon class="st67" points="692.9,222.1 693.5,221.6 692.9,222.1 		"/>
		<path class="st67" d="M685.6,220.9l7.2,1.2l0.6-0.5l-2.2-9.9l-6.6,5.9C685.1,218.6,685.5,219.7,685.6,220.9z"/>
		<polygon class="st67" points="679.2,210.6 677.5,203 679.2,210.6 		"/>
		<path class="st67" d="M678.1,210.2l0.8,0.4l0.3-0.1l-1.7-7.6l-2,5.8C676.4,209.3,677.3,209.7,678.1,210.2z"/>
		<path class="st68" d="M618.2,260.3l-1,0.2C618,260.6,618.5,260.7,618.2,260.3z"/>
		<path class="st68" d="M687.1,240.5l-0.7,0.3C686.1,241.4,686.6,241,687.1,240.5z"/>
		<path class="st68" d="M687.4,240.1c-0.1,0.1-0.2,0.3-0.4,0.4l0.3-0.1l0.1-0.2L687.4,240.1z"/>
		<path class="st68" d="M682.1,234.9c0.8-1.4,1.6-2.7,2.1-4.1L682.1,234.9z"/>
		<polygon class="st68" points="692.8,222.2 692.9,222.2 692.9,222.1 692.9,222.1 		"/>
		<polygon class="st68" points="685.6,220.9 692.8,222.2 692.9,222.1 		"/>
		<path class="st68" d="M685.6,220.9c-0.2-1.2-0.5-2.3-1-3.4L685.6,220.9z"/>
		<polygon class="st68" points="679.2,210.8 679.3,210.9 679.2,210.6 679.2,210.6 		"/>
		<path class="st68" d="M678.1,210.2c-0.8-0.5-1.7-1-2.6-1.4L678.1,210.2z"/>
		<polygon class="st68" points="678.9,210.7 679.2,210.8 679.2,210.6 		"/>
		<path class="st67" d="M632,267.5c-0.4-0.1-0.9-0.1-1.3-0.2C630.7,267.3,631.2,267.4,632,267.5z"/>
		<path class="st67" d="M635.6,268c-0.8-0.1-1.5-0.1-2.2-0.2C634.3,267.9,635.2,268,635.6,268z"/>
		<path class="st67" d="M633.3,258c-1.7-0.1-3.3-0.4-4.9-0.7l2.2,9.9c0.4,0.1,0.8,0.2,1.3,0.2c0.4,0.1,0.9,0.2,1.4,0.2
			c0.7,0.1,1.5,0.2,2.2,0.2l-0.8-3.1L633.3,258z"/>
		<path class="st67" d="M633.3,258l-4.9-0.7C630,257.7,631.6,257.9,633.3,258z"/>
		<path class="st66" d="M650,266.9c1.9-0.4,3.9-1,5.9-1.6l-2.2-9.9c-2,0.6-3.9,1.2-5.9,1.6L650,266.9z"/>
		<polygon class="st66" points="642.6,264.4 638.3,264.7 634.8,264.9 635.6,268 637.5,274.8 638.3,274.8 644.9,274.4 		"/>
		<path class="st69" d="M660.2,206.4L658,202l-5.5,0.9l-4.8,5.5c-1.6,0.4-3.2,0.9-4.8,1.5l-4.7-1.8v10.3v5.9v11.7
			c1.8-1.6,3.9-3,6.4-4.2c5.4-2.6,11.2-3.5,15.6-2.7v-9.3V212L660.2,206.4C660.2,206.4,660.2,206.4,660.2,206.4z"/>
		<g>
			<path class="st65" d="M687.1,240.5l-0.7,0.3C686.1,241.4,686.6,241,687.1,240.5z"/>
			<path class="st65" d="M617.2,260.5c0.7,0.1,1.3,0.2,1-0.2L617.2,260.5z"/>
			<g>
				<path class="st65" d="M687.1,240.5l-0.7,0.3C686.1,241.4,686.6,241,687.1,240.5z"/>
				<path class="st65" d="M606,248.4c0-0.2,0.3-0.3,0.8-0.3C606.3,248.2,606,248.2,606,248.4z"/>
				<path class="st65" d="M614.3,249.2c0.5,0,0.9-0.1,0.9-0.3C615.2,249.1,614.8,249.2,614.3,249.2z"/>
				<path class="st65" d="M617.2,260.5c0.7,0.1,1.3,0.2,1-0.2L617.2,260.5z"/>
				<path class="st68" d="M694.2,226.9l0.5-4.5l-0.4-0.1l-1.4-0.2l-0.1,0.1l-0.1,0l-7.2-1.3l-1-3.4l6.6-5.9l-2.8-3l-9.2,2l0.1,0.3
					l0,0l-0.4-0.2l-0.1,0c-0.2-0.2-0.5-0.3-0.7-0.4l-2.6-1.4l2-5.8l-4.8-1l-7.9,4.4c-1.5-0.1-3-0.1-4.6-0.1v5.6v7.8
					c1.6,0.6,2.9,1.5,3.8,2.7c1.6,2.2,1.5,5.1,0,7.9c-0.8,1.6-2.1,3.2-3.7,4.7c-1.9,1.7-4.2,3.3-7,4.6c-5.3,2.5-10.8,3.4-15,2.7
					c-1.6-0.3-3-0.7-4.2-1.4c-1.2-0.7-2.2-1.7-2.8-2.9c-2.1-4.1,1-9.8,7-14v-5.9v-10.3l-0.9-0.3l-5.1,2.5l-1,5.3
					c-1.4,0.9-2.8,1.8-4,2.7l-7.6,0.6l-3.8,3.6l2.9,4c-0.5,0.7-1,1.4-1.5,2.1c-0.3,0.5-0.6,0.9-0.9,1.4l-8.2,3.4l-1.6,4l6.4,1.7
					c-0.2,1.2-0.2,2.3-0.1,3.4l-4.3,3.7l-2.6,2.2l0.1,0.2l1.2,3.5l8.8-1.5c0.7,0.9,1.6,1.8,2.6,2.5l-3.3,7.1l-0.1,0.2l0.9,0.4
					l3.5,1.7l8.9-5l4.9,0.7l1.5,6.9l3.5-0.2l4.3-0.3l5.2-7.5c1.9-0.4,3.9-1,5.9-1.6l6.6,3.6l0.8,0.4l6.6-3.1l0.3-7.7
					c1.7-1.1,3.3-2.3,4.8-3.5l10.6-0.2l4-4.5l-0.3,0.1c-0.5,0.5-0.9,0.9-0.7,0.3l0.7-0.3c0.1-0.1,0.3-0.3,0.4-0.4l-5.4-5.2l2.1-4.1
					L694.2,226.9z M606,248.4c0-0.2,0.3-0.3,0.8-0.3C606.3,248.2,606,248.2,606,248.4z M614.3,249.2c0.5,0,0.9-0.1,0.9-0.3
					C615.2,249.1,614.8,249.2,614.3,249.2z M617.2,260.5l1-0.2C618.5,260.7,618,260.6,617.2,260.5z"/>
			</g>
		</g>
		<polygon class="st67" points="661.1,259.4 660.2,258.9 653.6,255.3 655.9,265.3 660.2,267.7 663.3,269.3 		"/>
		<polygon class="st67" points="642.6,264.4 644.9,274.4 650,266.9 647.8,256.9 		"/>
	</g>
	<path class="st36" d="M649.3,366.3"/>
</g>
<rect x="1072" y="252" class="st65" width="276" height="136"/>
<text transform="matrix(1 0 0 1 1072 265.2749)"><tspan x="0" y="0" class="st70 st71">after</tspan><tspan x="37.3" y="0" class="st70 st71"> </tspan><tspan x="42.5" y="0" class="st70 st71">choosing</tspan><tspan x="113" y="0" class="st70 st71"> </tspan><tspan x="118.2" y="0" class="st70 st71">the</tspan><tspan x="144.2" y="0" class="st70 st71"> </tspan><tspan x="149.3" y="0" class="st70 st71">city</tspan><tspan x="178" y="0" class="st70 st71"> </tspan><tspan x="183.1" y="0" class="st70 st71">and</tspan><tspan x="212.2" y="0" class="st70 st71"> </tspan><tspan x="217.3" y="0" class="st70 st71">district, </tspan><tspan x="0" y="21.6" class="st70 st71">just</tspan><tspan x="28.6" y="21.6" class="st70 st71 st72"> </tspan><tspan x="39.6" y="21.6" class="st70 st71">choose</tspan><tspan x="95.9" y="21.6" class="st70 st71 st72"> </tspan><tspan x="106.9" y="21.6" class="st70 st71">the</tspan><tspan x="132.9" y="21.6" class="st70 st71 st72"> </tspan><tspan x="143.9" y="21.6" class="st70 st71">service</tspan><tspan x="199.5" y="21.6" class="st70 st71 st72"> </tspan><tspan x="210.5" y="21.6" class="st70 st71">you</tspan><tspan x="240" y="21.6" class="st70 st71 st72"> </tspan><tspan x="251" y="21.6" class="st70 st71">are </tspan><tspan x="0" y="43.2" class="st70 st71">looking</tspan><tspan x="57.5" y="43.2" class="st70 st71"> </tspan><tspan x="62.7" y="43.2" class="st70 st71">for</tspan><tspan x="85.8" y="43.2" class="st70 st71"> </tspan><tspan x="91" y="43.2" class="st70 st71">and</tspan><tspan x="120.1" y="43.2" class="st70 st71"> </tspan><tspan x="125.3" y="43.2" class="st70 st71">fill</tspan><tspan x="144.1" y="43.2" class="st70 st71"> </tspan><tspan x="149.3" y="43.2" class="st70 st71">out</tspan><tspan x="176" y="43.2" class="st70 st71"> </tspan><tspan x="181.2" y="43.2" class="st70 st71">the</tspan><tspan x="207.2" y="43.2" class="st70 st71"> </tspan><tspan x="212.4" y="43.2" class="st70 st71">descri</tspan><tspan x="269.3" y="43.2" class="st70 st71">-</tspan><tspan x="0" y="64.8" class="st70 st71">tion</tspan><tspan x="31.3" y="64.8" class="st70 st71 st73"> </tspan><tspan x="44.9" y="64.8" class="st70 st71">and</tspan><tspan x="73.9" y="64.8" class="st70 st71 st73"> </tspan><tspan x="87.4" y="64.8" class="st70 st71">choose</tspan><tspan x="143.8" y="64.8" class="st70 st71 st73"> </tspan><tspan x="157.3" y="64.8" class="st70 st71">your</tspan><tspan x="193.4" y="64.8" class="st70 st71 st73"> </tspan><tspan x="206.9" y="64.8" class="st70 st71">payment </tspan><tspan x="56.2" y="86.4" class="st70 st71">method and request.</tspan></text>
<rect x="1004" y="210" class="st65" width="412" height="50"/>
<text transform="matrix(1 0 0 1 1085.9346 230.9858)" class="st74 st75">Request the service</text>
</svg>
