<?xml version="1.0" encoding="utf-8"?>
<!-- Generator: Adobe Illustrator 21.1.0, SVG Export Plug-In . SVG Version: 6.00 Build 0)  -->
<svg version="1.1" id="Layer_1" xmlns="http://www.w3.org/2000/svg" xmlns:xlink="http://www.w3.org/1999/xlink" x="0px" y="0px"
	 viewBox="0 0 2000 668" style="enable-background:new 0 0 2000 668;" xml:space="preserve">
<style type="text/css">
	.st0{fill:#805038;}
	.st1{fill:#9B6649;}
	.st2{fill:#6D412D;}
	.st3{fill:#A2CCD6;}
	.st4{fill:#3E5823;}
	.st5{fill:#FFFFFF;}
	.st6{fill:#76B72A;}
	.st7{opacity:0.2;}
	.st8{fill:#1D1D1B;}
	.st9{fill:#547831;}
	.st10{fill:#476429;}
	.st11{fill:#BA6456;}
	.st12{fill:#8A4336;}
	.st13{fill:#6D9C40;}
	.st14{fill:#CC6733;}
	.st15{fill:#563722;}
	.st16{fill:#845F41;}
	.st17{fill:#CCCBCB;}
	.st18{fill:#F9BD69;}
	.st19{fill:#996634;}
	.st20{fill:#CC9966;}
	.st21{fill:#BB8767;}
	.st22{fill:#D1D3D4;}
	.st23{fill:#F9F8F7;}
	.st24{opacity:0.5;fill:#C5D665;}
	.st25{opacity:0.2;fill:#1D1D1B;}
	.st26{fill:#9B9B9A;}
	.st27{fill:#717070;}
	.st28{fill:#E20A13;}
	.st29{fill:none;stroke:#FFFFFF;stroke-miterlimit:10;}
	.st30{font-family:'Lato-Semibold';}
	.st31{font-size:7.4519px;}
	.st32{fill:none;stroke:#333333;stroke-width:22;stroke-miterlimit:10;}
	.st33{fill-rule:evenodd;clip-rule:evenodd;fill:#2E5579;}
	.st34{fill:#1C4260;}
	.st35{fill:#09263D;}
	.st36{fill:#28242C;}
	.st37{fill:#C4C3C4;}
	.st38{opacity:0.4;}
	.st39{fill-rule:evenodd;clip-rule:evenodd;fill:#8ACBF0;}
	.st40{fill:#6BBFAB;}
	.st41{fill-rule:evenodd;clip-rule:evenodd;fill:#1C4260;}
	.st42{fill-rule:evenodd;clip-rule:evenodd;fill:#FFF381;}
	.st43{fill:#B9D9ED;}
	.st44{fill:#E53C39;}
	.st45{fill:#FFF7C2;}
	.st46{fill:#2E5579;}
	.st47{opacity:0.5;fill:#1D1D1B;}
	.st48{opacity:0.5;}
	.st49{fill:#0E4960;}
	.st50{fill:#30B2E7;}
	.st51{fill:#333435;}
	
		.st52{fill:none;stroke:#FFFFFF;stroke-width:2;stroke-linecap:round;stroke-linejoin:round;stroke-miterlimit:10;stroke-dasharray:10,20;}
	.st53{fill:none;}
	.st54{font-family:'Lato-Regular';}
	.st55{font-size:18px;}
	.st56{letter-spacing:2;}
	.st57{font-family:'Lato-Black';}
	.st58{font-size:28px;}
</style>
<g>
	<line class="st0" x1="847" y1="503.9" x2="847.7" y2="507.6"/>
	<g>
		<path class="st1" d="M889.6,521c-1.1-4.5-1.3-8.8-3.2-11.6c-1.9-2.8-6.9-8.1-6.9-8.1l-3.8-0.9c0,0,1.9-5,1.5-7.8
			c-0.5-2.8,1.1-5.9,1.1-5.9s-5.5-2.4-6.2-3.7c-0.7-1.3-6.3-6.1-6.8-8.5c-0.5-2.4-7.7-11.4-7.7-11.4l-8-1.8c0,0-4.5,0.1-6.6,0.8
			c-2.1,0.7-5.4,8.8-5.4,8.8l-8.1,2.4c0,0-5.8-0.5-6.2,1.3c-0.4,1.9-3.8,7.3-3.8,7.3s-5.9,2.5-7.1,3.4c-1.2,0.9-3.7,6.5-4,8
			c-0.3,1.5-4.6,3.2-6.1,3.6c-1.6,0.4-5.9-2.5-9.4,2.9c-3.5,5.4-3.8,6.9-5.9,7.6c-2.1,0.7-3.3,0.3-5,1.5c-1.7,1.2,0.1,1.9,0.1,1.9
			l1,10.8"/>
		<g>
			<path class="st0" d="M866.1,525.3c-0.8,0.4-4.6-0.6-5.7-1.3s-5-2.3-5-2.3l-6-2.3l-5-4.6l-0.2-6.4l-10,3l-9.4-3.9l-3.1-5.7l8-0.5
				c0,0,5.7-2.6,5.8-3.1c0.1-0.6-5.3-6-5.3-6l1.8-2.9l10.2-0.4c0,0,5-1.6,4.5-2.7c-0.5-1.1,2.8-5.4,2.8-5.4l5.5-3l-0.9-5.2l-0.8-5.4
				l4.5-4l-8-1.8c0,0-4.5,0.1-6.6,0.8c-2.1,0.7-5.4,8.8-5.4,8.8l-8.1,2.4c0,0-5.8-0.5-6.2,1.3c-0.4,1.9-3.8,7.3-3.8,7.3
				s-5.9,2.5-7.1,3.4c-1.2,0.9-3.7,6.5-4,8c-0.3,1.5-4.6,3.2-6.1,3.6c-1.6,0.4-5.9-2.5-9.4,2.9c-3.5,5.4-3.8,6.9-5.9,7.6
				c-2.1,0.7-2.7,1.2-4.4,2.4c-1.7,1.2,1.1,5.3,1.1,5.3l0.9,9.3"/>
		</g>
		<path class="st0" d="M863.8,493.1l-0.5,2.8l-2.6,3.1c0,0,0.1,2,1.3,3.4c1.2,1.4,1.1,4.5,0.8,6.2s-1.6-1.7-1.6-1.7l0.5-2.6
			l-2.6-3.3c0,0,0.8-2.9,0.7-3.5C859.6,496.8,863.2,496,863.8,493.1z"/>
		<path class="st0" d="M838,499l4.8-0.6l2.8,2.4l-1.7-3.1c0,0-0.4-0.3-1.6-0.4S838,499,838,499z"/>
		<path class="st0" d="M864.3,479.8l3.1,4.6c0,0,0.2,1.4-0.5,2.4c-0.7,1-0.7,3.5-0.7,3.5l-0.7-6L864.3,479.8z"/>
		<g>
			<path class="st2" d="M828.5,524.3c0,0-7.6-1.5-7.7-1.9c0-0.4-0.7-3.3-0.7-3.3L809,518l-5-6l5.8-0.8c0,0-2.2-7.7-2.5-8.9
				c-0.3-1.2-0.9-3.3-0.9-3.3l5.3-3.2l4.1-2.3l1.2-6.1l3.9-2.6c0,0,2.8-1.9,2.9-2.4c0.1-0.6,3.3-4.7,3.3-4.7l5.9,0.2
				c0,0,4.3-3.1,4.7-4c0.4-0.9,2.3-2,2.7-2.5c0.3-0.5,3-1.4,3-1.4l2.7-1.1l0.8-4.1l4-1.6l1-1.3l-2.4-0.6c0,0-4.5,0.1-6.6,0.8
				c-2.1,0.7-5.4,8.8-5.4,8.8l-8.1,2.4c0,0-5.8-0.5-6.2,1.3c-0.4,1.9-3.8,7.3-3.8,7.3s-5.9,2.5-7.1,3.4c-1.2,0.9-3.7,6.5-4,8
				c-0.3,1.5-4.6,3.2-6.1,3.6c-1.6,0.4-5.9-2.5-9.4,2.9c-3.5,5.4-3.8,6.9-5.9,7.6c-2.1,0.7-2.8-0.2-4.5,1c-1.7,1.2,0.7,2.3,0.7,2.3
				l5.6,18l-0.1,29.9l213.5-23.2l-11.7-19.6L828.5,524.3z"/>
		</g>
		<path class="st0" d="M858.3,466.2l1.6,2.5l2.3,2.6l0.4,3.3c0,0,0.8,2.5,0.9,3.6c0.1,1-1.7-3.5-1.7-3.5s-0.5-1-1-1.9
			c-0.5-0.9-1.3-2.7-1.3-2.7L858.3,466.2z"/>
	</g>
	<path class="st2" d="M801,502.5c0,0,1.9-0.2,2.6-0.3c0.7-0.1,3.5-2.4,3.5-2.4l-1.1,3.1c0,0,3.2,2.5,3.4,3c0.3,0.5-1.7,0.1-1.7,0.1
		l-2.5-1.9L801,502.5z"/>
	<g>
		<path class="st1" d="M1052.5,498.7c0,0-6.6,0-9.9-5.1c-3.3-5.1-4.9-10.2-9-13c-4.1-2.8-14-7.9-14-7.9h-6.6c0,0,1.6-6.5,0-9.8
			c-1.6-3.3,0-7.4,0-7.4s-9.9-1.4-11.5-2.8c-1.6-1.4-12.3-5.6-14-8.4c-1.6-2.8-16.4-11.6-16.4-11.6h-14c0,0-7.4,1.4-10.7,2.8
			c-3.3,1.4-6.2,12.1-6.2,12.1l-12.7,5.1c0,0-9.9,0.9-9.9,3.3c0,2.3-4.1,9.8-4.1,9.8s-9,4.6-10.7,6s-4.1,8.8-4.1,10.7
			c0,1.9-6.6,5.1-9,6c-2.5,0.9-10.7-1.4-14.8,6c-4.1,7.4-4.1,9.3-7.4,10.7c-3.3,1.4-10.7,2.3-13.2,4.2c-2.5,1.9-12.6,5.6-12.6,5.6
			l-14.5,2.3l285.1,22.5l-13.8-21.6l-21.5-15.8c-4.1-0.5-18.9-2.8-18.9-2.8L1052.5,498.7z"/>
		<g>
			<path class="st0" d="M1031.5,511.3c0,0-11.1-1.6-15.6-3.3c-4.5-1.6-5.8-2.3-5.8-2.3s-4.1-1.1-5.3-0.4c-1.2,0.7-7.8,0.5-9.9,0
				c-2.1-0.5-9-1.4-9-1.4l-10.7-1.2l-9.9-4.2l-2.4-7.7l-15.7,6.3l-16.8-2.1l-7-6l13.2-2.8c0,0,8.6-4.6,8.6-5.3s-10.7-5.8-10.7-5.8
				l2.1-3.9l16.8-3.3c0,0,7.8-3.3,6.6-4.4c-1.2-1.2,2.9-7.2,2.9-7.2l8.2-5.1l-3.1-6l-3.1-6.3l6.2-6h-14c0,0-7.4,1.4-10.7,2.8
				c-3.3,1.4-6.2,12.1-6.2,12.1l-12.7,5.1c0,0-9.9,0.9-9.9,3.3c0,2.3-4.1,9.8-4.1,9.8s-9,4.6-10.7,6s-4.1,8.8-4.1,10.7
				c0,1.9-6.6,5.1-9,6c-2.5,0.9-10.7-1.4-14.8,6c-4.1,7.4-4.1,9.3-7.4,10.7c-3.3,1.4-10.7,2.3-13.2,4.2c-2.5,1.9-12.6,5.6-12.6,5.6
				l-14.5,2.3h228.5l-22.2-2.8L1031.5,511.3z"/>
		</g>
		<path class="st0" d="M990.8,467.2v3.5l-3.3,4.4c0,0,0.8,2.3,3.3,3.7c2.5,1.4,3.3,5.1,3.3,7.2c0,2.1-3.3-1.6-3.3-1.6v-3.3l-5.3-3.3
			c0,0,0.4-3.7,0-4.4C985.1,472.7,990.8,470.9,990.8,467.2z"/>
		<path class="st0" d="M1025.3,493.6l3.7,3.9l17.7,7.2c0,0,7.4,1.2,9,1.4c1.6,0.2-12.7-1.6-12.7-1.6l-4.5-2.1
			C1038.5,502.5,1026.6,496.2,1025.3,493.6z"/>
		<path class="st0" d="M949.7,481.3l7.8-2.1l5.4,2.1l-3.8-3.3c0,0-0.8-0.2-2.8,0C954.3,478.3,949.7,481.3,949.7,481.3z"/>
		<path class="st0" d="M987.5,451.1l6.6,4.6c0,0,0.8,1.6,0,3c-0.8,1.4,0,4.4,0,4.4l-3.1-7L987.5,451.1z"/>
		<g>
			<path class="st2" d="M967.8,515.2c-2.1,0.5-24.2,0-24.2,0s-14.8-0.7-15-1.2c-0.2-0.5-2.3-3.7-2.3-3.7l-18.9,1.6l-10.3-5.8
				l9.5-2.6c0,0-6.2-8.6-7-10c-0.8-1.4-2.5-3.7-2.5-3.7l7.8-5.3l6.2-3.9V473l5.8-4.2c0,0,4.1-3,4.1-3.7s4.1-6.5,4.1-6.5l9.9-1.4
				c0,0,6.2-4.9,6.6-6c0.4-1.2,3.3-3,3.7-3.7c0.4-0.7,4.5-2.6,4.5-2.6l4.1-2.1v-5.1l6.2-3l1.3-1.9h-4.2c0,0-7.4,1.4-10.7,2.8
				c-3.3,1.4-6.2,12.1-6.2,12.1l-12.7,5.1c0,0-9.9,0.9-9.9,3.3c0,2.3-4.1,9.8-4.1,9.8s-9,4.6-10.7,6s-4.1,8.8-4.1,10.7
				c0,1.9-6.6,5.1-9,6c-2.5,0.9-10.7-1.4-14.8,6c-4.1,7.4-4.1,9.3-7.4,10.7c-3.3,1.4-10.7,2.3-13.2,4.2c-2.5,1.9-12.6,5.6-12.6,5.6
				l-27.9,6.9l159.3-4.6C973.2,517.3,969.9,514.8,967.8,515.2z"/>
		</g>
		<path class="st0" d="M973.2,436.4l3.4,2.6l4.7,2.5l1.6,3.9c0,0,2.1,2.8,2.6,4c0.4,1.2-4-3.7-4-3.7s-1.1-1.1-2.2-2
			c-1.1-0.9-3-2.9-3-2.9L973.2,436.4z"/>
		<path class="st2" d="M940.3,512.8c0,0,3.4-1.1,4.5-1.5c1.1-0.5,4.9-4.3,4.9-4.3v4c0,0,7.4,1.4,8.2,1.9c0.8,0.5-3,0.9-3,0.9
			l-5.8-1.1L940.3,512.8z"/>
	</g>
	<line class="st0" x1="1244.9" y1="492" x2="1246.7" y2="495.8"/>
	<g>
		<path class="st1" d="M1288.4,498.2c-1.7-4.8-2.4-9.5-4.7-12.3c-2.3-2.7-7.7-7.8-7.7-7.8l-3.8-0.3c0,0,2.9-1.5,2.1-4.6
			c-0.8-3,3.9-2.5,3.9-2.5s-10.9-10.3-11.8-11.7c-0.9-1.3-6.9-5.6-7.7-8.3c-0.8-2.6-9-11.3-9-11.3l-8.1-0.6c0,0-4.3,0.9-6.3,2
			s-4,10.7-4,10.7l-7.5,4.1c0,0-5.7,0.4-5.8,2.5c-0.1,2.1-2.8,8.7-2.8,8.7s-5.4,3.8-6.4,5s-2.7,7.8-2.8,9.5c-0.1,1.7-4,4.3-5.5,5.1
			c-1.5,0.7-6.1-1.8-8.8,4.8c-2.7,6.6-2.7,8.3-4.7,9.4c-2,1.1-3.2,0.9-4.7,2.5c-1.5,1.6,0.3,2.1,0.3,2.1l2.4,11.8"/>
		<g>
			<path class="st0" d="M1266.2,507c-0.7,0.6-4.5,0.1-5.7-0.5c-1.2-0.5-5.2-1.7-5.2-1.7l-6.1-1.6l-5.5-4.3l-1.1-7.1l-9.3,5l-9.6-2.7
				l-3.8-5.8l7.7-1.9c0,0,5.2-3.8,5.2-4.5c0-0.6-5.9-5.8-5.9-5.8l1.3-3.5l9.8-2.2c0,0,4.6-2.6,4-3.7c-0.7-1.1,2-6.4,2-6.4l4.9-4.3
				l-1.5-5.6l-1.5-5.8l3.8-5.2l-8.1-0.6c0,0-4.3,0.9-6.3,2s-4,10.7-4,10.7l-7.5,4.1c0,0-5.7,0.4-5.8,2.5c-0.1,2.1-2.8,8.7-2.8,8.7
				s-5.4,3.8-6.4,5s-2.7,7.8-2.8,9.5c-0.1,1.7-4,4.3-5.5,5.1c-1.5,0.7-6.1-1.8-8.8,4.8c-2.7,6.6-2.7,8.3-4.7,9.4
				c-2,1.1-2.5,1.8-4,3.4c-1.5,1.6,1.7,5.7,1.7,5.7l2.2,10.1"/>
		</g>
		<path class="st0" d="M1259.7,471.7l-0.1,3.2l-2.1,3.9c0,0,0.4,2.2,1.7,3.5c1.4,1.4,1.7,4.8,1.6,6.7c-0.1,1.9-1.8-1.6-1.8-1.6
			l0.1-3l-2.9-3.2c0,0,0.4-3.4,0.2-4C1256.1,476.5,1259.5,475.1,1259.7,471.7z"/>
		<path class="st0" d="M1235.4,482.7l4.6-1.5l3,2.2l-2-3.1c0,0-0.4-0.2-1.6-0.1C1238.1,480.2,1235.4,482.7,1235.4,482.7z"/>
		<path class="st0" d="M1258.4,457l3.6,4.5c0,0,0.4,1.5-0.1,2.7c-0.5,1.2-0.2,4-0.2,4l-1.5-6.5L1258.4,457z"/>
		<g>
			<path class="st2" d="M1229.6,512.3c0,0-7.6-0.3-7.7-0.8c-0.1-0.4-1.2-3.5-1.2-3.5l-11,0.6l-5.7-5.7l5.5-1.9c0,0-3.2-8.1-3.6-9.4
				c-0.4-1.3-1.3-3.5-1.3-3.5l4.7-4.5l3.7-3.3l0.3-7l3.5-3.5c0,0,2.5-2.6,2.5-3.2c0-0.6,2.6-5.7,2.6-5.7l5.7-0.8c0,0,3.7-4.2,4-5.2
				c0.3-1,2-2.6,2.3-3.2c0.3-0.6,2.7-2.1,2.7-2.1l2.5-1.7l0.2-4.6l3.7-2.5l0.8-1.6l-2.4-0.2c0,0-4.3,0.9-6.3,2s-4,10.7-4,10.7
				l-7.5,4.1c0,0-5.7,0.4-5.8,2.5c-0.1,2.1-2.8,8.7-2.8,8.7s-5.4,3.8-6.4,5s-2.7,7.8-2.8,9.5c-0.1,1.7-4,4.3-5.5,5.1
				c-1.5,0.7-6.1-1.8-8.8,4.8c-2.7,6.6-2.7,8.3-4.7,9.4c-2,1.1-2.7,0.2-4.2,1.8c-1.5,1.6,0.9,2.4,0.9,2.4l7.9,18.9l4.6,25.6
				l65.3-35.4l9.2-20.8L1229.6,512.3z"/>
		</g>
		<path class="st0" d="M1250.7,442.8l1.9,2.6l2.6,2.5l0.8,3.6c0,0,1.1,2.6,1.3,3.8c0.2,1.1-2.1-3.6-2.1-3.6s-0.6-1-1.2-1.9
			c-0.6-0.9-1.6-2.8-1.6-2.8L1250.7,442.8z"/>
	</g>
	<path class="st2" d="M1194.5,503c0,0,2.1-0.7,2.7-1.1c0.7-0.3,3.2-3.6,3.2-3.6l-0.3,3.6c0,0,4.1,1.8,4.6,2.3
		c0.4,0.5-1.8,0.6-1.8,0.6l-3.2-1.4L1194.5,503z"/>
	<g>
		<path class="st1" d="M1221.3,496.6c0,0-6.5-0.1-9.4-5.7c-2.9-5.5-4.2-11-8.1-14.1c-3.9-3.1-13.3-8.7-13.3-8.7s-4.5-7.1-5.9-10.6
			c-1.4-3.5-2.7-6.6-2.7-6.6s-6.5-3-8-4.5c-1.5-1.5-11.8-6.2-13.3-9.2c-1.5-3-15.5-12.8-15.5-12.8l-13.8-0.3c0,0-7.4,1.4-10.7,2.8
			c-3.3,1.4-6.8,12.8-6.8,12.8l-12.9,5.2c0,0-9.8,0.8-9.9,3.3c-0.1,2.5-4.7,10.4-4.7,10.4s-9.2,4.8-10.9,6.3s-4.6,9.4-4.7,11.4
			c-0.1,2-6.8,5.4-9.3,6.3c-2.5,0.9-10.5-1.7-15,6.2s-4.6,9.9-8,11.3c-3.3,1.4-10.7,2.3-13.2,4.2c-2.5,1.9-12.8,5.7-12.8,5.7
			l-14.4,2.2l241.9,23.2l26-17l-20.3-17.3c-4-0.6-18.5-3.3-18.5-3.3L1221.3,496.6z"/>
		<g>
			<path class="st0" d="M1199.9,509.6c0,0-10.9-2-15.2-3.8c-4.4-1.8-5.5-2.6-5.5-2.6s-4-1.3-5.2-0.6c-1.3,0.7-7.7,0.3-9.7-0.2
				c-2-0.5-8.8-1.7-8.8-1.7l-10.5-1.4l-9.5-4.7l-1.9-8.3l-15.9,6.4l-16.5-2.6l-6.5-6.6l13.2-2.7c0,0,8.8-4.8,8.8-5.6
				s-10.2-6.4-10.2-6.4l2.3-4.2l16.8-3.2c0,0,7.9-3.3,6.8-4.6c-1.1-1.3,3.3-7.7,3.3-7.7l8.4-5.3l-2.7-6.5l-2.7-6.8l6.5-6.4
				l-13.8-0.3c0,0-7.4,1.4-10.7,2.8c-3.3,1.4-6.8,12.8-6.8,12.8l-12.9,5.2c0,0-9.8,0.8-9.9,3.3c-0.1,2.5-4.7,10.4-4.7,10.4
				s-9.2,4.8-10.9,6.3s-4.6,9.4-4.7,11.4c-0.1,2-6.8,5.4-9.3,6.3c-2.5,0.9-10.5-1.7-15,6.2s-4.6,9.9-8,11.3
				c-3.3,1.4-10.7,2.3-13.2,4.2c-2.5,1.9-12.8,5.7-12.8,5.7l-14.4,2.2l225.6,4.3l-21.7-3.4L1199.9,509.6z"/>
		</g>
		<path class="st0" d="M1162.4,461.6l-0.2,3.7l-3.5,4.7c0,0,0.7,2.5,3,4c2.3,1.5,2.9,5.5,2.8,7.8c-0.1,2.2-3.1-1.8-3.1-1.8l0.2-3.5
			l-5.1-3.6c0,0,0.6-4,0.3-4.7S1162.1,465.5,1162.4,461.6z"/>
		<path class="st0" d="M1123.8,476.2l7.5-2.5l5.6,2.1l-4.1-3.4c0,0-0.8-0.2-2.8,0.1C1127.9,472.8,1123.8,476.2,1123.8,476.2z"/>
		<path class="st0" d="M1160.1,444.3l6.2,5.1c0,0,0.7,1.8-0.2,3.2c-0.9,1.5-0.3,4.7-0.3,4.7l-2.6-7.5L1160.1,444.3z"/>
		<g>
			<path class="st2" d="M1136.7,512.7c-2.1,0.5-23.9-0.5-23.9-0.5s-14.6-1-14.7-1.5c-0.2-0.5-2-4-2-4l-18.8,1.4l-9.8-6.4l9.5-2.6
				c0,0-5.6-9.3-6.3-10.8c-0.7-1.5-2.2-4-2.2-4l8-5.6l6.3-4.1l0.5-8.2l5.9-4.4c0,0,4.2-3.2,4.3-3.9c0-0.7,4.5-6.9,4.5-6.9l9.8-1.3
				c0,0,6.4-5.1,6.9-6.3c0.5-1.2,3.4-3.2,3.9-3.9c0.4-0.7,4.6-2.7,4.6-2.7l4.2-2.2l0.3-5.5l6.3-3.1l1.4-2l-4.2-0.1
				c0,0-7.4,1.4-10.7,2.8c-3.3,1.4-6.8,12.8-6.8,12.8l-12.9,5.2c0,0-9.8,0.8-9.9,3.3c-0.1,2.5-4.7,10.4-4.7,10.4s-9.2,4.8-10.9,6.3
				s-4.6,9.4-4.7,11.4c-0.1,2-6.8,5.4-9.3,6.3c-2.5,0.9-10.5-1.7-15,6.2s-4.6,9.9-8,11.3c-3.3,1.4-10.7,2.3-13.2,4.2
				c-2.5,1.9-12.8,5.7-12.8,5.7l-28,6.9l157.6-1.9C1141.9,515,1138.8,512.2,1136.7,512.7z"/>
		</g>
		<path class="st0" d="M1146.8,428.2l3.2,2.9l4.4,2.7l1.4,4.2c0,0,2,3,2.3,4.4c0.4,1.3-3.7-4.1-3.7-4.1s-1-1.2-2-2.2
			c-1-1-2.8-3.2-2.8-3.2L1146.8,428.2z"/>
	</g>
	<path class="st2" d="M1269.5,484.2c0,0,1.6-1.6,2.1-2.2c0.5-0.6,1.6-5.2,1.6-5.2l1,4.2c0,0,4.5,0.4,5.1,0.8
		c0.6,0.4-1.4,1.4-1.4,1.4l-3.5-0.3L1269.5,484.2z"/>
	<g>
		<path class="st3" d="M1204.6,437.6c0,0,1-7.3,5.9-5.8c0,0-5.6-3.5-6.8,2.1c0,0-3.1-3-6.8-0.4
			C1197,433.5,1201.9,433.9,1204.6,437.6z"/>
		<path class="st3" d="M1205.6,426.1c0,0,2.9-6,6.8-3.3c0,0-3.9-4.7-6.5-0.1c0,0-1.9-3.5-5.7-2.3
			C1200.2,420.4,1204.3,422.1,1205.6,426.1z"/>
		<path class="st3" d="M1216.2,432.2c0,0,3.2-3.8,5.5-1.2c0,0-1.9-4-4.6-1.2c0,0-0.7-2.9-3.7-2.7
			C1213.4,427.1,1216,429.1,1216.2,432.2z"/>
		<path class="st3" d="M1191.4,430.7c0,0,1.6-6.5,5.9-4.7c0,0-4.8-3.7-6.3,1.3c0,0-2.6-3-6.1-1
			C1184.9,426.3,1189.3,427.1,1191.4,430.7z"/>
	</g>
	<path class="st4" d="M770.7,496.6c1.4,0.1,2.6,1.1,2.9,2.5c0.7-1.1,1.9-1.7,3.3-1.7c2.1,0.1,3.7,1.8,3.6,3.9c0,0.1,0,0.2,0,0.3
		c0.1,0,0.2,0,0.3,0c1.7,0.1,3,1.5,2.9,3.2c-0.1,1.7-1.5,3-3.2,2.9l-13.8-0.6c-1.7-0.1-3-1.5-2.9-3.2c0.1-1.7,1.5-3,3.2-2.9
		c0.4,0,0.8,0.1,1.1,0.3c-0.3-0.5-0.5-1.1-0.5-1.8C767.6,497.8,769,496.5,770.7,496.6z"/>
	<path class="st4" d="M786.2,499c1.6,0.1,2.9,1.2,3.2,2.7c0.8-1.2,2.1-1.9,3.6-1.8c2.3,0.1,4.1,2,4,4.3c0,0.1,0,0.2,0,0.4
		c0.1,0,0.2,0,0.3,0c1.9,0.1,3.3,1.6,3.2,3.5c-0.1,1.9-1.6,3.3-3.5,3.2l-15.2-0.6c-1.9-0.1-3.3-1.6-3.2-3.5c0.1-1.9,1.6-3.3,3.5-3.2
		c0.4,0,0.8,0.1,1.2,0.3c-0.4-0.6-0.6-1.2-0.5-2C782.7,500.3,784.3,498.9,786.2,499z"/>
	<path class="st4" d="M802.4,496c1.6,0.1,2.9,1.2,3.2,2.7c0.8-1.2,2.1-1.9,3.6-1.8c2.3,0.1,4.1,2,4,4.3c0,0.1,0,0.2,0,0.4
		c0.1,0,0.2,0,0.3,0c1.9,0.1,3.3,1.6,3.2,3.5c-0.1,1.9-1.6,3.3-3.5,3.2l-15.2-0.6c-1.9-0.1-3.3-1.6-3.2-3.5c0.1-1.9,1.6-3.3,3.5-3.2
		c0.4,0,0.8,0.1,1.2,0.3c-0.4-0.6-0.6-1.2-0.5-2C799,497.4,800.5,495.9,802.4,496z"/>
	<path class="st4" d="M820.8,496.6c1.4,0.1,2.6,1.1,2.9,2.5c0.7-1.1,1.9-1.7,3.3-1.7c2.1,0.1,3.7,1.8,3.6,3.9c0,0.1,0,0.2,0,0.3
		c0.1,0,0.2,0,0.3,0c1.7,0.1,3,1.5,2.9,3.2c-0.1,1.7-1.5,3-3.2,2.9l-13.8-0.6c-1.7-0.1-3-1.5-2.9-3.2c0.1-1.7,1.5-3,3.2-2.9
		c0.4,0,0.8,0.1,1.1,0.3c-0.3-0.5-0.5-1.1-0.5-1.8C817.7,497.8,819.1,496.5,820.8,496.6z"/>
	<path class="st4" d="M836.3,499c1.6,0.1,2.9,1.2,3.2,2.7c0.8-1.2,2.1-1.9,3.6-1.8c2.3,0.1,4.1,2,4,4.3c0,0.1,0,0.2,0,0.4
		c0.1,0,0.2,0,0.3,0c1.9,0.1,3.3,1.6,3.2,3.5c-0.1,1.9-1.6,3.3-3.5,3.2l-15.2-0.6c-1.9-0.1-3.3-1.6-3.2-3.5c0.1-1.9,1.6-3.3,3.5-3.2
		c0.4,0,0.8,0.1,1.2,0.3c-0.4-0.6-0.6-1.2-0.5-2C832.8,500.3,834.4,498.9,836.3,499z"/>
	<path class="st4" d="M852.5,496c1.6,0.1,2.9,1.2,3.2,2.7c0.8-1.2,2.1-1.9,3.6-1.8c2.3,0.1,4.1,2,4,4.3c0,0.1,0,0.2,0,0.4
		c0.1,0,0.2,0,0.3,0c1.9,0.1,3.3,1.6,3.2,3.5c-0.1,1.9-1.6,3.3-3.5,3.2l-15.2-0.6c-1.9-0.1-3.3-1.6-3.2-3.5c0.1-1.9,1.6-3.3,3.5-3.2
		c0.4,0,0.8,0.1,1.2,0.3c-0.4-0.6-0.6-1.2-0.5-2C849.1,497.4,850.6,495.9,852.5,496z"/>
	<path class="st4" d="M870.9,496.6c1.4,0.1,2.6,1.1,2.9,2.5c0.7-1.1,1.9-1.7,3.3-1.7c2.1,0.1,3.7,1.8,3.6,3.9c0,0.1,0,0.2,0,0.3
		c0.1,0,0.2,0,0.3,0c1.7,0.1,3,1.5,2.9,3.2c-0.1,1.7-1.5,3-3.2,2.9l-13.8-0.6c-1.7-0.1-3-1.5-2.9-3.2c0.1-1.7,1.5-3,3.2-2.9
		c0.4,0,0.8,0.1,1.1,0.3c-0.3-0.5-0.5-1.1-0.5-1.8C867.8,497.8,869.2,496.5,870.9,496.6z"/>
	<path class="st4" d="M886.3,499c1.6,0.1,2.9,1.2,3.2,2.7c0.8-1.2,2.1-1.9,3.6-1.8c2.3,0.1,4.1,2,4,4.3c0,0.1,0,0.2,0,0.4
		c0.1,0,0.2,0,0.3,0c1.9,0.1,3.3,1.6,3.2,3.5c-0.1,1.9-1.6,3.3-3.5,3.2l-15.2-0.6c-1.9-0.1-3.3-1.6-3.2-3.5c0.1-1.9,1.6-3.3,3.5-3.2
		c0.4,0,0.8,0.1,1.2,0.3c-0.4-0.6-0.6-1.2-0.5-2C882.9,500.3,884.5,498.9,886.3,499z"/>
	<path class="st4" d="M902.6,496c1.6,0.1,2.9,1.2,3.2,2.7c0.8-1.2,2.1-1.9,3.6-1.8c2.3,0.1,4.1,2,4,4.3c0,0.1,0,0.2,0,0.4
		c0.1,0,0.2,0,0.3,0c1.9,0.1,3.3,1.6,3.2,3.5c-0.1,1.9-1.6,3.3-3.5,3.2l-15.2-0.6c-1.9-0.1-3.3-1.6-3.2-3.5c0.1-1.9,1.6-3.3,3.5-3.2
		c0.4,0,0.8,0.1,1.2,0.3c-0.4-0.6-0.6-1.2-0.5-2C899.1,497.4,900.7,495.9,902.6,496z"/>
	<path class="st4" d="M1121.9,489.6c1.4-0.1,2.7,0.9,3.1,2.2c0.6-1.1,1.8-1.9,3.1-2c2.1-0.1,3.8,1.5,4,3.6c0,0.1,0,0.2,0,0.3
		c0.1,0,0.2,0,0.3,0c1.7-0.1,3.1,1.2,3.2,2.9c0.1,1.7-1.2,3.1-2.9,3.2l-13.8,0.7c-1.7,0.1-3.1-1.2-3.2-2.9c-0.1-1.7,1.2-3.1,2.9-3.2
		c0.4,0,0.8,0,1.1,0.2c-0.4-0.5-0.6-1.1-0.7-1.7C1118.9,491.2,1120.2,489.7,1121.9,489.6z"/>
	<path class="st4" d="M1137.5,490.6c1.6-0.1,3,0.9,3.4,2.4c0.7-1.2,1.9-2.1,3.4-2.2c2.3-0.1,4.2,1.6,4.3,3.9c0,0.1,0,0.2,0,0.4
		c0.1,0,0.2,0,0.3,0c1.9-0.1,3.4,1.3,3.5,3.2c0.1,1.9-1.3,3.4-3.2,3.5l-15.2,0.8c-1.9,0.1-3.4-1.3-3.5-3.2c-0.1-1.9,1.3-3.4,3.2-3.5
		c0.4,0,0.9,0,1.2,0.2c-0.4-0.5-0.7-1.2-0.7-1.9C1134.2,492.3,1135.6,490.7,1137.5,490.6z"/>
	<path class="st4" d="M1153.3,486.2c1.6-0.1,3,0.9,3.4,2.4c0.7-1.2,1.9-2.1,3.4-2.2c2.3-0.1,4.2,1.6,4.3,3.9c0,0.1,0,0.2,0,0.4
		c0.1,0,0.2,0,0.3,0c1.9-0.1,3.4,1.3,3.5,3.2c0.1,1.9-1.3,3.4-3.2,3.5l-15.2,0.8c-1.9,0.1-3.4-1.3-3.5-3.2c-0.1-1.9,1.3-3.4,3.2-3.5
		c0.4,0,0.9,0,1.2,0.2c-0.4-0.5-0.7-1.2-0.7-1.9C1150.1,487.9,1151.5,486.3,1153.3,486.2z"/>
	<path class="st4" d="M1165.7,485.4c1.4-0.2,2.8,0.6,3.3,1.9c0.5-1.2,1.6-2,2.9-2.2c2.1-0.3,4,1.1,4.3,3.2c0,0.1,0,0.2,0,0.3
		c0.1,0,0.2,0,0.3-0.1c1.7-0.2,3.2,0.9,3.5,2.6c0.2,1.7-0.9,3.2-2.6,3.5l-13.7,2c-1.7,0.2-3.2-0.9-3.5-2.6c-0.2-1.7,0.9-3.2,2.6-3.5
		c0.4-0.1,0.8,0,1.1,0.1c-0.4-0.4-0.7-1-0.8-1.7C1162.9,487.2,1164.1,485.7,1165.7,485.4z"/>
	<path class="st4" d="M1181.4,485c1.6-0.2,3,0.7,3.6,2.1c0.6-1.3,1.7-2.3,3.2-2.5c2.3-0.3,4.4,1.2,4.7,3.5c0,0.1,0,0.2,0,0.4
		c0.1,0,0.2,0,0.3-0.1c1.8-0.3,3.5,1,3.8,2.9c0.3,1.8-1,3.5-2.9,3.8l-15.1,2.2c-1.8,0.3-3.5-1-3.8-2.9c-0.3-1.8,1-3.5,2.9-3.8
		c0.4-0.1,0.9,0,1.3,0.1c-0.5-0.5-0.8-1.1-0.9-1.8C1178.2,487,1179.5,485.3,1181.4,485z"/>
	<path class="st4" d="M1196.8,479.1c1.6-0.2,3,0.7,3.6,2.1c0.6-1.3,1.7-2.3,3.2-2.5c2.3-0.3,4.4,1.2,4.7,3.5c0,0.1,0,0.2,0,0.4
		c0.1,0,0.2,0,0.3-0.1c1.8-0.3,3.5,1,3.8,2.9c0.3,1.8-1,3.5-2.9,3.8l-15.1,2.2c-1.8,0.3-3.5-1-3.8-2.9c-0.3-1.8,1-3.5,2.9-3.8
		c0.4-0.1,0.9,0,1.3,0.1c-0.5-0.5-0.8-1.1-0.9-1.8C1193.7,481.1,1194.9,479.4,1196.8,479.1z"/>
	<path class="st4" d="M1214.2,476.5c1.4-0.4,2.8,0.3,3.5,1.5c0.4-1.2,1.4-2.2,2.7-2.5c2-0.5,4.1,0.7,4.6,2.7c0,0.1,0,0.2,0.1,0.3
		c0.1,0,0.2-0.1,0.3-0.1c1.6-0.4,3.3,0.6,3.7,2.2c0.4,1.6-0.6,3.3-2.2,3.7l-13.4,3.4c-1.6,0.4-3.3-0.6-3.7-2.2
		c-0.4-1.6,0.6-3.3,2.2-3.7c0.4-0.1,0.8-0.1,1.1-0.1c-0.5-0.4-0.8-0.9-1-1.6C1211.6,478.6,1212.6,476.9,1214.2,476.5z"/>
	<path class="st4" d="M1229.7,474.4c1.5-0.4,3.1,0.3,3.8,1.7c0.4-1.3,1.5-2.4,2.9-2.8c2.2-0.6,4.5,0.8,5,3c0,0.1,0.1,0.2,0.1,0.4
		c0.1,0,0.2-0.1,0.3-0.1c1.8-0.5,3.6,0.6,4.1,2.4c0.5,1.8-0.6,3.6-2.4,4.1l-14.8,3.7c-1.8,0.5-3.6-0.6-4.1-2.4
		c-0.5-1.8,0.6-3.6,2.4-4.1c0.4-0.1,0.8-0.1,1.3-0.1c-0.5-0.4-0.9-1-1.1-1.7C1226.8,476.7,1227.9,474.9,1229.7,474.4z"/>
	<path class="st4" d="M1244.4,467c1.5-0.4,3.1,0.3,3.8,1.7c0.4-1.3,1.5-2.4,2.9-2.8c2.2-0.6,4.5,0.8,5,3c0,0.1,0.1,0.2,0.1,0.4
		c0.1,0,0.2-0.1,0.3-0.1c1.8-0.5,3.6,0.6,4.1,2.4c0.5,1.8-0.6,3.6-2.4,4.1l-14.8,3.7c-1.8,0.5-3.6-0.6-4.1-2.4
		c-0.5-1.8,0.6-3.6,2.4-4.1c0.4-0.1,0.8-0.1,1.3-0.1c-0.5-0.4-0.9-1-1.1-1.7C1241.5,469.3,1242.6,467.4,1244.4,467z"/>
	<path class="st4" d="M1258.6,465.4c1.4-0.4,2.8,0.3,3.5,1.5c0.4-1.2,1.4-2.2,2.7-2.5c2-0.5,4.1,0.7,4.6,2.7c0,0.1,0,0.2,0.1,0.3
		c0.1,0,0.2-0.1,0.3-0.1c1.6-0.4,3.3,0.6,3.7,2.2c0.4,1.6-0.6,3.3-2.2,3.7l-13.4,3.4c-1.6,0.4-3.3-0.6-3.7-2.2
		c-0.4-1.6,0.6-3.3,2.2-3.7c0.4-0.1,0.8-0.1,1.1-0.1c-0.5-0.4-0.8-0.9-1-1.6C1255.9,467.5,1256.9,465.8,1258.6,465.4z"/>
	<path class="st4" d="M1274,463.4c1.5-0.4,3.1,0.3,3.8,1.7c0.4-1.3,1.5-2.4,2.9-2.8c2.2-0.6,4.5,0.8,5,3c0,0.1,0.1,0.2,0.1,0.4
		c0.1,0,0.2-0.1,0.3-0.1c1.8-0.5,3.6,0.6,4.1,2.4c0.5,1.8-0.6,3.6-2.4,4.1l-14.8,3.7c-1.8,0.5-3.6-0.6-4.1-2.4
		c-0.5-1.8,0.6-3.6,2.4-4.1c0.4-0.1,0.8-0.1,1.3-0.1c-0.5-0.4-0.9-1-1.1-1.7C1271.1,465.6,1272.2,463.8,1274,463.4z"/>
	<path class="st4" d="M1288.8,455.9c1.5-0.4,3.1,0.3,3.8,1.7c0.4-1.3,1.5-2.4,2.9-2.8c2.2-0.6,4.5,0.8,5,3c0,0.1,0.1,0.2,0.1,0.4
		c0.1,0,0.2-0.1,0.3-0.1c1.8-0.5,3.6,0.6,4.1,2.4c0.5,1.8-0.6,3.6-2.4,4.1l-14.8,3.7c-1.8,0.5-3.6-0.6-4.1-2.4
		c-0.5-1.8,0.6-3.6,2.4-4.1c0.4-0.1,0.8-0.1,1.3-0.1c-0.5-0.4-0.9-1-1.1-1.7C1285.9,458.2,1287,456.4,1288.8,455.9z"/>
	<path class="st4" d="M1300.1,451.8c1.4-0.4,2.8,0.3,3.5,1.5c0.4-1.2,1.4-2.2,2.7-2.5c2-0.5,4.1,0.7,4.6,2.7c0,0.1,0,0.2,0.1,0.3
		c0.1,0,0.2-0.1,0.3-0.1c1.6-0.4,3.3,0.6,3.7,2.2c0.4,1.6-0.6,3.3-2.2,3.7l-13.4,3.4c-1.6,0.4-3.3-0.6-3.7-2.2
		c-0.4-1.6,0.6-3.3,2.2-3.7c0.4-0.1,0.8-0.1,1.1-0.1c-0.5-0.4-0.8-0.9-1-1.6C1297.5,453.8,1298.5,452.2,1300.1,451.8z"/>
	<path class="st4" d="M1315.6,449.7c1.5-0.4,3.1,0.3,3.8,1.7c0.4-1.3,1.5-2.4,2.9-2.8c2.2-0.6,4.5,0.8,5,3c0,0.1,0.1,0.2,0.1,0.4
		c0.1,0,0.2-0.1,0.3-0.1c1.8-0.5,3.6,0.6,4.1,2.4c0.5,1.8-0.6,3.6-2.4,4.1l-14.8,3.7c-1.8,0.5-3.6-0.6-4.1-2.4
		c-0.5-1.8,0.6-3.6,2.4-4.1c0.4-0.1,0.8-0.1,1.3-0.1c-0.5-0.4-0.9-1-1.1-1.7C1312.7,452,1313.8,450.2,1315.6,449.7z"/>
	<path class="st4" d="M1330.3,442.3c1.5-0.4,3.1,0.3,3.8,1.7c0.4-1.3,1.5-2.4,2.9-2.8c2.2-0.6,4.5,0.8,5,3c0,0.1,0.1,0.2,0.1,0.4
		c0.1,0,0.2-0.1,0.3-0.1c1.8-0.5,3.6,0.6,4.1,2.4c0.5,1.8-0.6,3.6-2.4,4.1l-14.8,3.7c-1.8,0.5-3.6-0.6-4.1-2.4
		c-0.5-1.8,0.6-3.6,2.4-4.1c0.4-0.1,0.8-0.1,1.3-0.1c-0.5-0.4-0.9-1-1.1-1.7C1327.4,444.5,1328.5,442.7,1330.3,442.3z"/>
	<path class="st5" d="M1441.9,190.8c-19.5,0-35.6,14.4-38.4,33.1c-4.1-4.2-9.8-6.9-16.1-6.9c-10.8,0-19.9,7.7-22,17.9
		c-4.8-6.8-12.8-11.3-21.7-11.3c-14.7,0-26.6,11.9-26.6,26.6c0,2.7,0.4,5.3,1.2,7.8c-2.6-1.9-5.8-3.1-9.2-3.1
		c-8.5,0-15.5,6.9-15.5,15.5c0,8.5,6.9,15.5,15.5,15.5h174c11.4,0,20.6-9.2,20.6-20.6c0-11.4-9.2-20.6-20.6-20.6
		c-1.9,0-3.7,0.3-5.5,0.8c2.1-4.8,3.3-10.1,3.3-15.7C1480.8,208.2,1463.4,190.8,1441.9,190.8z"/>
	<path class="st5" d="M613,409.1c-16.5,0-30.1,12.1-32.4,28c-3.4-3.6-8.3-5.8-13.6-5.8c-9.2,0-16.8,6.5-18.5,15.1
		c-4.1-5.8-10.8-9.5-18.3-9.5c-12.4,0-22.5,10.1-22.5,22.5c0,2.3,0.3,4.5,1,6.5c-2.2-1.6-4.9-2.6-7.8-2.6c-7.2,0-13.1,5.9-13.1,13.1
		c0,7.2,5.9,13.1,13.1,13.1h146.9c9.6,0,17.4-7.8,17.4-17.4c0-9.6-7.8-17.4-17.4-17.4c-1.6,0-3.1,0.2-4.6,0.6
		c1.8-4.1,2.8-8.5,2.8-13.3C645.9,423.9,631.2,409.1,613,409.1z"/>
	<path class="st5" d="M848.7,338.6c6.4,0,11.7,4.4,13.2,10.4c2.9-4.8,8.2-8,14.2-8c9.2,0,16.6,7.5,16.6,16.6c0,0.5,0,1-0.1,1.5
		c0.4,0,0.9-0.1,1.3-0.1c7.5,0,13.5,6.1,13.5,13.6c0,7.5-6.1,13.6-13.5,13.6h-61.3c-7.5,0-13.6-6.1-13.6-13.6
		c0-7.5,6.1-13.6,13.6-13.6c1.8,0,3.4,0.3,5,1c-1.6-2.2-2.5-4.9-2.5-7.8C835.2,344.7,841.2,338.6,848.7,338.6z"/>
	<g>
		<path class="st6" d="M1330.9,542.7v-90.6c-230.9,82-483.2,47-571.3,54.2v36.5H1330.9z"/>
	</g>
	<g class="st7">
		<path class="st8" d="M759.5,506.3v24.3c88.2-4.7,340.4,18.2,571.3-35.5v-42.9C1099.9,534.1,847.7,499.1,759.5,506.3z"/>
	</g>
	<path class="st5" d="M472.1,200.4c4.4,0,8.1,3.3,8.8,7.5c0.9-1,2.2-1.6,3.7-1.6c2.5,0,4.5,1.8,5,4.1c1.1-1.6,2.9-2.6,4.9-2.6
		c3.3,0,6.1,2.7,6.1,6.1c0,0.6-0.1,1.2-0.3,1.8c0.6-0.4,1.3-0.7,2.1-0.7c1.9,0,3.5,1.6,3.5,3.5c0,1.9-1.6,3.5-3.5,3.5h-39.6
		c-2.6,0-4.7-2.1-4.7-4.7c0-2.6,2.1-4.7,4.7-4.7c0.4,0,0.8,0.1,1.2,0.2c-0.5-1.1-0.8-2.3-0.8-3.6
		C463.3,204.4,467.2,200.4,472.1,200.4z"/>
	<g>
		<path class="st6" d="M643.3,351.8v-75.7c-49.5,36.7-155.1,42.7-232.8,50.8c-67.2,7-111,18.5-111,18.5l115.6,6.4H643.3z"/>
	</g>
	<path class="st9" d="M465.3,331.8c1.7,0,3.2,1.2,3.6,2.8c0.8-1.3,2.2-2.2,3.9-2.2c2.5,0,4.5,2,4.5,4.5c0,0.1,0,0.3,0,0.4
		c0.1,0,0.2,0,0.4,0c2,0,3.7,1.6,3.7,3.7c0,2-1.6,3.7-3.7,3.7h-16.6c-2,0-3.7-1.6-3.7-3.7c0-2,1.6-3.7,3.7-3.7
		c0.5,0,0.9,0.1,1.3,0.3c-0.4-0.6-0.7-1.3-0.7-2.1C461.6,333.4,463.2,331.8,465.3,331.8z"/>
	<path class="st9" d="M428.9,332.5c1.7,0,3.2,1.2,3.6,2.8c0.8-1.3,2.2-2.2,3.9-2.2c2.5,0,4.5,2,4.5,4.5c0,0.1,0,0.3,0,0.4
		c0.1,0,0.2,0,0.4,0c2,0,3.7,1.6,3.7,3.7c0,2-1.6,3.7-3.7,3.7h-16.6c-2,0-3.7-1.6-3.7-3.7c0-2,1.6-3.7,3.7-3.7
		c0.5,0,0.9,0.1,1.3,0.3c-0.4-0.6-0.7-1.3-0.7-2.1C425.2,334.2,426.9,332.5,428.9,332.5z"/>
	<path class="st10" d="M446.2,334.3c1.7,0,3.2,1.2,3.6,2.8c0.8-1.3,2.2-2.2,3.9-2.2c2.5,0,4.5,2,4.5,4.5c0,0.1,0,0.3,0,0.4
		c0.1,0,0.2,0,0.4,0c2,0,3.7,1.6,3.7,3.7c0,2-1.6,3.7-3.7,3.7h-16.6c-2,0-3.7-1.6-3.7-3.7c0-2,1.6-3.7,3.7-3.7
		c0.5,0,0.9,0.1,1.3,0.3c-0.4-0.6-0.7-1.3-0.7-2.1C442.5,335.9,444.2,334.3,446.2,334.3z"/>
	<path class="st9" d="M615.4,331.8c1.7,0,3.2,1.2,3.6,2.8c0.8-1.3,2.2-2.2,3.9-2.2c2.5,0,4.5,2,4.5,4.5c0,0.1,0,0.3,0,0.4
		c0.1,0,0.2,0,0.4,0c2,0,3.7,1.6,3.7,3.7c0,2-1.6,3.7-3.7,3.7H611c-2,0-3.7-1.6-3.7-3.7c0-2,1.6-3.7,3.7-3.7c0.5,0,0.9,0.1,1.3,0.3
		c-0.4-0.6-0.7-1.3-0.7-2.1C611.7,333.4,613.3,331.8,615.4,331.8z"/>
	<path class="st9" d="M579,332.5c1.7,0,3.2,1.2,3.6,2.8c0.8-1.3,2.2-2.2,3.9-2.2c2.5,0,4.5,2,4.5,4.5c0,0.1,0,0.3,0,0.4
		c0.1,0,0.2,0,0.4,0c2,0,3.7,1.6,3.7,3.7c0,2-1.6,3.7-3.7,3.7h-16.6c-2,0-3.7-1.6-3.7-3.7c0-2,1.6-3.7,3.7-3.7
		c0.5,0,0.9,0.1,1.3,0.3c-0.4-0.6-0.7-1.3-0.7-2.1C575.3,334.2,577,332.5,579,332.5z"/>
	<path class="st10" d="M596.3,334.3c1.7,0,3.2,1.2,3.6,2.8c0.8-1.3,2.2-2.2,3.9-2.2c2.5,0,4.5,2,4.5,4.5c0,0.1,0,0.3,0,0.4
		c0.1,0,0.2,0,0.4,0c2,0,3.7,1.6,3.7,3.7c0,2-1.6,3.7-3.7,3.7H592c-2,0-3.7-1.6-3.7-3.7c0-2,1.6-3.7,3.7-3.7c0.5,0,0.9,0.1,1.3,0.3
		c-0.4-0.6-0.7-1.3-0.7-2.1C592.6,335.9,594.3,334.3,596.3,334.3z"/>
	<g>
		<g>
			<path class="st11" d="M593.5,340.5c0,1.3-1.1,2.4-2.4,2.4l0,0c-1.3,0-2.4-1.1-2.4-2.4v-13.5c0-1.3,1.1-2.4,2.4-2.4l0,0
				c1.3,0,2.4,1.1,2.4,2.4V340.5z"/>
			<path class="st12" d="M591.1,334.7c0.8,0,1.6-0.1,2.4-0.3v-7.5c0-1.3-1.1-2.4-2.4-2.4c-1.3,0-2.4,1.1-2.4,2.4v7.5
				C589.5,334.6,590.3,334.7,591.1,334.7z"/>
			<path class="st13" d="M601.8,321.3c0,5.9-4.8,10.7-10.7,10.7s-10.7-4.8-10.7-10.7c0-5.9,4.8-29.5,10.7-29.5
				S601.8,315.4,601.8,321.3z"/>
			<path class="st9" d="M591.1,291.8c-0.3,0-0.6,0.1-0.8,0.2c2.8,7.4,4.6,17.7,4.6,21.3c0,5.9-4.8,10.7-10.7,10.7
				c-1.2,0-2.4-0.2-3.5-0.6c1,4.9,5.3,8.6,10.5,8.6c5.9,0,10.7-4.8,10.7-10.7C601.8,315.4,597,291.8,591.1,291.8z"/>
		</g>
	</g>
	<g>
		<rect x="473.4" y="268.9" class="st14" width="43.5" height="74.9"/>
		<rect x="470.8" y="264.7" class="st15" width="48.6" height="4.2"/>
		<rect x="470.8" y="262.6" class="st16" width="48.6" height="2.1"/>
		<rect x="473.4" y="318.6" class="st17" width="43.5" height="4.2"/>
		<g>
			<g>
				
					<rect x="478.7" y="276.7" transform="matrix(-1.836970e-16 1 -1 -1.836970e-16 768.0814 -204.5283)" class="st18" width="15.1" height="10.2"/>
				<rect x="482.3" y="275.3" class="st19" width="8" height="12.9"/>
				<polygon class="st17" points="482.3,288.2 490.3,275.3 482.3,275.3 				"/>
			</g>
			<g>
				
					<rect x="496.4" y="276.7" transform="matrix(-1.836970e-16 1 -1 -1.836970e-16 785.7053 -222.1522)" class="st18" width="15.1" height="10.2"/>
				<rect x="499.9" y="275.3" class="st19" width="8" height="12.9"/>
				<polygon class="st17" points="499.9,288.2 507.9,275.3 499.9,275.3 				"/>
			</g>
		</g>
		<g>
			<g>
				
					<rect x="478.7" y="301.3" transform="matrix(-1.836970e-16 1 -1 -1.836970e-16 792.6504 -179.9593)" class="st18" width="15.1" height="10.2"/>
				<rect x="482.3" y="299.9" class="st19" width="8" height="12.9"/>
				<polygon class="st17" points="482.3,312.8 490.3,299.9 482.3,299.9 				"/>
			</g>
			<g>
				
					<rect x="496.4" y="301.3" transform="matrix(-1.836970e-16 1 -1 -1.836970e-16 810.2743 -197.5831)" class="st18" width="15.1" height="10.2"/>
				<rect x="499.9" y="299.9" class="st19" width="8" height="12.9"/>
				<polygon class="st17" points="499.9,312.8 507.9,299.9 499.9,299.9 				"/>
			</g>
		</g>
		<g>
			
				<rect x="487.1" y="321.9" transform="matrix(-1.836970e-16 1 -1 -1.836970e-16 830.9005 -159.3325)" class="st18" width="16.1" height="27.8"/>
			<rect x="482.3" y="328.9" class="st19" width="25.6" height="14.9"/>
			<g>
				<rect x="483.5" y="330" class="st20" width="23.2" height="1.1"/>
				<rect x="483.5" y="332.5" class="st20" width="23.2" height="1.1"/>
				<rect x="483.5" y="335.1" class="st20" width="23.2" height="1.1"/>
				<rect x="483.5" y="337.6" class="st20" width="23.2" height="1.1"/>
				<rect x="483.5" y="340.2" class="st20" width="23.2" height="1.1"/>
				<rect x="483.5" y="342.7" class="st21" width="23.2" height="1.1"/>
			</g>
		</g>
	</g>
	<polygon class="st22" points="510.4,341.7 516.9,341.7 516.9,277.8 515.5,277.8 510.4,290 	"/>
	<g>
		<rect x="514.3" y="291" class="st18" width="66.8" height="51.5"/>
		<g>
			
				<rect x="540" y="327.3" transform="matrix(-1.836970e-16 1 -1 -1.836970e-16 882.4683 -213.0271)" class="st23" width="15.6" height="14.8"/>
			<rect x="541.1" y="327.7" class="st16" width="13.2" height="14.8"/>
			<rect x="541.1" y="327.7" class="st22" width="6.6" height="14.8"/>
		</g>
		<rect x="511.2" y="287.9" class="st16" width="73.1" height="3.1"/>
		<g>
			<g>
				<g>
					
						<rect x="518.7" y="297.1" transform="matrix(-1.836970e-16 1 -1 -1.836970e-16 824.5791 -223.2547)" class="st23" width="10.5" height="7.1"/>
					<rect x="521.2" y="296.2" class="st16" width="5.5" height="8.9"/>
					<polygon class="st22" points="521.2,305.1 526.7,296.2 521.2,296.2 					"/>
				</g>
				<g>
					
						<rect x="525" y="297.1" transform="matrix(-1.836970e-16 1 -1 -1.836970e-16 830.8611 -229.5367)" class="st23" width="10.5" height="7.1"/>
					<rect x="527.4" y="296.2" class="st16" width="5.5" height="8.9"/>
					<polygon class="st22" points="527.4,305.1 533,296.2 527.4,296.2 					"/>
				</g>
			</g>
			<g>
				<g>
					
						<rect x="539.4" y="297.1" transform="matrix(-1.836970e-16 1 -1 -1.836970e-16 845.269 -243.9447)" class="st23" width="10.5" height="7.1"/>
					<rect x="541.8" y="296.2" class="st16" width="5.5" height="8.9"/>
					<polygon class="st22" points="541.8,305.1 547.4,296.2 541.8,296.2 					"/>
				</g>
				<g>
					
						<rect x="545.6" y="297.1" transform="matrix(-1.836970e-16 1 -1 -1.836970e-16 851.5505 -250.2262)" class="st23" width="10.5" height="7"/>
					<rect x="548.1" y="296.2" class="st16" width="5.5" height="8.9"/>
					<polygon class="st22" points="548.1,305.1 553.6,296.2 548.1,296.2 					"/>
				</g>
			</g>
			<g>
				<g>
					
						<rect x="560.1" y="297.1" transform="matrix(-1.836970e-16 1 -1 -1.836970e-16 865.9588 -264.6345)" class="st23" width="10.5" height="7.1"/>
					<rect x="562.5" y="296.2" class="st16" width="5.5" height="8.9"/>
					<polygon class="st22" points="562.5,305.1 568.1,296.2 562.5,296.2 					"/>
				</g>
				<g>
					
						<rect x="566.3" y="297.1" transform="matrix(-1.836970e-16 1 -1 -1.836970e-16 872.241 -270.9167)" class="st23" width="10.5" height="7.1"/>
					<rect x="568.8" y="296.2" class="st16" width="5.5" height="8.9"/>
					<polygon class="st22" points="568.8,305.1 574.3,296.2 568.8,296.2 					"/>
				</g>
			</g>
		</g>
		<g>
			<g>
				<g>
					
						<rect x="518.7" y="312.1" transform="matrix(-1.836970e-16 1 -1 -1.836970e-16 839.5127 -208.3211)" class="st23" width="10.5" height="7.1"/>
					<rect x="521.2" y="311.1" class="st16" width="5.5" height="8.9"/>
					<polygon class="st22" points="521.2,320.1 526.7,311.1 521.2,311.1 					"/>
				</g>
				<g>
					
						<rect x="525" y="312.1" transform="matrix(-1.836970e-16 1 -1 -1.836970e-16 845.7947 -214.6031)" class="st23" width="10.5" height="7.1"/>
					<rect x="527.4" y="311.1" class="st16" width="5.5" height="8.9"/>
					<polygon class="st22" points="527.4,320.1 533,311.1 527.4,311.1 					"/>
				</g>
			</g>
			<g>
				<g>
					
						<rect x="539.4" y="312.1" transform="matrix(-1.836970e-16 1 -1 -1.836970e-16 860.2027 -229.0111)" class="st23" width="10.5" height="7.1"/>
					<rect x="541.8" y="311.1" class="st16" width="5.5" height="8.9"/>
					<polygon class="st22" points="541.8,320.1 547.4,311.1 541.8,311.1 					"/>
				</g>
				<g>
					
						<rect x="545.6" y="312.1" transform="matrix(-1.836970e-16 1 -1 -1.836970e-16 866.4841 -235.2925)" class="st23" width="10.5" height="7"/>
					<rect x="548.1" y="311.1" class="st16" width="5.5" height="8.9"/>
					<polygon class="st22" points="548.1,320.1 553.6,311.1 548.1,311.1 					"/>
				</g>
			</g>
			<g>
				<g>
					
						<rect x="560.1" y="312.1" transform="matrix(-1.836970e-16 1 -1 -1.836970e-16 880.8925 -249.7009)" class="st23" width="10.5" height="7.1"/>
					<rect x="562.5" y="311.1" class="st16" width="5.5" height="8.9"/>
					<polygon class="st22" points="562.5,320.1 568.1,311.1 562.5,311.1 					"/>
				</g>
				<g>
					
						<rect x="566.3" y="312.1" transform="matrix(-1.836970e-16 1 -1 -1.836970e-16 887.1746 -255.983)" class="st23" width="10.5" height="7.1"/>
					<rect x="568.8" y="311.1" class="st16" width="5.5" height="8.9"/>
					<polygon class="st22" points="568.8,320.1 574.3,311.1 568.8,311.1 					"/>
				</g>
			</g>
		</g>
		<g>
			
				<rect x="561.5" y="327.3" transform="matrix(-1.836970e-16 1 -1 -1.836970e-16 904.017 -230.131)" class="st23" width="11.1" height="19.3"/>
			<rect x="558.2" y="332.1" class="st16" width="17.7" height="10.4"/>
			<g>
				<rect x="559.1" y="332.9" class="st21" width="16" height="0.8"/>
				<rect x="559.1" y="334.7" class="st21" width="16" height="0.8"/>
				<rect x="559.1" y="336.4" class="st21" width="16" height="0.8"/>
				<rect x="559.1" y="338.2" class="st21" width="16" height="0.8"/>
				<rect x="559.1" y="340" class="st21" width="16" height="0.8"/>
				<rect x="559.1" y="341.7" class="st21" width="16" height="0.8"/>
			</g>
		</g>
		<g>
			
				<rect x="522.9" y="327.3" transform="matrix(-1.836970e-16 1 -1 -1.836970e-16 865.3647 -191.4788)" class="st23" width="11.1" height="19.3"/>
			
				<rect x="519.6" y="332.1" transform="matrix(-1 -1.224647e-16 1.224647e-16 -1 1056.8419 674.6541)" class="st16" width="17.7" height="10.4"/>
			<g>
				<rect x="520.4" y="332.9" class="st21" width="16" height="0.8"/>
				<rect x="520.4" y="334.7" class="st21" width="16" height="0.8"/>
				<rect x="520.4" y="336.4" class="st21" width="16" height="0.8"/>
				<rect x="520.4" y="338.2" class="st21" width="16" height="0.8"/>
				<rect x="520.4" y="340" class="st21" width="16" height="0.8"/>
				<rect x="520.4" y="341.7" class="st21" width="16" height="0.8"/>
			</g>
		</g>
		<polygon class="st15" points="579.9,277.8 515.5,277.8 511.2,287.9 584.3,287.9 		"/>
	</g>
	<g>
		<path class="st11" d="M454.5,342.1c0,0.9-0.8,1.6-1.7,1.6l0,0c-0.9,0-1.6-0.8-1.6-1.7l0.1-9.3c0-0.9,0.8-1.6,1.7-1.6l0,0
			c0.9,0,1.6,0.8,1.6,1.7L454.5,342.1z"/>
		<path class="st12" d="M452.9,338.1c0.6,0,1.1-0.1,1.6-0.2l0.1-5.2c0-0.9-0.7-1.7-1.6-1.7c-0.9,0-1.7,0.7-1.7,1.6l-0.1,5.2
			C451.8,338.1,452.3,338.1,452.9,338.1z"/>
		
			<ellipse transform="matrix(1.058271e-02 -0.9999 0.9999 1.058271e-02 121.6888 775.2462)" class="st13" cx="452.6" cy="326.1" rx="10.5" ry="10.5"/>
		<path class="st9" d="M456.9,316.6c0.5,1.3,0.8,2.7,0.8,4.2c-0.1,5.8-4.8,10.4-10.6,10.4c-1.5,0-2.9-0.3-4.2-0.9
			c1.6,3.7,5.2,6.3,9.5,6.4c5.8,0.1,10.5-4.6,10.6-10.4C463.1,322,460.6,318.2,456.9,316.6z"/>
	</g>
	
		<ellipse transform="matrix(0.7559 -0.6547 0.6547 0.7559 -100.8507 371.2073)" class="st24" cx="447.3" cy="320.8" rx="3.3" ry="1.5"/>
	
		<ellipse transform="matrix(0.2575 -0.9663 0.9663 0.2575 137.6752 793.9583)" class="st24" cx="585.5" cy="307.4" rx="7.2" ry="1.5"/>
	<g>
		<g>
			<path class="st11" d="M514.7,342.1c0,0.9-0.8,1.6-1.7,1.6l0,0c-0.9,0-1.6-0.8-1.6-1.7l0.1-9.3c0-0.9,0.8-1.6,1.7-1.6l0,0
				c0.9,0,1.6,0.8,1.6,1.7L514.7,342.1z"/>
			<path class="st12" d="M513.1,338.1c0.6,0,1.1-0.1,1.6-0.2l0.1-5.2c0-0.9-0.7-1.7-1.6-1.7c-0.9,0-1.7,0.7-1.7,1.6l-0.1,5.2
				C512,338.1,512.6,338.1,513.1,338.1z"/>
			
				<ellipse transform="matrix(1.058271e-02 -0.9999 0.9999 1.058271e-02 181.2851 835.4766)" class="st13" cx="512.8" cy="326.1" rx="10.5" ry="10.5"/>
			<path class="st9" d="M517.1,316.6c0.5,1.3,0.8,2.7,0.8,4.2c-0.1,5.8-4.8,10.4-10.6,10.4c-1.5,0-2.9-0.3-4.2-0.9
				c1.6,3.7,5.2,6.3,9.5,6.4c5.8,0.1,10.5-4.6,10.6-10.4C523.3,322,520.8,318.2,517.1,316.6z"/>
		</g>
		
			<ellipse transform="matrix(0.7559 -0.6547 0.6547 0.7559 -86.06 410.8767)" class="st24" cx="507.9" cy="320.8" rx="3.3" ry="1.5"/>
	</g>
	<g>
		<g>
			<path class="st25" d="M786.4,516.5c-2.8,1.6-7.4,1.6-10.2,0c-2.8-1.6-2.8-4.3,0-5.9c2.8-1.6,7.4-1.6,10.2,0
				C789.2,512.2,789.2,514.9,786.4,516.5z"/>
			<g>
				<path class="st11" d="M783.5,513c0,1.2-1,2.2-2.2,2.2l0,0c-1.2,0-2.2-1-2.2-2.2v-12.4c0-1.2,1-2.2,2.2-2.2l0,0
					c1.2,0,2.2,1,2.2,2.2V513z"/>
				<path class="st12" d="M781.3,507.7c0.8,0,1.5-0.1,2.2-0.2v-6.9c0-1.2-1-2.2-2.2-2.2c-1.2,0-2.2,1-2.2,2.2v6.9
					C779.8,507.6,780.5,507.7,781.3,507.7z"/>
				<path class="st13" d="M791.1,495.4c0,5.4-4.4,9.8-9.8,9.8c-5.4,0-9.8-4.4-9.8-9.8c0-5.4,4.4-27,9.8-27
					C786.7,468.4,791.1,490,791.1,495.4z"/>
				<path class="st9" d="M781.3,468.4c-0.3,0-0.5,0-0.8,0.1c2.5,6.8,4.2,16.2,4.2,19.5c0,5.4-4.4,9.8-9.8,9.8
					c-1.1,0-2.2-0.2-3.2-0.5c0.9,4.5,4.8,7.9,9.6,7.9c5.4,0,9.8-4.4,9.8-9.8C791.1,490,786.7,468.4,781.3,468.4z"/>
			</g>
		</g>
		
			<ellipse transform="matrix(0.2325 -0.9726 0.9726 0.2325 124.728 1127.1237)" class="st24" cx="776.5" cy="484.5" rx="6.8" ry="1.4"/>
	</g>
	<g>
		<g>
			<path class="st25" d="M827.1,516.5c-2.8,1.6-7.4,1.6-10.2,0c-2.8-1.6-2.8-4.3,0-5.9c2.8-1.6,7.4-1.6,10.2,0
				C829.9,512.2,829.9,514.9,827.1,516.5z"/>
			<g>
				<path class="st11" d="M824.2,513c0,1.2-1,2.2-2.2,2.2l0,0c-1.2,0-2.2-1-2.2-2.2v-12.4c0-1.2,1-2.2,2.2-2.2l0,0
					c1.2,0,2.2,1,2.2,2.2V513z"/>
				<path class="st12" d="M822.1,507.7c0.8,0,1.5-0.1,2.2-0.2v-6.9c0-1.2-1-2.2-2.2-2.2c-1.2,0-2.2,1-2.2,2.2v6.9
					C820.6,507.6,821.3,507.7,822.1,507.7z"/>
				<path class="st13" d="M831.9,495.4c0,5.4-4.4,9.8-9.8,9.8c-5.4,0-9.8-4.4-9.8-9.8c0-5.4,4.4-27,9.8-27
					C827.5,468.4,831.9,490,831.9,495.4z"/>
				<path class="st9" d="M822.1,468.4c-0.3,0-0.5,0-0.8,0.1c2.5,6.8,4.2,16.2,4.2,19.5c0,5.4-4.4,9.8-9.8,9.8
					c-1.1,0-2.2-0.2-3.2-0.5c0.9,4.5,4.8,7.9,9.6,7.9c5.4,0,9.8-4.4,9.8-9.8C831.9,490,827.5,468.4,822.1,468.4z"/>
			</g>
		</g>
		
			<ellipse transform="matrix(0.2325 -0.9726 0.9726 0.2325 156.0147 1166.7722)" class="st24" cx="817.3" cy="484.5" rx="6.8" ry="1.4"/>
	</g>
	<g>
		<g>
			<path class="st25" d="M867.9,516.5c-2.8,1.6-7.4,1.6-10.2,0c-2.8-1.6-2.8-4.3,0-5.9c2.8-1.6,7.4-1.6,10.2,0
				C870.7,512.2,870.7,514.9,867.9,516.5z"/>
			<g>
				<path class="st11" d="M865,513c0,1.2-1,2.2-2.2,2.2l0,0c-1.2,0-2.2-1-2.2-2.2v-12.4c0-1.2,1-2.2,2.2-2.2l0,0
					c1.2,0,2.2,1,2.2,2.2V513z"/>
				<path class="st12" d="M862.8,507.7c0.8,0,1.5-0.1,2.2-0.2v-6.9c0-1.2-1-2.2-2.2-2.2c-1.2,0-2.2,1-2.2,2.2v6.9
					C861.3,507.6,862.1,507.7,862.8,507.7z"/>
				<path class="st13" d="M872.6,495.4c0,5.4-4.4,9.8-9.8,9.8c-5.4,0-9.8-4.4-9.8-9.8c0-5.4,4.4-27,9.8-27
					C868.2,468.4,872.6,490,872.6,495.4z"/>
				<path class="st9" d="M862.8,468.4c-0.3,0-0.5,0-0.8,0.1c2.5,6.8,4.2,16.2,4.2,19.5c0,5.4-4.4,9.8-9.8,9.8
					c-1.1,0-2.2-0.2-3.2-0.5c0.9,4.5,4.8,7.9,9.6,7.9c5.4,0,9.8-4.4,9.8-9.8C872.6,490,868.2,468.4,862.8,468.4z"/>
			</g>
		</g>
		
			<ellipse transform="matrix(0.2325 -0.9726 0.9726 0.2325 187.3014 1206.4209)" class="st24" cx="858.1" cy="484.5" rx="6.8" ry="1.4"/>
	</g>
	<g>
		<g>
			<path class="st25" d="M908.7,516.5c-2.8,1.6-7.4,1.6-10.2,0c-2.8-1.6-2.8-4.3,0-5.9c2.8-1.6,7.4-1.6,10.2,0
				C911.5,512.2,911.5,514.9,908.7,516.5z"/>
			<g>
				<path class="st11" d="M905.8,513c0,1.2-1,2.2-2.2,2.2l0,0c-1.2,0-2.2-1-2.2-2.2v-12.4c0-1.2,1-2.2,2.2-2.2l0,0
					c1.2,0,2.2,1,2.2,2.2V513z"/>
				<path class="st12" d="M903.6,507.7c0.8,0,1.5-0.1,2.2-0.2v-6.9c0-1.2-1-2.2-2.2-2.2c-1.2,0-2.2,1-2.2,2.2v6.9
					C902.1,507.6,902.8,507.7,903.6,507.7z"/>
				<path class="st13" d="M913.4,495.4c0,5.4-4.4,9.8-9.8,9.8c-5.4,0-9.8-4.4-9.8-9.8c0-5.4,4.4-27,9.8-27
					C909,468.4,913.4,490,913.4,495.4z"/>
				<path class="st9" d="M903.6,468.4c-0.3,0-0.5,0-0.8,0.1c2.5,6.8,4.2,16.2,4.2,19.5c0,5.4-4.4,9.8-9.8,9.8
					c-1.1,0-2.2-0.2-3.2-0.5c0.9,4.5,4.8,7.9,9.6,7.9c5.4,0,9.8-4.4,9.8-9.8C913.4,490,909,468.4,903.6,468.4z"/>
			</g>
		</g>
		
			<ellipse transform="matrix(0.2325 -0.9726 0.9726 0.2325 218.5826 1246.0647)" class="st24" cx="898.8" cy="484.5" rx="6.8" ry="1.4"/>
	</g>
	<g>
		<g>
			<path class="st25" d="M949.4,516.5c-2.8,1.6-7.4,1.6-10.2,0c-2.8-1.6-2.8-4.3,0-5.9c2.8-1.6,7.4-1.6,10.2,0
				C952.2,512.2,952.2,514.9,949.4,516.5z"/>
			<g>
				<path class="st11" d="M946.5,513c0,1.2-1,2.2-2.2,2.2l0,0c-1.2,0-2.2-1-2.2-2.2v-12.4c0-1.2,1-2.2,2.2-2.2l0,0
					c1.2,0,2.2,1,2.2,2.2V513z"/>
				<path class="st12" d="M944.4,507.7c0.8,0,1.5-0.1,2.2-0.2v-6.9c0-1.2-1-2.2-2.2-2.2c-1.2,0-2.2,1-2.2,2.2v6.9
					C942.9,507.6,943.6,507.7,944.4,507.7z"/>
				<path class="st13" d="M954.2,495.4c0,5.4-4.4,9.8-9.8,9.8c-5.4,0-9.8-4.4-9.8-9.8c0-5.4,4.4-27,9.8-27
					C949.8,468.4,954.2,490,954.2,495.4z"/>
				<path class="st9" d="M944.4,468.4c-0.3,0-0.5,0-0.8,0.1c2.5,6.8,4.2,16.2,4.2,19.5c0,5.4-4.4,9.8-9.8,9.8
					c-1.1,0-2.2-0.2-3.2-0.5c0.9,4.5,4.8,7.9,9.6,7.9c5.4,0,9.8-4.4,9.8-9.8C954.2,490,949.8,468.4,944.4,468.4z"/>
			</g>
		</g>
		
			<ellipse transform="matrix(0.2325 -0.9726 0.9726 0.2325 249.869 1285.7133)" class="st24" cx="939.6" cy="484.5" rx="6.8" ry="1.4"/>
	</g>
	<g>
		<g>
			<path class="st25" d="M990.2,516.5c-2.8,1.6-7.4,1.6-10.2,0c-2.8-1.6-2.8-4.3,0-5.9c2.8-1.6,7.4-1.6,10.2,0
				C993,512.2,993,514.9,990.2,516.5z"/>
			<g>
				<path class="st11" d="M987.3,513c0,1.2-1,2.2-2.2,2.2l0,0c-1.2,0-2.2-1-2.2-2.2v-12.4c0-1.2,1-2.2,2.2-2.2l0,0
					c1.2,0,2.2,1,2.2,2.2V513z"/>
				<path class="st12" d="M985.1,507.7c0.8,0,1.5-0.1,2.2-0.2v-6.9c0-1.2-1-2.2-2.2-2.2c-1.2,0-2.2,1-2.2,2.2v6.9
					C983.6,507.6,984.4,507.7,985.1,507.7z"/>
				<path class="st13" d="M994.9,495.4c0,5.4-4.4,9.8-9.8,9.8c-5.4,0-9.8-4.4-9.8-9.8c0-5.4,4.4-27,9.8-27
					C990.5,468.4,994.9,490,994.9,495.4z"/>
				<path class="st9" d="M985.1,468.4c-0.3,0-0.5,0-0.8,0.1c2.5,6.8,4.2,16.2,4.2,19.5c0,5.4-4.4,9.8-9.8,9.8
					c-1.1,0-2.2-0.2-3.2-0.5c0.9,4.5,4.8,7.9,9.6,7.9c5.4,0,9.8-4.4,9.8-9.8C994.9,490,990.5,468.4,985.1,468.4z"/>
			</g>
		</g>
		
			<ellipse transform="matrix(0.2325 -0.9726 0.9726 0.2325 281.1555 1325.3618)" class="st24" cx="980.4" cy="484.5" rx="6.8" ry="1.4"/>
	</g>
	<g>
		<g>
			<path class="st25" d="M1031,516.5c-2.8,1.6-7.4,1.6-10.2,0c-2.8-1.6-2.8-4.3,0-5.9c2.8-1.6,7.4-1.6,10.2,0
				C1033.8,512.2,1033.8,514.9,1031,516.5z"/>
			<g>
				<path class="st11" d="M1028.1,513c0,1.2-1,2.2-2.2,2.2l0,0c-1.2,0-2.2-1-2.2-2.2v-12.4c0-1.2,1-2.2,2.2-2.2l0,0
					c1.2,0,2.2,1,2.2,2.2V513z"/>
				<path class="st12" d="M1025.9,507.7c0.8,0,1.5-0.1,2.2-0.2v-6.9c0-1.2-1-2.2-2.2-2.2c-1.2,0-2.2,1-2.2,2.2v6.9
					C1024.4,507.6,1025.1,507.7,1025.9,507.7z"/>
				<path class="st13" d="M1035.7,495.4c0,5.4-4.4,9.8-9.8,9.8c-5.4,0-9.8-4.4-9.8-9.8c0-5.4,4.4-27,9.8-27
					C1031.3,468.4,1035.7,490,1035.7,495.4z"/>
				<path class="st9" d="M1025.9,468.4c-0.3,0-0.5,0-0.8,0.1c2.5,6.8,4.2,16.2,4.2,19.5c0,5.4-4.4,9.8-9.8,9.8
					c-1.1,0-2.2-0.2-3.2-0.5c0.9,4.5,4.8,7.9,9.6,7.9c5.4,0,9.8-4.4,9.8-9.8C1035.7,490,1031.3,468.4,1025.9,468.4z"/>
			</g>
		</g>
		
			<ellipse transform="matrix(0.2325 -0.9726 0.9726 0.2325 312.4418 1365.0103)" class="st24" cx="1021.1" cy="484.5" rx="6.8" ry="1.4"/>
	</g>
	<g>
		<g>
			<path class="st25" d="M1071.7,516.5c-2.8,1.6-7.4,1.6-10.2,0c-2.8-1.6-2.8-4.3,0-5.9c2.8-1.6,7.4-1.6,10.2,0
				C1074.5,512.2,1074.5,514.9,1071.7,516.5z"/>
			<g>
				<path class="st11" d="M1068.8,513c0,1.2-1,2.2-2.2,2.2l0,0c-1.2,0-2.2-1-2.2-2.2v-12.4c0-1.2,1-2.2,2.2-2.2l0,0
					c1.2,0,2.2,1,2.2,2.2V513z"/>
				<path class="st12" d="M1066.7,507.7c0.8,0,1.5-0.1,2.2-0.2v-6.9c0-1.2-1-2.2-2.2-2.2c-1.2,0-2.2,1-2.2,2.2v6.9
					C1065.2,507.6,1065.9,507.7,1066.7,507.7z"/>
				<path class="st13" d="M1076.4,495.4c0,5.4-4.4,9.8-9.8,9.8c-5.4,0-9.8-4.4-9.8-9.8c0-5.4,4.4-27,9.8-27
					C1072.1,468.4,1076.4,490,1076.4,495.4z"/>
				<path class="st9" d="M1066.7,468.4c-0.3,0-0.5,0-0.8,0.1c2.5,6.8,4.2,16.2,4.2,19.5c0,5.4-4.4,9.8-9.8,9.8
					c-1.1,0-2.2-0.2-3.2-0.5c0.9,4.5,4.8,7.9,9.6,7.9c5.4,0,9.8-4.4,9.8-9.8C1076.4,490,1072.1,468.4,1066.7,468.4z"/>
			</g>
		</g>
		
			<ellipse transform="matrix(0.2325 -0.9726 0.9726 0.2325 343.7282 1404.6589)" class="st24" cx="1061.9" cy="484.5" rx="6.8" ry="1.4"/>
	</g>
	<g>
		<g>
			<path class="st25" d="M1112.5,516.5c-2.8,1.6-7.4,1.6-10.2,0c-2.8-1.6-2.8-4.3,0-5.9c2.8-1.6,7.4-1.6,10.2,0
				C1115.3,512.2,1115.3,514.9,1112.5,516.5z"/>
			<g>
				<path class="st11" d="M1109.6,513c0,1.2-1,2.2-2.2,2.2l0,0c-1.2,0-2.2-1-2.2-2.2v-12.4c0-1.2,1-2.2,2.2-2.2l0,0
					c1.2,0,2.2,1,2.2,2.2V513z"/>
				<path class="st12" d="M1107.4,507.7c0.8,0,1.5-0.1,2.2-0.2v-6.9c0-1.2-1-2.2-2.2-2.2c-1.2,0-2.2,1-2.2,2.2v6.9
					C1105.9,507.6,1106.7,507.7,1107.4,507.7z"/>
				<path class="st13" d="M1117.2,495.4c0,5.4-4.4,9.8-9.8,9.8c-5.4,0-9.8-4.4-9.8-9.8c0-5.4,4.4-27,9.8-27
					C1112.8,468.4,1117.2,490,1117.2,495.4z"/>
				<path class="st9" d="M1107.4,468.4c-0.3,0-0.5,0-0.8,0.1c2.5,6.8,4.2,16.2,4.2,19.5c0,5.4-4.4,9.8-9.8,9.8
					c-1.1,0-2.2-0.2-3.2-0.5c0.9,4.5,4.8,7.9,9.6,7.9c5.4,0,9.8-4.4,9.8-9.8C1117.2,490,1112.8,468.4,1107.4,468.4z"/>
			</g>
		</g>
		
			<ellipse transform="matrix(0.2325 -0.9726 0.9726 0.2325 375.0146 1444.3075)" class="st24" cx="1102.7" cy="484.5" rx="6.8" ry="1.4"/>
	</g>
	<g>
		<g>
			<path class="st25" d="M1153.3,516.5c-2.8,1.6-7.4,1.6-10.2,0c-2.8-1.6-2.8-4.3,0-5.9c2.8-1.6,7.4-1.6,10.2,0
				C1156.1,512.2,1156.1,514.9,1153.3,516.5z"/>
			<g>
				<path class="st11" d="M1150.4,513c0,1.2-1,2.2-2.2,2.2l0,0c-1.2,0-2.2-1-2.2-2.2v-12.4c0-1.2,1-2.2,2.2-2.2l0,0
					c1.2,0,2.2,1,2.2,2.2V513z"/>
				<path class="st12" d="M1148.2,507.7c0.8,0,1.5-0.1,2.2-0.2v-6.9c0-1.2-1-2.2-2.2-2.2c-1.2,0-2.2,1-2.2,2.2v6.9
					C1146.7,507.6,1147.4,507.7,1148.2,507.7z"/>
				<path class="st13" d="M1158,495.4c0,5.4-4.4,9.8-9.8,9.8c-5.4,0-9.8-4.4-9.8-9.8c0-5.4,4.4-27,9.8-27
					C1153.6,468.4,1158,490,1158,495.4z"/>
				<path class="st9" d="M1148.2,468.4c-0.3,0-0.5,0-0.8,0.1c2.5,6.8,4.2,16.2,4.2,19.5c0,5.4-4.4,9.8-9.8,9.8
					c-1.1,0-2.2-0.2-3.2-0.5c0.9,4.5,4.8,7.9,9.6,7.9c5.4,0,9.8-4.4,9.8-9.8C1158,490,1153.6,468.4,1148.2,468.4z"/>
			</g>
		</g>
		
			<ellipse transform="matrix(0.2325 -0.9726 0.9726 0.2325 406.301 1483.9561)" class="st24" cx="1143.4" cy="484.5" rx="6.8" ry="1.4"/>
	</g>
	<g>
		<g>
			<path class="st25" d="M1194,508c-2.8,1.6-7.4,1.6-10.2,0c-2.8-1.6-2.8-4.3,0-5.9c2.8-1.6,7.4-1.6,10.2,0
				C1196.8,503.7,1196.8,506.3,1194,508z"/>
			<g>
				<path class="st11" d="M1191.1,504.5c0,1.2-1,2.2-2.2,2.2l0,0c-1.2,0-2.2-1-2.2-2.2v-12.4c0-1.2,1-2.2,2.2-2.2l0,0
					c1.2,0,2.2,1,2.2,2.2V504.5z"/>
				<path class="st12" d="M1189,499.2c0.8,0,1.5-0.1,2.2-0.2v-6.9c0-1.2-1-2.2-2.2-2.2s-2.2,1-2.2,2.2v6.9
					C1187.5,499.1,1188.2,499.2,1189,499.2z"/>
				<path class="st13" d="M1198.7,486.9c0,5.4-4.4,9.8-9.8,9.8c-5.4,0-9.8-4.4-9.8-9.8c0-5.4,4.4-27,9.8-27
					C1194.4,459.9,1198.7,481.5,1198.7,486.9z"/>
				<path class="st9" d="M1189,459.9c-0.3,0-0.5,0-0.8,0.1c2.5,6.8,4.2,16.2,4.2,19.5c0,5.4-4.4,9.8-9.8,9.8c-1.1,0-2.2-0.2-3.2-0.5
					c0.9,4.5,4.8,7.9,9.6,7.9c5.4,0,9.8-4.4,9.8-9.8C1198.7,481.5,1194.4,459.9,1189,459.9z"/>
			</g>
		</g>
		
			<ellipse transform="matrix(0.2325 -0.9726 0.9726 0.2325 445.8885 1517.0542)" class="st24" cx="1184.2" cy="476" rx="6.8" ry="1.4"/>
	</g>
	<g>
		<g>
			<path class="st25" d="M1234.8,499.4c-2.8,1.6-7.4,1.6-10.2,0c-2.8-1.6-2.8-4.3,0-5.9c2.8-1.6,7.4-1.6,10.2,0
				C1237.6,495.2,1237.6,497.8,1234.8,499.4z"/>
			<g>
				<path class="st11" d="M1231.9,495.9c0,1.2-1,2.2-2.2,2.2l0,0c-1.2,0-2.2-1-2.2-2.2v-12.4c0-1.2,1-2.2,2.2-2.2l0,0
					c1.2,0,2.2,1,2.2,2.2V495.9z"/>
				<path class="st12" d="M1229.7,490.7c0.8,0,1.5-0.1,2.2-0.2v-6.9c0-1.2-1-2.2-2.2-2.2s-2.2,1-2.2,2.2v6.9
					C1228.2,490.6,1229,490.7,1229.7,490.7z"/>
				<path class="st13" d="M1239.5,478.4c0,5.4-4.4,9.8-9.8,9.8c-5.4,0-9.8-4.4-9.8-9.8c0-5.4,4.4-27,9.8-27
					C1235.1,451.4,1239.5,473,1239.5,478.4z"/>
				<path class="st9" d="M1229.7,451.4c-0.3,0-0.5,0-0.8,0.1c2.5,6.8,4.2,16.2,4.2,19.5c0,5.4-4.4,9.8-9.8,9.8
					c-1.1,0-2.2-0.2-3.2-0.5c0.9,4.5,4.8,7.9,9.6,7.9c5.4,0,9.8-4.4,9.8-9.8C1239.5,473,1235.1,451.4,1229.7,451.4z"/>
			</g>
		</g>
		
			<ellipse transform="matrix(0.2325 -0.9726 0.9726 0.2325 485.476 1550.1525)" class="st24" cx="1225" cy="467.5" rx="6.8" ry="1.4"/>
	</g>
	<g>
		<g>
			<path class="st25" d="M1275.6,490.9c-2.8,1.6-7.4,1.6-10.2,0c-2.8-1.6-2.8-4.3,0-5.9c2.8-1.6,7.4-1.6,10.2,0
				C1278.4,486.6,1278.4,489.3,1275.6,490.9z"/>
			<g>
				<path class="st11" d="M1272.7,487.4c0,1.2-1,2.2-2.2,2.2l0,0c-1.2,0-2.2-1-2.2-2.2V475c0-1.2,1-2.2,2.2-2.2l0,0
					c1.2,0,2.2,1,2.2,2.2V487.4z"/>
				<path class="st12" d="M1270.5,482.1c0.8,0,1.5-0.1,2.2-0.2V475c0-1.2-1-2.2-2.2-2.2c-1.2,0-2.2,1-2.2,2.2v6.9
					C1269,482,1269.7,482.1,1270.5,482.1z"/>
				<path class="st13" d="M1280.3,469.8c0,5.4-4.4,9.8-9.8,9.8c-5.4,0-9.8-4.4-9.8-9.8c0-5.4,4.4-27,9.8-27
					C1275.9,442.8,1280.3,464.4,1280.3,469.8z"/>
				<path class="st9" d="M1270.5,442.8c-0.3,0-0.5,0-0.8,0.1c2.5,6.8,4.2,16.2,4.2,19.5c0,5.4-4.4,9.8-9.8,9.8
					c-1.1,0-2.2-0.2-3.2-0.5c0.9,4.5,4.8,7.9,9.6,7.9c5.4,0,9.8-4.4,9.8-9.8C1280.3,464.4,1275.9,442.8,1270.5,442.8z"/>
			</g>
		</g>
		
			<ellipse transform="matrix(0.2325 -0.9726 0.9726 0.2325 525.0634 1583.2507)" class="st24" cx="1265.7" cy="458.9" rx="6.8" ry="1.4"/>
	</g>
	<g>
		<g>
			<path class="st25" d="M1316.3,482.4c-2.8,1.6-7.4,1.6-10.2,0c-2.8-1.6-2.8-4.3,0-5.9c2.8-1.6,7.4-1.6,10.2,0
				C1319.1,478.1,1319.1,480.7,1316.3,482.4z"/>
			<g>
				<path class="st11" d="M1313.4,478.9c0,1.2-1,2.2-2.2,2.2l0,0c-1.2,0-2.2-1-2.2-2.2v-12.4c0-1.2,1-2.2,2.2-2.2l0,0
					c1.2,0,2.2,1,2.2,2.2V478.9z"/>
				<path class="st12" d="M1311.3,473.6c0.8,0,1.5-0.1,2.2-0.2v-6.9c0-1.2-1-2.2-2.2-2.2c-1.2,0-2.2,1-2.2,2.2v6.9
					C1309.8,473.5,1310.5,473.6,1311.3,473.6z"/>
				<path class="st13" d="M1321,461.3c0,5.4-4.4,9.8-9.8,9.8c-5.4,0-9.8-4.4-9.8-9.8c0-5.4,4.4-27,9.8-27
					C1316.7,434.3,1321,455.9,1321,461.3z"/>
				<path class="st9" d="M1311.3,434.3c-0.3,0-0.5,0-0.8,0.1c2.5,6.8,4.2,16.2,4.2,19.5c0,5.4-4.4,9.8-9.8,9.8
					c-1.1,0-2.2-0.2-3.2-0.5c0.9,4.5,4.8,7.9,9.6,7.9c5.4,0,9.8-4.4,9.8-9.8C1321,455.9,1316.7,434.3,1311.3,434.3z"/>
			</g>
		</g>
		
			<ellipse transform="matrix(0.2325 -0.9726 0.9726 0.2325 564.6529 1616.3503)" class="st24" cx="1306.5" cy="450.4" rx="6.8" ry="1.4"/>
	</g>
	<g>
		<g>
			<g>
				<rect x="1210.9" y="517.5" class="st26" width="2" height="24.3"/>
				<rect x="1210.9" y="517.5" class="st27" width="2" height="5.2"/>
				<circle class="st28" cx="1211.8" cy="511.5" r="8.5"/>
				<circle class="st28" cx="1211.8" cy="511.5" r="7.3"/>
			</g>
		</g>
		<g>
			<path class="st5" d="M1208.2,510.6C1208.2,510.7,1208.2,510.7,1208.2,510.6c-0.1,0.1-0.1,0.1-0.2,0.1c0,0-0.1,0-0.1,0
				c0,0-0.1,0-0.1-0.1c0,0-0.1,0-0.2-0.1c-0.1,0-0.1,0-0.2,0c-0.1,0-0.2,0-0.3,0.1c-0.1,0.1-0.1,0.1-0.1,0.2c0,0.1,0,0.1,0.1,0.2
				c0,0,0.1,0.1,0.2,0.1c0.1,0,0.1,0.1,0.2,0.1c0.1,0,0.2,0.1,0.3,0.1c0.1,0,0.2,0.1,0.3,0.1c0.1,0,0.2,0.1,0.2,0.2
				c0.1,0.1,0.1,0.1,0.2,0.2c0,0.1,0.1,0.2,0.1,0.3c0,0.1,0,0.3-0.1,0.4c0,0.1-0.1,0.2-0.2,0.3c-0.1,0.1-0.2,0.2-0.3,0.2
				c-0.1,0.1-0.3,0.1-0.5,0.1c-0.1,0-0.2,0-0.3,0c-0.1,0-0.2,0-0.3-0.1c-0.1,0-0.2-0.1-0.3-0.1c-0.1,0-0.2-0.1-0.2-0.2l0.2-0.3
				c0,0,0,0,0.1-0.1c0,0,0.1,0,0.1,0c0,0,0.1,0,0.1,0c0,0,0.1,0.1,0.1,0.1c0.1,0,0.1,0.1,0.2,0.1c0.1,0,0.2,0,0.2,0
				c0.1,0,0.2,0,0.3-0.1c0.1-0.1,0.1-0.1,0.1-0.3c0-0.1,0-0.1-0.1-0.2c0,0-0.1-0.1-0.2-0.1c-0.1,0-0.1-0.1-0.2-0.1
				c-0.1,0-0.2,0-0.3-0.1c-0.1,0-0.2-0.1-0.3-0.1s-0.2-0.1-0.2-0.2c-0.1-0.1-0.1-0.1-0.2-0.2c0-0.1-0.1-0.2-0.1-0.4
				c0-0.1,0-0.2,0.1-0.3c0-0.1,0.1-0.2,0.2-0.3c0.1-0.1,0.2-0.2,0.3-0.2c0.1-0.1,0.3-0.1,0.4-0.1c0.1,0,0.2,0,0.3,0
				c0.1,0,0.2,0,0.3,0.1c0.1,0,0.2,0.1,0.2,0.1c0.1,0,0.1,0.1,0.2,0.1L1208.2,510.6z"/>
			<path class="st5" d="M1211.1,510.6h-0.9v2.5h-0.7v-2.5h-0.9V510h2.4V510.6z"/>
			<path class="st5" d="M1214.4,511.5c0,0.2,0,0.4-0.1,0.6c-0.1,0.2-0.2,0.4-0.3,0.5c-0.1,0.1-0.3,0.3-0.5,0.3
				c-0.2,0.1-0.4,0.1-0.7,0.1c-0.2,0-0.5,0-0.7-0.1c-0.2-0.1-0.4-0.2-0.5-0.3c-0.1-0.1-0.2-0.3-0.3-0.5c-0.1-0.2-0.1-0.4-0.1-0.6
				c0-0.2,0-0.4,0.1-0.6c0.1-0.2,0.2-0.4,0.3-0.5c0.1-0.1,0.3-0.3,0.5-0.3c0.2-0.1,0.4-0.1,0.7-0.1c0.2,0,0.5,0,0.7,0.1
				c0.2,0.1,0.4,0.2,0.5,0.3c0.1,0.1,0.2,0.3,0.3,0.5C1214.3,511.1,1214.4,511.3,1214.4,511.5z M1213.7,511.5c0-0.2,0-0.3-0.1-0.4
				c0-0.1-0.1-0.2-0.2-0.3c-0.1-0.1-0.2-0.1-0.3-0.2c-0.1,0-0.2-0.1-0.4-0.1c-0.1,0-0.3,0-0.4,0.1s-0.2,0.1-0.3,0.2
				c-0.1,0.1-0.1,0.2-0.2,0.3c0,0.1-0.1,0.3-0.1,0.4c0,0.2,0,0.3,0.1,0.4c0,0.1,0.1,0.2,0.2,0.3c0.1,0.1,0.2,0.1,0.3,0.2
				c0.1,0,0.2,0.1,0.4,0.1c0.1,0,0.3,0,0.4-0.1c0.1,0,0.2-0.1,0.3-0.2c0.1-0.1,0.1-0.2,0.2-0.3
				C1213.6,511.8,1213.7,511.7,1213.7,511.5z"/>
			<path class="st5" d="M1215.9,510c0.2,0,0.4,0,0.6,0.1c0.2,0.1,0.3,0.1,0.4,0.2s0.2,0.2,0.2,0.3c0,0.1,0.1,0.3,0.1,0.4
				c0,0.2,0,0.3-0.1,0.4c0,0.1-0.1,0.2-0.2,0.3c-0.1,0.1-0.2,0.2-0.4,0.2c-0.2,0.1-0.3,0.1-0.6,0.1h-0.4v1h-0.7V510H1215.9z
				 M1215.9,511.5c0.2,0,0.3,0,0.4-0.1c0.1-0.1,0.1-0.2,0.1-0.4c0-0.1,0-0.1,0-0.2c0-0.1-0.1-0.1-0.1-0.1c0,0-0.1-0.1-0.2-0.1
				c-0.1,0-0.1,0-0.2,0h-0.4v1H1215.9z"/>
		</g>
		<circle class="st29" cx="1211.8" cy="511.5" r="7.3"/>
	</g>
	<g>
		<rect x="971.9" y="381.8" class="st18" width="156.6" height="159.2"/>
		<g>
			
				<rect x="1031.9" y="505.4" transform="matrix(-1.836970e-16 1 -1 -1.836970e-16 1572.8762 -527.4758)" class="st23" width="36.5" height="34.6"/>
			<rect x="1034.7" y="506.2" class="st16" width="31" height="34.7"/>
			<rect x="1034.7" y="506.2" class="st22" width="15.5" height="34.7"/>
		</g>
		<rect x="964.5" y="374.6" class="st16" width="171.3" height="7.2"/>
		<g>
			<g>
				<g>
					
						<rect x="982" y="434.6" transform="matrix(-1.836970e-16 1 -1 -1.836970e-16 1437.1947 -551.4482)" class="st23" width="24.6" height="16.5"/>
					<rect x="987.9" y="432.4" class="st16" width="12.9" height="21"/>
					<polygon class="st22" points="987.9,453.4 1000.8,432.4 987.9,432.4 					"/>
				</g>
				<g>
					
						<rect x="996.8" y="434.6" transform="matrix(-1.836970e-16 1 -1 -1.836970e-16 1451.9182 -566.1717)" class="st23" width="24.6" height="16.5"/>
					<rect x="1002.6" y="432.4" class="st16" width="12.9" height="21"/>
					<polygon class="st22" points="1002.6,453.4 1015.5,432.4 1002.6,432.4 					"/>
				</g>
			</g>
			<g>
				<g>
					
						<rect x="1030.5" y="434.6" transform="matrix(-1.836970e-16 1 -1 -1.836970e-16 1485.6875 -599.941)" class="st23" width="24.6" height="16.5"/>
					<rect x="1036.4" y="432.4" class="st16" width="12.9" height="21"/>
					<polygon class="st22" points="1036.4,453.4 1049.3,432.4 1036.4,432.4 					"/>
				</g>
				<g>
					
						<rect x="1045.3" y="434.6" transform="matrix(-1.836970e-16 1 -1 -1.836970e-16 1500.411 -614.6645)" class="st23" width="24.6" height="16.5"/>
					<rect x="1051.1" y="432.4" class="st16" width="12.9" height="21"/>
					<polygon class="st22" points="1051.1,453.4 1064,432.4 1051.1,432.4 					"/>
				</g>
			</g>
			<g>
				<g>
					
						<rect x="1079" y="434.6" transform="matrix(-1.836970e-16 1 -1 -1.836970e-16 1534.1808 -648.4343)" class="st23" width="24.6" height="16.5"/>
					<rect x="1084.8" y="432.4" class="st16" width="12.9" height="21"/>
					<polygon class="st22" points="1084.8,453.4 1097.8,432.4 1084.8,432.4 					"/>
				</g>
				<g>
					
						<rect x="1093.8" y="434.6" transform="matrix(-1.836970e-16 1 -1 -1.836970e-16 1548.9049 -663.1583)" class="st23" width="24.6" height="16.5"/>
					<rect x="1099.6" y="432.4" class="st16" width="12.9" height="21"/>
					<polygon class="st22" points="1099.6,453.4 1112.5,432.4 1099.6,432.4 					"/>
				</g>
			</g>
		</g>
		<g>
			<g>
				<g>
					
						<rect x="982" y="397.7" transform="matrix(-1.836970e-16 1 -1 -1.836970e-16 1400.2766 -588.3663)" class="st23" width="24.6" height="16.5"/>
					<rect x="987.9" y="395.5" class="st16" width="12.9" height="21"/>
					<polygon class="st22" points="987.9,416.4 1000.8,395.5 987.9,395.5 					"/>
				</g>
				<g>
					
						<rect x="996.8" y="397.7" transform="matrix(-1.836970e-16 1 -1 -1.836970e-16 1415.0001 -603.0898)" class="st23" width="24.6" height="16.5"/>
					<rect x="1002.6" y="395.5" class="st16" width="12.9" height="21"/>
					<polygon class="st22" points="1002.6,416.4 1015.5,395.5 1002.6,395.5 					"/>
				</g>
			</g>
			<g>
				<g>
					
						<rect x="1030.5" y="397.7" transform="matrix(-1.836970e-16 1 -1 -1.836970e-16 1448.7694 -636.8591)" class="st23" width="24.6" height="16.5"/>
					<rect x="1036.4" y="395.5" class="st16" width="12.9" height="21"/>
					<polygon class="st22" points="1036.4,416.4 1049.3,395.5 1036.4,395.5 					"/>
				</g>
				<g>
					
						<rect x="1045.3" y="397.7" transform="matrix(-1.836970e-16 1 -1 -1.836970e-16 1463.4929 -651.5826)" class="st23" width="24.6" height="16.5"/>
					<rect x="1051.1" y="395.5" class="st16" width="12.9" height="21"/>
					<polygon class="st22" points="1051.1,416.4 1064,395.5 1051.1,395.5 					"/>
				</g>
			</g>
			<g>
				<g>
					
						<rect x="1079" y="397.7" transform="matrix(-1.836970e-16 1 -1 -1.836970e-16 1497.2626 -685.3524)" class="st23" width="24.6" height="16.5"/>
					<rect x="1084.8" y="395.5" class="st16" width="12.9" height="21"/>
					<polygon class="st22" points="1084.8,416.4 1097.8,395.5 1084.8,395.5 					"/>
				</g>
				<g>
					
						<rect x="1093.8" y="397.7" transform="matrix(-1.836970e-16 1 -1 -1.836970e-16 1511.9867 -700.0765)" class="st23" width="24.6" height="16.5"/>
					<rect x="1099.6" y="395.5" class="st16" width="12.9" height="21"/>
					<polygon class="st22" points="1099.6,416.4 1112.5,395.5 1099.6,395.5 					"/>
				</g>
			</g>
		</g>
		<g>
			<g>
				<g>
					
						<rect x="982" y="469.6" transform="matrix(-1.836970e-16 1 -1 -1.836970e-16 1472.1959 -516.447)" class="st23" width="24.6" height="16.5"/>
					<rect x="987.9" y="467.4" class="st16" width="12.9" height="21"/>
					<polygon class="st22" points="987.9,488.4 1000.8,467.4 987.9,467.4 					"/>
				</g>
				<g>
					
						<rect x="996.8" y="469.6" transform="matrix(-1.836970e-16 1 -1 -1.836970e-16 1486.9193 -531.1705)" class="st23" width="24.6" height="16.5"/>
					<rect x="1002.6" y="467.4" class="st16" width="12.9" height="21"/>
					<polygon class="st22" points="1002.6,488.4 1015.5,467.4 1002.6,467.4 					"/>
				</g>
			</g>
			<g>
				<g>
					
						<rect x="1030.5" y="469.6" transform="matrix(-1.836970e-16 1 -1 -1.836970e-16 1520.6887 -564.9398)" class="st23" width="24.6" height="16.5"/>
					<rect x="1036.4" y="467.4" class="st16" width="12.9" height="21"/>
					<polygon class="st22" points="1036.4,488.4 1049.3,467.4 1036.4,467.4 					"/>
				</g>
				<g>
					
						<rect x="1045.3" y="469.6" transform="matrix(-1.836970e-16 1 -1 -1.836970e-16 1535.4121 -579.6633)" class="st23" width="24.6" height="16.5"/>
					<rect x="1051.1" y="467.4" class="st16" width="12.9" height="21"/>
					<polygon class="st22" points="1051.1,488.4 1064,467.4 1051.1,467.4 					"/>
				</g>
			</g>
			<g>
				<g>
					
						<rect x="1079" y="469.6" transform="matrix(-1.836970e-16 1 -1 -1.836970e-16 1569.1819 -613.4331)" class="st23" width="24.6" height="16.5"/>
					<rect x="1084.8" y="467.4" class="st16" width="12.9" height="21"/>
					<polygon class="st22" points="1084.8,488.4 1097.8,467.4 1084.8,467.4 					"/>
				</g>
				<g>
					
						<rect x="1093.8" y="469.6" transform="matrix(-1.836970e-16 1 -1 -1.836970e-16 1583.906 -628.1572)" class="st23" width="24.6" height="16.5"/>
					<rect x="1099.6" y="467.4" class="st16" width="12.9" height="21"/>
					<polygon class="st22" points="1099.6,488.4 1112.5,467.4 1099.6,467.4 					"/>
				</g>
			</g>
		</g>
		<g>
			
				<rect x="1082.4" y="505.3" transform="matrix(-1.836970e-16 1 -1 -1.836970e-16 1623.382 -567.5653)" class="st23" width="26.1" height="45.2"/>
			<rect x="1074.7" y="516.7" class="st16" width="41.6" height="24.3"/>
			<g>
				<rect x="1076.7" y="518.5" class="st21" width="37.6" height="1.8"/>
				<rect x="1076.7" y="522.6" class="st21" width="37.6" height="1.8"/>
				<rect x="1076.7" y="526.7" class="st21" width="37.6" height="1.8"/>
				<rect x="1076.7" y="530.9" class="st21" width="37.6" height="1.8"/>
				<rect x="1076.7" y="535" class="st21" width="37.6" height="1.8"/>
				<rect x="1076.7" y="539.1" class="st21" width="37.6" height="1.8"/>
			</g>
		</g>
		<g>
			
				<rect x="991.8" y="505.3" transform="matrix(-1.836970e-16 1 -1 -1.836970e-16 1532.7886 -476.9718)" class="st23" width="26.1" height="45.2"/>
			
				<rect x="984.1" y="516.7" transform="matrix(-1 -1.224647e-16 1.224647e-16 -1 2009.7567 1057.6177)" class="st16" width="41.6" height="24.3"/>
			<g>
				<rect x="986.1" y="518.5" class="st21" width="37.6" height="1.8"/>
				<rect x="986.1" y="522.6" class="st21" width="37.6" height="1.8"/>
				<rect x="986.1" y="526.7" class="st21" width="37.6" height="1.8"/>
				<rect x="986.1" y="530.9" class="st21" width="37.6" height="1.8"/>
				<rect x="986.1" y="535" class="st21" width="37.6" height="1.8"/>
				<rect x="986.1" y="539.1" class="st21" width="37.6" height="1.8"/>
			</g>
		</g>
		<polygon class="st15" points="1125.6,350.8 974.7,350.8 964.5,374.6 1135.8,374.6 		"/>
	</g>
	<g>
		<path class="st11" d="M703.8,146.3c0,1-0.8,1.8-1.8,1.8l0,0c-1,0-1.8-0.8-1.8-1.8l0.1-14.6c0-1,0.8-1.8,1.8-1.8l0,0
			c1,0,1.8,0.8,1.8,1.8L703.8,146.3z"/>
		<path class="st12" d="M702.1,137.5c0.6,0,1.2-0.1,1.8-0.2l0.1-5.6c0-1-0.8-1.8-1.8-1.8c-1,0-1.8,0.8-1.8,1.8l-0.1,5.6
			C700.9,137.5,701.5,137.5,702.1,137.5z"/>
		<polygon class="st11" points="668.7,131.9 729.8,131.9 735.3,126.4 735.3,125 669.8,119.6 668.7,120.8 		"/>
		<polygon class="st12" points="668.7,131.9 729.8,131.9 729.9,128.3 669.8,119.6 668.7,120.8 		"/>
		<polygon class="st18" points="669.8,130.4 729.9,130.4 735.3,125 729.9,119.6 669.8,119.6 		"/>
		<text transform="matrix(1 0 0 1 675.718 127.2872)" class="st12 st30 st31">Recieve Service</text>
	</g>
	<g>
		<path class="st32" d="M0,352.9l624.9,0c11.5,0,20.7-9.3,20.7-20.8V176c0-11.5,9.3-20.8,20.7-20.8h69.9c11.5,0,20.7,9.3,20.7,20.8
			v353.9c0,11.5,9.3,20.8,20.7,20.8l519.6,0h21.1c11.5,0,20.7-9.3,20.7-20.8V373.8c0-11.5,9.3-20.8,20.7-20.8l17.2-0.1L2000,353"/>
	</g>
	<g>
		<path class="st33" d="M893.7,494.5c-4.3,5.8,0,44,0,44c0,1.6,8.2,4.1,8.2,4.1h94.5c8.1,0,7.9-10.4,7.9-10.4c0-8.9-3.3-9.8-3.3-9.8
			l-11.6-7c0,0-4.4-5.4-11.2-13.9c-5.6-7.2-16.7-7.5-16.7-7.5h-64.7C894.9,494,893.7,494.5,893.7,494.5z"/>
		<rect x="891.8" y="494.1" class="st34" width="65.2" height="42.8"/>
		<path class="st34" d="M893.6,538.8h109.3c1,0,1.8-0.8,1.8-1.8l0,0c0-1-0.8-1.8-1.8-1.8H893.6c-1,0-1.8,0.8-1.8,1.8l0,0
			C891.8,538,892.6,538.8,893.6,538.8z"/>
		<g>
			<g>
				<path class="st35" d="M913.5,531.5c-6.1,0-11.1,5-11.1,11.1h4.9h17.3C924.6,536.5,919.7,531.5,913.5,531.5z"/>
			</g>
			<circle class="st36" cx="913.5" cy="542.6" r="8.5"/>
			<circle class="st37" cx="913.5" cy="542.6" r="4.6"/>
			
				<ellipse transform="matrix(6.651213e-02 -0.9978 0.9978 6.651213e-02 313.413 1421.5529)" class="st5" cx="916.4" cy="543.3" rx="1" ry="0.5"/>
			<g class="st38">
				<path class="st8" d="M913.5,535.9c4.5,0,8.1,3.6,8.1,8.1c0,0.4,0,0.9-0.1,1.3c0.3-0.9,0.5-1.8,0.5-2.7c0-4.7-3.8-8.5-8.5-8.5
					c-4.7,0-8.5,3.8-8.5,8.5c0,1,0.2,1.9,0.5,2.7c-0.1-0.4-0.1-0.8-0.1-1.3C905.4,539.6,909,535.9,913.5,535.9z"/>
			</g>
			<g class="st38">
				<path class="st8" d="M913.5,539c2.4,0,4.4,2,4.4,4.4c0,0.2,0,0.5-0.1,0.7c0.2-0.5,0.2-1,0.2-1.5c0-2.5-2-4.6-4.6-4.6
					c-2.5,0-4.6,2-4.6,4.6c0,0.5,0.1,1,0.2,1.5c0-0.2-0.1-0.5-0.1-0.7C909.1,541,911.1,539,913.5,539z"/>
			</g>
		</g>
		<g>
			<g>
				<path class="st35" d="M982.5,531.5c-6.1,0-11.1,5-11.1,11.1h4.9h17.3C993.6,536.5,988.6,531.5,982.5,531.5z"/>
			</g>
			<circle class="st36" cx="982.5" cy="542.6" r="8.5"/>
			<circle class="st37" cx="982.5" cy="542.6" r="4.6"/>
			
				<ellipse transform="matrix(6.651901e-02 -0.9978 0.9978 6.651901e-02 377.7711 1490.3466)" class="st5" cx="985.4" cy="543.3" rx="1" ry="0.5"/>
			<g class="st38">
				<path class="st8" d="M982.5,539c2.4,0,4.4,2,4.4,4.4c0,0.2,0,0.5-0.1,0.7c0.2-0.5,0.2-1,0.2-1.5c0-2.5-2-4.6-4.6-4.6
					c-2.5,0-4.6,2-4.6,4.6c0,0.5,0.1,1,0.2,1.5c0-0.2-0.1-0.5-0.1-0.7C978.1,541,980,539,982.5,539z"/>
			</g>
			<g class="st38">
				<path class="st8" d="M982.5,535.9c4.5,0,8.1,3.6,8.1,8.1c0,0.4,0,0.9-0.1,1.3c0.3-0.9,0.5-1.8,0.5-2.7c0-4.7-3.8-8.5-8.5-8.5
					c-4.7,0-8.5,3.8-8.5,8.5c0,1,0.2,1.9,0.5,2.7c-0.1-0.4-0.1-0.8-0.1-1.3C974.3,539.6,978,535.9,982.5,535.9z"/>
			</g>
		</g>
		<path class="st39" d="M963.5,512.4v-15.3c10.9,0.4,11.6,4.3,11.6,4.3l13,17.4L963.5,512.4z"/>
		<g>
			<g>
				<path class="st40" d="M904.4,508.2c0,0,0.4-1.9,1.7-2.6c0,0-1.2-0.4-1.7-0.4c-2.7,0-4.9,2.2-4.9,4.9v5.1c0,2.7,2.2,4.9,4.9,4.9
					c2.7,0,4.9-2.2,4.9-4.9V514h-3.2v1.5c0,0.9-0.7,1.6-1.6,1.6c-0.9,0-1.6-0.7-1.6-1.6v-5.6C902.8,509,903.5,508.2,904.4,508.2z"/>
				<path class="st40" d="M910.9,505.2c-2.7,0-4.9,2.2-4.9,4.9v0.2v1l3.2,0v-1.2v0v-0.3c0-0.9,0.7-1.6,1.6-1.6
					c0.9,0,1.6,0.7,1.6,1.6v5.1l0-0.1v1.5c0,2.9-2.2,5.3-5,5.5c-3.4,0-8,0-8,0v3.2l0,0c0,0,10.2,0,11.4,0c2.7,0,4.9-2.2,4.9-4.9
					v-9.9C915.8,507.4,913.6,505.2,910.9,505.2z"/>
			</g>
			<g>
				<path class="st5" d="M925.8,506.1v7.1h-1.7v-3h-2.9v3h-1.7v-7.1h1.7v3h2.9v-3H925.8z"/>
				<path class="st5" d="M934.2,509.7c0,0.5-0.1,1-0.3,1.4c-0.2,0.4-0.4,0.8-0.8,1.2c-0.3,0.3-0.7,0.6-1.2,0.8
					c-0.5,0.2-1,0.3-1.5,0.3c-0.6,0-1.1-0.1-1.5-0.3c-0.5-0.2-0.8-0.4-1.2-0.8c-0.3-0.3-0.6-0.7-0.8-1.2c-0.2-0.4-0.3-0.9-0.3-1.4
					c0-0.5,0.1-1,0.3-1.4c0.2-0.4,0.4-0.8,0.8-1.2c0.3-0.3,0.7-0.6,1.2-0.8c0.5-0.2,1-0.3,1.5-0.3c0.6,0,1.1,0.1,1.5,0.3
					c0.5,0.2,0.8,0.4,1.2,0.8c0.3,0.3,0.6,0.7,0.8,1.2C934.1,508.7,934.2,509.2,934.2,509.7z M932.5,509.7c0-0.4,0-0.7-0.1-1
					c-0.1-0.3-0.2-0.5-0.4-0.7c-0.2-0.2-0.4-0.3-0.6-0.5c-0.2-0.1-0.5-0.2-0.8-0.2c-0.3,0-0.6,0.1-0.9,0.2c-0.2,0.1-0.5,0.3-0.6,0.5
					c-0.2,0.2-0.3,0.4-0.4,0.7c-0.1,0.3-0.1,0.6-0.1,1c0,0.4,0,0.7,0.1,1c0.1,0.3,0.2,0.5,0.4,0.7c0.2,0.2,0.4,0.3,0.6,0.4
					c0.2,0.1,0.5,0.2,0.9,0.2c0.3,0,0.6-0.1,0.8-0.2c0.2-0.1,0.5-0.3,0.6-0.4c0.2-0.2,0.3-0.4,0.4-0.7
					C932.5,510.4,932.5,510,932.5,509.7z"/>
				<path class="st5" d="M943.2,506.1v7.1h-1.5v-4.1c0-0.1,0-0.2,0-0.3c0-0.1,0-0.2,0-0.3l-1.9,3.7c-0.1,0.1-0.1,0.2-0.2,0.3
					c-0.1,0.1-0.2,0.1-0.3,0.1h-0.2c-0.1,0-0.2,0-0.3-0.1c-0.1-0.1-0.2-0.1-0.2-0.3l-1.9-3.7c0,0.1,0,0.2,0,0.3c0,0.1,0,0.2,0,0.3
					v4.1h-1.5v-7.1h1.3c0.1,0,0.1,0,0.2,0c0.1,0,0.1,0,0.1,0c0,0,0.1,0,0.1,0.1c0,0,0.1,0.1,0.1,0.1l1.8,3.6
					c0.1,0.1,0.1,0.3,0.2,0.4c0.1,0.1,0.1,0.3,0.2,0.4c0.1-0.1,0.1-0.3,0.2-0.4c0.1-0.1,0.1-0.3,0.2-0.4l1.8-3.6
					c0-0.1,0.1-0.1,0.1-0.1c0,0,0.1-0.1,0.1-0.1c0,0,0.1,0,0.1,0c0.1,0,0.1,0,0.2,0H943.2z"/>
				<path class="st5" d="M946.2,507.4v1.7h2.2v1.2h-2.2v1.7h2.9v1.3h-4.6v-7.1h4.6v1.3H946.2z"/>
			</g>
			<g>
				<path class="st5" d="M925.5,521.8c0,0,0.1,0,0.1,0c0,0,0.1,0,0.1,0.1l0.8,0.8c-0.3,0.5-0.8,0.8-1.3,1c-0.5,0.2-1.1,0.3-1.9,0.3
					c-0.7,0-1.2-0.1-1.8-0.3c-0.5-0.2-1-0.5-1.3-0.9c-0.4-0.4-0.6-0.9-0.8-1.4c-0.2-0.5-0.3-1.1-0.3-1.8c0-0.6,0.1-1.2,0.3-1.8
					c0.2-0.5,0.5-1,0.9-1.4c0.4-0.4,0.8-0.7,1.4-0.9c0.5-0.2,1.1-0.3,1.7-0.3c0.3,0,0.6,0,0.9,0.1c0.3,0.1,0.6,0.1,0.8,0.2
					c0.2,0.1,0.5,0.2,0.7,0.4c0.2,0.1,0.4,0.3,0.6,0.5l-0.7,0.9c0,0.1-0.1,0.1-0.2,0.2c-0.1,0-0.1,0.1-0.2,0.1c-0.1,0-0.1,0-0.2,0
					c-0.1,0-0.1-0.1-0.2-0.1c-0.1,0-0.1-0.1-0.2-0.1c-0.1-0.1-0.2-0.1-0.3-0.1c-0.1,0-0.3-0.1-0.4-0.1c-0.2,0-0.3,0-0.5,0
					c-0.3,0-0.6,0.1-0.9,0.2c-0.3,0.1-0.5,0.3-0.7,0.5c-0.2,0.2-0.4,0.5-0.5,0.9c-0.1,0.3-0.2,0.7-0.2,1.2c0,0.4,0.1,0.8,0.2,1.2
					c0.1,0.3,0.3,0.6,0.5,0.9c0.2,0.2,0.4,0.4,0.7,0.5c0.3,0.1,0.6,0.2,0.9,0.2c0.2,0,0.3,0,0.5,0c0.2,0,0.3,0,0.4-0.1
					c0.1,0,0.3-0.1,0.4-0.2c0.1-0.1,0.2-0.2,0.3-0.3c0,0,0.1-0.1,0.2-0.1C925.4,521.8,925.4,521.8,925.5,521.8z"/>
				<path class="st5" d="M935.2,524h-1.5c-0.2,0-0.3,0-0.4-0.1c-0.1-0.1-0.2-0.2-0.2-0.3l-0.5-1.5h-3.3l-0.5,1.5
					c0,0.1-0.1,0.2-0.2,0.3c-0.1,0.1-0.3,0.1-0.4,0.1h-1.6l3.3-8.6h2L935.2,524z M932,520.7l-0.8-2.4c-0.1-0.1-0.1-0.3-0.2-0.5
					c-0.1-0.2-0.1-0.4-0.2-0.7c-0.1,0.2-0.1,0.5-0.2,0.7c-0.1,0.2-0.1,0.4-0.2,0.5l-0.8,2.3H932z"/>
				<path class="st5" d="M942.9,524h-1.8c-0.3,0-0.6-0.1-0.7-0.4l-1.4-2.5c-0.1-0.1-0.1-0.2-0.2-0.2c-0.1,0-0.2-0.1-0.4-0.1h-0.5
					v3.2h-2v-8.6h2.8c0.6,0,1.2,0.1,1.6,0.2c0.4,0.1,0.8,0.3,1.1,0.5c0.3,0.2,0.5,0.5,0.6,0.8c0.1,0.3,0.2,0.6,0.2,1
					c0,0.3,0,0.5-0.1,0.8c-0.1,0.2-0.2,0.5-0.3,0.7c-0.1,0.2-0.3,0.4-0.5,0.6c-0.2,0.2-0.5,0.3-0.7,0.4c0.1,0.1,0.3,0.2,0.4,0.3
					c0.1,0.1,0.2,0.2,0.3,0.4L942.9,524z M938.6,519.4c0.3,0,0.5,0,0.7-0.1c0.2-0.1,0.3-0.2,0.5-0.3c0.1-0.1,0.2-0.3,0.3-0.4
					c0.1-0.2,0.1-0.3,0.1-0.5c0-0.4-0.1-0.7-0.4-0.9c-0.2-0.2-0.6-0.3-1.1-0.3h-0.8v2.6H938.6z"/>
				<path class="st5" d="M945.6,516.9v2h2.7v1.5h-2.7v2.1h3.5v1.5h-5.5v-8.6h5.5v1.5H945.6z"/>
			</g>
		</g>
		<g>
			<path class="st41" d="M1004.4,532.7c-6.4-1.9-6.2-8.3-6.2-8.3h4.1h0.8C1003,524.4,1004.5,527.3,1004.4,532.7z"/>
		</g>
		<g>
			<g>
				<path class="st42" d="M1004.4,531.5c-6.4-1.6-6.2-7.1-6.2-7.1h4.1h0.8C1003,524.4,1004.5,526.9,1004.4,531.5z"/>
			</g>
		</g>
		<circle class="st5" cx="1002" cy="527.1" r="1.8"/>
		<g>
			<path class="st43" d="M975.3,501.8l-0.2-0.3c0,0-0.7-3.9-11.6-4.3v15.3l2.3,0.6C967.7,509.2,970.9,504.2,975.3,501.8z"/>
		</g>
		<rect x="891.8" y="528.2" class="st35" width="3.2" height="8"/>
		<rect x="891.8" y="528.6" class="st44" width="2.7" height="2.1"/>
		<rect x="891.8" y="531.1" class="st45" width="2.7" height="2.1"/>
		<rect x="891.8" y="533.6" class="st45" width="2.7" height="2.1"/>
		<path class="st35" d="M969.3,521.3h-3.8c-0.4,0-0.8-0.4-0.8-0.8l0,0c0-0.4,0.4-0.8,0.8-0.8h3.8c0.4,0,0.8,0.4,0.8,0.8l0,0
			C970.1,520.9,969.7,521.3,969.3,521.3z"/>
	</g>
	<path class="st5" d="M1170.5,350.9h-19.3c-5.2,0-9.4,4.2-9.4,9.4v15.8c0,3.7,2.2,6.9,5.4,8.5l-5.4,19.3l14.6-18.4h14.1
		c5.2,0,9.4-4.2,9.4-9.4v-15.8C1179.9,355.1,1175.6,350.9,1170.5,350.9z"/>
	<polygon class="st46" points="1154.2,374.3 1149.3,369.4 1152.3,366.3 1157.2,371.2 1169.4,359.1 1172.4,362.1 1160.3,374.3 
		1157.2,377.3 	"/>
	<path class="st47" d="M756.5,313.8v5.3c0,0-4.9,1.3-10.5,0.3v-5.9L756.5,313.8z"/>
	<g>
		<g class="st48">
			<path class="st8" d="M636.5,215.7l10,6c2.5,2.1,6.6,3,10.2,2.4v13.6c-8.1,0.4-16.4-1.9-21.9-6.5c0,0,0,0,0,0v-15.5H636.5z"/>
		</g>
		<g>
			<path class="st49" d="M633.2,204v4.6l13.3,8c3.3,2.8,9.4,3.4,13.5,1.3c4-2.1,4.7-2.5,1.5-5.2L647.5,201l0,0v0l0,0c0,0,0,0,0,0
				v-11.7h6.9l10.8,13.7l-0.1,0c2.7,1,5.2,2.4,7.3,4.2c5.6,4.7,6.9,10.6,4,15.7l49.9,43.1l22.9,11.9c7.7-0.9,2.9-2.9,8.5,1.8h6.6
				l0,11.6l0,0c0.1,2.5-0.5,5.1-1.9,7.4l-7-5.7c-3.4-2.8-9.2-3.3-13-0.9c-3.9,2.4,10.6,7.5,14,10.4l0,11.7
				c-8.8,2.1-19.2,0.2-25.9-5.5c-4.3-3.6-6.2-8.1-6-12.4l0-6.4l-53.3-46.1l-13.1-11c-8.5,0.8-17.7-1.4-23.5-6.4
				c-3.6-3-5.3-6.6-5.4-10.1h0v-12H633.2z"/>
			<g class="st38">
				<path class="st8" d="M757.3,279.2l-7.4-1.5C752.9,277.4,755.2,278,757.3,279.2z"/>
				<polygon class="st8" points="654.4,189.2 656.6,192 653.2,189.2 				"/>
				<path class="st8" d="M748.8,277.4l1,0.2c-0.2,0-0.3,0-0.5,0L748.8,277.4z"/>
				<path class="st8" d="M734.9,274.6l13.9,2.8l0.5,0.2c0.2,0,0.4,0,0.5,0l7.4,1.5c2.7,1.6-2.6-2.3,0.5,0.3l4.7,7.2l0,11.7l-7-5.8
					c-3.4-2.8-9.2-3.3-13-0.9c-0.3,0.2-0.4,0.4-0.5,0.5l-1-0.4L734.9,274.6z"/>
				<path class="st8" d="M661.4,212.6L647.5,201l0,0v0l0,0c0,0,0,0,0,0v-11.7l5.6,0l3.4,2.8l8.6,10.9l-0.1,0c0.8,0.3,1.6,0.7,2.4,1
					l-5.6,9.1C661.8,212.9,661.6,212.7,661.4,212.6z"/>
			</g>
			<g>
				<path class="st50" d="M671.3,231.7L726,279c-2.9,5.7-1.4,12.5,4.6,17.6c6.7,5.7,17.1,7.6,25.9,5.5l-14.8-12.5
					c-3.5-2.9-3.1-7.2,0.7-9.6c3.8-2.3,9.6-1.9,13,0.9l7,5.7c3.5-6,2.1-13.3-4.3-18.6c-5.8-4.8-6.7-0.5-14.6,0.4l-17.2-14.4
					L676.5,211c2.8-5,1.5-11-4-15.7c-6.2-5.1-16-7.3-24.9-6.1l13.9,11.6c3.3,2.8,2.7,6.6-1.3,8.7c-4.1,2.1-10.1,1.5-13.5-1.3
					l-14.1-11.9c-4.7,5.3-4.2,12.4,2.2,17.9c5.9,5,15,7.2,23.5,6.4L671.3,231.7z"/>
				<path class="st49" d="M733.2,272.3c-1.3,0.7-3.2,0.6-4.3-0.3c-1.1-0.9-1-2.3,0.3-3c1.3-0.7,3.2-0.6,4.3,0.3
					C734.6,270.2,734.5,271.5,733.2,272.3z"/>
				<path class="st49" d="M673.5,220.8c-1.3,0.7-3.2,0.5-4.3-0.4c-1.1-0.9-0.9-2.2,0.4-2.9c1.3-0.7,3.2-0.5,4.3,0.4
					C674.9,218.8,674.8,220.1,673.5,220.8z"/>
				<path class="st49" d="M677.1,223.9c-1.3,0.7-1.5,2-0.4,3l3.1,2.6l41,35.7c1.1,0.9,3,1.1,4.3,0.4c1.3-0.7,1.4-2.1,0.3-3l-3.8-3.2
					l-40.3-35C680.3,223.3,678.4,223.2,677.1,223.9z"/>
			</g>
		</g>
		<polygon class="st51" points="647.3,208.2 656.6,210.4 656.6,185.7 647.3,185.7 		"/>
	</g>
	<polygon class="st51" points="764.9,300.2 746,291.2 746,260.6 757,266.9 764.9,266.9 	"/>
	<g>
		<path class="st52" d="M645.7,200.2V176c0-11.5,9.3-20.8,20.7-20.8h69.9c11.5,0,20.7,9.3,20.7,20.8v353.9
			c0,11.5,9.3,20.8,20.7,20.8l519.6,0h21.1c11.5,0,20.7-9.3,20.7-20.8V373.8c0-11.5,9.3-20.8,20.7-20.8l17.2-0.1L2000,353 M0,352.9
			l624.9,0c11.5,0,20.7-9.3,20.7-20.8v-98.2"/>
	</g>
</g>
<rect x="861" y="252" class="st53" width="394" height="64"/>
<text transform="matrix(1 0 0 1 861 265.2749)"><tspan x="0" y="0" class="st54 st55">After</tspan><tspan x="40.6" y="0" class="st54 st55"> </tspan><tspan x="45.3" y="0" class="st54 st55">choosing</tspan><tspan x="115.8" y="0" class="st54 st55"> </tspan><tspan x="120.6" y="0" class="st54 st55">the</tspan><tspan x="146.6" y="0" class="st54 st55"> </tspan><tspan x="151.3" y="0" class="st54 st55">service</tspan><tspan x="206.8" y="0" class="st54 st55"> </tspan><tspan x="211.5" y="0" class="st54 st55">and</tspan><tspan x="240.6" y="0" class="st54 st55"> </tspan><tspan x="245.3" y="0" class="st54 st55">setting</tspan><tspan x="298.8" y="0" class="st54 st55"> </tspan><tspan x="303.5" y="0" class="st54 st55">up</tspan><tspan x="323.6" y="0" class="st54 st55"> </tspan><tspan x="328.3" y="0" class="st54 st55">the</tspan><tspan x="354.3" y="0" class="st54 st55"> </tspan><tspan x="359" y="0" class="st54 st55">date </tspan><tspan x="0" y="21.6" class="st54 st55">you</tspan><tspan x="29.5" y="21.6" class="st54 st55 st56"> </tspan><tspan x="36.8" y="21.6" class="st54 st55">which,</tspan><tspan x="88" y="21.6" class="st54 st55 st56"> </tspan><tspan x="95.2" y="21.6" class="st54 st55">theres</tspan><tspan x="148.9" y="21.6" class="st54 st55 st56"> </tspan><tspan x="156.2" y="21.6" class="st54 st55">nothing</tspan><tspan x="216.6" y="21.6" class="st54 st55 st56"> </tspan><tspan x="223.9" y="21.6" class="st54 st55">else</tspan><tspan x="254.9" y="21.6" class="st54 st55 st56"> </tspan><tspan x="262.2" y="21.6" class="st54 st55">you</tspan><tspan x="291.7" y="21.6" class="st54 st55 st56"> </tspan><tspan x="298.9" y="21.6" class="st54 st55">can</tspan><tspan x="326.5" y="21.6" class="st54 st55 st56"> </tspan><tspan x="333.8" y="21.6" class="st54 st55">do,</tspan><tspan x="358.2" y="21.6" class="st54 st55 st56"> </tspan><tspan x="365.4" y="21.6" class="st54 st55">just </tspan><tspan x="28.6" y="43.2" class="st54 st55">relax and let everything else to HomeCare.</tspan></text>
<rect x="852" y="210" class="st53" width="412" height="37"/>
<text transform="matrix(1 0 0 1 874.8071 230.9858)" class="st57 st58">Relax and receive the service</text>
</svg>
