<?xml version="1.0"?>
<svg xmlns="http://www.w3.org/2000/svg" height="512px" viewBox="-1 0 448 448" width="512px" class=""><g><path d="m206.632812 440c0 4.417969 3.582032 8 8 8h16c4.417969 0 8-3.582031 8-8v-48h-32zm0 0" data-original="#000000" class="active-path" data-old_color="#000000" fill="#FFFFFF"/><path d="m206.632812 344h8v32h-8zm0 0" data-original="#000000" class="active-path" data-old_color="#000000" fill="#FFFFFF"/><path d="m230.632812 344h8v32h-8zm0 0" data-original="#000000" class="active-path" data-old_color="#000000" fill="#FFFFFF"/><path d="m422.632812 200h-400v40c.054688 48.578125 39.421876 87.941406 88 88h224c48.578126-.058594 87.941407-39.421875 88-88zm0 0" data-original="#000000" class="active-path" data-old_color="#000000" fill="#FFFFFF"/><path d="m254.632812 344h8v32h-8zm0 0" data-original="#000000" class="active-path" data-old_color="#000000" fill="#FFFFFF"/><path d="m142.632812 136h24v16h-24zm0 0" data-original="#000000" class="active-path" data-old_color="#000000" fill="#FFFFFF"/><path d="m278.632812 136h24v16h-24zm0 0" data-original="#000000" class="active-path" data-old_color="#000000" fill="#FFFFFF"/><path d="m294.632812 64h16v8h-16zm0 0" data-original="#000000" class="active-path" data-old_color="#000000" fill="#FFFFFF"/><path d="m422.632812 168h-400c-10.167968.011719-19.230468 6.417969-22.632812 16h445.265625c-3.40625-9.582031-12.464844-15.988281-22.632813-16zm0 0" data-original="#000000" class="active-path" data-old_color="#000000" fill="#FFFFFF"/><path d="m214.632812 152h16v-112c0-13.253906 10.746094-24 24-24h16c13.253907 0 24 10.746094 24 24v8h16v-8c-.027343-22.082031-17.921874-39.9726562-40-40h-16c-22.082031.0273438-39.972656 17.917969-40 40zm0 0" data-original="#000000" class="active-path" data-old_color="#000000" fill="#FFFFFF"/><path d="m182.632812 344h8v32h-8zm0 0" data-original="#000000" class="active-path" data-old_color="#000000" fill="#FFFFFF"/></g> </svg>
