<svg xmlns="http://www.w3.org/2000/svg" width="24.567" height="17.663" viewBox="0 0 24.567 17.663">
  <g id="chat" transform="translate(0 -71.946)">
    <path id="Path_180" data-name="Path 180" d="M16.3,268.433H1.541A1.543,1.543,0,0,0,0,269.974v5.152a1.543,1.543,0,0,0,1.541,1.541H16.3a1.543,1.543,0,0,0,1.541-1.541v-5.152A1.543,1.543,0,0,0,16.3,268.433Zm.582,6.693a.582.582,0,0,1-.582.582H1.541a.582.582,0,0,1-.582-.582v-5.152a.582.582,0,0,1,.582-.582H16.3a.582.582,0,0,1,.582.582Z" transform="translate(0 -187.059)" fill="#6f71a2"/>
    <path id="Path_181" data-name="Path 181" d="M156.492,71.946H146.014a.48.48,0,0,0,0,.96h10.478a.582.582,0,0,1,.582.582v5.152a.582.582,0,0,1-.582.582H141.734a.582.582,0,0,1-.582-.582V73.487a.582.582,0,0,1,.582-.582h.059a.48.48,0,0,0,0-.96h-.059a1.543,1.543,0,0,0-1.541,1.541v5.152a1.543,1.543,0,0,0,1.541,1.541h14.757a1.543,1.543,0,0,0,1.541-1.541V73.487a1.543,1.543,0,0,0-1.541-1.541Z" transform="translate(-133.466)" fill="#6f71a2"/>
    <path id="Path_182" data-name="Path 182" d="M400.1,299.121a2.751,2.751,0,1,0,2.751,2.751A2.754,2.754,0,0,0,400.1,299.121Zm0,4.542a1.791,1.791,0,1,1,1.791-1.791A1.793,1.793,0,0,1,400.1,303.663Z" transform="translate(-378.284 -216.275)" fill="#6f71a2"/>
    <path id="Path_183" data-name="Path 183" d="M433.344,346.446h-1.333a.48.48,0,0,0,0,.96h1.333a.48.48,0,0,0,0-.96Z" transform="translate(-410.825 -261.329)" fill="#6f71a2"/>
    <path id="Path_184" data-name="Path 184" d="M.982,88.935H4.565a.983.983,0,0,0,.982-.982v-.734A2.245,2.245,0,0,0,4.339,85.23,1.995,1.995,0,1,0,1.272,85.2,2.246,2.246,0,0,0,0,87.219v.734A.983.983,0,0,0,.982,88.935Zm1.837-6.029a1.035,1.035,0,1,1-1.035,1.035A1.036,1.036,0,0,1,2.819,82.906ZM.96,87.219a1.285,1.285,0,0,1,1.284-1.284H3.3a1.285,1.285,0,0,1,1.284,1.284v.734a.022.022,0,0,1-.022.022H.982a.022.022,0,0,1-.022-.022Z" transform="translate(0 -9.52)" fill="#6f71a2"/>
    <path id="Path_185" data-name="Path 185" d="M219,122.738a.48.48,0,0,0-.48-.48h-10.76a.48.48,0,0,0,0,.96h10.76A.48.48,0,0,0,219,122.738Z" transform="translate(-197.337 -47.898)" fill="#6f71a2"/>
    <path id="Path_186" data-name="Path 186" d="M207.763,172.25a.48.48,0,1,0,0,.96h5.38a.48.48,0,1,0,0-.96Z" transform="translate(-197.337 -95.491)" fill="#6f71a2"/>
    <path id="Path_187" data-name="Path 187" d="M127.418,321.344h5.227a.48.48,0,1,0,0-.96h-5.227a.48.48,0,1,0,0,.96Z" transform="translate(-120.847 -236.517)" fill="#6f71a2"/>
    <path id="Path_188" data-name="Path 188" d="M74.5,367.665H63.929a.48.48,0,0,0,0,.96H74.5a.48.48,0,0,0,0-.96Z" transform="translate(-60.405 -281.53)" fill="#6f71a2"/>
    <path id="Path_189" data-name="Path 189" d="M284.65,320.819a.48.48,0,1,0-.217.607.483.483,0,0,0,.217-.607Z" transform="translate(-270.113 -236.656)" fill="#6f71a2"/>
    <path id="Path_190" data-name="Path 190" d="M207.34,72.627a.48.48,0,1,0,.217-.607A.483.483,0,0,0,207.34,72.627Z" transform="translate(-197.358 -0.018)" fill="#6f71a2"/>
  </g>
</svg>
