<svg xmlns="http://www.w3.org/2000/svg" width="17.663" height="17.663" viewBox="0 0 17.663 17.663">
  <g id="coupon_1_" data-name="coupon (1)" transform="translate(0 -0.001)">
    <path id="Path_174" data-name="Path 174" d="M204.157,205.547a.517.517,0,0,0,0,1.035l5.192,0h0a.517.517,0,0,0,0-1.035l-5.192,0Z" transform="translate(-196.615 -198.455)" fill="#6f71a2"/>
    <path id="Path_175" data-name="Path 175" d="M248.18,98.6a1.475,1.475,0,1,0,1.043-.432A1.477,1.477,0,0,0,248.18,98.6Zm1.354,1.354a.44.44,0,1,1,0-.623A.441.441,0,0,1,249.534,99.951Z" transform="translate(-239.202 -94.778)" fill="#6f71a2"/>
    <path id="Path_176" data-name="Path 176" d="M247.558,260.216a1.475,1.475,0,1,0,2.086,0A1.477,1.477,0,0,0,247.558,260.216Zm1.354,1.354a.44.44,0,1,1,.129-.311A.441.441,0,0,1,248.912,261.57Z" transform="translate(-238.601 -250.822)" fill="#6f71a2"/>
    <path id="Path_177" data-name="Path 177" d="M17.511,7.695,9.969.152a.517.517,0,1,0-.732.732L9.3.947.152,10.095A.517.517,0,0,0,0,10.461v1.414a.517.517,0,0,0,.517.517h0l.886-.005v.8a.517.517,0,0,0,.517.517h.8l0,.8a.517.517,0,0,0,.517.519h.8v.8a.517.517,0,0,0,.517.517h.8l0,.8a.517.517,0,0,0,.517.519H7.2a.517.517,0,0,0,.366-.152l9.148-9.148.063.063a.517.517,0,0,0,.732-.732ZM6.989,16.629H6.4l0-.8a.517.517,0,0,0-.517-.519h-.8v-.8a.517.517,0,0,0-.517-.517h-.8l0-.8a.517.517,0,0,0-.517-.519h-.8v-.8a.517.517,0,0,0-.517-.517h0l-.886.005v-.68l9-9,5.954,5.954Z" transform="translate(0 0)" fill="#6f71a2"/>
    <path id="Path_178" data-name="Path 178" d="M115.1,248.09a.517.517,0,0,0-.732.732l4.131,4.131a.517.517,0,1,0,.732-.732Z" transform="translate(-110.276 -239.384)" fill="#6f71a2"/>
    <path id="Path_179" data-name="Path 179" d="M105.784,307.1a.517.517,0,1,0-.732.732l2.417,2.417a.517.517,0,0,0,.732-.732Z" transform="translate(-101.282 -296.355)" fill="#6f71a2"/>
  </g>
</svg>
