<?xml version="1.0"?>
<svg xmlns="http://www.w3.org/2000/svg" viewBox="0 0 64 64" width="512px" height="512px"><g><g id="customer"><path d="M39.249,33.029l-2.933-.978a1,1,0,0,0-.758.058L35.1,30.271A7.006,7.006,0,0,0,38.6,26.322c.037-.105.051-.216.083-.322H40a3,3,0,0,0,3-3V21a3,3,0,0,0-2-2.816V13a5.006,5.006,0,0,0-5-5H28a5.006,5.006,0,0,0-5,5v5.184A3,3,0,0,0,21,21v2a3,3,0,0,0,3,3h1.313c.032.106.046.217.083.322a7.006,7.006,0,0,0,3.5,3.949l-.459,1.837a1,1,0,0,0-.758-.057l-2.933.978A9,9,0,0,0,17,42V59a3,3,0,0,0,3,3H44a3,3,0,0,0,3-3V42A9,9,0,0,0,39.249,33.029ZM41,23a1,1,0,0,1-1,1H39V20h1a1,1,0,0,1,1,1ZM25,13a3,3,0,0,1,3-3h8a3,3,0,0,1,3,3v5a1,1,0,0,0-.684-.949l-3-1a1.006,1.006,0,0,0-.871.117L33,17.131V16a1,1,0,0,0-1.707-.707l-1.356,1.356a1,1,0,0,0-1.253-.6l-3,1A1,1,0,0,0,25,18ZM24,24a1,1,0,0,1-1-1V21a1,1,0,0,1,1-1h1v4Zm3.282,1.656A4.955,4.955,0,0,1,27,24V18.721l1-.334V19a1,1,0,0,0,1.707.707L31,18.414V19a1,1,0,0,0,1.555.832L35.148,18.1,37,18.721V24a4.955,4.955,0,0,1-.282,1.656v0a5,5,0,0,1-9.435,0ZM32,31a6.926,6.926,0,0,0,1.192-.11l.7,2.8L32,35.586l-1.892-1.893.7-2.8A6.926,6.926,0,0,0,32,31Zm-4.27,3.144,3.563,3.563a1,1,0,0,0,1.414,0l3.563-3.563,1.129.377L33.485,40h-2.97L26.6,34.521Zm7.2,18.513L32,55.586l-2.929-2.929L30.18,46h3.64ZM30.847,42h2.306l.333,2H30.514ZM19,59V54h4v6H20A1,1,0,0,1,19,59Zm25,1H41V54h4v5A1,1,0,0,1,44,60Zm1-8H40a1,1,0,0,0-1,1v7H25V53a1,1,0,0,0-1-1H19V42a7.018,7.018,0,0,1,5.548-6.912l4.4,6.156L27.014,52.835a1,1,0,0,0,.279.872l4,4a1,1,0,0,0,1.414,0l4-4a1,1,0,0,0,.279-.872L35.055,41.244l4.4-6.156A7.018,7.018,0,0,1,45,42Z" data-original="#000000" class="active-path" data-old_color="#000000" fill="#FFFFFF"/><path d="M62.106,23.691A1,1,0,0,0,61.155,23H57.18l-1.229-3.781a1,1,0,0,0-1.9,0L52.82,23H48.845a1,1,0,0,0-.588,1.809l3.216,2.337-1.228,3.781a1,1,0,0,0,1.539,1.118L55,29.708l3.216,2.337a1,1,0,0,0,1.539-1.118l-1.228-3.781,3.216-2.337A1,1,0,0,0,62.106,23.691ZM56.4,27.073l.5,1.545-1.314-.955a1,1,0,0,0-1.176,0l-1.314.955.5-1.545a1,1,0,0,0-.363-1.118L51.922,25h1.625a1,1,0,0,0,.951-.691l.5-1.545.5,1.545a1,1,0,0,0,.951.691h1.625l-1.315.955A1,1,0,0,0,56.4,27.073Z" data-original="#000000" class="active-path" data-old_color="#000000" fill="#FFFFFF"/><path d="M15.155,23H11.18L9.951,19.219a1,1,0,0,0-1.9,0L6.82,23H2.845a1,1,0,0,0-.588,1.809l3.216,2.337L4.245,30.927a1,1,0,0,0,1.539,1.118L9,29.708l3.216,2.337a1,1,0,0,0,1.539-1.118l-1.228-3.781,3.216-2.337A1,1,0,0,0,15.155,23ZM10.4,27.073l.5,1.545-1.314-.955a1,1,0,0,0-1.176,0L7.1,28.618l.5-1.545a1,1,0,0,0-.363-1.118L5.922,25H7.547a1,1,0,0,0,.951-.691L9,22.764l.5,1.545a1,1,0,0,0,.951.691h1.625l-1.315.955A1,1,0,0,0,10.4,27.073Z" data-original="#000000" class="active-path" data-old_color="#000000" fill="#FFFFFF"/><path d="M12.473,10.146l-1.228,3.781a1,1,0,0,0,1.539,1.118L16,12.708l3.216,2.337a1,1,0,0,0,1.539-1.118l-1.228-3.781,3.216-2.337A1,1,0,0,0,22.155,6H18.18L16.951,2.219a1,1,0,0,0-1.9,0L13.82,6H9.845a1,1,0,0,0-.588,1.809ZM14.547,8a1,1,0,0,0,.951-.691L16,5.764l.5,1.545A1,1,0,0,0,17.453,8h1.625l-1.315.955a1,1,0,0,0-.363,1.118l.5,1.545-1.314-.955a1,1,0,0,0-1.176,0l-1.314.955.5-1.545a1,1,0,0,0-.363-1.118L12.922,8Z" data-original="#000000" class="active-path" data-old_color="#000000" fill="#FFFFFF"/><path d="M44.473,10.146l-1.228,3.781a1,1,0,0,0,1.539,1.118L48,12.708l3.216,2.337a1,1,0,0,0,1.539-1.118l-1.228-3.781,3.216-2.337A1,1,0,0,0,54.155,6H50.18L48.951,2.219a1,1,0,0,0-1.9,0L45.82,6H41.845a1,1,0,0,0-.588,1.809ZM46.547,8a1,1,0,0,0,.951-.691L48,5.764l.5,1.545A1,1,0,0,0,49.453,8h1.625l-1.315.955a1,1,0,0,0-.363,1.118l.5,1.545-1.314-.955a1,1,0,0,0-1.176,0l-1.314.955.5-1.545a1,1,0,0,0-.363-1.118L44.922,8Z" data-original="#000000" class="active-path" data-old_color="#000000" fill="#FFFFFF"/><path d="M35,24H33a1,1,0,0,1-2,0H29a3,3,0,0,0,6,0Z" data-original="#000000" class="active-path" data-old_color="#000000" fill="#FFFFFF"/></g></g> </svg>
