<svg xmlns="http://www.w3.org/2000/svg" width="17.871" height="18.081" viewBox="0 0 17.871 18.081">
  <g id="customer-support" transform="translate(-0.165 0.168)">
    <path id="Path_169" data-name="Path 169" d="M.352,1.7l1.177,2.06a.294.294,0,0,0,.184.139l1.1.275L6.577,7.936l.416-.416L3.168,3.695a.293.293,0,0,0-.137-.077L1.976,3.352.974,1.6,1.833.739l1.755,1L3.854,2.8a.293.293,0,0,0,.077.137L7.756,6.759l.416-.416L4.406,2.576l-.275-1.1a.3.3,0,0,0-.139-.184L1.932.118a.294.294,0,0,0-.353.047L.4,1.342a.294.294,0,0,0-.05.354Zm0,0" transform="translate(-0.039 -0.077)" fill="#6f71a2" stroke="#6f71a2" stroke-width="0.2"/>
    <path id="Path_170" data-name="Path 170" d="M180.871,174.135l-6.473,6.473-.416-.416,6.473-6.473Zm0,0" transform="translate(-168.325 -168.336)" fill="#6f71a2" stroke="#6f71a2" stroke-width="0.2"/>
    <path id="Path_171" data-name="Path 171" d="M50.948,398.978a.294.294,0,0,0-.252-.143H48.93a.294.294,0,0,0-.252.143l-.883,1.471a.294.294,0,0,0,0,.3l.883,1.471a.294.294,0,0,0,.252.143H50.7a.294.294,0,0,0,.252-.143l.883-1.471a.294.294,0,0,0,0-.3Zm-.419,2.8H49.1l-.706-1.177.706-1.177h1.432l.706,1.177Zm0,0" transform="translate(-46.008 -386.477)" fill="#6f71a2" stroke="#6f71a2" stroke-width="0.2"/>
    <path id="Path_172" data-name="Path 172" d="M14.4,7.062A3.519,3.519,0,0,0,17.82,2.678a.294.294,0,0,0-.493-.137l-1.832,1.83-1.453-.484-.485-1.453L15.389.6a.294.294,0,0,0-.138-.494,3.52,3.52,0,0,0-4.384,3.423,3.454,3.454,0,0,0,.072.689L4.494,10.665a3.471,3.471,0,0,0-.689-.072,3.531,3.531,0,1,0,3.531,3.531,3.463,3.463,0,0,0-.072-.689l1.543-1.543.675.675a.294.294,0,0,0,.416,0l.147-.147a.33.33,0,0,1,.467.466h0l-.147.147a.294.294,0,0,0,0,.416l3.51,3.51a2.375,2.375,0,1,0,3.374-3.343l-.015-.015-3.51-3.51a.294.294,0,0,0-.416,0l-.147.147a.33.33,0,0,1-.467-.466h0l.147-.147a.294.294,0,0,0,0-.416l-.675-.675,1.543-1.543a3.462,3.462,0,0,0,.689.072Zm1.156,10a1.788,1.788,0,0,1-.626-.114l2.3-2.3a1.784,1.784,0,0,1-1.672,2.412ZM12.22,9.419a.918.918,0,0,0,1.295,1.293l3.3,3.3c.036.036.069.074.1.112L14.4,16.645c-.039-.032-.076-.066-.112-.1l-3.3-3.3a.918.918,0,0,0-1.295-1.293l-.471-.471L11.749,8.95ZM13.408,6.46,6.733,13.133a.3.3,0,0,0-.078.28,2.962,2.962,0,1,1-2.14-2.14A.3.3,0,0,0,4.8,11.2l6.673-6.674a.294.294,0,0,0,.077-.279A2.928,2.928,0,0,1,14.564.594L13.012,2.147a.294.294,0,0,0-.071.3l.588,1.766a.294.294,0,0,0,.186.186l1.766.589a.294.294,0,0,0,.3-.071l1.552-1.552c0,.056.005.112.005.167a2.927,2.927,0,0,1-3.654,2.851.294.294,0,0,0-.28.077h0Zm0,0" transform="translate(0 0)" fill="#6f71a2" stroke="#6f71a2" stroke-width="0.2"/>
    <path id="Path_173" data-name="Path 173" d="M386.249,385.567l-.416.416-2.942-2.942.416-.416Zm0,0" transform="translate(-370.76 -370.768)" fill="#6f71a2" stroke="#6f71a2" stroke-width="0.2"/>
  </g>
</svg>
