<svg xmlns="http://www.w3.org/2000/svg" width="19.391" height="17.663" viewBox="0 0 19.391 17.663">
  <path id="discuss-issue" d="M14.836,20.338a1.608,1.608,0,0,1-.74,1.207c-.118.1-.338.28-.338.348a.473.473,0,0,1-.477.478h0a.475.475,0,0,1-.481-.47,1.44,1.44,0,0,1,.681-1.089c.24-.2.4-.343.4-.472a.476.476,0,0,0-.951,0,.481.481,0,0,1-.962,0,1.437,1.437,0,0,1,2.874,0ZM13.29,22.814a.472.472,0,0,0-.47.481v0a.47.47,0,0,0,.47.479.482.482,0,0,0,0-.963ZM3.6,26.163a.481.481,0,1,0,0,.962h.04a.481.481,0,1,0,0-.962Zm1.671,0a.481.481,0,1,0,0,.962h.04a.481.481,0,1,0,0-.962Zm14.12-7.679V23.9a2.311,2.311,0,0,1-2.309,2.321H10.847c-.122,0-.222,0-.306,0s-.187,0-.226,0c-.04.027-.139.117-.234.2l-.126.115L8.191,28.143a.492.492,0,0,1-.82-.355v-5.1H2.335A1.378,1.378,0,0,0,.962,24.058v5.411A1.356,1.356,0,0,0,2.335,30.81H9.3a.483.483,0,0,1,.321.136l1.437,1.325V27.7a.481.481,0,0,1,.962,0v5.659a.474.474,0,0,1-.283.437.461.461,0,0,1-.19.038.486.486,0,0,1-.324-.131L9.113,31.772H2.335A2.319,2.319,0,0,1,0,29.469V24.058a2.34,2.34,0,0,1,2.335-2.328H7.372V18.484a2.332,2.332,0,0,1,2.343-2.31h7.367A2.3,2.3,0,0,1,19.391,18.484Zm-.962,0a1.34,1.34,0,0,0-1.347-1.349H9.715a1.369,1.369,0,0,0-1.382,1.349V26.7l.967-.874c.045-.041.095-.078.132-.112a1.214,1.214,0,0,1,1.13-.46c.079,0,.172,0,.286,0h6.235A1.349,1.349,0,0,0,18.429,23.9V18.484Z" transform="translate(0 -16.174)" fill="#6f71a2"/>
</svg>
