<svg id="earth" xmlns="http://www.w3.org/2000/svg" width="17.663" height="17.663" viewBox="0 0 17.663 17.663">
  <path id="Path_148" data-name="Path 148" d="M15.076,2.587A8.831,8.831,0,0,0,2.587,15.076,8.831,8.831,0,0,0,15.076,2.587ZM1.035,8.831A7.778,7.778,0,0,1,3.581,3.073h.733a1.1,1.1,0,0,1,1.1,1.1v.517H7.848a.88.88,0,0,1,0,1.759H4.933v3.07A1.174,1.174,0,0,1,3.76,10.694H3.243V13.53l-.2.518A7.766,7.766,0,0,1,1.035,8.831Zm2.817,5.994.426-1.1V11.668a2.212,2.212,0,0,0,1.69-2.147V7.486h1.88a1.915,1.915,0,0,0,0-3.829H6.388A2.144,2.144,0,0,0,4.879,2.114a7.781,7.781,0,0,1,9.366,1.113h-.972a1.888,1.888,0,0,0,0,3.777h.446a.655.655,0,0,1,0,1.311H10.056a2.087,2.087,0,1,0,0,4.174h1.6a1.244,1.244,0,0,1-1.234,1.1H9.9v2.962a7.783,7.783,0,0,1-6.049-1.728Zm7.084,1.513V14.568a2.281,2.281,0,0,0,1.759-2.218v-.9H10.056a1.052,1.052,0,1,1,0-2.1h3.662a1.69,1.69,0,1,0,0-3.381h-.446a.853.853,0,1,1,0-1.707h1.871a7.792,7.792,0,0,1-4.208,12.078Z" transform="translate(0)" fill="#6f71a2"/>
  <path id="Path_149" data-name="Path 149" d="M196.039,396H197.1v1.035h-1.065Z" transform="translate(-189.276 -382.339)" fill="#6f71a2"/>
  <path id="Path_150" data-name="Path 150" d="M282.039,59.071H283.1v1.035h-1.065Z" transform="translate(-272.309 -57.033)" fill="#6f71a2"/>
</svg>
