<svg id="gear" xmlns="http://www.w3.org/2000/svg" width="17.663" height="17.663" viewBox="0 0 17.663 17.663">
  <path id="Path_153" data-name="Path 153" d="M10.618,17.663H7.044l-.467-1.608a7.536,7.536,0,0,1-1.258-.522l-1.469.807L1.323,13.813l.807-1.469a7.547,7.547,0,0,1-.522-1.258L0,10.618V7.044l1.608-.467a7.536,7.536,0,0,1,.522-1.258L1.323,3.85,3.85,1.323l1.469.807a7.547,7.547,0,0,1,1.258-.522L7.044,0h3.574l.467,1.608a7.536,7.536,0,0,1,1.258.522l1.469-.807L16.339,3.85l-.807,1.469a7.547,7.547,0,0,1,.522,1.258l1.608.467v3.574l-1.608.467a7.537,7.537,0,0,1-.522,1.258l.807,1.469-2.527,2.527-1.469-.807a7.547,7.547,0,0,1-1.258.522Zm-2.8-1.035h2.02l.411-1.414.281-.076a6.494,6.494,0,0,0,1.551-.644l.252-.146,1.293.711,1.428-1.428-.711-1.293.146-.252a6.492,6.492,0,0,0,.644-1.551l.076-.281,1.414-.411V7.821L15.213,7.41l-.076-.281a6.494,6.494,0,0,0-.644-1.551l-.146-.252.711-1.293L13.63,2.6l-1.293.711-.252-.146a6.494,6.494,0,0,0-1.551-.644l-.281-.076L9.841,1.035H7.821L7.41,2.449l-.281.076a6.494,6.494,0,0,0-1.551.644l-.252.146L4.032,2.6,2.6,4.032l.711,1.293-.146.252a6.492,6.492,0,0,0-.644,1.551l-.076.281-1.414.411v2.02l1.414.411.076.281a6.494,6.494,0,0,0,.644,1.551l.146.252L2.6,13.63l1.428,1.428,1.293-.711.252.146a6.492,6.492,0,0,0,1.551.644l.281.076Zm0,0" transform="translate(0 0)" fill="#6f71a2"/>
  <path id="Path_154" data-name="Path 154" d="M188.241,190.663a2.421,2.421,0,1,1,2.421-2.421A2.424,2.424,0,0,1,188.241,190.663Zm0-3.807a1.386,1.386,0,1,0,1.386,1.386A1.388,1.388,0,0,0,188.241,186.856Zm0,0" transform="translate(-179.41 -179.41)" fill="#6f71a2"/>
  <path id="Path_155" data-name="Path 155" d="M130.311,134.8a4.491,4.491,0,1,1,4.491-4.491A4.5,4.5,0,0,1,130.311,134.8Zm0-7.947a3.456,3.456,0,1,0,3.456,3.456A3.46,3.46,0,0,0,130.311,126.855Zm0,0" transform="translate(-121.48 -121.48)" fill="#6f71a2"/>
</svg>
