<?xml version="1.0"?>
<svg xmlns="http://www.w3.org/2000/svg" height="512px" version="1.1" viewBox="-172 0 937 937.5" width="512px" class=""><g><g id="surface1">
<path d="M 297.125 250 C 202.246094 250.117188 125.367188 326.996094 125.25 421.875 C 125.25 512.28125 278.078125 719.296875 284.625 728.125 C 287.574219 732.089844 292.234375 734.433594 297.171875 734.433594 C 302.117188 734.433594 306.769531 732.089844 309.722656 728.125 C 316.171875 719.296875 469 512.28125 469 421.875 C 468.882812 326.996094 392.003906 250.117188 297.125 250 Z M 297.125 692.1875 C 248.6875 624.296875 156.5 482.660156 156.5 421.875 C 156.5 344.210938 219.460938 281.25 297.125 281.25 C 374.789062 281.25 437.75 344.210938 437.75 421.875 C 437.75 482.613281 345.5625 624.265625 297.125 692.1875 Z M 297.125 692.1875 " data-original="#000000" class="active-path" data-old_color="#000000" fill="#FFFFFF"/>
<path d="M 297.125 328.125 C 245.359375 328.125 203.375 370.109375 203.375 421.875 C 203.375 473.640625 245.359375 515.625 297.125 515.625 C 348.890625 515.625 390.875 473.640625 390.875 421.875 C 390.820312 370.117188 348.882812 328.179688 297.125 328.125 Z M 297.125 484.375 C 262.609375 484.375 234.625 456.390625 234.625 421.875 C 234.625 387.359375 262.609375 359.375 297.125 359.375 C 331.640625 359.375 359.625 387.359375 359.625 421.875 C 359.625 456.390625 331.640625 484.375 297.125 484.375 Z M 297.125 484.375 " data-original="#000000" class="active-path" data-old_color="#000000" fill="#FFFFFF"/>
<path d="M 586.425781 95.984375 L 430.175781 2.234375 C 427.742188 0.773438 424.960938 0 422.125 0 L 172.125 0 C 169.289062 0 166.507812 0.773438 164.074219 2.234375 L 7.824219 95.984375 C 3.125 98.808594 0.25 103.886719 0.25 109.375 L 0.25 891.605469 C 0.273438 916.945312 20.804688 937.476562 46.144531 937.5 L 548.105469 937.5 C 573.445312 937.476562 593.976562 916.945312 594 891.605469 L 594 109.375 C 594 103.886719 591.125 98.808594 586.425781 95.984375 Z M 562.75 891.605469 C 562.746094 899.6875 556.1875 906.246094 548.105469 906.25 L 46.144531 906.25 C 38.0625 906.246094 31.503906 899.6875 31.5 891.605469 L 31.5 118.21875 L 176.453125 31.25 L 417.796875 31.25 L 562.75 118.21875 Z M 562.75 891.605469 " data-original="#000000" class="active-path" data-old_color="#000000" fill="#FFFFFF"/>
<path d="M 297.125 171.875 C 331.640625 171.875 359.625 143.890625 359.625 109.375 C 359.625 74.859375 331.640625 46.875 297.125 46.875 C 262.609375 46.875 234.625 74.859375 234.625 109.375 C 234.625 143.890625 262.609375 171.875 297.125 171.875 Z M 297.125 78.125 C 314.386719 78.125 328.375 92.113281 328.375 109.375 C 328.375 126.636719 314.386719 140.625 297.125 140.625 C 279.863281 140.625 265.875 126.636719 265.875 109.375 C 265.875 92.113281 279.863281 78.125 297.125 78.125 Z M 297.125 78.125 " data-original="#000000" class="active-path" data-old_color="#000000" fill="#FFFFFF"/>
<path d="M 265.875 750 L 328.375 750 L 328.375 781.25 L 265.875 781.25 Z M 265.875 750 " data-original="#000000" class="active-path" data-old_color="#000000" fill="#FFFFFF"/>
<path d="M 344 750 L 375.25 750 L 375.25 781.25 L 344 781.25 Z M 344 750 " data-original="#000000" class="active-path" data-old_color="#000000" fill="#FFFFFF"/>
<path d="M 219 750 L 250.25 750 L 250.25 781.25 L 219 781.25 Z M 219 750 " data-original="#000000" class="active-path" data-old_color="#000000" fill="#FFFFFF"/>
</g></g> </svg>
