<svg id="route" xmlns="http://www.w3.org/2000/svg" width="18.919" height="17.663" viewBox="0 0 18.919 17.663">
  <g id="Group_350" data-name="Group 350">
    <g id="Group_349" data-name="Group 349" transform="translate(0 0)">
      <path id="Path_157" data-name="Path 157" d="M14.817,31.189a1.739,1.739,0,0,0-1.645,1.182H2.919a1.811,1.811,0,0,1,0-3.621H6.466a2.919,2.919,0,0,0,0-5.838H3.382a1.744,1.744,0,0,0-1.091-1.091V20.473H5.284a.554.554,0,0,0,.554-.554V17.554A.554.554,0,0,0,5.284,17H1.737a.554.554,0,0,0-.554.554v4.267a1.736,1.736,0,1,0,2.2,2.2H6.466a1.811,1.811,0,1,1,0,3.621H2.919a2.919,2.919,0,1,0,0,5.838H13.172a1.737,1.737,0,1,0,1.645-2.291ZM2.291,18.109H4.73v1.256H2.291Zm-.554,5.986a.628.628,0,1,1,.628-.628A.629.629,0,0,1,1.737,24.095Zm13.081,9.459a.628.628,0,1,1,.628-.628A.629.629,0,0,1,14.817,33.554Z" transform="translate(0 -17)" fill="#6f71a2"/>
    </g>
  </g>
  <g id="Group_352" data-name="Group 352" transform="translate(13.081 3.547)">
    <g id="Group_351" data-name="Group 351" transform="translate(0 0)">
      <path id="Path_158" data-name="Path 158" d="M355.737,113a1.737,1.737,0,1,0,1.737,1.737A1.739,1.739,0,0,0,355.737,113Zm0,2.365a.628.628,0,1,1,.628-.628A.629.629,0,0,1,355.737,115.365Z" transform="translate(-354 -113)" fill="#6f71a2"/>
    </g>
  </g>
  <g id="Group_354" data-name="Group 354" transform="translate(10.716 1.182)">
    <g id="Group_353" data-name="Group 353" transform="translate(0 0)">
      <path id="Path_159" data-name="Path 159" d="M294.1,49a4.1,4.1,0,0,0-2.637,7.243l2.144,4.2a.554.554,0,0,0,.988,0l2.144-4.2A4.1,4.1,0,0,0,294.1,49Zm1.853,6.452a.554.554,0,0,0-.15.183l-1.7,3.34-1.7-3.34a.554.554,0,0,0-.15-.183,2.993,2.993,0,1,1,3.706,0Z" transform="translate(-290 -49)" fill="#6f71a2"/>
    </g>
  </g>
</svg>
