<svg id="app" xmlns="http://www.w3.org/2000/svg" width="17.663" height="17.663" viewBox="0 0 17.663 17.663">
  <path id="Path_144" data-name="Path 144" d="M6.939,0H.631A.63.63,0,0,0,0,.631V6.939a.63.63,0,0,0,.631.631H6.939a.63.63,0,0,0,.631-.631V.631A.63.63,0,0,0,6.939,0ZM6.308,6.308H1.262V1.262H6.308Z" fill="#6f71a2"/>
  <path id="Path_145" data-name="Path 145" d="M6.939,264H.631a.63.63,0,0,0-.631.631v6.308a.63.63,0,0,0,.631.631H6.939a.63.63,0,0,0,.631-.631v-6.308A.63.63,0,0,0,6.939,264Zm-.631,6.308H1.262v-5.046H6.308Z" transform="translate(0 -253.907)" fill="#6f71a2"/>
  <path id="Path_146" data-name="Path 146" d="M270.939,264h-6.308a.63.63,0,0,0-.631.631v6.308a.63.63,0,0,0,.631.631h6.308a.63.63,0,0,0,.631-.631v-6.308A.63.63,0,0,0,270.939,264Zm-.631,6.308h-5.046v-5.046h5.046Z" transform="translate(-253.907 -253.907)" fill="#6f71a2"/>
  <path id="Path_147" data-name="Path 147" d="M207.908,5.493a.631.631,0,0,0,0-.892L203.492.185a.631.631,0,0,0-.892,0L198.185,4.6a.631.631,0,0,0,0,.892L202.6,9.908a.631.631,0,0,0,.892,0l4.416-4.416Zm-8.385-.446,3.524-3.524,3.524,3.524L203.046,8.57Z" transform="translate(-190.43 0)" fill="#6f71a2"/>
</svg>
