<svg id="shield" xmlns="http://www.w3.org/2000/svg" width="13.247" height="17.663" viewBox="0 0 13.247 17.663">
  <path id="Path_151" data-name="Path 151" d="M81.783,2.242,75.712.034a.541.541,0,0,0-.377,0L69.263,2.242a.551.551,0,0,0-.363.519V8.832c0,5.24,2.89,7.075,6.382,8.775a.548.548,0,0,0,.483,0c3.492-1.7,6.382-3.535,6.382-8.775V2.761A.551.551,0,0,0,81.783,2.242ZM75.523,16.5a12.478,12.478,0,0,1-3.841-2.657,13.105,13.105,0,0,1,7.682,0A12.477,12.477,0,0,1,75.523,16.5Zm5.52-7.664a7.614,7.614,0,0,1-.985,4.071,14.24,14.24,0,0,0-9.069,0A7.614,7.614,0,0,1,70,8.832V3.148L75.523,1.14l5.519,2.007V8.832Z" transform="translate(-68.9 0)" fill="#6f71a2"/>
  <path id="Path_152" data-name="Path 152" d="M172.237,141.111a3.312,3.312,0,1,0,3.312-3.312A3.315,3.315,0,0,0,172.237,141.111Zm5.519,0a2.208,2.208,0,1,1-2.208-2.208A2.21,2.21,0,0,1,177.756,141.111Z" transform="translate(-168.925 -133.383)" fill="#6f71a2"/>
</svg>
