<svg id="surface1" xmlns="http://www.w3.org/2000/svg" width="17.663" height="17.663" viewBox="0 0 17.663 17.663">
  <path id="Path_156" data-name="Path 156" d="M17.561,5.2,13.866.209a.517.517,0,0,0-.832,0L9.339,5.2a.518.518,0,0,0,.416.826h1.33v2.5a1.89,1.89,0,0,0-.868-.211H9.293a1.905,1.905,0,0,0-1.9,1.9V11.3a1.89,1.89,0,0,0-.868-.211H5.6a1.905,1.905,0,0,0-1.9,1.9v1.079a1.892,1.892,0,0,0-.868-.211H1.9a1.905,1.905,0,0,0-1.9,1.9v1.386a.517.517,0,0,0,.517.517H15.3a.517.517,0,0,0,.517-.517V6.023h1.33a.518.518,0,0,0,.416-.826ZM1.035,15.759a.869.869,0,0,1,.868-.868h.924a.869.869,0,0,1,.868.868v.868H1.035Zm3.695,0V12.988A.869.869,0,0,1,5.6,12.12h.924a.869.869,0,0,1,.868.868v3.639H4.73Zm3.7-2.771V10.217a.869.869,0,0,1,.868-.868h.924a.869.869,0,0,1,.868.868v6.411H8.425Zm6.872-8a.517.517,0,0,0-.517.517V16.628H12.12V5.506a.517.517,0,0,0-.517-.517h-.82l2.668-3.6,2.668,3.6Zm0,0" transform="translate(0 0)" fill="#6f71a2"/>
</svg>
