<svg xmlns="http://www.w3.org/2000/svg" width="14.682" height="19.225" viewBox="0 0 14.682 19.225">
  <g id="user" transform="translate(0.1 0.1)">
    <g id="Group_355" data-name="Group 355">
      <path id="Path_160" data-name="Path 160" d="M72.769,12.354a2.51,2.51,0,0,1-2.531-2.284,4.292,4.292,0,0,0,.989-.978A5.944,5.944,0,0,0,72.3,6.3a.426.426,0,0,0,.107-.151,4.61,4.61,0,0,0,.358-1.794A4.208,4.208,0,0,0,68.728,0a3.747,3.747,0,0,0-1.68.4,2.952,2.952,0,0,0-.594.107A3.337,3.337,0,0,0,64.36,2.414a4.739,4.739,0,0,0-.235,3.111,5.01,5.01,0,0,0,.217.659.426.426,0,0,0,.1.146A5.349,5.349,0,0,0,66.5,10.066a2.511,2.511,0,0,1-2.531,2.287,2.944,2.944,0,0,0-2.84,2.938v3.3a.428.428,0,0,0,.428.428H75.181a.428.428,0,0,0,.428-.428v-3.3A2.944,2.944,0,0,0,72.769,12.354ZM66.692,1.328a2.111,2.111,0,0,1,.491-.08.428.428,0,0,0,.18-.049A2.911,2.911,0,0,1,68.728.857a3.352,3.352,0,0,1,3.179,3.5c0,.058,0,.115,0,.173a1.867,1.867,0,0,0-1.334-.56h-2.92a.8.8,0,0,1-.741-.5.525.525,0,0,0-1,.066,3.973,3.973,0,0,1-.969,1.735C64.513,3.493,65.29,1.733,66.692,1.328Zm-.373,7.409A5.038,5.038,0,0,1,65.281,6.13a4.854,4.854,0,0,0,1.246-1.746,1.671,1.671,0,0,0,.133.11,1.642,1.642,0,0,0,.989.328h2.92a1.018,1.018,0,0,1,.928.6s0,.006,0,.009c0,2.418-1.4,4.385-3.128,4.385A2.679,2.679,0,0,1,66.319,8.737Zm.984,1.75a3.117,3.117,0,0,0,2.129,0,3.354,3.354,0,0,0,1.246,2.02l-2.249,3.2a.074.074,0,0,1-.121,0l-2.25-3.2A3.355,3.355,0,0,0,67.3,10.487Zm7.449,7.681H61.984V15.292a2.086,2.086,0,0,1,2.084-2.084,3.672,3.672,0,0,0,1.25-.264l2.29,3.261a.932.932,0,0,0,.762.4h0a.932.932,0,0,0,.762-.4l2.29-3.261a3.527,3.527,0,0,0,1.249.264,2.086,2.086,0,0,1,2.084,2.084v2.876Z" transform="translate(-61.127)" fill="#6f71a2" stroke="#6f71a2" stroke-width="0.2"/>
    </g>
  </g>
</svg>
